<svg xmlns="http://www.w3.org/2000/svg" viewBox="0 0 241.01 65.67"><defs><style>.cls-1{fill:#00967f;}.cls-2{fill:#fff;}.cls-3{fill:#1d1d1b;}</style></defs><g id="Layer_2" data-name="Layer 2"><g id="Logo"><path class="cls-1" d="M0,39.26A342.74,342.74,0,0,0,39.08,15.42V11.63A340,340,0,0,1,0,33.35Z"/><path class="cls-1" d="M0,27.92A299.06,299.06,0,0,0,39.08,8.71V6.83A172.83,172.83,0,0,1,0,20.24Z"/><path class="cls-1" d="M39.08,39.28V20.18c-8.9,7.5-17.71,14-25.11,19.1Z"/><path class="cls-1" d="M9,39.28A276.43,276.43,0,0,0,33,23.3q3-2.24,6-4.6V16.33a332.63,332.63,0,0,1-35.44,23Z"/><path class="cls-1" d="M0,17.46A154.41,154.41,0,0,0,39.08,5.34V3.21A119.11,119.11,0,0,1,0,12.94Z"/><path class="cls-1" d="M0,0V10.94l2.61-.18C12.12,10,25.08,8.35,39.08,2.3V0Z"/><path class="cls-2" d="M0,10.94v2A119.11,119.11,0,0,0,39.08,3.21V2.3c-14,6.05-27,7.73-36.47,8.46Z"/><path class="cls-2" d="M0,20.24A172.83,172.83,0,0,0,39.08,6.83V5.34A154.41,154.41,0,0,1,0,17.46Z"/><path class="cls-2" d="M0,33.35A340,340,0,0,0,39.08,11.63V8.71A299.06,299.06,0,0,1,0,27.92Z"/><path class="cls-2" d="M9,39.28h5c7.4-5.11,16.21-11.6,25.11-19.1V18.7Q36,21.07,33,23.3A276.43,276.43,0,0,1,9,39.28Z"/><path class="cls-2" d="M0,39.28H3.64a332.63,332.63,0,0,0,35.44-23v-.91A342.74,342.74,0,0,1,0,39.26Z"/><path class="cls-3" d="M229.64,39.26h5v-7.1c0-2.77,0-7.87,4.08-7.87a5,5,0,0,1,2.26.41V19.64a5.18,5.18,0,0,0-1.54-.16c-3,0-5.06,3.05-5.29,4.84h-.08V19.94h-4.46Zm-5-5.18a13,13,0,0,1-6.41,2c-3.11,0-5.29-1.76-5.52-4.88H226c0-6.75-2-11.67-9.19-11.67-6,0-9,4.62-9,10.21,0,6.34,3.71,10,10.09,10a13.27,13.27,0,0,0,6.63-1.54ZM212.68,27.7c.23-2.59,1.65-4.54,4.47-4.54s3.94,2.1,4.09,4.54ZM196.63,39.26h5V23.61H206V19.94h-4.39V17.53c0-1.5.53-3,2.22-3a3.78,3.78,0,0,1,2.17.68l.42-4.17a18.14,18.14,0,0,0-3.68-.41c-4,0-6.15,2.7-6.15,6.56v2.71h-3.71v3.67h3.71Zm-20-10.14c0-2.88,1.58-5.74,4.85-5.74s4.87,2.78,4.87,5.74c0,3.23-1,6.68-4.87,6.68s-4.85-3.49-4.85-6.68m-5.25.61c0,5.55,3.72,10,10.1,10s10.12-4.43,10.12-10c0-6.38-4.38-10.25-10.12-10.25s-10.1,3.87-10.1,10.25m-20.93,9.53h5V29.8c0-2.47.79-6.42,4.43-6.42,3.22,0,3.26,3.2,3.26,5.56V39.26h5V27.06c0-4.35-2-7.58-6.56-7.58a7.18,7.18,0,0,0-6.07,3.08h-.08V11.12h-5Zm-22.92,0h5V29.8c0-2.47.79-6.42,4.42-6.42,3.23,0,3.27,3.2,3.27,5.56V39.26h5V27.06c0-4.35-2-7.58-6.57-7.58a7.22,7.22,0,0,0-6.34,3.08h-.08V19.94h-4.76Zm-5.18-19.32h-5v9.45c0,2.47-.78,6.41-4.42,6.41-3.23,0-3.27-3.19-3.27-5.55V19.94h-5V32.13c0,4.35,2,7.58,6.56,7.58a8,8,0,0,0,6.34-3.08h.08v2.63h4.76ZM88.06,33.67c0-3,3.34-3.34,5.59-3.34h2.18a6.42,6.42,0,0,1-1,4A4.28,4.28,0,0,1,91.25,36c-1.8,0-3.19-.72-3.19-2.36m-2.55-8.41a10.16,10.16,0,0,1,6-2.1c3,0,4.35,1.05,4.35,4.17H93.05a15.29,15.29,0,0,0-6.49,1.12A5.69,5.69,0,0,0,83.26,34c0,3.67,3.34,5.74,6.75,5.74a6.9,6.9,0,0,0,6-3.34h.07a23.83,23.83,0,0,0,.23,2.89h4.43c-.12-1.51-.19-2.86-.23-4.32s-.07-2.89-.07-4.84V27.62c0-5.7-2.44-8.14-8.33-8.14A17.32,17.32,0,0,0,85.36,21Zm-15.12,14h5v-7.1c0-2.77,0-7.87,4.09-7.87a5,5,0,0,1,2.25.41V19.64a5.15,5.15,0,0,0-1.54-.16c-3,0-5.06,3.05-5.29,4.84h-.07V19.94H70.39Zm-18.15,0h5.25V27.78h8.85V23.65H57.49V17.2h9.3V13.07H52.24Z"/><path class="cls-3" d="M196.24,52.6h2.62V65.67h-2.62Z"/><path class="cls-3" d="M205.08,54.66h-3.75V52.6h10.11v2.06H207.7v11h-2.62Z"/><path class="cls-3" d="M214.14,52.6h4.19l3.11,9.91h0l3.11-9.91h4.19V65.67h-2.51V54.89h0l-3.52,10.78H220.2l-3.52-10.78,0,0V65.67h-2.51Z"/><path class="cls-3" d="M232.24,52.6h3.31c2.85,0,5.45.83,5.45,3.95s-2.23,4.16-5,4.16h-1.1v5h-2.62Zm2.62,6h.92c1.31,0,2.49-.43,2.49-1.95s-1.15-2-2.49-2h-.92Z"/></g></g></svg>