<svg id="chosen_finb" data-name="chosen finb" xmlns="http://www.w3.org/2000/svg" xmlns:xlink="http://www.w3.org/1999/xlink" viewBox="0 0 431.98 233.9"><defs><style>.cls-1{fill:#fff;}.cls-2{fill:url(#Nouvelle_nuance_de_dégradé_1);}.cls-3{fill:url(#Nouvelle_nuance_de_dégradé_1-2);}.cls-4{fill:url(#Nouvelle_nuance_de_dégradé_1-3);}.cls-5{fill:url(#Nouvelle_nuance_de_dégradé_1-4);}.cls-6{fill:#1d1d1b;}</style><radialGradient id="Nouvelle_nuance_de_dégradé_1" cx="1514.84" cy="318.02" r="53.68" gradientTransform="matrix(-1, 0, 0, 1, 1586.91, -266)" gradientUnits="userSpaceOnUse"><stop offset="0" stop-color="#f3997b"/><stop offset="1" stop-color="#e30613"/></radialGradient><radialGradient id="Nouvelle_nuance_de_dégradé_1-2" cx="1514.85" cy="318.02" r="53.67" xlink:href="#Nouvelle_nuance_de_dégradé_1"/><radialGradient id="Nouvelle_nuance_de_dégradé_1-3" cx="1514.84" cy="318.02" r="53.68" xlink:href="#Nouvelle_nuance_de_dégradé_1"/><radialGradient id="Nouvelle_nuance_de_dégradé_1-4" cx="1514.84" cy="318.02" r="53.68" xlink:href="#Nouvelle_nuance_de_dégradé_1"/></defs><path class="cls-1" d="M14.27,0A14.28,14.28,0,0,0,0,14.27V138.53A14.28,14.28,0,0,0,14.27,152.8H184.64a14.28,14.28,0,0,0,14.27-14.27V14.27A14.28,14.28,0,0,0,184.64,0Z"/><path class="cls-2" d="M62.54,51.64a9.56,9.56,0,0,1,7.09-8.85L75.36,7.12H14.27a7.17,7.17,0,0,0-7.14,7.15V73.75ZM28,28.89h7.88V21H43v7.89h7.88V36H43V43.9H35.86V36H28Z"/><path class="cls-3" d="M164.41,113.63a4.32,4.32,0,0,0,2.43-2.1,4.86,4.86,0,0,0,.65-2.48c0-2-.69-3.24-2.07-3.88a15.77,15.77,0,0,0-6.31-1h-6.32v10h7.13A14.16,14.16,0,0,0,164.41,113.63Z"/><path class="cls-4" d="M167,121a11.48,11.48,0,0,0-6.1-1.3h-8.1v11.2h8.36q7.89,0,7.89-5.68A4.63,4.63,0,0,0,167,121Z"/><path class="cls-5" d="M184.64,7.12H83.23L77.3,44a9.55,9.55,0,0,1,4.34,8c0,.18,0,.36,0,.54l44.94,23.19a9.55,9.55,0,1,1-3.65,7.5c0-.21,0-.42,0-.63L78.05,59.47a9.54,9.54,0,0,1-12.63-.61L7.13,82.12v56.41a7.17,7.17,0,0,0,7.14,7.15H184.64a7.17,7.17,0,0,0,7.15-7.15V14.27A7.17,7.17,0,0,0,184.64,7.12ZM119.87,131.53a11.91,11.91,0,0,1-5.26,4.32,19.89,19.89,0,0,1-8.22,1.57A18.64,18.64,0,0,1,97,135.29a12.56,12.56,0,0,1-4.25-4.11,9.35,9.35,0,0,1-1.64-5,3.31,3.31,0,0,1,1-2.41,3.35,3.35,0,0,1,2.5-1,2.93,2.93,0,0,1,2.08.79,6.22,6.22,0,0,1,1.45,2.33,15.47,15.47,0,0,0,1.58,3.06,6.43,6.43,0,0,0,2.4,2,8.75,8.75,0,0,0,4.06.8,9.11,9.11,0,0,0,5.62-1.61,4.82,4.82,0,0,0,2.17-4,4.23,4.23,0,0,0-1.17-3.1,7.44,7.44,0,0,0-3-1.82q-1.86-.63-4.94-1.34a35.41,35.41,0,0,1-6.93-2.27,11.07,11.07,0,0,1-4.42-3.54,9.12,9.12,0,0,1-1.64-5.57,9.51,9.51,0,0,1,1.73-5.64,10.81,10.81,0,0,1,5-3.79,20.31,20.31,0,0,1,7.7-1.33,19.31,19.31,0,0,1,6.13.88,13.1,13.1,0,0,1,4.29,2.34,10,10,0,0,1,2.49,3,7.18,7.18,0,0,1,.78,3.12,3.74,3.74,0,0,1-1,2.52,3.17,3.17,0,0,1-2.47,1.11,2.83,2.83,0,0,1-2-.66,8.84,8.84,0,0,1-1.51-2.18,9.93,9.93,0,0,0-2.52-3.4c-1-.82-2.55-1.23-4.72-1.23a8.18,8.18,0,0,0-4.86,1.33,3.84,3.84,0,0,0-1.84,3.18,3.22,3.22,0,0,0,.63,2,5.16,5.16,0,0,0,1.72,1.44,11.58,11.58,0,0,0,2.23,1q1.13.33,3.72,1a59.31,59.31,0,0,1,5.9,1.68,18.61,18.61,0,0,1,4.49,2.22,9.33,9.33,0,0,1,2.89,3.32,10.64,10.64,0,0,1,1,4.91A11.3,11.3,0,0,1,119.87,131.53Zm16.53,1.15a5.11,5.11,0,0,1-1.09,3.56,3.73,3.73,0,0,1-2.85,1.18,3.6,3.6,0,0,1-2.78-1.19,5.1,5.1,0,0,1-1.1-3.55V101.9a5,5,0,0,1,1.09-3.53,3.57,3.57,0,0,1,2.79-1.18,3.75,3.75,0,0,1,2.85,1.16,5.08,5.08,0,0,1,1.09,3.55Zm38.9-1a10,10,0,0,1-4.48,3.81,15.29,15.29,0,0,1-4,1,41.33,41.33,0,0,1-5.33.3H149.7a4.84,4.84,0,0,1-3.63-1.14A5.1,5.1,0,0,1,145,132V103.12a4,4,0,0,1,4.72-4.77h12.47a28.82,28.82,0,0,1,4.77.34,10.11,10.11,0,0,1,3.62,1.32,9.5,9.5,0,0,1,2.42,2.06,9.21,9.21,0,0,1,1.61,2.76,9.34,9.34,0,0,1,.55,3.19q0,5.78-5.79,8.46,7.6,2.4,7.6,9.37A10.53,10.53,0,0,1,175.3,131.65Z"/><path class="cls-6" d="M108.23,164.66a9.12,9.12,0,0,0-5.47-1.55,13,13,0,0,0-2.65.27,7,7,0,0,0-2.32.9A4.69,4.69,0,0,0,96.17,166a5.21,5.21,0,0,0-.61,2.64,3.33,3.33,0,0,0,.88,2.41,6.36,6.36,0,0,0,2.34,1.51,20,20,0,0,0,3.31,1c1.23.26,2.48.53,3.75.83s2.53.66,3.76,1.06a12.65,12.65,0,0,1,3.31,1.65,7.93,7.93,0,0,1,2.34,2.61A9.24,9.24,0,0,1,115,188a9.54,9.54,0,0,1-3,3,12.83,12.83,0,0,1-4,1.66,19.27,19.27,0,0,1-4.43.52,18.88,18.88,0,0,1-5.11-.67,12.66,12.66,0,0,1-4.22-2.05,9.64,9.64,0,0,1-2.88-3.52,11.21,11.21,0,0,1-1.06-5.06h4.06a7,7,0,0,0,2.86,5.9,8.76,8.76,0,0,0,3,1.39,13.73,13.73,0,0,0,3.51.45,15.89,15.89,0,0,0,2.9-.27,8.68,8.68,0,0,0,2.64-.92,5.46,5.46,0,0,0,1.89-1.78,5.4,5.4,0,0,0,.71-2.89A4.08,4.08,0,0,0,111,181a6.6,6.6,0,0,0-2.34-1.69,17.63,17.63,0,0,0-3.31-1.06l-3.76-.83q-1.91-.44-3.75-1A13.93,13.93,0,0,1,94.53,175a7.13,7.13,0,0,1-2.34-2.39,7,7,0,0,1-.88-3.68,8.58,8.58,0,0,1,1-4.22,8.68,8.68,0,0,1,2.62-2.93,11.91,11.91,0,0,1,3.73-1.71,16.19,16.19,0,0,1,4.29-.56,17.17,17.17,0,0,1,4.59.58,10.67,10.67,0,0,1,3.72,1.86,9,9,0,0,1,2.51,3.18,11.27,11.27,0,0,1,1,4.57h-4A6.69,6.69,0,0,0,108.23,164.66Z"/><path class="cls-6" d="M139.65,192.42l-4.72-18.48h-.09l-4.68,18.48H126l-7.47-23.25h4.23l5.26,19h.09l4.68-19H137l4.86,19H142l5.22-19h4l-7.43,23.25Z"/><path class="cls-6" d="M155,165V160.3h3.81V165Zm3.81,4.17v23.26H155V169.16Z"/><path class="cls-6" d="M167.66,187.25a4,4,0,0,0,1.42,1.39,6.32,6.32,0,0,0,2,.75,11.48,11.48,0,0,0,2.29.22,14.22,14.22,0,0,0,1.9-.13,7,7,0,0,0,1.83-.5,3.51,3.51,0,0,0,1.38-1.06,2.82,2.82,0,0,0,.54-1.78,2.55,2.55,0,0,0-1.13-2.25,9.44,9.44,0,0,0-2.82-1.24c-1.13-.32-2.35-.6-3.68-.86a18.27,18.27,0,0,1-3.67-1.08,7.53,7.53,0,0,1-2.82-2,5.05,5.05,0,0,1-1.13-3.52,5.51,5.51,0,0,1,.79-3,6.38,6.38,0,0,1,2-2.05,9.37,9.37,0,0,1,2.8-1.18,13.07,13.07,0,0,1,3.09-.38,18,18,0,0,1,3.64.34,8.66,8.66,0,0,1,3,1.17,6.13,6.13,0,0,1,2.05,2.26,8.6,8.6,0,0,1,.9,3.54H178.2a3.87,3.87,0,0,0-.59-1.87,3.8,3.8,0,0,0-1.26-1.2,5.73,5.73,0,0,0-1.7-.66,8.37,8.37,0,0,0-1.87-.2,11.29,11.29,0,0,0-1.73.13,6.16,6.16,0,0,0-1.61.47,3.33,3.33,0,0,0-1.17.9,2.3,2.3,0,0,0-.45,1.47,2.13,2.13,0,0,0,.7,1.64,5.46,5.46,0,0,0,1.78,1.08,14.69,14.69,0,0,0,2.44.72l2.71.61c1,.21,1.9.47,2.82.77A9.16,9.16,0,0,1,180.7,181a5.81,5.81,0,0,1,1.72,1.87,5.54,5.54,0,0,1,.65,2.79,6.44,6.44,0,0,1-.88,3.51,6.87,6.87,0,0,1-2.3,2.25,9.8,9.8,0,0,1-3.21,1.2,19.36,19.36,0,0,1-3.54.33,16.46,16.46,0,0,1-3.7-.4,9,9,0,0,1-3.11-1.33,6.67,6.67,0,0,1-2.17-2.42,8.37,8.37,0,0,1-.9-3.66h3.81A4.33,4.33,0,0,0,167.66,187.25Z"/><path class="cls-6" d="M190.16,187.25a4,4,0,0,0,1.42,1.39,6.32,6.32,0,0,0,2,.75,11.48,11.48,0,0,0,2.29.22,14.22,14.22,0,0,0,1.9-.13,7,7,0,0,0,1.83-.5,3.51,3.51,0,0,0,1.38-1.06,2.82,2.82,0,0,0,.54-1.78,2.55,2.55,0,0,0-1.13-2.25,9.44,9.44,0,0,0-2.82-1.24c-1.13-.32-2.35-.6-3.68-.86a18.27,18.27,0,0,1-3.67-1.08,7.53,7.53,0,0,1-2.82-2,5.05,5.05,0,0,1-1.13-3.52,5.51,5.51,0,0,1,.79-3,6.38,6.38,0,0,1,2-2.05,9.37,9.37,0,0,1,2.8-1.18,13.07,13.07,0,0,1,3.09-.38,18,18,0,0,1,3.64.34,8.66,8.66,0,0,1,3,1.17,6.13,6.13,0,0,1,2.05,2.26,8.6,8.6,0,0,1,.9,3.54H200.7a3.87,3.87,0,0,0-.59-1.87,3.8,3.8,0,0,0-1.26-1.2,5.73,5.73,0,0,0-1.7-.66,8.37,8.37,0,0,0-1.87-.2,11.29,11.29,0,0,0-1.73.13,6.16,6.16,0,0,0-1.61.47,3.33,3.33,0,0,0-1.17.9,2.3,2.3,0,0,0-.45,1.47,2.13,2.13,0,0,0,.7,1.64,5.46,5.46,0,0,0,1.78,1.08,14.69,14.69,0,0,0,2.44.72L198,179c1,.21,1.9.47,2.82.77A9.16,9.16,0,0,1,203.2,181a5.81,5.81,0,0,1,1.72,1.87,5.54,5.54,0,0,1,.65,2.79,6.44,6.44,0,0,1-.88,3.51,6.87,6.87,0,0,1-2.3,2.25,9.8,9.8,0,0,1-3.21,1.2,19.36,19.36,0,0,1-3.54.33,16.46,16.46,0,0,1-3.7-.4,9,9,0,0,1-3.11-1.33,6.67,6.67,0,0,1-2.17-2.42,8.37,8.37,0,0,1-.9-3.66h3.81A4.33,4.33,0,0,0,190.16,187.25Z"/><path class="cls-6" d="M227.33,160.3v32.12h-4.25V160.3Z"/><path class="cls-6" d="M237.51,169.15v3.69h.1a8.05,8.05,0,0,1,7.56-4.23,10.07,10.07,0,0,1,3.82.63,6.28,6.28,0,0,1,2.47,1.76,6.44,6.44,0,0,1,1.33,2.68,14.1,14.1,0,0,1,.38,3.44v15.3h-3.81V176.67a4.62,4.62,0,0,0-1.26-3.42,4.69,4.69,0,0,0-3.47-1.26,7.79,7.79,0,0,0-3,.54,5.67,5.67,0,0,0-2.14,1.53,6.65,6.65,0,0,0-1.29,2.32,9.54,9.54,0,0,0-.43,2.9v13.14h-3.81V169.15Z"/><path class="cls-6" d="M261.84,187.25a4.05,4.05,0,0,0,1.43,1.39,6.23,6.23,0,0,0,2,.75,11.38,11.38,0,0,0,2.28.22,14.11,14.11,0,0,0,1.9-.13,7,7,0,0,0,1.83-.5,3.37,3.37,0,0,0,1.38-1.06,2.82,2.82,0,0,0,.54-1.78,2.53,2.53,0,0,0-1.13-2.25,9.44,9.44,0,0,0-2.82-1.24c-1.12-.32-2.35-.6-3.67-.86a18.37,18.37,0,0,1-3.68-1.08,7.53,7.53,0,0,1-2.82-2,5.1,5.1,0,0,1-1.13-3.52,5.6,5.6,0,0,1,.79-3,6.41,6.41,0,0,1,2-2.05,9.31,9.31,0,0,1,2.79-1.18,13.19,13.19,0,0,1,3.09-.38,18,18,0,0,1,3.65.34,8.6,8.6,0,0,1,2.95,1.17,6.05,6.05,0,0,1,2.05,2.26,8.6,8.6,0,0,1,.9,3.54h-3.81a3.87,3.87,0,0,0-.59-1.87,3.8,3.8,0,0,0-1.26-1.2,5.57,5.57,0,0,0-1.69-.66A8.43,8.43,0,0,0,267,172a11.32,11.32,0,0,0-1.74.13,6,6,0,0,0-1.6.47,3.33,3.33,0,0,0-1.17.9A2.25,2.25,0,0,0,262,175a2.16,2.16,0,0,0,.7,1.64,5.41,5.41,0,0,0,1.79,1.08,14.56,14.56,0,0,0,2.43.72l2.71.61c1,.21,1.9.47,2.82.77a9.08,9.08,0,0,1,2.44,1.19,5.9,5.9,0,0,1,1.71,1.87,5.43,5.43,0,0,1,.65,2.79,6.52,6.52,0,0,1-.87,3.51,6.9,6.9,0,0,1-2.31,2.25,9.66,9.66,0,0,1-3.2,1.2,19.44,19.44,0,0,1-3.54.33,16.39,16.39,0,0,1-3.7-.4,9,9,0,0,1-3.12-1.33,6.86,6.86,0,0,1-2.17-2.42,8.37,8.37,0,0,1-.9-3.66h3.81A4.33,4.33,0,0,0,261.84,187.25Z"/><path class="cls-6" d="M291.38,169.17v3.38h-4.63V187a3.92,3.92,0,0,0,.12,1.08,1.08,1.08,0,0,0,.42.63,1.86,1.86,0,0,0,.88.29,11.54,11.54,0,0,0,1.46.07h1.75v3.37h-2.92a13.27,13.27,0,0,1-2.54-.2,3.73,3.73,0,0,1-1.71-.74,3.2,3.2,0,0,1-1-1.53,8.82,8.82,0,0,1-.32-2.61V172.55h-4v-3.38h4v-7h3.81v7Z"/><path class="cls-6" d="M295.87,165V160.3h3.81V165Zm3.81,4.17v23.26h-3.81V169.16Z"/><path class="cls-6" d="M315.54,169.17v3.38h-4.62V187a4.42,4.42,0,0,0,.11,1.08,1.14,1.14,0,0,0,.43.63,1.82,1.82,0,0,0,.87.29,11.64,11.64,0,0,0,1.46.07h1.75v3.37h-2.92a13.41,13.41,0,0,1-2.54-.2,3.64,3.64,0,0,1-1.7-.74,3.14,3.14,0,0,1-1-1.53,8.86,8.86,0,0,1-.31-2.61V172.55h-4v-3.38h4v-7h3.81v7Z"/><path class="cls-6" d="M335.47,192.43l0-3.69h-.1a7.77,7.77,0,0,1-3.1,3.17,9.25,9.25,0,0,1-4.45,1,10.58,10.58,0,0,1-3.83-.6,6.14,6.14,0,0,1-2.47-1.74,6.59,6.59,0,0,1-1.33-2.67,14.67,14.67,0,0,1-.38-3.44v-15.3h3.81v15.76a4.62,4.62,0,0,0,1.26,3.42,4.71,4.71,0,0,0,3.47,1.26,7.88,7.88,0,0,0,3.05-.54,5.71,5.71,0,0,0,2.13-1.53,6.65,6.65,0,0,0,1.29-2.32,9.54,9.54,0,0,0,.43-2.9V169.17H339v23.26Z"/><path class="cls-6" d="M354.74,169.17v3.38h-4.63V187a3.92,3.92,0,0,0,.12,1.08,1.08,1.08,0,0,0,.42.63,1.83,1.83,0,0,0,.88.29,11.54,11.54,0,0,0,1.46.07h1.75v3.37h-2.92a13.27,13.27,0,0,1-2.54-.2,3.64,3.64,0,0,1-1.71-.74,3.21,3.21,0,0,1-1-1.53,8.86,8.86,0,0,1-.31-2.61V172.55h-4v-3.38h4v-7h3.81v7Z"/><path class="cls-6" d="M375.44,190.94a10.55,10.55,0,0,1-6.56,2A12,12,0,0,1,364,192a9.57,9.57,0,0,1-3.44-2.52,10.78,10.78,0,0,1-2.09-3.87,18.49,18.49,0,0,1-.78-4.91,14,14,0,0,1,.8-4.86A11.72,11.72,0,0,1,360.8,172a10.39,10.39,0,0,1,3.46-2.52,10.59,10.59,0,0,1,4.38-.9,9.57,9.57,0,0,1,5.15,1.28,10.22,10.22,0,0,1,3.28,3.26,12.69,12.69,0,0,1,1.71,4.32,18.73,18.73,0,0,1,.38,4.45H361.79a9.33,9.33,0,0,0,.36,2.92,6.61,6.61,0,0,0,1.3,2.44,6.39,6.39,0,0,0,2.29,1.7,7.9,7.9,0,0,0,3.28.63,6.57,6.57,0,0,0,4-1.13,5.45,5.45,0,0,0,2.05-3.43h3.78A9.29,9.29,0,0,1,375.44,190.94ZM374.49,176a6.32,6.32,0,0,0-1.39-2.09,6.42,6.42,0,0,0-4.68-1.91,6.73,6.73,0,0,0-2.67.51,6.14,6.14,0,0,0-2,1.42,6.83,6.83,0,0,0-1.35,2.09,7.92,7.92,0,0,0-.58,2.54H375.1A7.68,7.68,0,0,0,374.49,176Z"/><path class="cls-6" d="M395.12,176a10.88,10.88,0,0,1,2.15-3.88,10.29,10.29,0,0,1,3.55-2.58,13,13,0,0,1,9.74,0,10.18,10.18,0,0,1,3.52,2.58,10.9,10.9,0,0,1,2.16,3.88,15.46,15.46,0,0,1,.72,4.79,15.28,15.28,0,0,1-.72,4.77,10.77,10.77,0,0,1-2.16,3.85,9.79,9.79,0,0,1-3.52,2.57,13.35,13.35,0,0,1-9.74,0,9.9,9.9,0,0,1-3.55-2.57,10.75,10.75,0,0,1-2.15-3.85,15.28,15.28,0,0,1-.72-4.77A15.46,15.46,0,0,1,395.12,176Zm3.9,8.57a7.76,7.76,0,0,0,1.55,2.74,6.89,6.89,0,0,0,7.91,1.69,6.7,6.7,0,0,0,2.31-1.69,7.91,7.91,0,0,0,1.55-2.74,12.94,12.94,0,0,0,0-7.53,8.3,8.3,0,0,0-1.55-2.78,6.63,6.63,0,0,0-2.31-1.71,7,7,0,0,0-5.6,0,6.54,6.54,0,0,0-2.31,1.71,8.13,8.13,0,0,0-1.55,2.78,12.94,12.94,0,0,0,0,7.53Z"/><path class="cls-6" d="M419.13,172.55v-3.38H423V165.7a5.46,5.46,0,0,1,1.65-4.31,7,7,0,0,1,4.81-1.47,9.89,9.89,0,0,1,1.24.09,6.72,6.72,0,0,1,1.24.27v3.33a4.69,4.69,0,0,0-1.09-.24,8.63,8.63,0,0,0-1.09-.07,3.78,3.78,0,0,0-2.18.54,2.4,2.4,0,0,0-.77,2.08v3.25h4.5v3.38h-4.5v19.87H423V172.55Z"/><path class="cls-6" d="M103.78,201.28l2.23,0c.79,0,1.58.06,2.36.14a17.23,17.23,0,0,1,2.18.33,5.53,5.53,0,0,1,1.73.68,8.43,8.43,0,0,1,2.68,2.61,7.31,7.31,0,0,1,1.1,4.1,7.78,7.78,0,0,1-1.24,4.43,7.32,7.32,0,0,1-3.56,2.77v.09a7.38,7.38,0,0,1,4.54,2.7,8.07,8.07,0,0,1,1.57,5,9.58,9.58,0,0,1-.62,3.42,8.56,8.56,0,0,1-1.87,3,9.44,9.44,0,0,1-3,2.07,10.65,10.65,0,0,1-4.21.78H92.12V201.28ZM105,215.09q3.66,0,5.26-1.28a4.6,4.6,0,0,0,1.6-3.84,5.65,5.65,0,0,0-.54-2.69,3.82,3.82,0,0,0-1.49-1.52,5.94,5.94,0,0,0-2.19-.7,22,22,0,0,0-2.64-.16H96.37v10.19Zm2.14,14.69a6.21,6.21,0,0,0,4.44-1.52,5.56,5.56,0,0,0,1.59-4.21,5.19,5.19,0,0,0-.58-2.6,4.61,4.61,0,0,0-1.55-1.64,6.77,6.77,0,0,0-2.23-.85,13.92,13.92,0,0,0-2.61-.24H96.37v11.06Z"/><path class="cls-6" d="M122.57,206v-4.69h3.82V206Zm3.82,4.17V233.4h-3.82V210.14Z"/><path class="cls-6" d="M131.78,217a10.9,10.9,0,0,1,2.16-3.88,10.2,10.2,0,0,1,3.55-2.58,12.93,12.93,0,0,1,9.73,0,10.31,10.31,0,0,1,3.53,2.58,10.9,10.9,0,0,1,2.16,3.88,15.46,15.46,0,0,1,.72,4.79,15.28,15.28,0,0,1-.72,4.77,10.86,10.86,0,0,1-2.16,3.85,10,10,0,0,1-3.53,2.57,13.32,13.32,0,0,1-9.73,0,9.93,9.93,0,0,1-3.55-2.57,10.86,10.86,0,0,1-2.16-3.85,15.28,15.28,0,0,1-.72-4.77A15.46,15.46,0,0,1,131.78,217Zm3.91,8.56a7.85,7.85,0,0,0,1.54,2.75,6.7,6.7,0,0,0,2.31,1.69,7,7,0,0,0,5.61,0,6.7,6.7,0,0,0,2.31-1.69,7.85,7.85,0,0,0,1.54-2.75,12.9,12.9,0,0,0,0-7.52,8.28,8.28,0,0,0-1.54-2.78,6.63,6.63,0,0,0-2.31-1.71,7.07,7.07,0,0,0-5.61,0,6.63,6.63,0,0,0-2.31,1.71,8.28,8.28,0,0,0-1.54,2.78,12.9,12.9,0,0,0,0,7.52Z"/><path class="cls-6" d="M158.39,206v-4.69h3.82V206Zm3.82,4.17V233.4h-3.82V210.14Z"/><path class="cls-6" d="M171.72,210.13v3.69h.1a8.05,8.05,0,0,1,7.56-4.23,10.07,10.07,0,0,1,3.82.63,6.28,6.28,0,0,1,2.47,1.76,6.46,6.46,0,0,1,1.33,2.67,14.76,14.76,0,0,1,.38,3.45v15.3h-3.81V217.65a4.62,4.62,0,0,0-1.26-3.42,4.69,4.69,0,0,0-3.47-1.26,7.79,7.79,0,0,0-3,.54,5.67,5.67,0,0,0-2.14,1.53,6.7,6.7,0,0,0-1.29,2.31,9.65,9.65,0,0,0-.42,2.91V233.4h-3.82V210.13Z"/><path class="cls-6" d="M190.8,213.53v-3.38h3.91v-3.47a5.46,5.46,0,0,1,1.65-4.31,7,7,0,0,1,4.81-1.47,9.89,9.89,0,0,1,1.24.09,6.54,6.54,0,0,1,1.24.27v3.33a4.47,4.47,0,0,0-1.09-.24,8.48,8.48,0,0,0-1.08-.07,3.75,3.75,0,0,0-2.18.54,2.38,2.38,0,0,0-.77,2.08v3.25H203v3.38h-4.5V233.4h-3.82V213.53Z"/><path class="cls-6" d="M205.94,217a10.9,10.9,0,0,1,2.16-3.88,10.2,10.2,0,0,1,3.55-2.58,12.93,12.93,0,0,1,9.73,0,10.31,10.31,0,0,1,3.53,2.58,10.73,10.73,0,0,1,2.15,3.88,15.46,15.46,0,0,1,.72,4.79,15.28,15.28,0,0,1-.72,4.77,10.68,10.68,0,0,1-2.15,3.85,10,10,0,0,1-3.53,2.57,13.32,13.32,0,0,1-9.73,0,9.93,9.93,0,0,1-3.55-2.57,10.86,10.86,0,0,1-2.16-3.85,15.28,15.28,0,0,1-.72-4.77A15.46,15.46,0,0,1,205.94,217Zm3.91,8.56a7.7,7.7,0,0,0,1.54,2.75A6.7,6.7,0,0,0,213.7,230a7,7,0,0,0,5.61,0,6.57,6.57,0,0,0,2.3-1.69,7.72,7.72,0,0,0,1.55-2.75,12.9,12.9,0,0,0,0-7.52,8.13,8.13,0,0,0-1.55-2.78,6.5,6.5,0,0,0-2.3-1.71,7.07,7.07,0,0,0-5.61,0,6.63,6.63,0,0,0-2.31,1.71,8.11,8.11,0,0,0-1.54,2.78,12.69,12.69,0,0,0,0,7.52Z"/><path class="cls-6" d="M235.74,210.13V215h.1a10.48,10.48,0,0,1,3.43-4.19,8.6,8.6,0,0,1,5.13-1.26v4.06a10.79,10.79,0,0,0-3.91.63,6.18,6.18,0,0,0-2.61,1.85,7.64,7.64,0,0,0-1.44,2.94,16,16,0,0,0-.45,4V233.4h-3.81V210.13Z"/><path class="cls-6" d="M250.87,210.13v3.42h.1a9,9,0,0,1,11.41-3.06,5.07,5.07,0,0,1,2.47,3.06,8,8,0,0,1,3.07-2.92,8.71,8.71,0,0,1,4.2-1,12.35,12.35,0,0,1,3.17.38,6.75,6.75,0,0,1,2.43,1.2,5.45,5.45,0,0,1,1.57,2.09,7.7,7.7,0,0,1,.56,3.08V233.4H276V218.14a10.77,10.77,0,0,0-.18-2,4.21,4.21,0,0,0-.68-1.65,3.43,3.43,0,0,0-1.37-1.1,5.43,5.43,0,0,0-2.27-.4,6,6,0,0,0-4.45,1.62,5.84,5.84,0,0,0-1.62,4.32V233.4h-3.81V218.14a10.24,10.24,0,0,0-.2-2.07,4.43,4.43,0,0,0-.7-1.64,3.19,3.19,0,0,0-1.32-1.08,5.09,5.09,0,0,0-2.14-.38,5.67,5.67,0,0,0-2.85.67,6.5,6.5,0,0,0-1.94,1.62,6.41,6.41,0,0,0-1.07,2,5.4,5.4,0,0,0-.34,1.69V233.4h-3.81V210.13Z"/><path class="cls-6" d="M303.5,233.9a3.26,3.26,0,0,1-2.34-.83,3.62,3.62,0,0,1-.86-2.72,9.14,9.14,0,0,1-3.67,2.72,12.88,12.88,0,0,1-7.49.49,6.55,6.55,0,0,1-2.45-1.12,5.51,5.51,0,0,1-1.66-2,6.64,6.64,0,0,1-.61-3,6.84,6.84,0,0,1,.67-3.24,5.91,5.91,0,0,1,1.78-2.05,7.93,7.93,0,0,1,2.52-1.19c.94-.27,1.91-.5,2.9-.68s2-.37,3-.47a18.07,18.07,0,0,0,2.49-.45,4.17,4.17,0,0,0,1.71-.86,2.07,2.07,0,0,0,.63-1.64,3.88,3.88,0,0,0-.47-2,3.33,3.33,0,0,0-1.22-1.17,5,5,0,0,0-1.67-.54,12.71,12.71,0,0,0-1.83-.13,8,8,0,0,0-4.05.92,3.93,3.93,0,0,0-1.76,3.51H285.3a8.37,8.37,0,0,1,.89-3.66,6.87,6.87,0,0,1,2.16-2.41,8.94,8.94,0,0,1,3.1-1.33,16.36,16.36,0,0,1,3.69-.41,21.62,21.62,0,0,1,3.12.23,8,8,0,0,1,2.81.92,5.42,5.42,0,0,1,2,2,6.28,6.28,0,0,1,.77,3.29v12a8.62,8.62,0,0,0,.16,2q.15.63,1.05.63a3.76,3.76,0,0,0,1.17-.22v2.95A5.39,5.39,0,0,1,303.5,233.9Zm-5.34-11.7c-.77.16-1.59.3-2.44.4l-2.58.36a9.78,9.78,0,0,0-2.33.66,4.29,4.29,0,0,0-1.68,1.28,3.6,3.6,0,0,0-.65,2.27,3.18,3.18,0,0,0,.38,1.6,3.35,3.35,0,0,0,1,1.06,4.09,4.09,0,0,0,1.43.58,8,8,0,0,0,1.69.18,8.84,8.84,0,0,0,3.22-.52,6.78,6.78,0,0,0,2.2-1.3,5.21,5.21,0,0,0,1.25-1.71,4.34,4.34,0,0,0,.41-1.73v-3.92A4.84,4.84,0,0,1,298.16,222.2Z"/><path class="cls-6" d="M319.77,210.15v3.38h-4.62V228a4,4,0,0,0,.11,1.08,1.09,1.09,0,0,0,.43.63,1.78,1.78,0,0,0,.87.29A11.64,11.64,0,0,0,318,230h1.75v3.37h-2.92a13.34,13.34,0,0,1-2.54-.2,3.64,3.64,0,0,1-1.7-.74,3.14,3.14,0,0,1-1-1.53,8.82,8.82,0,0,1-.32-2.61V213.53h-3.95v-3.38h3.95v-7h3.82v7Z"/><path class="cls-6" d="M324.26,206v-4.69h3.81V206Zm3.81,4.17V233.4h-3.81V210.14Z"/><path class="cls-6" d="M347.93,214.18a5.8,5.8,0,0,0-3.87-1.21,7.15,7.15,0,0,0-3.47.76,6.24,6.24,0,0,0-2.23,2,8.62,8.62,0,0,0-1.19,2.91,15.88,15.88,0,0,0-.36,3.4,13.27,13.27,0,0,0,.38,3.16,8.5,8.5,0,0,0,1.2,2.72,6,6,0,0,0,2.11,1.92,6.35,6.35,0,0,0,3.11.72A6.26,6.26,0,0,0,348,229.1a6.75,6.75,0,0,0,2-4.2h3.91a10.69,10.69,0,0,1-3.22,6.66,10.09,10.09,0,0,1-7,2.34,12.09,12.09,0,0,1-4.7-.85,9.16,9.16,0,0,1-3.43-2.43,10.56,10.56,0,0,1-2.07-3.76,15.6,15.6,0,0,1-.7-4.8,17,17,0,0,1,.68-4.88,11.26,11.26,0,0,1,2.05-4,9.67,9.67,0,0,1,3.45-2.65,11.16,11.16,0,0,1,4.81-1,14.23,14.23,0,0,1,3.71.47,9,9,0,0,1,3.06,1.46,7.9,7.9,0,0,1,2.19,2.5,9.13,9.13,0,0,1,1.08,3.57h-4A5.8,5.8,0,0,0,347.93,214.18Z"/><path class="cls-6" d="M361.06,228.23a4.05,4.05,0,0,0,1.43,1.39,6.23,6.23,0,0,0,2,.75,11.45,11.45,0,0,0,2.28.22,14.11,14.11,0,0,0,1.9-.13,7,7,0,0,0,1.83-.5,3.37,3.37,0,0,0,1.38-1.06,2.82,2.82,0,0,0,.54-1.78,2.54,2.54,0,0,0-1.12-2.25,9.67,9.67,0,0,0-2.82-1.24c-1.13-.32-2.36-.6-3.68-.86a18.37,18.37,0,0,1-3.68-1.08,7.53,7.53,0,0,1-2.82-2,5.1,5.1,0,0,1-1.13-3.52,5.6,5.6,0,0,1,.79-3,6.44,6.44,0,0,1,2-2.06,9.68,9.68,0,0,1,2.79-1.17,13.19,13.19,0,0,1,3.09-.38,18,18,0,0,1,3.65.34,8.41,8.41,0,0,1,2.95,1.17,6.05,6.05,0,0,1,2.05,2.26,8.6,8.6,0,0,1,.9,3.54H371.6A3.94,3.94,0,0,0,371,215a3.87,3.87,0,0,0-1.26-1.19,5.57,5.57,0,0,0-1.69-.66,8.43,8.43,0,0,0-1.87-.2,11.51,11.51,0,0,0-1.74.13,6,6,0,0,0-1.6.47,3.33,3.33,0,0,0-1.17.9,2.3,2.3,0,0,0-.45,1.47,2.17,2.17,0,0,0,.69,1.64,5.41,5.41,0,0,0,1.79,1.08,14.56,14.56,0,0,0,2.43.72l2.71.61c1,.21,1.9.47,2.82.77a9.08,9.08,0,0,1,2.44,1.19,5.78,5.78,0,0,1,1.71,1.87,5.44,5.44,0,0,1,.66,2.79,6.52,6.52,0,0,1-.88,3.51,6.9,6.9,0,0,1-2.31,2.25,9.43,9.43,0,0,1-3.2,1.19,18.61,18.61,0,0,1-3.54.34,16.39,16.39,0,0,1-3.7-.4,9,9,0,0,1-3.12-1.33,6.86,6.86,0,0,1-2.17-2.42,8.37,8.37,0,0,1-.9-3.66h3.82A4.23,4.23,0,0,0,361.06,228.23Z"/></svg>