<?xml version="1.0" encoding="utf-8"?>
<!-- Generator: Adobe Illustrator 21.1.0, SVG Export Plug-In . SVG Version: 6.00 Build 0)  -->
<svg version="1.1" id="Ebene_1" xmlns="http://www.w3.org/2000/svg" xmlns:xlink="http://www.w3.org/1999/xlink" x="0px" y="0px"
	 viewBox="0 0 160.4 89.2" style="enable-background:new 0 0 160.4 89.2;" xml:space="preserve">
<style type="text/css">
	.st0{fill:#004481;}
	.st1{fill:#EB690B;}
	.st2{fill:#4B4B4D;}
</style>
<g>
	<g>
		
			<rect x="23.1" y="57.5" transform="matrix(0.308 -0.9514 0.9514 0.308 -34.9265 67.3876)" class="st0" width="11.5" height="0.4"/>
	</g>
	<g>
		<polygon class="st0" points="30.8,52.2 27.5,42.5 27.3,42.8 38.5,46.9 38.7,47 38.8,46.8 42.1,38.4 41.7,38.2 38.3,46.6 
			38.6,46.5 27.4,42.4 27,42.2 27.1,42.7 30.4,52.3 		"/>
	</g>
	<g>
		
			<rect x="40.2" y="46.2" transform="matrix(0.8978 -0.4403 0.4403 0.8978 -18.0861 22.9421)" class="st0" width="0.4" height="8.4"/>
	</g>
	<g>
		<polygon class="st0" points="17.2,49.1 27.5,42.8 27.5,42.7 27.5,42.7 32.6,31.7 32.2,31.5 27.1,42.5 27.2,42.4 17,48.8 		"/>
	</g>
	<g>
		
			<rect x="21.8" y="34.6" transform="matrix(0.3818 -0.9243 0.9243 0.3818 -23.7387 45.2739)" class="st0" width="0.4" height="11.6"/>
	</g>
</g>
<g>
	<g>
		<circle class="st0" cx="27.1" cy="63.2" r="1.4"/>
		<circle class="st0" cx="41.9" cy="38.3" r="3.1"/>
		<circle class="st0" cx="42.2" cy="54.2" r="1.3"/>
		<circle class="st0" cx="17.1" cy="48.9" r="1.9"/>
		<circle class="st0" cx="16.6" cy="38.2" r="2.4"/>
	</g>
	<g>
		<rect x="29.8" y="28.9" class="st1" width="5.2" height="5.2"/>
		<rect x="37.3" y="45.4" class="st1" width="2.5" height="2.5"/>
		<rect x="28.2" y="49.8" class="st1" width="4.8" height="4.8"/>
		<rect x="25.7" y="41" class="st1" width="3.3" height="3.3"/>
	</g>
</g>
<g>
	<g>
		
			<rect x="23.1" y="57.5" transform="matrix(0.308 -0.9514 0.9514 0.308 -34.9119 67.4076)" class="st0" width="11.5" height="0.4"/>
	</g>
	<g>
		<polygon class="st0" points="30.9,52.2 27.6,42.5 27.3,42.8 38.5,46.9 38.7,47 38.8,46.8 42.2,38.4 41.8,38.2 38.4,46.6 
			38.6,46.5 27.4,42.4 27,42.2 27.2,42.7 30.4,52.3 		"/>
	</g>
	<g>
		
			<rect x="40.2" y="46.3" transform="matrix(0.8979 -0.4403 0.4403 0.8979 -18.0852 22.9483)" class="st0" width="0.4" height="8.4"/>
	</g>
	<g>
		<polygon class="st0" points="17.3,49.1 27.5,42.8 27.5,42.7 27.6,42.7 32.6,31.7 32.2,31.5 27.2,42.5 27.2,42.4 17,48.8 		"/>
	</g>
	<g>
		
			<rect x="21.8" y="34.6" transform="matrix(0.3819 -0.9242 0.9242 0.3819 -23.7267 45.2834)" class="st0" width="0.4" height="11.6"/>
	</g>
</g>
<g>
	<g>
		<circle class="st0" cx="27.1" cy="63.2" r="1.4"/>
		<path class="st0" d="M38.9,38.3c0,1.7,1.4,3.1,3.1,3.1s3.1-1.4,3.1-3.1c0-1.7-1.4-3.1-3.1-3.1S38.9,36.6,38.9,38.3z"/>
		<circle class="st0" cx="42.3" cy="54.2" r="1.3"/>
		<circle class="st0" cx="17.1" cy="48.9" r="1.9"/>
		<circle class="st0" cx="16.6" cy="38.2" r="2.4"/>
	</g>
	<g>
		<rect x="29.8" y="29" class="st1" width="5.2" height="5.2"/>
		<rect x="37.3" y="45.4" class="st1" width="2.5" height="2.5"/>
		<rect x="28.2" y="49.8" class="st1" width="4.8" height="4.8"/>
		<rect x="25.7" y="41" class="st1" width="3.3" height="3.3"/>
	</g>
</g>
<g>
	<g>
		
			<rect x="23.2" y="57.5" transform="matrix(0.308 -0.9514 0.9514 0.308 -34.8785 67.4519)" class="st0" width="11.5" height="0.4"/>
	</g>
	<g>
		<polygon class="st0" points="30.9,52.2 27.6,42.5 27.3,42.8 38.5,46.9 38.7,47 38.8,46.8 42.2,38.4 41.8,38.2 38.4,46.6 
			38.7,46.5 27.5,42.4 27,42.2 27.2,42.7 30.5,52.3 		"/>
	</g>
	<g>
		
			<rect x="40.2" y="46.3" transform="matrix(0.8979 -0.4403 0.4403 0.8979 -18.0804 22.969)" class="st0" width="0.4" height="8.4"/>
	</g>
	<g>
		<polygon class="st0" points="17.3,49.1 27.5,42.8 27.6,42.7 27.6,42.7 32.7,31.7 32.3,31.5 27.2,42.5 27.3,42.4 17.1,48.8 		"/>
	</g>
	<g>
		
			<rect x="21.8" y="34.6" transform="matrix(0.3819 -0.9242 0.9242 0.3819 -23.6979 45.3258)" class="st0" width="0.4" height="11.6"/>
	</g>
</g>
<g>
	<g>
		<circle class="st0" cx="27.2" cy="63.2" r="1.4"/>
		<path class="st0" d="M38.9,38.3c0,1.7,1.4,3.1,3.1,3.1s3.1-1.4,3.1-3.1c0-1.7-1.4-3.1-3.1-3.1S38.9,36.6,38.9,38.3z"/>
		<circle class="st0" cx="42.3" cy="54.2" r="1.3"/>
		<circle class="st0" cx="17.2" cy="48.9" r="1.9"/>
		<circle class="st0" cx="16.7" cy="38.2" r="2.4"/>
	</g>
	<g>
		<rect x="29.8" y="29" class="st1" width="5.2" height="5.2"/>
		<rect x="37.4" y="45.4" class="st1" width="2.5" height="2.5"/>
		<rect x="28.3" y="49.8" class="st1" width="4.8" height="4.8"/>
		<rect x="25.8" y="41" class="st1" width="3.3" height="3.3"/>
	</g>
</g>
<g>
	<g>
		<g>
			<path class="st2" d="M58.7,41.5c-0.3,0.5-0.7,0.9-1.2,1.1c-0.5,0.3-1.1,0.4-1.7,0.5c-0.6,0.1-1.2,0.1-1.7,0.1h-3.9v-12h4.1
				c0.6,0,1.2,0.1,1.7,0.2c0.5,0.1,1,0.3,1.3,0.5c0.4,0.2,0.7,0.5,0.9,0.9c0.2,0.4,0.3,0.8,0.3,1.3c0,0.6-0.1,1.1-0.4,1.5
				c-0.3,0.4-0.7,0.8-1.3,1c0.7,0.2,1.3,0.5,1.7,1c0.4,0.5,0.7,1.1,0.7,1.8C59.2,40.4,59,41.1,58.7,41.5z M55.4,33.4
				c-0.4-0.2-0.9-0.3-1.5-0.3h-1.1v3h1.1c0.7,0,1.2-0.1,1.6-0.4s0.5-0.7,0.5-1.2C56,34,55.8,33.7,55.4,33.4z M56,38.4
				c-0.4-0.3-1-0.5-1.7-0.5h-1.5v3.5h1.5c0.8,0,1.3-0.2,1.7-0.5c0.4-0.3,0.6-0.7,0.6-1.3C56.6,39.1,56.4,38.7,56,38.4z"/>
			<path class="st2" d="M68.8,41.5c-0.3,0.5-0.7,0.9-1.2,1.1c-0.5,0.3-1.1,0.4-1.7,0.5c-0.6,0.1-1.2,0.1-1.7,0.1h-3.9v-12h4.1
				c0.6,0,1.2,0.1,1.7,0.2c0.5,0.1,1,0.3,1.3,0.5c0.4,0.2,0.7,0.5,0.9,0.9c0.2,0.4,0.3,0.8,0.3,1.3c0,0.6-0.1,1.1-0.4,1.5
				c-0.3,0.4-0.7,0.8-1.3,1c0.7,0.2,1.3,0.5,1.7,1c0.4,0.5,0.7,1.1,0.7,1.8C69.3,40.4,69.1,41.1,68.8,41.5z M65.5,33.4
				c-0.4-0.2-0.9-0.3-1.5-0.3h-1.1v3h1.1c0.7,0,1.2-0.1,1.6-0.4c0.4-0.3,0.5-0.7,0.5-1.2C66,34,65.9,33.7,65.5,33.4z M66.1,38.4
				c-0.4-0.3-1-0.5-1.7-0.5h-1.5v3.5h1.5c0.8,0,1.3-0.2,1.7-0.5c0.4-0.3,0.6-0.7,0.6-1.3C66.7,39.1,66.5,38.7,66.1,38.4z"/>
			<path class="st2" d="M82.6,43.3c0-1.6-0.1-3.2-0.1-4.8s-0.2-3.2-0.2-4.6h0l-3.3,9.5h-2.6L73,33.8h0c-0.1,1.4-0.1,3-0.2,4.6
				c-0.1,1.6-0.1,3.3-0.1,4.9h-2.3c0-2,0.1-4,0.2-6s0.3-4,0.5-6h3.6l3.1,9.1h0l3-9.1h3.6c0.2,2,0.4,4.1,0.5,6.1c0.1,2,0.2,4,0.2,6
				C85.1,43.3,82.6,43.3,82.6,43.3z"/>
			<path class="st2" d="M93.3,43.3l-3-5h-1.2v5h-2.6v-12H91c0.7,0,1.3,0.1,1.8,0.2s1,0.3,1.4,0.6s0.7,0.6,0.9,1
				c0.2,0.4,0.3,0.9,0.3,1.4c0,0.8-0.2,1.5-0.7,2.1s-1.1,1-2,1.2l3.5,5.5L93.3,43.3L93.3,43.3z M92.2,33.6c-0.3-0.3-0.8-0.4-1.5-0.4
				h-1.6v3.2h1.3c0.7,0,1.3-0.2,1.7-0.5c0.4-0.3,0.6-0.7,0.6-1.3C92.7,34.2,92.6,33.9,92.2,33.6z"/>
			<path class="st2" d="M97.2,43.3v-12h2.6v12L97.2,43.3L97.2,43.3z"/>
			<path class="st2" d="M101.1,39.6v-1.9h4.9v1.9L101.1,39.6L101.1,39.6z"/>
			<path class="st2" d="M107.2,43.3v-12h7.6v1.9h-5v3h4.3V38h-4.3v3.4h5.1v1.9L107.2,43.3L107.2,43.3z"/>
			<path class="st2" d="M123.4,43.3l-3-5h-1.2v5h-2.6v-12h4.4c0.7,0,1.3,0.1,1.8,0.2s1,0.3,1.4,0.6c0.4,0.3,0.7,0.6,0.9,1
				c0.2,0.4,0.3,0.9,0.3,1.4c0,0.8-0.2,1.5-0.7,2.1s-1.1,1-2,1.2l3.5,5.5L123.4,43.3L123.4,43.3z M122.3,33.6
				c-0.3-0.3-0.8-0.4-1.5-0.4h-1.6v3.2h1.3c0.7,0,1.3-0.2,1.7-0.5c0.4-0.3,0.6-0.7,0.6-1.3C122.8,34.2,122.7,33.9,122.3,33.6z"/>
			<path class="st2" d="M127.3,43.3v-12h2.6v12L127.3,43.3L127.3,43.3z"/>
			<path class="st2" d="M139.5,43.3c-0.6,0.1-1.2,0.2-1.8,0.2c-2.1,0-3.7-0.5-4.8-1.6c-1.1-1-1.7-2.5-1.7-4.5c0-1,0.2-1.9,0.5-2.7
				c0.3-0.8,0.8-1.5,1.3-2c0.6-0.5,1.3-1,2.1-1.2c0.8-0.3,1.7-0.4,2.7-0.4c0.6,0,1.1,0.1,1.7,0.2c0.6,0.1,1.1,0.3,1.6,0.5l-0.6,1.9
				c-0.4-0.2-0.9-0.3-1.3-0.5c-0.5-0.1-0.9-0.2-1.4-0.2c-0.6,0-1.2,0.1-1.7,0.3c-0.5,0.2-0.9,0.5-1.2,0.9c-0.3,0.4-0.6,0.8-0.7,1.4
				c-0.2,0.5-0.2,1.1-0.2,1.7c0,1.4,0.3,2.4,1,3.2c0.7,0.8,1.7,1.2,3,1.2c0.5,0,0.9,0,1.4-0.1c0.5-0.1,0.9-0.2,1.4-0.4l0.5,1.8
				C140.7,43.1,140.1,43.2,139.5,43.3z"/>
		</g>
	</g>
	<g>
		<path class="st2" d="M148.4,32.2c0,1.2-1,2.2-2.3,2.2c-1.3,0-2.4-0.9-2.4-2.2c0-1.2,1-2.1,2.4-2.1C147.4,30.1,148.4,31,148.4,32.2
			z M144.3,32.2c0,0.9,0.8,1.7,1.8,1.7c1,0,1.7-0.8,1.7-1.7c0-0.9-0.7-1.7-1.8-1.7S144.3,31.3,144.3,32.2z M145.7,33.3h-0.5v-2.1
			c0.2,0,0.5-0.1,0.9-0.1c0.4,0,0.6,0.1,0.8,0.2c0.1,0.1,0.2,0.3,0.2,0.5c0,0.2-0.2,0.4-0.5,0.5v0c0.2,0.1,0.3,0.2,0.4,0.5
			c0.1,0.3,0.1,0.5,0.2,0.5h-0.6c-0.1-0.1-0.1-0.3-0.2-0.5c0-0.2-0.2-0.3-0.5-0.3h-0.3L145.7,33.3L145.7,33.3z M145.7,32.1h0.2
			c0.3,0,0.5-0.1,0.5-0.3c0-0.2-0.2-0.3-0.5-0.3c-0.1,0-0.2,0-0.3,0V32.1z"/>
	</g>
</g>
</svg>
