<?xml version="1.0" encoding="utf-8"?>
<!-- Generator: Adobe Illustrator 25.4.1, SVG Export Plug-In . SVG Version: 6.00 Build 0)  -->
<svg version="1.1" id="Layer_1" xmlns="http://www.w3.org/2000/svg" xmlns:xlink="http://www.w3.org/1999/xlink" x="0px" y="0px"
	 viewBox="0 0 1284.1 271" style="enable-background:new 0 0 1284.1 271;" xml:space="preserve">
<style type="text/css">
	.st0{fill:#1D1D1B;}
</style>
<path class="st0" d="M360.7,201.3c-5.5,0-11.1,0-16.6-0.2c-0.6-12.9-0.4-29.6-0.4-60.6v-0.2c45.6,0,47.6,1.6,50.5,8.6l1-0.6
	c-0.8-3.8-1-6.2-1-10.5c0-4,0.2-6.8,1-10.7l-1-0.2c-2.3,7-4.7,8.1-50.5,8.6c0-28.2-0.2-41.1,0.4-57.2c5.8-0.6,11.3-0.4,16.4-0.4
	c20.7,0,36.9,3,47.4,12.5l1-1c-1.2-2.8-4.9-13.3-4.9-15.7h-68.4c-3.1,0-11.5,0-14.4-1l-0.2,1c4.1,1.4,6.2,4.2,6.4,8.4
	c0.6,12.9,0.4,26.4,0.4,57.5c0,31.6,0.2,44.3-0.4,57.3c-0.2,3.4-2.3,6.4-6.4,8.6l0.2,0.8c3.1-0.6,11.1-0.8,14.4-0.8H411
	c0-1.8,6.4-13.7,7.4-15.7l-1-1C404.4,198.7,383.3,201.3,360.7,201.3z"/>
<path class="st0" d="M480.6,201.3c-3.9,0-8,0-12.1-0.2c-0.6-12.9-0.4-29.8-0.4-61.2c0-31.2-0.2-44.7,0.4-57.6c0.2-4.2,2.3-7,6.4-8.4
	l-0.2-1c-2.7,1-11.3,1-14.4,1s-11.5,0-14.6-1l-0.2,1c4.1,1.4,6.2,4.2,6.4,8.4c0.6,12.9,0.4,26.4,0.4,57.6c0,31.6,0.2,44.3-0.4,57.4
	c-0.2,3.4-2.3,6.4-6.4,8.6l0.2,0.8c3.1-0.6,11.1-0.8,14.4-0.8h71.8c0-2,6.2-13.7,7.2-15.7l-1-1C524.1,199.5,503.8,201.5,480.6,201.3
	z"/>
<path class="st0" d="M525.5,74c0,1.6-3.9,13.3-4.9,15.9l1,0.8c14-9.5,30.8-12.1,50.3-11.9V140c0,31.6,0.2,44.3-0.4,57.4
	c-0.2,4-2.3,6.4-6.6,8.6l0.2,0.8c2.9-0.6,11.3-0.8,14.6-0.8s11.5,0.2,14.4,0.8l0.4-0.8c-4.3-2-6.4-4.8-6.6-8.6
	c-0.6-13.1-0.4-25.8-0.4-57.4V78.8c19.7-0.2,36.1,2,50.1,11.9l1-1c-1-2.6-4.9-14.1-4.9-15.7C633.7,74,525.5,74,525.5,74z"/>
<path class="st0" d="M703.9,201.3c-5.5,0-11.1,0-16.6-0.2c-0.6-12.9-0.4-29.6-0.4-60.6v-0.2c45.6,0,47.6,1.6,50.5,8.6l1-0.6
	c-0.8-3.8-1-6.2-1-10.5c0-4,0.2-6.8,1-10.7l-1-0.2c-2.3,7-4.7,8.1-50.5,8.6c0-28.2-0.2-41.1,0.4-57.2c5.8-0.6,11.3-0.4,16.4-0.4
	c20.7,0,36.9,3,47.4,12.5l1-1c-1.2-2.8-4.9-13.3-4.9-15.7h-68.3c-3.1,0-11.5,0-14.4-1l-0.2,1c4.1,1.4,6.2,4.2,6.4,8.4
	c0.6,12.9,0.4,26.4,0.4,57.5c0,31.6,0.2,44.3-0.4,57.3c-0.2,3.4-2.3,6.4-6.4,8.6l0.2,0.8c3.1-0.6,11.1-0.8,14.4-0.8h75.3
	c0-1.8,6.4-13.7,7.4-15.7l-1-1C747.6,198.7,726.5,201.3,703.9,201.3z"/>
<g>
	<path class="st0" d="M239,135.8c0-3.2-0.1-6.5-0.4-9.7c0-0.3-0.3-0.6-0.6-0.5l-0.9,0.1c-0.3,0-0.6,0.3-0.5,0.6
		c0.3,3.1,0.4,6.3,0.4,9.5c0,55.5-45.1,100.6-100.6,100.6S35.7,191.3,35.7,135.8c0-26.1,10-50.8,28-69.7
		c17.9-18.6,41.9-29.6,67.6-30.8c0.3,0,0.6-0.3,0.6-0.6l0-0.9c0-0.3-0.3-0.6-0.6-0.6c-26.3,1.3-50.7,12.5-69,31.5
		c-18.5,19.2-28.6,44.5-28.6,71.1c0,56.6,46.1,102.7,102.7,102.7S239,192.4,239,135.8z"/>
	<path class="st0" d="M136.6,0.7c-35.9,0-69.7,14-95.2,39.4C16,65.5,2,99.3,2,135.3c0,27.7,8.3,54.2,24.1,76.9
		c0.2,0.3,0.6,0.3,0.8,0.1l0.7-0.5c0.3-0.2,0.3-0.6,0.1-0.8c-15.7-22.5-23.9-49-23.7-76.5c0.2-35.4,14.7-69.3,40-94
		C69,16.1,101.8,2.8,136.6,2.8c35.1,0,68.8,14,93.6,38.8c25.1,25.1,38.9,58.6,38.8,94.2c-0.1,35-14,68.5-38.8,93.2
		c-25,25-58.3,38.8-93.7,38.8c-3.9,0-7.9-0.2-11.8-0.5c-0.3,0-0.6,0.2-0.6,0.5l-0.1,0.9c0,0.3,0.2,0.6,0.5,0.6
		c3.9,0.4,8,0.5,11.9,0.5c35.9,0,69.7-14,95.1-39.4c25.4-25.4,39.4-59.2,39.4-95.1s-14-69.7-39.4-95.2
		C206.3,14.7,172.5,0.7,136.6,0.7z"/>
	<path class="st0" d="M134.9,51.8c-0.1,0-0.3,0.1-0.4,0.1c-0.2,0-0.3,0.1-0.5,0.2c-1.2,0.4-2.2,1.2-2.9,2.2
		c-0.1,0.1-0.2,0.3-0.3,0.4c-0.1,0.3-0.4,0.4-0.7,0.5c-0.2,0-0.3,0.1-0.5,0.1c-0.1,0-0.3,0-0.5,0.1c-1.2,0.2-2.5,0.5-4,0.9
		c-5.9,1.7-11.3,4.7-15.8,9c-3.1,3-5.7,6.5-7.7,10.4c-0.1,0.1-0.1,0.2-0.2,0.4c-0.1,0.1-0.1,0.2-0.2,0.3c-0.2,0.2-0.1,0.5,0.1,0.7
		c0.1,0.2,0.3,0.3,0.4,0.5l0.4,0.4c0.5,0.6,1.2,1.4,1.7,2.3c0.5,0.7,1,1.6,1.5,2.7c1.3,2.7,2.3,5.3,3,7.7c0.3,1.1,0.6,2.3,0.9,3.4
		c0.1,0.5,0.3,1,0.4,1.5c0.2,0.7,0.3,1.3,0.5,1.9c0.2,0.7,0.3,1.3,0.5,2c0.1,0.2,0.2,0.3,0.5,0.3l3.4-0.4c0.7-0.1,1.4-0.2,2.1-0.2
		l1.7-0.2c0.7-0.1,1.5-0.1,2.2-0.2l2.6-0.2c1.1-0.1,2.2-0.1,3.2-0.2l0.2,0c0.9-0.1,1.8-0.1,2.8-0.1c2.8-0.1,5.7-0.1,8.5-0.1
		c0.9,0,1.7,0,2.6,0c1.2,0,2.4,0.1,3.5,0.1c0.6,0,1.2,0.1,1.8,0.1c0.2,0,0.5,0,0.7,0c0.2,0,0.5,0,0.7,0l2.8,0.2l2.9,0.2
		c0.5,0.1,1,0.1,1.5,0.2l3.2,0.3l3,0.4h0.2c0.1,0,0.2-0.1,0.3-0.2c0.1-0.1,0.1-0.2,0.1-0.3c0.1-0.5,0.3-1,0.4-1.5
		c0.1-0.5,0.3-1,0.4-1.5l0.1-0.2c0.1-0.4,0.2-0.8,0.3-1.2c0-0.1,0.1-0.2,0.1-0.4c0-0.1,0.1-0.3,0.1-0.4c0.5-2,1.1-4.1,1.8-6
		c0.7-2,1.4-3.8,2.4-5.6c1-2,2.2-3.7,3.5-5.2l0.1-0.1c0.4-0.3,0.4-0.8,0.2-1.1l0-0.1c-5.1-10.6-15.1-18.2-26.7-20.5
		c-0.6-0.1-1.3-0.2-1.9-0.3l-0.1,0c-0.2,0-0.4-0.1-0.5-0.3l0-0.1l0,0c0,0,0-0.1-0.1-0.1c-0.7-1.3-2-2.2-3.4-2.6
		c-0.1,0-0.3-0.1-0.4-0.1c0,0,0,0,0-0.1c0,0,0-0.1-0.1-0.1c-0.1-0.7-0.1-1.4,0-2.1l0-0.1l0,0l0.1-0.1c0,0,0.1,0,0.1,0h0.9
		c0.1,0,0.2,0,0.4,0c0.1,0,0.2,0,0.3,0c0.2,0,0.4-0.2,0.4-0.3l0.1-0.3c0.1-0.4,0-0.7,0-1.1l0,0c0-0.2-0.1-0.3-0.3-0.3
		c-0.1-0.1-0.3-0.1-0.4-0.1l-1,0c-0.2,0-0.3,0-0.5,0l-0.1-0.1c0,0,0-0.1,0-0.2v-2.1l0-0.1l-0.1-0.1c-0.1-0.1-0.1-0.2-0.3-0.2h-1.4
		c-0.2,0-0.5,0-0.5,0.4v2c0,0,0,0,0,0c0,0,0,0.1,0,0.2l0,0c0,0-0.1,0-0.1,0h-0.9c-0.2,0-0.5,0-0.7,0c-0.2,0-0.4,0.2-0.4,0.3
		c-0.1,0.5-0.1,1,0,1.5c0,0.1,0.1,0.3,0.4,0.3h1.7c0.1,0,0.1,0,0.1,0L134.9,51.8C135,51.7,135,51.7,134.9,51.8z M133.9,70.7
		c0.5-0.4,1-0.7,1.7-0.8c0.2,0,0.4-0.1,0.6-0.1c0.4,0,0.8,0.1,1.2,0.2c0.5,0.2,1,0.4,1.4,0.7c0.9,0.8,1.5,1.8,1.7,2.9
		c0.1,0.5,0.2,1.1,0.2,1.7v9.3c0,0,0,0-0.1,0H132c0,0,0,0,0-0.1v-9.7c0-0.6,0.1-1.1,0.2-1.6C132.4,72.3,133.1,71.4,133.9,70.7z
		 M133.4,63.1c0.4,0.2,0.7,0.3,1.1,0.4c1.2,0.3,2.6,0.2,3.8-0.2l0.5-0.2c-0.1,0.6-0.2,1.1-0.2,1.6c-0.1,0.8-0.2,1.5-0.3,2.3
		c0,0.3-0.1,0.6-0.1,1l-1.5-0.3c-0.2,0-0.4,0-0.6,0s-0.4,0-0.6,0.1l-1.3,0.3c-0.1,0-0.1,0-0.2,0l0,0l-0.3-2.3
		c-0.1-0.8-0.2-1.6-0.3-2.4C133.4,63.3,133.4,63.2,133.4,63.1z M131,61.4C131,61.4,131,61.4,131,61.4C131,61.4,131,61.4,131,61.4
		l0.1,0.2c0,0,0,0.1,0,0.1c0.1,0.4,0.1,0.8,0.1,1.1c0,0.3,0.1,0.7,0.1,1.1c0.1,0.4,0.1,0.8,0.2,1.2c0.1,0.4,0.1,0.8,0.2,1.2L132,69
		c0,0.2,0,0.3-0.1,0.4l0,0.1c0,0.1-0.1,0.2-0.2,0.3c-1,1.1-1.6,2.5-1.8,4.1c-0.1,0.7-0.1,1.4-0.1,2.1v7.8l0,0.8l-1.4,0.1
		c0,0-0.1-0.1-0.1-0.2c0-0.2,0-0.3,0-0.6l-0.2-4.6c0-1.2-0.1-2.4-0.1-3.7c-0.1-0.7-0.1-1.2-0.3-1.8c-0.3-1.2-0.9-2.2-1.8-3
		c-0.4-0.4-1-0.8-1.6-1.1c-1-0.6-2.2-0.8-3.3-0.7c-1.6,0.1-3,0.9-4,2.1c-0.8,0.9-1.4,2-1.6,3.1c-0.1,0.8-0.2,1.4-0.1,2
		c0.1,0.7,0.2,1.5,0.3,2.2c0.4,2.4,0.9,4.8,1.4,7.1v0l0,0c0,0,0,0.1,0,0.1l0,0c0,0,0,0,0,0c-0.1,0-0.2,0.1-0.2,0.1l-1,0.2h-0.1
		c-0.1-0.2-0.1-0.3-0.2-0.6c-0.7-2-1.5-4.2-2.6-6.5l-0.5-1c-0.6-0.9-1.4-1.8-2.4-2.3l-0.2-0.1c0,0-0.1-0.1-0.1-0.1c0,0,0,0,0.1-0.1
		c2.1-3.3,4.8-6.2,8-8.4c3.2-2.2,6.7-3.9,10.4-4.9C128.9,61.8,129.9,61.6,131,61.4z M126.2,84.3v0.5c0,0.1,0,0.1-0.1,0.1l-6.8,0.6
		c0,0,0,0,0-0.1c0,0,0-0.1,0-0.1c0-0.1,0-0.1-0.1-0.2l-0.2-1c-0.4-2-0.8-3.9-1.2-5.8c-0.1-0.3-0.1-0.6-0.2-0.9
		c-0.1-0.3-0.1-0.6-0.2-0.9c-0.3-1.5,0.2-3,1.4-4.1c0.2-0.3,0.6-0.5,0.9-0.7c0.8-0.5,1.8-0.6,2.7-0.3c1.6,0.4,2.8,1.7,3.3,3.3
		c0.1,0.3,0.2,0.8,0.2,1.2c0.1,1.4,0.1,2.9,0.2,5C126,81.6,126.1,83,126.2,84.3z M130.5,59.3L130.5,59.3
		C130.5,59.3,130.5,59.3,130.5,59.3C130.5,59.3,130.5,59.3,130.5,59.3z M105,74.9c5.1-8.7,13.6-15,23.3-17.1
		c0.4-0.1,0.9-0.2,1.4-0.3c0.1,0,0.2,0,0.3,0c0.1,0,0.2,0,0.3,0v0.1c0,0.5,0.1,1.1,0.2,1.5v0.3c-0.1,0-0.1,0-0.2,0
		c-0.1,0-0.2,0-0.3,0.1c-2.9,0.5-5.7,1.4-8.4,2.7c-4.2,2-7.8,4.7-10.7,8c-1,1.1-1.9,2.4-2.9,3.8c-0.1,0.2-0.3,0.5-0.4,0.7l0,0.1
		c0,0.1-0.1,0.1-0.2,0.1l-0.7-0.1h0C106.1,74.8,105.5,74.8,105,74.9C104.9,75,104.9,74.9,105,74.9z M110.3,87.2c0,0-0.1,0-0.1,0
		c-0.1,0-0.1,0-0.2,0.1c0,0,0,0,0,0c0,0,0-0.1,0-0.1c0-0.1,0-0.1-0.1-0.2c-0.5-1.6-1.2-3.3-2.2-5.3c-0.7-1.4-1.6-2.9-2.6-4.3
		l-0.1-0.3h0c1-0.3,2-0.3,2.9-0.1c0.3,0.1,0.7,0.2,1.1,0.4c0.8,0.4,1.4,1,1.8,1.8c0.6,1.3,1.2,2.6,1.7,4c0.2,0.5,0.3,0.9,0.5,1.4
		c0.2,0.4,0.3,0.9,0.5,1.4c0,0.1,0.1,0.2,0.1,0.3c-0.1,0.1-0.2,0.1-0.3,0.1L110.3,87.2z M162,89.3l-0.2,0.5
		c-0.2,0.7-0.4,1.3-0.6,1.9c-0.1,0.4-0.2,0.8-0.4,1.2c-0.1,0.4-0.2,0.8-0.4,1.2l-1,3.1l0,0c-0.1,0.2-0.3,0.1-0.5,0.1l-4.9-0.6
		c-0.4,0-0.8-0.1-1.2-0.1s-0.8-0.1-1.2-0.1l-5.5-0.4l-0.5-0.1c-0.6,0-1.2,0-1.9-0.1c-1.2-0.1-2.5-0.1-3.8-0.1c-0.8,0-1.6,0-2.4,0
		c-0.8,0-1.6,0-2.4,0c0,0,0,0,0,0c-1,0-2,0-2.9,0.1s-1.9,0-2.9,0.1c-1,0-2,0.1-3,0.1l-3.2,0.2c-0.9,0.1-1.8,0.1-2.7,0.2l-4,0.3
		l-2,0.2l-1.8,0.2c-0.1,0-0.1,0-0.2-0.1c-0.1-0.2-0.1-0.4-0.2-0.6c-0.2-0.9-0.5-1.8-0.7-2.8c-0.3-1.3-0.7-2.5-1-3.8
		c-0.1-0.2-0.2-0.4-0.2-0.6c0,0,0,0,0-0.1l0.4-0.2c1.1-0.3,2.2-0.6,3.3-0.8c0.8-0.2,1.8-0.3,2.6-0.4c0.5-0.1,0.9-0.1,1.4-0.2
		c0.4-0.1,0.8-0.1,1.2-0.1c0.4,0,0.8-0.1,1.2-0.1c1-0.1,2-0.2,3.1-0.3c0.3,0,0.6,0,0.9-0.1s0.6,0,0.9-0.1s0.7,0,1-0.1
		c0.3,0,0.7,0,1-0.1c2.4-0.1,4.9-0.2,7.3-0.2c1.5,0,3,0.1,4.4,0.1c0.8,0,1.5,0.1,2.3,0.1c0.8,0,1.6,0.1,2.4,0.1
		c0.4,0,0.8,0.1,1.1,0.1l6.3,0.4c0.9,0.1,1.8,0.2,2.7,0.3c1.2,0.2,2.5,0.3,3.8,0.6l0.1,0c1.1,0.2,2.2,0.4,3.3,0.6
		c0.1,0,0.2,0.1,0.4,0.1s0.2,0.1,0.4,0.1C162,89.1,162,89.2,162,89.3z M153.2,85.4L153.2,85.4l-0.4,0.1c-0.3,0-0.6,0-0.9-0.1
		l-5.4-0.5h-0.1v-0.2c0-0.9,0-1.7,0.1-2.5c0-0.3,0-0.6,0.1-0.9c0-0.3,0-0.6,0.1-0.9v0c0.1-1.4,0.1-2.8,0.1-4.1c0-0.4,0-0.7,0.1-1.1
		l0-0.1c0.1-0.4,0.2-0.8,0.4-1.2c0.4-0.8,1.1-1.4,1.8-1.9c1.6-1,3.7-0.7,4.9,0.6c0.6,0.7,1,1.5,1.2,2.4c0.1,0.6,0.1,1.2,0,1.8
		c-0.1,0.5-0.2,1-0.3,1.5c-0.1,0.5-0.2,1-0.3,1.5c-0.1,0.7-0.3,1.5-0.4,2.2c-0.1,0.7-0.3,1.5-0.4,2.2L153.2,85.4
		C153.2,85.3,153.2,85.4,153.2,85.4z M167.6,77.2c0,0.1-0.1,0.1-0.1,0.2c-0.8,1.1-1.6,2.4-2.3,3.9c-0.8,1.6-1.6,3.4-2.3,5.4
		c0,0.1-0.1,0.2-0.1,0.3c0,0.1-0.1,0.2-0.1,0.3c0,0,0,0-0.1,0h-0.1l-3.2-0.8l-0.1,0c0,0-0.1,0-0.1,0l0,0c0,0,0-0.1,0-0.1
		c0,0,0-0.1,0.1-0.1c0.6-1.9,1.5-4,2.5-6.4c0.1-0.2,0.2-0.4,0.3-0.5c0-0.1,0.1-0.2,0.1-0.2c0.4-0.7,0.9-1.2,1.6-1.5
		c0.9-0.5,1.9-0.7,2.9-0.6l0.1,0c0.3,0.1,0.7,0.1,1,0.2C167.6,77.1,167.6,77.1,167.6,77.2C167.6,77.2,167.6,77.2,167.6,77.2z
		 M142.1,59.2c0-0.1,0-0.1,0-0.2c0.1-0.3,0.1-0.6,0.1-1c0-0.1,0-0.2,0-0.3c0-0.1,0-0.3,0-0.4c0,0,0,0,0.1,0c0.6,0.1,1.1,0.2,1.8,0.3
		c4.1,0.9,8.1,2.5,11.6,4.8c4.8,3,8.8,7.2,11.6,11.9c0,0.1,0.1,0.3,0.2,0.4c0,0.1,0.1,0.1,0.1,0.1c0,0,0,0,0,0.1c0,0,0,0,0,0
		c-0.6-0.1-1.1-0.2-1.7-0.2c-0.2,0-0.4,0-0.6,0h-0.3c-0.1,0-0.2,0-0.2-0.1l0,0l-0.1-0.1c-4.6-7.4-12.1-12.8-20.6-14.8
		c-0.3-0.1-0.7-0.2-1-0.2c-0.3-0.1-0.7-0.1-1-0.2l-0.2,0C142.1,59.3,142.1,59.2,142.1,59.2z M140.2,68.9c0-0.1,0-0.2,0-0.3
		c0.1-0.9,0.2-1.8,0.3-2.7l0.3-2.3c0-0.2,0.1-0.5,0.1-0.7c0-0.2,0.1-0.5,0.1-0.7c0-0.1,0-0.2,0.1-0.4c0-0.1,0-0.2,0.1-0.3
		c0.2,0,0.5,0,0.9,0.1c1,0.2,2,0.4,2.9,0.7c4.6,1.3,8.7,3.6,12.3,6.8c1.9,1.8,3.4,3.5,4.7,5.4c0.2,0.2,0.3,0.4,0.4,0.6l0.1,0.2
		c0.1,0.1,0.1,0.2,0.1,0.2c0,0-0.1,0.1-0.3,0.2l-0.1,0.1c-1.1,0.6-2,1.6-2.5,2.7c-0.3,0.6-0.6,1.3-0.9,1.9c-0.7,1.6-1.3,3.3-1.9,4.9
		c-0.1,0.2-0.1,0.4-0.3,0.7h0l-1.4-0.2c0,0,0,0,0,0c0-0.1,0.1-0.3,0.1-0.4c0.1-0.2,0.1-0.4,0.1-0.7c0.4-2,0.9-4.1,1.3-6.1l0.3-1.8
		c0.3-1.7-0.1-3.4-1-4.8c-0.4-0.6-0.8-1.1-1.2-1.4c-0.8-0.8-2-1.3-3.2-1.5c-1.2-0.2-2.5,0.1-3.6,0.7c-1.6,0.9-2.9,2.4-3.4,4.3
		c-0.1,0.4-0.2,0.8-0.2,1.1c0,0.5,0,1-0.1,1.5c0,0.5,0,1-0.1,1.5l-0.2,4.8c0,0.2,0,0.5,0,0.7c0,0.2,0,0.4,0,0.6c0,0,0,0.3,0,0.4H144
		l-1.3-0.1c0,0,0,0,0-0.1v-5.2c0-1.5,0-3-0.2-4.5c0-0.8-0.1-1.5-0.3-2.3c-0.4-1.2-1-2.3-1.8-3.1l-0.1-0.1c-0.1-0.1-0.1-0.2-0.1-0.3
		C140.2,69.1,140.2,69,140.2,68.9z M136.1,53.9c0.6,0,1.2,0.1,1.7,0.3c0,0,0.1,0,0.1,0.1c0.1,0,0.2,0.1,0.3,0.2
		c1.8,1.1,2.4,3.5,1.3,5.2c-0.4,0.7-1,1.2-1.7,1.5c-0.5,0.2-1.1,0.4-1.7,0.4c-0.3,0-0.6,0-0.9-0.1c-0.9-0.3-1.6-0.8-2.2-1.5
		c-0.3-0.5-0.5-0.9-0.6-1.3c-0.1-0.3-0.1-0.6-0.1-1C132.3,55.6,134,53.9,136.1,53.9z"/>
	<path class="st0" d="M127.5,208.7c-0.1,0-0.2-0.1-0.4-0.1c-0.1,0-0.2-0.1-0.3-0.1l-1.2-0.3h-0.2c-0.2,0-0.3,0.1-0.3,0.3v0.1l0,0.1
		c0.2,0.3,0.4,0.5,0.7,0.7c0.4,0.3,0.8,0.5,1.2,0.7c0.9,0.4,1.8,0.6,2.8,0.6c0.3,0,0.6,0,1-0.1c0.9-0.2,1.7-0.3,2.5-0.5
		c0.2,0,0.4-0.1,0.6-0.1c0.4-0.1,0.8-0.2,1.3-0.2c1.2-0.1,2.1-0.1,3,0.1c0.5,0.1,1,0.2,1.5,0.3c0.5,0.1,1,0.2,1.5,0.3
		c0.6,0.1,1.1,0.2,1.6,0.2c0.7,0,1.3-0.1,1.9-0.2c0.7-0.2,1.3-0.4,2-0.9c0.3-0.2,0.6-0.4,0.7-0.6c0.1-0.1,0.1-0.1,0.1-0.2l0.1-0.1
		v-0.4h-0.3c-0.3,0.1-0.8,0.1-1.2,0.3c-0.5,0.1-1.1,0.2-1.6,0.3c-0.9,0.1-1.7,0.1-2.6-0.2l-4.4-1.1c-0.6-0.1-1.2-0.1-1.8,0
		c-0.4,0.1-0.9,0.2-1.3,0.3c-0.6,0.1-1.1,0.3-1.6,0.4c-0.5,0.1-1.1,0.3-1.6,0.4C129.8,208.9,128.6,208.9,127.5,208.7z"/>
	<path class="st0" d="M106.6,201.5c0.3,0.3,0.6,0.6,0.9,0.7c0.8,0.5,1.6,0.8,2.4,1c0.8,0.1,1.4,0.2,2,0.1c0.5,0,1-0.1,1.4-0.2
		c0.2,0,0.5-0.1,0.7-0.1c1-0.2,2.1-0.4,3.1-0.6c0.7-0.1,1.4-0.2,1.9-0.1c0.6,0.1,1.2,0.2,1.8,0.3c0.6,0.1,1.1,0.2,1.7,0.3
		c0.4,0.1,0.9,0.2,1.3,0.3c0.5,0.1,1.1,0.2,1.7,0.2c0.5,0,1-0.1,1.6-0.1l0.2,0c1-0.2,1.9-0.5,2.8-1.1c0.2-0.2,0.5-0.4,0.6-0.6
		c0.1-0.1,0.1-0.1,0.1-0.2l0.1-0.1V201l-0.1-0.1c-0.1-0.1-0.1-0.1-0.2-0.1c-0.2,0-0.4,0-0.6,0.1c-0.7,0.2-1.4,0.4-2.2,0.5
		c-0.8,0.2-1.7,0.2-2.6,0l-0.5-0.1c-0.9-0.2-1.8-0.4-2.7-0.6c-0.7-0.2-1.5-0.4-2.4-0.6c-0.6-0.2-1.3-0.2-2-0.1
		c-0.6,0.1-1.2,0.2-1.8,0.4c-1.1,0.3-2.2,0.5-3.4,0.8c-1.2,0.3-2.6,0.3-3.8,0c-0.6-0.2-1.1-0.3-1.6-0.4c-0.2-0.1-0.4-0.1-0.6-0.1
		c-0.1,0-0.2,0-0.2,0.3l0,0.1C106.4,201.3,106.5,201.4,106.6,201.5z"/>
	<path class="st0" d="M142.6,201.8c0,0,0,0.1,0.1,0.1c0.2,0.3,0.5,0.5,0.8,0.7c0.4,0.2,0.8,0.4,1.2,0.6c0.8,0.3,1.6,0.5,2.6,0.5
		c0.3,0,0.5,0,0.8,0c0.2,0,0.3-0.1,0.5-0.1c0.2,0,0.4-0.1,0.5-0.1c0.5-0.1,1.1-0.2,1.6-0.4c0.5-0.1,1.1-0.2,1.6-0.4
		c1.2-0.3,2.5-0.3,3.9-0.1c0.6,0.1,1.2,0.2,1.8,0.4c0.3,0.1,0.6,0.1,0.9,0.1l0.1,0c0.6,0.1,1.2,0.2,1.8,0.2s1.2-0.1,1.8-0.2
		c0.8-0.1,1.6-0.5,2.4-1c0.3-0.2,0.6-0.5,0.9-0.9l0-0.1v0c0,0,0.1-0.1,0.1-0.2l0-0.1c0-0.1-0.1-0.2-0.3-0.2c-0.2,0-0.4,0-0.6,0.1
		c-0.9,0.3-1.7,0.4-2.6,0.6c-0.5,0.1-1,0.1-1.6,0c-0.8-0.1-1.5-0.2-2.2-0.4l-3.1-0.7c-1.2-0.2-2.3-0.2-3.3,0.1
		c-0.5,0.1-1,0.3-1.5,0.4c-0.5,0.1-1,0.3-1.6,0.4c-0.6,0.2-1.3,0.4-2,0.5c-0.7,0.1-1.4,0.1-2.1,0l-1.9-0.4c-0.2-0.1-0.5-0.1-0.7-0.1
		c-0.2,0-0.3,0.1-0.3,0.3L142.6,201.8L142.6,201.8z"/>
	<path class="st0" d="M110.9,149.6c0.9,1.3,2.4,2.1,4,2c1.1,0,2.2-0.4,3.1-1.1c1.2-0.8,1.8-2.1,1.9-3.6c0-0.7-0.1-1.4-0.4-2
		c-0.3-0.8-0.9-1.4-1.7-1.8c-0.8-0.4-1.7-0.5-2.5-0.4c-1,0.1-1.9,0.7-2.5,1.6c-0.1,0.1-0.2,0.2-0.3,0.3c0,0-0.1,0.1-0.2,0.1
		c0-0.1,0-0.2,0-0.3c0.1-0.7,0.2-1.5,0.3-2.2c0.4-1.5,1.1-2.9,2.1-4.1c0.4-0.6,1.1-1.1,1.7-1.4l0.3-0.2l0.1-0.1
		c0.1-0.1,0.1-0.3,0-0.4c-0.1-0.1-0.1-0.1-0.2-0.1s-0.2,0-0.2,0.1c-1.6,0.7-3,1.7-4.1,3c-1.9,2.2-2.7,5.1-2.2,7.9
		C110.1,147.9,110.4,148.8,110.9,149.6z M112.6,146.6c0.1-0.6,0.3-1.2,0.7-1.7c0.2-0.3,0.4-0.5,0.6-0.7c0.8-0.6,1.8-0.5,2.5,0.1
		c0.3,0.3,0.6,0.7,0.8,1.1c0.2,0.6,0.3,1,0.3,1.6v0.3c0.1,0.6-0.1,1.3-0.3,1.7c-0.2,0.4-0.4,0.7-0.7,1c-0.4,0.3-0.8,0.5-1.3,0.6
		c-0.6,0.1-1-0.2-1.4-0.5c-0.2-0.2-0.4-0.4-0.6-0.6c-0.4-0.6-0.7-1.2-0.7-1.9C112.6,147.3,112.6,147,112.6,146.6z"/>
	<path class="st0" d="M101.6,139.8c0.1,0,0.2-0.1,0.2-0.1l1.4-0.4l0.3-0.1c0.1-0.1,0.2,0.1,0.2,0.1c0.1,0.2,0.1,0.4,0.1,0.6
		c0,1.7,0,3.4,0,5.1c0,1.6,0,3.2,0,4.8c0,0.1,0,0.2,0,0.3c0,0.3-0.2,0.7-0.4,0.9c0,0-0.1,0.1-0.1,0.1c0,0.1,0.1,0.2,0.2,0.2h3
		c0.1,0,0.1-0.1,0.1-0.2s-0.1-0.1-0.1-0.2c-0.2-0.2-0.3-0.5-0.3-0.8c0-0.1,0-0.1,0-0.2c0-1.6-0.1-3.1-0.1-4.7c0-0.7,0-1.3,0-2
		c0.1-1.4,0.1-2.8,0.1-4.2c0-0.9,0-1.8,0-2.7c0-0.1-0.1-0.2-0.1-0.3c0-0.1-0.1-0.1-0.2-0.1c-0.2,0.1-0.3,0.3-0.4,0.4
		c-0.4,0.3-0.8,0.8-1.3,1.1c-0.6,0.4-1.1,0.8-1.7,1.2c-0.3,0.2-0.6,0.4-0.9,0.7c-0.1,0.1-0.1,0.1-0.2,0.2
		C101.5,139.6,101.6,139.8,101.6,139.8z"/>
	<path class="st0" d="M163,144.1c0,0,0.2,0.1,0.3-0.1l0.3-0.3c0.5-0.5,1.1-0.8,1.8-1c0.5-0.1,1-0.1,1.6,0c1.1,0.2,1.9,0.9,2.2,1.9
		c0.1,0.3,0.2,0.6,0.2,0.9c0.1,0.6,0,1.1-0.1,1.6c-0.3,1.7-1.6,3.1-3.2,3.6c-0.7,0.2-1.5,0.3-2.2,0.2l-0.3-0.1
		c-0.1,0.1-0.1,0.1-0.1,0.2c0.1,0.1,0.1,0.2,0.1,0.4l0.2,0.2c0.1,0,0.2,0.1,0.2,0.1c0.9,0.1,1.8,0.1,2.7-0.1
		c1.9-0.4,3.6-1.6,4.5-3.4c0.7-1.3,0.9-2.9,0.4-4.3c-0.3-0.9-0.9-1.6-1.7-2.1c-1.1-0.7-2.5-0.8-3.7-0.4c-0.7,0.2-1.3,0.5-1.8,0.9
		c-0.2,0.1-0.3,0.2-0.4,0.3l-0.1,0.1c-0.1,0.1-0.2,0.1-0.2-0.1c0.1-0.8,0.2-2.5,0.2-3.4c0-0.1,0-0.2,0.1-0.3
		c0.1-0.1,0.2-0.2,0.3-0.2c0,0,5.7,0,5.8,0c0.1,0,0.2,0,0.2-0.3c0.1-0.6,0.2-1.2,0.4-1.7v-0.1c0.1-0.2-0.1-0.3-0.2-0.3
		c-0.4,0.1-0.9,0.1-1.3,0.1c-1.6,0-3.2,0-4.8,0c-0.9,0-0.8,0-0.9,0.8c-0.1,0.7-0.1,1.4-0.2,2.1l-0.2,3.6c0,0.4-0.1,0.6-0.1,0.8
		C162.8,143.9,162.9,144,163,144.1z"/>
	<path class="st0" d="M151.9,138.8c0.1,0.1,0.2,0.1,0.2,0.1l0.6-0.5c0.4-0.3,0.8-0.5,1.2-0.7c0.8-0.3,1.5-0.3,2.3-0.1
		c0.7,0.2,1.3,0.8,1.3,1.5c0.2,0.8-0.1,1.6-0.6,2.3c-0.2,0.3-0.4,0.5-0.7,0.7c-0.4,0.3-0.9,0.6-1.4,0.8l-0.7,0.3
		c-0.1,0.1-0.2,0.2-0.1,0.3c0.1,0.1,0.1,0.2,0.1,0.2c0.1,0.1,0.2,0.2,0.3,0.1c0.2-0.1,0.4-0.2,0.7-0.2c0.5-0.1,0.9-0.1,1.4,0
		c0.9,0.1,1.6,0.7,2,1.5c0.1,0.3,0.2,0.6,0.2,0.9c0.1,0.4,0.1,0.9,0,1.4c-0.1,1.2-0.8,2.2-1.8,2.8c-0.3,0.2-0.7,0.4-1.1,0.5
		c-1,0.3-2.1,0.3-3.1,0.2l-0.7-0.1c-0.1,0-0.1,0.1-0.1,0.1c0,0.1,0,0.2,0,0.3s0.1,0.3,0.2,0.3c0.3,0.1,0.6,0.1,0.8,0.2
		c1,0.1,2.1,0,3.2-0.3c0.9-0.3,1.8-0.7,2.5-1.2c0.7-0.5,1.3-1,1.7-1.8c0.8-1.2,0.9-2.6,0.4-4c-0.2-0.8-0.8-1.4-1.5-1.8
		c-0.3-0.2-0.8-0.3-1.2-0.4c-0.3-0.1-0.6-0.2-0.9-0.2l-0.1-0.1v-0.1l0.5-0.3c0.4-0.3,0.8-0.7,1.1-1c0.5-0.7,0.7-1.5,0.6-2.3
		c-0.1-0.6-0.4-1.1-0.9-1.5c-0.3-0.2-0.6-0.3-0.9-0.4c-0.9-0.3-1.9-0.3-2.8-0.1c-1.3,0.3-2.5,1.1-3.3,2.2
		C151.7,138.5,151.7,138.7,151.9,138.8z"/>
	<path class="st0" d="M95.8,102.9v85.7c0,12.7,10.4,22.3,17.3,25.6c9.3,4.4,13.2,6.1,19.6,8.9l2.9,1.3c0.3,0.1,0.6,0.1,0.9,0l2.2-1
		c7.7-3.4,10-4.4,20.3-9.2c5.1-2.4,11.9-8.1,15.3-16c1.3-3,2.1-6.3,2.1-9.9v-85.7c0-0.3-0.2-0.6-0.6-0.6H96.3
		C96,102.1,95.8,102.4,95.8,102.9z M174.2,160.7v3v4.4v0.4c-0.1,0.1-0.1,0.1-0.1,0.2c-0.4,0.3-1.7,1.2-2.2,1.5l-7.5,5l-0.3,0.2
		c-0.1,0.1-0.1,0.1-0.2-0.1s-0.2-0.4-0.3-0.6c-0.2-0.6-0.3-0.9-0.7-1.4c-1-1.8-2.2-3.2-4-4.2c-0.4-0.2-0.5-0.2,0.1-0.9l8.1-7.9h2
		l0,0h2h2.6C174.1,160.2,174.3,160.4,174.2,160.7L174.2,160.7L174.2,160.7z M149.3,191.2c-0.2-0.2-0.4-0.2-0.6-0.1
		c-0.2,0-0.5,0.1-0.7,0.2l-1.7,0.9l-3,1.5c-0.7,0.4-1.5,0.5-2.3,0.6l-0.8-0.1c-0.1,0-0.1-0.1-0.1-0.1c0-0.2,0.1-0.2,0.1-0.2
		c1.1-0.6,2.2-1.3,3.3-1.9c0.6-0.3,1.1-0.7,1.7-1.1c0.5-0.3,0.9-0.7,1.4-1.1c0.3-0.3,0.5-0.5,0.7-0.8c0.1-0.1,0-0.2-0.1-0.3
		c-0.2-0.2-0.5-0.2-0.7-0.1c-0.3,0.2-0.6,0.3-0.8,0.5l-5.6,3.6c-0.3,0.2-0.7,0.4-1.1,0.6c-0.7,0.4-2.2,0.6-2.6,0.4
		c-0.2-0.1,0.1-0.2,0.2-0.3c0.6-0.3,1.1-0.6,1.7-0.9c0.8-0.5,1.2-0.9,1.6-1.2c0.6-0.4,1.1-0.9,1.6-1.3c1-0.9,1.8-1.8,2.6-2.8
		c0.2-0.2,0.3-0.4,0.4-0.7c0.1-0.1,0.1-0.4,0-0.4c-0.2-0.2-0.4-0.1-0.6,0c-0.3,0.2-0.6,0.4-0.8,0.6l-3.6,3.2
		c-0.2,0.2-0.4,0.3-0.6,0.5c-0.5,0.5-1.3,0.9-1.9,1.2l-2.4,1.2c-1.1,0.5-1.5,0.6-1.8,0.7c-0.3,0.1-0.8,0.1-1.1,0.1
		c-0.1,0-0.2,0-0.4-0.1c0,0-0.1-0.1,0-0.2c0.1-0.1,0.2-0.2,0.2-0.2c0.4-0.3,0.9-0.7,1.3-1c1.2-0.8,2.4-1.7,3.5-2.6
		c2.3-1.9,4.4-3.9,6.3-6c0.4-0.5,0.4-0.5,0.8-1c0.5-0.6,1.2-1.5,1.2-1.5c0.5-0.6-0.1-1-0.6-1c-0.1,0-2.1,0.6-3.1,1
		c-1.2,0.5-2.2,1.4-3.6,2.4c-0.4,0.3-1.5,0.9-1.9,1.1c-1.5,0.6-2.6-0.2-1.9-0.8c0,0,1.8-1.6,2.5-2.2c1-0.8,3.8-3.7,6.4-5.6
		c0.9-0.6,1.2-0.7,2.1-0.8c4.6-0.6,8.3-1.9,10.3-3.2c0.5-0.3,1-0.6,1.4-1c0.2-0.2,0.4-0.4,0.6-0.6c0.1-0.1,0.3-0.1,0.5-0.1
		c0.2,0,0.4,0.1,0.5,0.2c1.3,0.6,2.4,1.5,3.2,2.7c0.6,0.8,1.1,1.8,1.4,2.7c0.1,0.1,0.1,0.3,0.2,0.4c0.2,0.6,0.2,0.6-0.3,1
		c-2,1.5-3.7,3.3-5,5.4c-0.6,1-1.2,2.1-1.8,3l-2.6,4.2l-0.7,1.1c-0.6,1-1.4,1.9-2.4,2.3c-0.7,0.3-1.1,0.6-1.9,0.9
		c-0.4,0.2-1,0.3-1.5,0.5c-0.2,0.1-1.3,0.3-1.4,0c-0.1-0.1,0.2-0.2,0.3-0.3c0.8-0.4,1.8-1.1,2.6-1.4c0.7-0.3,0.9-0.5,1.3-0.8
		C149.3,191.7,149.5,191.4,149.3,191.2z M125.8,191.1l-3.3-19.3l25.6-4.5c0.1,0,0.2,0.1,0.2,0.2l1,4.7c-0.4,0.1-0.7,0.2-1,0.2
		c-1,0.2-4.4,0.7-4.9,0.8c-1,0.2-1.4,0.6-1.8,0.8c-1.3,0.8-3.8,3.1-5,4c-0.4,0.3-1.1,1.2-1.5,1.5c-1.2,1.1-3.2,2.9-3.4,3.2
		c-0.6,0.9-0.2,1.8,0.5,2.5s2.1,0.6,2.2,0.6c0.5-0.1,1-0.1,1.5-0.4c0.7-0.3,3.9-2.4,4.7-3l0.4-0.3c0.2-0.1,0.3,0,0.1,0.1
		c-0.1,0.1-0.3,0.3-0.3,0.3l-0.3,0.3c-1,1-2,2-3,2.9c-1.6,1.5-3.4,2.9-5.2,4.2c-0.6,0.5-1.2,0.9-1.8,1.3l-4.9,0.9
		C125.8,192.1,125.9,191.6,125.8,191.1z M123.7,192.4c-0.2,0.3-0.5,0.5-0.8,0.5l-0.2,0c-0.7,0.1-1.4-0.4-1.5-1.1l-3.1-17.8
		c0.2,0.1,0.5,0.2,0.7,0.2c0.2,0,0.3,0,0.5,0c0.6-0.1,1.1-0.3,1.5-0.7l3.1,17.8C124,191.7,123.9,192.1,123.7,192.4z M131.1,145.1
		c0.9,0.4,2.1,0.6,3.2,0c0.6-0.2,0.9-0.7,0.9-1.3c0-0.3-0.1-0.5-0.4-0.7l-0.6-0.2c-0.2-0.1-0.3-0.4-0.3-0.7c0-0.1,0.1-0.4,0.2-0.6
		c0.4-1,1-1.8,1.9-2.5l0,0l1.9,2.2c0.1,0.3,0.2,0.5,0.2,0.8c0.1,0.4,0,0.6-0.3,0.8c0,0-0.1,0-0.1,0.1c-0.1,0-0.4,0.1-0.4,0.2
		c-0.4,0.2-0.5,0.5-0.3,0.9c0.1,0.4,0.4,0.7,0.8,1c1.1,0.6,2.4,0.5,3.3,0c0.1-0.1,0.3-0.2,0.4-0.3c0.3-0.3,0.4-0.5,0.4-0.9
		c0-0.1,0-0.2,0-0.4c0-0.1,0-0.1,0-0.2c0-0.3,0.1-0.5,0.2-0.7c0.1-0.4,0.4-0.7,0.8-0.9c0.5-0.2,1-0.3,1.7-0.2c0.1,0,0.1,0,0.1,0
		l-0.1,0.1c-0.4,0.2-0.7,0.5-0.9,0.9c-0.1,0.1-0.1,0.2-0.2,0.3c0,0.1-0.1,0.2-0.1,0.3c-0.3,0.6-0.4,1.3-0.5,2c0,0.4-0.1,0.9-0.1,1.4
		l-0.3,0c-1.6-0.1-2.8-0.1-4.2-0.2c-0.8,0-1.7-0.1-2.5-0.1h-0.1l-3.9,0.2c0,0-1.8,0-2,0.1c-0.2,0-0.2-0.1-0.3-0.2
		c0-0.3,0-0.5-0.1-0.8c-0.1-0.5-0.2-1-0.3-1.5l-0.1-0.2c-0.1-0.3-0.2-0.6-0.3-0.9c-0.2-0.6-0.6-1-1.1-1.3c0.5-0.1,1.1,0,1.5,0.2
		c0.6,0.3,1.2,0.8,1.2,1.4c0,0.5-0.1,0.5-0.1,0.8C130.2,144.5,130.8,145,131.1,145.1z M142.8,148.5c0,0.4,0,0.4-0.4,0.4
		c-0.4,0-1.6-0.1-2.2-0.2c-3-0.2-4.5-0.2-6.4-0.1c-2.3,0.1-3.7,0.3-3.7,0.3h-0.4c-0.1,0-0.2-0.3-0.2-0.5c0-0.2,0-0.4,0-0.6
		c0-0.1,0.1-0.1,0.2-0.1s2.2-0.1,2.2-0.1c0.3,0,0.6,0,1-0.1c0.7-0.1,0.9-0.1,2.3-0.1c2.1,0,4.1,0,5.1,0.1c1.1,0.1,2.3,0.2,2.3,0.2
		c0.2,0,0.2,0.1,0.2,0.1C142.8,147.8,142.8,148.3,142.8,148.5z M136.1,150.3c9.7,0,12.7,2.6,15.2,4.6c0.5,0.4,0.9,0.8,1.3,1.1
		c0.2,0.2,0.4,0.3,0.9,0.1c4.1-1.4,9.3-0.3,11.9,2.1c-10.7,0-47.4,0-58.6,0c2.8-2.4,7.9-3.5,12.1-2.1c0.4,0.1,0.6,0.1,0.9-0.1
		c0.4-0.4,0.8-0.8,1.3-1.1C123.5,152.9,126.4,150.3,136.1,150.3z M140.7,106.8c0-0.7,0.1-1.3,0.3-1.8c0-0.1,0.1-0.1,0.1-0.2
		c0-0.1,0.1-0.1,0.1-0.2l0-0.1c0.1-0.1,0.2-0.3,0.2-0.3h32c0.5,0,0.9,0.4,0.9,0.9v52.7c0,0.4-0.1,0.4-0.6,0.4h-5.3c0,0-0.1,0-0.3,0
		c-3.2-3.7-9-5.6-14.4-4c-0.2,0.1-0.3,0-0.5-0.1c-0.2-0.2-0.4-0.4-0.7-0.6c-2-1.6-4.1-3.2-8.2-4.2c0-0.1,0-0.3,0-0.3v-3.2
		c0-0.7,0.1-1.4,0.3-2c0.1-0.2,0.1-0.5,0.3-0.7c0,0,0.1-0.1,0.1-0.1c0,0,0-0.1,0.1-0.1c0.1-0.1,0.2-0.1,0.3-0.1l0.3,0.2
		c0.2,0.1,0.3,0.2,0.4,0.2c0.1,0.1,0.3,0.1,0.4,0.1c0.4,0,0.7-0.3,0.7-0.7c0-0.3,0-0.6-0.1-1c-0.2-0.8-0.8-1.4-1.5-1.7
		c-0.9-0.4-1.9-0.4-2.9-0.1c-0.8,0.2-1.6,0.8-2,1.6c-0.1,0.1,0,0.2-0.1,0.2v-7.2c0.1,0,7,0,7,0c1.2,0,2.1,0.5,2.8,1
		c0.2,0.2,0.4,0.3,0.7,0.4c0.1,0.1,0.4,0.3,0.6,0.3c0.1,0,0.2-0.1,0.2-0.1c0.1-0.1,0.1-0.2,0.1-0.3V135c0.1-3.1,0-8.4,0-10.5l0-0.1
		c-0.1-0.2-0.2-0.2-0.3-0.2c-0.1,0-0.2-0.1-0.4,0.1c0,0-0.7,0.6-0.8,0.6c-0.8,0.5-1.6,0.8-2.6,0.8c-0.5,0.1-1.1,0.1-1.6,0.1h-4.4
		c-0.2,0-0.9,0-1.1,0c-0.2,0-0.2-0.3-0.2-0.5V121c0-0.2,0.1-0.3,0.3-0.3s3.7,0,3.7,0c0.9,0,1.9,0.3,2.7,0.7c0.3,0.2,0.5,0.3,0.9,0.5
		l0.2,0.1l0.1,0.1c0.2,0.1,0.4-0.1,0.4-0.3c0.1-0.2,0-0.5,0-0.6l0-9.7v-0.5c0-0.3-0.2-0.3-0.4-0.3c-0.1,0-0.3,0.1-0.3,0.1
		c-0.3,0.1-0.6,0.3-0.9,0.4c-0.7,0.5-1.6,0.6-2.4,0.7c-0.8,0.1-1.7,0.1-2.5,0.1c0,0-1.3,0-1.6,0s-0.2-0.1-0.2-0.3L140.7,106.8
		L140.7,106.8z M133,104.5c0,0-0.1-0.1-0.1-0.3l6.3,0c0,0.1-0.1,0.3-0.1,0.4c-0.2,0.8-0.3,1.7-0.3,3c0,0,0,5.4,0,5.6s0,0.3,0.1,0.4
		c0.1,0.1,0.3,0.1,0.7,0.1h4.4c0.5,0.1,1.1,0,1.7-0.1c0.3-0.1,0.6-0.1,0.9-0.2c0.1,0,0.1,0,0.2,0c0,0,0.1,0,0.1,0h0v6
		c-0.1,0-0.1,0-0.1,0c-0.1,0-0.1,0-0.2-0.1c-0.7-0.2-1.5-0.3-2.3-0.3h-4.9l-0.1,0c-0.6,0.1-0.6,0.2-0.6,0.8v7.2
		c0,0.2,0.2,0.4,0.4,0.4h4.6l3.8-0.1c0.7,0.1,1.5,0,2.3-0.3c0.1,0,0.2-0.1,0.3-0.1c0.1,0,0.2,0,0.1,0.1c0,0.1,0,0.2,0,0.3v5.5
		c0,0.1-0.1,0.1-0.1,0.1c0,0-0.1,0-0.1-0.1l-0.1,0c-0.7-0.2-1.5-0.3-2.3-0.3h-7.8c-0.1,0-0.3,0-0.4,0c-0.4,0-0.6,0.2-0.6,0.4
		c0,0.2,0,0.4,0,0.6v6.4c0,0-0.1-0.4-0.2-0.7c-0.2-0.4-1.1-1.2-1.7-1.6c-0.4-0.4-1.1-0.3-1.4,0c-0.6,0.4-1.1,0.8-1.6,1.5
		c-0.1,0.1-0.4,0.6-0.4,0.9v-7.1c0-0.2-0.2-0.4-0.4-0.4h-7.9c-0.5,0-0.9,0-1.4,0.1c-0.5,0-1,0.1-1.6,0.3c-0.1,0-0.2,0.1-0.2-0.1
		v-5.9c0.1,0,0.1,0,0.1,0c0.1,0,0.1,0,0.2,0.1c0.3,0.1,0.7,0.2,0.9,0.2l0.1,0c0.3,0.1,0.6,0.1,1,0.1h8c0.1,0,0.2,0,0.4,0
		c0.1,0,0.2,0,0.3,0c0.2,0,0.4-0.2,0.4-0.4v-7.5c0-0.1-0.1-0.3-0.3-0.3c-0.1-0.1-0.2-0.1-0.3-0.1h-4.9c-1,0-2,0.2-2.7,0.4l-0.2,0.1
		h0v-6l0.3,0.1c0.7,0.2,1.5,0.3,2.2,0.3h4.9c0.2,0,0.5,0,0.8-0.1c0.1-0.1,0.3-0.2,0.3-0.4v-5.8C133.4,106.5,133.3,105.5,133,104.5z
		 M97.8,105.1c0-0.5,0.4-0.9,0.9-0.9h31.9c0,0,0.1,0.1,0.2,0.2c0,0.1,0.1,0.2,0.1,0.2c0.2,0.6,0.4,1.2,0.4,1.7
		c0.1,0.5,0.1,1,0.1,1.5v3.9c0,0.3,0,0.4-0.2,0.4h-3.2c-0.5,0-0.9-0.1-1.4-0.2c-0.7-0.2-1.3-0.4-1.9-0.8c-0.1-0.1-0.3-0.2-0.4-0.2
		c-0.1-0.1-0.2-0.2-0.4-0.2c-0.1-0.1-0.2-0.1-0.3-0.1c-0.2,0-0.3,0.1-0.3,0.2c-0.1,0.1-0.1,0.2-0.1,0.3c0,0,0,10.5,0,10.6
		c0,0.1,0,0.1,0,0.1c0.1,0.3,0.4,0.2,0.5,0.2c0,0,0.2-0.1,0.2-0.1l0.9-0.5c0.8-0.4,1.7-0.6,2.5-0.6h3.9c0.1,0,0.2,0,0.2,0.1
		c0.1,1.3,0,4,0,4.7c0,0.1-0.1,0.2-0.2,0.2h-7.1c-0.8,0-1.8-0.3-2.5-0.7c0,0-1.1-0.6-1.1-0.7c-0.1,0-0.1,0-0.2,0
		c-0.3,0-0.4,0.2-0.4,0.4v10.7c0,0.2,0.2,0.3,0.4,0.3c0.1,0,0.2,0,0.3-0.1c0.3-0.2,0.7-0.3,1-0.5c0.9-0.5,1.7-0.7,2.6-0.7h6.7l0.5,0
		v7.6c0,0,0,0,0,0c0-0.1-0.1-0.1-0.1-0.2c-0.4-1-1.4-1.8-2.6-1.9c-0.7-0.1-1.5-0.1-2.2,0.2c-0.8,0.2-1.6,0.9-1.8,1.8
		c-0.2,0.4-0.1,0.9-0.1,1.1l0.1,0.2c0.1,0.2,0.2,0.3,0.4,0.4c0.2,0.1,0.4,0.1,0.6,0c0.1,0,0.1-0.1,0.2-0.1s0.1-0.1,0.2-0.1
		c0.1,0,0.2-0.1,0.3-0.1c0.1,0,0.1-0.1,0.2-0.1c0.2,0,0.2,0,0.3,0.1c0.1,0.1,0.2,0.3,0.3,0.5c0.1,0.3,0.3,0.8,0.4,1.2
		c0.1,0.3,0.1,0.6,0.1,1c0,0,0,3.5,0,3.6v0.1c-4.1,1-6,2.7-7.8,4.1c-0.2,0.1-0.3,0.3-0.5,0.4c-0.2,0.2-0.6,0.3-0.8,0.2
		c-5.3-1.4-11.2,0.4-14.4,4.1h-5.4c-0.9,0-0.9-0.2-0.9-0.9C97.8,157.3,97.8,105.1,97.8,105.1z M97.8,160.9c0-0.5,0.1-0.6,0.5-0.6
		l63.4,0l0,0h2.9c-2.6,2.6-6.8,6.7-7.6,7.4c-1.5,1.3-3,2.5-4.5,3.4c-0.4,0.2-0.8,0.4-1.2,0.6l-0.9-4.1c-0.2-1.2-1.4-2.1-2.7-1.9
		l-26.4,4.6v0c-0.5,0.1-0.9,0.5-0.9,1c0,1.1-0.8,1.4-1.3,1.5c-0.2,0-1,0.2-1.4-0.9c-0.2-0.6-0.6-0.9-1.2-0.7c-0.5,0.1-0.8,0.6-0.7,1
		c0,0,0,0,0,0c0,0,0,0.1,0,0.1c0,0,0,0.1,0,0.1l3.4,19.7c0.3,1.6,1.6,2.9,3.2,2.9c0.2,0,0.4,0,0.6-0.1l0.2,0c0.1,0,0.3-0.1,0.3-0.1
		l5.7-1c0,0.5,0.3,0.8,0.4,0.8c0.5,0.4,1.1,0.7,1.8,0.7c0.5,0,1,0,1.4-0.2l0.4-0.2c0.3-0.1,0.6-0.1,0.9,0l0.2,0.1
		c0.7,0.2,1.3,0.4,2,0.4l0.8-0.1c0.3,0,0.6,0,0.8,0.2c0.7,0.3,1.4,0.5,2.1,0.4c0.5,0,1.1,0,1.6-0.1s1.1-0.2,1.6-0.1
		c1.2,0.1,2.7,0.3,3.9,0c0.6-0.1,1.1-0.3,1.7-0.4l1.7-0.6c0.3-0.1,0.5-0.2,0.8-0.4c0.9-0.6,1.8-1.6,2.4-2.5l0.3-0.5
		c1.6-2.6,3-5.2,4.6-7.8c0.7-1.1,1.5-2.1,2.4-3c0.9-0.9,1.9-1.8,3-2.4l9.7-6.9c0.1-0.1,0.3-0.2,0.5-0.3v1.9v3.2v12.5
		c0,12-9.6,20.9-16.1,23.9c-10.2,4.8-13.7,6.4-21.4,9.7l-0.3,0.1c-0.2,0.1-0.5,0.1-0.7,0l-2.2-1c-6.4-2.8-10.2-4.5-19.6-8.9
		c-6.5-3.1-16.1-12-16.1-23.9L97.8,160.9L97.8,160.9z"/>
</g>
<g>
	<path class="st0" d="M805.7,112.4l0.1,0.2c0.8-0.2,3-0.2,3.9-0.2h20.3c0-0.5,1.7-3.8,2-4.4l-0.3-0.3c-3.5,2.6-9.2,3.4-15.3,3.4
		c-1.5,0-3,0-4.5-0.1c-0.2-3.6-0.1-8.2-0.1-16.9v-0.1c12.3,0,12.8,0.4,13.6,2.4l0.3-0.2c-0.2-1.1-0.3-1.7-0.3-2.9c0-1.1,0-1.9,0.3-3
		l-0.3-0.1c-0.6,2-1.3,2.2-13.6,2.4c0-7.8,0-11.4,0.1-15.9c1.5-0.2,3-0.1,4.4-0.1c5.6,0,10,0.8,12.8,3.5l0.3-0.3
		c-0.3-0.8-1.3-3.7-1.3-4.4h-18.4c-0.8,0-3.1,0-3.9-0.3l-0.1,0.3c1.1,0.4,1.7,1.2,1.7,2.3c0.2,3.6,0.1,7.3,0.1,16
		c0,8.8,0.1,12.3-0.1,16C807.3,110.9,806.8,111.8,805.7,112.4z"/>
	<path class="st0" d="M860.2,66.7c0,1.3,1,2.2,2.2,2.2c1.3,0,2.2-0.9,2.2-2.2c0-1.2-0.9-2.2-2.2-2.2
		C861.2,64.5,860.2,65.6,860.2,66.7z"/>
	<path class="st0" d="M878.3,94c0-11.9-9.2-19.5-19.9-19.5c-10.7,0-19.9,7.6-19.9,19.5s9.2,19.5,19.9,19.5
		C869.1,113.5,878.3,105.9,878.3,94z M858.4,111.8c-8.2,0-15.3-6.8-15.3-17.8c0-11,7-17.8,15.3-17.8c8.2,0,15.2,6.8,15.2,17.8
		C873.6,105,866.6,111.8,858.4,111.8z"/>
	<path class="st0" d="M852.2,66.7c0,1.3,0.9,2.2,2.2,2.2c1.3,0,2.2-0.9,2.2-2.2c0-1.2-0.9-2.2-2.2-2.2
		C853,64.5,852.2,65.6,852.2,66.7z"/>
	<path class="st0" d="M881.2,80l0.3,0.2c3.8-2.6,8.3-3.4,13.6-3.3v17c0,8.8,0.1,12.3-0.1,16c-0.1,1.1-0.6,1.8-1.8,2.4l0.1,0.2
		c0.8-0.2,3-0.2,3.9-0.2s3.1,0.1,3.9,0.2l0.1-0.2c-1.2-0.6-1.7-1.3-1.8-2.4c-0.2-3.6-0.1-7.2-0.1-16v-17c5.3-0.1,9.7,0.6,13.5,3.3
		L913,80c-0.3-0.7-1.3-3.9-1.3-4.4h-29.2C882.5,76,881.5,79.3,881.2,80z"/>
	<path class="st0" d="M948.9,75.6c-1.2,0-2.3-0.1-3.2-0.3l0,0.3c1.4,0.6,1.9,1.3,1.5,2.3c-1.5,3.6-2.8,7-6.8,15.5
		c-3.3,7-4.4,9.9-6.1,13.6c-1.8-3.7-2.4-5.3-6.2-13.6c-3.8-8.5-5.6-11.9-7.1-15.5c-0.4-0.9,0.1-1.7,1.5-2.3l-0.1-0.3
		c-0.8,0.3-3.8,0.3-4.8,0.3c-1.1,0-3.3-0.1-4.3-0.3l-0.1,0.3c1,0.3,2.5,1.7,3.3,3.3c1.8,3.6,3,6.1,7,14.6c4,8.6,7.3,15.8,8.8,19.3
		h0.8c1.5-3.6,4.8-10.8,8.8-19.3c4-8.5,5.5-11.4,7.3-15c0.8-1.6,1.8-2.6,3-2.9l-0.1-0.3C951.1,75.5,950,75.6,948.9,75.6z"/>
	<path class="st0" d="M980.9,66.7c0-1.2-0.9-2.2-2.2-2.2c-1.2,0-2.2,1-2.2,2.2c0,1.3,1,2.2,2.2,2.2C980,68.9,980.9,68,980.9,66.7z"
		/>
	<path class="st0" d="M972.9,66.7c0-1.2-0.9-2.2-2.2-2.2s-2.2,1-2.2,2.2c0,1.3,0.9,2.2,2.2,2.2C971.9,68.9,972.9,68,972.9,66.7z"/>
	<path class="st0" d="M954.8,94c0,11.9,9.2,19.5,19.9,19.5c10.7,0,19.9-7.6,19.9-19.5s-9.2-19.5-19.9-19.5
		C964,74.5,954.8,82.1,954.8,94z M974.8,76.2c8.2,0,15.2,6.8,15.2,17.8c0,11-7,17.8-15.2,17.8c-8.2,0-15.3-6.8-15.3-17.8
		S966.5,76.2,974.8,76.2z"/>
	<path class="st0" d="M1026.8,102.6c0-7.3-5.6-9.9-10.9-11.9c-4.5-2-8.6-3.5-8.6-8.1c0-4,3.2-6.4,7.4-6.4c3.9,0,7.4,1.5,9.7,6.2
		l0.2-0.3l-0.5-4.7c-2-1.8-4.9-2.9-9.1-2.9c-6.2,0-11.2,3.5-11.2,10.1c0,5.7,5,7.8,10,10c4.7,2.1,9.2,4.1,9.2,9.3c0,4.7-3.5,8-8.5,8
		c-4.1,0-8.5-2.5-11.1-7.7l-0.4,0.2l0.9,5.4c2.2,2.1,6.5,3.7,10.5,3.7C1020.9,113.5,1026.8,109.3,1026.8,102.6z"/>
	<path class="st0" d="M1077.3,108l-0.3-0.3c-3.8,2.9-9.2,3.4-15.5,3.4c-1.1,0-2.2,0-3.3-0.1c-0.2-3.6-0.1-8.3-0.1-17
		c0-8.7-0.1-12.4,0.1-16c0.1-1.2,0.6-2,1.7-2.3l-0.1-0.3c-0.7,0.3-3,0.3-3.9,0.3s-3.1,0-3.9-0.3l-0.1,0.3c1.1,0.4,1.7,1.2,1.7,2.3
		c0.2,3.6,0.1,7.3,0.1,16c0,8.8,0.1,12.3-0.1,16c-0.1,0.9-0.6,1.8-1.7,2.4l0.1,0.2c0.8-0.2,3-0.2,3.9-0.2h19.4
		C1075.4,111.8,1077.1,108.6,1077.3,108z"/>
	<path class="st0" d="M1078.6,94c0,11.9,9.2,19.5,19.9,19.5c10.7,0,19.9-7.6,19.9-19.5s-9.2-19.5-19.9-19.5
		C1087.8,74.5,1078.6,82.1,1078.6,94z M1113.7,94c0,11-7,17.8-15.2,17.8c-8.2,0-15.3-6.8-15.3-17.8c0-11,7-17.8,15.3-17.8
		C1106.7,76.2,1113.7,82.9,1113.7,94z"/>
	<path class="st0" d="M1154.3,111.7c-0.3,0.1-0.5,0.1-0.6,0.1c-2.3,0-4.4-3.8-6.5-7.7c-2.3-4-4.8-8.4-8.1-9.3
		c6-0.9,11.1-4,11.1-10.1c0-5.1-4.4-9.3-14.4-9.3c-0.9,0-5.9,0.1-7.8,0.2v0.2c1.1,0.1,1.6,0.7,1.7,2.1c0.2,3.6,0.1,7.3,0.1,16
		c0,8.8,0.1,12.3-0.1,16c-0.1,1.1-0.6,1.8-1.8,2.4l0.1,0.2c0.8-0.2,3.1-0.2,3.9-0.2c0.9,0,3.1,0.1,3.9,0.2l0.1-0.2
		c-1.1-0.5-1.6-1.3-1.7-2.4c-0.2-3.5-0.2-7.1-0.2-14.8c0.6-0.1,1-0.1,1.6-0.1c0.5,0,1,0,1.5,0.1c2.7,0.7,3.9,4.2,5.4,7.8
		c1.8,4.8,3.8,9.9,8.5,9.9c1.3,0,2.5-0.1,3.5-0.9L1154.3,111.7z M1135.7,93.5c-0.6,0-1.1,0-1.7-0.1c0-7.4,0-13.2,0.2-16.6
		c7.2,0,11.5,1.8,11.5,7.8C1145.6,90.7,1141.7,93.5,1135.7,93.5z"/>
	<path class="st0" d="M1160.8,112.4c-1.4-0.6-1.9-1.5-1.5-2.4c1.1-2.6,2.1-5,4-9.2h18c2.1,4.3,3.2,6.7,4.2,9.2
		c0.4,0.9-0.1,1.8-1.4,2.4l0.1,0.2c0.9-0.2,3.7-0.2,4.8-0.2c1.2,0,3.3,0.1,4.4,0.2l0.1-0.2c-1.1-0.4-2.4-1.7-3.3-3.3
		c-1.9-3.6-3.1-6.1-7.1-14.6c-4-8.6-7.4-15.8-8.8-19.3h-0.8c-1.6,3.6-4.8,10.8-8.8,19.3c-4,8.5-5.4,11.4-7.3,15
		c-0.8,1.7-1.8,2.5-3,2.9l0.1,0.2c1.1-0.2,2.2-0.2,3.2-0.2c1.1,0,2.3,0.1,3.2,0.2L1160.8,112.4z M1166.1,94.5
		c3.3-7.1,4.4-9.9,6.1-13.6c1.8,3.7,2.4,5.3,6.2,13.6c0.8,1.7,1.6,3.3,2.2,4.7h-16.7C1164.5,97.8,1165.2,96.3,1166.1,94.5z"/>
	<path class="st0" d="M1180.8,67.1l-1.2-3c-2.5,2-6.1,4-9,5.2l0.2,0.4C1173.3,69.2,1178.2,68.1,1180.8,67.1z"/>
	<path class="st0" d="M1231,77.9c0.2-1.3,0.6-1.9,1.7-2.3l-0.1-0.3c-0.8,0.2-1.9,0.3-2.8,0.3c-0.9,0-2-0.1-2.8-0.3l-0.1,0.3
		c1.2,0.4,1.6,1.1,1.7,2.3c0.3,3.6,0.4,7.3,0.4,16c0,6.8,0.1,9.2,0.2,12.3c-5.2-5.8-10.2-11.4-12.6-14.2c-2.4-2.7-7.9-9-14.3-16.5
		h-0.9c-1.7,0-3.7-0.1-5-0.3l-0.1,0.3c1.3,0.5,1.9,1.4,2,2.7c0.2,3.6,0.1,7,0.1,15.7c0,8.8-0.1,12.3-0.3,16
		c-0.1,1.1-0.6,1.9-1.7,2.4l0.1,0.2c0.8-0.2,1.9-0.2,2.8-0.2c0.8,0,2.1,0.1,2.8,0.2l0.1-0.2c-1.2-0.6-1.7-1.3-1.7-2.4
		c-0.3-3.6-0.4-7.2-0.4-16c0-8.5-0.1-11-0.1-14.7c7.3,8.5,12.2,14,13.9,16l15.8,18.2h1c-0.2-3.6-0.1-10.7-0.1-19.5
		C1230.7,85.3,1230.8,81.5,1231,77.9z"/>
	<path class="st0" d="M1243.6,112.1v0.2c1.7,0.2,6.2,0.2,9,0.2c15.7,0,22.2-8.9,22.2-19.1c0-12.8-8.9-18.1-22.4-18.1
		c-0.9,0-7.1,0.1-8.8,0.2v0.2c0.9,0.1,1.6,0.6,1.7,2.1c0.2,3.6,0.1,7.3,0.1,16c0,8.8,0.1,12.3-0.1,16
		C1245.2,111.5,1244.5,112,1243.6,112.1z M1249.8,76.7c0.7-0.1,1.5-0.1,2.2-0.1c13.5,0,18.2,7.6,18.2,16.8
		c0,11.4-5.6,17.7-17.8,17.8c-0.8,0-1.7,0-2.6-0.1c-0.2-3.6-0.1-8.1-0.1-16.8v-1.5C1249.7,85.5,1249.6,80.1,1249.8,76.7z"/>
	<path class="st0" d="M850,151c-1.2,0-2.5-0.1-3.8-0.4l-0.1,0.4c1.7,0.6,2.5,1.7,2.6,3.5c0.1,5.4,0.2,14.3,0.2,29.5
		c0,12.7-7,19.6-17.5,19.6c-11.4,0-17.8-6.1-17.8-18.8c0-12.8-0.1-25,0.2-30.3c0.1-1.7,0.9-2.9,2.5-3.5l-0.1-0.4
		c-1.1,0.4-4.5,0.4-5.7,0.4c-1.2,0-4.6,0-5.8-0.4l-0.1,0.4c1.6,0.6,2.5,1.7,2.5,3.5c0.2,5.3,0.2,17.5,0.2,30.3
		c0,16.1,10.4,22.2,23,22.2c11.4,0,20.7-7.6,20.7-23c0-12.8,0-24.2,0.2-29.5c0.1-1.7,0.9-2.9,2.5-3.5l-0.1-0.4
		C852.7,150.9,851.3,151,850,151z"/>
	<path class="st0" d="M917.7,151c-1.3,0-2.9-0.1-4.2-0.4l-0.1,0.4c1.7,0.7,2.3,1.6,2.5,3.5c0.4,5.3,0.7,10.9,0.7,23.7
		c0,10.1,0.1,13.6,0.3,18.2c-7.6-8.5-15-16.9-18.5-20.9c-3.5-4-11.6-13.3-21.1-24.4H876c-2.5,0-5.4-0.1-7.4-0.4l-0.1,0.4
		c1.9,0.8,2.9,2.1,2.9,4c0.2,5.3,0.2,10.4,0.2,23.2c0,13-0.1,18.2-0.5,23.6c-0.1,1.6-0.9,2.8-2.5,3.6l0.1,0.3
		c1.2-0.2,2.8-0.3,4.1-0.3c1.2,0,3,0.1,4.1,0.3l0.1-0.3c-1.7-0.9-2.5-1.9-2.5-3.6c-0.4-5.4-0.7-10.7-0.7-23.6
		c0-12.5-0.2-16.2-0.2-21.7c10.8,12.5,18.1,20.7,20.6,23.6l23.3,26.9h1.5c-0.2-5.4-0.2-15.8-0.2-28.8c0-12.8,0.2-18.4,0.6-23.7
		c0.2-1.9,0.8-2.8,2.5-3.5l-0.1-0.4C920.6,150.9,918.9,151,917.7,151z"/>
	<path class="st0" d="M948.2,151l-0.1-0.4c-1.1,0.4-4.5,0.4-5.7,0.4c-1.2,0-4.6,0-5.8-0.4l-0.1,0.4c1.6,0.6,2.5,1.7,2.5,3.5
		c0.2,5.3,0.2,10.9,0.2,23.7c0,13,0,18.2-0.2,23.6c-0.1,1.6-0.9,2.8-2.5,3.6l0.1,0.3c1.3-0.2,4.5-0.3,5.8-0.3c1.3,0,4.6,0.1,5.7,0.3
		l0.1-0.3c-1.1-0.6-2.5-1.2-2.5-3.6c-0.2-5.4-0.2-10.6-0.2-23.6c0-12.8-0.1-18.4,0.2-23.7C945.8,152.7,946.6,151.5,948.2,151z"/>
	<path class="st0" d="M1005.9,151c-1.7,0-3.4-0.1-4.7-0.4l-0.1,0.4c2.1,0.8,2.9,2,2.2,3.5c-2.2,5.3-4.1,10.4-10,22.9
		c-4.8,10.4-6.5,14.6-9.1,20.1c-2.6-5.5-3.5-7.8-9.2-20.1c-5.6-12.6-8.3-17.6-10.5-22.9c-0.7-1.4,0.1-2.6,2.2-3.5l-0.1-0.4
		c-1.2,0.4-5.6,0.4-7,0.4c-1.6,0-4.8-0.1-6.4-0.4l-0.2,0.4c1.5,0.4,3.7,2.5,4.9,4.9c2.6,5.4,4.4,9,10.3,21.5
		c6,12.7,10.8,23.3,13.1,28.6h1.1c2.2-5.3,7-15.9,13-28.6c5.9-12.5,8.2-16.8,10.8-22.2c1.2-2.4,2.7-3.8,4.4-4.2l-0.1-0.4
		C1009.1,150.9,1007.5,151,1005.9,151z"/>
	<path class="st0" d="M1031.4,203.4c-2.2,0-4.4,0-6.6-0.1c-0.2-5.3-0.2-12.2-0.2-24.9v-0.1c18.1,0,19,0.7,20.1,3.6l0.4-0.2
		c-0.3-1.6-0.4-2.6-0.4-4.3c0-1.7,0.1-2.8,0.4-4.4l-0.4-0.1c-0.9,2.9-1.9,3.3-20.1,3.6c0-11.6-0.1-16.9,0.2-23.5
		c2.3-0.2,4.5-0.2,6.5-0.2c8.2,0,14.7,1.2,18.9,5.1l0.4-0.4c-0.5-1.2-2-5.5-2-6.5h-27.2c-1.2,0-4.6,0-5.7-0.4l-0.1,0.4
		c1.6,0.6,2.5,1.7,2.5,3.5c0.2,5.3,0.2,10.9,0.2,23.7c0,13,0.1,18.2-0.2,23.6c-0.1,1.4-0.9,2.6-2.5,3.6l0.1,0.3
		c1.2-0.2,4.4-0.3,5.7-0.3h30c0-0.8,2.5-5.6,2.9-6.5l-0.4-0.4C1048.8,202.3,1040.4,203.4,1031.4,203.4z"/>
	<path class="st0" d="M1102,204.4c-3.3,0-6.5-5.6-9.6-11.4c-3.4-5.9-7.1-12.4-12-13.7c8.9-1.3,16.3-6,16.3-14.9
		c0-7.4-6.5-13.7-21.3-13.7c-1.3,0-8.7,0.1-11.4,0.3v0.3c1.6,0.1,2.4,1.1,2.4,3.1c0.2,5.3,0.2,10.9,0.2,23.7c0,13,0.1,18.2-0.2,23.6
		c-0.1,1.6-0.9,2.7-2.6,3.6l0.2,0.3c1.2-0.2,4.6-0.3,5.8-0.3c1.3,0,4.6,0.1,5.7,0.3l0.1-0.3c-1.6-0.8-2.4-2-2.4-3.6
		c-0.2-5.1-0.2-10.5-0.2-21.9c0.9-0.1,1.5-0.1,2.4-0.1c0.7,0,1.5,0,2.2,0.1c3.9,1.1,5.7,6.2,7.9,11.6c2.6,7,5.6,14.6,12.5,14.6
		c1.9,0,3.7-0.1,5.2-1.3l-0.2-0.4C1102.5,204.4,1102.2,204.4,1102,204.4z M1075.4,177.4c-0.9,0-1.6,0-2.5-0.1
		c0-10.9,0-19.5,0.2-24.5c10.7,0,16.9,2.7,16.9,11.6C1090,173.3,1084.3,177.4,1075.4,177.4z"/>
	<path class="st0" d="M1130.6,173.2c-6.6-2.9-12.8-5.2-12.8-11.9c0-6,4.7-9.5,10.9-9.5c5.8,0,10.9,2.2,14.3,9.1l0.3-0.4l-0.7-6.9
		c-2.9-2.7-7.2-4.3-13.4-4.3c-9.2,0-16.6,5.1-16.6,14.9c0,8.4,7.4,11.6,14.7,14.7c6.9,3.1,13.7,6,13.7,13.7c0,7-5.2,11.8-12.6,11.8
		c-6.1,0-12.5-3.7-16.4-11.4l-0.7,0.3l1.4,8c3.3,3.1,9.6,5.5,15.4,5.5c9.8,0,18.6-6.1,18.6-16.1
		C1146.7,180,1138.3,176.3,1130.6,173.2z"/>
	<path class="st0" d="M1171.7,151l-0.1-0.4c-1.1,0.4-4.5,0.4-5.7,0.4c-1.2,0-4.6,0-5.8-0.4l-0.1,0.4c1.6,0.6,2.4,1.7,2.5,3.5
		c0.2,5.3,0.2,10.9,0.2,23.7c0,13,0,18.2-0.2,23.6c-0.1,1.6-0.9,2.8-2.5,3.6l0.1,0.3c1.3-0.2,4.5-0.3,5.8-0.3s4.6,0.1,5.7,0.3
		l0.1-0.3c-1.1-0.6-2.4-1.2-2.5-3.6c-0.2-5.4-0.2-10.6-0.2-23.6c0-12.8-0.1-18.4,0.2-23.7C1169.2,152.7,1170,151.5,1171.7,151z"/>
	<path class="st0" d="M1182.1,151c0,0.7-1.6,5.5-2,6.5l0.4,0.3c5.6-3.9,12.3-5,20-4.9v25.2c0,13,0.1,18.2-0.2,23.6
		c-0.1,1.7-0.9,2.6-2.6,3.6l0.1,0.3c1.1-0.2,4.5-0.3,5.8-0.3c1.3,0,4.6,0.1,5.7,0.3l0.2-0.3c-1.7-0.8-2.5-2-2.6-3.6
		c-0.2-5.4-0.2-10.6-0.2-23.6v-25.2c7.8-0.1,14.4,0.8,19.9,4.9l0.4-0.4c-0.4-1.1-2-5.8-2-6.5L1182.1,151L1182.1,151z"/>
	<path class="st0" d="M1278.9,150.5c-1.6,0.3-2.8,0.4-4.4,0.4c-1.6,0-3.6-0.1-5-0.4l-0.1,0.4c2.2,0.8,2.9,1.9,2,3.4
		c-4.3,6.6-5.9,8.9-10.7,15.6c-2.2,2.9-3.6,5.1-5.2,7.3l-4.9-7c-5.9-8.2-7.8-11-10.9-16.1c-0.7-1.3-0.1-2.2,2.3-3.1l-0.1-0.4
		c-1.1,0.4-6.3,0.4-7.8,0.4c-1.5,0-4.9,0-6.4-0.4l-0.2,0.4c1.6,0.4,3.4,2.6,5,4.9c2.4,3.1,4.2,6,10.2,14.3l7.2,9.9
		c0,12.5,0,16.5-0.2,21.6c0,1.7-0.7,2.6-2.4,3.6l0.1,0.3c1.1-0.2,4.5-0.3,5.8-0.3c1.3,0,4.6,0.1,5.7,0.3l0.2-0.3
		c-1.7-0.8-2.5-2-2.6-3.6c-0.2-5.3-0.2-8.9-0.2-22l6.9-9.5c6.2-8.3,7.1-10,10.8-14.9c1.6-2.1,3.5-3.9,5.1-4.3L1278.9,150.5z"/>
</g>
</svg>
