<svg xmlns="http://www.w3.org/2000/svg" viewBox="0 0 170.08 66.84"><defs><style>.cls-1{fill:#195f69;}.cls-2{fill:#fff;}.cls-3{fill:#d2be8c;}</style></defs><g id="Layer_2" data-name="Layer 2"><g id="Laag_1" data-name="Laag 1"><rect class="cls-1" width="170.08" height="66.84"/><path class="cls-2" d="M82,41.92a1.54,1.54,0,0,1-.22-.93V24.48l0,0a7.51,7.51,0,0,0-1.41-.78,9.93,9.93,0,0,0-1.7-.54,18,18,0,0,0-1.86-.3,17,17,0,0,0-1.87-.1,18,18,0,0,0-2.69.18,17.34,17.34,0,0,0-2.49.58l-.07,0v.07a10.37,10.37,0,0,0,.06,1,5.61,5.61,0,0,0,.18,1l0,.11.11,0a9,9,0,0,1,2.23-.63,15.69,15.69,0,0,1,2.68-.24,12.68,12.68,0,0,1,2.64.28,6.57,6.57,0,0,1,2,.67v6.67l-4.74.19a9.53,9.53,0,0,0-5.49,1.59c-1.21,1-1.82,2.53-1.82,4.7a5.07,5.07,0,0,0,1.66,4.14,6.62,6.62,0,0,0,4.3,1.35A10.37,10.37,0,0,0,76.49,44a10.77,10.77,0,0,0,3.06-1.67A2.92,2.92,0,0,0,81.06,44a5.66,5.66,0,0,0,2.24.43c1.22,0,1.84-.56,1.84-1.65V42.2H82.78A1,1,0,0,1,82,41.92Zm-2.44-7.57v6a11.46,11.46,0,0,1-2.71,1.39,9.16,9.16,0,0,1-3.14.59,4.17,4.17,0,0,1-2.9-.83,3.59,3.59,0,0,1-.88-2.72,4.21,4.21,0,0,1,1-3.12c.66-.66,1.91-1,3.7-1.1Z"/><path class="cls-2" d="M98.73,41.63l0-.1-.09,0a6,6,0,0,1-1.49.47,8.56,8.56,0,0,1-1.53.16,2.56,2.56,0,0,1-2.19-.8,5.3,5.3,0,0,1-.6-3V25.11h4.94V25a5.84,5.84,0,0,0,.12-.88c0-.32,0-.63,0-.92v-.1H92.79V17.36h-.1a7,7,0,0,0-1.11.12,4,4,0,0,0-1,.29l-.06,0V38.21a7.88,7.88,0,0,0,1.13,4.66c.76,1,2.12,1.55,4,1.55a10.08,10.08,0,0,0,1.71-.16A7.72,7.72,0,0,0,99,43.73l0,0v-.07a5.51,5.51,0,0,0-.1-1A5.61,5.61,0,0,0,98.73,41.63Z"/><path class="cls-2" d="M22.41,41.63l0-.1-.1,0a5.92,5.92,0,0,1-1.49.47,8.55,8.55,0,0,1-1.52.16,2.59,2.59,0,0,1-2.2-.8,5.3,5.3,0,0,1-.6-3V14.17h-.1a6.81,6.81,0,0,0-1.1.12,4,4,0,0,0-1,.28l-.06,0V38.21a7.88,7.88,0,0,0,1.13,4.66c.76,1,2.12,1.55,4.05,1.55a10.06,10.06,0,0,0,1.7-.16,7.72,7.72,0,0,0,1.67-.53l.06,0v-.07a6,6,0,0,0-.37-2Z"/><path class="cls-2" d="M117.64,23.11a7.37,7.37,0,0,0-1,.14l-.08,0v17a13.26,13.26,0,0,1-2.85,1.41,10.44,10.44,0,0,1-3.44.53,3.44,3.44,0,0,1-2.87-1.06,4.45,4.45,0,0,1-.83-2.81V23.05h-.1q-.44,0-1.08.06a8.52,8.52,0,0,0-1,.14h-.08v15a8.78,8.78,0,0,0,.44,3,4.77,4.77,0,0,0,1.24,1.92,4.27,4.27,0,0,0,1.82,1,8.58,8.58,0,0,0,2.19.28,10.12,10.12,0,0,0,3.48-.58,16.49,16.49,0,0,0,3.12-1.6V44h2.3v-21h-.1C118.45,23.05,118.09,23.07,117.64,23.11Z"/><path class="cls-2" d="M135.85,22.77c-.33,0-.62,0-.86,0a7.47,7.47,0,0,0-1,.08,4.88,4.88,0,0,0-1.22.39,7.15,7.15,0,0,0-1.42.88,13.36,13.36,0,0,0-1.67,1.56V23.05h-.1c-.29,0-.65,0-1.1.06a7.37,7.37,0,0,0-1,.14l-.08,0V44h2.3V27.9a10.35,10.35,0,0,1,1.53-1.52,6.25,6.25,0,0,1,1.33-.84,4.22,4.22,0,0,1,1.14-.35,7.8,7.8,0,0,1,1.06-.08,6.9,6.9,0,0,1,1.71.19l.11,0,0-.1c.05-.31.1-.68.16-1.12A9.8,9.8,0,0,0,136.8,23V23l-.07,0A4.08,4.08,0,0,0,135.85,22.77Z"/><path class="cls-2" d="M154,24.7a7.09,7.09,0,0,0-5.3-2,8.39,8.39,0,0,0-3.17.6,6.59,6.59,0,0,0-2.6,2,9.8,9.8,0,0,0-1.72,3.47,18.43,18.43,0,0,0-.62,5.1c0,3.6.76,6.29,2.25,8s3.76,2.57,6.73,2.57a14.23,14.23,0,0,0,3.22-.38A8.16,8.16,0,0,0,155.42,43l.06,0v-.07a6.7,6.7,0,0,0-.28-1c-.13-.33-.27-.66-.4-.95l0-.11-.1.06a8.33,8.33,0,0,1-2.21.94,10,10,0,0,1-2.77.4,8.37,8.37,0,0,1-3.19-.53,4.67,4.67,0,0,1-2-1.59,7,7,0,0,1-1.12-2.66,18.59,18.59,0,0,1-.33-3.73v-.14h12.84V33.5c0-.45,0-.93.06-1.47s0-1,0-1.43C155.91,28,155.26,26,154,24.7Zm-10.95,7c.12-2.5.67-4.31,1.64-5.38a5,5,0,0,1,3.93-1.64A5.15,5.15,0,0,1,152.27,26c.91.88,1.38,2.37,1.38,4.45v.68a4.91,4.91,0,0,1,0,.57Z"/><path class="cls-2" d="M57.84,40.22H51a1.15,1.15,0,0,1-.79-.25,1.31,1.31,0,0,1-.27-1,4.21,4.21,0,0,1,.35-1.39,6.65,6.65,0,0,1,1.21-1.86,7.29,7.29,0,0,0,1.28.31,9.36,9.36,0,0,0,1.7.14,8.05,8.05,0,0,0,2.55-.4,5.7,5.7,0,0,0,2.16-1.25,6.07,6.07,0,0,0,1.47-2.09,7.38,7.38,0,0,0,.54-2.94,7.68,7.68,0,0,0-.6-3.07A6.43,6.43,0,0,0,58.62,24v-1.4a3.31,3.31,0,0,1,.72-2.41,3.23,3.23,0,0,1,2.31-.7h1.56v-.74a1.47,1.47,0,0,0-.36-1.1,1.87,1.87,0,0,0-1.28-.34A5,5,0,0,0,58,18.6c-.85.83-1.3,2.51-1.32,4.5a5.87,5.87,0,0,0-1.12-.23c-.39,0-.8-.06-1.24-.06a7.65,7.65,0,0,0-2.87.51,6.09,6.09,0,0,0-2.17,1.43,6.3,6.3,0,0,0-1.39,2.19,7.82,7.82,0,0,0-.48,2.79,7.28,7.28,0,0,0,.62,3,5,5,0,0,0,1.79,2.12,12.06,12.06,0,0,0-1.21,1.87,12.85,12.85,0,0,0-.92,2.12v0A5.5,5.5,0,0,0,48,40.44a9.74,9.74,0,0,0,.6,1.21A8,8,0,0,0,47,44.07a6.56,6.56,0,0,0-.47,2.43,7.9,7.9,0,0,0,.37,2.41,4.53,4.53,0,0,0,1.27,2,6.43,6.43,0,0,0,2.46,1.31,13.3,13.3,0,0,0,3.89.48,13.16,13.16,0,0,0,3.88-.52,7.79,7.79,0,0,0,2.73-1.45,5.77,5.77,0,0,0,1.61-2.22,7.36,7.36,0,0,0,.52-2.81,5.32,5.32,0,0,0-1.46-4.18A5.9,5.9,0,0,0,57.84,40.22ZM49.7,29.49a5,5,0,0,1,1.16-3.59,4.44,4.44,0,0,1,3.37-1.22,4.9,4.9,0,0,1,3.41,1.12,4.87,4.87,0,0,1,1.21,3.69,4.82,4.82,0,0,1-1.21,3.68,4.94,4.94,0,0,1-3.41,1.1,4.59,4.59,0,0,1-3.35-1.16A4.87,4.87,0,0,1,49.7,29.49ZM61.07,45.83c0,3.27-2.13,4.86-6.52,4.86-2.18,0-3.71-.38-4.55-1.13A4.53,4.53,0,0,1,48.74,46,7.64,7.64,0,0,1,49,44.31a3.74,3.74,0,0,1,1.09-1.83h7.85a3.47,3.47,0,0,1,2.43.7A3.72,3.72,0,0,1,61.07,45.83Z"/><path class="cls-2" d="M33.27,43C30.11,37.4,29,30.33,28.4,24c-.13-1.44-2.4-1.45-2.26,0,.61,6.76,1.81,14.19,5.17,20.15a1.13,1.13,0,0,0,2-1.14Z"/><path class="cls-3" d="M41.83,18.14c-1.39,7.05-4.39,13.78-7.6,20.17-.75,1.5-1.62,2.95-2.34,4.46a41.17,41.17,0,0,0-2.76,8.36c-.34,1.42,1.85,2,2.18.6a40.1,40.1,0,0,1,2.59-7.92c.81-1.72,1.8-3.36,2.65-5.07,3.14-6.34,6.09-13,7.47-20,.28-1.43-1.9-2-2.19-.61Z"/></g></g></svg>