<?xml version="1.0" encoding="utf-8"?>
<!-- Generator: Adobe Illustrator 25.3.1, SVG Export Plug-In . SVG Version: 6.00 Build 0)  -->
<svg version="1.1" id="Vrstva_1" xmlns="http://www.w3.org/2000/svg" xmlns:xlink="http://www.w3.org/1999/xlink" x="0px" y="0px"
	 viewBox="0 0 412.2 189.09" style="enable-background:new 0 0 412.2 189.09;" xml:space="preserve">
<style type="text/css">
	.st0{fill-rule:evenodd;clip-rule:evenodd;fill:#575756;}
	.st1{fill:#575756;}
	.st2{fill-rule:evenodd;clip-rule:evenodd;fill:#006BAC;}
</style>
<rect x="142.8" y="39.28" class="st0" width="1.42" height="113.39"/>
<path class="st1" d="M185.46,82.33c6.74,0,7.96-2.97,7.96-5.34c0-2.67-1.98-4.32-5.66-4.32c-1.52,0-3.34,0.07-4.85,0.16v16.33h2.55
	V82.33z M185.46,80.26v-5.47c0.51-0.07,0.97-0.09,1.82-0.09c2.02,0,3.45,0.78,3.45,2.62C190.73,78.97,189.67,80.26,185.46,80.26z"/>
<path class="st1" d="M203.23,86.74v-5.04c0-3.04-1.86-3.79-4.12-3.79c-1.36,0-2.9,0.21-4.09,0.58l-0.21,0.37l0.48,1.52
	c1.27-0.37,2.16-0.6,3.17-0.6c1.54,0,2.39,0.78,2.25,3.06l-1.2,0.11c-3.91,0.48-5.34,1.7-5.34,3.84c0,1.89,1.4,2.69,3.2,2.69
	c1.54,0,2.53-0.39,3.61-1.27c0.25,0.85,0.92,1.27,1.98,1.27c1.7,0,2.09-0.9,1.56-1.68C203.78,87.94,203.23,87.66,203.23,86.74
	 M200.73,84.51v2.32c-0.76,0.53-1.56,0.85-2.46,0.85c-0.78,0-1.45-0.41-1.45-1.17C196.82,85.36,197.85,84.7,200.73,84.51z"/>
<polygon class="st1" points="209.53,71.49 207.34,71.91 207.34,89.16 209.85,89.16 209.85,71.75 "/>
<path class="st1" d="M221.73,86.74v-5.04c0-3.04-1.86-3.79-4.12-3.79c-1.36,0-2.9,0.21-4.09,0.58l-0.21,0.37l0.48,1.52
	c1.27-0.37,2.16-0.6,3.17-0.6c1.54,0,2.39,0.78,2.25,3.06l-1.2,0.11c-3.91,0.48-5.34,1.7-5.34,3.84c0,1.89,1.4,2.69,3.2,2.69
	c1.54,0,2.53-0.39,3.61-1.27c0.25,0.85,0.92,1.27,1.98,1.27c1.7,0,2.09-0.9,1.56-1.68C222.28,87.94,221.73,87.66,221.73,86.74
	 M219.22,84.51v2.32c-0.76,0.53-1.56,0.85-2.46,0.85c-0.78,0-1.45-0.41-1.45-1.17C215.31,85.36,216.35,84.7,219.22,84.51z"/>
<path class="st1" d="M227.61,83.75c0-2.09,0.81-3.7,3.22-3.7c0.6,0,1.47,0.12,2.16,0.32l0.71-1.73l-0.16-0.37
	c-1.03-0.25-1.79-0.37-2.85-0.37c-3.38,0-5.77,2.25-5.77,5.93c0,4.14,2.18,5.64,5.13,5.64c1.43,0,2.44-0.18,3.75-0.67l0.14-0.41
	l-0.55-1.54c-1.13,0.37-1.93,0.55-2.83,0.55C228.69,87.41,227.61,86.08,227.61,83.75"/>
<polygon class="st1" points="243.5,78.23 238.85,83.32 238.85,71.75 238.53,71.49 236.34,71.91 236.34,89.16 238.85,89.16 
	238.85,83.32 243.96,89.16 246.88,89.16 247.06,88.81 241.68,83.27 241.7,83.09 246.23,78.6 246.1,78.23 "/>
<path class="st1" d="M251.79,76.37h1.54l3.4-4.12l-0.16-0.34h-2.3l-2.62,4.19L251.79,76.37z M247.26,78.6l4.21,10.67l0.58,0.05
	l-2.35,5.08l0.16,0.41l1.98,0.44l6.51-16.65l-0.21-0.37h-2.19l-2.94,8.46l-0.18-0.02l-2.9-8.44h-2.44L247.26,78.6z"/>
<path class="st1" d="M280.28,72.83h-2.55v10.83c0,2.6-1.56,3.7-3.82,3.7c-2.28,0-3.84-1.06-3.84-3.61V72.83h-2.55v10.93
	c0,4.16,2.67,5.73,6.35,5.73c3.63,0,6.42-1.56,6.42-5.75V72.83z"/>
<path class="st1" d="M294.35,89.16v-7.18c0-2.48-1.1-4.07-3.8-4.07c-1.66,0-2.99,0.6-3.84,1.36c-0.32-0.92-0.92-1.36-2.05-1.36
	c-1.73,0-2.12,0.9-1.59,1.68c0.76-0.14,1.31,0.16,1.31,1.06v8.51h2.51v-8.19c1.06-0.8,1.79-1.06,2.78-1.06
	c1.36,0,2.16,0.9,2.16,2.44v6.81H294.35z"/>
<path class="st1" d="M299.63,72.76c-0.92,0-1.66,0.69-1.66,1.61c0,0.76,0.62,1.43,1.56,1.43c1.04,0,1.68-0.83,1.68-1.66
	C301.22,73.33,300.69,72.76,299.63,72.76z M300.53,77.91l-2.18,0.41v10.83h2.51V78.16L300.53,77.91z"/>
<polygon class="st1" points="303.12,78.6 307.33,89.27 310.09,89.04 314.2,78.6 314,78.23 311.81,78.23 308.87,86.7 308.68,86.67 
	305.79,78.23 303.35,78.23 "/>
<path class="st1" d="M318.24,82.49c0.25-1.98,1.47-2.76,2.71-2.76c1.38,0,2.02,1.06,2.09,2.62L318.24,82.49z M318.17,83.98h7.06
	l0.25-0.32c0-3.82-1.43-5.75-4.39-5.75c-2.71,0-5.52,1.77-5.52,5.93c0,4.16,2.3,5.64,5.27,5.64c1.54,0,2.58-0.16,3.91-0.67
	l0.12-0.41l-0.53-1.54c-1.13,0.37-1.93,0.55-3.17,0.55C319.14,87.41,318.2,86.12,318.17,83.98z"/>
<path class="st1" d="M331.18,81.91c0.71-1.2,1.93-1.7,2.78-1.7c0.53,0,0.94,0.16,1.4,0.44l0.39-0.07l0.92-1.91l-0.14-0.39
	c-0.55-0.25-1.22-0.37-1.84-0.37c-1.54,0-2.94,0.94-3.61,2.12c-0.09-1.61-1.01-2.12-2.14-2.12c-1.73,0-2.12,0.9-1.59,1.68
	c0.76-0.14,1.31,0.16,1.31,1.06v8.51h2.51V81.91z"/>
<path class="st1" d="M342.17,77.91c-2.92,0-4.23,1.36-4.23,3.15c0,1.79,1.1,2.39,2.92,3.29c1.61,0.78,2.21,1.29,2.21,1.96
	c0,0.85-0.64,1.4-1.82,1.4c-0.92,0-2.09-0.41-3.13-0.78l-0.67,1.56l0.23,0.35c1.33,0.48,2.6,0.64,3.86,0.64
	c2.3,0,4.16-1.01,4.16-3.24c0-1.82-1.13-2.62-2.87-3.47c-1.7-0.81-2.25-1.29-2.25-1.86c0-0.67,0.51-1.15,1.61-1.15
	c0.78,0,1.82,0.25,2.69,0.55l0.58-1.63l-0.21-0.35C344.13,78.05,343.23,77.91,342.17,77.91"/>
<path class="st1" d="M349.84,72.76c-0.92,0-1.66,0.69-1.66,1.61c0,0.76,0.62,1.43,1.56,1.43c1.04,0,1.68-0.83,1.68-1.66
	C351.43,73.33,350.9,72.76,349.84,72.76z M350.74,77.91l-2.18,0.41v10.83h2.51V78.16L350.74,77.91z"/>
<path class="st1" d="M357.96,78.23v-3.7l-0.32-0.25l-2.18,0.41v3.54H354l-0.32,1.5l0.28,0.32h1.49v6.23c0,2.16,1.15,3.2,3.01,3.2
	c1.24,0,2.32-0.21,3.4-0.51l0.21-0.34L361.57,87c-1.01,0.28-1.63,0.41-2.3,0.41c-0.9,0-1.31-0.57-1.31-1.56v-5.8h3.13l0.3-1.63
	l-0.28-0.3L357.96,78.23z"/>
<polygon class="st1" points="362.98,78.6 367.19,89.27 367.77,89.32 365.42,94.4 365.58,94.82 367.56,95.25 374.07,78.6 
	373.86,78.23 371.68,78.23 368.73,86.7 368.55,86.67 365.65,78.23 363.21,78.23 "/>
<path class="st1" d="M185.62,107.87c0-3.73,2.25-6.49,5.52-6.49c3.31,0,5.54,2.76,5.54,6.49c0,3.73-2.23,6.49-5.52,6.49
	C187.87,114.36,185.62,111.6,185.62,107.87 M191.14,116.36c4.88,0,8.26-3.54,8.26-8.49c0-5.87-3.45-8.49-8.26-8.49
	c-4.85,0-8.28,3.54-8.28,8.49C182.86,113.71,186.35,116.36,191.14,116.36z"/>
<polygon class="st1" points="204.44,98.37 202.26,98.79 202.26,116.04 204.77,116.04 204.77,98.63 "/>
<path class="st1" d="M213.54,114.59c-1.75,0-3.08-1.66-3.08-4c0-2.99,1.31-4.02,3.06-4.02c1.75,0,3.1,1.66,3.1,4.02
	C216.63,113.58,215.27,114.59,213.54,114.59 M213.54,116.36c3.36,0,5.68-2.16,5.68-5.77c0-4.3-2.37-5.8-5.68-5.8
	c-3.38,0-5.7,2.16-5.7,5.8C207.84,114.86,210.21,116.36,213.54,116.36z"/>
<path class="st1" d="M231.32,106.31c-0.53-0.99-1.52-1.52-3.04-1.52c-1.45,0-2.67,0.6-3.52,1.36c-0.32-0.92-0.92-1.36-2.05-1.36
	c-1.73,0-2.12,0.9-1.59,1.68c0.76-0.14,1.31,0.16,1.31,1.06v8.51h2.51v-8.19c1.06-0.81,1.66-1.06,2.55-1.06
	c1.33,0,1.84,0.9,1.84,2.44v6.81h2.51v-7.11c0-0.34-0.05-0.71-0.12-1.03c1.17-0.85,1.77-1.1,2.67-1.1c1.33,0,1.84,0.9,1.84,2.44
	v6.81h2.51v-7.18c0-2.48-0.92-4.07-3.56-4.07C233.73,104.79,232.44,105.39,231.32,106.31"/>
<path class="st1" d="M247.52,114.59c-1.75,0-3.08-1.66-3.08-4c0-2.99,1.31-4.02,3.06-4.02c1.75,0,3.11,1.66,3.11,4.02
	C250.6,113.58,249.25,114.59,247.52,114.59 M247.52,116.36c3.36,0,5.68-2.16,5.68-5.77c0-4.3-2.37-5.8-5.68-5.8
	c-3.38,0-5.7,2.16-5.7,5.8C241.82,114.86,244.19,116.36,247.52,116.36z"/>
<path class="st1" d="M256.3,105.2v7.08c0,2.48,1.1,4.07,3.8,4.07c1.66,0,2.97-0.6,3.84-1.36c0.32,0.92,0.92,1.36,2.05,1.36
	c1.72,0,2.09-0.9,1.59-1.68c-0.76,0.14-1.31-0.14-1.31-1.06v-8.58l-0.32-0.25l-2.18,0.41v8.1c-1.08,0.81-1.79,1.06-2.78,1.06
	c-1.36,0-2.16-0.9-2.16-2.44v-6.88l-0.32-0.25L256.3,105.2z"/>
<path class="st1" d="M272.14,110.63c0-2.09,0.8-3.7,3.22-3.7c0.6,0,1.47,0.12,2.16,0.32l0.71-1.73l-0.16-0.37
	c-1.04-0.25-1.79-0.37-2.85-0.37c-3.38,0-5.77,2.25-5.77,5.93c0,4.14,2.18,5.64,5.13,5.64c1.43,0,2.44-0.18,3.75-0.67l0.14-0.41
	l-0.55-1.54c-1.13,0.37-1.93,0.55-2.83,0.55C273.22,114.29,272.14,112.96,272.14,110.63"/>
<path class="st2" d="M69.71,72.12v17.22c2.91,0.17,5.24-2.48,5.44-8.6C75.4,75.23,73.67,71.82,69.71,72.12 M58.07,81.47l-8.37,0
	l0.02,0.51c2.77,0.17,3.56,3.01,4.05,7.03c0.26,2.18,0.45,4.65,0.75,7.36c0.29,2.63,0.5,5.1,0.79,7.38
	c0.79,6.13,4.69,10.56,14.43,10.9c7.22-0.23,11.25-2.81,13.28-6.51c1.22-2.22,1.6-4.91,1.83-7.58c0.31-3.69,0.69-7.84,1.05-11.02
	c0.53-4.79,1.33-7.84,4.31-7.52l0-0.55h-8.31l-1.79,22.1c-0.86,5.36-5.7,8.33-10.43,8.05c0-6.25,0-13.99,0-20.25
	c5.84,0.28,9.56-2.63,9.89-11c0-8.39-5.51-10.3-7.64-10.49c-5.52-0.11-15.14,0.52-17.46-0.73l-2.92,2.84h13.79v39.04
	c-2.95-0.31-5.09-2.65-6.14-7.43L58.07,81.47z M69.61,131.4c5.33-7.51,30.09-30.88,36.53-70.56c-15.95,4.73-41.51,4.08-58.34,0.52
	c-0.8,5.19-5.96,9.3-11.28,10.03C41.34,101.98,64.76,124.21,69.61,131.4z"/>
</svg>
