<svg width="70" height="72" viewBox="0 0 70 72" fill="none" xmlns="http://www.w3.org/2000/svg">
<g clip-path="url(#clip0)">
<path d="M37.4267 51.4822C37.3306 51.4822 37.1178 51.579 36.9873 52.0559C36.7046 53.3852 36.5256 54.7347 36.4519 56.0921C36.3283 56.7003 35.3879 57.4744 34.6121 57.0321C34.1392 56.758 33.643 56.5267 33.1294 56.3409C32.6208 56.1273 32.0948 55.9585 31.5573 55.8364C30.6787 55.636 30.5345 54.4541 30.8709 53.8874C31.7409 52.8478 32.5282 51.7409 33.2255 50.5768C33.4657 50.1207 33.3559 49.8857 33.2873 49.8373C32.7442 49.5295 32.2193 49.1903 31.7152 48.8213C31.6191 48.7799 31.3857 48.773 31.0768 49.1738C30.3005 50.2932 29.612 51.4717 29.0174 52.6986C28.6673 53.2101 27.5071 53.5902 26.958 52.8576C26.6242 52.4173 26.2545 52.0058 25.8527 51.6274C25.4663 51.2335 25.0459 50.875 24.5965 50.5561C23.8551 50.0308 24.1915 48.849 24.6857 48.4827C25.8828 47.8557 27.0303 47.1371 28.1181 46.3332C28.5025 46.0015 28.4888 45.7734 28.4545 45.6421C28.0904 45.1608 27.7557 44.6576 27.4522 44.1354C27.3698 44.0663 27.1639 43.9626 26.7177 44.2114C25.5851 44.9542 24.511 45.7837 23.505 46.6926C22.9901 47.0244 21.7751 46.9276 21.5417 46.043C21.4068 45.5073 21.2253 44.9846 20.9994 44.481C20.7869 43.9696 20.532 43.4771 20.2374 43.0088C19.7637 42.2417 20.5257 41.281 21.1161 41.1289C22.4615 41.0048 23.7952 40.7737 25.1045 40.4378C25.5781 40.2927 25.6537 40.0784 25.6674 39.9678C25.5014 39.3609 25.3708 38.7447 25.2761 38.1225C25.2349 38.0257 25.077 37.8529 24.5896 37.9151C23.2597 38.1603 21.9513 38.5116 20.6767 38.9657C20.0726 39.0763 18.988 38.5164 19.1184 37.5834C19.193 37.0339 19.2206 36.4789 19.2008 35.9247C19.2006 35.3735 19.1546 34.8233 19.0635 34.2798C18.9056 33.3813 19.9765 32.7869 20.5806 32.8975C21.8687 33.3068 23.186 33.6164 24.521 33.8236C25.0358 33.8651 25.2074 33.6854 25.2074 33.5955C25.2743 32.9688 25.3844 32.3476 25.537 31.7364C25.537 31.6258 25.4408 31.4184 24.9603 31.2802C23.6395 30.9995 22.2992 30.8216 20.9513 30.748C20.3541 30.6167 19.5784 29.6837 20.0177 28.8889C20.2891 28.4146 20.5188 27.9174 20.7042 27.4029C20.9187 26.8918 21.0864 26.362 21.2053 25.8202C21.4044 24.9286 22.6263 24.7973 23.148 25.1291C24.1817 26.0055 25.2811 26.8004 26.4362 27.5066C26.8893 27.7416 27.1227 27.6379 27.1708 27.5619C27.4771 27.0139 27.8164 26.4854 28.1867 25.9792C28.1867 25.8824 28.1867 25.6474 27.8298 25.3364C26.7163 24.5638 25.5432 23.8821 24.3219 23.2975C23.8208 22.9381 23.4501 21.7701 24.1709 21.2241C25.0384 20.5419 25.8078 19.7418 26.4568 18.8466C26.9785 18.1071 28.1456 18.4457 28.5163 18.9364C29.1332 20.145 29.8472 21.3007 30.6512 22.3921C30.9738 22.7861 31.2072 22.7654 31.3377 22.7308C31.8315 22.344 32.3473 21.9863 32.8822 21.6595C32.944 21.5835 33.047 21.3693 32.793 20.9269C32.0612 19.782 31.2393 18.6981 30.3354 17.6855C29.999 17.174 30.102 15.9438 30.9738 15.7226C31.5068 15.5797 32.0279 15.3948 32.5321 15.1697C33.0376 14.9533 33.5264 14.6992 33.9943 14.4095C34.7563 13.9188 35.7105 14.6859 35.8615 15.2803C35.9842 16.6373 36.2138 17.9824 36.548 19.3027C36.6922 19.7727 36.905 19.8557 37.0079 19.8626C37.6134 19.6984 38.2276 19.5692 38.8477 19.4755C38.9369 19.4272 39.1154 19.2682 39.0536 18.7844C38.7852 17.4456 38.411 16.1306 37.9347 14.8518C37.8248 14.2505 38.3809 13.1585 39.3076 13.2829C40.3828 13.359 41.4631 13.3103 42.5272 13.1378C43.4265 12.9788 44.0168 14.057 43.9001 14.6652C43.4921 15.964 43.1846 17.2927 42.9803 18.6393C42.9391 19.1507 43.1176 19.2958 43.2137 19.3304C43.653 19.3857 44.0786 19.4755 44.5042 19.5585L45.987 11.0022H11.6633L3 60.1699H37.3718L38.8477 51.7656C38.3672 51.6965 37.8935 51.6205 37.4267 51.4822Z" fill="#F3F3F3"/>
<path d="M62.1058 11.0017L53.4768 60.1694H58.3714L67.0004 11.0017H62.1058Z" fill="#F3F3F3"/>
<path d="M55.7969 35.5856C55.7959 35.8769 55.74 36.1654 55.6321 36.4357C55.5768 36.568 55.5102 36.6951 55.433 36.8158C55.3463 36.9429 55.2499 37.0631 55.1447 37.1752L47.1267 45.2616C46.6976 45.6687 46.1278 45.8914 45.5382 45.8822C44.9487 45.8731 44.3859 45.633 43.9694 45.2128C43.553 44.7926 43.3156 44.2254 43.3078 43.6319C43.3 43.0383 43.5224 42.4651 43.9277 42.0339L48.0466 37.8871H30.3699C29.769 37.8871 29.1928 37.6468 28.768 37.2191C28.3432 36.7913 28.1045 36.2112 28.1045 35.6063C28.1045 35.0014 28.3432 34.4213 28.768 33.9936C29.1928 33.5659 29.769 33.3256 30.3699 33.3256H48.0466L43.9277 29.1787C43.7145 28.9673 43.5448 28.7156 43.4282 28.4381C43.3116 28.1605 43.2504 27.8626 43.2482 27.5613C43.246 27.26 43.3027 26.9612 43.4152 26.6819C43.5277 26.4027 43.6937 26.1485 43.9037 25.9338C44.1137 25.7192 44.3637 25.5483 44.6394 25.4309C44.915 25.3135 45.2109 25.2519 45.5102 25.2497C46.1147 25.2452 46.6961 25.4825 47.1267 25.9096L55.131 33.9683C55.2361 34.0781 55.3325 34.1959 55.4193 34.3208C55.4964 34.4391 55.563 34.564 55.6184 34.694C55.7355 34.9765 55.7961 35.2795 55.7969 35.5856Z" fill="#F3F3F3"/>
</g>
<defs>
<clipPath id="clip0">
<rect width="64" height="49.1735" fill="white" transform="translate(3 10.9988)"/>
</clipPath>
</defs>
</svg>
