<?xml version="1.0" encoding="UTF-8"?>
<svg width="100pt" height="100pt" version="1.1" viewBox="0 0 100 100" xmlns="http://www.w3.org/2000/svg">
 <path d="m50.02 5c-3.9336 0-7.1914 2.5156-8.4336 5.9883h-8.5742c-0.53125 0-0.99219 0.49609-0.99219 1.0273v2.9766h-15.023c-0.67578 0.035156-0.99219 0.60156-0.99219 0.99219v78.023c0 0.53125 0.45703 0.99219 0.98828 0.99219h66.016c0.53125 0 0.99219-0.46094 0.99219-0.99219v-78.023c0-0.49609-0.46094-0.99219-0.99219-0.99219h-14.988v-2.9766c0-0.53125-0.49609-1.0273-1.0273-1.0273h-8.5742c-1.2422-3.4727-4.5039-5.9883-8.3984-5.9883zm0 1.9844c3.2617 0 5.9883 2.2305 6.7695 5.2812 0.10547 0.42578 0.53125 0.74219 0.95703 0.74219h8.2578v8.0078h-31.996v-8.0078h8.2578c0.42578 0 0.85156-0.32031 0.95703-0.74219 0.78125-3.0469 3.5078-5.2812 6.8047-5.2812zm-32.031 10.027h14.031v4.9961c0 0.53125 0.45703 0.99219 0.99219 0.99219h33.98c0.53125 0 1.0273-0.46094 1.0273-0.99219v-4.9961h13.996v76.004h-64.027zm7.0156 6.9805c-0.63672 0.035156-0.99219 0.60156-0.99219 0.99219v14.031c0 0.49609 0.46094 0.99219 0.99219 0.99219h18c0.53125 0 0.99219-0.49609 0.99219-0.99219v-14.031c0-0.49609-0.46094-0.99219-0.99219-0.99219zm0.99219 2.0195h16.016v11.977h-16.016zm25.016 4.9961c-0.56641 0-0.99219 0.42578-0.99219 0.99219s0.42578 0.99219 0.99219 0.99219h23.988c0.56641 0 0.99219-0.42578 0.99219-0.99219s-0.42578-0.99219-0.99219-0.99219zm-4.1133 14.953c-0.28516 0.035156-0.53125 0.21094-0.70703 0.46094l-8.4336 12.188-5.207-3.4375c-0.42578-0.32031-1.0977-0.17578-1.3828 0.24609-0.28516 0.42578-0.17578 1.0977 0.28516 1.3828l5.9883 4.0039c0.42578 0.28516 1.0625 0.17578 1.3828-0.24609l9-13.004c0.46094-0.60156-0.14062-1.6641-0.92188-1.5938zm-21.895 2.0547c-0.60156 0-0.99219 0.49609-0.99219 0.99219v18c0 0.53125 0.45703 0.99219 0.99219 0.99219h18c0.53125 0 0.99219-0.46094 0.99219-0.99219v-2.0195c0.035156-0.53125-0.46094-0.99219-0.99219-0.99219s-0.99219 0.46094-0.99219 0.99219v1.0273h-16.016v-16.016h11.02c0.53125 0 0.99219-0.46094 0.99219-0.99219s-0.46094-1.0273-0.99219-0.99219zm26.008 9c-0.56641 0-0.99219 0.42578-0.99219 0.99219 0 0.53125 0.42578 0.99219 0.99219 0.99219h23.988c0.56641 0 0.99219-0.46094 0.99219-0.99219 0-0.56641-0.42578-0.99219-0.99219-0.99219zm-26.008 18.992c-0.63672 0-0.99219 0.56641-0.99219 0.99219v13.996c0 0.53125 0.46094 0.99219 0.99219 0.99219h18c0.53125 0 0.99219-0.46094 0.99219-0.99219v-13.996c0-0.53125-0.46094-0.99219-0.99219-0.99219zm0.99219 1.9844h16.016v12.012h-16.016zm25.016 4.9961c-0.56641 0-0.99219 0.46094-0.99219 1.0273 0 0.53125 0.42578 0.99219 0.99219 0.99219h23.988c0.56641 0 0.99219-0.46094 0.99219-0.99219 0-0.56641-0.42578-1.0273-0.99219-1.0273z" fill="#fff"/>
</svg>
