<?xml version="1.0" standalone="no"?>
<!DOCTYPE svg PUBLIC "-//W3C//DTD SVG 20010904//EN"
 "http://www.w3.org/TR/2001/REC-SVG-20010904/DTD/svg10.dtd">
<svg version="1.0" xmlns="http://www.w3.org/2000/svg"
 width="909.000000pt" height="181.000000pt" viewBox="0 0 909.000000 181.000000"
 preserveAspectRatio="xMidYMid meet">

<g transform="translate(0.000000,181.000000) scale(0.100000,-0.100000)"
fill="#000000" stroke="none">
<path d="M0 905 l0 -905 1353 2 1352 3 3 903 2 902 -1355 0 -1355 0 0 -905z
m1354 650 c5 -21 12 -25 44 -25 l37 -1 -28 -21 c-24 -17 -27 -25 -21 -51 l6
-31 -26 17 c-24 16 -28 16 -51 1 l-25 -16 6 31 c5 25 2 35 -17 51 l-24 19 32
1 c26 0 34 5 39 25 3 14 10 25 14 25 4 0 11 -11 14 -25z m-255 -105 l36 0 -28
-23 c-25 -20 -27 -25 -18 -50 12 -31 9 -33 -25 -11 -23 16 -26 15 -44 -1 -25
-22 -33 -16 -21 16 7 20 4 28 -18 46 l-26 22 33 1 c28 0 35 5 45 33 l11 32 9
-32 c9 -29 14 -33 46 -33z m552 30 c9 -25 17 -30 42 -30 l30 0 -22 -24 c-17
-18 -20 -30 -15 -52 l7 -28 -26 17 c-26 17 -28 17 -53 0 l-26 -17 6 31 c6 26
3 34 -20 52 l-27 21 37 0 c33 0 37 3 43 30 3 17 7 30 10 30 2 0 9 -13 14 -30z
m-768 -250 l32 -1 -27 -20 c-23 -17 -26 -24 -18 -45 14 -36 13 -37 -20 -18
-27 17 -30 17 -48 1 -27 -24 -33 -21 -21 10 9 24 7 31 -16 50 l-26 23 31 0
c26 0 33 5 42 32 l12 33 13 -33 c11 -27 18 -32 46 -32z m989 25 c2 -14 13 -21
38 -25 l34 -5 -27 -18 c-23 -15 -25 -21 -17 -43 14 -35 14 -35 -19 -16 -28 15
-31 15 -49 -1 -27 -25 -32 -21 -20 14 6 16 9 31 7 33 -2 1 -15 10 -29 19 l-24
17 33 0 c27 0 35 5 44 30 12 31 23 29 29 -5z m-1072 -323 c37 6 38 -4 5 -22
-14 -8 -24 -19 -22 -24 2 -6 8 -22 12 -35 l7 -24 -28 21 c-29 20 -30 20 -53 1
-29 -24 -35 -20 -21 15 9 24 6 30 -18 51 l-27 25 33 -6 c30 -6 33 -4 44 27
l12 34 13 -34 c12 -29 18 -33 43 -29z m1150 27 c0 -15 7 -19 35 -19 41 0 45
-11 10 -30 -14 -8 -24 -19 -22 -24 2 -6 8 -22 12 -35 l7 -24 -27 21 -27 22
-29 -21 c-32 -23 -33 -22 -19 17 10 24 8 30 -17 50 l-28 23 36 1 c31 0 38 4
43 25 7 29 26 24 26 -6z m-1110 -301 c0 -14 9 -18 38 -18 l37 -1 -28 -23 c-25
-20 -27 -26 -17 -50 14 -38 13 -41 -7 -24 -32 27 -40 28 -67 7 -29 -23 -30
-22 -16 17 10 24 8 30 -17 50 l-28 23 37 1 c33 0 37 3 43 31 5 23 9 28 16 18
5 -8 9 -22 9 -31z m1073 -18 l32 -1 -26 -22 c-22 -18 -25 -26 -18 -46 12 -31
6 -36 -23 -17 -20 13 -25 13 -42 0 -29 -21 -37 -17 -25 13 9 25 7 30 -18 50
l-28 23 37 0 c33 0 37 3 44 33 l7 32 14 -32 c11 -28 18 -33 46 -33z m-814
-220 l36 0 -28 -23 c-25 -20 -27 -25 -18 -50 12 -31 9 -33 -25 -11 -23 16 -26
15 -44 -1 -25 -23 -33 -15 -21 18 9 22 6 29 -17 46 l-27 20 33 1 c28 0 35 5
45 33 l11 32 9 -32 c9 -29 14 -33 46 -33z m552 30 c9 -25 17 -30 42 -30 l32
-1 -24 -19 c-19 -16 -22 -26 -17 -51 l6 -31 -25 16 c-23 15 -27 15 -51 -1
l-26 -17 6 31 c6 26 3 34 -20 52 l-27 21 37 0 c33 0 37 3 43 30 3 17 7 30 10
30 2 0 9 -13 14 -30z m-252 -110 l36 -1 -28 -17 c-24 -15 -27 -21 -22 -50 l6
-33 -25 16 c-23 15 -26 15 -52 -1 l-26 -18 7 32 c5 27 3 36 -17 52 l-23 19 32
1 c26 0 33 5 43 33 l13 32 10 -32 c9 -29 14 -33 46 -33z"/>
<path d="M3102 1358 l3 -222 23 1 c68 3 62 -5 62 93 l0 89 93 3 92 3 3 38 3
37 -96 0 -96 0 3 53 3 52 108 3 107 3 0 34 0 35 -155 0 -155 0 2 -222z"/>
<path d="M4460 1505 c0 -41 -3 -75 -7 -75 -5 0 -17 7 -27 15 -11 8 -41 15 -67
15 -83 0 -129 -59 -129 -165 0 -131 100 -204 198 -145 40 24 40 24 38 3 -1
-14 7 -18 34 -18 l35 0 3 223 2 222 -40 0 -40 0 0 -75z m-40 -115 c25 -13 44
-79 36 -123 -18 -95 -125 -92 -141 4 -15 90 41 153 105 119z"/>
<path d="M5190 1505 c0 -41 -3 -75 -7 -75 -5 0 -17 7 -27 15 -11 8 -41 15 -67
15 -55 0 -94 -26 -115 -76 -19 -46 -18 -138 3 -181 32 -68 115 -93 180 -54 28
18 31 18 35 3 4 -12 15 -17 39 -16 l34 1 3 221 2 222 -40 0 -40 0 0 -75z m-40
-115 c25 -13 44 -79 36 -123 -18 -95 -125 -92 -141 4 -15 90 41 153 105 119z"/>
<path d="M5530 1361 l0 -218 31 -7 c35 -7 49 -1 49 19 0 12 7 10 33 -5 97 -59
197 14 197 145 0 106 -46 165 -129 165 -26 0 -56 -7 -67 -15 -10 -8 -22 -15
-26 -15 -5 0 -8 34 -8 75 l0 75 -40 0 -40 0 0 -219z m190 29 c25 -13 43 -80
34 -125 -17 -95 -125 -89 -141 8 -14 89 43 151 107 117z"/>
<path d="M3480 1335 c0 -133 10 -174 49 -195 31 -16 93 -12 129 10 40 25 42
25 42 0 0 -16 7 -20 35 -20 l35 0 0 165 0 165 -40 0 -40 0 0 -110 c0 -104 -1
-112 -25 -135 -27 -28 -52 -31 -78 -12 -15 10 -19 35 -24 135 l-6 122 -39 0
-38 0 0 -125z"/>
<path d="M3864 1447 c-2 -7 -3 -80 -2 -162 l3 -150 40 0 40 0 3 110 c2 96 5
112 24 132 23 24 53 29 78 13 12 -7 16 -38 20 -131 l5 -122 40 0 40 0 3 104
c4 128 -3 164 -33 195 -32 32 -110 34 -148 4 -14 -11 -28 -20 -31 -20 -3 0 -6
9 -6 20 0 16 -7 20 -35 20 -20 0 -38 -6 -41 -13z"/>
<path d="M4673 1440 c-46 -28 -67 -74 -67 -145 0 -115 54 -169 163 -162 59 3
66 6 98 41 38 41 35 53 -12 57 -21 2 -38 -4 -53 -19 -29 -29 -57 -28 -87 3
-47 46 -36 54 82 57 l108 3 -3 40 c-5 56 -30 104 -66 126 -42 25 -121 25 -163
-1z m127 -60 c11 -11 20 -29 20 -40 0 -19 -5 -21 -62 -18 -34 2 -63 8 -65 14
-2 6 6 23 17 37 26 32 62 35 90 7z"/>
<path d="M5880 1450 c0 -6 26 -80 59 -164 60 -159 62 -173 23 -203 -9 -7 -28
-13 -42 -13 -24 0 -26 -3 -22 -30 3 -21 11 -32 27 -36 36 -9 103 14 121 41 16
24 154 390 154 407 0 5 -19 8 -42 6 l-42 -3 -35 -107 c-19 -60 -38 -108 -41
-108 -3 0 -22 48 -41 108 l-35 107 -42 3 c-26 2 -42 -1 -42 -8z"/>
<path d="M3310 610 l0 -220 39 0 39 0 4 109 c3 122 17 151 69 151 47 0 59 -30
59 -152 l0 -108 40 0 40 0 0 125 c0 140 -8 167 -55 190 -43 20 -63 19 -110 -5
-22 -11 -41 -20 -42 -20 -2 0 -3 34 -3 75 l0 75 -40 0 -40 0 0 -220z"/>
<path d="M4210 610 l0 -220 170 0 170 0 0 35 0 35 -125 0 -125 0 0 60 0 59
113 3 112 3 0 35 0 35 -112 3 -113 3 0 49 0 50 120 0 120 0 0 35 0 35 -165 0
-165 0 0 -220z"/>
<path d="M7270 663 c0 -185 8 -217 63 -257 41 -30 150 -35 209 -8 70 31 78 57
78 261 l0 171 -44 0 -44 0 -2 -167 c-1 -195 -4 -203 -80 -203 -36 0 -52 5 -68
23 -21 22 -22 33 -22 185 l0 162 -45 0 -45 0 0 -167z"/>
<path d="M8100 789 l0 -40 43 3 c41 3 42 4 45 41 l3 37 -45 0 -46 0 0 -41z"/>
<path d="M3138 794 c-29 -19 -38 -31 -38 -53 0 -19 -6 -30 -19 -34 -23 -6 -23
-60 1 -65 13 -2 16 -23 20 -114 4 -101 7 -113 27 -130 23 -18 74 -24 105 -12
9 4 16 18 16 34 0 24 -5 29 -27 32 l-28 3 -3 93 -3 92 31 0 c28 0 30 3 30 35
0 32 -2 35 -30 35 -30 0 -30 1 -30 55 0 30 -3 55 -7 54 -5 0 -25 -11 -45 -25z"/>
<path d="M3775 713 c-37 -10 -83 -53 -95 -89 -17 -52 -9 -153 15 -186 31 -42
79 -61 143 -56 48 4 60 10 89 41 18 20 33 41 33 46 0 5 -17 11 -37 13 -31 4
-42 0 -61 -20 -35 -37 -90 -19 -106 35 -7 22 -5 22 101 25 l108 3 -3 45 c-3
51 -26 95 -62 121 -27 20 -92 31 -125 22z m87 -80 c10 -9 18 -24 18 -35 0 -16
-8 -18 -65 -18 -36 0 -65 4 -65 9 0 4 9 20 21 35 24 30 63 34 91 9z"/>
<path d="M5118 701 c-31 -25 -39 -26 -32 -6 5 12 -3 15 -35 15 l-41 0 0 -160
0 -160 40 0 40 0 0 83 c0 137 18 172 84 164 15 -1 22 7 29 31 12 38 10 40 -29
48 -21 4 -37 0 -56 -15z"/>
<path d="M5346 710 c-75 -24 -123 -112 -107 -197 11 -59 36 -91 84 -114 90
-40 183 -11 225 71 40 77 14 181 -56 223 -37 21 -107 30 -146 17z m106 -90
c28 -28 30 -35 26 -82 -6 -59 -32 -88 -79 -88 -78 0 -108 128 -42 180 36 28
59 25 95 -10z"/>
<path d="M5780 713 c-8 -3 -27 -15 -42 -25 -28 -19 -28 -19 -28 1 0 18 -6 21
-40 21 l-40 0 2 -222 3 -223 40 0 40 0 3 77 3 77 32 -19 c119 -73 241 81 181
230 -9 22 -29 49 -45 61 -30 21 -84 32 -109 22z m55 -88 c33 -32 36 -124 5
-155 -29 -29 -74 -26 -99 6 -31 39 -29 117 4 149 13 14 34 25 45 25 12 0 32
-11 45 -25z"/>
<path d="M6093 709 c-90 -26 -130 -173 -72 -267 48 -81 187 -83 248 -5 24 30
20 38 -25 46 -25 5 -36 1 -53 -19 -27 -31 -55 -31 -86 1 -48 47 -36 55 80 55
l105 0 0 43 c0 62 -27 108 -80 135 -47 24 -67 25 -117 11z m97 -79 c38 -38 27
-50 -46 -50 -63 0 -65 1 -59 23 15 48 70 62 105 27z"/>
<path d="M6433 710 c-34 -11 -89 -68 -76 -80 4 -4 22 -10 39 -13 23 -4 33 -1
42 14 22 35 102 23 102 -16 0 -19 -8 -24 -61 -34 -81 -16 -108 -29 -125 -62
-17 -34 -18 -50 -2 -84 24 -54 106 -71 166 -35 28 17 33 18 38 5 4 -10 19 -15
43 -15 l36 0 -3 122 c-4 135 -10 160 -45 183 -31 20 -112 27 -154 15z m107
-204 c0 -52 -64 -88 -98 -54 -36 36 5 75 91 87 4 1 7 -14 7 -33z"/>
<path d="M6865 713 c-11 -3 -32 -14 -47 -25 -28 -19 -28 -19 -28 1 0 18 -6 21
-40 21 l-40 0 0 -160 0 -160 45 0 45 0 0 110 c0 97 2 112 20 130 24 24 63 26
84 4 13 -12 16 -39 16 -130 l0 -114 45 0 45 0 -1 118 c-1 64 -4 128 -8 141
-12 45 -83 78 -136 64z"/>
<path d="M7860 709 c-13 -6 -33 -17 -42 -26 -17 -15 -18 -15 -18 5 0 19 -6 22
-40 22 l-40 0 0 -160 0 -160 39 0 38 0 5 110 c5 122 18 150 69 150 47 0 59
-30 59 -152 l0 -108 40 0 40 0 0 131 c0 74 -5 139 -11 151 -11 21 -67 48 -96
47 -10 0 -29 -5 -43 -10z"/>
<path d="M8366 710 c-34 -11 -73 -45 -92 -82 -19 -38 -18 -126 4 -168 38 -77
167 -103 242 -50 38 27 69 90 70 139 0 49 -36 117 -74 141 -39 24 -109 33
-150 20z m105 -89 c76 -76 0 -210 -91 -161 -25 13 -43 73 -36 115 7 37 47 75
78 75 11 0 33 -13 49 -29z"/>
<path d="M8794 706 c-18 -8 -35 -19 -38 -25 -11 -17 -27 -13 -24 7 2 13 -5 18
-34 20 l-38 3 0 -160 0 -161 40 0 40 0 0 104 c0 89 3 107 21 130 13 17 30 26
49 26 47 0 55 -21 55 -146 l0 -114 43 0 42 0 0 130 c0 128 0 130 -27 159 -34
36 -85 47 -129 27z"/>
<path d="M4630 576 c0 -128 1 -136 24 -163 21 -24 31 -28 79 -28 38 0 61 5 74
18 24 21 33 22 33 2 0 -11 11 -15 40 -15 l40 0 0 160 0 160 -40 0 -40 0 0 -87
c0 -111 -12 -156 -46 -171 -34 -16 -41 -15 -64 8 -18 18 -20 33 -20 135 l0
115 -40 0 -40 0 0 -134z"/>
<path d="M8100 550 l0 -160 45 0 45 0 0 160 0 160 -45 0 -45 0 0 -160z"/>
</g>
</svg>
