<svg width="65" height="48" viewBox="0 0 65 48" fill="none" xmlns="http://www.w3.org/2000/svg">
<path d="M65 24.0454C64.9977 24.7231 64.8665 25.3942 64.6133 26.0231C64.4834 26.3308 64.327 26.6266 64.146 26.9074C63.9424 27.2031 63.7161 27.4826 63.4693 27.7435L44.6492 46.5554C43.6421 47.5026 42.3045 48.0206 40.9207 47.9994C39.5369 47.9782 38.216 47.4195 37.2384 46.4419C36.2609 45.4643 35.7038 44.145 35.6855 42.7641C35.6672 41.3833 36.1892 40.0497 37.1406 39.0467L46.8084 29.3996H5.31731C3.90707 29.3996 2.5546 28.8406 1.55741 27.8455C0.560223 26.8505 0 25.5009 0 24.0937C0 22.6864 0.560223 21.3369 1.55741 20.3418C2.5546 19.3467 3.90707 18.7877 5.31731 18.7877H46.8084L37.1406 9.1406C36.6401 8.64863 36.2417 8.06311 35.968 7.41749C35.6944 6.77187 35.5508 6.07878 35.5456 5.3778C35.5403 4.67682 35.6735 3.98169 35.9375 3.33207C36.2015 2.68245 36.5911 2.09107 37.0842 1.59171C37.5772 1.09235 38.164 0.694778 38.811 0.421697C39.458 0.148616 40.1525 0.00537414 40.855 0.000148523C42.2737 -0.0104051 43.6386 0.541851 44.6492 1.53543L63.437 20.283C63.6837 20.5383 63.91 20.8125 64.1138 21.103C64.2947 21.3783 64.451 21.6688 64.5811 21.9713C64.8559 22.6285 64.9983 23.3333 65 24.0454Z" fill="#4B9BD9"/>
</svg>
