<svg id="Vrstva_2" data-name="Vrstva 2" xmlns="http://www.w3.org/2000/svg" viewBox="0 0 548.89 76.85"><defs><style>.cls-1{fill:#80ba27;}.cls-2{fill:#004899;}.cls-3{fill:none;stroke:#c6c6c6;stroke-miterlimit:10;stroke-width:2px;}</style></defs><path class="cls-1" d="M288.62,43.65a6.36,6.36,0,0,0-.87.06l-1.44-4.32a5.3,5.3,0,1,0-7.95-6.6l-14-1.91A4.8,4.8,0,0,0,254.91,32v.12L243,36.3a5.1,5.1,0,1,0-6.93,7.39l-2.15,6.77a6.31,6.31,0,1,0,5.87,10.29l11.76,3.38A9,9,0,0,0,269.5,63c0-.22,0-.43,0-.64l14.14-6.83a7,7,0,1,0,5-11.83m-5.91-12.52A3.69,3.69,0,1,1,279,34.82a3.69,3.69,0,0,1,3.69-3.69m-23.2-2.87A3.53,3.53,0,1,1,256,31.79a3.53,3.53,0,0,1,3.53-3.53M235.07,39.13a3.58,3.58,0,1,1,3.57,3.58,3.57,3.57,0,0,1-3.57-3.58m-.68,21.53A4.59,4.59,0,1,1,239,56.07a4.58,4.58,0,0,1-4.58,4.59M259.75,69a6.82,6.82,0,1,1,6.81-6.82A6.82,6.82,0,0,1,259.75,69m8.36-10.85a9,9,0,0,0-16,1.39L241.25,57.1c0-.14,0-.28,0-.42a6.28,6.28,0,0,0-3.41-5.6l1.59-6.39a5.1,5.1,0,0,0,4.77-5.08,4.94,4.94,0,0,0-.08-.87l11.33-4.46a4.79,4.79,0,0,0,8.91-1.16l13.42,2.36a5.3,5.3,0,0,0,4.94,5l1.11,5.07a7,7,0,0,0-2.2,5.08,7.08,7.08,0,0,0,.19,1.6Zm20-3.4a4.86,4.86,0,1,1,4.86-4.86,4.86,4.86,0,0,1-4.86,4.86" transform="translate(-35.74 -11.18)"/><path class="cls-1" d="M475.55,33.07H434.74a1.65,1.65,0,0,0,0,3.3h18.75V58.63a1.65,1.65,0,1,0,3.3,0V36.37h18.76a1.65,1.65,0,0,0,0-3.3M583,57H552.6a10.32,10.32,0,0,1-7.26-17.6,10.17,10.17,0,0,1,7.26-3H583a1.65,1.65,0,0,0,0-3.3H552.6a13.61,13.61,0,0,0,0,27.22H583a1.65,1.65,0,1,0,0-3.3M323.68,36.37h30.38a1.65,1.65,0,0,0,0-3.3H323.68a13.61,13.61,0,0,0,0,27.22h30.38a1.65,1.65,0,1,0,0-3.3H323.68a10.32,10.32,0,0,1-7.26-17.6,10.19,10.19,0,0,1,7.26-3m203.85,0a1.65,1.65,0,0,0,0-3.3H486.36a1.65,1.65,0,0,0-1.65,1.65V58.63a1.65,1.65,0,0,0,1.65,1.66h41.17a1.65,1.65,0,1,0,0-3.3H488V48.38h39.52a1.65,1.65,0,0,0,0-3.3H488V36.37Zm-118,0a1.65,1.65,0,1,0,0-3.3H368.34a1.65,1.65,0,0,0-1.65,1.65V58.63a1.65,1.65,0,0,0,1.65,1.66h41.17a1.65,1.65,0,1,0,0-3.3H370V48.38h39.52a1.65,1.65,0,1,0,0-3.3H370V36.37Zm15.38-3.3a1.65,1.65,0,0,0-1.65,1.65V58.63a1.65,1.65,0,1,0,3.3,0V34.72a1.65,1.65,0,0,0-1.65-1.65" transform="translate(-35.74 -11.18)"/><path class="cls-2" d="M35.74,31.25h5.67v36.4H35.74Zm5.87,0h1.93l3.54,36.4H45.15Zm9.21,0h1.92l-3.53,36.4H47.28Zm2.13,0h5.72v36.4H53Z" transform="translate(-35.74 -11.18)"/><path class="cls-2" d="M80.15,31.25V59.07a3.43,3.43,0,0,0,6.86,0V31.25h5.72v28c0,4.89-4.42,8.68-9.15,8.68s-9.15-3.79-9.15-8.68v-28Z" transform="translate(-35.74 -11.18)"/><path class="cls-2" d="M116.08,31.25v36.4h-5.72V31.25Zm2.18,0,5.41,36.4h-2l-5.4-36.4Zm11.34,0v36.4h-5.72V31.25Z" transform="translate(-35.74 -11.18)"/><path class="cls-2" d="M153.47,65.62V33.28h-4.89v-2h15.55v2h-4.94V65.62h4.94v2H148.58v-2Z" transform="translate(-35.74 -11.18)"/><line class="cls-3" x1="160.04" x2="160.04" y2="76.85"/></svg>