<?xml version="1.0" encoding="utf-8"?>
<!-- Generator: Adobe Illustrator 25.4.1, SVG Export Plug-In . SVG Version: 6.00 Build 0)  -->
<svg version="1.1" id="Livello_1" xmlns="http://www.w3.org/2000/svg" xmlns:xlink="http://www.w3.org/1999/xlink" x="0px" y="0px"
	 viewBox="0 0 708 398.1" style="enable-background:new 0 0 708 398.1;" xml:space="preserve">
<style type="text/css">
	.st0{fill:#616069;}
	.st1{fill:#86C4EC;}
	.st2{fill:#B2D3ED;}
</style>
<g>
	<path class="st0" d="M308.8,237.3h-22.2c-12.6,0-22.8-10.2-22.8-22.7v-37.1c0-12.5,10.2-22.7,22.8-22.7l22.2-0.1h0
		c2.3,0,4.2,1.9,4.2,4.2c0,2.3-1.9,4.2-4.2,4.3l-22.2,0.1c-7.9,0-14.3,6.4-14.3,14.3v37.1c0,7.9,6.4,14.3,14.3,14.3h22.2
		c2.3,0,4.2,1.9,4.2,4.2C313.1,235.4,311.2,237.3,308.8,237.3"/>
	<path class="st0" d="M371.4,237.4h-26.3c-12.6,0-22.8-10.2-22.8-22.8v-37.1c0-12.6,10.2-22.8,22.8-22.8h10.6
		c12.6,0,22.8,10.2,22.8,22.8v20.6h-39.6c-2.3,0-4.2-1.9-4.2-4.2s1.9-4.2,4.2-4.2H370v-12.1c0-7.9-6.4-14.3-14.3-14.3h-10.6
		c-7.9,0-14.3,6.4-14.3,14.3v37.1c0,7.9,6.4,14.3,14.3,14.3h26.3c2.3,0,4.2,1.9,4.2,4.2S373.7,237.4,371.4,237.4"/>
	<path class="st0" d="M620.2,237h-13.1c-6.3,0-12.2-3.1-16.5-8.7c-4.1-5.3-6.3-12.3-6.3-19.7c0-15,9.4-25.5,22.8-25.5h18.7
		c2.3,0,4.2,1.9,4.2,4.2c0,2.3-1.9,4.2-4.2,4.2h-18.7c-8.6,0-14.3,6.8-14.3,17c0,11,6.4,19.9,14.3,19.9h13.1
		c7.9,0,14.3-6.4,14.3-14.3v-37.1c0-7.9-6.4-14.3-14.3-14.3h-24.5c-2.3,0-4.2-1.9-4.2-4.2c0-2.3,1.9-4.2,4.2-4.2h24.5
		c12.6,0,22.8,10.2,22.8,22.8v37.1C643,226.8,632.8,237,620.2,237"/>
	<path class="st0" d="M549.9,237.4h-13.4c-12.6,0-22.8-10.2-22.8-22.8v-37.1c0-12.6,10.2-22.8,22.8-22.8h19c2.3,0,4.2,1.9,4.2,4.2
		c0,2.3-1.9,4.2-4.2,4.2h-19c-7.9,0-14.3,6.4-14.3,14.3v37.1c0,7.9,6.4,14.3,14.3,14.3h13.4c7.9,0,14.3-6.4,14.3-14.3v-92.7
		c0-2.3,1.9-4.2,4.2-4.2c2.3,0,4.2,1.9,4.2,4.2v92.7C572.7,227.2,562.4,237.4,549.9,237.4"/>
	<path class="st0" d="M420.1,237.4h-24.3c-2.3,0-4.2-1.9-4.2-4.2s1.9-4.2,4.2-4.2h24.3c7.6,0,13.8-6.2,13.8-13.8
		c0-6.5-4.6-12.2-11-13.5l-11.9-2.5c-1.9-0.3-4.6-1.1-5.4-1.4c-8.6-3.3-14.3-11.6-14.3-20.8c0-12.3,10-22.2,22.2-22.2h18.3
		c2.3,0,4.2,1.9,4.2,4.2c0,2.3-1.9,4.2-4.2,4.2h-18.3c-7.6,0-13.8,6.2-13.8,13.8c0,5.7,3.6,10.8,8.8,12.9c0.4,0.2,2.6,0.8,3.9,1
		l0.1,0l11.9,2.5c10.3,2.1,17.8,11.3,17.8,21.8C442.4,227.4,432.4,237.4,420.1,237.4"/>
	<path class="st0" d="M479.4,237.4h-24.3c-2.3,0-4.2-1.9-4.2-4.2s1.9-4.2,4.2-4.2h24.3c7.6,0,13.8-6.2,13.8-13.8
		c0-6.5-4.6-12.2-11-13.5l-11.9-2.5c-1.9-0.3-4.6-1.1-5.4-1.4c-8.6-3.3-14.3-11.6-14.3-20.8c0-12.3,10-22.2,22.2-22.2h18.3
		c2.3,0,4.2,1.9,4.2,4.2c0,2.3-1.9,4.2-4.2,4.2h-18.3c-7.6,0-13.8,6.2-13.8,13.8c0,5.7,3.6,10.8,8.9,12.9c0.4,0.2,2.6,0.8,3.9,1
		l0.1,0l11.9,2.5c10.3,2.1,17.8,11.3,17.8,21.8C501.7,227.4,491.7,237.4,479.4,237.4"/>
	<circle class="st0" cx="148.6" cy="195.3" r="13"/>
	<g>
		<path class="st1" d="M199.5,152.2l-22.9-22.8c-6.2-6.2-14.1-10.1-22.8-11.3c-1.8-0.2-3.6-0.4-5.4-0.4h0
			c-10.7,0-20.6,4.1-28.2,11.6l-38.2,38.2c-7.5,7.5-11.6,17.5-11.6,28.2c0,10.7,4.1,20.7,11.7,28.2l22.9,23c2.4,2.4,5.6,3.7,9,3.7
			c3.4,0,6.6-1.3,9-3.7c2.4-2.4,3.8-5.6,3.8-9.1c0-3.4-1.3-6.7-3.7-9.1l-22.8-23c-2.7-2.7-4.2-6.2-4.2-10c0-3.8,1.4-7.3,4.1-10
			l38.2-38.2c2.7-2.7,6.2-4.1,10-4.1c3.8,0,7.3,1.5,10,4.1l22.9,22.8c2.4,2.4,5.7,3.8,9.1,3.8c3.4,0,6.7-1.3,9.1-3.8
			c2.4-2.4,3.8-5.7,3.8-9.1C203.2,157.9,201.9,154.6,199.5,152.2z"/>
		<path class="st2" d="M215.1,168l-22.9-23c-2.4-2.4-5.6-3.7-9-3.7c-3.4,0-6.6,1.3-9,3.7c-2.4,2.4-3.8,5.6-3.8,9.1
			c0,3.4,1.3,6.7,3.7,9.1l22.8,23c2.7,2.7,4.2,6.2,4.2,10c0,3.8-1.4,7.3-4.1,10l-38.2,38.2c-2.7,2.7-6.2,4.1-10,4.1
			c-3.8,0-7.3-1.5-10-4.1l-22.9-22.8c-2.4-2.4-5.7-3.8-9.1-3.8c-3.4,0-6.7,1.3-9.1,3.8c-2.4,2.4-3.8,5.7-3.8,9.1
			c0,3.4,1.3,6.7,3.8,9.1l22.9,22.8c6.2,6.2,14.1,10.1,22.8,11.3c1.8,0.2,3.6,0.4,5.4,0.4h0c10.7,0,20.6-4.1,28.2-11.6l38.2-38.2
			c7.5-7.5,11.6-17.5,11.6-28.2C226.7,185.5,222.6,175.5,215.1,168z"/>
		<path class="st1" d="M114,250.5c-0.6,0-1.2,0-1.7-0.1c-2.8-0.4-5.4-1.6-7.4-3.6l-22.9-22.8c-7.5-7.5-11.7-17.5-11.7-28.2
			c0-10.7,4.1-20.7,11.6-28.2l18.2-18.2l17.9,18.5l-17.9,17.9c-2.7,2.7-4.1,6.2-4.1,10c0,3.8,1.5,7.3,4.1,10l22.9,22.8
			c2.4,2.4,3.8,5.7,3.8,9.1c0,3.4-1.3,6.7-3.8,9.1C120.7,249.2,117.5,250.5,114,250.5z"/>
	</g>
</g>
</svg>
