<?xml version="1.0" encoding="utf-8"?>
<!-- Generator: Adobe Illustrator 25.4.1, SVG Export Plug-In . SVG Version: 6.00 Build 0)  -->
<svg version="1.1" id="Layer_1" xmlns="http://www.w3.org/2000/svg" xmlns:xlink="http://www.w3.org/1999/xlink" x="0px" y="0px"
	 viewBox="0 0 445.4 214.2" style="enable-background:new 0 0 445.4 214.2;" xml:space="preserve">
<style type="text/css">
	.st0{fill-rule:evenodd;clip-rule:evenodd;fill:#E52A1B;}
	.st1{fill:none;stroke:#00643A;stroke-width:6.9999;stroke-miterlimit:22.9256;}
	.st2{fill-rule:evenodd;clip-rule:evenodd;}
</style>
<g>
	<polygon class="st0" points="0,177.6 444.5,177.6 444.5,184.1 0,184.1 0,177.6 	"/>
	<path class="st1" d="M135.6,6.8l3.3,32.5c0,0-25.4-15-47.5-11.2C69.3,32,57.6,49,57.1,72.9c-0.1,6,0.1,12,0.7,17.8
		c1.9,17.5,7.9,33.5,21.4,42.6c18,12.2,40.4,6.9,48,5.1c7.3-1.7,29.8-12,31.6-12.9c0.1,0,0.1-0.1,0.1-0.1L147.5,160
		c0,0-18.7,5.9-44.3,6c-0.5,0-1,0-1.5,0c-0.6,0-1.1,0-1.7,0c-11-0.1-22.4-1.1-33-4.2c-48.9-14-72.8-70.5-48.7-116.4
		C28.1,27.1,45.3,12.9,69,6.8C91.2,1.1,113.1,3.9,135.6,6.8L135.6,6.8z M204.6,163.1h-42.9c0,0,8.1-7.5,8.5-18.4
		c0.4-10.9-0.8-110.4-0.8-110.4c-0.1-0.9-0.2-1.7-0.4-2.6c-1.6-10.5-2.5-14.4-12.6-22.9H205l71.8,93.6V30.7c0-3.6-0.5-6.4-1.8-9.9
		c-0.9-2.6-2.6-5.1-4.2-7.3l-3-4.2h1.6h39.8c0,0,0,0,0,0c-0.2,0.2-2,2.6-3.8,5.5c-1.8,3-3.5,6.6-3.5,9.5c0,3.7,0,55.5,0,94.7
		c0,21,0,38.4,0,42.9c0,1.2,0.3,1.2-0.8,0.8c-3.9-1.3-20.3-7.7-36-24c-17.9-18.7-70.1-84.4-70.1-84.4l-0.2,59.3
		c0,11.6-0.4,23.3,2.9,34.6C199.9,155.5,204.6,163.1,204.6,163.1L204.6,163.1z M316.2,9.2h66c0,0,22.8-2.2,36.7,14
		c14,16.2,6.2,38.5,3.6,42.6c-0.7,1-1.6,2.2-2.6,3.4c-3,3.6-6.8,7.3-6.8,7.3s18.2,5,25.3,22.4c6.8,16.7,2.4,37.9-3.6,46.8
		c-0.3,0.4-0.5,0.7-0.8,1.1c-10.4,13.3-27.8,16.3-43.6,16.3l-85.2,0c-4.3,0-3.5,0.3,0.1-2c6.1-3.9,18.2-13.2,18.1-24.6
		c-0.1-15.1,0-108.2,0-108.2s0.3-6.6-3-11.4c-3.3-4.8-6.7-7.6-6.7-7.6H316.2L316.2,9.2z M366.8,32.3c0,0,21.2-5.4,21.7,16.9
		c0.5,22.3-21.7,19.1-21.7,19.1V32.3L366.8,32.3z M366.8,88.4c0,0,31.8-6.1,32.5,25.3c0.7,31.5-32.5,26.1-32.5,26.1V88.4L366.8,88.4
		z"/>
	<path d="M195.9,196.6l-4.9,12.2c-1.4,3.6-1.9,4.4-2.5,5.2h4.2c-0.1-1.7,0.6-3.6,0.9-4.4l0.9-2.4h6.1l1,2.9c0.6,1.8,0.7,2.9,0.7,3.8
		l4.1-0.1c-0.6-1.1-1.5-2.5-2.7-5.9l-4.2-11.4c-0.5-1.3-1-3.4-1.4-4.6h-2.3c0.4,0.5,0.5,1.1,0.6,1.9
		C196.5,195.1,196.3,195.6,195.9,196.6L195.9,196.6z M197.6,198.9l2,5.8h-4.2L197.6,198.9L197.6,198.9z M228.6,198.2
		c0-1.1,0-2.6,0.1-4c5.5,1,6.7,5.8,6.7,8.8c0,3.4-1.6,8.2-6.7,8.9c-0.1-1.7-0.1-2.6-0.1-5V198.2L228.6,198.2z M226,207.4
		c0,4-0.3,5.3-0.7,6.6h4.2c5.6,0,9-5,9-10.7c0-2.1-0.5-4.4-1.7-6.5c-2.6-4.2-6.5-4.6-9.6-4.6c-0.8,0-1.2,0.1-1.8,0.1
		c0.2,1,0.7,2.8,0.7,5.9V207.4L226,207.4z M217.1,210c-1.8,0.9-3.6,1.5-6.7,1.9l0.1-14.2c0-3.2,0.3-4.2,0.7-5.3h-3.9
		c0.3,1,0.6,2,0.6,5.1v9.6c0,4.8-0.3,5.6-0.7,7h8.4L217.1,210L217.1,210z M172.7,192.3c1,1,1.3,1.1,1.5,2.9v13.1
		c0,0.4,0,3.5-0.6,5.7h3.7c-0.5-1.8-0.7-4.5-0.7-6.4v-8.6l7.4,11.8c0.6,1,1.2,2,1.5,3.1h3.2c-0.3-0.9-0.6-2.1-0.6-5.4v-11.7
		c0-2.3,0.2-3.5,0.4-4.6h-3.3c0.3,1.2,0.5,2.3,0.5,6.3v9.9l-7.8-12.5c-1.4-2.2-1.5-2.7-1.8-3.7H172.7L172.7,192.3z M156.7,202.4
		c0-4.2,2.2-8,5.7-8c4,0,6.8,4.9,6.8,9.5c0,3.4-1.8,8-5.6,8C160.3,211.8,156.7,208.3,156.7,202.4L156.7,202.4z M153.8,202.9
		c0,5.6,3.5,11.3,9,11.3c4.9,0,9-4.3,9-11.1c0-5.5-2.9-11-8.6-11C157.3,192.1,153.8,198.1,153.8,202.9L153.8,202.9z M148.7,192.3
		c0.4,1.3,0.7,2.7,0.7,5.2v10.4c0,3.6-0.3,4.9-0.7,6.2h3.9c-0.5-2.3-0.6-3.5-0.6-6v-10c0-3.3,0.3-4.5,0.6-5.7H148.7L148.7,192.3z
		 M147.5,192.9c-0.9-0.4-1.9-0.8-3.7-0.8c-6.2,0-10.1,5.8-10.1,11.6c0,3.9,2,10.6,8.7,10.6c2.7,0,4.3-1,5.4-1.7l0.1-3.4
		c-0.9,0.9-2.4,2.4-5.1,2.4c-4.1,0-6.4-3.8-6.4-8.3c0-4.9,2.7-8.5,6.5-8.5c2.1,0,3.5,0.9,4.5,1.6V192.9L147.5,192.9z M124,196.6
		l-4.9,12.2c-1.4,3.6-1.9,4.4-2.5,5.2h4.2c-0.1-1.7,0.6-3.6,0.9-4.4l0.9-2.4h6.1l1,2.9c0.6,1.8,0.7,2.9,0.7,3.8l4.1-0.1
		c-0.6-1.1-1.5-2.5-2.7-5.9l-4.2-11.4c-0.5-1.3-1-3.4-1.4-4.6h-2.3c0.4,0.5,0.5,1.1,0.6,1.9C124.6,195.1,124.5,195.6,124,196.6
		L124,196.6z M125.8,197.7l2,7h-4.2L125.8,197.7L125.8,197.7z M100.8,192.3c1,1,1.3,1.1,1.5,2.9v13.1c0,0.4,0,3.5-0.6,5.7h3.7
		c-0.5-1.8-0.7-4.5-0.7-6.4v-8.6l7.4,11.8c0.6,1,1.2,2,1.5,3.1h3.2c-0.3-0.9-0.6-2.1-0.6-5.4v-11.7c0-2.3,0.2-3.5,0.4-4.6h-3.3
		c0.3,1.2,0.5,2.3,0.5,6.3v9.9L106,196c-1.4-2.2-1.5-2.7-1.8-3.7H100.8L100.8,192.3z M77.9,202.4c0-4.2,2.2-8,5.7-8
		c4,0,6.8,4.9,6.8,9.5c0,3.4-1.8,8-5.6,8C81.5,211.8,77.9,208.3,77.9,202.4L77.9,202.4z M75,202.9c0,5.6,3.5,11.3,9,11.3
		c4.9,0,9-4.3,9-11.1c0-5.5-2.9-11-8.6-11C78.5,192.1,75,198.1,75,202.9L75,202.9z M66.3,194.2c3.5,0.4,4.3,3,4.3,4.7
		c0,3.3-2.6,4.3-4.3,4.8V194.2L66.3,194.2z M63.8,208.4c0,1.9-0.1,3.5-0.5,5.6h3.5c-0.5-2.3-0.5-3-0.5-4.7V204c3.6,6,4.6,7.5,7,10.1
		h2.4c-2.1-3.1-4.2-6.3-5.7-9.7c0.8-0.5,3.3-2.3,3.3-5.8c0-2.9-2.1-6.3-6.5-6.2l-3.4,0.1c0.2,0.8,0.5,1.9,0.5,4.5V208.4L63.8,208.4z
		 M49.5,192.3l-0.9,3.7c3.3-1.5,4.4-1.5,5.5-1.5v14c0,2.6-0.2,4.2-0.5,5.5h3.5c-0.4-1.7-0.5-3.5-0.5-5.2v-14.4c2,0,2.6,0.2,4.5,1.2
		l1.2-3.3H49.5L49.5,192.3z M31.7,192.3c1,1,1.4,1.1,1.5,2.9v13.1c0,0.4,0,3.5-0.6,5.7h3.7c-0.5-1.8-0.7-4.5-0.7-6.4v-8.6l7.4,11.8
		c0.6,1,1.2,2,1.5,3.1h3.2c-0.3-0.9-0.6-2.1-0.6-5.4v-11.7c0-2.3,0.2-3.5,0.4-4.6h-3.3c0.3,1.2,0.5,2.3,0.5,6.3v9.9L36.8,196
		c-1.4-2.2-1.5-2.7-1.8-3.7H31.7L31.7,192.3z M20.9,192.3c0.5,1.9,0.6,4,0.6,5.5v10.6c0,2.8-0.3,4.3-0.6,5.6H30l1.3-3.6
		c-3.7,1.6-4.9,1.6-7.1,1.6v-8c1.3,0.1,2,0.2,3.9,1l-0.1-3.1h-3.9v-7.6c1.8-0.1,4-0.4,5.2,1.1v-3.2H20.9L20.9,192.3z M240.8,192.3
		c0.5,1.9,0.6,4,0.6,5.5v10.6c0,2.8-0.3,4.3-0.6,5.6h9.1l1.3-3.6c-3.7,1.6-4.9,1.6-7.1,1.6v-8c1.3,0.1,2,0.2,3.9,1l-0.1-3.1h-3.9
		v-7.6c1.8-0.1,4-0.4,5.2,1.1v-3.2H240.8L240.8,192.3z M19.8,192.9c-0.9-0.4-1.9-0.8-3.7-0.8c-6.2,0-10.1,5.8-10.1,11.6
		c0,3.9,2,10.6,8.7,10.6c2.7,0,4.3-1,5.4-1.7l0.1-3.4c-0.9,0.9-2.4,2.4-5.1,2.4c-4.1,0-6.4-3.8-6.4-8.3c0-4.9,2.7-8.5,6.5-8.5
		c2.1,0,3.5,0.9,4.5,1.6V192.9L19.8,192.9z"/>
	<path class="st2" d="M264.4,203.7c0,0,5.9-1.4,6,4.3c0.1,5.7-6,3.8-6,3.8V203.7L264.4,203.7z M264.5,194.7c0,0,4.4-1,4.5,3.2
		c0.1,4.2-4.5,3.6-4.5,3.6V194.7L264.5,194.7z M261.1,192.3h6.1c0,0,2.1-0.3,3.4,2c1.3,2.3,0.6,5.4,0.3,6c-0.1,0.1-0.1,0.3-0.2,0.5
		c-0.3,0.5-0.6,1-0.6,1s1.7,0.7,2.3,3.2c0.6,2.4,0.2,5.4-0.3,6.6c0,0.1,0,0.1-0.1,0.2c-1,1.9-2.6,2.3-4,2.3h-7
		c-0.1,0,0.8-2.4,0.8-3.8c0-2.1,0-15.3,0-15.3s0-0.9-0.3-1.6c-0.3-0.7-0.6-1.1-0.6-1.1H261.1L261.1,192.3z M433.2,196.6l-4.9,12.2
		c-1.4,3.6-1.9,4.4-2.5,5.2h4.2c-0.1-1.7,0.6-3.6,0.9-4.4l0.9-2.4h6.1l1,2.9c0.6,1.8,0.7,2.9,0.7,3.8l4.1-0.1
		c-0.6-1.1-1.5-2.5-2.7-5.9l-4.2-11.4c-0.5-1.3-1-3.4-1.4-4.6h-2.3c0.4,0.5,0.5,1.1,0.6,1.9C433.8,195.1,433.7,195.6,433.2,196.6
		L433.2,196.6z M435,198.9l2,5.8h-4.2L435,198.9L435,198.9z M421.2,192.3c0.4,1.3,0.7,2.7,0.7,5.2v10.4c0,3.6-0.3,4.9-0.7,6.2h3.9
		c-0.5-2.3-0.6-3.5-0.6-6v-10c0-3.3,0.3-4.5,0.6-5.7H421.2L421.2,192.3z M418.3,192.8c-1.1-0.3-2.4-0.7-4.5-0.7
		c-3.7,0-5.9,1.1-7.7,3.9c-1.4,2.1-2.2,5-2.2,7.7c0,4.1,1.8,10.6,9.5,10.6c3.2,0,4.9-0.8,6.1-1.4c-0.3-1.5-0.3-1.9-0.3-3.4v-2.6
		c0-2.1,0.3-3.1,0.5-3.8h-4.2c0.6,1.1,1.2,2,1.2,5.3v2.4c-0.8,0.4-1.5,0.8-3,0.8c-4.4,0-7-3.8-7-8.6c0-5.8,3.3-8.5,6.2-8.5
		c2.5,0,4.3,1.2,5.5,2V192.8L418.3,192.8z M388.4,202.4c0-4.2,2.2-8,5.7-8c4,0,6.8,4.9,6.8,9.5c0,3.4-1.8,8-5.6,8
		C391.9,211.8,388.4,208.3,388.4,202.4L388.4,202.4z M385.5,202.9c0,5.6,3.5,11.3,9,11.3c4.9,0,9-4.3,9-11.1c0-5.5-2.9-11-8.6-11
		C388.9,192.1,385.5,198.1,385.5,202.9L385.5,202.9z M385.3,210c-1.8,0.9-3.6,1.5-6.7,1.9l0.1-14.2c0-3.2,0.3-4.2,0.7-5.3h-3.9
		c0.3,1,0.6,2,0.6,5.1v9.6c0,4.8-0.3,5.6-0.7,7h8.4L385.3,210L385.3,210z M358.9,202.4c0-4.2,2.2-8,5.7-8c4,0,6.8,4.9,6.8,9.5
		c0,3.4-1.8,8-5.6,8C362.5,211.8,358.9,208.3,358.9,202.4L358.9,202.4z M356,202.9c0,5.6,3.5,11.3,9,11.3c4.9,0,9-4.3,9-11.1
		c0-5.5-2.9-11-8.6-11C359.5,192.1,356,198.1,356,202.9L356,202.9z M338.8,192.3c1,1,1.3,1.1,1.5,2.9v13.1c0,0.4,0,3.5-0.6,5.7h3.7
		c-0.5-1.8-0.7-4.5-0.7-6.4v-8.6l7.4,11.8c0.6,1,1.2,2,1.5,3.1h3.2c-0.3-0.9-0.6-2.1-0.6-5.4v-11.7c0-2.3,0.2-3.5,0.4-4.6h-3.3
		c0.3,1.2,0.5,2.3,0.5,6.3v9.9l-7.8-12.5c-1.4-2.2-1.5-2.7-1.8-3.7H338.8L338.8,192.3z M337.9,192.9c-0.9-0.4-1.9-0.8-3.7-0.8
		c-6.2,0-10.1,5.8-10.1,11.6c0,3.9,2,10.6,8.7,10.6c2.7,0,4.3-1,5.4-1.7l0.1-3.4c-0.9,0.9-2.4,2.4-5.1,2.4c-4.1,0-6.4-3.8-6.4-8.3
		c0-4.9,2.7-8.5,6.5-8.5c2.1,0,3.5,0.9,4.5,1.6V192.9L337.9,192.9z M300.1,192.3l-0.9,3.7c3.3-1.5,4.4-1.5,5.5-1.5v14
		c0,2.6-0.2,4.2-0.5,5.5h3.5c-0.4-1.7-0.5-3.5-0.5-5.2v-14.4c2,0,2.6,0.2,4.5,1.2l1.2-3.3H300.1L300.1,192.3z M284,202.4
		c0-4.2,2.2-8,5.7-8c4,0,6.8,4.9,6.8,9.5c0,3.4-1.8,8-5.6,8C287.6,211.8,284,208.3,284,202.4L284,202.4z M281.1,202.9
		c0,5.6,3.5,11.3,9,11.3c4.9,0,9-4.3,9-11.1c0-5.5-2.9-11-8.6-11C284.6,192.1,281.1,198.1,281.1,202.9L281.1,202.9z M274.4,192.3
		c0.4,1.3,0.7,2.7,0.7,5.2v10.4c0,3.6-0.3,4.9-0.7,6.2h3.9c-0.5-2.3-0.6-3.5-0.6-6v-10c0-3.3,0.3-4.5,0.6-5.7H274.4L274.4,192.3z
		 M313.7,192.3c0.5,1.9,0.6,4,0.6,5.5v10.6c0,2.8-0.3,4.3-0.6,5.6h9.1l1.3-3.6c-3.7,1.6-4.9,1.6-7.1,1.6v-8c1.3,0.1,2,0.2,3.9,1
		l-0.1-3.1h-3.9v-7.6c1.8-0.1,4-0.4,5.2,1.1v-3.2H313.7L313.7,192.3z"/>
</g>
</svg>
