<svg width="123" height="122" viewBox="0 0 123 122" fill="none" xmlns="http://www.w3.org/2000/svg">
<path d="M84.2375 74.1342C83.708 73.199 82.8354 72.4974 81.8101 72.1828C80.7848 71.8681 79.69 71.9658 78.7645 72.4545C78.7645 72.4545 78.6531 72.5818 78.5788 72.6667L65.0188 57.5794C65.4426 57.054 65.7212 56.425 65.8284 55.752C65.9356 55.0789 65.8677 54.3839 65.6313 53.7323L81.1929 45.4339C81.8222 46.2359 82.7241 46.7825 83.7188 46.9648C84.7134 47.1472 85.7278 46.9518 86.5594 46.4176C87.3911 45.8834 87.9791 45.0497 88.206 44.0828C88.4329 43.1158 88.2821 42.0865 87.7838 41.2003C87.2855 40.3142 86.4762 39.6362 85.5173 39.3015C84.5584 38.9669 83.5203 39.0001 82.6101 39.3947C81.7 39.7893 80.9845 40.5162 80.6065 41.4305C80.2285 42.3447 80.2157 43.3792 80.5707 44.3275L64.9906 52.6473L64.6831 52.3781C64.2384 51.9146 63.6917 51.5607 63.0892 51.3466C62.4867 51.1324 61.8462 51.0641 61.2219 51.1477L55.2593 32.0317C55.3135 31.9928 55.3578 31.9421 55.3893 31.8832C56.3054 31.3826 56.9756 30.5376 57.256 29.5294C57.5364 28.5212 57.4049 27.4301 56.8894 26.4901C56.5284 25.841 55.9989 25.2964 55.3587 24.9156C54.7184 24.5348 53.9917 24.3322 53.2571 24.3298C52.5226 24.3273 51.8083 24.5251 51.1917 24.9017C50.575 25.2783 50.0796 25.8194 49.759 26.4662C49.4384 27.1131 49.3049 27.8412 49.373 28.5714C49.441 29.3017 49.7079 30.0064 50.145 30.6091C50.582 31.2118 51.1723 31.6895 51.8521 31.9906C52.5319 32.2917 53.2751 32.4046 54.0012 32.317L59.9604 51.3925C59.5788 51.5533 59.2326 51.7837 58.9391 52.0722C58.363 52.5931 57.9727 53.2871 57.8238 54.0558L35.0957 52.1497C34.9963 51.2545 34.6109 50.4049 33.9965 49.7269C33.4188 49.1645 32.6926 48.7791 31.9094 48.6194C31.1262 48.4596 30.321 48.5326 29.5951 48.8291C28.8692 49.1256 28.2551 49.6324 27.8301 50.2856C27.4051 50.9389 27.1882 51.7095 27.2067 52.5003C27.2252 53.2911 27.4784 54.0668 27.9341 54.7298C28.3899 55.3928 29.0279 55.9134 29.7681 56.2262C30.5082 56.5389 31.3173 56.6297 32.0935 56.4872C32.8696 56.3447 33.5781 55.9753 34.1298 55.4254C34.7028 54.9021 35.0925 54.209 35.2451 53.4418L57.9732 55.3479C58.06 56.2461 58.4472 57.0996 59.0724 57.7707L59.5336 58.1743L48.9067 77.7213C48.0312 77.392 47.0781 77.3741 46.2123 77.6704C45.3465 77.9667 44.6224 78.5586 44.1654 79.3438C43.7084 80.1291 43.5471 81.0581 43.7096 81.9703C43.872 82.8825 44.348 83.7205 45.0551 84.3392C45.7621 84.9579 46.6557 85.3184 47.5814 85.3583C48.5071 85.3983 49.4065 85.1152 50.1242 84.558C50.8418 84.0008 51.3326 83.2047 51.5113 82.3072C51.6901 81.4097 51.5458 80.4675 51.1033 79.6434C50.8189 79.1692 50.4525 78.747 50.0218 78.3973L60.6487 58.8503C61.2309 59.0786 61.8544 59.1689 62.4685 59.114C63.0825 59.0591 63.6701 58.8605 64.1833 58.5342L77.7401 73.5811C77.2905 74.1317 77.0042 74.7988 76.9116 75.511C76.8191 76.2232 76.9239 76.9538 77.2148 77.6245C77.5057 78.2952 77.9717 78.8806 78.563 79.3183C79.1543 79.756 79.8486 80.0294 80.5716 80.1092C81.2945 80.189 82.0189 80.0723 82.6672 79.7714C83.3155 79.4705 83.8632 78.9969 84.2518 78.4012C84.6404 77.8055 84.8552 77.1103 84.8732 76.3898C84.8912 75.6693 84.7118 74.9509 84.3541 74.3112L84.2375 74.1342Z" fill="#F3F3F3"/>
</svg>
