<svg width="213" height="23" viewBox="0 0 213 23" fill="none" xmlns="http://www.w3.org/2000/svg">
<path d="M12.7231 13.9915L12.4198 15.5123C11.6613 19.9226 9.08257 22.0518 5.59369 22.0518C1.95312 22.0518 -0.625622 19.9226 0.132831 15.056L1.64974 6.53948C2.40819 2.12913 4.83524 0 8.47581 0C11.9647 0 14.6951 2.12913 13.9367 6.84365L13.6333 8.0603L9.99272 8.36446L10.1444 6.99573C10.4478 5.01867 9.84103 4.25827 8.6275 4.25827C7.26229 4.41035 6.35214 5.17075 6.04876 6.99573L4.68355 14.9039C4.38017 16.881 4.98693 17.6414 6.35215 17.6414C7.56567 17.6414 8.47581 16.881 8.93089 14.9039V13.6873L12.7231 13.9915Z" fill="#1D1D1D"/>
<path d="M29.4091 6.84365L27.8922 15.5123C27.1338 19.9226 24.4033 22.0518 20.6111 22.0518C16.9705 22.0518 14.0884 19.9226 14.8468 15.056L16.3637 6.53948C17.1222 2.12913 20.0043 0 23.6449 0C27.1338 0 30.1676 2.12913 29.4091 6.84365ZM20.7628 6.99573L19.3976 14.9039C19.0942 16.881 19.7009 17.6414 21.0662 17.6414C22.2797 17.6414 23.3415 16.881 23.6449 14.9039L25.0101 6.99573C25.3135 5.01867 24.7067 4.25827 23.4932 4.25827C22.128 4.41035 21.0662 5.17075 20.7628 6.99573Z" fill="#1D1D1D"/>
<path d="M41.5443 0.304199H45.6399L37.752 21.7476H32.4429L31.9878 0.304199H36.8419L36.6902 14.2957L41.5443 0.304199Z" fill="#1D1D1D"/>
<path d="M52.4662 0.304199L48.6739 21.7476H44.2749L48.0672 0.304199H52.4662Z" fill="#1D1D1D"/>
<path d="M52.0112 21.7476L55.8035 0.304199H61.5677C65.2083 0.304199 67.7871 2.28125 67.0286 6.99577L65.5117 15.3602C64.7532 19.7706 62.3262 21.7476 58.6856 21.7476H52.0112ZM58.5339 17.6414C59.7474 17.6414 60.8093 16.881 61.1127 14.904L62.4779 7.29993C62.7813 5.32287 62.1745 4.56247 60.8093 4.56247H59.4441L57.1687 17.6414H58.5339Z" fill="#1D1D1D"/>
<path d="M69.3038 10.4937H77.3434L76.7366 13.6874H68.697L69.3038 10.4937Z" fill="#1D1D1D"/>
<path d="M81.8941 2.28125L85.838 0.304199H86.7482L82.9559 21.7476H78.5569L81.8941 2.28125Z" fill="#1D1D1D"/>
<path d="M95.2428 12.6227C94.4844 13.5352 93.5742 14.2956 91.9056 14.2956C89.1752 14.2956 87.5066 12.6227 87.9617 9.12486L88.5685 6.23532C89.3269 2.12913 91.4506 0 95.2428 0C99.3385 0 101.614 2.12913 100.855 6.3874L99.3385 15.056C98.58 19.3143 96.6081 22.0518 92.3607 22.0518C88.1134 22.0518 86.4448 19.9226 87.0516 16.5768L87.2032 15.8164L90.9955 15.5123V15.8164C90.6921 17.1852 91.1472 17.9456 92.5124 17.9456C93.8776 17.9456 94.7878 16.881 95.0912 15.056L95.2428 12.6227ZM96.3047 6.53948C96.6081 4.86659 96.153 3.95411 94.7878 3.95411C93.4226 3.95411 92.6641 4.86659 92.3607 6.53948L92.0573 8.66862C91.754 10.1894 92.209 11.254 93.5742 11.254C94.9395 11.254 95.6979 10.1894 96.0013 8.66862L96.3047 6.53948Z" fill="#1D1D1D"/>
<path d="M104 22L107.848 0H112.978C116.312 0 118.621 2.04651 117.851 6.39535L116.312 15.6047C115.543 19.9535 113.234 22 109.9 22H104ZM109.9 19.6977C111.695 19.6977 113.234 18.4186 113.747 15.6047L115.286 6.65116C115.799 3.83721 114.773 2.55814 112.978 2.55814H110.413L107.335 19.4419H109.9V19.6977Z" fill="#1D1D1D"/>
<path d="M118.094 17L119.306 10.75C119.79 7.5 121.487 6 123.668 6C125.122 6 126.092 6.75 126.334 8L126.576 6.25H129L126.334 21.75H123.911L124.153 20.25C123.426 21.5 122.456 22 121.002 22C119.063 22 117.609 20.25 118.094 17ZM124.88 17L125.849 11C126.092 9.25 125.607 8.25 124.153 8.25C122.941 8.25 121.972 9.25 121.487 11L120.518 17C120.275 18.75 121.002 19.75 122.214 19.75C123.668 19.5 124.638 18.75 124.88 17Z" fill="#1D1D1D"/>
<path d="M136.137 21.494C135.279 21.747 134.42 22 133.275 22C130.985 22 129.554 20.7349 130.126 18.2048L132.13 8.08434H130.126L130.699 6.06024C132.989 6.06024 133.847 6.06024 134.992 1H136.996L135.851 6.06024H139L138.428 8.08434H135.279L133.275 17.6988C132.989 18.9639 133.561 19.4699 134.42 19.4699C135.279 19.4699 136.137 19.2169 136.71 18.7108L136.137 21.494Z" fill="#1D1D1D"/>
<path d="M138.094 17L139.306 10.75C139.79 7.5 141.487 6 143.668 6C145.122 6 146.092 6.75 146.334 8L146.576 6.25H149L146.334 21.75H143.911L144.153 20.25C143.426 21.5 142.456 22 141.002 22C139.063 22 137.609 20.25 138.094 17ZM144.88 17L145.849 11C146.092 9.25 145.607 8.25 144.153 8.25C142.941 8.25 141.972 9.25 141.487 11L140.518 17C140.275 18.75 141.002 19.75 142.214 19.75C143.668 19.5 144.638 18.75 144.88 17Z" fill="#1D1D1D"/>
<path d="M156.732 22H154L157.726 0H162.693C165.674 0 167.413 1.53488 166.916 5.11628L166.171 8.95349C165.674 12.2791 163.935 13.814 160.955 13.814H157.726L156.732 22ZM163.935 8.69767L164.432 5.11628C164.68 3.32558 163.935 2.30232 162.197 2.30232H159.961L158.471 11.2558H160.706C162.445 11.5116 163.687 10.7442 163.935 8.69767Z" fill="#1D1D1D"/>
<path d="M167.074 16.6704L168.027 10.3047C168.504 6.59141 170.65 5 173.034 5C175.656 5 177.564 6.85665 176.848 10.3047L175.895 16.6704C175.418 20.1184 173.511 21.9751 170.888 21.9751C168.504 22.2403 166.597 20.3837 167.074 16.6704ZM173.749 16.9356L174.703 10.5699C174.941 8.7133 174.464 7.65235 173.034 7.65235C171.842 7.65235 170.888 8.7133 170.65 10.5699L169.458 16.9356C169.219 18.7922 169.696 19.8532 171.127 19.8532C172.319 19.588 173.511 18.7922 173.749 16.9356Z" fill="#1D1D1D"/>
<path d="M180.778 5.26984H183.556L183.278 7.42857C184.111 5.80952 185.5 5 188 5L187.444 8.2381C187.167 7.96826 186.333 7.96825 186.056 7.96825C183.833 7.96825 183 9.5873 182.444 12.8254L180.778 22H178L180.778 5.26984Z" fill="#1D1D1D"/>
<path d="M192.774 21.494C192.106 21.747 191.438 22 190.547 22C188.766 22 187.653 20.7349 188.098 18.2048L189.657 8.08434H188.098L188.543 6.06024C190.325 6.06024 190.992 6.06024 191.883 1H193.442L192.551 6.06024H195L194.555 8.08434H191.883L190.325 17.6988C190.102 18.9639 190.547 19.4699 191.215 19.4699C191.883 19.4699 192.551 19.2169 192.996 18.7108L192.774 21.494Z" fill="#1D1D1D"/>
<path d="M195.102 17L196.424 10.75C196.953 7.5 198.804 6 201.183 6C202.77 6 203.827 6.75 204.092 8L204.356 6.25H207L204.092 21.75H201.448L201.712 20.25C200.919 21.5 199.861 22 198.275 22C196.16 22 194.574 20.25 195.102 17ZM202.505 17L203.563 11C203.827 9.25 203.299 8.25 201.712 8.25C200.39 8.25 199.333 9.25 198.804 11L197.746 17C197.482 18.75 198.275 19.75 199.597 19.75C201.183 19.5 202.241 18.75 202.505 17Z" fill="#1D1D1D"/>
<path d="M209.306 22H208.074C207.089 22 206.843 21.4884 207.089 20.4651L210.537 0H213L209.306 22Z" fill="#1D1D1D"/>
</svg>
