<?xml version="1.0" encoding="utf-8"?>
<!-- Generator: Adobe Illustrator 25.4.1, SVG Export Plug-In . SVG Version: 6.00 Build 0)  -->
<svg version="1.1"
	 id="svg2" xmlns:cc="http://creativecommons.org/ns#" xmlns:dc="http://purl.org/dc/elements/1.1/" xmlns:rdf="http://www.w3.org/1999/02/22-rdf-syntax-ns#" xmlns:svg="http://www.w3.org/2000/svg"
	 xmlns="http://www.w3.org/2000/svg" xmlns:xlink="http://www.w3.org/1999/xlink" x="0px" y="0px" viewBox="0 0 861.3 241.3"
	 style="enable-background:new 0 0 861.3 241.3;" xml:space="preserve">
<style type="text/css">
	.st0{fill:none;stroke:#254AA5;stroke-width:9.6333;stroke-miterlimit:5.152;}
	.st1{fill:none;stroke:#254AA5;stroke-width:3.46;stroke-miterlimit:5.152;}
	.st2{fill:none;stroke:#254AA5;stroke-width:5.1253;stroke-miterlimit:5.152;}
	.st3{fill:none;stroke:#254AA5;stroke-width:7.304;stroke-miterlimit:5.152;}
	.st4{fill:none;stroke:#254AA5;stroke-width:7.5587;stroke-miterlimit:5.152;}
	.st5{fill-rule:evenodd;clip-rule:evenodd;fill:#99D420;}
	.st6{fill:none;stroke:#99D420;stroke-width:2.652;stroke-miterlimit:5.152;}
	.st7{fill:#254AA5;}
	.st8{fill-rule:evenodd;clip-rule:evenodd;fill:#254AA5;}
	.st9{clip-path:url(#SVGID_00000021089499239094395960000005939337195822193570_);}
</style>
<g id="g10" transform="matrix(1.3333333,0,0,-1.3333333,0,241.33333)">
	<path id="path12" class="st0" d="M73.1,35.1H49.6l0,23.5h23.5L73.1,35.1z"/>
	<path id="path14" class="st1" d="M5.2,85.4l7.9-2.9l-2.9-7.9l-7.9,2.9L5.2,85.4z"/>
	<path id="path16" class="st2" d="M16.8,69.3l0-12.5l-12.5,0l0,12.5H16.8z"/>
	<path id="path18" class="st3" d="M40.5,46L27.9,33.4L15.3,46l12.6,12.6L40.5,46z"/>
	<path id="path20" class="st4" d="M123.8,51.3c-0.2-0.8-1-1.3-1.8-1.1l-30.5,7.6c-0.8,0.2-1.3,1-1.1,1.8L98,90.1
		c0.2,0.8,1,1.3,1.8,1.1l30.5-7.6c0.8-0.2,1.3-1,1.1-1.8L123.8,51.3z M135.1,64.4c-0.2-0.8-1-1.3-1.8-1.1l-24.5,6.1
		c-0.8,0.2-1.3,1-1.1,1.8l6.1,24.5c0.2,0.8,1,1.3,1.8,1.1l24.5-6.1c0.8-0.2,1.3-1,1.1-1.8L135.1,64.4z M115,96.9l-16.2-5.8
		 M141.3,89.6l-9.9-7.4 M134.9,63.9l-11.5-13.4 M108.2,70.3L91.2,59.2"/>
	<path id="path22" class="st5" d="M35,150.5c0,0-13.5,34.8,29.7,27.9c54.8-8.7,113.8-18,113.8-18s12.2-1.5,16.4-18.4
		c0.2-0.8,21.2-64.8,21.2-64.8s6.6-17.3-11.3-25.6C183.9,41.9,112,3.9,112,3.9S88.7-6,80.7,13.9C72.8,33.7,35,150.5,35,150.5
		L35,150.5z M69.3,136c0,0-6.5,16.4,11.9,14.4c18.4-2,89.4-10.4,89.4-10.4s10.4-1,14.4-12.4c4-11.4,16.4-49.2,16.4-49.2
		s5-10.9-3.5-14.4c-8.4-3.5-83.4-35.8-83.4-35.8s-10.4-3-15.4,9.4C94.1,50.1,69.3,136,69.3,136"/>
	<path id="path24" class="st6" d="M35,150.5c0,0-13.5,34.8,29.7,27.9c54.8-8.7,113.8-18,113.8-18s12.2-1.5,16.4-18.4
		c0.2-0.8,21.2-64.8,21.2-64.8s6.6-17.3-11.3-25.6C183.9,41.9,112,3.9,112,3.9S88.7-6,80.7,13.9C72.8,33.7,35,150.5,35,150.5
		L35,150.5z M69.3,136c0,0-6.5,16.4,11.9,14.4c18.4-2,89.4-10.4,89.4-10.4s10.4-1,14.4-12.4c4-11.4,16.4-49.2,16.4-49.2
		s5-10.9-3.5-14.4c-8.4-3.5-83.4-35.8-83.4-35.8s-10.4-3-15.4,9.4C94.1,50.1,69.3,136,69.3,136L69.3,136z"/>
	<path id="path26" class="st7" d="M225.8,24.7h3.4v15h-3.4V24.7z"/>
	<path id="path28" class="st8" d="M245.1,24.8c0.4-0.1,0.9-0.1,1.6-0.2c0.6,0,1.4-0.1,2.3-0.1c1.5,0,2.8,0.2,4,0.5
		c1.2,0.3,2.2,0.8,3,1.5c0.7,0.6,1.3,1.4,1.8,2.4c0.5,1,0.7,2.2,0.7,3.6c0,1.3-0.2,2.5-0.7,3.4c-0.4,0.9-1.1,1.7-1.8,2.3
		c-0.7,0.5-1.5,0.9-2.5,1.2c-1,0.3-2.2,0.4-3.6,0.4c-0.9,0-1.7,0-2.4-0.1c-0.8-0.1-1.5-0.1-2.1-0.2L245.1,24.8z M248.5,37.1
		c0.1,0,0.3,0.1,0.6,0.1c0.3,0,0.6,0,0.9,0c1.5,0,2.6-0.4,3.5-1.2c0.8-0.8,1.3-2,1.3-3.5c0-1.8-0.5-3.1-1.4-4
		c-0.9-0.9-2.1-1.3-3.7-1.3c-0.2,0-0.4,0-0.6,0s-0.4,0-0.5,0.1V37.1"/>
	<path id="path30" class="st7" d="M282.5,33.8H277v3.1h5.8v2.8h-9.2v-15h9.5v2.8H277V31h5.5V33.8"/>
	<path id="path32" class="st8" d="M306.3,28.6l1.2-3.8h3.6l-4.7,15H302l-4.6-15h3.5l1,3.8H306.3z M302.5,31.1l0.9,3.2
		c0.1,0.4,0.2,0.9,0.3,1.4c0.1,0.5,0.2,1,0.3,1.5h0.1c0.1-0.4,0.2-0.9,0.4-1.4c0.1-0.5,0.3-1,0.4-1.5l0.9-3.2L302.5,31.1"/>
	<path id="path34" class="st7" d="M325.6,25.4c0.4-0.2,1-0.5,1.8-0.6c0.8-0.2,1.6-0.3,2.4-0.3c2,0,3.6,0.5,4.5,1.4
		c1,0.9,1.5,2,1.5,3.3c0,1-0.3,1.9-0.9,2.7c-0.6,0.7-1.6,1.3-2.9,1.8c-1,0.3-1.7,0.7-2.1,1c-0.4,0.3-0.7,0.7-0.7,1.1
		c0,0.4,0.2,0.7,0.5,1c0.4,0.3,0.9,0.4,1.6,0.4c0.7,0,1.4-0.1,1.9-0.2c0.5-0.2,0.9-0.3,1.2-0.5l0.8,2.7c-0.4,0.2-1,0.4-1.6,0.5
		c-0.6,0.1-1.4,0.2-2.2,0.2c-1.8,0-3.2-0.5-4.1-1.3s-1.5-1.9-1.5-3.2c0-1.1,0.4-2,1.1-2.7c0.7-0.7,1.7-1.3,3-1.7
		c0.9-0.3,1.5-0.6,1.9-0.9c0.4-0.3,0.6-0.7,0.6-1.2c0-0.5-0.2-0.9-0.6-1.2c-0.4-0.3-1-0.4-1.8-0.4c-0.7,0-1.4,0.1-2.1,0.3
		c-0.7,0.2-1.2,0.4-1.7,0.6L325.6,25.4"/>
	<path id="path36" class="st8" d="M368.8,24.8c0.4-0.1,0.9-0.1,1.5-0.2c0.6,0,1.3-0.1,2.2-0.1c1.5,0,2.7,0.1,3.7,0.4
		c1,0.2,1.7,0.6,2.2,1c0.5,0.4,0.8,0.8,1.1,1.3c0.3,0.5,0.4,1.1,0.4,1.8c0,1-0.3,1.8-0.8,2.4c-0.5,0.6-1.3,1.1-2.1,1.3v0
		c0.8,0.3,1.4,0.8,1.8,1.3c0.4,0.6,0.6,1.2,0.6,1.8c0,0.7-0.2,1.3-0.5,1.8c-0.3,0.5-0.7,0.9-1.3,1.2c-0.5,0.3-1.1,0.5-1.8,0.7
		c-0.7,0.1-1.6,0.2-2.6,0.2c-0.9,0-1.7,0-2.5-0.1s-1.4-0.1-1.9-0.2L368.8,24.8z M372.1,37.2c0.1,0,0.3,0.1,0.5,0.1
		c0.2,0,0.5,0,0.9,0c0.8,0,1.4-0.1,1.8-0.4c0.4-0.3,0.6-0.7,0.6-1.3c0-0.6-0.2-1-0.7-1.3c-0.5-0.3-1.1-0.5-2-0.5h-1.1V37.2z
		 M372.1,31.3h1.2c0.9,0,1.6-0.2,2.2-0.5c0.6-0.3,0.9-0.9,0.9-1.6c0-0.8-0.3-1.3-0.9-1.7s-1.2-0.5-2-0.5c-0.3,0-0.5,0-0.7,0
		c-0.2,0-0.4,0-0.6,0.1V31.3"/>
	<path id="path38" class="st7" d="M404.2,33.8h-5.5v3.1h5.8v2.8h-9.2v-15h9.5v2.8h-6.2V31h5.5V33.8"/>
	<path id="path40" class="st7" d="M430.6,27.8c-0.4-0.1-0.8-0.3-1.3-0.4c-0.5-0.1-1-0.1-1.6-0.1c-1.5,0-2.7,0.5-3.5,1.3
		c-0.8,0.9-1.3,2-1.3,3.5c0,1.7,0.5,2.9,1.4,3.7c0.9,0.8,2,1.2,3.4,1.2c0.6,0,1.2-0.1,1.6-0.2c0.5-0.1,0.9-0.2,1.2-0.4l0.7,2.7
		c-0.3,0.2-0.8,0.3-1.4,0.4c-0.6,0.1-1.4,0.2-2.3,0.2c-1.5,0-2.9-0.3-4.1-0.9c-1.2-0.6-2.2-1.5-2.9-2.7c-0.7-1.2-1.1-2.6-1.1-4.3
		c0-1.4,0.3-2.7,0.9-3.8c0.6-1.1,1.5-2,2.6-2.7c1.2-0.7,2.6-1,4.3-1c0.9,0,1.7,0.1,2.4,0.2c0.7,0.1,1.2,0.3,1.5,0.4L430.6,27.8"/>
	<path id="path42" class="st8" d="M452.2,24.5c2.2,0,4,0.7,5.3,2.1c1.3,1.4,2,3.3,2,5.8c0,1.4-0.3,2.7-0.8,3.8
		c-0.5,1.1-1.3,2-2.4,2.7c-1.1,0.7-2.4,1-3.9,1c-1.5,0-2.8-0.4-3.8-1c-1.1-0.7-1.9-1.6-2.5-2.8c-0.6-1.2-0.9-2.5-0.9-4
		c0-1.4,0.3-2.7,0.8-3.9c0.6-1.1,1.4-2,2.4-2.7C449.5,24.8,450.7,24.5,452.2,24.5L452.2,24.5z M452.4,27.2c-1.1,0-2,0.5-2.7,1.5
		s-1,2.1-1,3.6c0,1.4,0.3,2.6,0.9,3.6c0.6,1,1.5,1.4,2.7,1.5c0.8,0,1.4-0.2,2-0.7c0.5-0.5,0.9-1.1,1.2-1.8c0.3-0.8,0.4-1.6,0.4-2.5
		c0-1.5-0.3-2.7-0.9-3.6C454.4,27.7,453.5,27.2,452.4,27.2L452.4,27.2"/>
	<path id="path44" class="st7" d="M487.8,24.7h3.3l-0.8,15h-4.4l-1.6-5c-0.3-0.8-0.5-1.7-0.8-2.7c-0.2-0.9-0.5-1.8-0.7-2.7h-0.1
		c-0.2,0.9-0.4,1.8-0.6,2.7c-0.2,0.9-0.4,1.8-0.7,2.7l-1.5,5h-4.5l-1-15h3.1l0.3,5.7c0,0.9,0.1,2,0.1,3c0,1.1,0.1,2.1,0.1,3.2h0
		c0.2-1,0.4-2,0.6-3c0.2-1,0.5-1.9,0.7-2.8l1.6-5.8h2.6l1.8,5.8c0.3,0.9,0.6,1.8,0.9,2.8c0.3,1,0.6,2,0.8,3h0c0-1.1,0-2.2,0-3.2
		c0-1,0.1-2,0.1-2.9L487.8,24.7"/>
	<path id="path46" class="st7" d="M515.6,33.8h-5.5v3.1h5.8v2.8h-9.2v-15h9.5v2.8h-6.2V31h5.5V33.8"/>
	<path id="path48" class="st7" d="M549.2,24.7h9.3v2.8h-6v12.1h-3.4V24.7"/>
	<path id="path50" class="st7" d="M573.6,24.7h3.4v15h-3.4V24.7z"/>
	<path id="path52" class="st7" d="M593,24.7h3.4v6h5.4v2.8h-5.4v3.4h5.8v2.8H593V24.7"/>
	<path id="path54" class="st7" d="M626.6,33.8h-5.5v3.1h5.8v2.8h-9.2v-15h9.5v2.8h-6.2V31h5.5V33.8"/>
	<g id="g56">
		<g>
			<defs>
				<path id="SVGID_1_" d="M137.5,126.5c0,24.7,20,44.6,44.6,44.6c24.7,0,44.6-20,44.6-44.6c0-24.7-20-44.6-44.6-44.6
					C157.5,81.8,137.5,101.8,137.5,126.5"/>
			</defs>
			<clipPath id="SVGID_00000101781953950081618050000018173613967192118919_">
				<use xlink:href="#SVGID_1_"  style="overflow:visible;"/>
			</clipPath>
			<g id="g58" style="clip-path:url(#SVGID_00000101781953950081618050000018173613967192118919_);">
				<g id="g64" transform="matrix(89.556419,0,0,89.399185,137.38281,81.76976)">
					
						<image style="overflow:visible;enable-background:new    ;" width="373" height="373" id="image66" xlink:href="617DA2D41C1A5AFE.png"  transform="matrix(2.680966e-03 0 0 -2.680966e-03 0 1)">
					</image>
				</g>
			</g>
		</g>
	</g>
	<path id="path68" class="st7" d="M317.8,51.5h-50.3c-12.8,0-23.3,3.5-31.7,10.6c-8.4,7.1-12.6,16-12.6,26.7s4.1,19.4,12.4,26
		c8.3,6.6,18.9,10,31.9,10H334l-14.7-19h-51.9c-6.2,0-11.4-1.7-15.5-5c-4.1-3.4-6.1-7.6-6.1-12.9c0-5.2,2-9.4,6.1-12.6
		c4.1-3.3,9.2-4.9,15.5-4.9h50.3L317.8,51.5"/>
	<path id="path70" class="st7" d="M442.6,70.4h59.8c2.4,0,4.5,0.4,6.4,1.2c2.4,1,3.7,2.4,3.7,4.2c0,1.8-1.2,3.2-3.7,4.2
		c-1.8,0.7-4,1-6.4,1H465c-8.3,0-15.2,1.9-20.8,5.7c-6,4.1-9,9.5-9,16.2c0,6.8,3,12.2,9,16.3c5.6,3.8,12.5,5.7,20.8,5.7h66.6
		l-14.7-19H465c-2.8,0-4.2-1-4.2-3c0-2,1.4-3,4.2-3h37.3c8.9,0,16.3-2.2,22.3-6.5c6.2-4.6,9.3-10.6,9.3-17.9
		c0-7.3-3.1-13.1-9.4-17.6c-5.8-4.3-13.2-6.4-22.2-6.4h-73.8L442.6,70.4"/>
	<path id="path72" class="st5" d="M645.5,91.7l-14.7-19H626V51.5h-22.8v21.2h-63.4v18.5l58.2,33.7h28V91.7H645.5z M603.2,91.7v16.2
		l-27.9-16.2H603.2"/>
	<path id="path74" class="st7" d="M324.5,105.8l14.8,19.1H386c0,0,39.4,0.9,39.4-26.9c0,0,1.5-16.9-18.1-24.4l3.9-3.2h25.2
		l-14.1-18.8h-21.8l-22.1,18.5h-31.1V51.5h-22.9v37.4h64c0,0,13.6-0.2,13.6,8.6s-13.8,8.3-13.8,8.3H324.5"/>
</g>
</svg>
