<svg xmlns="http://www.w3.org/2000/svg" viewBox="0 0 440.3 58"><defs><style>.cls-1{fill:#fff;}.cls-2{fill:#21ae88;}.cls-3{fill:#18223c;}.cls-4{fill:#0071b9;}</style></defs><g id="Vrstva_2" data-name="Vrstva 2"><g id="Vrstva_1-2" data-name="Vrstva 1"><rect id="canvas_background" data-name="canvas background" class="cls-1" width="174" height="58"/><g id="svg_16" data-name="svg 16"><path id="svg_1" data-name="svg 1" class="cls-2" d="M20.45,45.34l-6.87,6.85a28.13,28.13,0,0,0,30.74,0l-6.87-6.86a18.67,18.67,0,0,1-17,0Z"/><path id="svg_2" data-name="svg 2" class="cls-2" d="M12.55,20.19,5.71,13.37a27.91,27.91,0,0,0,0,31l6.85-6.82A18.58,18.58,0,0,1,12.55,20.19Z"/><path id="svg_3" data-name="svg 3" class="cls-2" d="M37.5,12.44l6.86-6.85a28.14,28.14,0,0,0-30.76,0l6.88,6.85a18.71,18.71,0,0,1,17,0Z"/><path id="svg_4" data-name="svg 4" class="cls-2" d="M29,21.86l6.84,6.81.07.08,6.9-6.9L35.93,15Z"/><path id="svg_5" data-name="svg 5" class="cls-2" d="M20.85,29.85,14,36.74l0,0,6.9,6.89,6.89-6.87Z"/><path id="svg_6" data-name="svg 6" class="cls-2" d="M21.69,16.52a5.34,5.34,0,1,0,5.36,5.34A5.34,5.34,0,0,0,21.69,16.52Z"/><path id="svg_7" data-name="svg 7" class="cls-2" d="M35.93,31.39a5.34,5.34,0,1,0,5.35,5.34A5.35,5.35,0,0,0,35.93,31.39Z"/><path id="svg_8" data-name="svg 8" class="cls-3" d="M74.66,36.69,78,42.92c-1.61,1.27-5,3.28-10.75,3.28C56.75,46.2,50,38.75,50,29.28S56.75,12.4,67.27,12.4A17.48,17.48,0,0,1,78,15.68l-3.36,6.23a12.45,12.45,0,0,0-7.07-2.1c-5.83,0-9.65,3.65-9.65,9.47s3.82,9.52,9.65,9.52A12.38,12.38,0,0,0,74.66,36.69Z"/><path id="svg_9" data-name="svg 9" class="cls-3" d="M63.91,9.59,57.44,1.11h6.75l2.57,3.18,2.57-3.18h6.8l-6.7,8.48Z"/><path id="svg_10" data-name="svg 10" class="cls-3" d="M80,41.94l3.77-6.19a14.52,14.52,0,0,0,9.56,3.66c2.11,0,3.86-.8,3.86-3s-1.66-3-6.07-4.36c-5.1-1.64-9.74-3.56-9.74-9.66s4.82-10,12.22-10a18.19,18.19,0,0,1,11.26,3.51l-3.49,5.91a13.53,13.53,0,0,0-7.86-2.63c-2.39,0-4.27.71-4.27,2.68s1.88,2.39,6.25,3.84c4.73,1.6,9.41,3.52,9.41,10.27,0,6.14-4.45,10.22-11.8,10.22-5.79,0-9.79-1.59-13.1-4.26Z"/><path id="svg_11" data-name="svg 11" class="cls-3" d="M140.12,29.28c0,9.89-6.8,16.5-17,16.5H110v-33h13.14C133.32,12.82,140.12,19.38,140.12,29.28Zm-7.85.09c0-5.77-3.49-9.61-9.6-9.61h-5V38.84h5C128.78,38.84,132.27,35,132.27,29.37Z"/><path id="svg_12" data-name="svg 12" class="cls-3" d="M162.19,39.92H149.74l-2.34,5.86h-8.18l14.38-33h4.82l14.24,33h-8.17l-2.3-5.86Zm-10-6.61h7.58L155.94,24Z"/></g><path class="cls-4" d="M258.33,24.17V13.11h2V24.17Z"/><path class="cls-4" d="M264.36,17.12a3.42,3.42,0,0,1,2.86-1.47A2.57,2.57,0,0,1,270,18.46v5.71h-1.89V19.06c0-1.24-.54-1.61-1.34-1.61a2.73,2.73,0,0,0-2.22,1.36v5.36H262.7V15.89H264l.3,1.23Z"/><path class="cls-4" d="M272.28,22a4.07,4.07,0,0,0,2.3.75c1.06,0,1.62-.43,1.62-1,0-.76-.92-.83-2.11-1.24-1.38-.49-2.17-1.07-2.17-2.4,0-1.55,1.29-2.48,3.15-2.48a5,5,0,0,1,2.88.86l-.62,1.31a4.55,4.55,0,0,0-2.21-.65c-.85,0-1.37.36-1.37.92,0,.71.77.88,1.83,1.2,1.39.41,2.53.93,2.53,2.41,0,1.71-1.36,2.7-3.38,2.7a5.08,5.08,0,0,1-3-.9Z"/><path class="cls-4" d="M284.3,15.89V17.5h-2V22c0,.54.27.73.65.73a3.46,3.46,0,0,0,1.07-.22l.47,1.35a3.65,3.65,0,0,1-2,.57,1.83,1.83,0,0,1-2.1-2V17.5h-1.3V15.89h1.3V14.83l.85-1.09h1.06v2.15Z"/><path class="cls-4" d="M288.46,13.66a1.07,1.07,0,0,1-1.19,1.08,1,1,0,0,1-1.15-1.08,1.06,1.06,0,0,1,1.15-1.09A1.08,1.08,0,0,1,288.46,13.66Zm-2.12,10.51V15.89h1.88v8.28Z"/><path class="cls-4" d="M295.16,15.89V17.5h-2V22c0,.54.27.73.65.73a3.35,3.35,0,0,0,1.07-.22l.48,1.35a3.71,3.71,0,0,1-2,.57,1.83,1.83,0,0,1-2.1-2V17.5h-1.29V15.89h1.29V14.83l.86-1.09h1.05v2.15Z"/><path class="cls-4" d="M304.1,24.17h-1.31L302.41,23a3.19,3.19,0,0,1-2.72,1.35,2.62,2.62,0,0,1-2.81-2.94V15.89h1.88V21c0,1.29.58,1.69,1.34,1.69a2.6,2.6,0,0,0,2.12-1.35V15.89h1.88Z"/><path class="cls-4" d="M310.8,15.89V17.5h-2V22c0,.54.26.73.64.73a3.46,3.46,0,0,0,1.08-.22l.47,1.35a3.71,3.71,0,0,1-2,.57,1.83,1.83,0,0,1-2.1-2V17.5h-1.29V15.89h1.29V14.83l.86-1.09h1.06v2.15Z"/><path class="cls-4" d="M319.45,23.25A5.1,5.1,0,0,1,316,24.4c-2.17,0-4-1.4-4-4.32,0-2.71,1.58-4.43,3.91-4.43a3.67,3.67,0,0,1,3.78,3.92,5.25,5.25,0,0,1-.11,1.12H314a2.19,2.19,0,0,0,2.35,2.17,3.55,3.55,0,0,0,2.35-.86ZM318,19.41c-.05-1.37-.79-2.26-2-2.26s-2,.73-2.1,2.26Z"/><path class="cls-4" d="M333.59,20a4.17,4.17,0,1,1-8.33,0,4.17,4.17,0,1,1,8.33,0Zm-6.41,0c0,1.72.86,2.7,2.24,2.7s2.25-1,2.25-2.7-.85-2.7-2.25-2.7S327.18,18.31,327.18,20Z"/><path class="cls-4" d="M335.65,14.53c0-1.61,1-2.54,2.75-2.54a3.64,3.64,0,0,1,1.44.24l-.3,1.4a3.27,3.27,0,0,0-.86-.11c-.75,0-1.12.36-1.12,1v1.33h1.93V17.5h-1.93v6.67h-1.91V17.5H334.5V15.89h1.15Z"/><path class="cls-4" d="M345.42,21.7a6.64,6.64,0,0,0,3.07.81c1.52,0,2.2-.6,2.2-1.44s-1-1.22-2.61-1.8C346.3,18.59,345,17.88,345,16s1.56-3.11,3.87-3.11A6.43,6.43,0,0,1,352.48,14l-.86,1.48a5.13,5.13,0,0,0-2.75-.86c-1.15,0-1.86.5-1.86,1.39s1.22,1.31,2.91,1.94,2.86,1.36,2.86,3c0,2.14-1.66,3.42-4.17,3.42a7.68,7.68,0,0,1-3.83-1Z"/><path class="cls-4" d="M362.38,20A4.17,4.17,0,1,1,354,20a4.18,4.18,0,1,1,8.34,0ZM356,20c0,1.72.85,2.7,2.24,2.7s2.25-1,2.25-2.7-.86-2.7-2.25-2.7S356,18.31,356,20Z"/><path class="cls-4" d="M371,23.22A4.31,4.31,0,0,1,368,24.4,4.05,4.05,0,0,1,363.79,20a4,4,0,0,1,4.12-4.33,4.44,4.44,0,0,1,2.94,1L370.08,18a3,3,0,0,0-2-.69A2.36,2.36,0,0,0,365.7,20a2.47,2.47,0,0,0,2.42,2.78A3.19,3.19,0,0,0,370.2,22Z"/><path class="cls-4" d="M374.88,13.66a1.06,1.06,0,0,1-1.18,1.08,1.05,1.05,0,0,1-1.16-1.08,1.07,1.07,0,0,1,1.16-1.09A1.08,1.08,0,0,1,374.88,13.66Zm-2.12,10.51V15.89h1.89v8.28Z"/><path class="cls-4" d="M385,20a4.17,4.17,0,1,1-8.34,0A4.18,4.18,0,1,1,385,20Zm-6.42,0c0,1.72.86,2.7,2.25,2.7s2.24-1,2.24-2.7-.85-2.7-2.24-2.7S378.56,18.31,378.56,20Z"/><path class="cls-4" d="M386.87,24.17V12.29h1.9V24.17Z"/><path class="cls-4" d="M399,20a4.17,4.17,0,1,1-8.33,0A4.17,4.17,0,1,1,399,20Zm-6.41,0c0,1.72.86,2.7,2.24,2.7s2.25-1,2.25-2.7-.85-2.7-2.25-2.7S392.59,18.31,392.59,20Z"/><path class="cls-4" d="M406.43,23a3,3,0,0,1-2.32.89c-2,0-3.7-1.46-3.7-4.09a3.84,3.84,0,0,1,3.72-4.16,3.18,3.18,0,0,1,2.43,1h.06l.38-.75h1.26v7.79c0,2.75-1.61,3.89-3.94,3.89a5.78,5.78,0,0,1-3.31-1l.7-1.42a4.12,4.12,0,0,0,2.46.74c1.27,0,2.26-.52,2.26-1.81Zm0-4.85a2.36,2.36,0,0,0-1.85-.77,2.17,2.17,0,0,0-2.18,2.39,2.13,2.13,0,0,0,2.14,2.43,2.22,2.22,0,0,0,1.89-1Z"/><path class="cls-4" d="M414.84,24.69c-.68,1.88-1.68,2.82-3.21,2.82a5.22,5.22,0,0,1-1.78-.26l.34-1.44a3.91,3.91,0,0,0,1.11.19,1.69,1.69,0,0,0,1.49-1.22l.14-.36-3.43-8.55h2l2.38,6.61L416,15.87h2Z"/><path class="cls-4" d="M265.63,40.34a5.34,5.34,0,0,1-3.54,1.21c-2.54,0-4.73-1.58-4.76-5.24S259.51,31,262.15,31a5.51,5.51,0,0,1,3.24.91L264.73,33a4.66,4.66,0,0,0-2.6-.73c-1.81,0-3.39,1.23-3.39,4.05s1.59,4,3.42,4a4.14,4.14,0,0,0,2.75-1Z"/><path class="cls-4" d="M267.79,40.23h4.3v1.14h-5.8v-1l4-5.49h-3.92V33.77H272v1Z"/><path class="cls-4" d="M279.79,40.47a4.52,4.52,0,0,1-3.14,1.08c-1.9,0-3.59-1.26-3.59-3.94s1.44-4,3.54-4A3.34,3.34,0,0,1,280,37.21a6.27,6.27,0,0,1-.07.88h-5.5a2.28,2.28,0,0,0,2.44,2.36,3.52,3.52,0,0,0,2.33-.82Zm-1-3.35c-.06-1.47-.86-2.47-2.15-2.47s-2.17.84-2.26,2.47Z"/><path class="cls-4" d="M287.81,40.5a4,4,0,0,1-2.81,1,3.67,3.67,0,0,1-3.76-4A3.65,3.65,0,0,1,285,33.58a4.14,4.14,0,0,1,2.7.91l-.61.93a3,3,0,0,0-2-.71c-1.41,0-2.46,1-2.46,2.81s1.1,2.89,2.49,2.89a3.31,3.31,0,0,0,2.12-.78Z"/><path class="cls-4" d="M290.45,34.81a3,3,0,0,1,2.46-1.21,2.37,2.37,0,0,1,2.58,2.55v5.22h-1.3V36.42a1.49,1.49,0,0,0-1.65-1.66,2.45,2.45,0,0,0-2.08,1.39v5.22h-1.3V30.47h1.29Z"/><path class="cls-4" d="M303.09,38.94l-.87,2.43h-1.43l3.78-10.15h1.55L310,41.37h-1.49l-.87-2.43Zm2.25-6.32-1.86,5.19h3.72Z"/><path class="cls-4" d="M317,40.5a4,4,0,0,1-2.81,1,3.67,3.67,0,0,1-3.76-4,3.65,3.65,0,0,1,3.72-3.94,4.13,4.13,0,0,1,2.69.91l-.61.93a3,3,0,0,0-2-.71c-1.4,0-2.46,1-2.46,2.81s1.1,2.89,2.49,2.89a3.31,3.31,0,0,0,2.12-.78Z"/><path class="cls-4" d="M318.33,34.58a4.44,4.44,0,0,1,2.9-1c2,0,2.92.83,2.92,2.71v3.55c0,.37.13.61.46.61h.28l-.14.87a1.25,1.25,0,0,1-.68.14,1,1,0,0,1-1.05-.87,2.92,2.92,0,0,1-2.37,1c-1.55,0-2.69-.66-2.69-2.26s1.37-2.17,3-2.17a11.69,11.69,0,0,1,1.9.16v-1c0-1.28-.68-1.63-1.71-1.63a3.38,3.38,0,0,0-2.25.74Zm4.53,3.67a8,8,0,0,0-1.77-.19c-1.12,0-1.87.32-1.87,1.2s.78,1.25,1.59,1.25a2.24,2.24,0,0,0,2.05-1Z"/><path class="cls-4" d="M331.61,41.37l-.2-.89h0a3.14,3.14,0,0,1-2.29,1.07c-1.61,0-3.38-1.08-3.38-4,0-2.7,1.64-4,3.3-4a3.08,3.08,0,0,1,2.24.8V30.47h1.3v10.9Zm-.37-5.72a2.56,2.56,0,0,0-2-.89c-1.13,0-2.23.82-2.23,2.81s1.13,2.81,2.2,2.81a2.44,2.44,0,0,0,2-1.07Z"/><path class="cls-4" d="M340.86,40.47a4.52,4.52,0,0,1-3.14,1.08c-1.9,0-3.58-1.26-3.58-3.94s1.43-4,3.53-4a3.34,3.34,0,0,1,3.38,3.63,6.27,6.27,0,0,1-.07.88h-5.49a2.28,2.28,0,0,0,2.43,2.36,3.52,3.52,0,0,0,2.33-.82Zm-1-3.35c-.06-1.47-.86-2.47-2.15-2.47s-2.17.84-2.26,2.47Z"/><path class="cls-4" d="M344,34.86a2.52,2.52,0,0,1,2.28-1.26A2.1,2.1,0,0,1,348.45,35,2.87,2.87,0,0,1,351,33.6c1.5,0,2.42.89,2.42,2.61v5.16h-1.32V36.31c0-1.06-.47-1.55-1.32-1.55a2.29,2.29,0,0,0-2,1.37v5.24H347.4V36.26c0-1.16-.65-1.5-1.33-1.5a2.34,2.34,0,0,0-2,1.37v5.24h-1.32v-7.6h1l.17,1.09Z"/><path class="cls-4" d="M359.08,41.84c-.6,1.64-1.5,2.55-2.8,2.55a4.06,4.06,0,0,1-1.32-.18l.23-1a2.6,2.6,0,0,0,.89.15A1.86,1.86,0,0,0,357.66,42l.14-.39-3.2-7.83H356l2.47,6.51,2.27-6.51H362Z"/><path class="cls-4" d="M374.11,37.57a3.73,3.73,0,1,1-7.45,0c0-2.79,1.81-4,3.73-4S374.11,34.78,374.11,37.57Zm-6.1,0c0,1.8.93,2.82,2.38,2.82s2.39-1,2.39-2.82-.93-2.83-2.39-2.83S368,35.77,368,37.57Z"/><path class="cls-4" d="M376.06,32.41a2,2,0,0,1,2.29-2.16,3.71,3.71,0,0,1,1.19.17l-.24,1a2.5,2.5,0,0,0-.76-.11c-.77,0-1.18.37-1.18,1.06v1.38h1.88v1.12h-1.88v6.48h-1.3V34.89h-1.12V33.77h1.12Z"/><path class="cls-4" d="M384.29,39.5a6.05,6.05,0,0,0,2.86.78c1.64,0,2.32-.7,2.32-1.61s-1-1.38-2.49-1.94-3-1.26-3-3,1.3-2.7,3.36-2.7a5.67,5.67,0,0,1,3.25.95l-.6,1a4.81,4.81,0,0,0-2.6-.82c-1.24,0-2,.56-2,1.54s1.25,1.46,2.87,2.1,2.62,1.26,2.62,2.71c0,1.82-1.39,3-3.64,3a6.85,6.85,0,0,1-3.41-.93Z"/><path class="cls-4" d="M398.46,40.5a4,4,0,0,1-2.81,1c-2.11,0-3.76-1.42-3.76-4a3.65,3.65,0,0,1,3.71-3.94,4.16,4.16,0,0,1,2.7.91l-.61.93a3,3,0,0,0-2-.71c-1.41,0-2.46,1-2.46,2.81s1.1,2.89,2.49,2.89a3.26,3.26,0,0,0,2.11-.78Z"/><path class="cls-4" d="M401.39,31.78a.87.87,0,0,1-1.73,0,.87.87,0,0,1,1.73,0Zm-1.5,9.59v-7.6h1.28v7.6Z"/><path class="cls-4" d="M409.59,40.47a4.52,4.52,0,0,1-3.14,1.08c-1.9,0-3.58-1.26-3.58-3.94s1.43-4,3.53-4a3.34,3.34,0,0,1,3.38,3.63,6.27,6.27,0,0,1-.07.88h-5.49a2.28,2.28,0,0,0,2.43,2.36,3.52,3.52,0,0,0,2.33-.82Zm-1-3.35c-.06-1.47-.86-2.47-2.15-2.47s-2.17.84-2.26,2.47Z"/><path class="cls-4" d="M412.64,34.93a3.21,3.21,0,0,1,2.67-1.35,2.29,2.29,0,0,1,2.52,2.52v5.27h-1.31V36.48c0-1.32-.58-1.7-1.43-1.7a2.72,2.72,0,0,0-2.32,1.41v5.18h-1.28v-7.6h.9l.2,1.16Z"/><path class="cls-4" d="M426,40.5a4,4,0,0,1-2.81,1c-2.11,0-3.76-1.42-3.76-4a3.65,3.65,0,0,1,3.71-3.94,4.16,4.16,0,0,1,2.7.91l-.61.93a3,3,0,0,0-2-.71c-1.41,0-2.46,1-2.46,2.81s1.1,2.89,2.49,2.89a3.26,3.26,0,0,0,2.11-.78Z"/><path class="cls-4" d="M433.29,40.47a4.56,4.56,0,0,1-3.15,1.08c-1.9,0-3.58-1.26-3.58-3.94s1.43-4,3.54-4a3.35,3.35,0,0,1,3.38,3.63,5.05,5.05,0,0,1-.08.88h-5.49c.19,1.68,1.1,2.36,2.43,2.36a3.57,3.57,0,0,0,2.34-.82Zm-1-3.35c-.06-1.47-.85-2.47-2.14-2.47s-2.18.84-2.27,2.47Z"/><path class="cls-4" d="M435.13,39.68a3.45,3.45,0,0,0,2.11.74c1.16,0,1.73-.52,1.73-1.16s-.85-.91-2-1.32c-1.32-.46-2.12-.92-2.12-2.18s1.18-2.18,2.77-2.18a4.34,4.34,0,0,1,2.57.78l-.51.93a3.94,3.94,0,0,0-2-.64c-.93,0-1.51.44-1.51,1.06s.8,1,1.74,1.29c1.23.38,2.43.8,2.43,2.21s-1.13,2.34-3,2.34a4.4,4.4,0,0,1-2.6-.82Z"/><path class="cls-4" d="M251.79,29.85a22.68,22.68,0,1,0-22.68,22.68,22.68,22.68,0,0,0,22.68-22.68"/><path class="cls-1" d="M226.2,33.17l-.7-1.61h-5.58l-3.61,8.33h-3.63v1.5H222v-1.5h-3.9L221,33.17Zm15.7,6.72L230,12.38h-1.74l-3.35,7.72,8.58,19.79h-4.36v1.5h16.42v-1.5Z"/></g></g></svg>