<?xml version="1.0" encoding="utf-8"?>
<!-- Generator: Adobe Illustrator 25.4.1, SVG Export Plug-In . SVG Version: 6.00 Build 0)  -->
<svg version="1.1" id="Capa_1" xmlns="http://www.w3.org/2000/svg" xmlns:xlink="http://www.w3.org/1999/xlink" x="0px" y="0px"
	 viewBox="0 0 123.1 48.7" style="enable-background:new 0 0 123.1 48.7;" xml:space="preserve">
<style type="text/css">
	.st0{fill:#FFFFFF;}
	.st1{fill:#BDBCBC;}
	.st2{fill:#AE0E16;}
</style>
<g>
	<rect class="st0" width="123.1" height="48.7"/>
	<g>
		<g>
			<path d="M18,34l-0.2,0.4l0,0c0,0,0-0.1,0-0.1c0-0.1-0.1-0.1-0.2-0.2C17.3,34,17.1,34,16.9,34c-0.3,0-0.6,0.1-0.8,0.3
				c-0.2,0.2-0.3,0.4-0.3,0.7c0,0.3,0.1,0.5,0.3,0.7c0.2,0.2,0.4,0.3,0.7,0.3c0.3,0,0.5-0.1,0.7-0.2c0.1-0.1,0.1-0.1,0.1-0.2
				c0,0,0,0,0-0.1l0,0l0.3,0.4l0,0c0,0-0.1,0-0.1,0c0,0,0,0-0.1,0c-0.1,0.1-0.2,0.1-0.3,0.2c-0.1,0-0.1,0.1-0.2,0.1
				c-0.2,0.1-0.3,0.1-0.5,0.1c-0.4,0-0.7-0.1-0.9-0.3c-0.3-0.2-0.4-0.5-0.4-0.9c0-0.3,0.1-0.5,0.2-0.7c0.2-0.3,0.6-0.5,1.1-0.5
				c0.3,0,0.6,0.1,0.9,0.3c0,0,0,0,0,0C17.9,34,17.9,34,18,34L18,34z"/>
			<path d="M19.5,34.2c0.3,0,0.6,0.1,0.8,0.3c0.2,0.2,0.3,0.4,0.3,0.7c0,0.2-0.1,0.4-0.2,0.5c-0.2,0.3-0.5,0.4-1,0.4
				c-0.3,0-0.6-0.1-0.8-0.3c-0.2-0.2-0.3-0.4-0.3-0.7c0-0.2,0.1-0.4,0.2-0.5c0.1-0.2,0.3-0.3,0.5-0.4C19.2,34.2,19.3,34.2,19.5,34.2
				 M19.5,34.4c-0.3,0-0.5,0.1-0.7,0.2c-0.1,0.1-0.2,0.3-0.2,0.5c0,0.2,0.1,0.4,0.2,0.5c0.2,0.2,0.4,0.3,0.7,0.3
				c0.3,0,0.5-0.1,0.7-0.3c0.1-0.1,0.2-0.3,0.2-0.5c0-0.2-0.1-0.4-0.2-0.5C20,34.4,19.8,34.4,19.5,34.4"/>
			<path d="M21.3,34.5v1.4c0,0,0,0.1,0,0.1c0,0,0,0,0.1,0v0H21v0c0,0,0.1,0,0.1,0c0,0,0-0.1,0-0.1v-1.5c0-0.1,0-0.1,0-0.1
				c0,0,0,0-0.1,0v0h0.6v0c-0.1,0-0.1,0.1-0.1,0.1c0,0,0,0.1,0.1,0.1l1.1,1.2v-1.3c0-0.1,0-0.1,0-0.1c0,0,0,0-0.1,0v0H23v0
				c0,0-0.1,0-0.1,0c0,0,0,0,0,0.1v1.5c0,0,0,0.1,0,0.1c0,0,0,0,0.1,0v0h-0.5v0c0.1,0,0.1,0,0.1-0.1c0,0,0-0.1-0.1-0.1L21.3,34.5z"
				/>
			<path d="M25.2,34.3L25,34.7l0,0c0,0,0-0.1,0-0.1c0,0,0-0.1-0.1-0.1c-0.2-0.1-0.3-0.1-0.6-0.1c-0.2,0-0.3,0-0.5,0.1
				c-0.1,0.1-0.2,0.2-0.2,0.3c0,0,0,0.1,0,0.1c0,0,0.1,0.1,0.1,0.1c0.1,0,0.1,0,0.2,0c0.1,0,0.2,0,0.4,0c0.2,0,0.3,0,0.4,0
				c0.1,0,0.2,0,0.2,0.1c0.1,0,0.1,0.1,0.2,0.2c0,0.1,0.1,0.1,0.1,0.2c0,0.2-0.1,0.3-0.2,0.4c-0.2,0.1-0.4,0.2-0.7,0.2
				c-0.1,0-0.3,0-0.4-0.1c-0.2,0-0.3-0.1-0.4-0.2c0,0,0,0,0,0c0,0,0,0-0.1,0.1l0,0l0.2-0.4l0,0c0,0,0,0,0,0c0,0,0,0,0,0
				c0,0,0.1,0.1,0.2,0.1c0.2,0.1,0.4,0.2,0.6,0.2c0.2,0,0.3,0,0.5-0.1c0.1,0,0.1-0.1,0.1-0.1c0-0.1,0.1-0.1,0.1-0.2c0,0,0-0.1,0-0.1
				c0,0-0.1-0.1-0.1-0.1c0,0-0.1,0-0.2,0c-0.1,0-0.2,0-0.3,0c-0.2,0-0.3,0-0.4,0c-0.1,0-0.2,0-0.2-0.1c-0.1,0-0.2-0.1-0.2-0.2
				c-0.1-0.1-0.1-0.2-0.1-0.3c0-0.2,0.1-0.3,0.2-0.4c0.2-0.1,0.4-0.2,0.6-0.2c0.2,0,0.5,0.1,0.7,0.2c0,0,0.1,0,0.1,0
				C25.1,34.3,25.1,34.3,25.2,34.3L25.2,34.3z"/>
			<path d="M25.8,35.2v0.7H27c0,0,0.1,0,0.1,0c0,0,0,0,0-0.1h0v0.4h0c0,0,0-0.1,0-0.1c0,0-0.1,0-0.1,0h-1.5v0c0,0,0.1,0,0.1,0
				c0,0,0-0.1,0-0.1v-1.5c0-0.1,0-0.1,0-0.1c0,0,0,0-0.1,0v0H27c0,0,0.1,0,0.1,0c0,0,0,0,0-0.1h0v0.4h0c0,0,0-0.1,0-0.1
				c0,0-0.1,0-0.1,0h-1.1V35h0.7c0,0,0.1,0,0.1,0c0,0,0,0,0-0.1h0v0.4h0c0,0,0-0.1,0-0.1c0,0-0.1,0-0.1,0H25.8z"/>
			<path d="M27.3,36l0.2-0.4l0,0c0,0,0,0.1,0,0.1c0,0,0,0,0,0.1c0.1,0,0.1,0.1,0.2,0.1c0.1,0,0.2,0,0.3,0c0.1,0,0.2,0,0.2-0.1
				c0.1,0,0.1-0.1,0.1-0.1c0,0,0-0.2,0-0.3v-1c0-0.1,0-0.1,0-0.1c0,0,0,0-0.1,0v0h0.4v0c0,0-0.1,0-0.1,0c0,0,0,0,0,0.1v1.1
				c0,0.1,0,0.2,0,0.3c0,0.1,0,0.1-0.1,0.2c-0.1,0.1-0.1,0.1-0.2,0.1c-0.1,0-0.2,0.1-0.3,0.1c-0.1,0-0.2,0-0.3,0
				c-0.1,0-0.2-0.1-0.3-0.1c0,0,0,0,0,0C27.4,36,27.4,36,27.3,36L27.3,36z"/>
			<path d="M30.3,34.2c0.3,0,0.6,0.1,0.8,0.3c0.2,0.2,0.3,0.4,0.3,0.7c0,0.2-0.1,0.4-0.2,0.5c-0.2,0.3-0.5,0.4-1,0.4
				c-0.3,0-0.6-0.1-0.8-0.3c-0.2-0.2-0.3-0.4-0.3-0.7c0-0.2,0.1-0.4,0.2-0.5c0.1-0.2,0.3-0.3,0.5-0.4C29.9,34.2,30.1,34.2,30.3,34.2
				 M30.3,34.4c-0.3,0-0.5,0.1-0.7,0.2c-0.1,0.1-0.2,0.3-0.2,0.5c0,0.2,0.1,0.4,0.2,0.5c0.2,0.2,0.4,0.3,0.7,0.3
				c0.3,0,0.5-0.1,0.7-0.3c0.1-0.1,0.2-0.3,0.2-0.5c0-0.2-0.1-0.4-0.2-0.5C30.8,34.4,30.6,34.4,30.3,34.4"/>
			<path d="M34.8,33.9l-0.2,0.4l0,0c0,0,0-0.1,0-0.1c0,0,0-0.1-0.1-0.1C34.2,34,34,34,33.7,34c-0.2,0-0.4,0-0.5,0.1
				c-0.1,0-0.1,0.1-0.2,0.1c0,0.1-0.1,0.1-0.1,0.2c0,0.1,0,0.1,0,0.2c0,0.1,0.1,0.1,0.1,0.1c0.1,0,0.1,0,0.2,0.1c0.1,0,0.2,0,0.4,0
				c0.3,0,0.4,0,0.5,0c0.1,0,0.2,0,0.3,0.1c0.2,0.1,0.3,0.3,0.3,0.5c0,0.2-0.1,0.4-0.3,0.5c-0.2,0.1-0.4,0.2-0.8,0.2
				c-0.2,0-0.4,0-0.5-0.1c-0.1,0-0.3-0.1-0.5-0.2c-0.1,0-0.1,0-0.1,0c0,0,0,0-0.1,0.1l0,0l0.2-0.4l0,0c0,0,0,0.1,0,0.1
				c0,0,0.1,0.1,0.2,0.2c0.1,0.1,0.2,0.1,0.4,0.1c0.1,0,0.2,0.1,0.4,0.1c0.3,0,0.5-0.1,0.6-0.2c0.1-0.1,0.1-0.2,0.1-0.3
				c0-0.1-0.1-0.3-0.2-0.3c-0.1,0-0.1,0-0.2,0c-0.1,0-0.2,0-0.5,0c-0.2,0-0.3,0-0.5,0c-0.1,0-0.2-0.1-0.3-0.1
				c-0.1,0-0.1-0.1-0.2-0.2c0-0.1-0.1-0.2-0.1-0.3c0-0.2,0.1-0.3,0.2-0.4c0.1-0.1,0.2-0.2,0.4-0.2c0.2-0.1,0.3-0.1,0.5-0.1
				c0.2,0,0.3,0,0.4,0c0.1,0,0.3,0.1,0.4,0.2c0,0,0.1,0,0.1,0C34.7,34,34.7,34,34.8,33.9L34.8,33.9z"/>
			<path d="M35.5,34.4v1c0,0.1,0,0.2,0,0.3c0,0.1,0,0.1,0.1,0.1c0.1,0.1,0.3,0.1,0.5,0.1c0.3,0,0.5-0.1,0.5-0.2c0,0,0.1-0.1,0.1-0.1
				c0-0.1,0-0.2,0-0.3v-1c0-0.1,0-0.1,0-0.1c0,0,0,0-0.1,0v0H37v0c0,0-0.1,0-0.1,0c0,0,0,0,0,0.1v1c0,0.2,0,0.3,0,0.4
				c0,0.1-0.1,0.2-0.3,0.3c-0.1,0.1-0.3,0.1-0.5,0.1c-0.3,0-0.6-0.1-0.7-0.2c-0.1-0.1-0.1-0.1-0.1-0.2c0-0.1,0-0.2,0-0.3v-1
				c0-0.1,0-0.1,0-0.1c0,0,0,0-0.1,0v0h0.4v0C35.5,34.3,35.5,34.3,35.5,34.4C35.5,34.3,35.5,34.3,35.5,34.4"/>
			<path d="M37.7,35.2v0.7c0,0,0,0.1,0,0.1c0,0,0,0,0.1,0v0.1h-0.4V36c0,0,0.1,0,0.1,0c0,0,0,0,0-0.1v-1.5c0,0,0-0.1,0-0.1
				c0,0,0,0-0.1,0v0h1c0.1,0,0.2,0,0.3,0c0.1,0,0.1,0,0.2,0.1c0.1,0,0.1,0.1,0.2,0.2c0,0.1,0.1,0.2,0.1,0.3c0,0.1,0,0.2-0.1,0.2
				c0,0.1-0.1,0.1-0.2,0.2c-0.1,0-0.1,0.1-0.2,0.1c-0.1,0-0.2,0-0.3,0H37.7z M37.7,35.1h0.7c0.1,0,0.2,0,0.3,0c0.1,0,0.1,0,0.1-0.1
				c0.1-0.1,0.1-0.1,0.1-0.3s0-0.2-0.1-0.3c0,0-0.1,0-0.1-0.1c-0.1,0-0.1,0-0.3,0h-0.7V35.1z"/>
			<path d="M39.8,35.2v0.7h1.2c0,0,0.1,0,0.1,0c0,0,0,0,0-0.1h0v0.4h0c0,0,0-0.1,0-0.1c0,0-0.1,0-0.1,0h-1.5v0c0,0,0.1,0,0.1,0
				c0,0,0-0.1,0-0.1v-1.5c0-0.1,0-0.1,0-0.1c0,0,0,0-0.1,0v0h1.5c0,0,0.1,0,0.1,0c0,0,0,0,0-0.1h0v0.4h0c0,0,0-0.1,0-0.1
				c0,0,0,0-0.1,0h-1.1V35h0.7c0,0,0.1,0,0.1,0c0,0,0,0,0-0.1h0v0.4h0c0,0,0-0.1,0-0.1c0,0-0.1,0-0.1,0H39.8z"/>
			<path d="M41.8,35.2v0.7c0,0,0,0.1,0,0.1c0,0,0,0,0.1,0v0h-0.4v0c0,0,0.1,0,0.1,0c0,0,0-0.1,0-0.1v-1.5c0-0.1,0-0.1,0-0.1
				c0,0,0,0-0.1,0v0h1.1c0.1,0,0.2,0,0.3,0c0.1,0,0.2,0,0.2,0.1c0.1,0.1,0.2,0.2,0.2,0.4c0,0.1,0,0.3-0.1,0.3
				c-0.1,0.1-0.2,0.1-0.4,0.2l0.5,0.7c0,0,0,0,0,0.1c0,0,0,0,0.1,0v0h-0.5v0c0,0,0.1,0,0.1,0c0,0,0,0,0-0.1l-0.4-0.7H41.8z M41.8,35
				h0.7c0.1,0,0.2,0,0.3,0c0.1,0,0.1,0,0.1,0c0.1,0,0.1-0.1,0.1-0.3c0-0.1,0-0.2-0.1-0.3c-0.1-0.1-0.2-0.1-0.4-0.1h-0.7V35z"/>
			<path d="M43.8,35.9v-1.5c0-0.1,0-0.1,0-0.1c0,0,0,0-0.1,0v0h0.5v0c0,0-0.1,0-0.1,0c0,0,0,0,0,0.1v1.5c0,0,0,0.1,0,0.1
				c0,0,0,0,0.1,0v0h-0.5v0C43.7,36,43.7,36,43.8,35.9C43.8,36,43.8,35.9,43.8,35.9"/>
			<path d="M45.6,34.2c0.3,0,0.6,0.1,0.8,0.3c0.2,0.2,0.3,0.4,0.3,0.7c0,0.2-0.1,0.4-0.2,0.5c-0.2,0.3-0.5,0.4-1,0.4
				c-0.3,0-0.6-0.1-0.8-0.3c-0.2-0.2-0.3-0.4-0.3-0.7c0-0.2,0.1-0.4,0.2-0.5c0.1-0.2,0.3-0.3,0.5-0.4C45.2,34.2,45.4,34.2,45.6,34.2
				 M45.6,34.4c-0.3,0-0.5,0.1-0.7,0.2c-0.1,0.1-0.2,0.3-0.2,0.5c0,0.2,0.1,0.4,0.2,0.5c0.2,0.2,0.4,0.3,0.7,0.3
				c0.3,0,0.5-0.1,0.7-0.3c0.1-0.1,0.2-0.3,0.2-0.5c0-0.2-0.1-0.4-0.2-0.5C46.1,34.4,45.9,34.4,45.6,34.4"/>
			<path d="M47.4,35.2v0.7c0,0,0,0.1,0,0.1c0,0,0,0,0.1,0v0h-0.5v0c0,0,0.1,0,0.1,0c0,0,0-0.1,0-0.1v-1.5c0-0.1,0-0.1,0-0.1
				c0,0,0,0-0.1,0v0h1.1c0.1,0,0.2,0,0.3,0c0.1,0,0.1,0,0.2,0.1c0.1,0.1,0.2,0.2,0.2,0.4c0,0.1,0,0.3-0.1,0.3
				c-0.1,0.1-0.2,0.1-0.4,0.2l0.5,0.7c0,0,0,0,0,0.1c0,0,0,0,0.1,0v0h-0.5v0c0,0,0.1,0,0.1,0c0,0,0,0,0-0.1l-0.4-0.7H47.4z M47.4,35
				h0.7c0.1,0,0.2,0,0.3,0c0.1,0,0.1,0,0.1,0c0.1,0,0.1-0.1,0.1-0.3c0-0.1,0-0.2-0.1-0.3c-0.1-0.1-0.2-0.1-0.4-0.1h-0.7V35z"/>
			<path d="M50.2,35.9v-1.5c0-0.1,0-0.1,0-0.1s0,0-0.1,0v0H51c0.3,0,0.4,0,0.6,0.1c0.2,0.1,0.3,0.2,0.4,0.4c0.1,0.2,0.1,0.3,0.1,0.5
				c0,0.2,0,0.4-0.2,0.5c-0.1,0.1-0.2,0.2-0.3,0.3c-0.1,0.1-0.3,0.1-0.6,0.1h-0.9v0C50.1,36,50.2,36,50.2,35.9
				C50.2,36,50.2,35.9,50.2,35.9 M50.4,35.9H51c0.2,0,0.4,0,0.5-0.1c0.1-0.1,0.2-0.2,0.3-0.3c0-0.1,0.1-0.2,0.1-0.4
				c0-0.2-0.1-0.4-0.2-0.5c-0.1-0.1-0.1-0.1-0.2-0.2c-0.1,0-0.2,0-0.4,0h-0.6V35.9z"/>
			<path d="M52.8,35.2v0.7h1.2c0,0,0.1,0,0.1,0c0,0,0,0,0-0.1h0v0.4h0c0,0,0-0.1,0-0.1c0,0-0.1,0-0.1,0h-1.5v0c0,0,0.1,0,0.1,0
				c0,0,0-0.1,0-0.1v-1.5c0-0.1,0-0.1,0-0.1c0,0,0,0-0.1,0v0h1.5c0,0,0.1,0,0.1,0c0,0,0,0,0-0.1h0v0.4h0c0,0,0-0.1,0-0.1
				c0,0-0.1,0-0.1,0h-1.1V35h0.7c0,0,0.1,0,0.1,0c0,0,0,0,0-0.1h0v0.4h0c0,0,0-0.1,0-0.1c0,0-0.1,0-0.1,0H52.8z"/>
			<path d="M55.5,35.9V34c0,0,0-0.1,0-0.1c0,0,0,0-0.1-0.1v0h0.5v0c0,0-0.1,0-0.1,0.1c0,0,0,0,0,0.1v1.9c0,0.1,0,0.1,0,0.1
				c0,0,0,0,0.1,0v0.1h-0.5V36c0,0,0.1,0,0.1,0C55.5,36,55.5,35.9,55.5,35.9"/>
			<path d="M56.6,34.5v1.4c0,0,0,0.1,0,0.1c0,0,0,0,0.1,0v0h-0.4v0c0,0,0.1,0,0.1,0c0,0,0-0.1,0-0.1v-1.5c0-0.1,0-0.1,0-0.1
				c0,0,0,0-0.1,0v0h0.6v0c-0.1,0-0.1,0.1-0.1,0.1c0,0,0,0.1,0.1,0.1l1.1,1.2v-1.3c0-0.1,0-0.1,0-0.1c0,0,0,0-0.1,0v0h0.4v0
				c0,0-0.1,0-0.1,0c0,0,0,0,0,0.1v1.5c0,0,0,0.1,0,0.1c0,0,0,0,0.1,0v0h-0.5v0c0.1,0,0.1,0,0.1-0.1c0,0,0-0.1-0.1-0.1L56.6,34.5z"
				/>
			<path d="M59.6,35.8l0.6-1.4c0,0,0-0.1,0-0.1c0-0.1,0-0.1-0.1-0.1v0h0.5v0c0,0-0.1,0-0.1,0.1c0,0-0.1,0.1-0.1,0.2l-0.6,1.3
				c0,0.1,0,0.1,0,0.1c0,0.1,0,0.1,0.1,0.1v0h-0.6v0c0.1,0,0.1,0,0.1-0.1c0,0,0-0.1,0-0.1l-0.6-1.3c0-0.1-0.1-0.2-0.1-0.2
				c0,0-0.1,0-0.1-0.1v0h0.5v0c-0.1,0-0.1,0-0.1,0.1c0,0,0,0.1,0,0.1L59.6,35.8z"/>
			<path d="M61.2,35.2v0.7h1.2c0,0,0.1,0,0.1,0c0,0,0,0,0-0.1h0v0.4h0c0,0,0-0.1,0-0.1c0,0,0,0-0.1,0h-1.5v0c0,0,0.1,0,0.1,0
				c0,0,0-0.1,0-0.1v-1.5c0-0.1,0-0.1,0-0.1c0,0,0,0-0.1,0v0h1.5c0,0,0.1,0,0.1,0c0,0,0,0,0-0.1h0v0.4h0c0,0,0-0.1,0-0.1
				c0,0-0.1,0-0.1,0h-1.1V35h0.7c0,0,0.1,0,0.1,0c0,0,0,0,0-0.1h0v0.4h0c0,0,0-0.1-0.1-0.1c0,0,0,0-0.1,0H61.2z"/>
			<path d="M64.6,34.3l-0.2,0.4l0,0c0,0,0-0.1,0-0.1c0,0,0-0.1-0.1-0.1c-0.2-0.1-0.3-0.1-0.6-0.1c-0.2,0-0.3,0-0.5,0.1
				c-0.1,0.1-0.2,0.2-0.2,0.3c0,0,0,0.1,0,0.1c0,0,0.1,0.1,0.1,0.1c0.1,0,0.1,0,0.2,0c0.1,0,0.2,0,0.4,0c0.2,0,0.3,0,0.4,0
				c0.1,0,0.2,0,0.2,0.1c0.1,0,0.1,0.1,0.2,0.2c0,0.1,0.1,0.1,0.1,0.2c0,0.2-0.1,0.3-0.2,0.4c-0.2,0.1-0.4,0.2-0.7,0.2
				c-0.1,0-0.3,0-0.4-0.1c-0.2,0-0.3-0.1-0.4-0.2c0,0,0,0,0,0c0,0,0,0-0.1,0.1l0,0l0.2-0.4l0,0c0,0,0,0,0,0c0,0,0,0,0,0
				c0,0,0.1,0.1,0.2,0.1c0.2,0.1,0.4,0.2,0.6,0.2c0.2,0,0.3,0,0.5-0.1c0.1,0,0.1-0.1,0.1-0.1c0-0.1,0.1-0.1,0.1-0.2c0,0,0-0.1,0-0.1
				c0,0-0.1-0.1-0.1-0.1c0,0-0.1,0-0.2,0c-0.1,0-0.2,0-0.3,0c-0.2,0-0.3,0-0.4,0c-0.1,0-0.2,0-0.2-0.1c-0.1,0-0.2-0.1-0.2-0.2
				c-0.1-0.1-0.1-0.2-0.1-0.3c0-0.2,0.1-0.3,0.2-0.4c0.2-0.1,0.4-0.2,0.6-0.2c0.2,0,0.5,0.1,0.7,0.2c0,0,0.1,0,0.1,0
				C64.5,34.3,64.6,34.3,64.6,34.3L64.6,34.3z"/>
			<path d="M65.9,34.4v1.5c0,0,0,0.1,0,0.1c0,0,0,0,0.1,0v0h-0.5v0c0,0,0.1,0,0.1,0c0,0,0-0.1,0-0.1v-1.5H65c0,0-0.1,0-0.1,0
				c0,0,0,0,0,0.1h0v-0.4h0c0,0,0,0.1,0,0.1c0,0,0.1,0,0.1,0h1.5c0,0,0.1,0,0.1,0c0,0,0,0,0-0.1h0v0.4h0c0,0,0-0.1,0-0.1
				c0,0-0.1,0-0.1,0H65.9z"/>
			<path d="M67,35.9v-1.5c0-0.1,0-0.1,0-0.1c0,0,0,0-0.1,0v0h0.5v0c0,0-0.1,0-0.1,0c0,0,0,0,0,0.1v1.5c0,0,0,0.1,0,0.1
				c0,0,0,0,0.1,0v0h-0.5v0C67,36,67,36,67,35.9C67,36,67,35.9,67,35.9"/>
			<path d="M69.8,34.4l-0.2,0.4l0,0c0,0,0-0.1,0-0.1c0,0-0.1-0.1-0.2-0.1c-0.2-0.1-0.4-0.1-0.5-0.1c-0.2,0-0.4,0.1-0.6,0.2
				c-0.2,0.2-0.3,0.3-0.3,0.6c0,0.2,0.1,0.4,0.2,0.6c0.2,0.1,0.4,0.2,0.6,0.2c0.1,0,0.3,0,0.4-0.1c0.1,0,0.2-0.1,0.3-0.2v-0.3h-0.4
				c0,0-0.1,0-0.1,0c0,0,0,0,0,0.1h0v-0.4h0c0,0,0,0.1,0,0.1c0,0,0,0,0.1,0h0.7v0c0,0-0.1,0-0.1,0c0,0,0,0.1,0,0.1v0.2
				c0,0.1,0,0.1,0,0.1c0,0,0,0,0.1,0v0c-0.3,0.2-0.6,0.4-1,0.4c-0.3,0-0.5-0.1-0.7-0.2c-0.1-0.1-0.2-0.2-0.2-0.3
				c-0.1-0.1-0.1-0.3-0.1-0.4c0-0.2,0.1-0.4,0.2-0.6c0.1-0.1,0.3-0.3,0.4-0.3c0.1,0,0.3-0.1,0.5-0.1c0.1,0,0.3,0,0.4,0
				c0.1,0,0.2,0.1,0.4,0.2c0,0,0,0,0.1,0C69.7,34.4,69.7,34.4,69.8,34.4L69.8,34.4z"/>
			<path d="M71.4,35.5h-1l-0.1,0.3c0,0,0,0.1,0,0.1c0,0,0,0.1,0.1,0.1v0h-0.5v0c0,0,0.1,0,0.1,0c0,0,0.1-0.1,0.1-0.2l0.6-1.3
				c0-0.1,0.1-0.1,0.1-0.2c0,0,0-0.1-0.1-0.1v0h0.5v0c-0.1,0-0.1,0-0.1,0.1c0,0,0,0.1,0.1,0.2l0.6,1.3c0,0.1,0.1,0.1,0.1,0.2
				C72,36,72,36,72,36v0h-0.5v0c0.1,0,0.1,0,0.1-0.1c0,0,0,0,0-0.1L71.4,35.5z M71.4,35.4L71,34.4l-0.4,0.9H71.4z"/>
			<path d="M74.2,34.3L74,34.7l0,0c0,0,0-0.1,0-0.1c0,0,0,0-0.1-0.1c-0.2-0.1-0.4-0.2-0.6-0.2c-0.2,0-0.4,0.1-0.6,0.2
				c-0.2,0.1-0.3,0.3-0.3,0.6c0,0.3,0.1,0.5,0.3,0.6c0.2,0.1,0.3,0.2,0.6,0.2c0.2,0,0.4-0.1,0.6-0.2c0.1-0.1,0.1-0.1,0.1-0.1
				c0,0,0,0,0-0.1l0,0l0.3,0.3l0,0c0,0-0.1,0-0.1,0c0,0,0,0,0,0C74,35.9,73.9,36,73.7,36c-0.1,0-0.3,0.1-0.5,0.1
				c-0.3,0-0.5-0.1-0.7-0.2c-0.1-0.1-0.2-0.2-0.2-0.3c-0.1-0.1-0.1-0.3-0.1-0.5c0-0.3,0.1-0.5,0.4-0.7c0.2-0.2,0.4-0.2,0.8-0.2
				c0.3,0,0.5,0.1,0.8,0.2c0,0,0,0,0.1,0C74.1,34.4,74.2,34.4,74.2,34.3L74.2,34.3z"/>
			<path d="M74.7,35.9v-1.5c0-0.1,0-0.1,0-0.1c0,0,0,0-0.1,0v0h0.5v0c0,0-0.1,0-0.1,0c0,0,0,0,0,0.1v1.5c0,0,0,0.1,0,0.1
				c0,0,0,0,0.1,0v0h-0.5v0C74.7,36,74.7,36,74.7,35.9C74.7,36,74.7,35.9,74.7,35.9"/>
			<path d="M76.6,34.2c0.3,0,0.6,0.1,0.8,0.3c0.2,0.2,0.3,0.4,0.3,0.7c0,0.2-0.1,0.4-0.2,0.5c-0.2,0.3-0.5,0.4-1,0.4
				c-0.3,0-0.6-0.1-0.8-0.3c-0.2-0.2-0.3-0.4-0.3-0.7c0-0.2,0.1-0.4,0.2-0.5c0.1-0.2,0.3-0.3,0.5-0.4C76.2,34.2,76.4,34.2,76.6,34.2
				 M76.6,34.4c-0.3,0-0.5,0.1-0.7,0.2c-0.2,0.1-0.2,0.3-0.2,0.5c0,0.2,0.1,0.4,0.2,0.5c0.2,0.2,0.4,0.3,0.7,0.3
				c0.3,0,0.5-0.1,0.7-0.3c0.1-0.1,0.2-0.3,0.2-0.5c0-0.2-0.1-0.4-0.2-0.5C77.1,34.4,76.8,34.4,76.6,34.4"/>
			<path d="M78.3,34.5v1.4c0,0,0,0.1,0,0.1c0,0,0,0,0.1,0v0H78v0c0,0,0.1,0,0.1,0c0,0,0-0.1,0-0.1v-1.5c0-0.1,0-0.1,0-0.1
				c0,0,0,0-0.1,0v0h0.6v0c-0.1,0-0.1,0.1-0.1,0.1c0,0,0,0.1,0.1,0.1l1.1,1.2v-1.3c0-0.1,0-0.1,0-0.1c0,0,0,0-0.1,0v0H80v0
				c0,0-0.1,0-0.1,0c0,0,0,0,0,0.1v1.5c0,0,0,0.1,0,0.1c0,0,0,0,0.1,0v0h-0.5v0c0.1,0,0.1,0,0.1-0.1c0,0,0-0.1-0.1-0.1L78.3,34.5z"
				/>
			<path d="M80.8,35.2v0.7h1.2c0,0,0.1,0,0.1,0c0,0,0,0,0-0.1h0v0.4h0c0,0,0-0.1,0-0.1c0,0-0.1,0-0.1,0h-1.5v0c0,0,0.1,0,0.1,0
				c0,0,0-0.1,0-0.1v-1.5c0-0.1,0-0.1,0-0.1c0,0,0,0-0.1,0v0h1.5c0,0,0.1,0,0.1,0c0,0,0,0,0-0.1h0v0.4h0c0,0,0-0.1,0-0.1
				c0,0-0.1,0-0.1,0h-1.1V35h0.7c0,0,0.1,0,0.1,0c0,0,0,0,0-0.1h0v0.4h0c0,0,0-0.1,0-0.1c0,0-0.1,0-0.1,0H80.8z"/>
			<path d="M84.2,34.3l-0.2,0.4l0,0c0,0,0-0.1,0-0.1c0,0,0-0.1-0.1-0.1c-0.2-0.1-0.3-0.1-0.6-0.1c-0.2,0-0.3,0-0.5,0.1
				c-0.1,0.1-0.2,0.2-0.2,0.3c0,0,0,0.1,0,0.1c0,0,0.1,0.1,0.1,0.1c0.1,0,0.1,0,0.2,0c0.1,0,0.2,0,0.4,0c0.2,0,0.3,0,0.4,0
				c0.1,0,0.2,0,0.2,0.1c0.1,0,0.1,0.1,0.2,0.2c0,0.1,0.1,0.1,0.1,0.2c0,0.2-0.1,0.3-0.2,0.4c-0.2,0.1-0.4,0.2-0.7,0.2
				c-0.1,0-0.3,0-0.4-0.1c-0.2,0-0.3-0.1-0.4-0.2c0,0,0,0,0,0c0,0,0,0-0.1,0.1l0,0l0.2-0.4l0,0c0,0,0,0,0,0c0,0,0,0,0,0
				c0,0,0.1,0.1,0.2,0.1c0.2,0.1,0.4,0.2,0.6,0.2c0.2,0,0.3,0,0.5-0.1c0.1,0,0.1-0.1,0.1-0.1c0-0.1,0.1-0.1,0.1-0.2c0,0,0-0.1,0-0.1
				c0,0-0.1-0.1-0.1-0.1c0,0-0.1,0-0.2,0c-0.1,0-0.2,0-0.3,0c-0.2,0-0.3,0-0.4,0c-0.1,0-0.2,0-0.2-0.1c-0.1,0-0.2-0.1-0.2-0.2
				c-0.1-0.1-0.1-0.2-0.1-0.3c0-0.2,0.1-0.3,0.2-0.4c0.2-0.1,0.4-0.2,0.6-0.2c0.2,0,0.5,0.1,0.7,0.2c0,0,0.1,0,0.1,0
				C84.1,34.3,84.2,34.3,84.2,34.3L84.2,34.3z"/>
			<path d="M87.9,34l-0.2,0.4l0,0c0,0,0-0.1,0-0.1c0-0.1-0.1-0.1-0.2-0.2C87.2,34,87,34,86.7,34c-0.3,0-0.6,0.1-0.8,0.3
				c-0.2,0.2-0.3,0.4-0.3,0.7c0,0.3,0.1,0.5,0.3,0.7c0.2,0.2,0.4,0.3,0.7,0.3c0.3,0,0.5-0.1,0.8-0.2c0.1-0.1,0.1-0.1,0.1-0.2
				c0,0,0,0,0-0.1l0,0l0.3,0.4l0,0c0,0-0.1,0-0.1,0c0,0,0,0-0.1,0c-0.1,0.1-0.2,0.1-0.3,0.2c-0.1,0-0.1,0.1-0.2,0.1
				c-0.2,0.1-0.3,0.1-0.5,0.1c-0.4,0-0.7-0.1-0.9-0.3c-0.2-0.2-0.4-0.5-0.4-0.9c0-0.3,0.1-0.5,0.2-0.7c0.2-0.3,0.6-0.5,1.1-0.5
				c0.3,0,0.6,0.1,0.9,0.3c0,0,0,0,0,0C87.8,34,87.8,34,87.9,34L87.9,34z"/>
			<path d="M88.4,35.9v-1.5c0-0.1,0-0.1,0-0.1c0,0,0,0-0.1,0v0h0.5v0c0,0-0.1,0-0.1,0c0,0,0,0,0,0.1v1.5c0,0,0,0.1,0,0.1
				c0,0,0,0,0.1,0v0h-0.5v0C88.4,36,88.4,36,88.4,35.9C88.4,36,88.4,35.9,88.4,35.9"/>
			<path d="M89.5,35.2v0.7h1.2c0,0,0.1,0,0.1,0c0,0,0,0,0-0.1h0v0.4h0c0,0,0-0.1,0-0.1c0,0-0.1,0-0.1,0h-1.5v0c0,0,0.1,0,0.1,0
				c0,0,0-0.1,0-0.1v-1.5c0-0.1,0-0.1,0-0.1c0,0,0,0-0.1,0v0h1.5c0.1,0,0.1,0,0.1,0c0,0,0,0,0-0.1h0v0.4h0c0,0,0-0.1,0-0.1
				c0,0,0,0-0.1,0h-1.1V35h0.7c0.1,0,0.1,0,0.1,0c0,0,0,0,0.1-0.1h0v0.4h0c0,0,0-0.1-0.1-0.1c0,0,0,0-0.1,0H89.5z"/>
			<path d="M91.5,34.5v1.4c0,0,0,0.1,0,0.1c0,0,0,0,0.1,0v0h-0.4v0c0,0,0.1,0,0.1,0c0,0,0-0.1,0-0.1v-1.5c0-0.1,0-0.1,0-0.1
				c0,0,0,0-0.1,0v0h0.6v0c-0.1,0-0.1,0.1-0.1,0.1c0,0,0,0.1,0.1,0.1l1.1,1.2v-1.3c0-0.1,0-0.1,0-0.1c0,0,0,0-0.1,0v0h0.4v0
				c0,0-0.1,0-0.1,0c0,0,0,0,0,0.1v1.5c0,0,0,0.1,0,0.1c0,0,0,0,0.1,0v0h-0.5v0c0.1,0,0.1,0,0.1-0.1c0,0,0-0.1-0.1-0.1L91.5,34.5z"
				/>
			<path d="M94.5,34.4v1.5c0,0,0,0.1,0,0.1c0,0,0,0,0.1,0v0h-0.5v0c0,0,0.1,0,0.1,0c0,0,0-0.1,0-0.1v-1.5h-0.6c-0.1,0-0.1,0-0.1,0
				c0,0,0,0,0,0.1h0v-0.4h0c0,0,0,0.1,0,0.1c0,0,0,0,0.1,0h1.5c0,0,0.1,0,0.1,0c0,0,0,0,0-0.1h0v0.4h0c0,0,0-0.1,0-0.1
				c0,0-0.1,0-0.1,0H94.5z"/>
			<path d="M95.6,35.9v-1.5c0-0.1,0-0.1,0-0.1c0,0,0,0-0.1,0v0h0.4v0c0,0-0.1,0-0.1,0c0,0,0,0,0,0.1v1.5c0,0,0,0.1,0,0.1
				c0,0,0,0,0.1,0v0h-0.4v0C95.5,36,95.5,36,95.6,35.9C95.6,36,95.6,35.9,95.6,35.9 M96.1,33.5L96.1,33.5
				C96.1,33.6,96,33.6,96.1,33.5l-0.3,0.4c0,0,0,0,0,0c0,0,0,0,0,0h0v0h-0.3v0c0,0,0,0,0.1,0c0,0,0,0,0,0l0.1-0.3c0,0,0,0,0,0
				c0,0,0,0,0,0v0H96.1z"/>
			<path d="M96.7,35.2v0.7c0,0,0,0.1,0,0.1c0,0,0,0,0.1,0v0h-0.4v0c0,0,0.1,0,0.1,0c0,0,0-0.1,0-0.1v-1.5c0-0.1,0-0.1,0-0.1
				c0,0,0,0-0.1,0v0h1.5c0,0,0.1,0,0.1,0c0,0,0,0,0-0.1h0v0.4h0c0,0,0-0.1,0-0.1c0,0-0.1,0-0.1,0h-1.2V35h0.8c0,0,0.1,0,0.1,0
				c0,0,0,0,0-0.1h0v0.4h0c0,0,0-0.1,0-0.1c0,0-0.1,0-0.1,0H96.7z"/>
			<path d="M98.5,35.9v-1.5c0-0.1,0-0.1,0-0.1c0,0,0,0-0.1,0v0h0.5v0c0,0-0.1,0-0.1,0c0,0,0,0,0,0.1v1.5c0,0,0,0.1,0,0.1
				c0,0,0,0,0.1,0v0h-0.5v0C98.4,36,98.4,36,98.5,35.9C98.4,36,98.5,35.9,98.5,35.9"/>
			<path d="M101.2,34.3l-0.2,0.4l0,0c0,0,0-0.1,0-0.1c0,0,0,0-0.1-0.1c-0.2-0.1-0.4-0.2-0.6-0.2c-0.2,0-0.4,0.1-0.6,0.2
				c-0.2,0.1-0.3,0.3-0.3,0.6c0,0.3,0.1,0.5,0.3,0.6c0.2,0.1,0.3,0.2,0.6,0.2c0.2,0,0.4-0.1,0.6-0.2c0.1-0.1,0.1-0.1,0.1-0.1
				c0,0,0,0,0-0.1l0,0l0.3,0.3l0,0c0,0-0.1,0-0.1,0c0,0,0,0,0,0c-0.1,0.1-0.3,0.2-0.4,0.2c-0.1,0-0.3,0.1-0.5,0.1
				c-0.3,0-0.5-0.1-0.7-0.2c-0.1-0.1-0.2-0.2-0.2-0.3c-0.1-0.1-0.1-0.3-0.1-0.5c0-0.3,0.1-0.5,0.4-0.7c0.2-0.2,0.5-0.2,0.8-0.2
				c0.3,0,0.5,0.1,0.8,0.2c0,0,0,0,0.1,0C101.1,34.4,101.1,34.4,101.2,34.3L101.2,34.3z"/>
			<path d="M102.9,35.5h-1l-0.1,0.3c0,0,0,0.1,0,0.1c0,0,0,0.1,0.1,0.1v0h-0.5v0c0,0,0.1,0,0.1,0c0,0,0.1-0.1,0.1-0.2l0.6-1.3
				c0-0.1,0.1-0.1,0.1-0.2c0,0,0-0.1-0.1-0.1v0h0.5v0c-0.1,0-0.1,0-0.1,0.1c0,0,0,0.1,0.1,0.2l0.6,1.3c0,0.1,0.1,0.1,0.1,0.2
				c0,0,0.1,0.1,0.1,0.1v0H103v0c0.1,0,0.1,0,0.1-0.1c0,0,0,0,0-0.1L102.9,35.5z M102.8,35.4l-0.4-0.9l-0.4,0.9H102.8z"/>
			<path d="M105.5,34.3l-0.2,0.4l0,0c0,0,0-0.1,0-0.1c0,0,0-0.1-0.1-0.1c-0.2-0.1-0.3-0.1-0.6-0.1c-0.2,0-0.3,0-0.5,0.1
				c-0.1,0.1-0.2,0.2-0.2,0.3c0,0,0,0.1,0,0.1c0,0,0.1,0.1,0.1,0.1c0.1,0,0.1,0,0.2,0c0.1,0,0.2,0,0.4,0c0.2,0,0.3,0,0.4,0
				c0.1,0,0.2,0,0.2,0.1c0.1,0,0.1,0.1,0.2,0.2c0,0.1,0.1,0.1,0.1,0.2c0,0.2-0.1,0.3-0.2,0.4c-0.2,0.1-0.4,0.2-0.7,0.2
				c-0.1,0-0.3,0-0.4-0.1c-0.2,0-0.3-0.1-0.4-0.2c0,0,0,0,0,0c0,0,0,0-0.1,0.1l0,0l0.2-0.4l0,0c0,0,0,0,0,0c0,0,0,0,0,0
				c0,0,0.1,0.1,0.2,0.1c0.2,0.1,0.4,0.2,0.6,0.2c0.2,0,0.3,0,0.5-0.1c0.1,0,0.1-0.1,0.1-0.1c0-0.1,0.1-0.1,0.1-0.2c0,0,0-0.1,0-0.1
				c0,0-0.1-0.1-0.1-0.1c0,0-0.1,0-0.2,0c-0.1,0-0.2,0-0.3,0c-0.2,0-0.3,0-0.4,0c-0.1,0-0.2,0-0.2-0.1c-0.1,0-0.2-0.1-0.2-0.2
				c-0.1-0.1-0.1-0.2-0.1-0.3c0-0.2,0.1-0.3,0.2-0.4c0.2-0.1,0.4-0.2,0.6-0.2c0.2,0,0.5,0.1,0.7,0.2c0,0,0.1,0,0.1,0
				C105.4,34.3,105.4,34.3,105.5,34.3L105.5,34.3z"/>
		</g>
		<g>
			<path class="st1" d="M28.8,30c0.1,0,0.3-0.1,0.3-0.1c0.2-0.4-0.7-0.9-0.7-0.9s-0.2,0.1-0.3,0.1C27.9,29.2,28.8,30,28.8,30
				 M25.2,29.9c0,0-0.1,0.6,0.2,0.9c1.2,0.6,2.5,0.7,3.5,0.1c0.1-0.2,0.2-0.5,0.2-0.7C28,30.7,26.2,30.3,25.2,29.9 M16.2,30.1
				c0,0.3,0.1,0.6,0.3,0.8c1,0.5,2.4,0.3,3.3-0.1c0.4-0.1,0.3-0.4,0.3-0.9C19,30.4,17.5,30.6,16.2,30.1 M25.3,29.7
				c0,0,0.2,0.1,0.4,0.1c0.1,0,0-0.5,0-0.6C25.7,29.2,25.3,29.3,25.3,29.7 M19.7,29.1c0,0,0,0.7,0,0.7c0.2-0.1,0.4-0.1,0.5-0.2
				C20.2,29.5,19.9,29.2,19.7,29.1 M16.9,28.9c-0.2,0.3-0.6,0.5-0.7,1c0,0.1,0.5,0.1,0.5,0.1c0.3-0.2,0.5-0.3,0.7-0.8
				C17.3,29,17,28.9,16.9,28.9 M19.8,28.8c0,0.1,0.4,0.3,0.5,0.6c0.2,0.3,0.1,0.5,0.1,0.5c1.2,0.6,3.3,0.7,4.5,0.1
				c0-0.5,0.2-0.9,0.6-1.1c0.1-0.1,0-0.2-0.1-0.2c-0.9,0.3-1.7,0.8-2.7,0.8C21.6,29.6,20.8,28.8,19.8,28.8 M28.2,28.1
				c-0.4,0.1-0.3,0.7-0.3,0.9c0.5-0.3,1.1-0.4,1.6-0.3c0,0,0-0.4,0-0.6C29.6,28.1,28.8,27.9,28.2,28.1 M15.8,28c0,0.2,0,0.5,0,0.6
				c0.6-0.1,1.3,0,1.6,0.3l0-0.6C17,27.8,16.3,27.9,15.8,28 M21.5,26.2v0.3c0.3,0.7,1.2,0.5,1.8,0.7c0.2,0.1,0.3,0.3,0.5,0.4
				C23.8,26.1,22.2,26.8,21.5,26.2 M21.7,25.9L21.7,25.9v0.2V25.9z M20,24.2c-0.1,0.2,0.1,0.4,0.2,0.6c0.3,1-1.1,1.2-1.6,1.7
				c-0.2,0.2-0.3,0.5-0.3,0.8c0.1,0.2,0.3,0.4,0.5,0.4c0.3,0,0.6-0.1,0.8-0.4c0.1-0.1,0-0.3-0.1-0.3c-0.2,0.2-0.5,0.4-0.8,0.3
				c-0.1,0-0.2-0.1-0.2-0.2c0.4-0.7,1.2-0.7,1.7-1.3c0.2-0.3,0.3-0.7,0.3-1.1C20.3,24.5,20.3,24.1,20,24.2 M18.7,24
				c-0.2,0.2-0.3,0.5-0.2,0.9c0.1,0.1,0.1,0.4,0.3,0.4c0.7-0.1,0-0.7,0.1-1.1c0-0.1,0.1-0.3,0.3-0.3C19,23.8,18.8,23.8,18.7,24
				 M26.4,23.7c-0.8,0.2-1.7,0.7-2.5,0.4c-0.1,0.1,0,0.3,0.1,0.4c0.9,0.4,1.8-0.1,2.7-0.3c0.1,0,0.2,0.1,0.2,0.2
				c-0.2,0.4-0.7,0.5-1.1,0.7c0,0.1,0.1,0.1,0.1,0.2c0.3,0.2,0.6-0.1,0.9-0.3c0.3-0.2,0.5-0.5,0.5-0.9C27,23.7,26.7,23.7,26.4,23.7
				 M23.8,23.6c-0.1,0.2,0.1,0.2,0.2,0.2c0.4,0.1,1,0.1,1.4-0.2C24.9,23.4,24.2,23.4,23.8,23.6 M19.3,22.7c0.1,0.1,0.1,0.2,0.2,0.1
				c0-0.1,0.1-0.1,0.1-0.1C19.6,22.5,19.3,22.5,19.3,22.7 M21.5,22.3c-0.1,0.2,0,0.5,0,0.7c0.4,0.8,1.3,1,2,1.3c0,0,0-0.1,0.1-0.2
				C23.4,23.2,22.1,23,21.5,22.3 M25.9,22.3c-0.1,0-0.3,0-0.2,0.2c0.4,0.1,0.7,0.2,1.1,0.4c0.1,0.1,0.4,0.2,0.4-0.1
				C26.7,22.5,26.3,22.3,25.9,22.3 M18.7,22.3c-0.1,0.1,0,0.2,0,0.3c-0.2,0.4,0.1,0.7,0.4,0.8c0.4,0.1,0.7,0.1,1-0.2
				C20,23.2,20,23,19.8,22.9c-0.3,0.4-0.7-0.1-1-0.2c0,0,0.1-0.1,0.1-0.1c0.1,0,0.3-0.1,0.3-0.3C19.1,22.2,18.9,22.2,18.7,22.3
				 M23.9,22.2c-0.1,0.1-0.3,0.2-0.3,0.4c0.2-0.1,0.5-0.2,0.7-0.4C24.2,22.1,24,22.2,23.9,22.2 M24.3,21.9c0.4,0.1,0.7,0.5,0.8,0.8
				c0.1-0.1,0.2,0,0.3-0.2c0-0.2-0.1-0.4-0.2-0.6C24.9,21.8,24.5,21.7,24.3,21.9 M21.8,21.7c-0.1,0.1-0.1,0.2-0.1,0.3
				c0,0.1,0.1,0.3,0.2,0.2C21.9,22,21.9,21.8,21.8,21.7 M26.9,21.7c-0.6,0.3-1.1-0.5-1.6-0.1c0.5,0.2,1,0.7,1.6,0.5
				c0.1-0.1,0.4-0.2,0.4-0.4h-0.1L26.9,21.7z M19.1,21.5c-0.3,0.1-0.7,0.3-0.7,0.6c0.1,0.2,0.4,0,0.5-0.1c0.3-0.3,0.7,0,1,0
				c0-0.1-0.1-0.3-0.2-0.4C19.6,21.5,19.3,21.5,19.1,21.5 M24.5,20.3c0,0.1,0,0.3,0.2,0.3c0.3-0.2,0.3-0.6,0.2-0.9
				C24.7,19.8,24.5,20.1,24.5,20.3 M26,19.2l0,0.2c0,0.4,0.4,0.3,0.5,0.4v-0.4C26.3,19.3,26.2,19.3,26,19.2 M24.7,18.3l0-0.3
				l-0.1,0.3H24.7z M26.5,17.4l-0.1,0.2c0.1,0,0.1,0,0.2,0L26.5,17.4z M27,16.8c-0.1,0.1-0.4,0.4-0.4,0.5c0,0.2,0.1,0.7,0.1,1
				c0.1,0.1,0.3,0,0.5-0.1C27.3,17.7,27.4,17.1,27,16.8 M19,16.7c0.1,0.2,0.4,0.3,0.7,0.3l-0.1-0.2C19.4,16.6,19.3,16.6,19,16.7
				 M25.6,16.8c-0.1,0.2-0.1,0.5,0,0.7c0.2-0.1,0.5-0.4,0.6-0.6C26.1,16.7,25.8,16.5,25.6,16.8 M25.6,16.2c-2.1,0.9,0.2,2.9-0.7,4.5
				c0.2,0,0.4-0.1,0.5-0.2c0.4-1,0-2.1-0.2-3.1c-0.1-0.3-0.1-0.5,0.2-0.8c0.3-0.2,0.6,0,0.8,0.1c0.1,0,0.3-0.2,0.3-0.3
				C26.3,16.2,26,16.2,25.6,16.2 M18.4,16.3c0.2,0.7,0.8,0,1.1,0.2c1.2,1-0.4,2.2,0.1,3.5c0.1,0.3,0.3,0.5,0.5,0.6
				c0.3,0.1,0.7,0,0.9-0.2c0-0.1-0.1-0.3-0.2-0.4c-0.1,0.1-0.2,0.2-0.3,0.3c-0.1,0.2-0.4,0.2-0.4,0c-0.2-1.3,0.9-2.9-0.3-4
				C19.4,16.1,18.8,16.1,18.4,16.3 M24,29c0,0,0.3,0,1.1-0.4c0.9-0.5,0.8,1.3,0.8,1.3c1,0.4,2.5,0.3,2.6,0.2
				c0.1-0.1-0.5-0.4-0.7-0.8c-0.2-0.3-0.1-1,0-1.2c0.5-0.6,1.9-0.2,1.9-0.2c0,0.1,0,1,0,1c-0.1-0.1-1-0.1-1.1,0.1
				c0,0,0.5,0.2,0.6,0.6c0.3,0.6-0.2,1.5-0.2,1.5c-1.9,1-3.8-0.1-3.8-0.2c-0.1-0.1-0.2-0.6-0.2-0.6c-2.2,0.9-4.6-0.1-4.6-0.1
				c0,0.4-0.2,0.7-0.2,0.7c-2.4,1.1-3.9,0.1-3.9,0.1c-0.9-1.4,0.4-2.2,0.4-2.2c-0.2-0.1-1.1,0-1.1,0v-0.9c2.1-0.5,2,0.4,2,1.1
				c0,0.7-0.7,1.1-0.7,1.1c1.6,0.3,2.6-0.2,2.6-0.2s0-0.2,0-1c0-0.8,1.7,0.1,1.7,0.1c0.4-0.3,0.4-1.9,0.4-1.9c-0.9-1,0-1.5,0-1.5
				c0-1.3-1.1-1.4-1.1-1.4c0.2,1.2-0.1,1.4-0.2,1.7c-0.2,0.3-1.7,1-1.6,1.2c0.1,0.2,0.9-0.4,0.9-0.4c0.3,0.3,0.2,0.7,0.2,0.7
				c-0.3,0.6-1.8,0.7-1.7-0.4c0.1-1.1,0.9-1,1.7-1.5c0.7-0.6-0.2-1.3-0.2-1.3c-0.2,0-0.5,0.2-0.5,0.2c0,0.2,0.3,0.6,0.3,0.6
				c-0.1,0.1-0.8,0.4-0.8,0.4c-0.1,0-0.3-0.4-0.3-0.4l-0.2,0.2c0.4,1.6-1.1,1.7-1.1,1.7l0-0.4c-0.3,0.1-0.9,0.1-0.9,0.1
				c0-0.6,0.5-1.1,0.5-1.1c-0.1,0-0.2-0.2-0.2-0.2c0.7-0.6,1.3-0.2,1.3-0.2l0.1-0.3c-0.4-0.7,0.3-0.4,0.3-0.4c0-0.6,0.5-0.8,0.5-0.8
				c0-0.1-0.3-0.2-0.3-0.2c-1,0.8-1.6-0.5-1.6-0.5c-0.2,0-0.5-0.2-0.5-0.2c0.1-0.1,0.3-0.3,0.3-0.3c-0.1-0.1-0.2-0.6-0.2-0.6
				c0.1-0.1,0.7-0.1,0.7-0.1c0-0.1,0.2-0.4,0.2-0.4c0.1,0.1,0.5,0.5,0.5,0.5c0.1,0,0.4,0.1,0.4,0.1c0-0.1,0.2-0.3,0.2-0.3
				c0-0.1-0.3-0.3-0.3-0.3l0.1-0.1c0.1,0,0.5,0.1,0.5,0.1c1.1-0.7,1.5,0.1,1.5,0.1c0.1,1,0.4,0.7,0.4,0.7c0-0.1,0-0.5,0-0.5h0.3
				c0,0.3,0.5,0.8,0.5,0.8c0-1.1,0.6-1.4,0.6-1.4c-0.1-1.6-1.4-2.1-1.4-2.1c-0.1,0.3-0.2,1.2-0.1,1.3c0.1,0,0.5-0.5,0.5-0.5
				c0.4,0.3,0.5,0.8,0.5,0.8c-1.4,0.9-1.9-0.5-1.9-0.5c-0.1,0-0.9,0.2-0.9,0.2c-0.1-0.2,0.2-0.9,0.2-0.9c-0.5,0-0.8,0.5-0.8,0.5
				c0.2,1.2-1.4,1.4-1.4,1.4c0.1-0.1-0.2-0.3-0.2-0.3c-0.2,0.1-1,0.1-1,0.1c0-0.6,0.5-0.9,0.5-0.9c-0.1-0.1-0.2-0.5-0.2-0.5
				c1.1-0.6,1.9-0.1,1.9-0.1c0.7-0.7,2.1-0.9,2.1-0.9c0-0.2,0.1-0.3,0.1-0.3c0.1-0.3-1.1-0.3-1.1-0.3c0-0.1-0.2-0.6-0.2-0.6
				c-0.1,0-0.3,0.1-0.3,0.1c-0.4,0.6-0.5,0.1-0.5,0.1c-0.1,0-0.4,0.2-0.4,0.2c-0.2,0.6-1.3,0.6-1.3,0.6c0.1-0.1,0-0.3,0-0.3
				c-0.2,0-0.8-0.5-0.8-0.5c0.2-0.2,0.8-0.5,0.8-0.5c-0.2-0.2-0.1-0.8-0.1-0.8c0.1,0.1,0.8,0.2,0.8,0.2c0.6,0,0.8,0.7,0.8,0.7
				c0.2,0,0.9-0.4,0.9-0.4c-0.2-0.7-0.9-0.8-0.9-0.8c-1.5,0.7-1.8-0.7-1.8-0.7c-0.1,0-0.5-0.2-0.5-0.2c0.1-0.1,0.5-0.3,0.5-0.3
				c-0.1-0.1-0.1-0.6-0.1-0.6c0.1,0,0.7,0,0.7,0c0-0.1,0.2-0.4,0.2-0.4l0.3,0.7c0,0,0.9-0.3,0.8,1c0,0,0.1,0.1,0.4,0.2
				c0,0,0.2-0.5,0-0.7c-0.1-0.2-0.4-0.7-0.4-0.7c0,0,0.4,0.1,0.5,0.2c0,0,0.3-0.3,0.3-0.4c0,0,0.6,0.7,0.6,1c0,0.4-0.5,0.7-0.6,0.7
				l0.2,0.1c0,0,1.6-0.7,2.2,0.6c0,0,0.1-0.5,0-0.7c0,0-0.9-0.1-0.4-1.2c0.2-0.5,0-0.7,0-0.7s0.7,0.1,0.8,0.6c0,0,0.4-0.3,0.3-0.6
				c0,0,0.7,0.3,0.5,1.2c-0.1,0.6-0.6,0.7-0.6,0.7s-0.4,1.1,0.2,2c0,0,0.5-0.5,0.6-0.7c0,0-0.4-0.7-0.1-1.1c0.3-0.5,0.6-0.3,0.7-0.5
				c0,0,0.4-0.5,0.4-0.6c0,0,0.2,0.4,0.1,0.5c0,0,0.6-0.2,0.7-0.2c0,0,0,0.5-0.1,0.6c0,0,0.3,0.3,0.5,0.2c0,0-0.3,0.4-0.5,0.4
				c0,0-0.3,1.2-1.5,0.9c0,0-0.5,0.5-0.5,0.7c0,0,0.5,0.7,0.5,0.9c0,0,0.7-0.2,0.9-0.1c0,0,1.2-0.5,1.2-2.5l0.3-0.1c0,0-0.1-0.6,0-1
				c0,0-1.2-1.2-0.4-1.6c0,0,0.2,0.4,0.4,0.5c0,0,0.4-0.1,0.5-0.4c0,0,0.5,0.7,0.3,1.2c0,0-0.5,0.7-0.4,1.1c0,0,0.5-0.6,1.4-0.5
				c0,0-0.1-0.7,0.4-1.3c0,0,0.1,0.4,0.3,0.6c0.2,0.2,0.2,0.5,0.1,0.6l0.3-0.1c0,0-0.4-1,0.5-1.3c0,0,0.2-0.5,0.3-0.7l0.3,0.4
				c0,0,0.4-0.3,0.5-0.3c0,0,0.2,0.6,0.1,0.7c0,0,0.4,0,0.5,0c0,0-0.4,0.7-0.5,0.7c0,0,0.2,1.2-1.5,0.9l-0.5,0.5
				c0,0,0.2,0.3,0.2,0.3c0,0,1-0.3,1.2-0.5c0,0,0,0.6-0.1,0.8c0,0,0.6,0.2,0.8,0.1c0,0-0.2,0.7-0.8,0.8c0,0,0.2,0.3-0.2,0.2
				c0,0-0.4,0.1-0.5,0.3c0,0-0.3-0.4-0.4-0.4c0,0-0.6,0.2-0.8,0.1c0,0,0.1-0.4,0-0.4l-0.1-0.1l0.1,0.1c0,0-0.8,0-0.8,0.4
				c0,0,0.1,0.6,0.1,0.7c0,0,0.6,0.1,0.7,0.2l0,0.8l-0.7-0.2c0,0-0.2,1.1-1,1c-0.7-0.1-0.9-0.5-0.3-1.5c0,0-1.2,0.1-1.2,1.8
				c0,0,0.1,0.2,0.3,0.1c0,0,0,0.4-0.1,0.6c0,0,0.7-0.5,1.2-0.3c0,0,0.4-0.5,1-0.3c0,0,0.4,0,0.3-0.9l0.3,0l0,0.5
				c0,0,0.5-0.3,0.6-0.4c0,0-0.3-0.8,0.5-1.1c0,0,0.3-0.4,0.4-0.5c0,0,0.2,0.6,0.2,0.7c0,0,0.7-0.1,0.8-0.1c0,0-0.1,0.5-0.2,0.7
				c0,0,0.3,0.1,0.4,0.3c0,0-1.2,0.7-1.7,0.4c0,0-0.7,0.2-0.9,0.4c0,0,0.3,0.2,0.8-0.1v0.3h0.2c0,0,1.3-0.9,1.8,0.3
				c0,0,0.3,0.2,0.5,0.1c0,0-0.1,0.4-0.3,0.4c0,0,0.3,0.4,0.3,0.6c0,0-0.4,0.1-0.6,0c0,0,0,0.5,0,0.6c0,0-0.4-0.3-0.5-0.5
				c0,0-1.2,0.2-1.2-1L27.4,22c0,0-0.4,0.3-0.5,0.3c0,0,0.4,0.2,0.5,0.3c0,0-0.2,0.5-0.3,0.5c0,0-1.4-0.7-1.7-0.2
				c0,0,0.7,0.4,0.8,0.6c0,0,1.4-0.3,1.2,0.9l0.1,0.1c0,0,0.7,0.1,0.9,1.3c0,0-0.9,0.2-1.1-1c0,0-0.1,0-0.2,0.1c0,0,0.1,0.2,0,0.3
				c0,0,1,1-0.3,2c0,0-0.5-0.5-0.5-0.8c0,0-0.6-0.2-0.9,0.1c0,0-0.1-1.1,1.3-1.2l0-0.2c0,0-0.5,0.3-0.7,0.3c0,0-0.4,0-0.8-0.5
				c0,0,1.3-0.4,1.2-0.6c-0.1-0.2-1.5,0.7-2.6,0.2c0,0-0.1,0.2-0.3,0.2c0,0-0.5,0.8-0.1,1.6c0,0,1,0.7,0.2,1.5
				C23.7,27.9,23.8,28.9,24,29"/>
			<path class="st2" d="M53.6,28.9c-0.1,0-0.1,0-0.2,0c-0.1,0-0.1,0-0.2,0c-0.1,0-0.4,0.1-0.9,0.4c-0.5,0.3-1.1,0.5-1.8,0.9
				c-0.7,0.3-1.6,0.6-2.5,0.8c-0.9,0.2-1.9,0.3-2.9,0.3c-1.3,0-2.6-0.2-3.9-0.5c-1.2-0.3-2.3-0.9-3.3-1.6c-0.9-0.7-1.7-1.6-2.3-2.7
				c-0.6-1.1-0.8-2.3-0.8-3.7c0-1.4,0.3-2.6,0.8-3.7c0.6-1.1,1.3-2,2.3-2.7c0.9-0.7,2-1.3,3.3-1.6c1.2-0.4,2.5-0.5,3.9-0.5
				c1.1,0,2.1,0.1,2.9,0.3c0.9,0.2,1.7,0.4,2.3,0.5c0.7,0.2,1.2,0.4,1.6,0.5c0.4,0.2,0.6,0.3,0.7,0.3c0.1,0,0.2-0.1,0.3-0.2
				c0.1-0.1,0.1-0.2,0.2-0.3l0.5,0.4l-2.5,3.9l-0.3-0.2c0-0.1,0-0.1,0-0.2c0-0.1,0-0.1,0-0.2c0-0.2-0.3-0.5-0.6-0.7
				c-0.4-0.2-0.9-0.5-1.4-0.7c-0.6-0.2-1.2-0.3-1.8-0.5c-0.6-0.1-1.2-0.2-1.7-0.2c-0.9,0-1.7,0.1-2.6,0.4c-0.8,0.3-1.5,0.6-2.1,1.1
				c-0.6,0.5-1.1,1.1-1.4,1.8c-0.4,0.7-0.5,1.5-0.5,2.4c0,0.9,0.2,1.7,0.5,2.4c0.4,0.7,0.8,1.3,1.4,1.8c0.6,0.5,1.3,0.9,2.1,1.1
				c0.8,0.3,1.7,0.4,2.6,0.4c0.7,0,1.4-0.1,2.1-0.2c0.7-0.2,1.4-0.4,2-0.6c0.6-0.2,1.1-0.5,1.5-0.8c0.4-0.3,0.6-0.6,0.6-0.9
				c0-0.2,0-0.3-0.1-0.4l0.4-0.3l2.1,3.4L53.6,28.9z"/>
			<path class="st2" d="M58.9,25.9l0.3,0.2c0,0.2,0,0.4,0.1,0.5c0.1,0.3,0.4,0.5,0.9,0.8c0.4,0.2,0.9,0.5,1.5,0.7
				c0.6,0.2,1.1,0.3,1.8,0.5c0.6,0.1,1.2,0.2,1.7,0.2c0.4,0,0.8,0,1.4-0.1c0.6,0,1.1-0.2,1.7-0.3c0.6-0.2,1-0.4,1.4-0.7
				c0.4-0.3,0.6-0.7,0.6-1.2c0-0.5-0.2-0.8-0.6-1.1c-0.4-0.2-0.9-0.4-1.5-0.5c-0.6-0.1-1.3-0.2-2.1-0.2c-0.8,0-1.6-0.1-2.4-0.1
				c-0.8-0.1-1.6-0.2-2.4-0.3c-0.8-0.1-1.5-0.4-2.1-0.7c-0.6-0.3-1.1-0.8-1.5-1.4c-0.4-0.6-0.6-1.4-0.6-2.4c0-0.7,0.2-1.3,0.5-1.9
				c0.3-0.6,0.8-1.2,1.4-1.7c0.6-0.5,1.4-0.9,2.4-1.2c1-0.3,2.1-0.5,3.4-0.5c1.1,0,2.1,0.1,2.9,0.3c0.8,0.2,1.5,0.4,2.1,0.5
				c0.6,0.2,1.1,0.4,1.5,0.5c0.4,0.2,0.8,0.3,1,0.3c0.3,0,0.5-0.1,0.6-0.2l0.4,0.3l-2.2,4l-0.3-0.1c0-0.3-0.1-0.5-0.3-0.7
				c-0.2-0.3-0.5-0.5-0.8-0.7c-0.4-0.2-0.9-0.5-1.4-0.7c-0.5-0.2-1.1-0.3-1.7-0.5C66.4,17,65.8,17,65.1,17c-0.5,0-0.9,0-1.4,0.1
				c-0.5,0.1-0.9,0.2-1.4,0.3c-0.4,0.1-0.7,0.3-1,0.6c-0.3,0.2-0.4,0.5-0.4,0.9c0,0.5,0.2,0.9,0.6,1.2c0.4,0.3,0.9,0.4,1.5,0.6
				c0.6,0.1,1.3,0.2,2.1,0.3c0.8,0,1.6,0.1,2.4,0.2c0.8,0.1,1.6,0.2,2.4,0.3c0.8,0.2,1.5,0.4,2.1,0.8c0.6,0.4,1.1,0.8,1.5,1.4
				c0.4,0.6,0.6,1.4,0.6,2.3c0,1.1-0.3,2-0.9,2.7c-0.6,0.7-1.3,1.2-2.2,1.7c-0.9,0.4-1.8,0.7-2.8,0.8c-1,0.1-1.9,0.2-2.8,0.2
				c-1.2,0-2.2-0.1-3-0.2c-0.8-0.1-1.5-0.3-2-0.5c-0.5-0.2-1-0.4-1.3-0.5c-0.3-0.2-0.6-0.2-0.8-0.2c-0.2,0-0.3,0.1-0.4,0.3l-0.4-0.3
				L58.9,25.9z"/>
			<path class="st2" d="M78,30.6c0.6,0,0.8-0.2,0.8-0.6V15.6c0-0.4-0.3-0.6-0.8-0.6v-0.6h5.3V15c-0.6,0-0.8,0.2-0.8,0.6V30
				c0,0.4,0.3,0.6,0.8,0.6v0.6H78V30.6z"/>
			<path class="st2" d="M105.4,28.9c-0.1,0-0.1,0-0.2,0c-0.1,0-0.1,0-0.2,0c-0.1,0-0.4,0.1-0.9,0.4c-0.5,0.3-1.1,0.5-1.8,0.9
				c-0.7,0.3-1.6,0.6-2.5,0.8c-0.9,0.2-1.9,0.3-2.9,0.3c-1.3,0-2.6-0.2-3.8-0.5c-1.2-0.3-2.3-0.9-3.3-1.6c-0.9-0.7-1.7-1.6-2.2-2.7
				c-0.6-1.1-0.8-2.3-0.8-3.7c0-1.4,0.3-2.6,0.8-3.7c0.6-1.1,1.3-2,2.2-2.7c0.9-0.7,2-1.3,3.3-1.6c1.2-0.4,2.5-0.5,3.8-0.5
				c1.1,0,2.1,0.1,2.9,0.3c0.9,0.2,1.6,0.4,2.3,0.5c0.7,0.2,1.2,0.4,1.6,0.5c0.4,0.2,0.6,0.3,0.7,0.3c0.1,0,0.2-0.1,0.3-0.2
				c0.1-0.1,0.1-0.2,0.2-0.3l0.5,0.4l-2.5,3.9l-0.3-0.2c0-0.1,0-0.1,0-0.2c0-0.1,0-0.1-0.1-0.2c0-0.2-0.3-0.5-0.6-0.7
				c-0.4-0.2-0.8-0.5-1.4-0.7c-0.6-0.2-1.2-0.3-1.8-0.5C98,17.1,97.4,17,96.9,17c-0.9,0-1.7,0.1-2.6,0.4c-0.8,0.3-1.5,0.6-2.1,1.1
				c-0.6,0.5-1.1,1.1-1.5,1.8c-0.4,0.7-0.5,1.5-0.5,2.4c0,0.9,0.2,1.7,0.5,2.4c0.4,0.7,0.8,1.3,1.5,1.8c0.6,0.5,1.3,0.9,2.1,1.1
				s1.7,0.4,2.6,0.4c0.7,0,1.4-0.1,2.1-0.2c0.7-0.2,1.4-0.4,2-0.6c0.6-0.2,1.1-0.5,1.5-0.8c0.4-0.3,0.6-0.6,0.6-0.9
				c0-0.2,0-0.3-0.1-0.4l0.4-0.3l2.1,3.4L105.4,28.9z"/>
		</g>
	</g>
</g>
</svg>
