<?xml version="1.0" encoding="utf-8"?>
<!-- Generator: Adobe Illustrator 25.4.1, SVG Export Plug-In . SVG Version: 6.00 Build 0)  -->
<svg version="1.1" id="Layer_1" xmlns="http://www.w3.org/2000/svg" xmlns:xlink="http://www.w3.org/1999/xlink" x="0px" y="0px"
	 viewBox="0 0 236 90" style="enable-background:new 0 0 236 90;" xml:space="preserve">
<style type="text/css">
	.st0{fill:#00AFDB;}
	.st1{fill:#EE3224;}
</style>
<g>
	<path class="st0" d="M48,44.9L48,44.9c-3-12.2-13.8-15.6-25.8-15.6H9.7v46.1h5.6V44.9h3.7v-8.3h5.2c5.5,0,10.9,3,13.5,8.3H25.7
		v30.5h2.5c10.8,0,21.2-8,21.2-22.1C49.5,50.2,49,47.4,48,44.9"/>
	<polygon class="st0" points="91.4,44.9 77.7,44.9 83,29.4 74.9,29.4 68.9,44.9 57,75.5 66.5,75.5 70.5,64.9 89.2,64.9 93.2,75.5 
		103.4,75.5 	"/>
	<polyline class="st0" points="148.7,29.4 148.7,57.7 142.2,57.7 127.8,29.4 116.5,29.4 116.5,75.5 125.3,75.5 125.3,44.9 
		127.4,44.9 143.1,75.5 154.4,75.5 154.4,57.7 159.7,57.7 159.7,29.4 148.7,29.4 	"/>
	<path class="st0" d="M184.4,42.3c0-5,4.1-6.4,7.3-6.4c3.1,0,6.2,0.7,9.1,1.9V30c-3.1-0.9-6.4-1.3-9.9-1.3
		c-8.1,0-17.1,3.8-17.1,14.1c0,7.1,4.3,11,8.7,13.8c0.2,0.1,1.7-2.3,1.9-2.2c5.2,2.2,10.6,4.3,10.6,8.8c0,4.2-4.7,5.9-8.2,5.9
		c-0.9,0-1.9-0.1-2.8-0.2v7.3c1,0.1,2.1,0.1,3.3,0.1c5.3,0,10.2-1.3,13.4-4.2V53.2C194.9,47.9,184.4,48.1,184.4,42.3"/>
	<path class="st1" d="M27.2,13.2h1.7c2.7,0,3.9,1.4,3.9,3.1c0,2.7-1.7,4.6-4.9,4.6h-2.3L27.2,13.2 M26.9,19.9H28
		c2.2,0,3.5-1.4,3.5-3.5c0-1.3-0.6-2.3-2.8-2.3h-0.6L26.9,19.9z"/>
	<path class="st1" d="M34.7,15.4c0.5-0.2,1.2-0.3,1.6-0.3c1.1,0,2.2,0.4,2.2,1.8c0,0.3,0,0.6-0.1,0.9c-0.2,1-0.4,2.1-0.6,3.1h-1
		c0.1-0.3,0.1-0.6,0.2-0.9h0c-0.4,0.7-1.1,1.1-1.8,1.1c-0.9,0-1.8-0.5-1.8-1.6c0-1.6,1.4-2,3.3-2c0.2,0,0.5,0,0.7,0
		c0-0.1,0.1-0.2,0.1-0.4c0-0.8-0.5-1.1-1.3-1.1c-0.6,0-1.3,0.2-1.7,0.5L34.7,15.4 M37.2,18.2h-0.8c-0.8,0-2,0.2-2,1.2
		c0,0.5,0.4,0.8,0.9,0.8C36.4,20.2,37.1,19.1,37.2,18.2z"/>
	<path class="st1" d="M40,15.3h1.3l0.3-1.3l1.1-0.4l-0.4,1.7h1.5l-0.2,0.8h-1.6l-0.5,2.4c-0.1,0.3-0.2,0.9-0.2,1.1
		c0,0.4,0.2,0.6,0.7,0.6c0.2,0,0.5-0.1,0.7-0.1l-0.2,0.9C42.5,21,42,21,41.8,21c-1,0-1.3-0.6-1.3-1.2c0-0.4,0.1-1,0.2-1.3l0.5-2.3
		h-1.2L40,15.3"/>
	<path class="st1" d="M45.1,15.4c0.5-0.2,1.2-0.3,1.6-0.3c1.1,0,2.2,0.4,2.2,1.8c0,0.3,0,0.6-0.1,0.9c-0.2,1-0.4,2.1-0.6,3.1h-1
		c0.1-0.3,0.1-0.6,0.2-0.9h0c-0.4,0.7-1.1,1.1-1.8,1.1c-0.9,0-1.8-0.5-1.8-1.6c0-1.6,1.4-2,3.3-2c0.2,0,0.5,0,0.7,0
		c0-0.1,0.1-0.2,0.1-0.4c0-0.8-0.5-1.1-1.3-1.1c-0.6,0-1.3,0.2-1.7,0.5L45.1,15.4 M47.6,18.2h-0.8c-0.8,0-2,0.2-2,1.2
		c0,0.5,0.4,0.8,0.9,0.8C46.9,20.2,47.5,19.1,47.6,18.2z"/>
	<path class="st1" d="M57.4,13.2h1.1l1.7,7.7H59L58.6,19h-3.8l-1.2,1.9h-1.2L57.4,13.2 M57.7,14.4l-2.3,3.7h3L57.7,14.4z"/>
	<path class="st1" d="M62,16.1c0-0.2,0.1-0.5,0.2-0.9h1L63,16.2h0c0.3-0.5,0.9-1,1.9-1c0.1,0,0.3,0,0.5,0.1l-0.2,0.9
		c-0.2-0.1-0.4-0.1-0.4-0.1c-1.3,0-1.9,1.4-2,2.1l-0.6,2.8h-1L62,16.1"/>
	<path class="st1" d="M69.8,16.3c-0.4-0.2-0.7-0.3-1-0.3c-1.3,0-2.2,1.2-2.2,2.5c0,1,0.5,1.7,1.5,1.7c0.4,0,0.8-0.1,1.1-0.3l-0.2,1
		C68.7,21,68.3,21,68,21c-1.5,0-2.5-0.8-2.5-2.3c0-1.9,1.1-3.5,3.1-3.5c0.6,0,1,0.1,1.5,0.2L69.8,16.3"/>
	<path class="st1" d="M72,12.6h1L72.3,16h0c0.4-0.6,1.1-0.8,1.8-0.8c1.1,0,1.9,0.6,1.9,1.8c0,0.3-0.1,0.7-0.1,1l-0.6,3h-1l0.7-3.4
		c0-0.2,0.1-0.4,0.1-0.5c0-0.6-0.4-1-1-1c-1.3,0-1.9,1.4-2,2.1l-0.6,2.8h-1L72,12.6"/>
	<path class="st1" d="M78.3,15.3h1l-1.2,5.6h-1L78.3,15.3 M79.6,14h-1.2l0.2-1.2h1.2L79.6,14z"/>
	<polyline class="st1" points="80.5,15.3 81.6,15.3 82.1,19.8 82.2,19.8 84.7,15.3 85.8,15.3 82.6,20.9 81.4,20.9 80.5,15.3 	"/>
	<path class="st1" d="M86.9,15.3h1l-1.2,5.6h-1L86.9,15.3 M88.2,14h-1.2l0.2-1.2h1.2L88.2,14z"/>
	<path class="st1" d="M89.7,16.1c0-0.2,0.1-0.5,0.2-0.9h1l-0.2,0.9h0c0.3-0.5,0.9-1,1.9-1c1.1,0,1.9,0.6,1.9,1.8
		c0,0.3-0.1,0.7-0.1,1l-0.6,3h-1l0.7-3.4c0-0.2,0.1-0.4,0.1-0.5c0-0.6-0.4-1-1-1c-1.3,0-1.9,1.4-2,2.1l-0.6,2.8h-1L89.7,16.1"/>
	<path class="st1" d="M101.5,15.3l-1.3,6c-0.2,1.1-1.3,2-3,2c-0.4,0-1.3-0.1-1.9-0.4l0.2-0.9c0.5,0.3,1.2,0.5,1.8,0.5
		c1.2,0,1.7-0.8,2-1.6l0.1-0.6h0c-0.3,0.4-0.8,0.6-1.7,0.6c-1,0-2.1-0.8-2.1-2.2c0-2.1,1.2-3.5,2.8-3.5c0.8,0,1.5,0.3,1.8,1.1h0
		l0.2-1H101.5 M98,20.1c0.9,0,1.9-0.7,1.9-2.5c0-0.8-0.5-1.5-1.4-1.5c-1.2,0-1.8,1.5-1.8,2.6C96.8,19.3,97.1,20.1,98,20.1z"/>
	<path class="st1" d="M106.5,15.4c0.5-0.2,1.2-0.3,1.6-0.3c1.1,0,2.2,0.4,2.2,1.8c0,0.3,0,0.6-0.1,0.9c-0.2,1-0.4,2.1-0.6,3.1h-1
		c0.1-0.3,0.1-0.6,0.2-0.9h0c-0.4,0.7-1.1,1.1-1.8,1.1c-0.9,0-1.8-0.5-1.8-1.6c0-1.6,1.4-2,3.3-2c0.2,0,0.5,0,0.7,0
		c0-0.1,0.1-0.2,0.1-0.4c0-0.8-0.5-1.1-1.3-1.1c-0.6,0-1.3,0.2-1.7,0.5L106.5,15.4 M109,18.2h-0.8c-0.8,0-2,0.2-2,1.2
		c0,0.5,0.4,0.8,0.9,0.8C108.2,20.2,108.9,19.1,109,18.2z"/>
	<path class="st1" d="M112.4,16.1c0-0.2,0.1-0.5,0.2-0.9h1l-0.2,0.9h0c0.3-0.5,0.9-1,1.9-1c1.1,0,1.9,0.6,1.9,1.8
		c0,0.3-0.1,0.7-0.1,1l-0.6,3h-1l0.7-3.4c0-0.2,0.1-0.4,0.1-0.5c0-0.6-0.4-1-1-1c-1.3,0-1.9,1.4-2,2.1l-0.6,2.8h-1L112.4,16.1"/>
	<path class="st1" d="M123.4,19c-0.1,0.6-0.2,1.2-0.3,1.9h-1c0.1-0.3,0.1-0.6,0.2-0.9h0c-0.4,0.7-1.1,1-1.9,1
		c-1.4,0-2.1-1.1-2.1-2.4c0-1.8,1-3.5,2.9-3.5c0.8,0,1.5,0.3,1.8,1.1h0l0.7-3.6h1L123.4,19 M120.7,20.2c1.3,0,1.9-1.6,1.9-2.7
		c0-0.8-0.5-1.5-1.4-1.5c-1.2,0-1.9,1.6-1.9,2.6C119.4,19.5,119.8,20.2,120.7,20.2z"/>
	<polyline class="st1" points="129.6,13.2 131.1,13.2 133.3,19.7 133.3,19.7 134.6,13.2 135.7,13.2 134,20.9 132.6,20.9 130.4,14.5 
		130.4,14.5 129.1,20.9 128,20.9 129.6,13.2 	"/>
	<path class="st1" d="M140.3,20.8c-0.5,0.1-1.1,0.2-1.7,0.2c-1.4,0-2.6-0.6-2.6-2.5c0-1.6,1.1-3.3,3.1-3.3c1.4,0,2.1,0.8,2.1,2.1
		c0,0.4,0,0.7-0.1,1h-3.9c0,0.1,0,0.2,0,0.4c0,1.2,0.7,1.5,1.7,1.5c0.5,0,1.1-0.1,1.6-0.3L140.3,20.8 M140.2,17.6c0-0.2,0-0.3,0-0.4
		c0-0.7-0.4-1.1-1.2-1.1c-0.8,0-1.5,0.7-1.7,1.6H140.2z"/>
	<path class="st1" d="M142.5,15.3h1.3L144,14l1.1-0.4l-0.4,1.7h1.5l-0.2,0.8h-1.6l-0.5,2.4c-0.1,0.3-0.2,0.9-0.2,1.1
		c0,0.4,0.2,0.6,0.7,0.6c0.2,0,0.5-0.1,0.7-0.1l-0.2,0.9c-0.2,0.1-0.7,0.1-1,0.1c-1,0-1.3-0.6-1.3-1.2c0-0.4,0.1-1,0.2-1.3l0.5-2.3
		h-1.2L142.5,15.3"/>
	<polyline class="st1" points="146.7,15.3 147.8,15.3 148.2,19.8 148.2,19.8 150.6,15.3 151.8,15.3 152.2,19.8 152.2,19.8 
		154.6,15.3 155.7,15.3 152.7,20.9 151.5,20.9 151,16.4 151,16.4 148.6,20.9 147.4,20.9 146.7,15.3 	"/>
	<path class="st1" d="M158.9,15.2c1.5,0,2.5,0.9,2.5,2.5c0,1.9-1.1,3.4-3.1,3.4c-1.5,0-2.6-0.8-2.6-2.5
		C155.7,16.7,156.8,15.2,158.9,15.2 M158.2,20.2c1.2,0,2-1.3,2-2.6c0-0.8-0.5-1.6-1.4-1.6c-1.4,0-2.1,1.5-2.1,2.6
		C156.8,19.5,157.3,20.2,158.2,20.2z"/>
	<path class="st1" d="M163.3,16.1c0-0.2,0.1-0.5,0.2-0.9h1l-0.2,0.9h0c0.3-0.5,0.9-1,1.9-1c0.1,0,0.3,0,0.5,0.1l-0.2,0.9
		c-0.2-0.1-0.4-0.1-0.4-0.1c-1.3,0-1.9,1.4-2,2.1l-0.6,2.8h-1L163.3,16.1"/>
	<polyline class="st1" points="168.4,12.6 169.4,12.6 168.3,17.5 168.4,17.5 171,15.3 172.5,15.3 169.3,17.8 171.6,20.9 170.3,20.9 
		168.2,18 167.6,20.9 166.6,20.9 168.4,12.6 	"/>
	<path class="st1" d="M177.1,20.8c-0.5,0.1-1.1,0.2-1.7,0.2c-1.4,0-2.6-0.6-2.6-2.5c0-1.6,1.1-3.3,3.1-3.3c1.4,0,2.1,0.8,2.1,2.1
		c0,0.4,0,0.7-0.1,1H174c0,0.1,0,0.2,0,0.4c0,1.2,0.7,1.5,1.7,1.5c0.5,0,1.1-0.1,1.6-0.3L177.1,20.8 M177,17.6c0-0.2,0-0.3,0-0.4
		c0-0.7-0.4-1.1-1.2-1.1c-0.8,0-1.5,0.7-1.7,1.6H177z"/>
	<path class="st1" d="M184.1,19c-0.1,0.6-0.2,1.2-0.3,1.9h-1c0.1-0.3,0.1-0.6,0.2-0.9h0c-0.4,0.7-1.1,1-1.9,1
		c-1.4,0-2.1-1.1-2.1-2.4c0-1.8,1-3.5,2.9-3.5c0.8,0,1.5,0.3,1.8,1.1h0l0.7-3.6h1L184.1,19 M181.5,20.2c1.3,0,1.9-1.6,1.9-2.7
		c0-0.8-0.5-1.5-1.4-1.5c-1.2,0-1.9,1.6-1.9,2.6C180.1,19.5,180.5,20.2,181.5,20.2z"/>
	<path class="st1" d="M193.6,14.4c-0.4-0.2-0.8-0.4-1.4-0.4c-0.7,0-1.5,0.3-1.5,1.2c0,1.3,2.6,1.3,2.6,3.3c0,1.2-0.8,2.5-2.7,2.5
		c-0.9,0-1.5-0.2-2.1-0.4l0.4-1c0.5,0.3,1.1,0.5,1.6,0.5c1.2,0,1.7-0.7,1.7-1.4c0-1.6-2.6-1.3-2.6-3.4c0-1.4,1.3-2.2,2.5-2.2
		c0.6,0,1.3,0.1,1.8,0.4L193.6,14.4"/>
	<path class="st1" d="M198.6,20.8c-0.5,0.1-1.1,0.2-1.7,0.2c-1.4,0-2.6-0.6-2.6-2.5c0-1.6,1.1-3.3,3.1-3.3c1.4,0,2.1,0.8,2.1,2.1
		c0,0.4,0,0.7-0.1,1h-3.9c0,0.1,0,0.2,0,0.4c0,1.2,0.7,1.5,1.7,1.5c0.5,0,1.1-0.1,1.6-0.3L198.6,20.8 M198.5,17.6c0-0.2,0-0.3,0-0.4
		c0-0.7-0.4-1.1-1.2-1.1c-0.8,0-1.5,0.7-1.7,1.6H198.5z"/>
	<path class="st1" d="M201.3,16.1c0-0.2,0.1-0.5,0.2-0.9h1l-0.2,0.9h0c0.3-0.5,0.9-1,1.9-1c0.1,0,0.3,0,0.5,0.1l-0.2,0.9
		c-0.2-0.1-0.4-0.1-0.4-0.1c-1.3,0-1.9,1.4-2,2.1l-0.6,2.8h-1L201.3,16.1"/>
	<polyline class="st1" points="205,15.3 206.1,15.3 206.7,19.8 206.7,19.8 209.2,15.3 210.3,15.3 207.1,20.9 205.9,20.9 205,15.3 	
		"/>
	<path class="st1" d="M211.4,15.3h1l-1.2,5.6h-1L211.4,15.3 M212.8,14h-1.2l0.2-1.2h1.2L212.8,14z"/>
	<path class="st1" d="M217.7,16.3c-0.4-0.2-0.7-0.3-1-0.3c-1.3,0-2.2,1.2-2.2,2.5c0,1,0.5,1.7,1.5,1.7c0.4,0,0.8-0.1,1.1-0.3l-0.2,1
		c-0.3,0.1-0.7,0.1-1.1,0.1c-1.5,0-2.5-0.8-2.5-2.3c0-1.9,1.1-3.5,3.1-3.5c0.6,0,1,0.1,1.5,0.2L217.7,16.3"/>
	<path class="st1" d="M222.5,20.8c-0.5,0.1-1.1,0.2-1.7,0.2c-1.4,0-2.6-0.6-2.6-2.5c0-1.6,1.1-3.3,3.1-3.3c1.4,0,2.1,0.8,2.1,2.1
		c0,0.4,0,0.7-0.1,1h-3.9c0,0.1,0,0.2,0,0.4c0,1.2,0.7,1.5,1.7,1.5c0.5,0,1.1-0.1,1.6-0.3L222.5,20.8 M222.4,17.6c0-0.2,0-0.3,0-0.4
		c0-0.7-0.4-1.1-1.2-1.1c-0.8,0-1.5,0.7-1.7,1.6H222.4z"/>
	<path class="st1" d="M227.9,16.3c-0.3-0.1-0.7-0.3-1.1-0.3c-0.5,0-1,0.1-1,0.7c0,1,1.9,1,1.9,2.6c0,1.4-1.2,1.8-2.1,1.8
		c-0.9,0-1.2-0.1-1.6-0.3l0.2-0.9c0.4,0.2,0.8,0.3,1.3,0.3c0.6,0,1.2-0.2,1.2-0.9c0-1-1.9-1.1-1.9-2.5c0-1.2,1.2-1.7,2.1-1.7
		c0.5,0,1,0.1,1.5,0.3L227.9,16.3"/>
</g>
</svg>
