<svg width="838" height="306" viewBox="0 0 838 306" fill="none" xmlns="http://www.w3.org/2000/svg">
<path d="M195.904 212.667H182.238V215.081H195.904V212.667Z" fill="#F3F3F3"/>
<path d="M180.544 255.333H197.275V243.974H207.48V255.333H217.035C217.319 255.323 217.589 255.195 217.79 254.975C217.991 254.754 218.108 254.458 218.117 254.146V229.607C218.108 229.295 217.991 228.999 217.79 228.778C217.589 228.557 217.319 228.429 217.035 228.419H200.881V218.366C200.881 218.207 200.852 218.049 200.795 217.902C200.739 217.756 200.656 217.623 200.552 217.512C200.447 217.401 200.324 217.315 200.188 217.257C200.053 217.2 199.908 217.173 199.763 217.179H180.652C180.509 217.173 180.366 217.2 180.232 217.258C180.099 217.316 179.977 217.403 179.876 217.514C179.775 217.626 179.695 217.759 179.642 217.905C179.59 218.052 179.565 218.209 179.57 218.366V253.988C179.55 254.147 179.56 254.309 179.598 254.464C179.637 254.619 179.704 254.763 179.795 254.889C179.886 255.015 179.999 255.119 180.128 255.196C180.257 255.272 180.398 255.319 180.544 255.333ZM211.23 232.931H214.511V238.631H211.23V232.931ZM211.23 243.974H214.511V249.673H211.23V243.974ZM194.931 221.849H198.213V227.548H194.931V221.849ZM194.931 232.931H198.213V238.631H194.931V232.931ZM188.405 221.849H191.686V227.548H188.405V221.849ZM188.405 232.931H191.686V238.631H188.405V232.931ZM188.152 243.974H191.434V249.673H188.152V243.974ZM181.914 221.849H185.195V227.548H181.914V221.849ZM181.914 232.931H185.195V238.631H181.914V232.931ZM181.914 243.974H185.195V249.673H181.914V243.974Z" fill="#F3F3F3"/>
<path d="M205.281 255.333V246.428L199.439 246.388V255.333H205.281Z" fill="#F3F3F3"/>
<path d="M643.237 164.134C642.708 163.199 641.835 162.497 640.81 162.183C639.785 161.868 638.69 161.966 637.764 162.455C637.764 162.455 637.653 162.582 637.579 162.667L624.019 147.579C624.443 147.054 624.721 146.425 624.828 145.752C624.936 145.079 624.868 144.384 624.631 143.732L640.193 135.434C640.822 136.236 641.724 136.782 642.719 136.965C643.713 137.147 644.728 136.952 645.559 136.418C646.391 135.883 646.979 135.05 647.206 134.083C647.433 133.116 647.282 132.086 646.784 131.2C646.285 130.314 645.476 129.636 644.517 129.302C643.558 128.967 642.52 129 641.61 129.395C640.7 129.789 639.984 130.516 639.607 131.43C639.229 132.345 639.216 133.379 639.571 134.327L623.991 142.647L623.683 142.378C623.238 141.915 622.692 141.561 622.089 141.347C621.487 141.132 620.846 141.064 620.222 141.148L614.259 122.032C614.313 121.993 614.358 121.942 614.389 121.883C615.305 121.383 615.976 120.538 616.256 119.529C616.536 118.521 616.405 117.43 615.889 116.49C615.528 115.841 614.999 115.296 614.359 114.916C613.718 114.535 612.992 114.332 612.257 114.33C611.523 114.327 610.808 114.525 610.192 114.902C609.575 115.278 609.08 115.819 608.759 116.466C608.438 117.113 608.305 117.841 608.373 118.571C608.441 119.302 608.708 120.006 609.145 120.609C609.582 121.212 610.172 121.69 610.852 121.991C611.532 122.292 612.275 122.405 613.001 122.317L618.96 141.392C618.579 141.553 618.233 141.784 617.939 142.072C617.363 142.593 616.973 143.287 616.824 144.056L594.096 142.15C593.996 141.254 593.611 140.405 592.996 139.727C592.419 139.164 591.693 138.779 590.909 138.619C590.126 138.46 589.321 138.533 588.595 138.829C587.869 139.126 587.255 139.632 586.83 140.286C586.405 140.939 586.188 141.709 586.207 142.5C586.225 143.291 586.478 144.067 586.934 144.73C587.39 145.393 588.028 145.913 588.768 146.226C589.508 146.539 590.317 146.63 591.093 146.487C591.87 146.345 592.578 145.975 593.13 145.425C593.703 144.902 594.093 144.209 594.245 143.442L616.973 145.348C617.06 146.246 617.447 147.1 618.072 147.771L618.534 148.174L607.907 167.721C607.031 167.392 606.078 167.374 605.212 167.67C604.346 167.967 603.622 168.559 603.165 169.344C602.708 170.129 602.547 171.058 602.71 171.97C602.872 172.883 603.348 173.721 604.055 174.339C604.762 174.958 605.656 175.318 606.581 175.358C607.507 175.398 608.407 175.115 609.124 174.558C609.842 174.001 610.333 173.205 610.511 172.307C610.69 171.41 610.546 170.467 610.103 169.643C609.819 169.169 609.452 168.747 609.022 168.397L619.649 148.85C620.231 149.079 620.854 149.169 621.468 149.114C622.083 149.059 622.67 148.86 623.183 148.534L636.74 163.581C636.291 164.132 636.004 164.799 635.912 165.511C635.819 166.223 635.924 166.954 636.215 167.624C636.506 168.295 636.972 168.881 637.563 169.318C638.154 169.756 638.849 170.029 639.572 170.109C640.295 170.189 641.019 170.072 641.667 169.771C642.316 169.471 642.863 168.997 643.252 168.401C643.64 167.806 643.855 167.11 643.873 166.39C643.891 165.669 643.712 164.951 643.354 164.311L643.237 164.134Z" fill="#F3F3F3"/>
<path d="M428.856 73.7642V70.3613H431.423V42.5674H433.598V39.0588L436.948 36.7761L440.297 39.0377V42.5251C440.578 42.5675 440.864 42.5675 441.145 42.5251V37.4736H449.041V31.1328L457.741 25.2358L466.442 31.1751V37.5159H474.315V42.5462C474.596 42.5883 474.882 42.5883 475.163 42.5462V39.0588L478.491 36.7972L482.015 39.0588V42.5674H484.19V70.3613H486.691V73.7853H429.356C429.191 73.8215 429.018 73.8142 428.856 73.7642ZM457.763 38.0865C458.173 38.0921 458.581 38.0188 458.962 37.8707C459.342 37.7226 459.69 37.5028 459.983 37.2238C460.276 36.9448 460.509 36.6123 460.67 36.2452C460.83 35.8782 460.914 35.4839 460.917 35.0852C460.917 34.278 460.587 33.5038 459.999 32.9331C459.412 32.3623 458.615 32.0416 457.785 32.0416C456.954 32.0416 456.157 32.3623 455.57 32.9331C454.982 33.5038 454.653 34.278 454.653 35.0852C454.653 35.4811 454.733 35.8731 454.89 36.2387C455.046 36.6042 455.276 36.936 455.565 37.215C455.854 37.4939 456.197 37.7146 456.574 37.8642C456.952 38.0138 457.355 38.0893 457.763 38.0865ZM448.236 54.0442H445.213V60.385H448.236V54.0442ZM467.333 54.0442V60.385H470.335V54.0442H467.333ZM448.236 68.3533V62.0125H445.213V68.3533H448.236ZM470.335 68.3533V62.0125H467.333V68.3533H470.335ZM448.214 52.5647V46.2239H445.213V52.5647H448.214ZM467.311 46.2239V52.5647H470.335V46.2239H467.311ZM477.73 52.5647V46.2239H474.707V52.5647H477.73ZM455.588 52.5647V46.2239H452.586V52.5647H455.588ZM459.938 46.2239V52.5647H462.918V46.2239H459.938ZM437.796 54.1076V60.4485H440.819V54.1076H437.796ZM452.565 54.1076V60.4485H455.566V54.1076H452.565ZM459.938 54.1076V60.4485H462.94V54.1076H459.938ZM477.687 60.4485V54.1076H474.685V60.4485H477.687ZM440.819 68.3533V62.0125H437.817V68.3533H440.819ZM452.586 62.0125V68.3533H455.566V62.0125H452.586ZM459.938 62.0125V68.3533H462.918V62.0125H459.938ZM474.707 62.0125V68.3533H477.665V62.0125H474.707ZM440.819 46.2662H437.817V52.607H440.819V46.2662ZM437.535 39.9254V42.5674H439.188V39.9042C438.644 39.8733 438.1 39.8733 437.556 39.9042L437.535 39.9254ZM476.316 42.5885C476.866 42.6312 477.419 42.6312 477.969 42.5885V39.9254C477.419 39.8934 476.867 39.8934 476.316 39.9254V42.5885ZM436.36 42.5885V39.9465H434.729V42.5885H436.36ZM479.144 39.9254V42.5674H480.775V39.9042L479.144 39.9254Z" fill="#F3F3F3"/>
<path d="M306.448 117.486C309.214 117.486 311.456 115.244 311.456 112.478C311.456 109.712 309.214 107.469 306.448 107.469C303.682 107.469 301.44 109.712 301.44 112.478C301.44 115.244 303.682 117.486 306.448 117.486Z" fill="#F3F3F3"/>
<path d="M327.912 101.517C330.678 101.517 332.92 99.2744 332.92 96.5083C332.92 93.7423 330.678 91.5 327.912 91.5C325.146 91.5 322.903 93.7423 322.903 96.5083C322.903 99.2744 325.146 101.517 327.912 101.517Z" fill="#F3F3F3"/>
<path d="M336.757 117.486C339.523 117.486 341.765 115.244 341.765 112.478C341.765 109.712 339.523 107.469 336.757 107.469C333.991 107.469 331.749 109.712 331.749 112.478C331.749 115.244 333.991 117.486 336.757 117.486Z" fill="#F3F3F3"/>
<path d="M351.41 106.525C354.176 106.525 356.419 104.283 356.419 101.517C356.419 98.7506 354.176 96.5083 351.41 96.5083C348.644 96.5083 346.402 98.7506 346.402 101.517C346.402 104.283 348.644 106.525 351.41 106.525Z" fill="#F3F3F3"/>
<path d="M352.867 132.482C355.633 132.482 357.876 130.24 357.876 127.474C357.876 124.708 355.633 122.466 352.867 122.466C350.101 122.466 347.859 124.708 347.859 127.474C347.859 130.24 350.101 132.482 352.867 132.482Z" fill="#F3F3F3"/>
<path d="M331.748 142.499C334.514 142.499 336.756 140.257 336.756 137.491C336.756 134.725 334.514 132.482 331.748 132.482C328.982 132.482 326.74 134.725 326.74 137.491C326.74 140.257 328.982 142.499 331.748 142.499Z" fill="#F3F3F3"/>
<path d="M322.903 129.993C325.669 129.993 327.911 127.75 327.911 124.984C327.911 122.218 325.669 119.976 322.903 119.976C320.137 119.976 317.895 122.218 317.895 124.984C317.895 127.75 320.137 129.993 322.903 129.993Z" fill="#F3F3F3"/>
<path d="M322.931 125.442L322.703 125.27L306.247 113.508L306.647 112.936L322.874 124.526L336.297 112.392L327.797 97.0234L306.647 111.047L306.247 110.446L328.054 95.9932L337.184 112.535L322.931 125.442Z" fill="#F3F3F3"/>
<path d="M330.832 137.949L330.66 137.691L322.618 126.301L323.191 125.9L331.061 137.033L352.497 127.245L351.037 101.002L351.753 100.973L353.241 127.703L330.832 137.949Z" fill="#F3F3F3"/>
<path d="M338.127 112.735L337.641 112.22L348.859 101.717L327.824 96.2222L327.996 95.5353L350.29 101.345L338.127 112.735Z" fill="#F3F3F3"/>
<path d="M351.896 127.159L336.527 115.282L336.956 114.739L352.325 126.587L351.896 127.159Z" fill="#F3F3F3"/>
<path d="M830.232 277.429C828.697 264.186 827.93 257.564 827.886 256.924C827.899 256.711 827.899 256.497 827.886 256.284C827.403 253.614 824.794 252.069 822.513 250.7C820.231 249.379 817.76 248.419 815.188 247.853L814.618 247.721L813.894 247.566H813.543C813.503 247.545 813.458 247.534 813.412 247.534C813.366 247.534 813.321 247.545 813.28 247.566C813.262 247.608 813.253 247.653 813.253 247.699C813.253 247.744 813.262 247.789 813.28 247.831V248.008L813.456 251.451L804.267 267.165L793.258 267.21L784.485 251.561V248.008V247.765C784.52 247.68 784.52 247.585 784.485 247.5C784.445 247.477 784.4 247.464 784.354 247.464C784.308 247.464 784.262 247.477 784.222 247.5H783.871L783.148 247.654L782.578 247.787C780.012 248.351 777.548 249.311 775.275 250.634C772.972 252.003 770.362 253.548 769.88 256.218C769.867 256.431 769.867 256.645 769.88 256.858C769.88 257.609 769.068 264.208 767.533 277.362C767.204 280.166 766.875 283.057 766.524 285.97C766.494 286.048 766.494 286.135 766.524 286.213C766.559 286.229 766.596 286.237 766.634 286.237C766.672 286.237 766.709 286.229 766.744 286.213L782.358 286.323H815.451L831.066 286.213C831.144 286.242 831.229 286.242 831.307 286.213C831.323 286.175 831.332 286.133 831.332 286.092C831.332 286.05 831.323 286.009 831.307 285.97C830.912 283.167 830.539 280.276 830.232 277.429ZM787.446 274.493V270.94C787.461 270.905 787.468 270.867 787.468 270.829C787.468 270.791 787.461 270.754 787.446 270.719L783.63 267.033L783.915 261.25C784.135 261.604 784.398 262.023 784.771 262.575L787.863 267.342C789.617 270.013 792.446 274.317 792.622 274.537H787.578L787.446 274.493ZM786.854 271.072V274.78V275.817L783.213 273.61L783.499 267.828L786.854 271.072ZM786.854 276.59V279.945C786.832 280.002 786.832 280.065 786.854 280.121H782.819L783.104 274.272L786.854 276.59ZM811.153 276.59L814.464 274.25L814.75 280.033H811.263C811.263 280.033 811.263 279.901 811.263 279.834L811.153 276.59ZM811.153 275.84V274.913C811.153 274.913 811.153 274.913 811.153 274.802V271.116C811.482 270.719 813.061 268.909 814.267 267.585L814.552 273.61L811.153 275.84ZM813.982 266.746C810.495 270.675 810.473 270.719 810.451 270.763C810.439 270.821 810.439 270.882 810.451 270.94V274.515H804.574H804.684L809.42 267.32L812.644 262.376C813.105 261.67 813.456 261.096 813.675 260.721V260.588L813.982 266.768V266.746ZM813.412 252.598L813.763 259.529H813.587V259.661C813.28 260.301 808.39 267.761 804.815 273.147L804.662 267.629L813.412 252.598ZM784.288 252.753L792.753 267.695C792.622 270.763 792.556 272.418 792.534 273.323C790.626 270.476 784.398 260.941 783.915 260.081L784.288 252.753ZM782.095 285.992H767.138C767.467 283.189 767.796 280.408 768.125 277.738C769.66 264.495 770.318 257.873 770.472 257.189C770.455 256.998 770.455 256.806 770.472 256.615C770.91 254.232 773.279 252.819 775.56 251.473C777.786 250.175 780.197 249.23 782.709 248.67H783.257L783.915 248.537L782.095 285.992ZM815.802 285.992L813.938 248.317L814.596 248.449H815.144C817.657 249.006 820.069 249.951 822.294 251.252C824.487 252.598 826.943 254.011 827.382 256.395C827.382 256.66 827.382 256.858 827.382 256.969C827.382 257.741 828.193 264.34 829.728 277.517C830.035 280.232 830.364 283.013 830.693 285.772L815.802 285.992Z" fill="#F3F3F3"/>
<path d="M776.503 261.913L776.985 255.865C776.987 255.81 776.976 255.756 776.953 255.706C776.93 255.656 776.896 255.612 776.854 255.578C776.806 255.556 776.753 255.545 776.7 255.545C776.647 255.545 776.595 255.556 776.547 255.578L775.45 256.064C775.398 256.088 775.353 256.125 775.319 256.171C775.284 256.218 775.262 256.272 775.253 256.329L774.836 262.376C774.834 262.431 774.845 262.485 774.868 262.535C774.891 262.585 774.925 262.629 774.968 262.663C775.025 262.682 775.086 262.682 775.143 262.663H775.275L776.328 262.177C776.417 262.114 776.479 262.02 776.503 261.913ZM775.889 261.67L775.494 261.868L775.867 256.549L776.306 256.351L775.889 261.67Z" fill="#F3F3F3"/>
<path d="M780.1 260.081L779.003 260.566C778.949 260.585 778.903 260.621 778.871 260.669C778.84 260.717 778.824 260.774 778.828 260.831L778.389 266.879C778.387 266.933 778.398 266.988 778.421 267.038C778.444 267.087 778.478 267.131 778.521 267.165H778.696H778.85L779.88 266.658C779.929 266.632 779.971 266.594 780.002 266.548C780.033 266.502 780.051 266.448 780.056 266.393L780.538 260.368C780.54 260.313 780.529 260.258 780.506 260.208C780.483 260.159 780.449 260.115 780.407 260.081C780.36 260.053 780.307 260.039 780.253 260.039C780.199 260.039 780.146 260.053 780.1 260.081ZM779.442 266.194L779.047 266.371L779.42 261.052L779.88 260.853L779.442 266.194Z" fill="#F3F3F3"/>
<path d="M777.643 274.317L776.547 274.802C776.496 274.826 776.453 274.864 776.422 274.91C776.392 274.957 776.374 275.011 776.371 275.067L775.933 281.137C775.928 281.189 775.939 281.241 775.962 281.288C775.985 281.334 776.02 281.374 776.064 281.402H776.24H776.393L777.424 280.916C777.476 280.894 777.52 280.857 777.551 280.81C777.583 280.763 777.599 280.708 777.599 280.651L778.082 274.626C778.084 274.571 778.073 274.516 778.05 274.467C778.027 274.417 777.993 274.373 777.95 274.339C777.905 274.308 777.854 274.29 777.8 274.286C777.746 274.282 777.692 274.293 777.643 274.317ZM776.985 280.452L776.591 280.629L776.963 275.31L777.424 275.111L776.985 280.452Z" fill="#F3F3F3"/>
<path d="M771.328 275.862L770.406 276.347C770.36 276.371 770.32 276.405 770.29 276.447C770.259 276.49 770.239 276.538 770.231 276.59L769.88 282.637C769.874 282.695 769.885 282.754 769.912 282.805C769.94 282.856 769.982 282.898 770.034 282.924C770.083 282.941 770.137 282.941 770.187 282.924H770.341L771.218 282.417C771.264 282.393 771.304 282.359 771.334 282.317C771.365 282.274 771.385 282.225 771.393 282.174L771.788 276.126C771.79 276.072 771.779 276.017 771.756 275.967C771.733 275.918 771.699 275.874 771.657 275.84C771.605 275.811 771.547 275.798 771.489 275.802C771.431 275.806 771.375 275.827 771.328 275.862ZM770.779 281.975L770.538 282.108L770.845 276.811L771.328 276.7L770.779 281.975Z" fill="#F3F3F3"/>
<path d="M772.84 264.142L771.897 264.627C771.852 264.656 771.815 264.695 771.788 264.741C771.761 264.787 771.746 264.839 771.743 264.892L771.371 270.94C771.367 270.997 771.38 271.054 771.407 271.105C771.434 271.156 771.475 271.198 771.524 271.227C771.581 271.249 771.643 271.249 771.7 271.227H771.853L772.73 270.719C772.774 270.694 772.81 270.659 772.837 270.617C772.864 270.574 772.88 270.526 772.884 270.476L773.301 264.429C773.302 264.372 773.288 264.315 773.261 264.265C773.234 264.215 773.195 264.172 773.147 264.142C773.1 264.115 773.047 264.1 772.994 264.1C772.94 264.1 772.887 264.115 772.84 264.142ZM772.27 270.278L772.029 270.41L772.357 265.113L772.621 264.98L772.27 270.278Z" fill="#F3F3F3"/>
<path d="M818.062 260.61L819.114 261.096H819.246C819.303 261.114 819.364 261.114 819.421 261.096C819.463 261.066 819.498 261.027 819.521 260.98C819.543 260.934 819.555 260.883 819.553 260.831L819.136 254.761C819.124 254.706 819.1 254.653 819.066 254.607C819.032 254.562 818.989 254.524 818.939 254.497L817.842 254.011C817.796 253.984 817.743 253.97 817.689 253.97C817.635 253.97 817.582 253.984 817.535 254.011C817.493 254.045 817.459 254.089 817.436 254.139C817.413 254.189 817.402 254.243 817.404 254.298L817.886 260.323C817.891 260.382 817.91 260.438 817.94 260.488C817.97 260.538 818.012 260.58 818.062 260.61ZM818.522 254.982L818.895 260.301L818.5 260.125L818.083 254.784L818.522 254.982Z" fill="#F3F3F3"/>
<path d="M825.605 266.592C825.655 266.61 825.709 266.61 825.759 266.592C825.807 266.561 825.846 266.519 825.873 266.468C825.9 266.418 825.914 266.362 825.913 266.305L825.54 260.257C825.537 260.204 825.522 260.152 825.495 260.106C825.468 260.06 825.431 260.021 825.386 259.992L824.443 259.507C824.396 259.48 824.344 259.465 824.29 259.465C824.236 259.465 824.183 259.48 824.136 259.507C824.088 259.537 824.049 259.58 824.022 259.63C823.995 259.68 823.981 259.737 823.983 259.794L824.399 265.841C824.403 265.891 824.42 265.939 824.446 265.982C824.473 266.024 824.51 266.059 824.553 266.084L825.452 266.592H825.605ZM825.013 265.598L824.662 260.279L824.926 260.434L825.255 265.731L825.013 265.598Z" fill="#F3F3F3"/>
<path d="M820.825 266.768L819.728 266.283C819.682 266.255 819.629 266.241 819.575 266.241C819.521 266.241 819.468 266.255 819.421 266.283C819.379 266.317 819.345 266.361 819.322 266.41C819.299 266.46 819.288 266.515 819.29 266.57L819.772 272.595C819.78 272.649 819.8 272.701 819.831 272.747C819.861 272.793 819.901 272.831 819.947 272.86L821 273.368H821.132H821.307C821.35 273.333 821.384 273.289 821.407 273.24C821.429 273.19 821.44 273.135 821.439 273.081L821.022 267.033C821.018 266.975 820.997 266.919 820.962 266.872C820.927 266.825 820.879 266.789 820.825 266.768ZM820.386 272.396L819.969 267.055L820.408 267.254L820.781 272.573L820.386 272.396Z" fill="#F3F3F3"/>
<path d="M826.439 275.486L825.452 275.001C825.404 274.979 825.352 274.968 825.299 274.968C825.246 274.968 825.193 274.979 825.145 275.001C825.1 275.032 825.063 275.076 825.04 275.126C825.017 275.177 825.008 275.232 825.014 275.288L825.452 281.335C825.452 281.386 825.466 281.436 825.493 281.479C825.52 281.523 825.56 281.557 825.606 281.578L826.549 282.086H826.702C826.752 282.103 826.806 282.103 826.856 282.086C826.905 282.057 826.946 282.015 826.973 281.964C827 281.914 827.013 281.856 827.009 281.799L826.615 275.751C826.612 275.695 826.594 275.641 826.563 275.594C826.532 275.548 826.489 275.51 826.439 275.486ZM826.154 281.115L825.781 275.795L826.11 275.95L826.461 281.269L826.154 281.115Z" fill="#F3F3F3"/>
<path d="M819.355 278.047L818.28 277.561C818.233 277.534 818.18 277.52 818.127 277.52C818.073 277.52 818.02 277.534 817.973 277.561C817.923 277.588 817.884 277.631 817.86 277.683C817.836 277.734 817.83 277.792 817.841 277.848L818.324 283.873C818.324 283.93 818.341 283.985 818.372 284.033C818.403 284.08 818.447 284.116 818.499 284.138L819.53 284.624H819.662C819.745 284.618 819.823 284.581 819.88 284.519C819.937 284.458 819.969 284.377 819.969 284.293L819.552 278.245C819.536 278.2 819.509 278.158 819.475 278.124C819.441 278.089 819.4 278.063 819.355 278.047ZM818.916 283.697L818.499 278.356L818.938 278.554L819.311 283.873L818.916 283.697Z" fill="#F3F3F3"/>
<g clip-path="url(#clip0)">
<path d="M69.6006 206.961H19.9399C19.7188 206.961 19.5068 206.876 19.3504 206.724C19.1941 206.572 19.1062 206.366 19.1062 206.151V153.853C19.1062 153.638 19.1941 153.432 19.3504 153.28C19.5068 153.128 19.7188 153.042 19.9399 153.042H33.5955V141.772C33.5954 141.667 33.6172 141.564 33.6596 141.467C33.702 141.371 33.764 141.284 33.8419 141.212C33.9199 141.14 34.0122 141.084 34.1132 141.047C34.2141 141.011 34.3217 140.995 34.4292 141H55.1113C55.2188 140.995 55.3264 141.011 55.4273 141.047C55.5283 141.084 55.6205 141.14 55.6984 141.212C55.7764 141.284 55.8385 141.371 55.8809 141.467C55.9233 141.564 55.945 141.667 55.9449 141.772V153.042H69.6006C69.8217 153.042 70.0337 153.128 70.1901 153.28C70.3464 153.432 70.4342 153.638 70.4342 153.853V206.151C70.4342 206.366 70.3464 206.572 70.1901 206.724C70.0337 206.876 69.8217 206.961 69.6006 206.961ZM20.7735 205.34H68.767V154.663H55.1113C54.8902 154.663 54.6781 154.578 54.5218 154.426C54.3654 154.274 54.2777 154.068 54.2777 153.853V142.583H35.2628V153.853C35.2628 154.068 35.1751 154.274 35.0187 154.426C34.8624 154.578 34.6503 154.663 34.4292 154.663H20.7735V205.34Z" fill="#F3F3F3"/>
<path d="M48.9205 170.758H40.6239C40.4028 170.758 40.1907 170.673 40.0344 170.521C39.8781 170.369 39.7903 170.162 39.7903 169.948V161.919C39.7903 161.813 39.8117 161.708 39.8536 161.609C39.8955 161.511 39.957 161.422 40.0344 161.346C40.1118 161.271 40.2036 161.211 40.3048 161.171C40.4059 161.13 40.5144 161.109 40.6239 161.109H48.9205C49.03 161.109 49.1383 161.13 49.2395 161.171C49.3406 161.211 49.4326 161.271 49.51 161.346C49.5874 161.422 49.6487 161.511 49.6906 161.609C49.7325 161.708 49.7541 161.813 49.7541 161.919V169.948C49.7541 170.162 49.6663 170.369 49.51 170.521C49.3537 170.673 49.1416 170.758 48.9205 170.758ZM41.4575 169.137H48.0869V162.73H41.4575V169.137Z" fill="#F3F3F3"/>
<path d="M34.2724 170.758H26.3331C26.2254 170.758 26.1188 170.737 26.0198 170.696C25.9208 170.655 25.8314 170.594 25.7571 170.518C25.6829 170.443 25.6253 170.353 25.5878 170.255C25.5503 170.157 25.5337 170.052 25.5391 169.948V161.919C25.5337 161.815 25.5503 161.71 25.5878 161.612C25.6253 161.514 25.6829 161.424 25.7571 161.348C25.8314 161.273 25.9208 161.212 26.0198 161.171C26.1188 161.13 26.2254 161.109 26.3331 161.109H34.2724C34.4935 161.109 34.7056 161.194 34.8619 161.346C35.0183 161.498 35.106 161.704 35.106 161.919V169.948C35.106 170.162 35.0183 170.369 34.8619 170.521C34.7056 170.673 34.4935 170.758 34.2724 170.758ZM26.8094 169.137H33.4388V162.73H26.8094V169.137Z" fill="#F3F3F3"/>
<path d="M63.41 170.758H55.1134C54.8923 170.758 54.6802 170.673 54.5239 170.521C54.3676 170.369 54.2798 170.162 54.2798 169.948V161.919C54.2798 161.813 54.3014 161.708 54.3433 161.609C54.3852 161.511 54.4465 161.422 54.5239 161.346C54.6013 161.271 54.6933 161.211 54.7944 161.171C54.8956 161.13 55.0039 161.109 55.1134 161.109H63.41C63.5177 161.109 63.6243 161.13 63.7233 161.171C63.8223 161.212 63.9117 161.273 63.9859 161.348C64.0602 161.424 64.1178 161.514 64.1553 161.612C64.1928 161.71 64.2094 161.815 64.204 161.919V169.948C64.2094 170.052 64.1928 170.157 64.1553 170.255C64.1178 170.353 64.0602 170.443 63.9859 170.518C63.9117 170.594 63.8223 170.655 63.7233 170.696C63.6243 170.737 63.5177 170.758 63.41 170.758ZM55.947 169.137H62.5764V162.73H55.947V169.137Z" fill="#F3F3F3"/>
<path d="M48.9205 184.846H40.6239C40.4059 184.836 40.1995 184.748 40.0452 184.598C39.8909 184.448 39.8 184.247 39.7903 184.035V176.007C39.7903 175.792 39.8781 175.586 40.0344 175.434C40.1907 175.282 40.4028 175.197 40.6239 175.197H48.9205C49.1416 175.197 49.3537 175.282 49.51 175.434C49.6663 175.586 49.7541 175.792 49.7541 176.007V184.035C49.7444 184.247 49.6535 184.448 49.4992 184.598C49.3449 184.748 49.1385 184.836 48.9205 184.846ZM41.4575 183.225H48.0869V176.818H41.4575V183.225Z" fill="#F3F3F3"/>
<path d="M34.2724 184.846H26.3331C26.1189 184.836 25.917 184.746 25.7691 184.595C25.6213 184.444 25.5388 184.244 25.5391 184.035V176.007C25.5337 175.902 25.5503 175.798 25.5878 175.7C25.6253 175.602 25.6829 175.512 25.7571 175.436C25.8314 175.36 25.9208 175.3 26.0198 175.259C26.1188 175.218 26.2254 175.196 26.3331 175.197H34.2724C34.4935 175.197 34.7056 175.282 34.8619 175.434C35.0183 175.586 35.106 175.792 35.106 176.007V184.035C35.0963 184.247 35.0054 184.448 34.8511 184.598C34.6969 184.748 34.4904 184.836 34.2724 184.846ZM26.8094 183.225H33.4388V176.818H26.8094V183.225Z" fill="#F3F3F3"/>
<path d="M63.41 184.846H55.1134C54.8954 184.836 54.689 184.748 54.5347 184.598C54.3804 184.448 54.2895 184.247 54.2798 184.035V176.007C54.2798 175.792 54.3676 175.586 54.5239 175.434C54.6802 175.282 54.8923 175.197 55.1134 175.197H63.41C63.5177 175.196 63.6243 175.218 63.7233 175.259C63.8223 175.3 63.9117 175.36 63.9859 175.436C64.0602 175.512 64.1178 175.602 64.1553 175.7C64.1928 175.798 64.2094 175.902 64.204 176.007V184.035C64.2042 184.244 64.1218 184.444 63.9739 184.595C63.8261 184.746 63.6241 184.836 63.41 184.846ZM55.947 183.225H62.5764V176.818H55.947V183.225Z" fill="#F3F3F3"/>
<path d="M48.9205 206.961H40.6239C40.4028 206.961 40.1907 206.876 40.0344 206.724C39.8781 206.572 39.7903 206.366 39.7903 206.151V190.056C39.8 189.844 39.8909 189.643 40.0452 189.493C40.1995 189.343 40.4059 189.255 40.6239 189.246H48.9205C49.1385 189.255 49.3449 189.343 49.4992 189.493C49.6535 189.643 49.7444 189.844 49.7541 190.056V206.151C49.7541 206.366 49.6663 206.572 49.51 206.724C49.3537 206.876 49.1416 206.961 48.9205 206.961ZM41.4575 205.379H48.0869V190.867H41.4575V205.379Z" fill="#F3F3F3"/>
<path d="M34.2714 198.933H26.3321C26.1179 198.923 25.916 198.834 25.7681 198.683C25.6203 198.532 25.5378 198.331 25.5381 198.123V190.056C25.5378 189.848 25.6203 189.647 25.7681 189.496C25.916 189.345 26.1179 189.256 26.3321 189.246H34.2714C34.4894 189.255 34.6959 189.343 34.8501 189.493C35.0044 189.643 35.0953 189.844 35.105 190.056V198.123C35.0953 198.335 35.0044 198.535 34.8501 198.685C34.6959 198.835 34.4894 198.924 34.2714 198.933ZM26.8084 197.312H33.4378V190.867H26.8084V197.312Z" fill="#F3F3F3"/>
<path d="M63.41 198.933H55.1134C54.8954 198.924 54.689 198.835 54.5347 198.685C54.3804 198.535 54.2895 198.335 54.2798 198.123V190.056C54.2895 189.844 54.3804 189.643 54.5347 189.493C54.689 189.343 54.8954 189.255 55.1134 189.246H63.41C63.6242 189.256 63.8261 189.345 63.9739 189.496C64.1218 189.647 64.2042 189.848 64.204 190.056V198.123C64.2042 198.331 64.1218 198.532 63.9739 198.683C63.8261 198.834 63.6242 198.923 63.41 198.933ZM55.947 197.312H62.5764V190.867H55.947V197.312Z" fill="#F3F3F3"/>
<path d="M40.6239 156.67C40.4028 156.67 40.1907 156.585 40.0344 156.433C39.8781 156.281 39.7903 156.075 39.7903 155.86V147.832C39.7903 147.617 39.8781 147.41 40.0344 147.258C40.1907 147.106 40.4028 147.021 40.6239 147.021C40.845 147.021 41.057 147.106 41.2134 147.258C41.3697 147.41 41.4575 147.617 41.4575 147.832V155.86C41.4575 156.075 41.3697 156.281 41.2134 156.433C41.057 156.585 40.845 156.67 40.6239 156.67Z" fill="#F3F3F3"/>
<path d="M48.9195 156.67C48.6984 156.67 48.4864 156.585 48.33 156.433C48.1737 156.281 48.0859 156.075 48.0859 155.86V147.832C48.0859 147.617 48.1737 147.41 48.33 147.258C48.4864 147.106 48.6984 147.021 48.9195 147.021C49.1406 147.021 49.3527 147.106 49.509 147.258C49.6654 147.41 49.7531 147.617 49.7531 147.832V155.86C49.7531 156.075 49.6654 156.281 49.509 156.433C49.3527 156.585 49.1406 156.67 48.9195 156.67Z" fill="#F3F3F3"/>
<path d="M48.9205 152.656H40.6239C40.4028 152.656 40.1907 152.571 40.0344 152.419C39.8781 152.267 39.7903 152.061 39.7903 151.846C39.8 151.634 39.8909 151.433 40.0452 151.283C40.1995 151.133 40.4059 151.045 40.6239 151.035H48.9205C49.1385 151.045 49.3449 151.133 49.4992 151.283C49.6535 151.433 49.7444 151.634 49.7541 151.846C49.7541 152.061 49.6663 152.267 49.51 152.419C49.3537 152.571 49.1416 152.656 48.9205 152.656Z" fill="#F3F3F3"/>
</g>
<path d="M237.469 4.01166L233.349 9.6771L237.469 11.9866L241.191 6.13822L237.469 4.01166ZM231.388 10.9898L221.452 25.8929L226.785 29.6146L229.56 25.461C229.24 25.2138 228.949 24.9314 228.696 24.6136C227.618 23.2574 227.311 21.2471 228.247 19.3301C229.427 17.5067 230.684 16.7424 232.268 16.4724C233.309 16.352 234.353 16.5015 235.242 16.9044L237.07 14.1796L231.388 10.9898ZM233.016 17.4862C231.621 17.4738 230.123 18.1217 229.212 19.8123C227.644 23.0188 230.246 25.6771 233.382 25.6771C235.994 28.3479 237.569 30.4932 237.569 34.2337C237.569 40.1113 232.867 45.4487 227.118 45.4487C223.982 45.4487 220.99 44.4186 220.323 42.2587H212.481C214.608 47.0769 219.791 49.735 225.54 49.735C230.244 49.735 233.916 49.7246 236.007 48.6551C241.235 45.4485 243.318 40.1112 243.318 34.2336C243.318 29.4237 241.11 24.2356 236.406 19.9616C236.433 18.6033 234.811 17.5005 233.017 17.486L233.016 17.4862ZM232.684 19.4301C233.859 19.4301 234.811 20.3813 234.811 21.5568C234.811 22.7322 233.859 23.6834 232.684 23.6834C231.509 23.6834 230.557 22.7322 230.557 21.5568C230.557 20.3813 231.509 19.4301 232.684 19.4301ZM220.273 27.6709L218.329 30.5951L223.646 34.3168L225.589 31.3926L220.273 27.6709ZM210.354 39.0688C209.291 39.0688 208.227 39.6005 208.227 40.697C208.227 41.7271 209.291 42.2588 210.354 42.2588H211.401C211.401 41.696 211.918 41.1872 212.481 41.1955H220.323C221.222 41.2245 221.459 41.7541 221.469 42.2588H223.114C224.177 42.2588 225.241 41.7251 225.241 40.6472C225.241 39.5984 224.177 39.0688 223.114 39.0688H210.354ZM217.764 49.054C216.084 50.1838 213.544 51.9741 213.544 52.9917V53.9885H241.191V52.9584C241.191 51.9989 238.749 50.5286 237.07 49.2202C233.6 51.243 228.612 50.7986 225.54 50.7986C222.761 50.7986 220.084 50.2005 217.764 49.0541L217.764 49.054Z" fill="#F3F3F3"/>
<defs>
<clipPath id="clip0">
<rect width="51.3333" height="66" fill="white" transform="translate(19.1062 141)"/>
</clipPath>
</defs>
</svg>
