<svg xmlns="http://www.w3.org/2000/svg" viewBox="0 0 321.5 112.43"><defs><style>.cls-1{fill:#1d2850;}.cls-2{fill:#00b4b4;}</style></defs><g id="Layer_1" data-name="Layer 1"><rect class="cls-1" x="91.43" width="12.08" height="12.08"/><path class="cls-1" d="M106.58,64.56a6.42,6.42,0,0,0,1,4q1,1.32,3.63,1.32a13.12,13.12,0,0,0,1.92-.15,6.64,6.64,0,0,0,1.69-.45l.15,9a21.21,21.21,0,0,1-3.23.79,23.33,23.33,0,0,1-3.9.33,18.27,18.27,0,0,1-6.3-.94,9.65,9.65,0,0,1-4.09-2.7,10.62,10.62,0,0,1-2.22-4.22,20.39,20.39,0,0,1-.67-5.45L94.5,51.16h12.08Z" transform="translate(-3.13 -29.02)"/><path class="cls-1" d="M30.74,55.42a7.39,7.39,0,0,0-1.84-5,7,7,0,0,0-5.52-2.1,9.22,9.22,0,0,0-3.3.56,8.43,8.43,0,0,0-2.62,1.54,7.55,7.55,0,0,0-1.8,2.29,6.64,6.64,0,0,0-.75,2.73Zm11.32,4.73v1.5A13,13,0,0,1,42,63.08H14.91a6.58,6.58,0,0,0,.93,2.85,8.19,8.19,0,0,0,2,2.21,9.65,9.65,0,0,0,2.77,1.46,9.84,9.84,0,0,0,3.19.53,10.29,10.29,0,0,0,5-1.09,9.67,9.67,0,0,0,3.31-2.81l8.55,5.4a17.38,17.38,0,0,1-6.94,5.89,23.08,23.08,0,0,1-10,2.06,24,24,0,0,1-7.95-1.31,19.26,19.26,0,0,1-6.56-3.83,17.69,17.69,0,0,1-4.43-6.19,20.64,20.64,0,0,1-1.61-8.4A21,21,0,0,1,4.7,51.56,18.65,18.65,0,0,1,9,45.26a19,19,0,0,1,6.38-4,21.8,21.8,0,0,1,8-1.42,20.05,20.05,0,0,1,7.58,1.39,16.4,16.4,0,0,1,5.92,4,18.65,18.65,0,0,1,3.87,6.38,24.65,24.65,0,0,1,1.38,8.55" transform="translate(-3.13 -29.02)"/><path class="cls-1" d="M72.45,62.14H70.87c-1.35,0-2.71.07-4.09.19a17.07,17.07,0,0,0-3.67.71,6.74,6.74,0,0,0-2.67,1.54,3.53,3.53,0,0,0-1,2.66,3.27,3.27,0,0,0,.49,1.8,3.74,3.74,0,0,0,1.24,1.2,5.12,5.12,0,0,0,1.72.64,9.67,9.67,0,0,0,1.88.19A7.63,7.63,0,0,0,70.46,69a7.75,7.75,0,0,0,2-5.59Zm-22.58-16a21.49,21.49,0,0,1,7.69-4.72,26.31,26.31,0,0,1,9-1.58,24.09,24.09,0,0,1,8,1.16,12,12,0,0,1,5.29,3.6,15.33,15.33,0,0,1,3,6.16,36,36,0,0,1,.94,8.81V78.42H72.45v-4h-.23a9.27,9.27,0,0,1-4.31,3.6,15.33,15.33,0,0,1-6.26,1.27,19.16,19.16,0,0,1-4.66-.6,13.68,13.68,0,0,1-4.39-2,10.6,10.6,0,0,1-3.26-3.6,11.11,11.11,0,0,1-1.27-5.55,9.41,9.41,0,0,1,2.21-6.53A14.44,14.44,0,0,1,56,57.27a29.8,29.8,0,0,1,7.77-1.8A79.5,79.5,0,0,1,72.07,55v-.59a4.58,4.58,0,0,0-1.95-4.09A8.37,8.37,0,0,0,65.32,49a11.93,11.93,0,0,0-5.06,1.13,16.12,16.12,0,0,0-4.17,2.7Z" transform="translate(-3.13 -29.02)"/><path class="cls-1" d="M146.49,51.23a9.46,9.46,0,0,0-1.61-.3c-.52,0-1-.07-1.54-.07a8.89,8.89,0,0,0-4.16.89,8.46,8.46,0,0,0-2.7,2.17A8.12,8.12,0,0,0,135,56.69a9.28,9.28,0,0,0-.45,2.62V78.46H122.26V41.15h11.86v5.4h.15a12.14,12.14,0,0,1,4-4.68,10.41,10.41,0,0,1,6.07-1.82,14.17,14.17,0,0,1,1.47.08,5.71,5.71,0,0,1,1.16.22Z" transform="translate(-3.13 -29.02)"/><rect class="cls-1" x="150.12" y="12.08" width="12.3" height="37.36"/><path class="cls-1" d="M198.41,52.05a13.73,13.73,0,0,0-3.53-2.4,9.72,9.72,0,0,0-4.27-1,7.51,7.51,0,0,0-3.19.68A2.35,2.35,0,0,0,186,51.67a2.31,2.31,0,0,0,1.61,2.25,34.92,34.92,0,0,0,5.21,1.5A28,28,0,0,1,197,56.7a14.82,14.82,0,0,1,3.87,2.18,10.41,10.41,0,0,1,2.77,3.3,9.68,9.68,0,0,1,1.05,4.65,11.17,11.17,0,0,1-5.14,9.9,16,16,0,0,1-5.14,2.18,24.65,24.65,0,0,1-5.7.67,28.26,28.26,0,0,1-9-1.46,18.76,18.76,0,0,1-7.32-4.32l6.9-7.27a13.7,13.7,0,0,0,4.06,3,11.22,11.22,0,0,0,5.1,1.2,6.77,6.77,0,0,0,3-.71,2.56,2.56,0,0,0,1.46-2.52,2.69,2.69,0,0,0-1.8-2.55,32.31,32.31,0,0,0-5.62-1.72A28.76,28.76,0,0,1,181.6,62a12.28,12.28,0,0,1-3.48-2,10,10,0,0,1-2.52-3.15,9.64,9.64,0,0,1-1-4.5,10.91,10.91,0,0,1,1.42-5.74,12.16,12.16,0,0,1,3.68-3.87,16.41,16.41,0,0,1,5-2.21,21.73,21.73,0,0,1,5.44-.71,26.36,26.36,0,0,1,8.21,1.31,17.78,17.78,0,0,1,6.79,3.94Z" transform="translate(-3.13 -29.02)"/><rect class="cls-2" x="84.35" y="12.08" width="29.92" height="10.06"/><path class="cls-2" d="M317.84,136.31a2.32,2.32,0,0,1,.19-.87,2.74,2.74,0,0,1,.53-.79,2.52,2.52,0,0,1,.83-.58,2.58,2.58,0,0,1,1.08-.22,2.87,2.87,0,0,1,1.06.18,2.19,2.19,0,0,1,.76.52,2.16,2.16,0,0,1,.45.78,3,3,0,0,1,.17,1Zm6.79,1.28V137a6.31,6.31,0,0,0-.22-1.61,4,4,0,0,0-.73-1.43,3.92,3.92,0,0,0-1.27-1,4.25,4.25,0,0,0-1.91-.39,4.32,4.32,0,0,0-1.74.34,4.22,4.22,0,0,0-1.39.94,4.33,4.33,0,0,0-.91,1.41,4.6,4.6,0,0,0-.33,1.76,5,5,0,0,0,.3,1.75,4.19,4.19,0,0,0,.87,1.41,3.9,3.9,0,0,0,1.37.94,4.65,4.65,0,0,0,1.82.34,4.5,4.5,0,0,0,3.75-1.73l-1.22-.93a4.17,4.17,0,0,1-1,.92,2.38,2.38,0,0,1-1.3.35,3.21,3.21,0,0,1-1.07-.18,3,3,0,0,1-.91-.5,2.41,2.41,0,0,1-.63-.78,2,2,0,0,1-.25-1Zm-17.92,3.65h1.6v-4.36a4,4,0,0,1,.18-1.27,2.5,2.5,0,0,1,.5-.88,1.93,1.93,0,0,1,.75-.51,2.6,2.6,0,0,1,.93-.16,2.18,2.18,0,0,1,.72.12,1.58,1.58,0,0,1,.62.37,1.85,1.85,0,0,1,.43.68,3,3,0,0,1,.16,1v5h1.6v-5.45a3.76,3.76,0,0,0-.25-1.45,2.71,2.71,0,0,0-.67-1,2.55,2.55,0,0,0-1-.58,3.74,3.74,0,0,0-2.9.23,2.36,2.36,0,0,0-1,1.1h0v-1.31h-1.6Zm-4.19-10.67a1.16,1.16,0,1,0-.35-.83,1.14,1.14,0,0,0,.35.83m0,10.67h1.6v-8.47h-1.6Zm-1.47-7.32a3.91,3.91,0,0,0-1.47-1,4.89,4.89,0,0,0-1.78-.33,4.78,4.78,0,0,0-1.81.33,4.17,4.17,0,0,0-1.39.92,4,4,0,0,0-.9,1.41,5.22,5.22,0,0,0,0,3.6,3.86,3.86,0,0,0,.91,1.39,4.16,4.16,0,0,0,1.4.9,4.91,4.91,0,0,0,1.79.32,5.12,5.12,0,0,0,1.76-.3,3.78,3.78,0,0,0,1.46-1L299.9,139a3.06,3.06,0,0,1-.89.7,2.58,2.58,0,0,1-1.16.24,2.67,2.67,0,0,1-1.12-.22,2.56,2.56,0,0,1-.86-.62,2.75,2.75,0,0,1-.55-.92,3,3,0,0,1-.2-1.11,3.93,3.93,0,0,1,.17-1.14,2.93,2.93,0,0,1,.5-1,2.3,2.3,0,0,1,.82-.66,2.6,2.6,0,0,1,1.15-.24,2.66,2.66,0,0,1,1.17.24,3.33,3.33,0,0,1,.94.7Zm-11.45-3.35a1.16,1.16,0,1,0-.35-.83,1.14,1.14,0,0,0,.35.83m0,10.67h1.6v-8.47h-1.6Zm-8.11-1.51a2.58,2.58,0,0,1-.87-.61,2.54,2.54,0,0,1-.56-.93,3.79,3.79,0,0,1,0-2.37,2.72,2.72,0,0,1,.56-.93,2.58,2.58,0,0,1,.87-.61,2.89,2.89,0,0,1,1.16-.22,2.86,2.86,0,0,1,1.16.22,2.52,2.52,0,0,1,.88.61,2.7,2.7,0,0,1,.55.93,3.61,3.61,0,0,1,0,2.37,2.52,2.52,0,0,1-1.43,1.54,2.86,2.86,0,0,1-1.16.22,2.89,2.89,0,0,1-1.16-.22m5.55-12h-1.6V134h0a2.91,2.91,0,0,0-1.23-1.05,4,4,0,0,0-1.71-.38,4.42,4.42,0,0,0-1.78.34,4.09,4.09,0,0,0-1.36.94,4.21,4.21,0,0,0-.86,1.41,5.12,5.12,0,0,0,0,3.51,4.42,4.42,0,0,0,.86,1.41,4,4,0,0,0,1.36.94,4.42,4.42,0,0,0,1.78.34,4,4,0,0,0,1.67-.37,3.09,3.09,0,0,0,1.27-1.06h0v1.22h1.6Zm-17.19,8.57a2.32,2.32,0,0,1,.19-.87,2.74,2.74,0,0,1,.53-.79,2.6,2.6,0,0,1,1.91-.8,2.87,2.87,0,0,1,1.06.18,2.19,2.19,0,0,1,.76.52,2.16,2.16,0,0,1,.45.78,3.35,3.35,0,0,1,.17,1Zm6.79,1.28V137a5.91,5.91,0,0,0-.23-1.61,4.1,4.1,0,0,0-.72-1.43,3.85,3.85,0,0,0-1.28-1,4.18,4.18,0,0,0-1.9-.39,4.4,4.4,0,0,0-1.75.34,4.28,4.28,0,0,0-1.38.94,4.33,4.33,0,0,0-.91,1.41,4.6,4.6,0,0,0-.33,1.76,5,5,0,0,0,.3,1.75,3.9,3.9,0,0,0,.87,1.41,3.81,3.81,0,0,0,1.37.94,4.61,4.61,0,0,0,1.82.34,4.47,4.47,0,0,0,3.74-1.73l-1.21-.93a4.17,4.17,0,0,1-1,.92,2.41,2.41,0,0,1-1.3.35,3.21,3.21,0,0,1-1.07-.18,3,3,0,0,1-.91-.5,2.58,2.58,0,0,1-.64-.78,2.12,2.12,0,0,1-.24-1Zm-23.21,3.65h1.61v-4.4a4.22,4.22,0,0,1,.17-1.24,2.31,2.31,0,0,1,.49-.86,1.83,1.83,0,0,1,.7-.51,2.2,2.2,0,0,1,.83-.17,1.82,1.82,0,0,1,.94.21,1.27,1.27,0,0,1,.53.57,2.41,2.41,0,0,1,.25.86,7.59,7.59,0,0,1,.07,1.11v4.43h1.6v-4.63a3.17,3.17,0,0,1,.5-1.84,1.91,1.91,0,0,1,1.66-.71,1.86,1.86,0,0,1,1,.21,1.36,1.36,0,0,1,.55.54,2.16,2.16,0,0,1,.26.79,6.77,6.77,0,0,1,.06.92v4.72h1.61v-4.93a6.88,6.88,0,0,0-.13-1.38,3.37,3.37,0,0,0-.49-1.2,2.67,2.67,0,0,0-1-.85,3.53,3.53,0,0,0-1.6-.32,3.27,3.27,0,0,0-1.52.39,2.75,2.75,0,0,0-1.16,1.18,3,3,0,0,0-1.05-1.18,3,3,0,0,0-1.59-.39,3.21,3.21,0,0,0-1.05.17,3.7,3.7,0,0,0-.82.41,2.86,2.86,0,0,0-.57.51,1.49,1.49,0,0,0-.28.45h0v-1.33h-1.5Zm-9.12,0H246v-13.5h-1.6Zm-4-4.07v.53a3.26,3.26,0,0,1-.12.87,2.21,2.21,0,0,1-.41.79,2.1,2.1,0,0,1-.75.58,2.59,2.59,0,0,1-1.13.23,2.38,2.38,0,0,1-1.33-.33,1.17,1.17,0,0,1-.49-1.05,1.12,1.12,0,0,1,.32-.82,2.07,2.07,0,0,1,.8-.5,4.47,4.47,0,0,1,1.09-.24q.6-.06,1.17-.06ZM236,134.81l.44-.34a3,3,0,0,1,.52-.31,2.92,2.92,0,0,1,.63-.22,3.37,3.37,0,0,1,.82-.09,2.4,2.4,0,0,1,.89.15,1.72,1.72,0,0,1,.62.41,1.58,1.58,0,0,1,.38.58,1.81,1.81,0,0,1,.12.64V136h-1.17a10.48,10.48,0,0,0-1.82.15,4.87,4.87,0,0,0-1.48.5,2.81,2.81,0,0,0-1,.9,2.49,2.49,0,0,0-.36,1.38,2.36,2.36,0,0,0,.23,1.09,2.24,2.24,0,0,0,.63.8,2.88,2.88,0,0,0,.94.48,3.79,3.79,0,0,0,1.12.16,3.94,3.94,0,0,0,1.7-.34,3,3,0,0,0,1.27-1.16h0q0,.65.06,1.29H242q0-.35-.06-.72c0-.25,0-.52,0-.82v-4.32a2.74,2.74,0,0,0-.2-1.06,2.44,2.44,0,0,0-.64-.9,3.19,3.19,0,0,0-1.09-.63,5.05,5.05,0,0,0-1.6-.23,5.35,5.35,0,0,0-1.79.31,4.57,4.57,0,0,0-1.57.94Zm-10.93,6.43h1.61v-4.36a4,4,0,0,1,.18-1.27,2.36,2.36,0,0,1,.5-.88,1.93,1.93,0,0,1,.75-.51,2.51,2.51,0,0,1,.92-.16,2.24,2.24,0,0,1,.73.12,1.48,1.48,0,0,1,.61.37,1.73,1.73,0,0,1,.43.68,2.78,2.78,0,0,1,.16,1v5h1.61v-5.45a3.76,3.76,0,0,0-.25-1.45,2.83,2.83,0,0,0-.67-1,2.63,2.63,0,0,0-1-.58,3.59,3.59,0,0,0-1.17-.19,3.46,3.46,0,0,0-1.73.42,2.44,2.44,0,0,0-1.06,1.1h0v-1.31h-1.61Zm-10.66-2.49a4.44,4.44,0,0,0,1,1.41,4.5,4.5,0,0,0,1.43.94,4.54,4.54,0,0,0,1.77.35,4.46,4.46,0,0,0,1.76-.35,4.39,4.39,0,0,0,1.43-.94A4.33,4.33,0,0,0,223,137a4.39,4.39,0,0,0-.34-1.74,4.7,4.7,0,0,0-1-1.41,4.53,4.53,0,0,0-3.19-1.3,4.53,4.53,0,0,0-3.2,1.3,4.67,4.67,0,0,0-1,1.41A4.23,4.23,0,0,0,214,137a4.3,4.3,0,0,0,.35,1.74m1.56-2.93a2.7,2.7,0,0,1,.55-.93,2.52,2.52,0,0,1,.88-.61,2.86,2.86,0,0,1,1.16-.22,2.92,2.92,0,0,1,1.16.22,2.58,2.58,0,0,1,.87.61,2.7,2.7,0,0,1,.55.93,3.61,3.61,0,0,1,0,2.37,2.52,2.52,0,0,1-.55.93,2.58,2.58,0,0,1-.87.61,2.92,2.92,0,0,1-1.16.22,2.86,2.86,0,0,1-1.16-.22,2.52,2.52,0,0,1-1.43-1.54,3.61,3.61,0,0,1,0-2.37m-5.69-5.25a1.16,1.16,0,1,0-.35-.83,1.14,1.14,0,0,0,.35.83m0,10.67h1.61v-8.47h-1.61Zm-2.2-8.47h-2.3V130.4h-1.61v2.37h-1.85v1.4h1.85v4.41c0,.34,0,.68,0,1a2.16,2.16,0,0,0,.28.92,1.7,1.7,0,0,0,.75.67,3.28,3.28,0,0,0,1.44.26,5.9,5.9,0,0,0,.71-.06,2.24,2.24,0,0,0,.74-.22V139.7a1.7,1.7,0,0,1-.56.2,4,4,0,0,1-.59,0,1.22,1.22,0,0,1-.7-.17,1,1,0,0,1-.36-.44,1.81,1.81,0,0,1-.13-.63c0-.23,0-.47,0-.7v-3.84h2.3Zm-8.37,4.4v.53a3.26,3.26,0,0,1-.12.87,2.38,2.38,0,0,1-.41.79,2.19,2.19,0,0,1-.75.58,2.59,2.59,0,0,1-1.13.23,2.36,2.36,0,0,1-1.33-.33,1.15,1.15,0,0,1-.49-1.05,1.12,1.12,0,0,1,.31-.82,2.19,2.19,0,0,1,.81-.5,4.39,4.39,0,0,1,1.08-.24q.6-.06,1.17-.06Zm-4.43-2.36.45-.34a2.65,2.65,0,0,1,.52-.31,2.92,2.92,0,0,1,.63-.22,3.23,3.23,0,0,1,.81-.09,2.42,2.42,0,0,1,.9.15,1.81,1.81,0,0,1,.62.41,1.72,1.72,0,0,1,.38.58,1.81,1.81,0,0,1,.12.64V136h-1.18a10.44,10.44,0,0,0-1.81.15,4.87,4.87,0,0,0-1.48.5,2.73,2.73,0,0,0-1,.9,2.49,2.49,0,0,0-.37,1.38,2.37,2.37,0,0,0,.24,1.09,2.24,2.24,0,0,0,.63.8,2.88,2.88,0,0,0,.94.48,3.75,3.75,0,0,0,1.12.16,4,4,0,0,0,1.7-.34,3,3,0,0,0,1.26-1.16h0c0,.43,0,.86.05,1.29h1.43c0-.23,0-.47,0-.72s0-.52,0-.82v-4.32a2.93,2.93,0,0,0-.2-1.06,2.44,2.44,0,0,0-.64-.9,3.15,3.15,0,0,0-1.1-.63,5,5,0,0,0-1.59-.23,5.35,5.35,0,0,0-1.79.31,4.39,4.39,0,0,0-1.57.94Zm-5.16,6.43h1.61v-13.5h-1.61Zm-2.3-7.29a2.6,2.6,0,0,0-1.25-1.07,4.36,4.36,0,0,0-1.64-.32,4.29,4.29,0,0,0-1.17.16,3.54,3.54,0,0,0-1,.48,2.62,2.62,0,0,0-.73.82,2.33,2.33,0,0,0-.27,1.15,2.19,2.19,0,0,0,.21,1,1.89,1.89,0,0,0,.57.68,3,3,0,0,0,.82.43c.31.11.64.2,1,.29l.62.13a3.65,3.65,0,0,1,.66.22,1.55,1.55,0,0,1,.54.36.82.82,0,0,1,.22.59.75.75,0,0,1-.15.47,1.17,1.17,0,0,1-.39.34,2,2,0,0,1-.56.2,3.23,3.23,0,0,1-.61.06,2.18,2.18,0,0,1-1.18-.3,5.41,5.41,0,0,1-.88-.7l-1.21,1a3.33,3.33,0,0,0,1.42,1.18,5,5,0,0,0,1.85.32,5.82,5.82,0,0,0,1.24-.14,3.25,3.25,0,0,0,1.09-.47,2.42,2.42,0,0,0,.79-.83,2.35,2.35,0,0,0,.3-1.22,2.48,2.48,0,0,0-.18-1,2.24,2.24,0,0,0-.52-.7,2.65,2.65,0,0,0-.79-.46,6.49,6.49,0,0,0-1-.3l-.64-.13a3.91,3.91,0,0,1-.71-.21,1.9,1.9,0,0,1-.57-.38.78.78,0,0,1-.24-.6.77.77,0,0,1,.42-.71,2,2,0,0,1,1-.24,2,2,0,0,1,1,.24,2.4,2.4,0,0,1,.7.6Zm-15.67,7.29h1.6v-4.36a4,4,0,0,1,.18-1.27,2.5,2.5,0,0,1,.5-.88,2.09,2.09,0,0,1,.75-.51,2.6,2.6,0,0,1,.93-.16,2.18,2.18,0,0,1,.72.12,1.51,1.51,0,0,1,.62.37,1.85,1.85,0,0,1,.43.68,2.78,2.78,0,0,1,.16,1v5h1.61v-5.45a4,4,0,0,0-.25-1.45,2.83,2.83,0,0,0-.67-1,2.59,2.59,0,0,0-1-.58,3.74,3.74,0,0,0-2.9.23,2.36,2.36,0,0,0-1,1.1h0v-1.31h-1.6Zm-3.84-4.07v.53a2.91,2.91,0,0,1-.13.87,2.21,2.21,0,0,1-.41.79,2.1,2.1,0,0,1-.75.58,2.54,2.54,0,0,1-1.12.23,2.36,2.36,0,0,1-1.33-.33,1.15,1.15,0,0,1-.49-1.05,1.12,1.12,0,0,1,.31-.82,2.23,2.23,0,0,1,.8-.5,4.47,4.47,0,0,1,1.09-.24q.6-.06,1.17-.06Zm-4.43-2.36.45-.34a2.65,2.65,0,0,1,.52-.31,2.92,2.92,0,0,1,.63-.22,3.23,3.23,0,0,1,.81-.09,2.33,2.33,0,0,1,.89.15,1.86,1.86,0,0,1,.63.41,1.55,1.55,0,0,1,.37.58,1.63,1.63,0,0,1,.13.64V136h-1.18a10.36,10.36,0,0,0-1.81.15,4.77,4.77,0,0,0-1.48.5,2.73,2.73,0,0,0-1,.9,2.41,2.41,0,0,0-.37,1.38,2.5,2.5,0,0,0,.23,1.09,2.39,2.39,0,0,0,.64.8,2.88,2.88,0,0,0,.94.48,3.75,3.75,0,0,0,1.12.16,4,4,0,0,0,1.7-.34,3,3,0,0,0,1.26-1.16h0c0,.43,0,.86.05,1.29h1.43c0-.23,0-.47,0-.72s0-.52,0-.82v-4.32a2.75,2.75,0,0,0-.21-1.06,2.31,2.31,0,0,0-.63-.9,3.24,3.24,0,0,0-1.1-.63,5,5,0,0,0-1.6-.23,5.3,5.3,0,0,0-1.78.31,4.39,4.39,0,0,0-1.57.94Zm-7.6,6.43h1.6V137a2.92,2.92,0,0,1,.63-2.06,2.37,2.37,0,0,1,1.8-.66,3.37,3.37,0,0,1,.79.13l.07-1.73a2.31,2.31,0,0,0-.72-.11,2.64,2.64,0,0,0-.78.12,2.9,2.9,0,0,0-.72.31,3,3,0,0,0-.6.47,2.38,2.38,0,0,0-.43.62h0v-1.31h-1.6Zm-2.07-8.47h-2.31V130.4h-1.6v2.37h-1.86v1.4h1.86v4.41c0,.34,0,.68,0,1a2.16,2.16,0,0,0,.29.92,1.7,1.7,0,0,0,.75.67,3.28,3.28,0,0,0,1.44.26,5.77,5.77,0,0,0,.7-.06,2.24,2.24,0,0,0,.74-.22V139.7a1.73,1.73,0,0,1-.55.2,4.15,4.15,0,0,1-.59,0,1.26,1.26,0,0,1-.71-.17,1,1,0,0,1-.35-.44,1.82,1.82,0,0,1-.14-.63c0-.23,0-.47,0-.7v-3.84h2.31Zm-16.1,8.47h1.6V137a2.92,2.92,0,0,1,.63-2.06,2.34,2.34,0,0,1,1.8-.66,2.58,2.58,0,0,1,.39,0l.4.09.07-1.73a2.36,2.36,0,0,0-.72-.11,2.64,2.64,0,0,0-.78.12,3,3,0,0,0-.73.31,2.71,2.71,0,0,0-.59.47,2.16,2.16,0,0,0-.43.62h0v-1.31h-1.6Zm-10.67-2.49a4.44,4.44,0,0,0,1,1.41,4.5,4.5,0,0,0,1.43.94,4.65,4.65,0,0,0,3.54,0,4.45,4.45,0,0,0,1.42-.94,4.3,4.3,0,0,0,1-1.41,4.47,4.47,0,0,0,.35-1.74,4.4,4.4,0,0,0-.35-1.74,4.55,4.55,0,0,0-7.35-1.41,4.67,4.67,0,0,0-1,1.41,4.4,4.4,0,0,0-.35,1.74,4.47,4.47,0,0,0,.35,1.74m1.56-2.93a2.86,2.86,0,0,1,.55-.93,2.52,2.52,0,0,1,.88-.61,2.86,2.86,0,0,1,1.16-.22,2.89,2.89,0,0,1,1.16.22,2.48,2.48,0,0,1,.87.61,2.72,2.72,0,0,1,.56.93,3.79,3.79,0,0,1,0,2.37,2.54,2.54,0,0,1-.56.93,2.48,2.48,0,0,1-.87.61,2.89,2.89,0,0,1-1.16.22,2.86,2.86,0,0,1-1.16-.22,2.52,2.52,0,0,1-.88-.61,2.67,2.67,0,0,1-.55-.93,3.61,3.61,0,0,1,0-2.37m-6.82,5.42h1.61v-7.07h1.93v-1.4h-1.91v-1.94a6.48,6.48,0,0,1,0-.8,1.47,1.47,0,0,1,.2-.59,1,1,0,0,1,.42-.39,1.55,1.55,0,0,1,.71-.13,3.23,3.23,0,0,1,.46,0,2.54,2.54,0,0,1,.45.13l.18-1.43a4.19,4.19,0,0,0-.63-.11h-.57a2.67,2.67,0,0,0-2.24.83,4.06,4.06,0,0,0-.65,2.52v1.89h-1.82v1.4h1.82Z" transform="translate(-3.13 -29.02)"/><path class="cls-2" d="M304,114.89a2.1,2.1,0,0,1,.19-.87,2.55,2.55,0,0,1,.53-.79,2.66,2.66,0,0,1,1.91-.81,2.86,2.86,0,0,1,1.06.19,2.19,2.19,0,0,1,.76.52,2.16,2.16,0,0,1,.45.78,3.29,3.29,0,0,1,.17,1Zm6.79,1.28v-.57a5.85,5.85,0,0,0-.23-1.61,4.1,4.1,0,0,0-.72-1.43,3.74,3.74,0,0,0-1.28-1,4.18,4.18,0,0,0-1.9-.39,4.4,4.4,0,0,0-1.75.34,4.14,4.14,0,0,0-2.29,2.35,4.58,4.58,0,0,0-.33,1.75,5,5,0,0,0,.3,1.76,4.08,4.08,0,0,0,.87,1.41,3.94,3.94,0,0,0,1.37.94,4.6,4.6,0,0,0,1.81.34,4.47,4.47,0,0,0,3.75-1.73l-1.21-.93a4.17,4.17,0,0,1-1,.92,2.41,2.41,0,0,1-1.3.35,3.21,3.21,0,0,1-1.07-.18,3,3,0,0,1-.91-.5,2.67,2.67,0,0,1-.64-.78,2.12,2.12,0,0,1-.24-1Zm-14.29,3.64h1.61v-4.24a2.9,2.9,0,0,1,.63-2.06,2.34,2.34,0,0,1,1.8-.66,1.72,1.72,0,0,1,.39,0,2.74,2.74,0,0,1,.39.09l.08-1.73a2.09,2.09,0,0,0-.72-.11,3,3,0,0,0-.78.11,3.23,3.23,0,0,0-.73.32,2.71,2.71,0,0,0-.59.47,2,2,0,0,0-.43.62h0v-1.31h-1.61Zm-2.42-8.46h-1.61v4.36a4,4,0,0,1-.18,1.27,2.36,2.36,0,0,1-.5.88,1.93,1.93,0,0,1-.75.51,2.52,2.52,0,0,1-.93.16,2.18,2.18,0,0,1-.72-.12,1.58,1.58,0,0,1-.62-.37,1.83,1.83,0,0,1-.42-.68,2.78,2.78,0,0,1-.16-1v-5h-1.61v5.45a3.76,3.76,0,0,0,.25,1.45,2.83,2.83,0,0,0,.67,1,2.59,2.59,0,0,0,1,.58,3.77,3.77,0,0,0,2.91-.23,2.36,2.36,0,0,0,1.05-1.1h0v1.3h1.61Zm-9.11,0h-2.31V109h-1.6v2.37h-1.86v1.4h1.86v4.4c0,.35,0,.69,0,1a2.16,2.16,0,0,0,.29.92,1.77,1.77,0,0,0,.75.67,3.23,3.23,0,0,0,1.43.26,5.74,5.74,0,0,0,.71-.06,2.23,2.23,0,0,0,.74-.23v-1.46a2,2,0,0,1-.55.2,4.15,4.15,0,0,1-.59,0,1.26,1.26,0,0,1-.71-.17,1,1,0,0,1-.36-.45,2,2,0,0,1-.13-.62c0-.23,0-.47,0-.71v-3.83H285Zm-6.33,1.15a3.84,3.84,0,0,0-1.48-1,5,5,0,0,0-3.59,0,4,4,0,0,0-1.39.92,4,4,0,0,0-.9,1.41,5.19,5.19,0,0,0,0,3.59,4,4,0,0,0,.91,1.4,4.32,4.32,0,0,0,1.4.9,4.93,4.93,0,0,0,1.8.32,5.11,5.11,0,0,0,1.75-.3,3.71,3.71,0,0,0,1.46-1l-1.14-1.15a3,3,0,0,1-.9.71,2.55,2.55,0,0,1-1.16.24,2.87,2.87,0,0,1-1.12-.22,2.67,2.67,0,0,1-.86-.62,2.75,2.75,0,0,1-.55-.92,3.18,3.18,0,0,1-.2-1.12,3.86,3.86,0,0,1,.17-1.13,3.13,3.13,0,0,1,.5-1,2.39,2.39,0,0,1,.82-.66,2.92,2.92,0,0,1,2.32,0,3.33,3.33,0,0,1,.94.7Zm-9.7-1.15h-1.61v4.36a4,4,0,0,1-.17,1.27,2.5,2.5,0,0,1-.5.88,2.09,2.09,0,0,1-.75.51,2.6,2.6,0,0,1-.93.16,2.18,2.18,0,0,1-.72-.12,1.51,1.51,0,0,1-.62-.37,1.85,1.85,0,0,1-.43-.68,2.78,2.78,0,0,1-.16-1v-5h-1.61v5.45a4,4,0,0,0,.25,1.45,2.83,2.83,0,0,0,.67,1,2.63,2.63,0,0,0,1,.58,3.46,3.46,0,0,0,1.17.19,3.5,3.5,0,0,0,1.74-.42,2.36,2.36,0,0,0,1.05-1.1h0v1.3h1.61Zm-14.1,8.46h1.61v-4.24a2.9,2.9,0,0,1,.62-2.06,2.37,2.37,0,0,1,1.8-.66,1.87,1.87,0,0,1,.4,0,2.74,2.74,0,0,1,.39.09l.07-1.73a2,2,0,0,0-.71-.11,3,3,0,0,0-.79.11,3.35,3.35,0,0,0-.72.32,3,3,0,0,0-.6.47,2.22,2.22,0,0,0-.43.62h0v-1.31h-1.61Zm-2.07-8.46h-2.3V109h-1.61v2.37H247v1.4h1.86v4.4c0,.35,0,.69,0,1a2.16,2.16,0,0,0,.29.92,1.77,1.77,0,0,0,.75.67,3.28,3.28,0,0,0,1.44.26,5.77,5.77,0,0,0,.7-.06,2.23,2.23,0,0,0,.74-.23v-1.46a2,2,0,0,1-.55.2,4,4,0,0,1-.59,0,1.28,1.28,0,0,1-.71-.17.92.92,0,0,1-.35-.45,1.71,1.71,0,0,1-.14-.62c0-.23,0-.47,0-.71v-3.83h2.3Zm-6.71,1.18a2.6,2.6,0,0,0-1.25-1.07,4.41,4.41,0,0,0-1.65-.32,4.29,4.29,0,0,0-1.17.16,3.48,3.48,0,0,0-1,.48,2.57,2.57,0,0,0-.73.81,2.25,2.25,0,0,0-.28,1.15,2.08,2.08,0,0,0,.22,1,1.89,1.89,0,0,0,.57.68,2.9,2.9,0,0,0,.82.43,8.7,8.7,0,0,0,1,.28l.62.14a3.63,3.63,0,0,1,.66.21,1.64,1.64,0,0,1,.53.37.8.8,0,0,1,.22.59.78.78,0,0,1-.15.47,1.17,1.17,0,0,1-.39.34,2.23,2.23,0,0,1-.55.2,3.34,3.34,0,0,1-.62.06,2.2,2.2,0,0,1-1.18-.3,5.44,5.44,0,0,1-.87-.7l-1.22,1a3.4,3.4,0,0,0,1.42,1.18,5,5,0,0,0,1.85.32,5.75,5.75,0,0,0,1.24-.14,3.3,3.3,0,0,0,1.1-.47,2.48,2.48,0,0,0,.78-.83,2.28,2.28,0,0,0,.31-1.22,2.32,2.32,0,0,0-.19-1,2,2,0,0,0-.52-.7,2.72,2.72,0,0,0-.78-.46,7,7,0,0,0-1-.3l-.64-.13a3.8,3.8,0,0,1-.7-.21,1.9,1.9,0,0,1-.57-.38.81.81,0,0,1-.25-.61.76.76,0,0,1,.42-.7,2,2,0,0,1,1-.24,2,2,0,0,1,1,.24,2.44,2.44,0,0,1,.71.6Zm-9.59,3.21v.54a3,3,0,0,1-.13.87,2.21,2.21,0,0,1-.41.79,2.1,2.1,0,0,1-.75.58,2.51,2.51,0,0,1-1.12.22,2.36,2.36,0,0,1-1.33-.32,1.15,1.15,0,0,1-.49-1,1.12,1.12,0,0,1,.31-.82,2.1,2.1,0,0,1,.8-.5,4.58,4.58,0,0,1,1.09-.24c.4,0,.79-.07,1.17-.07ZM232,113.39l.45-.34a2.65,2.65,0,0,1,.52-.31,3.58,3.58,0,0,1,.63-.23,3.23,3.23,0,0,1,.81-.09,2.23,2.23,0,0,1,.9.16,1.68,1.68,0,0,1,.62.41,1.55,1.55,0,0,1,.37.58,1.59,1.59,0,0,1,.13.64v.36h-1.18a10.44,10.44,0,0,0-1.81.15,4.77,4.77,0,0,0-1.48.5,2.73,2.73,0,0,0-1,.9,2.4,2.4,0,0,0-.37,1.37,2.51,2.51,0,0,0,.23,1.1,2.39,2.39,0,0,0,.64.8,2.88,2.88,0,0,0,.94.48,3.75,3.75,0,0,0,1.12.16,4,4,0,0,0,1.7-.34,3.08,3.08,0,0,0,1.26-1.16h0c0,.43,0,.86,0,1.28H238c0-.22,0-.46-.05-.71s0-.52,0-.82V114a2.75,2.75,0,0,0-.21-1.06,2.31,2.31,0,0,0-.63-.9,3.09,3.09,0,0,0-1.1-.63,5,5,0,0,0-1.6-.23,5.3,5.3,0,0,0-1.78.31,4.39,4.39,0,0,0-1.57.94Zm-7.6,6.42H226v-4.24a2.9,2.9,0,0,1,.63-2.06,2.37,2.37,0,0,1,1.8-.66,1.87,1.87,0,0,1,.4,0,2.74,2.74,0,0,1,.39.09l.07-1.73a2,2,0,0,0-.71-.11,3,3,0,0,0-.79.11,3.35,3.35,0,0,0-.72.32,3,3,0,0,0-.6.47,2.22,2.22,0,0,0-.43.62h0v-1.31h-1.6Zm-5.32,0h1.6v-7.06h1.93v-1.4h-1.91v-1.94a6.22,6.22,0,0,1,.05-.8,1.57,1.57,0,0,1,.19-.6,1,1,0,0,1,.42-.38,1.63,1.63,0,0,1,.72-.13,3.33,3.33,0,0,1,.46,0,3.14,3.14,0,0,1,.45.13l.18-1.43a3.18,3.18,0,0,0-.64-.11l-.56,0a2.69,2.69,0,0,0-2.24.83,4.12,4.12,0,0,0-.65,2.53v1.89h-1.82v1.4h1.82Zm-10.55,0h1.6v-4.35a4,4,0,0,1,.18-1.27,2.42,2.42,0,0,1,.5-.88,2.09,2.09,0,0,1,.75-.51,2.6,2.6,0,0,1,.93-.16,2.46,2.46,0,0,1,.72.11,1.65,1.65,0,0,1,.62.38,1.85,1.85,0,0,1,.43.68,2.74,2.74,0,0,1,.16,1v5h1.61v-5.44a4.05,4.05,0,0,0-.25-1.46,2.79,2.79,0,0,0-.67-1,2.47,2.47,0,0,0-1-.58,3.74,3.74,0,0,0-2.9.23,2.32,2.32,0,0,0-1.05,1.1h0v-1.31h-1.6Zm-4.19-10.66a1.16,1.16,0,1,0-.35-.83,1.14,1.14,0,0,0,.35.83m0,10.66H206v-8.46H204.4Zm-15,0H191v-4.35a4,4,0,0,1,.18-1.27,2.42,2.42,0,0,1,.5-.88,1.93,1.93,0,0,1,.75-.51,2.56,2.56,0,0,1,.93-.16,2.46,2.46,0,0,1,.72.11,1.73,1.73,0,0,1,.62.38,1.85,1.85,0,0,1,.43.68,3,3,0,0,1,.16,1v5h1.6v-5.44a3.85,3.85,0,0,0-.25-1.46,2.67,2.67,0,0,0-.67-1,2.43,2.43,0,0,0-1-.58,3.74,3.74,0,0,0-2.9.23,2.32,2.32,0,0,0-1.05,1.1h0v-1.31h-1.6Zm-3.84-4.07v.54a3.34,3.34,0,0,1-.13.87,2.21,2.21,0,0,1-.41.79,2.1,2.1,0,0,1-.75.58,2.54,2.54,0,0,1-1.12.22,2.34,2.34,0,0,1-1.33-.32,1.15,1.15,0,0,1-.49-1,1.12,1.12,0,0,1,.31-.82,2,2,0,0,1,.8-.5,4.47,4.47,0,0,1,1.09-.24c.4,0,.79-.07,1.17-.07Zm-4.43-2.35.45-.34a2.57,2.57,0,0,1,.51-.31,3.7,3.7,0,0,1,.64-.23,3.23,3.23,0,0,1,.81-.09,2.21,2.21,0,0,1,.89.16,1.72,1.72,0,0,1,.63.41,1.69,1.69,0,0,1,.37.58,1.78,1.78,0,0,1,.13.64v.36h-1.18a10.36,10.36,0,0,0-1.81.15,4.77,4.77,0,0,0-1.48.5,2.65,2.65,0,0,0-1,.9,2.4,2.4,0,0,0-.37,1.37,2.51,2.51,0,0,0,.23,1.1,2.39,2.39,0,0,0,.64.8,2.83,2.83,0,0,0,.93.48,3.81,3.81,0,0,0,1.13.16,3.92,3.92,0,0,0,1.69-.34,3.1,3.1,0,0,0,1.27-1.16h0c0,.43,0,.86.05,1.28h1.43c0-.22,0-.46-.06-.71s0-.52,0-.82V114a2.75,2.75,0,0,0-.21-1.06,2.54,2.54,0,0,0-.63-.9,3.09,3.09,0,0,0-1.1-.63,5.05,5.05,0,0,0-1.6-.23,5.3,5.3,0,0,0-1.78.31,4.39,4.39,0,0,0-1.57.94Zm-9.71,1.5a2.1,2.1,0,0,1,.19-.87,2.71,2.71,0,0,1,.52-.79,2.63,2.63,0,0,1,.83-.58,2.58,2.58,0,0,1,1.08-.23,2.92,2.92,0,0,1,1.07.19,2.14,2.14,0,0,1,.75.52,2,2,0,0,1,.46.78,3.29,3.29,0,0,1,.17,1Zm6.78,1.28v-.57A5.84,5.84,0,0,0,178,114a4.1,4.1,0,0,0-.72-1.43,3.83,3.83,0,0,0-1.28-1,4.21,4.21,0,0,0-1.9-.39,4.37,4.37,0,0,0-1.75.34,4,4,0,0,0-1.38.93,4.12,4.12,0,0,0-.91,1.42,4.4,4.4,0,0,0-.34,1.75,5,5,0,0,0,.31,1.76,4.21,4.21,0,0,0,.86,1.41,4.07,4.07,0,0,0,1.38.94,4.56,4.56,0,0,0,1.81.34,4.47,4.47,0,0,0,3.75-1.73l-1.21-.93a4.17,4.17,0,0,1-1,.92,2.43,2.43,0,0,1-1.3.35,3.31,3.31,0,0,1-1.08-.18,3.08,3.08,0,0,1-.91-.5,2.64,2.64,0,0,1-.63-.78,2.12,2.12,0,0,1-.24-1Zm-13.35-3.31a2.48,2.48,0,0,1,.87.61,2.54,2.54,0,0,1,.56.93,3.79,3.79,0,0,1,0,2.37,2.72,2.72,0,0,1-.56.93,2.62,2.62,0,0,1-.87.61,3.07,3.07,0,0,1-1.16.22,3,3,0,0,1-1.16-.22,2.66,2.66,0,0,1-.88-.61,2.86,2.86,0,0,1-.55-.93,3.61,3.61,0,0,1,0-2.37,2.67,2.67,0,0,1,.55-.93,2.52,2.52,0,0,1,.88-.61,2.86,2.86,0,0,1,1.16-.22,2.89,2.89,0,0,1,1.16.22m-5.55,12h1.6V118.6h0a2.94,2.94,0,0,0,1.23,1,3.9,3.9,0,0,0,1.72.39,4.4,4.4,0,0,0,1.77-.34,4.09,4.09,0,0,0,1.36-.94,4.21,4.21,0,0,0,.86-1.41,4.83,4.83,0,0,0,.31-1.76,4.76,4.76,0,0,0-.31-1.74,4.36,4.36,0,0,0-.86-1.42,4,4,0,0,0-1.36-.94,4.4,4.4,0,0,0-1.77-.34,3.91,3.91,0,0,0-1.67.37,3,3,0,0,0-1.28,1.06h0v-1.22h-1.6Zm-10.67-7.53a4.11,4.11,0,0,0,1,1.41,4.48,4.48,0,0,0,1.42,1,4.57,4.57,0,0,0,5-1,4.22,4.22,0,0,0,.95-1.41,4.4,4.4,0,0,0,.35-1.74,4.35,4.35,0,0,0-.35-1.73,4.67,4.67,0,0,0-.95-1.41,4.53,4.53,0,0,0-1.43-1,4.65,4.65,0,0,0-3.54,0,4.48,4.48,0,0,0-2.38,2.36,4.35,4.35,0,0,0-.35,1.73,4.4,4.4,0,0,0,.35,1.74m1.56-2.92a2.54,2.54,0,0,1,.56-.93,2.48,2.48,0,0,1,.87-.61,2.89,2.89,0,0,1,1.16-.22,2.86,2.86,0,0,1,1.16.22,2.52,2.52,0,0,1,.88.61,2.67,2.67,0,0,1,.55.93,3.61,3.61,0,0,1,0,2.37,2.86,2.86,0,0,1-.55.93,2.66,2.66,0,0,1-.88.61,3,3,0,0,1-1.16.22,3.07,3.07,0,0,1-1.16-.22,2.62,2.62,0,0,1-.87-.61,2.72,2.72,0,0,1-.56-.93,3.79,3.79,0,0,1,0-2.37m-7.78,5.41H144v-4.24a2.9,2.9,0,0,1,.62-2.06,2.37,2.37,0,0,1,1.8-.66,1.75,1.75,0,0,1,.4,0,2.74,2.74,0,0,1,.39.09l.07-1.73a2,2,0,0,0-.71-.11,3.07,3.07,0,0,0-.79.11,3.35,3.35,0,0,0-.72.32,3,3,0,0,0-.6.47,2.22,2.22,0,0,0-.43.62h0v-1.31H142.4ZM140,111.35h-1.6v4.36a4,4,0,0,1-.18,1.27,2.5,2.5,0,0,1-.5.88,2.09,2.09,0,0,1-.75.51,2.6,2.6,0,0,1-.93.16,2.18,2.18,0,0,1-.72-.12,1.51,1.51,0,0,1-.62-.37,1.85,1.85,0,0,1-.43-.68,2.78,2.78,0,0,1-.16-1v-5h-1.61v5.45a4,4,0,0,0,.25,1.45,2.83,2.83,0,0,0,.67,1,2.63,2.63,0,0,0,1,.58,3.77,3.77,0,0,0,2.91-.23,2.36,2.36,0,0,0,1.05-1.1h0v1.3H140Zm-18,8.46h8.48v-1.6h-6.77v-4h6v-1.61h-6v-3.77h6.45v-1.6H122Z" transform="translate(-3.13 -29.02)"/></g></svg>