<svg xmlns="http://www.w3.org/2000/svg" viewBox="0 0 195.9 81.03"><defs><style>.cls-1{fill:#c3bbda;}.cls-2{fill:#4f4768;}.cls-3{fill:#707173;}.cls-4{fill:#f8b334;}</style></defs><g id="Layer_2" data-name="Layer 2"><g id="Calque_1" data-name="Calque 1"><path class="cls-1" d="M5.68,27.6c0,4.89,2.58,8,7.25,8a8.51,8.51,0,0,0,6.91-2.92l3.66,3.42a13.37,13.37,0,0,1-10.68,4.44C5.68,40.52,0,36.76,0,25.91c0-9.22,4.78-14.56,12.08-14.56,7.65,0,12.09,5.62,12.09,13.72V27.6Zm12-7.87a5.87,5.87,0,0,0-5.63-3.6,6,6,0,0,0-5.67,3.6,8.92,8.92,0,0,0-.73,3.87H18.49a8.9,8.9,0,0,0-.78-3.87"/><path class="cls-1" d="M44.63,18.38a5.3,5.3,0,0,0-4.27-1.91c-3.09,0-5.68,2.47-5.68,6.41V40.19H29V11.69h5.62v3.09a9.46,9.46,0,0,1,7.58-3.43A8.86,8.86,0,0,1,49,14.05Z"/><path class="cls-1" d="M50.64,0h6.07V6.07H50.64Zm.17,11.69h5.74v28.5H50.81Z"/><path class="cls-2" d="M77,40.19V22.82c0-4.44-2.53-6.35-5.73-6.35s-5.9,2-5.9,6.35V40.19H59.66V11.69h5.62v2.87a10.16,10.16,0,0,1,7.58-3.21,9.89,9.89,0,0,1,7,2.59c2.19,2.14,2.86,4.83,2.86,8V40.19Z"/><path class="cls-2" d="M106,40.19V22.71c0-4.33-2.53-6.24-5.74-6.24s-5.79,2-5.79,6.24V40.19H88.77V.17H94.5V14.56a9.78,9.78,0,0,1,7.36-3.21c6.36,0,9.9,4.27,9.9,10.46V40.19Z"/><path class="cls-2" d="M133.12,40.19V37.6c-2.08,2.08-4.05,2.92-7.59,2.92s-5.91-.84-7.65-2.58a8.75,8.75,0,0,1-2.24-6.13c0-4.77,3.31-8.21,9.83-8.21H133v-2c0-3.59-1.8-5.34-6.24-5.34-3.14,0-4.66.73-6.24,2.76l-3.76-3.54c2.7-3.15,5.51-4.11,10.23-4.11,7.81,0,11.75,3.32,11.75,9.78V40.19ZM133,27.6h-6.68c-3.38,0-5.12,1.52-5.12,4.1s1.63,4.05,5.23,4.05c2.19,0,3.82-.17,5.34-1.63.84-.85,1.23-2.19,1.23-4.22Z"/><path class="cls-3" d="M50.81,68.4V61.6h4.35v.93H51.85v2h2.82v.91H51.85v2h3.31v.92Z"/><path class="cls-3" d="M59.38,68.4v-.48a1.73,1.73,0,0,1-1.29.54A1.67,1.67,0,0,1,56.9,68a1.79,1.79,0,0,1-.49-1.37V63.56h1v3c0,.76.43,1.08,1,1.08a1,1,0,0,0,1-1.08v-3h1V68.4Z"/><path class="cls-3" d="M64.55,64.7a.9.9,0,0,0-.72-.33,1,1,0,0,0-1,1.09V68.4h-1V63.56h1v.53a1.61,1.61,0,0,1,1.29-.59,1.53,1.53,0,0,1,1.16.46Z"/><path class="cls-3" d="M69,67.89a2,2,0,0,1-1.45.57,1.94,1.94,0,0,1-1.44-.57A2.55,2.55,0,0,1,65.55,66a2.51,2.51,0,0,1,.57-1.9,1.9,1.9,0,0,1,1.44-.58,1.93,1.93,0,0,1,1.45.58,2.52,2.52,0,0,1,.58,1.9A2.55,2.55,0,0,1,69,67.89Zm-.73-3.24a1,1,0,0,0-.72-.28,1,1,0,0,0-.7.28,2.75,2.75,0,0,0,0,2.65.93.93,0,0,0,.7.29,1,1,0,0,0,.72-.29,2.83,2.83,0,0,0,0-2.65Z"/><path class="cls-3" d="M74.33,68a1.65,1.65,0,0,1-1.18.43,1.51,1.51,0,0,1-1.27-.55v2.45h-1v-6.8h1v.52a1.5,1.5,0,0,1,1.28-.58,1.72,1.72,0,0,1,1.19.43,4.16,4.16,0,0,1,0,4.1Zm-1.44-3.66c-.88,0-1,.75-1,1.61s.13,1.61,1,1.61,1-.75,1-1.61S73.77,64.37,72.89,64.37Z"/><path class="cls-3" d="M76.91,66.26a1.19,1.19,0,0,0,1.23,1.36,1.42,1.42,0,0,0,1.17-.5l.62.59a2.27,2.27,0,0,1-1.81.75c-1.21,0-2.18-.64-2.18-2.48,0-1.57.81-2.48,2.06-2.48a2.06,2.06,0,0,1,2,2.33v.43Zm2-1.33a1,1,0,0,0-1-.62,1,1,0,0,0-1,.62,1.47,1.47,0,0,0-.12.66h2.17A1.47,1.47,0,0,0,79,64.93Z"/><path class="cls-3" d="M84,68.4V68a1.59,1.59,0,0,1-1.29.5,1.69,1.69,0,0,1-1.3-.44A1.48,1.48,0,0,1,81,67c0-.81.56-1.39,1.67-1.39h1.28v-.35c0-.61-.31-.91-1.06-.91a1.13,1.13,0,0,0-1.06.47l-.64-.6a2,2,0,0,1,1.74-.7c1.32,0,2,.57,2,1.66V68.4Zm0-2.14H82.79c-.57,0-.87.26-.87.7s.28.69.89.69a1.16,1.16,0,0,0,.91-.28,1,1,0,0,0,.21-.72Z"/><path class="cls-3" d="M89.35,68.4v-3c0-.75-.42-1.08-1-1.08a1,1,0,0,0-1,1.08v3h-1V63.56h1v.49a1.81,1.81,0,0,1,2.48-.11,1.8,1.8,0,0,1,.49,1.37V68.4Z"/><path class="cls-3" d="M98,68.4l-1.43-2.86H95.27V68.4h-1V61.6h2.63a1.94,1.94,0,0,1,2.11,2,1.78,1.78,0,0,1-1.35,1.8l1.56,3ZM96.8,62.53H95.27v2.13H96.8a1.07,1.07,0,1,0,0-2.13Z"/><path class="cls-3" d="M101.1,66.26a1.19,1.19,0,0,0,1.23,1.36,1.42,1.42,0,0,0,1.17-.5l.63.59a2.31,2.31,0,0,1-1.82.75c-1.21,0-2.18-.64-2.18-2.48,0-1.57.81-2.48,2.06-2.48a2.06,2.06,0,0,1,2,2.33v.43Zm2-1.33a1,1,0,0,0-1-.62,1,1,0,0,0-1,.62,1.62,1.62,0,0,0-.12.66h2.17A1.47,1.47,0,0,0,103.14,64.93Z"/><path class="cls-3" d="M107.1,68.46a2.65,2.65,0,0,1-2-.7l.64-.64a1.89,1.89,0,0,0,1.4.51c.59,0,1.06-.21,1.06-.67s-.19-.53-.65-.57l-.78-.07c-.9-.08-1.43-.49-1.43-1.34s.81-1.48,1.83-1.48a2.66,2.66,0,0,1,1.79.55l-.61.62a1.83,1.83,0,0,0-1.19-.36c-.59,0-.88.26-.88.63s.15.5.67.55l.76.07c.91.07,1.44.5,1.44,1.36C109.11,67.93,108.25,68.46,107.1,68.46Z"/><path class="cls-3" d="M111,66.26a1.2,1.2,0,0,0,1.24,1.36,1.42,1.42,0,0,0,1.17-.5l.62.59a2.27,2.27,0,0,1-1.81.75c-1.22,0-2.18-.64-2.18-2.48,0-1.57.81-2.48,2-2.48a2.06,2.06,0,0,1,2.06,2.33v.43Zm2-1.33a1.05,1.05,0,0,0-1.92,0,1.47,1.47,0,0,0-.13.66h2.18A1.62,1.62,0,0,0,113.06,64.93Z"/><path class="cls-3" d="M118.06,68.4V68a1.59,1.59,0,0,1-1.3.5,1.67,1.67,0,0,1-1.29-.44,1.49,1.49,0,0,1-.39-1c0-.81.57-1.39,1.68-1.39H118v-.35c0-.61-.31-.91-1.07-.91a1.12,1.12,0,0,0-1,.47l-.65-.6a2,2,0,0,1,1.74-.7c1.33,0,2,.57,2,1.66V68.4Zm0-2.14H116.9c-.57,0-.87.26-.87.7s.28.69.89.69a1.16,1.16,0,0,0,.91-.28,1,1,0,0,0,.21-.72Z"/><path class="cls-3" d="M123.18,64.7a.92.92,0,0,0-.73-.33,1,1,0,0,0-1,1.09V68.4h-1V63.56h1v.53a1.59,1.59,0,0,1,1.29-.59,1.51,1.51,0,0,1,1.15.46Z"/><path class="cls-3" d="M126.31,68.46c-1.09,0-2.16-.67-2.16-2.48s1.07-2.48,2.16-2.48a2,2,0,0,1,1.6.68l-.67.65a1.16,1.16,0,0,0-.93-.46,1.09,1.09,0,0,0-.9.43,2.63,2.63,0,0,0,0,2.36,1.09,1.09,0,0,0,.9.43,1.13,1.13,0,0,0,.93-.46l.67.64A2,2,0,0,1,126.31,68.46Z"/><path class="cls-3" d="M132,68.4v-3a.94.94,0,0,0-1-1.06,1,1,0,0,0-1,1.06v3h-1V61.6h1v2.45a1.63,1.63,0,0,1,1.25-.55,1.61,1.61,0,0,1,1.68,1.78V68.4Z"/><path class="cls-3" d="M136.85,68.4V61.6h1v6.8Z"/><path class="cls-3" d="M142.5,68.4v-3a.94.94,0,0,0-1-1.08,1,1,0,0,0-1,1.08v3h-1V63.56h1v.49a1.81,1.81,0,0,1,2.48-.11,1.8,1.8,0,0,1,.49,1.37V68.4Z"/><path class="cls-3" d="M146.1,64.39v4h-1v-4h-.55v-.74h.55V62.9a1.26,1.26,0,0,1,1.33-1.35h.61v.84h-.43a.49.49,0,0,0-.53.56v.7h1v.74Z"/><path class="cls-3" d="M150.77,64.7a.9.9,0,0,0-.73-.33,1,1,0,0,0-1,1.09V68.4h-1V63.56h1v.53a1.59,1.59,0,0,1,1.29-.59,1.49,1.49,0,0,1,1.15.46Z"/><path class="cls-3" d="M154.91,68.4V68a1.59,1.59,0,0,1-1.29.5,1.68,1.68,0,0,1-1.3-.44,1.48,1.48,0,0,1-.38-1c0-.81.56-1.39,1.67-1.39h1.28v-.35c0-.61-.31-.91-1.06-.91a1.13,1.13,0,0,0-1.06.47l-.64-.6a2,2,0,0,1,1.73-.7c1.33,0,2,.57,2,1.66V68.4Zm0-2.14h-1.14c-.57,0-.87.26-.87.7s.28.69.89.69a1.16,1.16,0,0,0,.91-.28,1,1,0,0,0,.21-.72Z"/><path class="cls-3" d="M158.93,68.46a2.67,2.67,0,0,1-2-.7l.64-.64a1.91,1.91,0,0,0,1.4.51c.59,0,1.06-.21,1.06-.67s-.18-.53-.65-.57l-.77-.07c-.91-.08-1.44-.49-1.44-1.34s.81-1.48,1.83-1.48a2.66,2.66,0,0,1,1.79.55l-.61.62a1.8,1.8,0,0,0-1.19-.36c-.59,0-.88.26-.88.63s.15.5.67.55l.76.07c.91.07,1.44.5,1.44,1.36C160.94,67.93,160.08,68.46,158.93,68.46Z"/><path class="cls-3" d="M163.57,68.4a1.26,1.26,0,0,1-1.33-1.34V64.39h-.55v-.74h.55V62.17h1v1.48h.93v.74h-.93V67a.49.49,0,0,0,.53.56h.4v.83Z"/><path class="cls-3" d="M168.06,64.7a.9.9,0,0,0-.72-.33,1,1,0,0,0-1,1.09V68.4h-1V63.56h.95v.53a1.61,1.61,0,0,1,1.29-.59,1.53,1.53,0,0,1,1.16.46Z"/><path class="cls-3" d="M172.51,68.4v-.48a1.73,1.73,0,0,1-1.29.54A1.67,1.67,0,0,1,170,68a1.79,1.79,0,0,1-.49-1.37V63.56h1v3c0,.76.43,1.08,1,1.08a1,1,0,0,0,1-1.08v-3h1V68.4Z"/><path class="cls-3" d="M176.93,68.46c-1.09,0-2.16-.67-2.16-2.48s1.07-2.48,2.16-2.48a2,2,0,0,1,1.59.68l-.67.65a1.12,1.12,0,0,0-.92-.46,1.09,1.09,0,0,0-.9.43,2.55,2.55,0,0,0,0,2.36,1.15,1.15,0,0,0,1.82,0l.67.64A2,2,0,0,1,176.93,68.46Z"/><path class="cls-3" d="M181.09,68.4a1.26,1.26,0,0,1-1.32-1.34V64.39h-.56v-.74h.56V62.17h1v1.48h.94v.74h-.94V67a.49.49,0,0,0,.54.56h.4v.83Z"/><path class="cls-3" d="M185.84,68.4v-.48a1.73,1.73,0,0,1-1.29.54,1.67,1.67,0,0,1-1.19-.44,1.79,1.79,0,0,1-.49-1.37V63.56h1v3c0,.76.43,1.08,1,1.08a1,1,0,0,0,1-1.08v-3h1V68.4Z"/><path class="cls-3" d="M191,64.7a.9.9,0,0,0-.72-.33,1,1,0,0,0-1,1.09V68.4h-1V63.56h1v.53a1.61,1.61,0,0,1,1.29-.59,1.53,1.53,0,0,1,1.16.46Z"/><path class="cls-3" d="M192.76,66.26A1.19,1.19,0,0,0,194,67.62a1.44,1.44,0,0,0,1.18-.5l.62.59a2.31,2.31,0,0,1-1.82.75c-1.21,0-2.17-.64-2.17-2.48,0-1.57.81-2.48,2-2.48a2.06,2.06,0,0,1,2.05,2.33v.43Zm2.05-1.33a1.05,1.05,0,0,0-1.92,0,1.47,1.47,0,0,0-.13.66h2.18A1.62,1.62,0,0,0,194.81,64.93Z"/><path class="cls-3" d="M54,78.5a2,2,0,0,1-1.46.58,1.94,1.94,0,0,1-1.44-.58,3.47,3.47,0,0,1,0-3.81,2,2,0,0,1,1.44-.57,2,2,0,0,1,1.46.57,3.47,3.47,0,0,1,0,3.81Zm-.74-3.24a1,1,0,0,0-.72-.27,1,1,0,0,0-.7.27,2.77,2.77,0,0,0,0,2.66,1,1,0,0,0,.7.29,1,1,0,0,0,.72-.29,2.77,2.77,0,0,0,0-2.66Z"/><path class="cls-3" d="M58.79,79v-3c0-.76-.43-1.08-1-1.08a1,1,0,0,0-1,1.08v3h-1V74.18h.95v.48a1.76,1.76,0,0,1,1.29-.54,1.68,1.68,0,0,1,1.2.44,1.77,1.77,0,0,1,.48,1.36V79Z"/><path class="cls-3" d="M67.47,79v-3H64.7v3h-1v-6.8h1v2.9h2.77v-2.9h1V79Z"/><path class="cls-3" d="M70.13,73.22v-1h1v1Zm0,5.8V74.18h1V79Z"/><path class="cls-3" d="M74.31,81a2.22,2.22,0,0,1-1.71-.64l.62-.62a1.34,1.34,0,0,0,1,.43A1.09,1.09,0,0,0,75.41,79v-.62a1.51,1.51,0,0,1-1.26.55A1.59,1.59,0,0,1,73,78.47a3.79,3.79,0,0,1,0-3.93,1.61,1.61,0,0,1,1.16-.42,1.47,1.47,0,0,1,1.27.57v-.51h.95V79A1.94,1.94,0,0,1,74.31,81Zm.11-6c-.88,0-1,.75-1,1.52s.11,1.51,1,1.51,1-.75,1-1.51S75.3,75,74.42,75Z"/><path class="cls-3" d="M80.86,79v-3a.93.93,0,0,0-1-1.06.94.94,0,0,0-1,1.06v3h-1v-6.8h1v2.44a1.69,1.69,0,0,1,1.25-.54,1.61,1.61,0,0,1,1.69,1.77V79Z"/><path class="cls-3" d="M84.64,79a1.23,1.23,0,0,1-1.33-1.34V72.22h1v5.4c0,.38.14.57.53.57h.43V79Z"/><path class="cls-3" d="M87.55,80a1.61,1.61,0,0,1-.35.6,1.35,1.35,0,0,1-1,.36h-.39v-.88h.25c.41,0,.55-.12.7-.52l.26-.75-1.69-4.61h1l1.15,3.41,1.13-3.41h1Z"/><path class="cls-3" d="M95.49,76.34H93.94V79h-1v-6.8h2.58a2.06,2.06,0,1,1,0,4.12Zm-.06-3.2H93.94v2.27h1.49a1.14,1.14,0,1,0,0-2.27Z"/><path class="cls-3" d="M101.41,79v-.44a1.6,1.6,0,0,1-1.29.5,1.75,1.75,0,0,1-1.3-.44,1.53,1.53,0,0,1-.38-1c0-.81.57-1.39,1.67-1.39h1.28v-.34c0-.61-.3-.91-1.06-.91a1.13,1.13,0,0,0-1.06.47l-.64-.6a2,2,0,0,1,1.74-.7c1.33,0,2,.56,2,1.66V79Zm0-2.14h-1.13c-.58,0-.87.26-.87.7s.27.68.89.68a1.16,1.16,0,0,0,.9-.27,1,1,0,0,0,.21-.72Z"/><path class="cls-3" d="M105.31,79A1.26,1.26,0,0,1,104,77.67V75h-.55v-.75H104V72.79h1v1.47h.93V75H105v2.61c0,.36.17.57.53.57h.4V79Z"/><path class="cls-3" d="M110.06,79v-3a.93.93,0,0,0-1-1.06.94.94,0,0,0-1,1.06v3h-1v-6.8h1v2.44a1.66,1.66,0,0,1,1.25-.54A1.6,1.6,0,0,1,111,75.89V79Z"/><path class="cls-3" d="M115.77,78.5a1.93,1.93,0,0,1-1.45.58,1.9,1.9,0,0,1-1.44-.58,3.47,3.47,0,0,1,0-3.81,1.94,1.94,0,0,1,1.44-.57,2,2,0,0,1,1.45.57,3.42,3.42,0,0,1,0,3.81ZM115,75.26a1,1,0,0,0-.72-.27,1,1,0,0,0-.71.27,2.85,2.85,0,0,0,0,2.66,1,1,0,0,0,.71.29,1,1,0,0,0,.72-.29,2.85,2.85,0,0,0,0-2.66Z"/><path class="cls-3" d="M119.29,81a2.23,2.23,0,0,1-1.71-.64l.62-.62a1.35,1.35,0,0,0,1,.43A1.09,1.09,0,0,0,120.39,79v-.62a1.5,1.5,0,0,1-1.25.55,1.6,1.6,0,0,1-1.16-.43,3.85,3.85,0,0,1,0-3.93,1.61,1.61,0,0,1,1.16-.42,1.5,1.5,0,0,1,1.28.57v-.51h.94V79A1.94,1.94,0,0,1,119.29,81Zm.11-6c-.88,0-1,.75-1,1.52s.11,1.51,1,1.51,1-.75,1-1.51S120.28,75,119.4,75Z"/><path class="cls-3" d="M123.62,76.88a1.19,1.19,0,0,0,1.23,1.35,1.44,1.44,0,0,0,1.17-.49l.62.58a2.25,2.25,0,0,1-1.81.76c-1.21,0-2.18-.64-2.18-2.49,0-1.56.81-2.47,2.06-2.47a2.06,2.06,0,0,1,2.05,2.33v.43Zm2-1.34a1,1,0,0,0-1-.61,1,1,0,0,0-1,.61,1.47,1.47,0,0,0-.12.66h2.17A1.47,1.47,0,0,0,125.66,75.54Z"/><path class="cls-3" d="M131,79v-3c0-.76-.43-1.08-1-1.08a1,1,0,0,0-1,1.08v3h-1V74.18H129v.48a1.76,1.76,0,0,1,1.29-.54,1.68,1.68,0,0,1,1.2.44,1.77,1.77,0,0,1,.48,1.36V79Z"/><path class="cls-3" d="M133.45,73.22v-1h1v1Zm0,5.8V74.18h1V79Z"/><path class="cls-3" d="M137.91,79.08c-1.09,0-2.16-.67-2.16-2.49s1.07-2.47,2.16-2.47a2,2,0,0,1,1.59.68l-.66.65a1.13,1.13,0,0,0-.93-.46,1.09,1.09,0,0,0-.9.43,1.77,1.77,0,0,0-.29,1.17,1.83,1.83,0,0,0,.29,1.19,1.12,1.12,0,0,0,.9.43,1.16,1.16,0,0,0,.93-.46l.66.64A2,2,0,0,1,137.91,79.08Z"/><path class="cls-3" d="M147,79l-.47-1.37h-2.69L143.33,79h-1.1l2.49-6.8h.83l2.5,6.8Zm-1.79-5.27-1.06,3h2.09Z"/><path class="cls-3" d="M150.51,81a2.24,2.24,0,0,1-1.71-.64l.62-.62a1.37,1.37,0,0,0,1.05.43A1.09,1.09,0,0,0,151.61,79v-.62a1.49,1.49,0,0,1-1.25.55,1.6,1.6,0,0,1-1.16-.43,3.85,3.85,0,0,1,0-3.93,1.62,1.62,0,0,1,1.17-.42,1.48,1.48,0,0,1,1.27.57v-.51h.94V79A1.94,1.94,0,0,1,150.51,81Zm.12-6c-.88,0-1,.75-1,1.52s.12,1.51,1,1.51,1-.75,1-1.51S151.5,75,150.63,75Z"/><path class="cls-3" d="M154.85,76.88a1.19,1.19,0,0,0,1.23,1.35,1.46,1.46,0,0,0,1.18-.49l.62.58a2.28,2.28,0,0,1-1.82.76c-1.21,0-2.18-.64-2.18-2.49,0-1.56.82-2.47,2.06-2.47A2.05,2.05,0,0,1,158,76.45v.43Zm2-1.34a1,1,0,0,0-.95-.61,1,1,0,0,0-1,.61,1.62,1.62,0,0,0-.12.66H157A1.46,1.46,0,0,0,156.89,75.54Z"/><path class="cls-3" d="M162.23,79v-3c0-.76-.43-1.08-1-1.08a1,1,0,0,0-1,1.08v3h-1V74.18h1v.48a1.73,1.73,0,0,1,1.29-.54,1.67,1.67,0,0,1,1.19.44,1.78,1.78,0,0,1,.49,1.36V79Z"/><path class="cls-3" d="M166.15,79a1.26,1.26,0,0,1-1.33-1.35V75h-.55v-.75h.55V72.79h1v1.47h.93V75h-.93v2.61c0,.36.17.57.53.57h.4V79Z"/><path class="cls-3" d="M169.53,79.08a2.67,2.67,0,0,1-2-.7l.64-.64a1.88,1.88,0,0,0,1.39.5c.6,0,1.06-.21,1.06-.66s-.18-.54-.65-.58l-.77-.06c-.91-.08-1.43-.49-1.43-1.34s.81-1.48,1.82-1.48a2.67,2.67,0,0,1,1.8.54l-.61.62a1.9,1.9,0,0,0-1.2-.35c-.58,0-.88.26-.88.62s.16.51.67.55l.77.07c.9.08,1.44.51,1.44,1.37S170.69,79.08,169.53,79.08Z"/><rect class="cls-4" x="50.81" y="46.84" width="14.58" height="4.95"/></g></g></svg>