<svg xmlns="http://www.w3.org/2000/svg" width="167.756" height="58.96" viewBox="0 0 167.756 58.96"><g transform="translate(-608.156 -410.173)"><g transform="translate(671.154 416.149)"><g transform="translate(0 0)"><path d="M881.618,455.1a8.053,8.053,0,0,0,2.348,1.47,8.241,8.241,0,0,0,5.383.3,7.955,7.955,0,0,0,2.542-1.244,8.83,8.83,0,0,0,1.739-1.585,7.75,7.75,0,0,0,1.024-1.736,2.92,2.92,0,0,1,.909-1.2,2.066,2.066,0,0,1,.857-.371,2.586,2.586,0,0,1,.925,0,2.535,2.535,0,0,1,.889.345,2.476,2.476,0,0,1,.714.657,2.131,2.131,0,0,1,.376,1.626,5.276,5.276,0,0,1-.754,1.944,11.548,11.548,0,0,1-1.651,2.076,18.229,18.229,0,0,1-2.307,1.982,12.955,12.955,0,0,1-4.8,2.2,13.551,13.551,0,0,1-5.1.2,13.3,13.3,0,0,1-4.788-1.728,13.336,13.336,0,0,1-6.1-8.377,13.317,13.317,0,0,1-.171-5.088,13.578,13.578,0,0,1,1.758-4.794,13.315,13.315,0,0,1,8.336-6.082,13.426,13.426,0,0,1,5.083-.2,13.567,13.567,0,0,1,4.791,1.709,12.914,12.914,0,0,1,3.9,3.5,2.214,2.214,0,0,1,.432,1.7,2.281,2.281,0,0,1-.979,1.519Zm10.89-12.9a7.736,7.736,0,0,0-2.4-1.615,8.541,8.541,0,0,0-2.775-.671,8.375,8.375,0,0,0-2.87.307,8.552,8.552,0,0,0-2.711,1.334,8.249,8.249,0,0,0-3.243,4.831,8.274,8.274,0,0,0,.634,5.54Z" transform="translate(-873.481 -435.342)" fill="#28225a"/><path d="M989.778,437.736a2.306,2.306,0,0,1,.7-1.7,2.437,2.437,0,0,1,3.4,0,2.28,2.28,0,0,1,.711,1.7v11.515a8.039,8.039,0,0,0,2.293,5.54,7.666,7.666,0,0,0,5.523,2.281,7.035,7.035,0,0,0,3-.624,6.829,6.829,0,0,0,2.293-1.711,7.947,7.947,0,0,0,1.479-2.538,9.009,9.009,0,0,0,.53-3.11V437.733a2.145,2.145,0,0,1,.2-.923,2.645,2.645,0,0,1,.531-.761,2.42,2.42,0,0,1,.775-.516,2.392,2.392,0,0,1,.938-.19,2.255,2.255,0,0,1,1.7.694,2.36,2.36,0,0,1,.667,1.7v11.393a13.479,13.479,0,0,1-.911,4.962,12.858,12.858,0,0,1-2.516,4.065,11.679,11.679,0,0,1-8.7,3.752,12.228,12.228,0,0,1-4.962-1.006,12.561,12.561,0,0,1-4-2.746,12.947,12.947,0,0,1-2.678-4.065,12.651,12.651,0,0,1-.979-4.962Z" transform="translate(-962.164 -435.343)" fill="#28225a"/><path d="M1228.46,453.664a11.281,11.281,0,0,0,8.178,3.472c3.009,0,4.475-1.427,4.475-2.893,0-1.929-2.237-2.585-5.207-3.279-4.2-.964-9.6-2.122-9.6-7.869,0-4.282,3.7-7.753,9.759-7.753a14.311,14.311,0,0,1,10.029,3.587l-3.047,4.012a10.976,10.976,0,0,0-7.368-2.816c-2.469,0-3.78,1.08-3.78,2.623,0,1.736,2.16,2.276,5.13,2.97,4.243.964,9.644,2.237,9.644,7.946,0,4.706-3.356,8.255-10.3,8.255-4.938,0-8.486-1.659-10.878-4.089Z" transform="translate(-1141.909 -435.342)" fill="#0ca3dd"/></g><path d="M1122.147,461.919a13.289,13.289,0,1,1,13.289-13.289A13.3,13.3,0,0,1,1122.147,461.919Zm0-21.874a8.585,8.585,0,1,0,8.585,8.585A8.6,8.6,0,0,0,1122.147,440.045Z" transform="translate(-1052.971 -435.342)" fill="#0ca3dd"/><g transform="translate(2.646 31.722)"><path d="M886.218,573.5v2.38h4.045v.813h-4.948v-7h4.829v.823h-3.926v2.162h3.411v.823Z" transform="translate(-885.152 -569.516)" fill="#28225a"/><path d="M919.567,569.652v4.472a4.229,4.229,0,0,1-.089.912,2.461,2.461,0,0,1-2.618,1.795,2.617,2.617,0,0,1-2.151-.932,2.661,2.661,0,0,1-.456-1.9v-4.343h.942v4.214a2.35,2.35,0,0,0,.357,1.636,1.623,1.623,0,0,0,1.309.545,1.6,1.6,0,0,0,1.676-1.16,4.463,4.463,0,0,0,.089-1.041v-4.194Z" transform="translate(-907.218 -569.484)" fill="#28225a"/><path d="M960.971,576.3a3.681,3.681,0,1,1,3.549-3.748A3.391,3.391,0,0,1,960.971,576.3Zm.03-6.6c-1.765,0-2.518,1.358-2.518,2.935,0,1.467.724,2.935,2.529,2.935,1.884,0,2.509-1.567,2.5-3C963.5,570.866,962.617,569.7,961,569.7Z" transform="translate(-940.175 -568.943)" fill="#28225a"/><path d="M994.843,569.652v2.975a1.883,1.883,0,0,1,1.606-.783,2.5,2.5,0,0,1-.01,4.957,1.867,1.867,0,0,1-1.6-.743v.6h-.793v-7.01Zm1.457,6.485c1.071,0,1.458-.962,1.458-1.844,0-1.15-.664-1.725-1.448-1.725-.644,0-1.477.387-1.487,1.765C994.823,575.631,995.557,576.137,996.3,576.137Z" transform="translate(-968.068 -569.484)" fill="#28225a"/><path d="M1020.091,581.669c-.754-.179-1.676-.387-1.676-1.358,0-.853.724-1.388,1.8-1.388a1.848,1.848,0,0,1,2,1.527l-.853.109a.83.83,0,0,0-.337-.753,1.457,1.457,0,0,0-.9-.278c-.615,0-.922.367-.922.684,0,.446.506.585,1.12.734l.446.109c.555.129,1.557.367,1.557,1.348,0,.763-.674,1.477-1.963,1.477a2.567,2.567,0,0,1-1.448-.377,1.781,1.781,0,0,1-.694-1.269l.892-.139a1.064,1.064,0,0,0,.347.912,1.378,1.378,0,0,0,.942.268c.694,0,1.1-.268,1.1-.774,0-.536-.406-.635-.972-.744Z" transform="translate(-986.505 -576.553)" fill="#28225a"/><path d="M1045.01,582.263a2.118,2.118,0,0,1-2.112,1.576,2.488,2.488,0,0,1-.03-4.957,2.035,2.035,0,0,1,2.052,1.656,4.226,4.226,0,0,1,.089.952h-3.549a1.559,1.559,0,0,0,1.507,1.755,1.237,1.237,0,0,0,1.239-1.091Zm-.863-1.339a1.345,1.345,0,0,0-1.338-1.438c-.674,0-1.24.5-1.329,1.438Z" transform="translate(-1003.572 -576.522)" fill="#28225a"/><path d="M1066.331,579.316v.853a1.7,1.7,0,0,1,1.606-.912v.853a3.089,3.089,0,0,0-.327-.02,1.2,1.2,0,0,0-1.081.555,2.222,2.222,0,0,0-.2,1.18v2.162h-.793v-4.67Z" transform="translate(-1022.582 -576.808)" fill="#28225a"/><path d="M1081.774,579.507h.813l-1.686,4.67h-.714l-1.705-4.67h.823l1.239,3.58Z" transform="translate(-1032.453 -576.999)" fill="#28225a"/><path d="M1102.766,580.9v-.118c0-.486,0-1.3-1.051-1.3-1,0-1,.733-1,.982l-.833-.05a1.823,1.823,0,0,1,.188-.7,1.706,1.706,0,0,1,1.616-.832,2.343,2.343,0,0,1,1.368.4,1.725,1.725,0,0,1,.506,1.576v1.517c.01.446.01.674.337.674a.665.665,0,0,0,.258-.049v.684a1.833,1.833,0,0,1-.5.079.722.722,0,0,1-.813-.694,2.1,2.1,0,0,1-1.606.764,1.423,1.423,0,0,1-1.587-1.339,1.271,1.271,0,0,1,.208-.7c.268-.4.764-.714,2.162-.823Zm-1.22.724c-.872.188-1.021.515-1.021.843,0,.377.3.694.883.694a1.278,1.278,0,0,0,1.239-.7,2.052,2.052,0,0,0,.129-1.051C1102.468,581.46,1102.052,581.519,1101.546,581.628Z" transform="translate(-1048.596 -576.522)" fill="#28225a"/><path d="M1123.549,574.763h.853v.655h-.853v2.677c0,.555,0,.793.337.793a1.987,1.987,0,0,0,.516-.109v.655a5.3,5.3,0,0,1-.764.079c-.912,0-.912-.446-.9-1.061v-3.034h-.744v-.655h.744v-1.477h.813Z" transform="translate(-1065.632 -572.255)" fill="#28225a"/><path d="M1139.534,583.839a2.231,2.231,0,0,1-2.3-2.439,2.293,2.293,0,0,1,2.33-2.518,2.233,2.233,0,0,1,2.251,2.479A2.263,2.263,0,0,1,1139.534,583.839Zm1.368-3.133a1.293,1.293,0,0,0-1.319-1.19c-1.061,0-1.487.823-1.487,1.894,0,.982.406,1.795,1.428,1.795,1.319,0,1.418-1.368,1.428-1.844A2.7,2.7,0,0,0,1140.9,580.706Z" transform="translate(-1077.255 -576.522)" fill="#28225a"/><path d="M1163.791,579.316v.853a1.7,1.7,0,0,1,1.606-.912v.853a3.089,3.089,0,0,0-.327-.02,1.2,1.2,0,0,0-1.081.555,2.223,2.223,0,0,0-.2,1.18v2.162H1163v-4.67Z" transform="translate(-1096.902 -576.808)" fill="#28225a"/><path d="M1179.942,579.507l-1.963,5.523c-.337.942-.565,1.458-1.438,1.458a2.461,2.461,0,0,1-.724-.109v-.7a1.788,1.788,0,0,0,.505.079c.575,0,.7-.337.932-.982l.2-.565-1.587-4.7h.843l1.17,3.709,1.24-3.709Z" transform="translate(-1106.677 -576.999)" fill="#28225a"/><path d="M1211.186,572.183h.882v.655h-.882v4.016h-.764v-4.016h-.783v-.655h.783l.01-.952c.01-.4.03-1.329,1.21-1.329a3.972,3.972,0,0,1,.575.059v.615a3.912,3.912,0,0,0-.436-.04c-.585,0-.595.466-.595.833Z" transform="translate(-1132.468 -569.675)" fill="#28225a"/><path d="M1226.554,583.839a2.231,2.231,0,0,1-2.3-2.439,2.293,2.293,0,0,1,2.33-2.518,2.234,2.234,0,0,1,2.251,2.479A2.263,2.263,0,0,1,1226.554,583.839Zm1.368-3.133a1.293,1.293,0,0,0-1.319-1.19c-1.061,0-1.487.823-1.487,1.894,0,.982.407,1.795,1.428,1.795,1.319,0,1.418-1.368,1.428-1.844A2.7,2.7,0,0,0,1227.923,580.706Z" transform="translate(-1143.613 -576.522)" fill="#28225a"/><path d="M1250.811,579.316v.853a1.7,1.7,0,0,1,1.606-.912v.853a3.093,3.093,0,0,0-.327-.02,1.2,1.2,0,0,0-1.081.555,2.222,2.222,0,0,0-.2,1.18v2.162h-.793v-4.67Z" transform="translate(-1163.26 -576.808)" fill="#28225a"/><path d="M884.626,624.893v-7h1.745v7Z" transform="translate(-884.626 -606.27)" fill="#28225a"/><path d="M904.533,623.251a3.458,3.458,0,0,1-2.558,1.15,3.333,3.333,0,0,1-3.361-3.718,3.906,3.906,0,0,1,.853-2.5,3.17,3.17,0,0,1,2.538-1.21,3.275,3.275,0,0,1,2.469,1.091,4.272,4.272,0,0,1,.486.724l-1.378.684a2.454,2.454,0,0,0-.228-.387,1.575,1.575,0,0,0-1.269-.674,1.543,1.543,0,0,0-1.061.417,2.438,2.438,0,0,0-.664,1.815,3.367,3.367,0,0,0,.03.476,1.96,1.96,0,0,0,.922,1.616,1.5,1.5,0,0,0,.774.2A1.7,1.7,0,0,0,903.6,621.9l1.388.7A7.776,7.776,0,0,1,904.533,623.251Z" transform="translate(-895.293 -605.57)" fill="#28225a"/><path d="M932.268,619.271v5.622H930.5v-5.622h-1.824v-1.378h5.4v1.378Z" transform="translate(-918.219 -606.27)" fill="#28225a"/><path d="M974.7,623.172a2.8,2.8,0,0,1-2.2,1.289,5.533,5.533,0,0,1-.7.049,3.957,3.957,0,0,1-2.638-.843,4.117,4.117,0,0,1-.555-.585l1.328-.833a3.069,3.069,0,0,0,.307.3,2.825,2.825,0,0,0,1.715.585,1.933,1.933,0,0,0,.545-.069c.05-.01.744-.208.744-.743,0-.644-.932-.664-1.557-.754a8.673,8.673,0,0,1-.992-.179,2.372,2.372,0,0,1-1.319-.734,1.582,1.582,0,0,1-.3-.515,2.183,2.183,0,0,1-.089-.615,4.127,4.127,0,0,1,.04-.486,1.93,1.93,0,0,1,.6-1.12,3.089,3.089,0,0,1,2.181-.734,4.068,4.068,0,0,1,2.31.694,6.789,6.789,0,0,1,.773.625l-1.289.922a2.678,2.678,0,0,0-1.18-.763,2.728,2.728,0,0,0-.655-.1c-.714,0-1.041.416-1.041.744a.529.529,0,0,0,.149.367c.238.258.625.248,1.279.347.4.059.783.139,1.17.228a1.968,1.968,0,0,1,1.507,1.081,2.093,2.093,0,0,1,.139.754A2.25,2.25,0,0,1,974.7,623.172Z" transform="translate(-948.661 -605.729)" fill="#28225a"/><path d="M1001.759,621.83v2.32a.935.935,0,0,0,.04.416.412.412,0,0,0,.357.169c.178,0,.357-.01.535-.01v1.18a4.694,4.694,0,0,1-.8.079c-.109,0-.218,0-.317-.01a1.438,1.438,0,0,1-.942-.317,1.646,1.646,0,0,1-.377-1.348V621.82H999.5v-.932h.754v-1.616h1.507V620.9h1.011v.932Z" transform="translate(-972.223 -607.322)" fill="#28225a"/><path d="M1021.028,630.307v-.466c-.109.079-.208.149-.317.218a2.227,2.227,0,0,1-1.269.387,1.579,1.579,0,0,1-1.527-.853,1.651,1.651,0,0,1-.169-.724,1.7,1.7,0,0,1,1.061-1.477,11.476,11.476,0,0,1,2.072-.486v-.288a.548.548,0,0,0-.585-.625.743.743,0,0,0-.734.377.893.893,0,0,0-.069.228h-1.527a1.52,1.52,0,0,1,.416-1.041,2.126,2.126,0,0,1,1.17-.526,4.9,4.9,0,0,1,.664-.04c.724,0,1.706.169,2.052.912a1.27,1.27,0,0,1,.109.575V629.5a1.258,1.258,0,0,0,.149.8Zm-1.13-2.151a1.354,1.354,0,0,0-.179.069c-.377.159-.476.377-.476.575a.609.609,0,0,0,.059.238.582.582,0,0,0,.525.288,1.074,1.074,0,0,0,.585-.208,1.4,1.4,0,0,0,.466-1.289Z" transform="translate(-986.138 -611.684)" fill="#28225a"/><path d="M1048.348,630.339v-2.925a2.7,2.7,0,0,0-.06-.744.681.681,0,0,0-.694-.417.814.814,0,0,0-.516.159c-.258.2-.287.516-.287,1.13v2.8h-1.527v-5.166h1.547v.446a1.83,1.83,0,0,1,.238-.228,2.213,2.213,0,0,1,2.142-.149c.635.337.684.922.684,1.557v3.54Z" transform="translate(-1007.122 -611.716)" fill="#28225a"/><path d="M1074.563,624.893l-.01-.486a2.633,2.633,0,0,1-.3.268,1.839,1.839,0,0,1-1.1.357,2.141,2.141,0,0,1-1.725-.912,2.887,2.887,0,0,1-.486-1.785,2.953,2.953,0,0,1,.982-2.37,1.9,1.9,0,0,1,1.18-.387,2.06,2.06,0,0,1,1.358.525v-2.211h1.487v7Zm-.317-3.778a.826.826,0,0,0-.813-.387.953.953,0,0,0-.674.436,2.153,2.153,0,0,0-.268,1.14,2.372,2.372,0,0,0,.287,1.219.809.809,0,0,0,.694.377.9.9,0,0,0,.535-.188,1.845,1.845,0,0,0,.5-1.408A2.22,2.22,0,0,0,1074.246,621.115Z" transform="translate(-1026.705 -606.27)" fill="#28225a"/><path d="M1102.077,630.307v-.466c-.109.079-.208.149-.317.218a2.226,2.226,0,0,1-1.269.387,1.579,1.579,0,0,1-1.527-.853,1.651,1.651,0,0,1-.169-.724,1.7,1.7,0,0,1,1.061-1.477,11.467,11.467,0,0,1,2.072-.486v-.288a.548.548,0,0,0-.585-.625.743.743,0,0,0-.734.377.916.916,0,0,0-.069.228h-1.527a1.522,1.522,0,0,1,.417-1.041,2.128,2.128,0,0,1,1.17-.526,4.9,4.9,0,0,1,.664-.04c.724,0,1.706.169,2.052.912a1.269,1.269,0,0,1,.109.575V629.5a1.259,1.259,0,0,0,.149.8Zm-1.13-2.151a1.367,1.367,0,0,0-.179.069c-.376.159-.476.377-.476.575a.61.61,0,0,0,.06.238.582.582,0,0,0,.525.288,1.076,1.076,0,0,0,.585-.208,1.4,1.4,0,0,0,.466-1.289Z" transform="translate(-1047.943 -611.684)" fill="#28225a"/><path d="M1128.657,626.754a2.776,2.776,0,0,0-.476.109c-.407.139-.476.4-.476.784v2.915h-1.517v-5.176h1.477v.536a1.91,1.91,0,0,1,.6-.387,2.907,2.907,0,0,1,.892-.208v1.349Z" transform="translate(-1068.832 -611.938)" fill="#28225a"/><path d="M1146.05,624.893l-.01-.486a2.633,2.633,0,0,1-.3.268,1.84,1.84,0,0,1-1.1.357,2.141,2.141,0,0,1-1.725-.912,2.887,2.887,0,0,1-.486-1.785,2.953,2.953,0,0,1,.982-2.37,1.9,1.9,0,0,1,1.18-.387,2.061,2.061,0,0,1,1.358.525v-2.211h1.487v7Zm-.317-3.778a.826.826,0,0,0-.813-.387.954.954,0,0,0-.674.436,2.155,2.155,0,0,0-.268,1.14,2.372,2.372,0,0,0,.287,1.219.809.809,0,0,0,.694.377.9.9,0,0,0,.535-.188,1.845,1.845,0,0,0,.5-1.408A2.22,2.22,0,0,0,1145.733,621.115Z" transform="translate(-1081.218 -606.27)" fill="#28225a"/><path d="M1171.327,619.073v-1.18h1.517v1.18Zm0,5.82v-5.176h1.517v5.176Z" transform="translate(-1103.253 -606.27)" fill="#28225a"/><path d="M1187.343,629.4a2.651,2.651,0,0,1-2.191.952,3.44,3.44,0,0,1-2.509-1l.972-.873a2.177,2.177,0,0,0,.278.248,2.1,2.1,0,0,0,1.229.466,1.757,1.757,0,0,0,.377-.05c.228-.049.535-.178.535-.466-.01-.357-.466-.4-1.021-.486-1.081-.178-1.577-.426-1.844-.942a1.466,1.466,0,0,1-.159-.644,1.6,1.6,0,0,1,.218-.774,2.116,2.116,0,0,1,1.973-.962,3.861,3.861,0,0,1,1.874.5c.149.089.288.178.427.278l-.942.872a2.766,2.766,0,0,0-.278-.2,2.2,2.2,0,0,0-1.021-.317,1.4,1.4,0,0,0-.486.089.352.352,0,0,0-.238.307.32.32,0,0,0,.139.248,2.765,2.765,0,0,0,.694.189l.684.149c.823.178,1.537.595,1.537,1.557A1.555,1.555,0,0,1,1187.343,629.4Z" transform="translate(-1111.882 -611.588)" fill="#28225a"/><path d="M1211.689,630.307v-.466c-.109.079-.208.149-.317.218a2.227,2.227,0,0,1-1.269.387,1.578,1.578,0,0,1-1.527-.853,1.651,1.651,0,0,1-.169-.724,1.7,1.7,0,0,1,1.061-1.477,11.479,11.479,0,0,1,2.072-.486v-.288a.548.548,0,0,0-.585-.625.743.743,0,0,0-.734.377.9.9,0,0,0-.069.228h-1.527a1.519,1.519,0,0,1,.416-1.041,2.126,2.126,0,0,1,1.17-.526,4.9,4.9,0,0,1,.664-.04c.724,0,1.705.169,2.052.912a1.27,1.27,0,0,1,.109.575V629.5a1.258,1.258,0,0,0,.149.8Zm-1.13-2.151a1.35,1.35,0,0,0-.178.069c-.377.159-.476.377-.476.575a.608.608,0,0,0,.059.238.583.583,0,0,0,.525.288,1.074,1.074,0,0,0,.585-.208,1.4,1.4,0,0,0,.466-1.289Z" transform="translate(-1131.529 -611.684)" fill="#28225a"/><path d="M1235.722,621.83v2.32a.931.931,0,0,0,.04.416.412.412,0,0,0,.357.169c.179,0,.357-.01.535-.01v1.18a4.687,4.687,0,0,1-.8.079c-.109,0-.218,0-.317-.01a1.439,1.439,0,0,1-.942-.317,1.646,1.646,0,0,1-.377-1.348V621.82h-.753v-.932h.753v-1.616h1.507V620.9h1.011v.932Z" transform="translate(-1150.634 -607.322)" fill="#28225a"/><path d="M1252.752,619.073v-1.18h1.517v1.18Zm0,5.82v-5.176h1.517v5.176Z" transform="translate(-1165.344 -606.27)" fill="#28225a"/><path d="M1270.138,629.8a2.873,2.873,0,0,1-1.874.6,3.072,3.072,0,0,1-2.032-.744,2.724,2.724,0,0,1-.744-2.013,2.875,2.875,0,0,1,.6-1.844,3.18,3.18,0,0,1,4.006-.327,2.78,2.78,0,0,1,.952,2.181A2.71,2.71,0,0,1,1270.138,629.8Zm-1.18-3.48a1.207,1.207,0,0,0-.754-.2,1.3,1.3,0,0,0-.575.149,1.526,1.526,0,0,0-.6,1.368,2.052,2.052,0,0,0,.268,1.041,1.149,1.149,0,0,0,.992.505c.843,0,1.219-.7,1.219-1.477A1.552,1.552,0,0,0,1268.958,626.324Z" transform="translate(-1175.057 -611.627)" fill="#28225a"/><path d="M1298.345,630.339v-2.925a2.7,2.7,0,0,0-.06-.744.681.681,0,0,0-.694-.417.813.813,0,0,0-.516.159c-.258.2-.287.516-.287,1.13v2.8h-1.527v-5.166h1.547v.446a1.841,1.841,0,0,1,.238-.228,2.212,2.212,0,0,1,2.142-.149c.635.337.684.922.684,1.557v3.54Z" transform="translate(-1197.76 -611.716)" fill="#28225a"/></g></g><g transform="translate(608.156 410.173)"><g transform="translate(0)"><path d="M688.011,464.788l-.081-.09a17.774,17.774,0,0,0-12.4-5.624l-.342-.01c-.185-.006-.367-.006-.551,0l-.343.01a17.749,17.749,0,0,0-12.314,5.539l-.09.095-.025.026-.053.055v0a17.829,17.829,0,0,0-.3,23.958l.076.086a17.717,17.717,0,0,0,12.7,5.956l.617.014c.092,0,.184,0,.274-.005l.345-.009a17.953,17.953,0,0,0,12.7-5.951l.067-.034.024-.07a17.832,17.832,0,0,0-.31-23.948Zm-16.1-3.633a22.524,22.524,0,0,0-4.061,5.752,20.814,20.814,0,0,1-3.779-1.807A15.894,15.894,0,0,1,671.909,461.155Zm-9.135,5.275a22.889,22.889,0,0,0,4.339,2.138,22.61,22.61,0,0,0-1.561,7.457h-6.67A16.048,16.048,0,0,1,662.774,466.43Zm-3.893,11.408h6.67a22.605,22.605,0,0,0,1.368,6.928,22.729,22.729,0,0,0-4.473,2.281A15.869,15.869,0,0,1,658.881,477.838Zm4.805,10.565a20.8,20.8,0,0,1,3.924-1.962,22.584,22.584,0,0,0,4.3,6.267A16.119,16.119,0,0,1,663.686,488.4Zm10.321,3.83a20.751,20.751,0,0,1-4.664-6.359,20.966,20.966,0,0,1,4.664-.73Zm0-8.9a22.653,22.653,0,0,0-5.371.857,20.806,20.806,0,0,1-1.272-6.352h6.643Zm0-7.307h-6.643a20.761,20.761,0,0,1,1.481-6.9,22.721,22.721,0,0,0,5.162.8Zm0-7.911a20.86,20.86,0,0,1-4.4-.66,20.784,20.784,0,0,1,4.4-5.824Zm16.942,7.911h-6.673a22.566,22.566,0,0,0-1.561-7.457,22.793,22.793,0,0,0,4.339-2.138A16.059,16.059,0,0,1,690.949,476.025ZM685.761,465.1a20.985,20.985,0,0,1-3.779,1.808,22.616,22.616,0,0,0-4.063-5.752A15.9,15.9,0,0,1,685.761,465.1Zm-9.942-3.47a20.764,20.764,0,0,1,4.4,5.825,20.934,20.934,0,0,1-4.4.66Zm0,8.3a22.788,22.788,0,0,0,5.165-.8,20.772,20.772,0,0,1,1.481,6.9h-6.646Zm0,7.91h6.646a20.8,20.8,0,0,1-1.274,6.354,22.525,22.525,0,0,0-5.372-.859Zm0,14.395v-7.089a20.957,20.957,0,0,1,4.664.73A20.683,20.683,0,0,1,675.819,492.232Zm2.1.474a22.486,22.486,0,0,0,4.3-6.266,20.825,20.825,0,0,1,3.926,1.963A16.134,16.134,0,0,1,677.92,492.706Zm9.46-5.66a22.779,22.779,0,0,0-4.471-2.281,22.6,22.6,0,0,0,1.366-6.928h6.673A15.868,15.868,0,0,1,687.38,487.046Z" transform="translate(-645.433 -447.452)" fill="#28225a"/><path d="M623.963,520.487a25.961,25.961,0,0,0-.048,6.186,3.1,3.1,0,0,0,.048-6.186Z" transform="translate(-620.05 -494.294)" fill="#808184"/><path d="M630.181,478.869a20.328,20.328,0,0,1,5.084-13.461l-3.808-3.808a25.674,25.674,0,0,0-6.276,12.8,4.3,4.3,0,0,1-.066,8.563,25.757,25.757,0,0,0,7.9,14.767l3.808-3.809A20.349,20.349,0,0,1,630.181,478.869Z" transform="translate(-621.088 -449.389)" fill="#0ca3dd"/><path d="M799.814,480.634a4.293,4.293,0,0,1,3.91-4.276,25.67,25.67,0,0,0-5.73-12.185L794.167,468a20.343,20.343,0,0,1-1.5,27.311l3.808,3.808a25.667,25.667,0,0,0,7.311-14.2A4.3,4.3,0,0,1,799.814,480.634Z" transform="translate(-748.859 -451.351)" fill="#0ca3dd"/><path d="M678.82,603.857a20.246,20.246,0,0,1-12.832-4.563l-3.826,3.826a25.6,25.6,0,0,0,12.88,5.844,4.3,4.3,0,0,1,8.563-.168,25.6,25.6,0,0,0,12.485-6.215l-3.814-3.814A20.275,20.275,0,0,1,678.82,603.857Z" transform="translate(-649.339 -553.987)" fill="#28225a"/><path d="M678.355,427.111a4.3,4.3,0,0,1-8.563-.162,25.674,25.674,0,0,0-14.515,7.353l3.808,3.809a20.349,20.349,0,0,1,29.527.593l3.814-3.814A25.761,25.761,0,0,0,678.355,427.111Z" transform="translate(-644.089 -422.966)" fill="#28225a"/><path d="M724.5,629.811a3.106,3.106,0,0,0-3.1,2.982c.856.084,1.719.126,2.593.126a25.526,25.526,0,0,0,3.6-.251A3.107,3.107,0,0,0,724.5,629.811Z" transform="translate(-694.512 -577.66)" fill="#28225a"/><path d="M723.994,425.764c-.874,0-1.737.042-2.593.126a3.1,3.1,0,0,0,6.192.126A25.535,25.535,0,0,0,723.994,425.764Z" transform="translate(-694.512 -422.062)" fill="#28225a"/><path d="M830.692,520.487a3.1,3.1,0,0,0,.048,6.186,25.961,25.961,0,0,0-.048-6.186Z" transform="translate(-775.648 -494.294)" fill="#808184"/><path d="M722.55,410.173a3.7,3.7,0,1,0,3.7,3.7A3.7,3.7,0,0,0,722.55,410.173Z" transform="translate(-692.565 -410.173)" fill="#28225a"/><circle cx="3.703" cy="3.703" r="3.703" transform="translate(51.553 25.58)" fill="#0ca3dd"/><path d="M722.55,627.295a3.7,3.7,0,1,0,3.7,3.7A3.7,3.7,0,0,0,722.55,627.295Z" transform="translate(-692.565 -575.742)" fill="#28225a"/><circle cx="3.703" cy="3.703" r="3.703" transform="translate(0 25.58)" fill="#0ca3dd"/></g><g transform="translate(12.79 7.838)"><rect width="0.421" height="3.468" transform="matrix(0.74, -0.673, 0.673, 0.74, 0, 3.372)" fill="#fc0"/><rect width="0.421" height="3.468" transform="translate(0.99 2.545) rotate(-42.264)" fill="#fc0"/><rect width="0.422" height="3.468" transform="matrix(0.772, -0.635, 0.635, 0.772, 2.037, 1.765)" fill="#fc0"/><rect width="0.421" height="3.468" transform="translate(3.074 1.001) rotate(-37.271)" fill="#fc0"/><rect width="0.422" height="3.468" transform="matrix(0.816, -0.578, 0.578, 0.816, 4.108, 0.244)" fill="#fc0"/></g><g transform="translate(40.328 8.152)"><rect width="3.468" height="0.421" transform="matrix(0.672, -0.74, 0.74, 0.672, 3.812, 5.656)" fill="#fc0"/><rect width="3.468" height="0.421" transform="matrix(0.672, -0.74, 0.74, 0.672, 2.822, 4.828)" fill="#fc0"/><rect width="3.468" height="0.422" transform="translate(1.889 4.175) rotate(-50.557)" fill="#fc0"/><rect width="3.468" height="0.421" transform="translate(0.946 3.506) rotate(-52.729)" fill="#fc0"/><rect width="3.468" height="0.421" transform="matrix(0.578, -0.816, 0.816, 0.578, 0, 2.831)" fill="#fc0"/></g><g transform="translate(46.507 14.702)"><rect width="3.468" height="0.421" transform="translate(0 2.073) rotate(-36.704)" fill="#fff"/><rect width="3.468" height="0.421" transform="translate(0.727 3.138) rotate(-36.704)" fill="#fff"/><rect width="3.468" height="0.421" transform="matrix(0.83, -0.558, 0.558, 0.83, 1.304, 4.118)" fill="#fff"/><rect width="3.468" height="0.421" transform="translate(1.892 5.112) rotate(-31.685)" fill="#fff"/><rect width="3.468" height="0.422" transform="translate(2.485 6.112) rotate(-29.736)" fill="#fff"/></g><g transform="translate(7.038 14.188)"><rect width="0.421" height="3.468" transform="translate(2.673 0.338) rotate(-53.295)" fill="#fff"/><rect width="0.421" height="3.468" transform="translate(1.945 1.403) rotate(-53.299)" fill="#fff"/><rect width="0.421" height="3.468" transform="translate(1.288 2.533) rotate(-56.105)" fill="#fff"/><rect width="0.421" height="3.468" transform="translate(0.642 3.648) rotate(-58.288)" fill="#fff"/><rect width="0.422" height="3.468" transform="translate(0 4.758) rotate(-60.257)" fill="#fff"/></g><g transform="translate(8.514 40.582)"><rect width="3.468" height="0.421" transform="matrix(0.741, -0.671, 0.671, 0.741, 3.081, 6.145)" fill="#fff"/><rect width="3.468" height="0.421" transform="matrix(0.741, -0.671, 0.671, 0.741, 2.256, 5.154)" fill="#fff"/><rect width="3.468" height="0.422" transform="translate(1.493 4.09) rotate(-39.319)" fill="#fff"/><rect width="3.468" height="0.422" transform="matrix(0.797, -0.605, 0.605, 0.797, 0.744, 3.044)" fill="#fff"/><rect width="3.468" height="0.422" transform="matrix(0.817, -0.577, 0.577, 0.817, 0, 2)" fill="#fff"/></g><g transform="translate(45.168 39.957)"><rect width="0.421" height="3.468" transform="translate(0 4.214) rotate(-49.438)" fill="#fff"/><rect width="0.421" height="3.468" transform="matrix(0.65, -0.76, 0.76, 0.65, 0.797, 3.2)" fill="#fff"/><rect width="0.421" height="3.468" transform="translate(1.438 2.262) rotate(-52.247)" fill="#fff"/><rect width="0.422" height="3.468" transform="translate(2.092 1.309) rotate(-54.43)" fill="#fff"/><rect width="0.421" height="3.468" transform="matrix(0.553, -0.833, 0.833, 0.553, 2.751, 0.351)" fill="#fff"/></g><g transform="translate(38.855 45.967)"><rect width="0.421" height="3.468" transform="matrix(0.74, -0.673, 0.673, 0.74, 3.812, 0.283)" fill="#fc0"/><rect width="0.421" height="3.468" transform="matrix(0.74, -0.673, 0.673, 0.74, 2.822, 1.111)" fill="#fc0"/><rect width="0.421" height="3.468" transform="matrix(0.772, -0.635, 0.635, 0.772, 1.889, 1.764)" fill="#fc0"/><rect width="0.421" height="3.468" transform="translate(0.946 2.433) rotate(-37.274)" fill="#fc0"/><rect width="0.422" height="3.468" transform="matrix(0.816, -0.578, 0.578, 0.816, 0, 3.108)" fill="#fc0"/></g><g transform="translate(14.601 46.582)"><rect width="3.469" height="0.422" transform="matrix(0.587, -0.81, 0.81, 0.587, 0, 2.809)" fill="#fc0"/><rect width="3.468" height="0.422" transform="matrix(0.587, -0.81, 0.81, 0.587, 1.075, 3.522)" fill="#fc0"/><rect width="3.468" height="0.422" transform="matrix(0.547, -0.837, 0.837, 0.547, 2.201, 4.182)" fill="#fc0"/><rect width="3.468" height="0.421" transform="matrix(0.514, -0.857, 0.857, 0.514, 3.315, 4.827)" fill="#fc0"/><rect width="3.468" height="0.422" transform="matrix(0.485, -0.875, 0.875, 0.485, 4.425, 5.466)" fill="#fc0"/></g></g></g></svg>