<svg xmlns="http://www.w3.org/2000/svg" viewBox="0 0 520.19 529.18"><defs><style>.cls-1{fill:#fff;opacity:0.3;}</style></defs><g id="Layer_2" data-name="Layer 2"><g id="Layer_1-2" data-name="Layer 1"><path class="cls-1" d="M247.82,441a182.7,182.7,0,0,1-68.66-13.18,168,168,0,0,1-55-35.46,194,194,0,0,1-58.66-115c-7.73-55.46,26.37-96.38,55.93-120.93,33.19-27.28,79.12-49.55,123.23-59.56,23.19-5.45,46.83-3.63,69.57,5,20.91,7.72,40.47,21.36,57.75,39.55,33.64,35.91,53.65,86.38,53.65,135A168.57,168.57,0,0,1,412,344.15,146.66,146.66,0,0,1,374.23,396C341.49,424.62,296.93,440.53,247.82,441ZM270.56,97.29a113.82,113.82,0,0,0-25,2.73c-43.66,10-89.13,31.82-121.87,58.64-29.1,24.1-62.29,64.1-54.56,117.75,10.91,80,75.93,160.48,178.7,160.48C348.77,436.44,422,369.15,422,276c0-47.73-20-97.28-52.74-132.74C340.58,113.66,306,97.29,270.56,97.29Z" transform="translate(0 1.36)"/><path class="cls-1" d="M241.45,448.71a197.18,197.18,0,0,1-47.74-6.36c-22.74-5.91-44.11-16.37-60-28.19-25-18.64-51.84-42.73-61.85-77.29-1.36-5-3.18-10.45-5-15.45-4.54-14.1-9.55-28.64-10.91-44.1A135.88,135.88,0,0,1,66.84,206.4c9.1-20.91,23.65-40,42.75-56.83,38.19-33.64,92.3-58.65,135-62.28,18.19-1.37,34.55-2.28,50.47.91,36.83,7.27,69.57,27.73,88.21,54.55,15,21.37,26.83,42.28,35,62.28,10.45,25,15.91,48.65,15.91,71.38,0,40.92-12.73,78.19-37.74,107.29-26.37,31.37-68.66,51.83-130,62.74A146.51,146.51,0,0,1,241.45,448.71ZM111,150.93l1.36,1.37C73.21,186.85,54.57,231,59.57,276.86c1.82,15,6.36,29.55,10.91,43.19,1.82,5,3.18,10.46,5,15.46C85.49,368.7,111.4,392.34,136,411c23.64,17.73,64.57,34.09,106,34.09a155.56,155.56,0,0,0,25-2.27c60.47-10.91,101.85-30.91,127.77-61.37,24.1-28.64,36.83-65,36.83-105,0-39.55-16.82-84.11-50.47-131.39-18.19-25.91-50.47-45.91-85.94-53.19-15.46-3.18-31.83-2.27-49.56-.91-41.84,3.64-95.49,28.19-132.78,61.38Z" transform="translate(0 1.36)"/><path class="cls-1" d="M241.91,459.17c-41.84,0-83.67-15.46-105.95-30.92-30-20.45-64.12-44.1-71.85-83.65a222.37,222.37,0,0,0-7.73-27.27c-4.09-12.73-8.64-26.37-9.54-40a162.53,162.53,0,0,1,10.45-74.1,169.84,169.84,0,0,1,40.93-60.47c19.55-18.64,44.56-35,70.48-46.82,27.74-12.73,54.11-18.64,76.39-17.74h16.37c13.19,0,26.83,0,39.56,2.73,44.56,10.91,80.49,34.55,95,63.19,2.72,5.46,5.91,10.92,9.09,16.83,18.19,34.55,39.11,73.19,39.11,115,0,39.56-11.83,76.38-35,106.39-28.19,36.82-75,52.73-120,68.64l-2.28.91A139.31,139.31,0,0,1,241.91,459.17ZM100.49,145C63.66,179.57,45.93,226.4,50,276.86c1.36,13.64,5.46,26.83,9.55,39.56,2.73,9.09,5.91,18.18,7.73,27.73,7.27,38.64,40.92,61.37,70,81.83,21.83,15,63.21,30.46,104.13,30a144.42,144.42,0,0,0,44.11-6.81l2.27-.91C332.4,432.8,378.78,416.89,406.51,381c22.28-29.09,34.56-65.46,34.11-104.56,0-40.92-20.46-79.1-38.65-113.2-3.19-5.91-5.91-11.37-9.1-16.82-14.55-28.19-49.11-50.92-92.76-61.83-12.28-3.18-25.46-2.73-38.65-2.73H244.64C201.44,79.56,142.33,105.93,100.49,145Z" transform="translate(0 1.36)"/><path class="cls-1" d="M244.18,471a174.45,174.45,0,0,1-32.28-2.73c-33.2-5-60-16.82-74.58-25.91l-6.82-4.1c-32.74-20.45-69.57-43.18-74.57-86.37-1.36-11.37-5-22.28-8.64-33.64-4.55-13.19-9.09-26.83-10-41.38-1.82-27.27,1.36-53.19,9.55-77.28,8.64-24.55,21.82-46.37,39.56-64.1,39.1-38.65,105.94-74.56,158.69-67.29a230.46,230.46,0,0,0,25,1.37c12.28.45,25,.45,36.38,3.63,31.37,8.64,86.39,29.1,101.85,72.29,4.55,12.27,10.46,24.55,16.83,37.73,14.09,29.1,28.65,59.56,28.65,92.74,0,38.65-10.92,75-32.29,105.48-21.37,30.91-56.84,47.73-90.94,64.1-7.73,3.64-16.37,7.73-24.1,11.82C286,467.81,264.19,471,244.18,471ZM87.76,136.84l.91,1.36c-34.56,34.56-51.84,83.66-48.2,138.66.91,14.1,5.46,27.28,9.55,40.47,3.64,11.36,7.73,22.73,9.09,34.55,5,41.37,40.93,64.1,73.21,84.1l6.82,4.09c13.64,8.64,40.93,20,73.21,25.46,25,4.09,60.93,5,92.31-10.91,7.73-4.09,15.91-8.18,24.1-11.82,33.65-16.37,68.66-33.19,90-63.19,20.92-30,31.83-65.47,31.83-103.66,0-32.27-14.55-62.28-28.19-91.37-6.37-13.19-12.28-25.46-16.83-37.74-15-41.37-68.66-61.83-99.58-70-11.37-3.18-23.64-3.64-35.92-3.64a230.45,230.45,0,0,1-25-1.36C193.71,65,127.77,100,89.12,138.2Z" transform="translate(0 1.36)"/><path class="cls-1" d="M248.73,484.17a249.24,249.24,0,0,1-27.28-1.82c-33.65-4.09-65.48-15.91-81.85-25.46-3.64-2.27-7.28-4.09-10.92-6.36-36.37-20.46-77.3-43.64-80-90.92-.91-13.19-5-25.46-9.54-39.1-5-14.1-10-28.64-10.46-43.65-1.37-29.09,1.82-55.91,9.09-80.46,8.19-26.83,20.92-49.56,38.2-67.29l.91.91-.91-.91c21.37-22.27,50.47-42.73,80-55.92,23.19-10.45,57.75-21.36,90-14.09,10,2.27,20.46,2.73,30.47,3.18,12.27.46,24.55.91,36.37,4.55,27.74,8.18,49.57,17.73,66.85,28.64C402.88,110,417,127.75,421.52,147.75c3.64,15.46,10.91,31.37,18.64,47.74,11.83,25.46,24.1,51.82,24.1,80.92,0,37.73-10,73.65-29.55,104.56-17.74,28.19-47.29,45.92-75.94,62.74-10.46,6.36-21.83,12.73-31.83,20C301.93,479.62,273.28,484.17,248.73,484.17ZM223.26,60c-50.92,0-110.49,34.1-146,71.38-32.74,34.09-49.11,85.92-46.38,145.93.91,15,5.46,29.09,10.46,43.19,4.55,13.64,9.09,26.37,10,40,2.73,45.47,43.2,68.2,78.67,88.66,3.64,2.27,7.27,4.09,10.91,6.36,16.37,9.55,47.75,20.91,80.94,25,28.65,3.64,69.57,3.19,102.31-19.09,10-6.82,21.37-13.64,31.83-20,28.19-16.82,57.29-34.1,75-61.83,19.1-30,29.1-65.92,29.1-102.75,0-28.18-12.28-54.1-23.64-79.55-7.74-16.83-15-32.74-18.65-48.19-4.55-19.1-17.73-35.92-40.47-50-16.82-10.91-38.65-20-65.93-28.19-11.37-3.18-23.19-4.09-35.47-4.55-10.46-.45-20.92-.9-30.92-3.18C237.81,60.46,230.54,60,223.26,60Z" transform="translate(0 1.36)"/><path class="cls-1" d="M255.09,498.26A220.16,220.16,0,0,1,231,496.9c-35.92-3.64-71.84-15.91-90-25.46-4.55-2.27-9.09-4.54-13.64-7.27-40.47-20.91-86.4-44.55-86.85-96.84,0-14.54-5-29.09-10.46-43.64-5.46-15-10.91-30.46-11.37-46.83-.91-30.91,1.82-59.1,8.19-83.65q10.91-43,36.83-70.92c22.28-24.55,53.2-46.37,84.58-60C173.25,51.37,210.53,40,245.55,50c11.36,3.18,23.64,4.09,35.46,4.54,12.28.91,25,1.37,36.83,5,21.83,7.27,50,17.27,72.76,31.82,25.46,16.36,39.56,35.91,42.29,57.74,2.27,17.73,10,35.46,18.19,54.1,10.45,23.18,21.37,46.82,21.37,73.19,0,36.82-9.1,72.28-26.83,103.2-15.46,26.82-40.92,45-65.48,62.74-11.82,8.63-24.1,17.27-35,26.36-14.55,12.73-32.74,21.83-54.11,26.37A181.66,181.66,0,0,1,255.09,498.26ZM64.57,123.2l.91.91C34.56,157.75,19.1,210.94,21.37,276.86c.46,15.92,5.91,31.37,10.91,45.92,5.46,15,10.46,29.55,10.46,44.55.46,50.47,45.93,73.65,85.49,94.11,5,2.27,9.55,5,13.64,7.27,17.73,9.55,53.2,21.37,88.67,25,32.74,3.18,78.67,1.36,111.86-27.73,10.91-9.55,23.19-18.19,35-26.83,24.56-17.27,50-35.46,64.57-61.82A196.83,196.83,0,0,0,468.36,275.5c0-25.46-10.92-49.1-20.92-71.83-8.64-18.64-16.37-36.82-18.65-55-5.45-46.37-63.2-70.92-113.22-86.83-11.37-3.64-23.64-4.55-36.38-5-11.82-.46-24.1-1.37-35.92-4.55-33.65-9.55-70.48,1.37-95,12.28-30,14.09-60.48,35.46-82.76,59.55Z" transform="translate(0 1.36)"/><path class="cls-1" d="M262.83,512.81c-6.83,0-14.1-.45-21.38-.91-44.1-4.09-83.66-18.64-98.22-25.91-5-2.27-10-5-15.46-7.27-45.47-21.37-96.39-45.47-95-103.2.45-16.37-5-31.83-11.37-48.65-5.91-15.91-11.82-32.28-11.82-50-.46-33.64,1.82-62.28,7.73-87.28C24.1,159.12,35.92,134.11,52.75,115c23.19-26.37,55.47-50,89.12-64.56C169.15,38.64,209.17,27.28,246,40c12.73,4.54,26.37,5.45,39.56,6.36,12.73.91,25.92,1.82,38.2,5.91,27.28,9.55,55.93,19.55,79.57,34.55,28.19,18.19,42.29,38.65,42.29,63.2.45,19.54,8.64,38.18,17.73,58.19,9.55,21.36,19.1,43.19,19.1,67.28a225.68,225.68,0,0,1-24.1,102.29c-13.18,25.91-35.47,44.55-57.29,62.74-12.28,10.45-25,20.91-35.92,32.73C350.58,489.63,331,501,307.84,506.9A160.78,160.78,0,0,1,262.83,512.81ZM54.11,117.29c-29.56,33.64-43.2,85.93-42.29,160,.46,17.27,6.37,33.64,11.83,49.1C29.56,343.24,35.47,359.15,35,376c-1.36,55.92,49.11,79.56,93.67,100.47,5.46,2.73,10.46,5,15.46,7.28,14.56,7.27,53.66,21.82,97.31,25.46,6.37.45,13.64.9,20.92.9,33.65,0,72.75-8.18,100-38.18,10.91-11.82,23.64-22.73,36.37-33.19,21.38-18.19,43.66-36.37,56.39-61.83A221.57,221.57,0,0,0,479.27,276c0-23.18-9.55-45-19.1-65.91-9.09-20-17.73-39.1-17.73-59.56C441.53,95.93,367,70,322.39,55c-11.82-4.09-24.1-5-37.28-5.91s-27.29-1.82-40.47-6.37C208.71,30,169.15,41.37,142.33,53.19,109.13,67.74,76.85,91.38,54.11,117.29Z" transform="translate(0 1.36)"/><path class="cls-1" d="M271.92,527.81c-6.37,0-13.19-.45-19.55-.9-45.93-3.64-89.13-18.19-107.32-26.37-5.45-2.28-10.45-4.55-16.37-7.28C103.22,482.35,76.85,471,56.84,454.17c-23.19-19.55-33.65-42.74-32.29-70.93.91-18.18-5-35-11.82-52.73C6.37,313.69,0,296,0,276.86c0-59.1,4.55-125.47,40.47-168.21C63.66,80.92,99.13,55,134.14,39.55c29.1-12.73,71.85-24.55,111-8.64,14.1,5.46,29.1,6.82,43.65,7.73,13.19.91,26.83,1.82,39.56,6.37l3.19.91c26.37,9.54,59.11,21.36,84.57,37.73,29.56,19.55,43.2,41.82,40.93,67.74-1.82,21.37,6.82,40.91,16.37,61.83,8.64,19.55,17.73,40,17.73,62.28a248.69,248.69,0,0,1-21.37,101.38c-11.37,25.46-30.92,44.55-50,63.19-12.28,12.28-25.46,25-35.92,39.1-14.55,19.55-34.56,33.19-59.57,40.92C308.3,525.54,291,527.81,271.92,527.81ZM203.71,25.91c-25.46,0-50,7.73-68.66,15.91-35,15-69.57,40.92-92.76,68.65-35.47,42.28-40,108.2-40,166.85C2.27,296,8.64,313.23,15,330.05c6.82,18.19,13.18,35.46,11.82,54.1C23.19,446,79.57,470.08,129.59,491.9c5.46,2.27,10.92,4.55,16.37,7.27,18.19,8.19,60.93,22.73,106.41,26.37,59.56,4.55,103.22-10.91,129.14-46.37,10.45-14.55,23.64-27.28,35.92-39.55C436.07,421,455.62,401.88,467,377.34a244.51,244.51,0,0,0,21.37-100.48c0-21.82-9.09-41.82-17.73-61.37-9.55-20.91-18.19-40.92-16.37-62.74,1.82-25-10.91-46.37-40-65.46C389.24,70.92,356.5,59.1,330.58,50l-3.19-.91c-12.27-4.55-25-5.46-38.65-6.37-14.55-.91-30-2.27-44.56-8.18C231,28.19,217.35,25.91,203.71,25.91Z" transform="translate(0 1.36)"/><path class="cls-1" d="M278.29,521.91h-1.37v-2.28h6.82v2.28Zm-2.73,0h-6.82v-2.28h6.82Zm9.09,0v-2.28a34.76,34.76,0,0,0,6.82-.45v2.27A38.82,38.82,0,0,0,284.65,521.91Zm-17.28-.46c-2.27,0-4.54-.45-6.82-.45v-2.28c2.28,0,4.55.46,6.82.46Zm25.47,0v-2.27c2.27,0,4.54-.46,6.82-.46l.45,2.28A42,42,0,0,0,292.84,521.45ZM259.19,521c-2.28,0-4.55-.46-6.82-.46l.45-2.27a34.76,34.76,0,0,0,6.82.45Zm41.83-.46-.45-2.27c2.27-.46,4.54-.46,6.82-.91l.45,2.27A40.77,40.77,0,0,0,301,520.54Zm-50,0c-2.27-.45-4.55-.45-6.82-.91l.46-2.27c2.27.45,4.54.45,6.82.91Zm58.21-1.36-.46-2.28,6.82-1.36.46,2.27Zm-66.39,0c-2.28-.46-4.55-.46-6.82-.91l.45-2.28a34.69,34.69,0,0,0,6.82.91Zm-7.73-.91-6.82-1.37.45-2.27,6.82,1.36Zm82.3-.91-.45-2.27a38.5,38.5,0,0,0,6.82-1.82l.45,2.27A38.27,38.27,0,0,1,317.39,517.36Zm-90.49-.46-6.82-1.36.46-2.27,6.82,1.36Zm98.22-1.36-.91-2.27a26.61,26.61,0,0,0,6.37-2.28l.91,2.28C329.67,514.18,327.39,514.63,325.12,515.54Zm-106.4-.45-6.82-1.37.45-2.27,6.82,1.36ZM211,513.27a38.05,38.05,0,0,1-6.82-1.82l.45-2.27a38.23,38.23,0,0,1,6.82,1.81Zm121.86-.46-.91-2.27c2.27-.91,4.09-1.82,6.37-2.73l.91,2.27C337.4,511,335.12,511.9,332.85,512.81Zm-130-1.36c-2.27-.46-4.54-1.36-6.82-1.82l.46-2.27c2.27.45,4.54,1.36,6.82,1.82Zm137.78-1.82-.91-2.27a42.49,42.49,0,0,0,6.37-3.18l1.36,2.27C344.67,507.81,342.4,508.72,340.58,509.63Zm-145.51-.45c-2.27-.46-4.54-1.37-6.82-1.82l.46-2.28c2.27.46,4.54,1.37,6.82,1.82Zm-7.73-2.28c-2.27-.45-4.54-1.36-6.82-1.82l.91-2.27a37.45,37.45,0,0,0,6.82,1.82ZM347.86,506l-1.37-2.27a41,41,0,0,0,5.91-3.64l1.37,1.82C352,503.72,349.68,504.63,347.86,506Zm-168.25-1.36c-2.27-.91-4.54-1.36-6.82-2.27l.91-2.28a61.19,61.19,0,0,1,6.82,2.28Zm-7.73-2.27c-2.27-.91-4.54-1.37-6.82-2.28l.91-2.27c1.82.45,4.09,1.36,6.82,2.27Zm182.8-.46-1.37-1.82,5.46-4.09,1.36,1.82A28.26,28.26,0,0,1,354.68,501.9Zm-190.53-2.27-2.27-.91-4.09-1.36.91-2.28,4.09,1.37,2.27.91ZM361.5,496.9l-1.37-1.82a48.6,48.6,0,0,0,5.46-4.54l1.82,1.81A69.52,69.52,0,0,0,361.5,496.9Zm-205.08.46c-2.27-.91-4.55-1.37-6.82-2.28l.91-2.27c2.27.91,4.55,1.36,6.37,2.27Zm-7.73-2.73c-2.27-.91-4.55-1.37-6.36-2.28l.9-2.27c2.28.91,4.55,1.37,6.37,2.27Zm219.17-3.18-1.81-1.82a53.56,53.56,0,0,0,5-5l1.82,1.82ZM141,491.9c-2.27-.91-4.55-1.82-6.36-2.73l.9-2.27c2.28.91,4.1,1.82,6.37,2.73Zm-7.73-3.18c-2.27-.91-4.55-1.82-6.37-2.73l.91-2.27c2.28.91,4.1,1.82,6.37,2.73Zm240.09-3.18-1.82-1.82c1.37-1.37,2.73-3.19,4.09-4.55l.46-.45,1.82,1.36-.46.45A24.18,24.18,0,0,1,373.32,485.54Zm-247.36,0c-2.28-.91-4.1-1.82-6.37-2.73l.91-2.28c2.27.91,4.09,1.82,6.36,2.73Zm-7.73-3.19a41.57,41.57,0,0,1-6.37-3.18l.91-2.27a41.93,41.93,0,0,1,6.36,3.18Zm260.55-2.72L377,478.26c1.36-1.82,3.18-3.64,4.55-5.45l1.81,1.81A50.41,50.41,0,0,0,378.78,479.63ZM111,478.72c-2.27-.91-4.09-2.28-6.37-3.19l.91-2.27c1.82.91,4.1,2.27,6.37,3.18Zm-7.28-3.64c-2.27-.91-4.09-2.27-5.91-3.18l1.37-2.28c1.82.91,4.09,2.28,5.91,3.19Zm280.56-1.36-1.82-1.82a51.4,51.4,0,0,1,5-5l1.82,1.81A26.41,26.41,0,0,0,384.23,473.72ZM96.85,471c-1.81-1.37-4.09-2.28-5.91-3.64l1.37-2.27c1.82,1.36,4.09,2.27,5.91,3.63Zm292.84-3.18L387.87,466l5-5,1.82,1.81ZM89.58,466.9a41,41,0,0,0-5.91-3.64L85,461.44a26,26,0,0,0,5.91,3.64Zm306-5-1.82-1.81c1.82-1.37,3.19-3.19,5-4.55l1.82,1.82A44.66,44.66,0,0,1,395.6,461.89Zm-312.84.46c-1.82-1.36-4.09-2.73-5.91-4.09l1.36-1.82,5.46,4.09Zm-6.82-4.55-5.46-4.09,1.36-1.82L77.3,456Zm325.57-1.36-1.82-1.82a50.41,50.41,0,0,0,5-4.54l1.36,1.81C405.15,453.71,403.33,455.08,401.51,456.44ZM69.57,452.8c-1.82-1.36-3.64-3.18-5.46-4.54l1.82-1.82c1.82,1.36,3.64,3.18,5.46,4.54Zm338.31-1.36-1.37-1.82c1.82-1.36,3.64-3.18,5.46-4.55l1.36,1.82A18.23,18.23,0,0,0,407.88,451.44ZM63.66,447.35a52.37,52.37,0,0,1-5-5l1.82-1.82c1.36,1.82,3.18,3.18,5,5ZM413.79,446l-1.36-1.82,1.36-1.36a26.29,26.29,0,0,0,3.64-3.18l1.36,1.82a26.29,26.29,0,0,0-3.64,3.18Zm-356-4.54c-1.82-1.82-3.18-3.64-4.55-5L55,435.07c1.36,1.82,3.18,3.18,4.55,5Zm362.41-.91-1.37-1.82c1.82-1.36,3.64-3.18,5.46-4.55l1.36,1.82A69.94,69.94,0,0,0,420.16,440.53Zm5.91-5-1.82-1.82c1.82-1.82,3.64-3.18,5-4.55l1.82,1.82C429.7,432.35,427.89,433.71,426.07,435.53Zm-373.78,0c-1.36-1.82-3.18-3.64-4.55-5.46l1.82-1.36c1.37,1.82,2.73,3.64,4.1,5.45ZM432,430.07l-1.82-1.82c1.82-1.82,3.64-3.18,5-4.54l1.82,1.82A40.49,40.49,0,0,0,432,430.07Zm-385.14-.91a65.72,65.72,0,0,1-4.1-5.91l1.82-1.36,4.09,5.45Zm391-5-1.82-1.82,5-5,1.82,1.82A25.74,25.74,0,0,1,437.89,424.16Zm-395.6-1.82c-1.37-1.82-2.28-4.09-3.64-5.91l2.27-.91a41.39,41.39,0,0,0,3.64,5.91Zm401.51-3.63L442,416.89a44.79,44.79,0,0,0,4.55-5l1.82,1.82C447,415.07,445.62,416.89,443.8,418.71ZM38.2,415.07c-.91-2.27-2.28-4.09-2.73-6.37l2.27-.9c.91,2.27,1.82,4.09,2.73,6.36Zm411.06-2.27L447.44,411c1.36-1.82,3.18-3.64,4.55-5.46l1.81,1.37A29.09,29.09,0,0,1,449.26,412.8ZM35,407.8A39.82,39.82,0,0,1,32.74,401l2.27-.91a26.53,26.53,0,0,0,2.28,6.36Zm419.7-1.37-1.81-1.36,4.09-5.46,1.82,1.37C457.44,402.79,456.08,404.61,454.71,406.43Zm5-6.82-1.82-1.36a25.67,25.67,0,0,0,3.63-5.91l2.28,1.36A67.85,67.85,0,0,1,459.72,399.61Zm-427.44.46c-.45-2.28-1.36-4.55-1.81-6.82l2.27-.46a37.23,37.23,0,0,0,1.82,6.82Zm432-7.28L462,391.43a37.94,37.94,0,0,0,3.18-5.91l2.28.91C466.54,388.7,465.17,391,464.26,392.79Zm-433.79-.91a34.59,34.59,0,0,1-.91-6.82l2.27-.45c.45,2.27.45,4.55.91,6.82Zm437-5.45-2.28-.91c.91-1.82,1.82-4.09,3.19-6.37l2.27.91A27.89,27.89,0,0,1,467.45,386.43ZM29.1,383.7c0-2.27-.45-4.55-.45-6.82h2.27a34,34,0,0,0,.46,6.82Zm442-4.55-2.27-.9c.91-2.28,1.82-4.1,2.73-6.37l2.27.91C472.9,375.06,472,376.88,471.08,379.15Zm-439.7-3.63H29.1v-.91a32.61,32.61,0,0,0-.45-6.37h2.27c0,2.28.46,4.1.46,6.37Zm442.89-4.09-2.28-.91c.91-2.28,1.37-4.1,2.28-6.37l2.27.91C475.63,367.33,475.18,369.61,474.27,371.43ZM28.65,367.79a35.46,35.46,0,0,0-.91-6.82l2.27-.46c.46,2.28.46,4.55.91,6.82ZM477,363.7l-2.28-.91a37.66,37.66,0,0,0,1.82-6.82l2.27.45A55.81,55.81,0,0,1,477,363.7ZM27.74,359.61c-.46-2.28-.91-4.55-1.37-6.82l2.28-.46c.45,2.28.91,4.55,1.36,6.82ZM479.27,356l-2.27-.46c.45-2.27,1.36-4.54,1.81-6.82l2.28.46C480.63,351.42,479.72,353.7,479.27,356ZM25.92,351.88a38.05,38.05,0,0,0-1.82-6.82l2.27-.46c.46,2.28,1.37,4.55,1.82,6.82Zm455.17-3.64-2.28-.45c.46-2.28.91-4.55,1.37-6.82l2.27.45A18.22,18.22,0,0,1,481.09,348.24Zm-457-4.55c-.45-2.27-1.36-4.09-1.82-6.82l2.27-.45a37.45,37.45,0,0,1,1.82,6.82Zm458.81-3.63-2.28-.46c.46-2.27.91-4.54,1.37-6.82l2.27.46C483.82,335.51,483.36,337.78,482.91,340.06ZM21.83,336A68.17,68.17,0,0,1,20,329.15l2.27-.91a50.07,50.07,0,0,1,1.82,6.82Zm462.9-3.64-2.28-.46c.46-2.27.91-4.54,1.37-6.82l2.27.46Q485.4,328.92,484.73,332.33ZM19.55,328.24c-.45-1.37-.91-2.73-1.36-4.09l-.91-2.73,2.27-.91.91,2.73c.46,1.36.91,2.72,1.37,4.09Zm466.54-4.09-2.27-.46a35.46,35.46,0,0,0,.91-6.82l2.27.46A35.56,35.56,0,0,1,486.09,324.15ZM17.28,320.51c-.91-2.27-1.37-4.55-2.27-6.82l2.27-.91a39.53,39.53,0,0,0,2.27,6.82ZM487.45,316l-2.27-.45c.45-2.28.45-4.55.91-6.82l2.27.45C487.91,311.42,487.91,313.69,487.45,316Zm-472.9-3.18A38.27,38.27,0,0,1,12.73,306l2.28-.45c.45,2.27,1.36,4.09,1.81,6.81Zm473.81-4.55-2.27-.45c.45-2.27.45-4.55.91-6.82l2.27.45A34.59,34.59,0,0,1,488.36,308.23ZM12.28,305.05c-.46-2.27-1.37-4.54-1.82-6.82l2.27-.45a38.5,38.5,0,0,0,1.82,6.82Zm477.45-5-2.28-.45c.46-2.28.46-4.55.91-6.82l2.28.45A34.69,34.69,0,0,0,489.73,300.05ZM10.46,296.87c-.46-2.28-.91-4.55-1.37-6.82l2.28-.46c.45,2.28.91,4.55,1.36,6.82Zm480.18-5-2.28-.46v-.91c.46-1.82.46-4.09.91-5.91l2.28.46c-.46,1.82-.46,4.09-.91,5.91ZM9.09,289.14a35.46,35.46,0,0,1-.91-6.82l2.28-.45c.45,2.27.45,4.54.91,6.81Zm482.46-5-2.28-.46.46-2.72c0-1.37.45-2.73.45-4.1h2.28c0,1.37-.46,2.73-.46,4.1ZM7.73,281a34.81,34.81,0,0,1-.45-6.82H9.55A34.81,34.81,0,0,0,10,281Zm484.73-5h-2.28v-6.81h2.28v2.72C492.91,272.77,492.46,274.14,492.46,276ZM7.28,272.77V265.5H9.55v6.82Zm482.9-5c0-2.27-.45-4.54-.45-6.82l2.27-.45a34,34,0,0,1,.46,6.82ZM10,264.59H7.73a8.94,8.94,0,0,1,.45-3.18c0-1.37.46-2.73.46-4.09l2.27.45c0,1.36-.45,2.73-.45,4.09A5.71,5.71,0,0,0,10,264.59Zm479.27-5c-.45-2.27-.91-4.55-1.36-6.82l2.27-.46c.46,2.28.91,4.55,1.37,6.82ZM10.91,256.86l-2.27-.45c.45-2.28.45-4.55.91-6.82l2.27.45C11.37,251.86,11.37,254.59,10.91,256.86Zm477-5a38.27,38.27,0,0,0-1.82-6.82l2.27-.45c.46,2.27,1.37,4.54,1.82,6.82ZM11.82,248.68l-2.27-.46c.45-2.27.45-4.54.91-6.82l2.27.46C12.28,244.13,12.28,246.41,11.82,248.68Zm474.27-4.55a40.7,40.7,0,0,0-2.27-6.82l2.27-.91c.91,2.28,1.36,4.55,2.27,6.82ZM12.73,240.49,10.46,240l.45-6.82,2.28.46Zm470.63-4.09c-.91-2.27-1.36-4.09-2.27-6.36l2.27-.91a39.53,39.53,0,0,1,2.27,6.82ZM13.64,232.31l-2.27-.45c.45-2.28.45-4.55.91-6.82l2.27.45C14.1,227.77,14.1,230,13.64,232.31Zm467-3.64c-.91-1.81-1.36-4.09-2.27-6.36l2.27-.91c.91,2.27,1.82,4.55,2.73,6.37ZM14.55,224.58l-2.27-.45c.45-2.27.45-4.55.91-6.82l2.27.45C15,220,15,222.31,14.55,224.58ZM477.9,221c-.9-2.28-1.81-4.1-2.72-6.37l2.27-.91c.91,2.28,1.82,4.09,2.73,6.37ZM15.46,216.4,13.19,216c.45-2.28.45-4.55.91-6.82l2.27.45C15.91,211.85,15.91,214.13,15.46,216.4Zm459.26-2.73-.45-.45c-.91-1.82-1.37-4.09-2.28-5.91l2.28-.91c.91,1.82,1.36,4.09,2.27,5.91l.46.45ZM16.37,208.22l-2.27-.46c.45-2.27.45-4.54.91-6.82l2.27.46A35.56,35.56,0,0,1,16.37,208.22ZM472,205.94c-.91-2.27-1.82-4.54-2.73-6.36l2.28-.91c.91,1.82,1.36,4.09,2.73,6.36ZM17.73,200.49,15.46,200a35.36,35.36,0,0,0,.91-6.82l2.27.46A27.73,27.73,0,0,0,17.73,200.49Zm451.08-1.82a54.38,54.38,0,0,1-2.27-6.36l2.27-.91c.91,2.27,1.36,4.09,2.27,6.36ZM18.64,192.31l-2.27-.46c.45-2.27.91-4.55,1.36-6.82l2.28.46C19.55,187.76,19.1,190,18.64,192.31Zm447.44-1.37c-.91-2.27-1.36-4.54-2.27-6.82l2.27-.91a36.08,36.08,0,0,0,2.28,6.37ZM20,184.12l-2.28-.45c.46-2.28.91-4.55,1.37-6.82l2.27.45C20.92,179.58,20.46,181.85,20,184.12Zm443.34-.91a38.05,38.05,0,0,1-1.82-6.82l2.28-.45a37.66,37.66,0,0,0,1.82,6.82ZM21.83,176.39l-2.28-.45c.46-2.27.91-4.55,1.37-6.82l2.27.45C22.74,171.85,22.28,174.12,21.83,176.39ZM461.53,175l-1.36-6.82,2.27-.45c.46,2.27.91,4.54,1.37,6.81ZM23.65,168.67l-2.28-.46c.46-2.27,1.37-4.55,1.82-6.82l2.27.46A37.19,37.19,0,0,0,23.65,168.67Zm436.07-1.37c-.46-2.27-.46-4.55-.91-6.82h2.27a34.69,34.69,0,0,0,.91,6.82ZM25.46,160.48,23.19,160c.46-2.28,1.36-4.55,1.82-6.82l2.27.91A33.06,33.06,0,0,1,25.46,160.48Zm433.35-1.36v-7.28h2.27v6.82ZM27.74,152.75l-2.28-.91c.91-2.27,1.37-4.54,2.28-6.82l2.27.91A23.8,23.8,0,0,1,27.74,152.75Zm431.07-1.82a34.07,34.07,0,0,0-.46-6.82l2.28-.45a37.1,37.1,0,0,1,.45,7.27ZM30.47,145.48l-2.28-.91c.91-2.27,1.82-4.55,2.73-6.36l2.27.9C32.28,140.93,31.38,143.21,30.47,145.48Zm427.88-2.73c-.45-2.27-.91-4.54-1.36-6.82l2.27-.45c.46,2.27,1.37,4.54,1.37,6.82Zm-424.7-5-2.27-.91c.9-2.27,1.81-4.09,2.72-6.36l2.28.91C35.47,133.66,34.56,135.48,33.65,137.75ZM456.53,135a35.16,35.16,0,0,0-2.27-6.36l2.27-.91,2.73,6.82Zm-419.7-4.54-2.27-.91c.91-2.28,2.27-4.09,3.18-6.37L40,124.57A36.75,36.75,0,0,1,36.83,130.48Zm416.52-2.73c-.91-1.82-2.27-4.09-3.18-5.91l1.82-1.37c1.36,1.82,2.27,4.1,3.63,6.37ZM40.92,123.66l-2.27-1.37c1.36-1.82,2.27-4.09,3.64-5.91l1.82,1.37C43.2,119.57,41.83,121.38,40.92,123.66Zm408.79-2.73-4.09-5.46,1.82-1.36a67.19,67.19,0,0,1,4.09,5.91ZM45,116.84l-1.82-1.37c1.36-1.81,2.73-4.09,4.09-5.91l1.82,1.37A65.1,65.1,0,0,0,45,116.84Zm399.69-2.27c-1.36-1.82-3.18-3.19-4.55-5l1.82-1.81c1.82,1.81,3.19,3.63,4.55,5ZM49.56,110l-1.82-1.37A12.23,12.23,0,0,1,50.93,105a6.35,6.35,0,0,0,1.36-1.82l1.82,1.36a6.35,6.35,0,0,0-1.36,1.82A12.15,12.15,0,0,1,49.56,110Zm390.15-1.37a50.25,50.25,0,0,0-5-4.54l1.36-1.82a48.05,48.05,0,0,1,5,4.55Zm-5.91-5.45-5.46-4.09,1.36-1.82a47.67,47.67,0,0,1,5.46,4.55ZM55,104.11l-1.82-1.82a49.19,49.19,0,0,1,4.55-5l1.82,1.82A48.05,48.05,0,0,0,55,104.11ZM427.43,98.2,422,94.11l1.37-1.82c1.82,1.36,4.09,2.73,5.91,4.09Zm-366.95,0-1.82-1.82c1.36-1.82,3.18-3.18,5-5l1.82,1.82A25.74,25.74,0,0,0,60.48,98.2Zm360.13-4.55c-1.82-1.36-3.64-2.27-5.91-3.64l1.36-2.27A41.6,41.6,0,0,0,422,91.38ZM65.93,92.29l-1.82-1.82,5-5,1.82,1.82A26.36,26.36,0,0,1,65.93,92.29Zm347.86-3.18c-1.82-1.37-4.09-2.28-5.91-3.64l1.36-2.27a66.53,66.53,0,0,1,5.91,3.63Zm-342-2.28L70,85a51.39,51.39,0,0,0,5-4.54l1.36,1.82C75.48,83.65,73.66,85,71.84,86.83ZM407,85c-1.82-.9-4.09-2.27-5.91-3.18l.91-2.27c2.27.91,4.09,2.27,5.91,3.18Zm-7.28-3.63c-1.82-.91-4.09-2.28-6.36-3.18l.91-2.28c2.27.91,4.09,2.28,6.36,3.18Zm-321.48,0-1.36-1.82c1.82-1.36,3.63-3.18,5.45-4.55l1.37,1.82A28.54,28.54,0,0,0,78.21,81.38Zm314.21-3.64c-2.28-.91-4.09-2.27-6.37-3.18l.91-2.27c2.28.9,4.09,2.27,6.37,3.18ZM84.12,76.38l-1.36-1.82,5.45-4.09,1.37,1.82C87.76,73.19,85.94,75,84.12,76.38Zm301-2.28a41,41,0,0,1-6.36-3.18l.91-2.27a41.93,41.93,0,0,1,6.36,3.18ZM90.49,71.38l-1.37-1.82,5.46-4.09,1.36,1.81Zm287.38-.91a41.19,41.19,0,0,1-6.37-3.19l.91-2.27a42.49,42.49,0,0,1,6.37,3.18Zm-7.28-3.64a41.93,41.93,0,0,1-6.36-3.18l.91-2.28a41.1,41.1,0,0,1,6.36,3.19ZM97.31,66.37l-1.37-1.81a66,66,0,0,1,5.92-4.1l1.36,1.82A69.41,69.41,0,0,0,97.31,66.37Zm266-2.72A40.75,40.75,0,0,1,357,60.46l.91-2.27a42.49,42.49,0,0,1,6.37,3.18ZM103.67,61.83,102.31,60a42,42,0,0,1,5.91-3.64l1.37,1.82C107.77,59.56,105.49,60.46,103.67,61.83ZM356,60c-2.27-.91-4.09-2.27-6.36-3.18l.9-2.28c1.82.91,4.1,1.82,6.37,3.19ZM110.5,57.74l-1.37-1.82c1.82-1.37,4.09-2.27,5.91-3.64l1.37,2.27A18.77,18.77,0,0,0,110.5,57.74Zm238.27-1.37a52.5,52.5,0,0,1-5-2.72c-.45,0-.91-.46-1.36-.46l.91-2.27c.45,0,.91.45,1.36.45a50.3,50.3,0,0,0,5,2.73ZM117.32,53.19l-.91-1.82c1.82-1.36,4.09-2.27,5.91-3.63L123.68,50C121.41,50.92,119.59,52.28,117.32,53.19Zm224.17-.45c-1.82-.91-4.09-1.82-6.37-2.73l.91-2.27c2.28.9,4.55,1.81,6.37,2.72Zm-7.28-3.64a35.16,35.16,0,0,0-6.36-2.27l.91-2.28c2.27.91,4.54,1.37,6.82,2.28Zm-209.62.45-1.36-2.27c2.27-.91,4.09-2.27,6.36-3.18l.91,2.27A37.94,37.94,0,0,0,124.59,49.55Zm201.89-2.72c-2.27-.46-4.09-1.37-6.82-1.82l.46-2.28c2.27.46,4.55,1.37,6.82,1.82ZM131.87,45.46,131,43.19c2.27-.91,4.09-2.27,6.36-3.18l.91,2.27C136,43.64,133.69,44.55,131.87,45.46Zm186.88-.91a37.66,37.66,0,0,1-6.82-1.82l.46-2.27a38.27,38.27,0,0,1,6.82,1.82ZM311,42.28l-6.82-1.36.46-2.28L311.48,40Zm-171.88,0L138.23,40c2.28-.91,4.1-1.82,6.37-2.73l.91,2.27A16.06,16.06,0,0,0,139.14,42.28Zm164.15-1.36c-2.27-.46-4.09-.91-6.82-1.37l.46-2.27c2.73.45,4.55.91,6.82,1.36Zm-8.18-1.82-6.82-1.37.45-2.27,6.82,1.36Zm-148.69-.46-.91-2.27c2.27-.91,4.55-1.82,6.36-2.73l.91,2.28A38.61,38.61,0,0,1,146.42,38.64Zm140.5-.91h-.45a31,31,0,0,0-6.37-.91l.46-2.27a30.3,30.3,0,0,0,6.36.91h.46Zm-7.73-1.36L272.37,35l.46-2.28,6.82,1.37Zm-125.5-.45-.91-2.28a54.48,54.48,0,0,1,6.37-2.27l.91,2.27A56.61,56.61,0,0,0,153.69,35.92ZM271,35l-6.82-1.37.45-2.27,6.82,1.36Zm-7.73-1.82-6.82-1.37.45-2.27,6.82,1.36Zm-101.86,0-.91-2.28c2.28-.9,4.55-1.36,6.83-2.27l.9,2.27C166,31.82,163.7,32.28,161.42,33.19Zm93.67-1.82c-2.27-.46-4.54-1.36-6.82-1.82l.46-2.27c2.27.45,4.55,1.36,6.82,1.82Zm-85.94-.46-.45-2.27c2.27-.45,4.55-1.36,6.82-1.82L176,29.1A38.46,38.46,0,0,0,169.15,30.91Zm78.21-1.81c-.45,0-.91-.46-1.36-.46l-5.46-1.36L241,25l5.45,1.37c.46,0,.91.45,1.37.45Zm-70.48-.46-.45-2.27L183.25,25l.45,2.28Zm62.75-1.36-6.82-1.37.46-2.27L240.09,25Zm-54.56-.46-.46-2.27,6.82-1.36.46,2.27Zm46.83-1.36c-2.27-.46-4.54-.46-6.82-.91l.46-2.27c2.27.45,4.54.45,6.82.91Zm-39.1,0-.46-2.27c2.28-.46,4.55-.46,6.82-.91l.46,2.27A35.46,35.46,0,0,1,192.8,25.46Zm8.18-.91V22.28c2.28,0,4.55-.46,6.82-.46V24.1C205.53,24.1,203.26,24.55,201,24.55Zm22.74,0c-2.27,0-4.55-.45-6.82-.45V21.82a34,34,0,0,1,6.82.46Zm-15-.45V21.82h6.82V24.1Z" transform="translate(0 1.36)"/><path class="cls-1" d="M284.65,516h-1.82v-2.27h5.91V516Zm-4.09,0h-5.91v-2.27h5.91ZM291,516v-2.27a26.18,26.18,0,0,0,5.91-.45v2.27A24.28,24.28,0,0,1,291,516Zm-18.65,0c-1.81,0-4.09-.45-5.91-.45v-2.27c1.82,0,4.1.45,5.91.45Zm26.83-.45v-2.27c1.82,0,3.64-.46,5.91-.46l.46,2.28C303.29,515.09,301,515.54,299.2,515.54Zm-35-.45c-1.82,0-3.64-.46-5.91-.46l.45-2.27c1.82,0,4.1.45,5.91.45Zm43.2-.46-.46-2.27c1.82-.46,3.64-.46,5.46-.91l.45,2.27C311.48,514.18,309.21,514.18,307.39,514.63ZM256,514.18c-1.81-.46-3.63-.46-5.91-.91l.46-2.28c1.82.46,3.64.46,5.91.91Zm59.57-.91-.45-2.28,5.45-1.36.46,2.27Zm-67.3,0c-1.82-.46-3.63-.46-5.91-.91l.46-2.28c1.82.46,3.63.46,5.91.91Zm-8.18-1.37a23.27,23.27,0,0,0-5.91-.91l.45-2.27a22.59,22.59,0,0,0,5.46.91Zm83.21-.45-.45-2.27a25.85,25.85,0,0,0,5.45-1.82l.91,2.27C327.39,510.08,325.12,511,323.3,511.45Zm-91.4-1.37c-1.81-.45-3.63-.9-5.91-1.36l.46-2.27,5.45,1.36Zm99.59-.9-.91-2.28c1.82-.45,3.63-1.36,5.45-1.82l.91,2.28A25.3,25.3,0,0,0,331.49,509.18Zm-107.32-.46-5.45-1.36.45-2.28,5.46,1.37ZM216,506.9l-5.46-1.36.46-2.27,5.45,1.36ZM338.76,506l-.91-2.27c1.82-.91,3.64-1.36,5-2.27l.91,2.27A45.5,45.5,0,0,0,338.76,506Zm-130.5-1.36-5.46-1.36.46-2.28,5.45,1.37Zm138.23-2.27-.91-1.82c1.82-.91,3.19-1.82,5-2.73l1.37,1.82A30.64,30.64,0,0,0,346.49,502.36Zm-146,0L195.07,501l.46-2.27,5.45,1.36Zm-7.73-1.82-5.46-1.37.46-2.27,5.45,1.36Zm160.51-2.28L352,496.45a39.79,39.79,0,0,0,4.55-3.19l1.36,1.82C356.5,496,355.13,496.9,353.31,498.26Zm-168.7,0-5.45-1.36.45-2.27,5.46,1.36ZM176.88,496a47.11,47.11,0,0,1-5.45-1.36l.45-2.28,5.46,1.37Zm-7.73-1.82h-.91a16.28,16.28,0,0,0-4.54-.91l.45-2.27a16.06,16.06,0,0,0,4.55.91h.91Zm191-.91-1.36-1.81c1.36-1.37,3.18-2.28,4.55-3.64l1.36,1.82A31.57,31.57,0,0,1,360.13,493.26ZM161,491.9l-5.46-1.36.46-2.28,5.45,1.37Zm-7.73-2.27c-1.82-.46-3.64-1.37-5.46-1.82l.91-2.27c1.82.45,3.64,1.36,5.46,1.81Zm213.26-1.37-1.36-1.82,4.09-4.09,1.82,1.82A41.56,41.56,0,0,0,366.5,488.26Zm-221-.91c-1.82-.45-3.64-1.36-5.46-1.81l.91-2.28a25.37,25.37,0,0,0,5.46,1.82Zm-7.73-3.18c-1.82-.91-3.64-1.36-5.46-2.27l.91-2.28c1.82.91,3.64,1.37,5.46,2.28ZM372,482.35,370.14,481l4.09-4.09,1.82,1.82A28.44,28.44,0,0,0,372,482.35ZM130.5,481a27.43,27.43,0,0,0-5.45-2.27l.91-2.28a27.83,27.83,0,0,0,5.45,2.28Zm-7.27-3.18a49,49,0,0,1-5-2.73l.91-2.27a51.27,51.27,0,0,1,5,2.72Zm254.64-1.37-1.82-1.82,4.09-4.09,1.37,1.82A29.17,29.17,0,0,1,377.87,476.44ZM116,474.17a49,49,0,0,1-5-2.73l1.36-1.82c1.82.91,3.19,1.82,5,2.73ZM383.78,471l-1.37-1.82a18,18,0,0,1,4.55-3.64l1.37,1.82A38.32,38.32,0,0,0,383.78,471Zm-275.1-.91a30.44,30.44,0,0,1-5-3.18l1.36-1.82a30.87,30.87,0,0,1,5,3.18Zm281-4.09-1.36-1.82a38.17,38.17,0,0,1,4.54-3.64l1.37,1.82A31,31,0,0,0,389.69,466Zm-287.83-.46c-1.82-.91-3.19-2.27-5-3.18l1.37-1.82a47.34,47.34,0,0,0,5,3.18Zm294.2-5-1.37-1.82c1.37-1.36,3.18-2.27,4.55-3.63l1.36,1.81A31.47,31.47,0,0,1,396.06,460.53ZM95,461a31.67,31.67,0,0,1-4.55-3.64l1.36-1.82a28.32,28.32,0,0,0,4.55,3.18Zm307.38-5-1.36-1.81c1.36-1.37,3.18-2.28,4.54-3.64l1.37,1.82C405.6,453.26,404.24,454.62,402.42,456Zm-314.21.46c-1.36-1.36-3.18-2.27-4.54-3.64L85,451c1.37,1.37,3.18,2.28,4.55,3.64ZM408.79,451l-1.37-1.81,4.55-3.64,1.36,1.82ZM81.85,451a32.13,32.13,0,0,0-4.55-3.63l1.37-1.82a17.79,17.79,0,0,0,4.54,3.64Zm333.76-5-1.37-1.82c1.37-1.36,3.19-2.27,4.55-3.63l1.37,1.82A32.7,32.7,0,0,1,415.61,446ZM75.94,446l-4.1-4.09,1.82-1.82,4.1,4.09Zm346-5-1.36-1.82c1.36-1.36,3.18-2.27,4.55-3.63l1.36,1.82A31.57,31.57,0,0,1,422,441ZM70,440.07,65.93,436l1.82-1.36,4.09,4.09ZM428.34,436,427,434.16c1.36-1.36,3.18-2.27,4.54-3.63l1.37,1.81C431.52,433.71,429.7,434.62,428.34,436ZM64.11,434.16a17.75,17.75,0,0,1-3.63-4.54l1.82-1.37a40.21,40.21,0,0,1,3.63,4.55ZM434.71,431l-1.37-1.82a32,32,0,0,1,4.55-3.63l1.36,1.81A32.17,32.17,0,0,0,434.71,431Zm-375.6-2.73c-1.36-1.36-2.27-3.18-3.63-4.54l1.81-1.37a31.67,31.67,0,0,0,3.64,4.55Zm381.51-2.72-1.37-1.82,4.1-4.09,1.82,1.81A41.5,41.5,0,0,1,440.62,425.53Zm-386.51-4.1a18.79,18.79,0,0,1-3.18-5l1.82-1.36c.91,1.36,2.27,3.18,3.18,4.55ZM447,420.07l-1.81-1.82c1.36-1.36,2.72-2.73,4.09-4.09l1.82,1.36A40.59,40.59,0,0,1,447,420.07Zm5.46-5.91-1.82-1.36a17.79,17.79,0,0,0,3.64-4.55l1.82,1.36A31,31,0,0,1,452.44,414.16Zm-402.88.45c-.91-1.81-2.27-3.18-3.18-5l1.82-1.36c.91,1.82,1.82,3.18,2.73,5ZM457.9,407.8l-1.82-1.37c1.36-1.36,2.27-3.18,3.64-4.55l1.82,1.37A31,31,0,0,0,457.9,407.8ZM45,407.8a50.3,50.3,0,0,0-2.73-5l2.27-.91a50.3,50.3,0,0,0,2.73,5Zm417.42-6.37-1.81-1.36c.91-1.82,2.27-3.19,3.18-5l1.82,1.36C464.72,397.79,463.81,399.61,462.44,401.43Zm-421.06-.91c-.91-1.82-1.37-3.64-2.27-5.45l2.27-.91a27.43,27.43,0,0,0,2.27,5.45ZM466.08,396l-1.82-1.37c.91-1.82,1.82-3.18,2.73-5l2.28.91A33.61,33.61,0,0,0,466.08,396ZM38.65,392.79c-.45-1.82-1.36-3.63-1.82-5.45l2.28-.46a25.33,25.33,0,0,0,1.81,5.46Zm431.07-4.09-2.27-.91c.91-1.82,1.36-3.64,2.27-5.45l2.27.91C471.08,385.06,470.63,386.88,469.72,388.7Zm-433.8-3.64c-.45-1.81-.91-3.63-1.36-5.91l2.27-.45c.46,1.82.91,3.64,1.37,5.45Zm437-4.09-2.27-.91c.45-1.82,1.36-3.63,1.82-5.45l2.27.91C474.27,377.34,473.36,379.15,472.9,381ZM34.56,376.88c-.46-1.82-.46-4.09-.91-5.91h2.27a23.09,23.09,0,0,0,.91,5.46Zm441.07-3.64-2.27-.9a25.37,25.37,0,0,1,1.82-5.46l2.27.45A43.53,43.53,0,0,0,475.63,373.24Zm-442-4.54v-1.37a16.84,16.84,0,0,0-.46-4.54h2.28c0,1.36.45,3.18.45,4.54v1.37Zm444.25-3.18-2.27-.46c.46-1.82.91-3.64,1.37-5.45l2.27.45C478.81,361.88,478.36,363.7,477.9,365.52Zm-445.16-5a31.86,31.86,0,0,0-.91-5.91l2.27-.45c.46,1.82.46,4.09.91,5.91Zm447-3.18-2.27-.45c.45-1.82.91-3.64,1.36-5.46l2.28.46C480.63,353.7,480.18,356,479.72,357.33ZM31.83,352.79c-.45-1.82-.45-3.64-.91-5.46l2.27-.45a26.21,26.21,0,0,1,.91,5.91Zm449.71-3.19-2.27-.45a23.27,23.27,0,0,0,.91-5.91l2.27.45C482,346,482,347.78,481.54,349.6ZM30,344.6c-.45-1.82-.91-3.63-1.36-5.45l2.27-.46c.46,1.82.91,4.09,1.36,5.46Zm452.9-3.18-2.28-.45c.46-1.82.46-3.64.91-5.91l2.28.45C483.36,337.78,483.36,339.6,482.91,341.42ZM28.19,336.87c-.45-1.81-.91-3.63-1.36-5.45L29.1,331c.46,1.82.91,3.64,1.37,5.46Zm456.08-3.18-2.27-.45c.45-1.82.45-3.64.91-5.91l2.27.45C484.73,329.6,484.73,331.42,484.27,333.69Zm-457.9-4.54c-.45-1.82-.91-3.64-1.36-5.46l2.27-.45c.46,1.81.91,3.63,1.37,5.45Zm459.26-3.64-2.27-.46c.46-1.81.46-3.63.91-5.45l2.27.45A23.09,23.09,0,0,0,485.63,325.51ZM24.1,321.42,22.74,316l1.81-.91,1.37,5.46ZM487,317.33l-2.27-.46c.45-1.82.45-3.64.9-5.91l2.28.46A30.81,30.81,0,0,0,487,317.33ZM21.83,313.69c-.46-1.82-.91-3.64-1.37-5.46l2.28-.45c.45,1.82.91,3.64,1.36,5.45Zm466.53-4.09-2.27-.46a26.88,26.88,0,0,0,.91-5.91l2.27.46A23.2,23.2,0,0,0,488.36,309.6ZM19.55,305.51c-.45-1.82-.91-3.64-1.36-5.46l2.27-.45c.46,1.81.91,3.63,1.37,5.45Zm470.18-4.1-2.28-.45c.46-1.82.91-4.09,1.37-5.91l2.27.45C490.64,297.78,490.18,299.6,489.73,301.41Zm-472-3.63c-.45-1.82-.91-4.1-1.36-5.91l2.27-.46c.46,1.82.91,3.64,1.37,5.46Zm473.36-4.1-2.27-.45c.45-1.82.91-4.09,1.36-5.45l2.28.45C492.46,290.05,491.55,291.87,491.09,293.68ZM15.92,289.59c-.46-1.81-.46-3.63-.91-5.45l2.27-.46c.45,1.82.45,3.64.91,5.46ZM493.36,286l-2.27-.46,1.37-5.45,2.27.45C494.27,281.87,493.82,284.14,493.36,286ZM14.55,281.87A26.27,26.27,0,0,1,14.1,276h2.27c0,1.82.45,3.64.45,5.92Zm480.18-4.1-2.27-.45a22.39,22.39,0,0,0,.45-5.46h2.27A26.18,26.18,0,0,1,494.73,277.77ZM14.1,273.68a25.63,25.63,0,0,0-.46-5.91h2.28a28.22,28.22,0,0,0,.45,5.91Zm481.54-4.09h-2.28v-5.45h2.28v5.45ZM15.92,265.5H13.64a25.63,25.63,0,0,1,.46-5.91h2.27A24.28,24.28,0,0,0,15.92,265.5Zm477-4.09A22.59,22.59,0,0,0,492,256l2.27-.45c.46,1.82.46,4.09.91,5.91ZM16.37,257.32l-2.27-.46A26.3,26.3,0,0,1,15,251l2.27.46C16.82,253.68,16.82,255.5,16.37,257.32ZM492,253.68a23.09,23.09,0,0,1-.91-5.46l2.27-.45c.46,1.82.91,4.09,1.37,5.91ZM17.73,249.59l-2.27-.46a11.68,11.68,0,0,1,.91-3.18c0-.91.45-1.82.45-2.73l2.28.46c0,.91-.46,1.82-.46,2.72A8.55,8.55,0,0,0,17.73,249.59Zm472.45-4.09c-.45-1.82-.91-3.64-1.36-5.46l2.27-.45c.46,1.81.91,3.63,1.37,5.45ZM19.55,241.4,17.28,241c.45-1.82.91-3.64,1.36-5.46l2.28.46C20.46,237.77,20,239.59,19.55,241.4Zm468.36-3.63a25.93,25.93,0,0,0-1.82-5.46l2.27-.91c.46,1.82,1.37,3.64,1.82,5.46ZM21.37,233.68l-2.27-.46c.45-1.82.91-3.64,1.36-5.45l2.28.45C21.83,230,21.83,231.86,21.37,233.68ZM485.63,230c-.45-1.82-1.36-3.64-1.81-5.46l2.27-.91a25.93,25.93,0,0,1,1.82,5.46ZM22.74,225.49,20.46,225a22.83,22.83,0,0,0,.91-5.91l2.28.45A23.2,23.2,0,0,1,22.74,225.49Zm460.17-3.18c-.46-1.82-1.37-3.64-1.82-5.46l2.27-.91c.46,1.82,1.37,3.64,1.82,5.46ZM24.1,217.76l-2.27-.45c.45-1.82.45-3.64.91-5.91l2.27.45A26.88,26.88,0,0,1,24.1,217.76ZM480.18,215c-.46-1.37-1.37-3.19-1.82-4.55l-.46-.91,2.28-.91.45.91c.46,1.36,1.37,3.18,1.82,4.55ZM25.92,209.58l-2.27-.45.9-5.91,2.28.45Zm451.53-2.27c-.45-1.82-1.36-3.64-1.82-5.46l2.27-.91c.46,1.82,1.37,3.64,1.82,5.46ZM27.28,201.85,25,201.4c.45-1.82.45-3.64.91-5.91l2.27.45A23.27,23.27,0,0,0,27.28,201.85Zm447.44-2.27c-.45-1.82-1.36-3.64-1.82-5.46l2.28-.91c.45,1.82,1.36,3.64,1.82,5.46ZM28.65,193.67l-2.28-.46c.46-1.81.46-3.63.91-5.91l2.28.46A30.81,30.81,0,0,0,28.65,193.67ZM472,191.85c-.45-1.82-1.36-3.64-1.82-5.45l2.28-.91c.45,1.81,1.36,3.63,1.82,5.45ZM30,185.49,27.74,185a23.27,23.27,0,0,0,.91-5.91l2.27.46C30.47,181.85,30.47,183.67,30,185.49Zm439.26-1.37c-.46-1.82-1.37-3.64-1.82-5.45l2.27-.46a25.37,25.37,0,0,0,1.82,5.46ZM31.38,177.76l-2.28-.46c.46-1.82.91-3.63,1.37-5.91l2.27.46C32.28,174.12,31.83,175.94,31.38,177.76ZM467,176.39c-.45-1.82-.91-3.63-1.36-5.91l2.27-.45c.46,1.82.91,3.64,1.37,5.45Zm-433.8-6.82-2.27-.45q.69-2.73,1.36-5.46l2.28.46C34.1,165.94,33.65,167.76,33.19,169.57Zm432-.91a26.79,26.79,0,0,1-.91-5.91l2.28-.45c.45,1.82.45,3.64.91,5.46ZM35,161.84l-2.27-.45c.45-1.82.91-3.64,1.36-5.45l2.28.45C35.92,158.21,35.47,160,35,161.84Zm428.8-1.36a25.63,25.63,0,0,1-.46-5.91h2.28c0,1.82.45,3.64.45,5.91ZM37.29,154.12,35,153.66a25.85,25.85,0,0,1,1.82-5.45l2.28.91A16.09,16.09,0,0,0,37.29,154.12Zm426.06-1.82c0-1.82-.45-3.64-.45-5.46l2.27-.45a25.63,25.63,0,0,1,.46,5.91ZM39.56,146.39l-2.27-.91c.45-1.82,1.36-3.64,1.82-5.46l2.27.91A25.37,25.37,0,0,0,39.56,146.39ZM462,144.11c-.45-1.81-.91-3.63-1.36-5.45l2.27-.91c.45,1.82.91,3.64,1.36,5.91Zm-419.7-5.45L40,137.75c.91-1.82,1.37-3.64,2.28-5.45l2.27.9A27.51,27.51,0,0,0,42.29,138.66Zm417.88-1.82a16.6,16.6,0,0,0-2.27-5l2.27-.91a27.51,27.51,0,0,1,2.27,5.46ZM45,131.39l-2.28-.91A28.17,28.17,0,0,0,45,125l2.27.91A27.51,27.51,0,0,1,45,131.39Zm411.51-1.82a30.44,30.44,0,0,0-3.18-5l1.82-1.37c.91,1.82,2.27,3.18,3.18,5ZM48.65,124.11l-2.27-.91a50.07,50.07,0,0,1,2.73-5l1.82,1.37C50.47,120.47,49.56,122.29,48.65,124.11Zm403.79-1.36a31.53,31.53,0,0,0-3.64-4.55l1.82-1.36a31.47,31.47,0,0,1,3.64,4.54Zm-5-5.91-4.09-4.09,1.82-1.82,4.09,4.09Zm-394.69,0-1.82-1.37c.91-1.81,2.27-3.18,3.18-5l1.82,1.37C54.57,113.66,53.66,115.47,52.75,116.84Zm388.78-5.91a17.79,17.79,0,0,0-4.55-3.64l1.36-1.82a32.08,32.08,0,0,0,4.55,3.64Zm-384.69-.46L55,109.11a31.53,31.53,0,0,1,3.64-4.55l1.82,1.37A38.17,38.17,0,0,0,56.84,110.47Zm378.78-4.54c-1.37-1.37-3.19-2.28-4.55-3.64l1.36-1.82a39.35,39.35,0,0,1,4.55,3.64ZM61.84,104.11,60,102.74l1.37-1.36,2.72-2.73L65.93,100l-2.72,2.72Zm367-3.18c-1.36-.91-3.18-2.28-4.54-3.19l1.36-1.81c1.82.9,3.18,2.27,5,3.18ZM67.3,97.74l-1.82-1.36,4.09-4.09,1.82,1.82A29.63,29.63,0,0,0,67.3,97.74Zm355.13-1.36c-1.37-.91-3.18-1.82-5-3.18l1.36-1.82c1.82.91,3.18,2.27,5,3.18Zm-6.82-4.09a50.07,50.07,0,0,0-5-2.73L412,87.74a18.79,18.79,0,0,1,5,3.18Zm-342.86,0-1.81-1.82c1.36-1.36,2.72-2.73,4.09-4.09l1.82,1.82ZM408.33,88.2c-1.82-.91-3.18-1.82-5-2.73l1.37-1.82c1.81.91,3.18,1.82,5,2.73ZM78.67,86.38,77.3,84.56c1.37-1.36,2.73-2.73,4.09-4.09l1.37,1.82A36.67,36.67,0,0,1,78.67,86.38ZM401.51,84.1c-1.82-.9-3.18-1.81-5-2.72l.91-1.82c1.82.91,3.18,1.82,5,2.73ZM84.58,80.92,83.21,79.1a18,18,0,0,1,4.55-3.63l1.36,1.82A32.07,32.07,0,0,1,84.58,80.92ZM394.24,80l-5-2.72.9-1.82,5,2.72Zm-6.82-3.63c-1.82-.91-3.19-1.82-5-2.73l1.37-1.82c1.82.91,3.18,1.82,5,2.73ZM90.94,75.92,89.12,74.1c1.37-1.36,3.19-2.27,4.55-3.63L95,72.28A29.79,29.79,0,0,0,90.94,75.92Zm289.2-3.64c-1.82-.9-3.18-1.81-5-2.72l1.36-1.82c1.82.91,3.19,1.82,5,2.73ZM96.85,70.92,95.49,69.1c1.36-1.36,3.18-2.27,4.55-3.63l1.36,1.81C100,68.19,98.67,69.56,96.85,70.92Zm276-2.73c-1.82-.91-3.19-2.27-5-3.18l1.37-1.82c1.36.91,3.18,1.82,5,3.18ZM103.68,65.92l-1.37-1.82a27.46,27.46,0,0,1,4.55-3.18l1.36,1.82A16.31,16.31,0,0,0,103.68,65.92Zm262.37-2.27c-1.82-.91-3.19-2.28-5-3.19l1.37-1.81a47.34,47.34,0,0,0,5,3.18ZM110,61.37l-1.36-1.81c1.82-.91,3.18-2.28,5-3.19L115,58.19A30.87,30.87,0,0,0,110,61.37ZM359.22,59.1a47.34,47.34,0,0,0-5-3.18l1.37-1.82c1.82.91,3.18,2.27,5,3.18ZM116.86,56.83l-1.36-2.28c1.82-.9,3.18-2.27,5-3.18l1.36,1.82C120,54.55,118.23,55.46,116.86,56.83Zm236-1.82c-1.82-.91-3.18-1.82-5-2.73l.91-2.27a51.21,51.21,0,0,1,5,2.73ZM123.68,52.28l-1.36-1.82a30.87,30.87,0,0,0,5-3.18l1.36,1.82A30.44,30.44,0,0,1,123.68,52.28Zm221.9-1.36a45.78,45.78,0,0,0-5-2.28l.91-2.27A27.51,27.51,0,0,0,347,48.64ZM130.5,48.19l-1.36-1.82a49,49,0,0,0,5-2.73l.91,1.82A19.89,19.89,0,0,1,130.5,48.19Zm207.81-.45c-1.82-.91-3.64-1.37-5.46-2.28l.91-2.27c1.82.91,3.64,1.36,5.46,2.27ZM330.58,45c-1.82-.46-3.64-1.37-5.46-1.82l.91-2.27c1.82.45,3.64,1.36,5.46,1.81Zm-192.8-.46-.91-2.27a49,49,0,0,0,5-2.73l.91,2.28C141,42.73,139.6,43.64,137.78,44.55ZM323.3,42.28c-1.82-.45-3.64-1.36-5.46-1.82l.46-2.27c1.82.45,3.64,1.36,5.46,1.82ZM145.05,40.92l-.91-2.28a27.51,27.51,0,0,1,5.46-2.27l.91,2.27A28.17,28.17,0,0,0,145.05,40.92Zm170.52-1.37-5.46-1.36.46-2.27L316,37.28Zm-8.18-1.82-5.46-1.36.45-2.27,5.46,1.36Zm-155.06-.45L151.42,35c1.82-.91,3.64-1.37,5.46-2.28l.91,2.28A28.11,28.11,0,0,1,152.33,37.28Zm147.33-1.82L294.2,34.1l.45-2.28,5.46,1.37ZM159.6,34.1l-.9-2.28c1.81-.91,3.63-1.36,5.45-2.27l.91,2.27A28.17,28.17,0,0,1,159.6,34.1Zm132.33-.46-5.46-1.36.45-2.27,5.46,1.36Zm-8.19-1.82-5.45-1.36.45-2.27,5.46,1.36Zm-116.4-.45-.91-2.27c1.81-.46,3.63-1.37,5.45-1.82l.91,2.27C171,30,169.15,30.91,167.34,31.37ZM276,30.46l-5.45-1.36V27.73l.45-.91-.45.91.45-.91,5.46,1.37ZM175.07,29.1l-.91-2.28A25.48,25.48,0,0,0,179.61,25l.46,2.28A33.33,33.33,0,0,0,175.07,29.1Zm93.21-.46-5.45-1.36.45-2.28,5.46,1.37Zm-8.18-1.82-5.46-1.36.45-2.27,5.46,1.36Zm-77.3,0-.46-2.27,5.46-1.36.45,2.27Zm69.57-1.36a16.06,16.06,0,0,0-4.55-.91c-.46,0-.91,0-.91-.45l.45-2.28c.46,0,.91,0,.91.46a16.42,16.42,0,0,0,4.55.91ZM190.53,25l-.46-2.27a23.27,23.27,0,0,1,5.91-.91l.46,2.28A26.77,26.77,0,0,0,190.53,25Zm53.65-1.36a23.09,23.09,0,0,0-5.46-.91l.46-2.27c1.82.45,4.09.45,5.91.91Zm-45.47-.45-.45-2.28c1.81-.45,4.09-.45,5.91-.91l.45,2.28A31.62,31.62,0,0,1,198.71,23.19Zm37.74-.91a23.76,23.76,0,0,0-5.91-.46V19.55c1.82,0,4.09.45,5.91.45Zm-30,0L206,20c1.81,0,4.09-.45,5.91-.45v2.27A23.77,23.77,0,0,0,206.44,22.28Zm21.83-.91h-5.91V19.09h5.91Zm-13.64,0V19.09h5.91v2.28Z" transform="translate(0 1.36)"/><path class="cls-1" d="M291.93,510.54h-1.82v-2.27h4.54v2.27Zm-5.46,0h-4.55v-2.27h4.55Zm11.82,0v-2.27a15.28,15.28,0,0,0,4.55-.46v2.27A16.87,16.87,0,0,1,298.29,510.54Zm-20-.46c-1.37,0-3.19-.45-4.55-.45v-2.27c1.36,0,3.18.45,4.55.45Zm28.19,0v-2.27c1.36,0,3.18-.45,4.54-.45l.46,2.27A15.7,15.7,0,0,0,306.48,510.08Zm-36.38-.45c-1.36,0-3.18-.45-4.55-.45l.46-2.28c1.36,0,3.18.46,4.55.46Zm44.11-.91-.46-2.27c1.37-.46,3.19-.46,4.55-.91l.45,2.27A13.26,13.26,0,0,1,314.21,508.72Zm-52.29-.45a16.27,16.27,0,0,1-4.55-.91l.45-2.28c1.37.46,3.19.46,4.55.91Zm60.47-.91-.45-2.28c1.36-.45,3.18-.9,4.54-1.36l.46,2.27C325.57,506.45,323.76,506.9,322.39,507.36Zm-68.2,0c-1.37-.46-3.19-.46-4.55-.91l.45-2.27c1.37.45,3.19.45,4.55.9ZM246,505.54c-1.36-.46-3.18-.46-4.55-.91l.46-2.27c1.36.45,3.18.45,4.54.91Zm84.12-.46-.45-2.27c1.36-.45,2.73-.91,4.54-1.36l.91,2.27C333.3,504.18,331.94,504.63,330.12,505.08Zm-92.31-.9c-1.36-.46-3.18-.46-4.54-.91l.45-2.28c1.37.46,3.19.46,4.55.91Zm100-1.82-.91-2.28c1.37-.45,2.73-1.36,4.1-1.82l.9,1.82C341,501,339.67,501.45,337.85,502.36Zm-107.77,0a15.93,15.93,0,0,0-4.54-.91l.45-2.28a16.06,16.06,0,0,0,4.55.91Zm-7.73-1.82a15.93,15.93,0,0,0-4.54-.91l.45-2.27a16.39,16.39,0,0,0,4.55.9Zm123.23-1.82-.91-1.82c1.37-.91,2.73-1.36,4.1-2.27l.91,1.82A18.65,18.65,0,0,1,345.58,498.72Zm-131.41-.46-4.55-1.36.46-2.27,4.54,1.36Zm-7.73-1.81c-1.36-.46-3.18-.91-4.55-1.37l.46-2.27c1.36.45,3.18.91,4.54,1.36Zm146-1.82L351,492.81a25.52,25.52,0,0,0,3.64-2.73L356,491.9A25,25,0,0,1,352.4,494.63Zm-153.69-.46a16.27,16.27,0,0,0-4.55-.91l.46-2.27a15.93,15.93,0,0,0,4.54.91Zm-8.18-1.82a20.27,20.27,0,0,0-4.55-.9l.45-2.28c1.37.46,2.73.46,4.55.91ZM182.8,491c-.91,0-1.82-.45-2.73-.45a3.4,3.4,0,0,1-1.82-.46l.45-2.27h1.82c.91,0,1.82.45,3.18.45Zm176.42-1.36-1.36-1.82c1.36-.91,2.27-1.82,3.64-2.73l1.36,1.82C361.5,487.81,360.59,488.72,359.22,489.63Zm-184.61,0c-1.36-.46-3.18-.46-4.55-.91l.46-2.28c1.36.46,3.18.46,4.55.91Zm-7.73-1.82a15.92,15.92,0,0,0-4.55-.91l.46-2.27a16.27,16.27,0,0,0,4.55.91ZM158.7,486c-1.37-.45-3.19-.91-4.55-1.36l.91-2.28c1.36.46,2.73.91,4.54,1.37Zm206.89-1.36-1.36-1.82.45-.46c.91-.91,2.27-1.82,3.18-2.73l1.37,1.82A22.17,22.17,0,0,0,365.59,484.63ZM151,483.26a31,31,0,0,1-4.54-1.82l.91-2.27c1.36.45,2.73.91,4.54,1.36Zm-7.73-2.73c-1.36-.45-2.72-1.36-4.09-1.81l.91-1.82c1.37.45,2.73,1.36,4.09,1.82Zm228.27-1.36-1.36-1.82a23.44,23.44,0,0,0,3.64-3.18l1.36,1.82C373.78,477.35,372.41,478.26,371.5,479.17ZM136,477.35c-1.37-.45-2.73-1.36-4.09-1.82l.91-1.81a16.11,16.11,0,0,0,4.09,1.81Zm241.91-3.18-1.37-1.82c1.37-.91,2.28-1.82,3.64-2.73l1.37,1.82A25,25,0,0,0,377.87,474.17Zm-249.19-.45c-1.36-.91-2.72-1.37-4.09-2.28l.91-1.82c1.36.91,2.73,1.37,4.09,2.28Zm255.55-4.55-1.36-1.82a25.52,25.52,0,0,0,3.64-2.73l1.36,1.82A25,25,0,0,1,384.23,469.17Zm-262.82.45c-1.37-.91-2.73-1.36-4.09-2.27l1.36-1.82a18.65,18.65,0,0,0,4.09,2.28Zm-6.82-4.09-4.09-2.73,1.36-1.81a24.78,24.78,0,0,1,3.64,2.72Zm276.46-.91-1.36-1.82,4.09-2.72,1.37,1.81A15.92,15.92,0,0,0,391.05,464.62Zm6.82-4.54-1.36-1.82,4.09-2.73,1.37,1.82A15.92,15.92,0,0,0,397.87,460.08Zm-290.1.91a25,25,0,0,1-3.64-2.73l1.36-1.82c1.37.91,2.28,1.82,3.64,2.73Zm296.47-5.46-1.36-1.82L407,451l1.36,1.82ZM101,456c-1.37-.9-2.28-1.81-3.64-2.72l1.36-1.82c1.37.91,2.28,1.82,3.64,2.73Zm310.11-4.54-1.36-1.82,4.09-2.73,1.36,1.82ZM94.58,451a22.43,22.43,0,0,1-3.64-3.18L92.31,446a22.54,22.54,0,0,1,3.63,3.19Zm323.3-4.09-1.36-1.82a25.51,25.51,0,0,0,3.64-2.72l1.36,1.81A25,25,0,0,1,417.88,446.89ZM88.67,445.53c-1.37-.91-2.27-2.27-3.64-3.18l1.37-1.82c.9.91,2.27,2.27,3.18,3.18Zm336-3.18-1.36-1.82A25.52,25.52,0,0,0,427,437.8l1.36,1.82A25,25,0,0,1,424.7,442.35ZM82.76,440.07l-3.19-3.18,1.82-1.36,3.19,3.18Zm348.76-2.72-1.36-1.82a25.52,25.52,0,0,0,3.64-2.73l1.36,1.82C433.8,435.53,432.89,436.44,431.52,437.35ZM76.85,434.16a26.19,26.19,0,0,1-3.19-3.63l1.82-1.37,3.19,3.18Zm361-1.36L436.53,431c1.36-.91,2.27-1.82,3.63-2.73l1.37,1.82A15.09,15.09,0,0,0,437.89,432.8Zm6.37-5.46-1.37-1.81c1.37-.91,2.28-2.28,3.64-3.19l1.36,1.82A22.45,22.45,0,0,1,444.26,427.34Zm-372.87.46a23,23,0,0,0-3.18-3.64L70,422.8a22.45,22.45,0,0,0,3.18,3.63Zm378.78-5.91-1.37-1.82,3.19-3.18,1.81,1.36C452.44,419.62,451.53,421,450.17,421.89Zm-383.78,0c-.91-1.37-1.82-2.27-2.73-3.64l1.82-1.36c.91,1.36,1.82,2.27,2.73,3.63ZM456.08,416l-1.82-1.37a23,23,0,0,1,3.18-3.63l1.82,1.36A23,23,0,0,0,456.08,416Zm-394.69-.91a25.52,25.52,0,0,0-2.73-3.64l1.82-1.36a25.52,25.52,0,0,0,2.73,3.64Zm399.69-5.46-1.82-1.36c.91-1.36,1.82-2.27,2.73-3.64a3.45,3.45,0,0,0,.91-1.82l1.82,1.37c-.46.45-.91,1.36-1.37,1.82A39.89,39.89,0,0,1,461.08,409.61ZM56.84,408.25a18.19,18.19,0,0,1-2.27-4.09l1.81-1.37a18.7,18.7,0,0,1,2.28,4.1ZM466.54,401l-1.82-.91c.91-1.37,1.36-2.73,2.27-4.09l1.82.9A18.24,18.24,0,0,1,466.54,401Zm-414.25.45c-.91-1.36-1.36-2.73-2.27-4.09l1.82-.91c.91,1.36,1.36,2.73,2.27,4.09Zm417.88-7.73-2.27-.91c.46-1.36,1.36-2.72,1.82-4.09l2.27.91A27.91,27.91,0,0,1,470.17,393.7Zm-421.52.46a16.07,16.07,0,0,1-1.81-4.09l1.81-.91c.46,1.36,1.37,2.72,1.82,4.09ZM473.36,386l-2.28-.91c.46-1.36.91-2.72,1.37-4.54l2.27.45C474.27,382.79,473.81,384.61,473.36,386ZM45,386.88a45,45,0,0,1-1.82-4.54l2.27-.91a16.47,16.47,0,0,0,1.82,4.09Zm-2.73-7.73c-.46-1.36-.91-3.18-1.37-4.54l2.28-.46c.45,1.37.91,2.73,1.36,4.55Zm433.34-.91-2.27-.45c.45-1.36.91-2.73,1.36-4.55l2.27.46C476.54,375.06,476.09,376.43,475.63,378.24ZM40,371.43a16.39,16.39,0,0,1-.9-4.55l2.27-.46c.45,1.37.45,3.19.91,4.55Zm437.44-1.37-2.27-.45c.45-1.37.45-3.19.91-4.55l2.27.46A13.55,13.55,0,0,1,477.45,370.06ZM38.2,363.24c0-1.36-.46-2.73-.46-3.63v-.91l2.27-.46v.91c0,1.36.46,2.27.46,3.64Zm441.07-.91-2.28-.45c.46-1.37.46-3.18.91-4.55l2.28.46C479.72,359.15,479.72,360.51,479.27,362.33Zm1.36-8.18-2.27-.45c.45-1.37.45-3.19.91-4.55l2.27.45C481.09,351,481.09,352.79,480.63,354.15Zm-443.34.91c0-1.36-.46-3.18-.46-4.55l2.28-.45a15.58,15.58,0,0,1,.45,4.54Zm-1.37-7.73c-.45-1.36-.45-3.18-.91-4.55l2.28-.45c.45,1.36.45,3.18.91,4.55ZM482,346l-2.28-.46c.46-1.36.46-3.18.91-4.54l2.28.45C482.45,342.78,482.45,344.6,482,346ZM34.56,339.15c-.46-1.37-.46-3.18-.91-4.55l2.27-.45a15.93,15.93,0,0,1,.91,4.54Zm448.8-.91-2.27-.46c.45-1.36.45-3.18.91-4.54h1.82C483.82,335.06,483.36,336.42,483.36,338.24ZM32.74,331.42c-.46-1.37-.91-3.18-1.36-4.55l2.27-.45c.45,1.36.91,3.18,1.36,4.54Zm452-1.37-2.28-.45c.46-1.36.46-3.18.91-4.55l2.27.46A16.26,16.26,0,0,0,484.73,330.05ZM30.47,323.69c-.46-1.36-.91-3.18-1.37-4.55l2.28-.45c.45,1.36.9,3.18,1.36,4.55Zm455.62-1.82-2.27-.45c.45-1.37.45-3.18.91-4.55l2.27.46A19.63,19.63,0,0,0,486.09,321.87ZM28.65,315.51c-.46-1.37-.91-3.19-1.37-4.55l2.28-.45c.45,1.36.91,3.18,1.36,4.54Zm458.8-1.37-2.27-.45c.45-1.37.45-3.18.91-4.55l2.27.46C487.91,311,487.91,312.32,487.45,314.14ZM26.37,307.78c-.45-1.37-.91-3.18-1.36-4.55l2.27-.45c.46,1.36.91,3.18,1.37,4.54Zm462.9-1.37L487,306c.45-1.36.91-3.18,1.36-4.55l2.28.46C490.18,303.23,489.73,304.6,489.27,306.41ZM24.55,300.05a16.27,16.27,0,0,1-.91-4.55l2.28-.45a16.27,16.27,0,0,1,.91,4.55Zm467-1.36-2.28-.91a19.06,19.06,0,0,1,1.82-4.55l2.27.91A13.68,13.68,0,0,0,491.55,298.69Zm2.72-7.73-2.27-.91a16.15,16.15,0,0,1,1.82-4.09l2.27.91A16.11,16.11,0,0,1,494.27,291Zm-471.53.91c-.46-1.37-.46-3.19-.91-4.55l2.27-.45c.45,1.36.45,3.18.91,4.54ZM497,283.23l-2.27-.46a13.5,13.5,0,0,0,.91-4.54l2.27.45A15.92,15.92,0,0,1,497,283.23Zm-476.08.91c-.46-1.37-.46-3.18-.91-4.55l2.27-.45a16.28,16.28,0,0,0,.91,4.54Zm477.9-9.09-2.27-.46c0-1.36.45-3.18.45-4.55h2.28A20.21,20.21,0,0,0,498.82,275.05ZM19.55,276c0-1.36-.45-3.18-.45-4.54h2.27c0,1.36.46,3.18.46,4.54Zm479.73-9.09H497v-4.54h2.28v4.54Zm-480.18.91v-4.54h2.27v4.54Zm477.45-9.09c0-1.36-.46-3.18-.46-4.55l2.28-.45c0,1.36.45,3.18.45,4.54Zm-475.63.91H18.64V255h2.28ZM495.64,251c-.46-1.36-.46-3.18-.91-4.55L497,246c.46,1.36.46,3.18.91,4.55Zm-474.27.46H19.1c0-1.37.45-3.19.45-4.55l2.28.45A12.5,12.5,0,0,1,21.37,251.41Zm472.45-8.19a13.31,13.31,0,0,1-.91-4.54l2.27-.46a16,16,0,0,1,.91,4.55Zm-471.08.46-2.28-.46c.46-1.36.46-3.18.91-4.54l2.27.45A16.25,16.25,0,0,0,22.74,243.68ZM492,235c-.45-1.36-.91-2.73-1.36-4.55l2.27-.45c.45,1.36.91,3.18,1.36,4.54ZM24.55,236l-2.27-.46c.46-1.36.91-3.18,1.36-4.54l2.28.91C25.46,233.22,25,234.58,24.55,236Zm465.18-8.64c-.46-1.36-.91-2.73-1.37-4.55l2.28-.9c.45,1.36.91,2.72,1.36,4.54Zm-462.45.91L25,227.31c.45-1.36.91-2.73,1.36-4.55l2.73,1.37A16.31,16.31,0,0,0,27.28,228.22ZM487,219.58c-.46-1.36-.91-2.73-1.37-4.54l2.28-.91c.45,1.36.91,2.72,1.36,4.54Zm-457,.91L27.74,220c.45-1.37.91-2.73,1.36-4.55l2.28.45C30.92,217.76,30.47,219.13,30,220.49Zm454.26-8.18c-.45-1.37-.91-2.73-1.36-4.55l2.27-.91c.45,1.37.91,2.73,1.36,4.55Zm-452,.45L30,212.31c.46-1.37.91-3.18,1.37-4.55l2.27.46C33.19,210,32.74,211.4,32.28,212.76Zm449.26-8.18c-.45-1.36-.91-2.73-1.36-4.55l2.27-.91c.46,1.37.91,2.73,1.37,4.55Zm-447,.45-2.28-.45a15.92,15.92,0,0,0,.91-4.55l2.28.46A13.31,13.31,0,0,0,34.56,205Zm444.25-8.18c-.45-1.36-.91-2.73-1.36-4.55l2.27-.9c.46,1.36.91,2.72,1.37,4.54Zm-442.43,0-2.28-.45a16.06,16.06,0,0,0,.91-4.55l2.28.45A19.81,19.81,0,0,0,36.38,196.85Zm439.71-7.73c-.46-1.36-.91-2.72-1.37-4.54l2.27-.46c.46,1.37.91,2.73,1.37,4.55Zm-437.89,0-2.28-.45c.46-1.37.46-3.18.91-4.55l2.28.46A15.93,15.93,0,0,0,38.2,189.12Zm435.61-7.73c-.45-1.36-.91-3.18-1.36-4.54l2.27-.46c.46,1.37.91,2.73,1.37,4.55Zm-433.8,0-2.27-.45c.46-1.36.46-3.18.91-4.55l2.27.46A13.55,13.55,0,0,0,40,181.39Zm431.53-7.72a16.06,16.06,0,0,1-.91-4.55l2.27-.46a13.37,13.37,0,0,1,.91,4.55Zm-430.16-.46-2.27-.45a16.39,16.39,0,0,0,.9-4.55l2.28.45A16.27,16.27,0,0,1,41.38,173.21Zm428.34-7.73c-.46-1.36-.46-3.18-.91-4.54l2.27-.46c.46,1.36.46,3.18.91,4.55Zm-426.52,0L41.38,165a16.42,16.42,0,0,0,.91-4.55l2.27.46C44.11,162.3,43.65,163.66,43.2,165.48Zm425.16-8.18c0-1.36-.46-2.73-.46-4.09v-.46l2.27-.45v.45c0,1.37.46,2.73.46,4.09Zm-422.89,0-2.27-.46c.45-1.36.91-3.18,1.36-4.54l2.28.45C46.38,154.57,45.93,155.94,45.47,157.3ZM467,149.57c-.45-1.36-.45-3.18-.91-4.55l2.28-.45a16.25,16.25,0,0,1,.9,4.55Zm-419.25,0-2.27-.45c.46-1.37.91-3.19,1.37-4.55l2.27.45A10.2,10.2,0,0,0,47.74,149.57Zm417.43-7.73a16,16,0,0,0-1.82-4.09l1.82-.91a44.29,44.29,0,0,1,1.82,4.55ZM50,141.84l-2.28-.91c.46-1.36.91-3.18,1.37-4.54l2.27.91C50.93,139.11,50.47,140.48,50,141.84Zm412-7.27c-.91-1.37-1.36-2.73-2.27-4.09l1.81-1.37a18.88,18.88,0,0,1,2.28,4.09Zm-409.24-.46-2.28-.91a44,44,0,0,0,1.82-4.54l2.28.91A31,31,0,0,0,52.75,134.11Zm405.15-6.36c-.91-1.37-1.82-2.27-2.73-3.64l1.82-1.36c.91,1.36,1.82,2.27,2.73,3.63Zm-402.42-.91-1.82-.91c.45-1.36,1.36-2.73,1.82-4.09l1.81.91A16.27,16.27,0,0,1,55.48,126.84Zm397.42-5-3.19-3.18,1.37-1.37,3.18,3.18ZM59.11,119.57l-1.82-.91c.91-1.37,1.37-2.73,2.28-4.1l1.82.91C60.48,116.84,60,118.2,59.11,119.57ZM447,115.93c-.91-.91-2.27-1.82-3.63-3.18l1.36-1.82c1.36.91,2.27,2.27,3.64,3.18ZM63.21,112.75l-1.82-1.37,2.72-4.09,1.82,1.36A10.72,10.72,0,0,0,63.21,112.75Zm377.86-2.28c-1.36-.91-2.27-1.82-3.64-2.73l1.37-1.81c1.36.91,2.27,1.81,3.64,2.72Zm-6.36-4.54c-1.37-.91-2.28-1.82-3.64-2.73l1.36-1.82a25,25,0,0,1,3.64,2.73Zm-367,0-1.82-1.37a25.39,25.39,0,0,1,2.73-3.63l1.82,1.36C69.57,103.65,68.66,104.56,67.75,105.93Zm360.14-5a25,25,0,0,1-3.64-2.73l1.36-1.82,4.09,2.73ZM72.75,99.56,70.94,98.2c.45-.46.45-.91.9-.91.91-.91,1.37-1.82,2.28-2.27l1.82,1.36c-.91.91-1.37,1.82-2.28,2.27C73.21,99.11,72.75,99.11,72.75,99.56Zm348.31-3.18L417,93.65l1.37-1.82,4.09,2.73ZM78.21,93.65l-1.82-1.36,3.18-3.18,1.37,1.36C80,91.38,79.12,92.74,78.21,93.65Zm336-1.36A18.42,18.42,0,0,0,410.15,90l1.37-1.81a18.37,18.37,0,0,0,4.09,2.27Zm-6.82-4.55a18,18,0,0,0-4.09-2.27l1.37-1.82a18,18,0,0,0,4.09,2.27ZM83.67,88.2,82.3,86.83l3.19-3.18,1.36,1.82A8.43,8.43,0,0,0,83.67,88.2ZM400.6,83.65l-4.09-2.73,1.36-1.82,4.1,2.73Zm-311-1.36-1.37-1.37a26.29,26.29,0,0,1,3.64-3.18l1.37,1.82A25,25,0,0,0,89.58,82.29Zm304.2-3.19a25.51,25.51,0,0,1-3.64-2.72l1.37-1.82c1.36.91,2.27,1.82,3.64,2.73ZM95.49,76.83,94.13,75a23,23,0,0,0,3.63-3.18l1.37,1.82A23.44,23.44,0,0,1,95.49,76.83ZM387,74.56a25.52,25.52,0,0,1-3.64-2.73L384.69,70c1.36.91,2.27,1.82,3.64,2.73Zm-285.1-2.73L100.49,70c1.37-.91,2.28-1.82,3.64-2.73l1.36,1.82A25.39,25.39,0,0,0,101.86,71.83ZM380.6,69.56A22.17,22.17,0,0,1,377,66.37l1.36-1.81A25.51,25.51,0,0,0,382,67.28ZM108.22,66.83,106.86,65c1.36-.91,2.27-1.82,3.64-2.73l1.36,1.82A25.52,25.52,0,0,0,108.22,66.83ZM374.68,64.1c-1.36-.91-2.27-1.82-3.63-2.73l1.36-1.81a22,22,0,0,1,3.64,3.18ZM114.59,61.83,113.22,60a25,25,0,0,0,3.64-2.73l1.37,1.82A25,25,0,0,0,114.59,61.83ZM368.32,59.1c-1.37-.91-2.28-1.82-3.64-2.73l1.37-1.82a25.39,25.39,0,0,1,3.63,2.73ZM121,57.28l-1.36-1.82a25.51,25.51,0,0,0,3.64-2.72l1.36,1.81A25,25,0,0,1,121,57.28ZM361.5,54.55a19.25,19.25,0,0,0-4.09-2.27l.9-1.82a18.7,18.7,0,0,0,4.1,2.28ZM127.77,52.74l-1.36-1.82a18.65,18.65,0,0,1,4.09-2.28l1.37,1.82A18.7,18.7,0,0,0,127.77,52.74Zm226.91-2.28c-1.37-.91-2.73-1.36-4.1-2.27l.91-1.82c1.37.91,2.73,1.37,4.1,2.27ZM134.59,48.64l-.9-2.27a18,18,0,0,1,4.09-2.27l.91,1.82ZM347.4,46.83c-1.36-.46-2.73-1.37-4.09-1.82l.91-1.82c1.36.45,2.73,1.36,4.09,1.82ZM141.87,44.55l-1.36-2.27c1.36-.91,2.72-1.36,4.09-2.27l.91,1.82A24.26,24.26,0,0,0,141.87,44.55Zm198.26-1.36c-1.37-.46-2.73-1.36-4.1-1.82l.91-2.27c1.37.45,2.73,1.36,4.1,1.82Zm-7.28-2.73a16,16,0,0,1-4.09-1.82l.91-2.27a30.53,30.53,0,0,1,4.54,1.82Zm-184.16,0-.91-1.82c1.37-.91,2.73-1.36,4.09-2.27l.91,1.82A18,18,0,0,1,148.69,40.46Zm176.43-3.18c-1.36-.46-2.73-.91-4.55-1.36l.91-2.28c1.37.46,2.73.91,4.55,1.37ZM156,36.82,155.06,35c1.36-.46,2.73-1.37,4.09-1.82l.91,1.82C158.7,35.46,157.33,36.37,156,36.82ZM317.39,35c-1.36-.46-2.73-.91-4.55-1.37l.46-2.27c1.36.45,3.18.91,4.54,1.36ZM163.24,33.64l-.91-1.82c1.37-.45,2.73-1.36,4.1-1.81l.91,2.27A8.65,8.65,0,0,0,163.24,33.64Zm146.42-.91c-1.36-.45-3.18-.91-4.55-1.36l.46-2.27c1.36.45,3.18.91,4.54,1.36Zm-7.73-2.27c-1.36-.45-3.18-.91-4.55-1.36l.46-2.28c1.36.46,3.18.91,4.54,1.37Zm-131,0-.91-2.27a31.72,31.72,0,0,0,4.55-1.82l.91,2.27C173.7,29.1,172.34,30,171,30.46ZM294.2,28.64a16.27,16.27,0,0,0-4.55-.91l.46-2.27a16.28,16.28,0,0,0,4.54.91Zm-115.95-.91-.91-2.27c1.36-.46,2.73-.91,4.55-1.36l.91,2.27C181.43,26.82,180.07,27.28,178.25,27.73ZM286,26.82c-1.37-.45-3.19-.45-4.55-.91l.45-2.27c1.37.46,3.19.46,4.55.91ZM278.29,25c-1.37-.45-3.19-.45-4.55-.9l.45-2.28c1.37.46,3.19.46,4.55.91ZM186,25l-.46-2.27c1.37-.45,3.19-.91,4.55-1.36l.46,2.27C189.16,24.1,187.8,24.55,186,25Zm84.12-1.81c-1.36-.46-3.18-.46-4.55-.91L266,20c1.36.46,3.18.46,4.55.91Zm-76.39-.46-.46-2.27a16.06,16.06,0,0,1,4.55-.91l.46,2.27A13.37,13.37,0,0,1,193.71,22.73Zm68.66-.91c-1.36-.45-3.18-.45-4.55-.91l.46-2.27c1.36.45,3.18.45,4.55.91Zm-60.48-.91-.45-2.27c1.36-.45,3.18-.45,4.55-.91l.45,2.27A19.7,19.7,0,0,1,201.89,20.91Zm52.3-.45c-1.37-.46-3.19-.46-4.55-.91l.45-2.27c1.37.45,3.19.45,4.55.91Zm-44.57-.91-.45-2.27a15.28,15.28,0,0,1,4.55-.46l.45,2.27C212.81,19.09,211,19.55,209.62,19.55Zm36.83-.46c-1.36,0-3.18-.45-4.54-.45V16.37c1.36,0,3.18.45,4.54.45Zm-28.64-.45V16.37c1.36,0,3.18-.46,4.54-.46v2.28A17.16,17.16,0,0,1,217.81,18.64Zm20.46-.45h-4.55V15.91h4.55Zm-12.73,0V15.91h5v2.28h-5Z" transform="translate(0 1.36)"/><path class="cls-1" d="M298.75,505.54h-.91v-2.27h3.64v2.27Zm-5.46,0h-3.64v-2.27h3.64Zm12.73-.46v-2.27a10.1,10.1,0,0,0,3.64-.45v2.27A10.1,10.1,0,0,1,306,505.08Zm-20.91,0a10.1,10.1,0,0,1-3.64-.45v-2.27a10.15,10.15,0,0,1,3.64.45Zm29.1-.45-.46-2.27c.91,0,2.28-.46,3.64-.46l.45,2.27C316.48,504.17,315.57,504.63,314.21,504.63Zm-37.29-.46c-1.36,0-2.27-.45-3.64-.45l.46-2.27c1.36,0,2.27.45,3.64.45Zm45.47-.9-.45-2.28c.91-.45,2.27-.45,3.18-.91l.45,2.28C324.67,502.81,323.3,502.81,322.39,503.27Zm-53.65-.46c-1.37,0-2.28-.45-3.64-.45l.45-2.28c1.37,0,2.28.46,3.64.46ZM261,501.45c-1.37,0-2.28-.46-3.64-.46l.45-2.27c.91,0,2.28.45,3.19.45Zm69.11,0-.45-2.28c.91-.45,2.27-.45,3.18-.91l.91,1.82C332.4,500.54,331.49,501,330.12,501.45Zm-77.3-1.37a27.1,27.1,0,0,1-3.18-.91l.45-2.27c.91.45,2.28.45,3.19.91Zm85-1.36-.91-1.82c.91-.45,2.28-.91,3.19-1.36l.91,1.81A22,22,0,0,1,337.85,498.72Zm-92.76-.46a27.1,27.1,0,0,1-3.18-.91l.45-2.27c.91.46,2.28.46,3.19.91ZM236.91,496c-.91-.45-2.28-.45-3.19-.91l.46-2.27c.91.45,2.27.45,3.18.91Zm108.67-.91-.91-1.82a26.87,26.87,0,0,0,3.19-1.81l.91,1.81A25.81,25.81,0,0,1,345.58,495.08Zm-116.4-.91-3.19-.91.46-2.27,3.18.91ZM221,492.35a29.45,29.45,0,0,1-3.18-.9l.45-2.28c.91.46,2.28.46,3.19.91ZM352.4,491,351,489.17c.91-.45,1.82-1.36,2.73-1.82l1.36,1.82A6.81,6.81,0,0,1,352.4,491Zm-139.14-.45a31.65,31.65,0,0,1-3.18-.91l.45-2.28c.91.46,2.28.46,3.19.91Zm-7.73-1.82c-1.36,0-2.27-.46-3.18-.46l.45-2.27c.91,0,2.28.45,3.64.45Zm-8.18-1.37c-1.37,0-2.28-.45-3.64-.45v-2.27c.91,0,2.27.45,3.64.45Zm-7.73-.45a9.89,9.89,0,0,1-3.64-.46v-2.27a9.94,9.94,0,0,1,3.64.46Zm169.6-.91-1.36-1.82.45-.45c.91-.46,1.37-1.37,2.28-1.82l1.36,1.82a7.89,7.89,0,0,0-2.27,1.82C359.68,486,359.68,486,359.22,486Zm-177.79,0c-1.36,0-2.27-.45-3.64-.45l.46-2.28c.91,0,2.27.46,3.64.46Zm-8.18-1.36c-1.37-.46-2.28-.46-3.64-.91l.45-2.28c.91.46,2.28.46,3.19.91Zm-8.19-2.28c-.91-.45-2.27-.45-3.18-.91l.45-1.82c.91.46,2.28.46,3.19.91Zm200.53-.91-1.36-1.82c.91-.45,1.81-1.36,2.72-1.81l1.37,1.81A9.62,9.62,0,0,0,365.59,481.44Zm-208.26-1.36c-.91-.46-2.27-.91-3.18-1.36l.91-1.82c.91.45,2.27.91,3.18,1.36Zm215.08-3.18-1.36-1.82c.91-.46,1.82-1.37,2.72-1.82l.91,1.82C374.23,475.53,373.32,476,372.41,476.9Zm-222.81,0c-.91-.46-2.27-.91-3.18-1.37l.91-1.82c.91.46,2.27.91,3.18,1.37Zm-7.28-3.19c-.9-.45-2.27-.9-3.18-1.36l.91-1.82c.91.46,2.27.91,3.18,1.37Zm236.91-1.36-.91-1.82a20.73,20.73,0,0,1,3.18-1.82l.91,1.82A25.09,25.09,0,0,1,379.23,472.35Zm-244.18-2.27a26.4,26.4,0,0,1-3.18-1.82l.91-1.82a18.79,18.79,0,0,0,3.18,1.82Zm251-1.82-.91-1.82a20.41,20.41,0,0,1,3.19-1.82l.9,1.82A7.18,7.18,0,0,1,386.05,468.26ZM127.77,466a18.79,18.79,0,0,0-3.18-1.82l1.37-1.82c.9.45,1.81,1.36,2.72,1.82Zm265.56-1.37-.91-1.82A26.1,26.1,0,0,0,395.6,461l.91,1.81A7.39,7.39,0,0,0,393.33,464.62ZM121,461.44c-.91-.45-1.82-1.36-2.72-1.82l1.36-1.82c.91.46,1.82,1.37,2.73,1.82Zm279.2-.91-.91-1.82,3.18-1.82.91,1.82Zm7.27-4.09-.91-1.82a25.81,25.81,0,0,0,3.19-1.82l.91,1.82A11.55,11.55,0,0,1,407.42,456.44Zm-292.83.45c-.91-.91-1.82-1.36-2.73-2.27l1.36-1.82c.91.91,1.82,1.37,2.73,2.28Zm300.11-4.54-.91-1.82a19.93,19.93,0,0,1,3.18-1.82l.91,1.82A26.4,26.4,0,0,1,414.7,452.35Zm-306.48-.46c-.91-.91-1.82-1.36-2.73-2.27l1.37-1.82c.91.91,1.82,1.37,2.73,2.27Zm313.3-3.63-.91-1.82a19.2,19.2,0,0,1,3.18-1.82l.91,1.82A11.51,11.51,0,0,1,421.52,448.26Zm-319.66-1.82c-.91-.91-1.82-1.37-2.73-2.28l1.36-1.36c.91.91,1.82,1.36,2.73,2.27Zm326.48-2.28L427,442.35c.91-.46,1.81-1.37,2.72-1.82l1.37,1.82A7.08,7.08,0,0,1,428.34,444.16ZM95.94,441a11.66,11.66,0,0,0-2.72-2.27l1.36-1.36,2.27,2.27Zm339.22-1.36-1.36-1.82c.91-.45,1.82-1.36,2.73-1.82l1.36,1.82A14.81,14.81,0,0,1,435.16,439.62Zm6.82-5-1.36-1.82c.91-.91,1.82-1.36,2.73-2.27l1.36,1.81A12.23,12.23,0,0,1,442,434.62Zm-352,.45a11.9,11.9,0,0,1-2.27-2.73L89.12,431c.91.91,1.37,1.82,2.28,2.73Zm358.32-5.45L447,427.8c.91-.91,1.82-1.37,2.73-2.27l1.37,1.36A15.62,15.62,0,0,1,448.35,429.62Zm-363.77-.46c-.91-.91-1.37-1.82-2.28-2.73l1.82-1.36c.91.91,1.37,1.82,2.28,2.73Zm369.68-5-1.36-1.36,2.27-2.28,1.36,1.37ZM79.12,422.8c-.91-.91-1.36-1.82-2.27-2.73l1.82-1.36c.9.9,1.36,1.81,2.27,2.72Zm380.6-5-1.82-1.37c.91-.91,1.36-1.82,2.27-2.72a10.08,10.08,0,0,1,1.82-2.28l1.82,1.37c-.46.91-1.37,1.81-1.82,2.72C461.08,416,460.63,416.89,459.72,417.8Zm-385.6-1.37c-.91-.91-1.37-1.82-2.28-2.72l1.82-1.37c.91.91,1.37,1.82,2.28,2.73Zm-5-6.36c-.46-.91-1.37-1.82-1.82-2.73L69.12,406c.45.91,1.36,1.82,1.82,2.72Zm397-1.37-1.82-.9a27.19,27.19,0,0,1,1.82-3.19l1.82.91C467.45,406.43,466.54,407.8,466.08,408.7ZM64.57,403.25c-.46-.91-1.36-1.82-1.82-2.73l1.82-1.36c.45.91,1.36,1.82,1.82,2.72Zm405.15-1.82-1.82-.91c.46-.91.91-2.27,1.36-3.18l1.82.91A22.39,22.39,0,0,0,469.72,401.43Zm-409.7-5a20.73,20.73,0,0,1-1.82-3.18l1.82-.91a19.2,19.2,0,0,1,1.82,3.18Zm412.43-2.73-1.82-.45a8.56,8.56,0,0,0,.91-3.18l2.27.45A22.39,22.39,0,0,0,472.45,393.7ZM56.38,389.16A11.51,11.51,0,0,0,54.57,386l1.81-.91a27.19,27.19,0,0,0,1.82,3.19ZM474.72,386l-2.27-.45c.45-.91.45-2.27.91-3.18l2.27.45A11.33,11.33,0,0,1,474.72,386ZM52.29,381.88c-.45-.91-.91-2.27-1.36-3.18l1.82-.91c.45.91.91,2.27,1.36,3.18ZM477,377.79l-2.27-.45a7.69,7.69,0,0,0,.46-3.19l2.27.46C477.45,375.52,477,376.88,477,377.79ZM49.11,374.61c-.46-.91-.91-2.28-1.37-3.18l1.82-.91c.46.91.91,2.27,1.37,3.18Zm429.25-5-2.27-.46c0-.91.45-2.27.45-3.64l2.27.46C478.81,367.33,478.36,368.7,478.36,369.61Zm-432-2.73a8.5,8.5,0,0,1-.91-3.18l2.27-.46a8.32,8.32,0,0,1,.91,3.18Zm433.34-5-2.27-.46c0-1.36.45-2.27.45-3.63l2.28.45C480.18,359.61,479.72,360.51,479.72,361.88ZM43.65,359.15c-.45-1.36-.45-2.27-.91-3.64l2.28-.45c.45.91.45,2.27.91,3.18Zm437-5.45-2.27-.46.45-3.64,2.28.46ZM42.29,351c0-.91-.46-2.28-.46-3.19l2.28-.45c0,1.36.45,2.27.45,3.64ZM482,345.51l-2.28-.45c0-1.37.46-2.28.46-3.64l2.27.45C482.45,343.24,482,344.6,482,345.51ZM40.92,343.24a8.32,8.32,0,0,0-.91-3.18l2.28-.46c.45,1.37.45,2.27.91,3.64Zm442.44-5.46-2.27-.45c0-1.36.45-2.27.45-3.64l2.28.46A9.86,9.86,0,0,0,483.36,337.78ZM39.11,335.06c-.46-.91-.46-2.28-.91-3.19l2.27-.45c.45.91.45,2.27.91,3.18Zm445.61-5.46-2.27-.45c0-1.37.46-2.28.46-3.64l2.27.45A11.21,11.21,0,0,0,484.72,329.6ZM37.29,327.33c-.46-.91-.46-2.28-.91-3.19l2.27-.45c.46.91.46,2.27.91,3.18Zm448.8-5.46-2.27-.45c.45-1.37.45-2.28.9-3.64l2.28.45C486.54,319.6,486.54,320.51,486.09,321.87ZM35,319.6c-.45-.91-.45-2.27-.91-3.18l2.28-.46c.45.91.45,2.27.91,3.18Zm452.9-5.46-2.28-.45a30.17,30.17,0,0,1,.91-3.18l1.82.45C488.82,311.87,488.36,312.78,487.91,314.14ZM33.19,311.41l-.91-3.18,2.28-.45.91,3.18Zm457.45-5-1.82-.9c.45-.91.91-2.28,1.36-3.19l1.82.91A22.39,22.39,0,0,0,490.64,306.41ZM30.92,303.69c-.45-.91-.45-2.28-.91-3.19l2.27-.45c.46.91.46,2.27.91,3.18Zm462.9-4.55-1.82-.91a9.8,9.8,0,0,1,1.36-2.27l.46-.46,1.82.91-.46.46A9.8,9.8,0,0,0,493.82,299.14ZM28.65,296c-.46-.91-.46-2.28-.91-3.18l2.27-.46c.46.91.46,2.27.91,3.18Zm469.26-4.09-1.82-.91c.46-.91.91-2.28,1.37-3.19l1.82.91C498.82,289.59,498.37,291,497.91,291.87Zm-471.08-4.1c-.46-1.36-.46-2.27-.91-3.63l2.27-.46c.46.91.46,2.28.91,3.19Zm474.26-3.63-2.27-.46c.46-.91.46-2.27.91-3.18L502,281A8.5,8.5,0,0,0,501.09,284.14ZM25.46,280.05c0-1.37-.45-2.28-.45-3.64l2.27-.46c0,1.37.46,2.28.46,3.64ZM502.91,276l-2.27-.45c0-.91.45-2.27.45-3.18h2.28A11.15,11.15,0,0,0,502.91,276ZM24.1,271.86c0-1.36-.46-2.27-.46-3.63l2.28-.46c0,1.37.45,2.27.45,3.64Zm479.27-4.09h-2.28v-3.18h2.28v3.18ZM23.19,263.68V260h2.27v3.64ZM501.09,260a11.35,11.35,0,0,0-.45-3.63h2.27a9.86,9.86,0,0,0,.46,3.63ZM22.74,255.5v-3.64H25v3.64Zm477.9-3.64c0-.91-.46-2.27-.46-3.18l2.28-.46c0,1.37.45,2.28.45,3.64ZM25,247.31H22.74a10.07,10.07,0,0,1,.45-3.63l2.27.45A7.8,7.8,0,0,1,25,247.31Zm473.81-3.18c-.45-.91-.45-2.27-.91-3.18l2.27-.46c.46,1.37.46,2.28.91,3.64ZM26.37,239.59l-2.27-.46c0-1.36.45-2.27.45-3.64l2.28.46A9.89,9.89,0,0,0,26.37,239.59ZM497,236c-.45-.91-.45-2.28-.91-3.18l2.28-.46c.45.91.45,2.27.91,3.18ZM27.74,231.86l-2.28-.46c.46-.91.46-2.27.91-3.18l2.73.45A22.07,22.07,0,0,0,27.74,231.86Zm467.44-3.64c-.45-.91-.45-2.27-.91-3.18l2.28-.46c.45.91.45,2.28.91,3.19ZM30.47,224.13l-1.82-.91c.45-.91.91-2.27,1.36-3.18l1.82.91C31.38,221.86,30.92,223.22,30.47,224.13Zm462-3.64a8.48,8.48,0,0,1-.9-3.18l1.81-.46a8.37,8.37,0,0,1,.91,3.19Zm-458.8-3.64-1.82-.91a1.57,1.57,0,0,1,.45-.9,3.45,3.45,0,0,0,.91-1.82l1.82.91c-.45.91-.91,1.36-.91,1.81S34.1,216.4,33.65,216.85Zm456.53-4.09a8.5,8.5,0,0,1-.91-3.18l1.82-.91a8.32,8.32,0,0,1,.91,3.18ZM37.29,209.58l-1.82-.91c.45-.91.91-2.27,1.36-3.18l1.82.91C38.2,207.31,37.74,208.67,37.29,209.58ZM487.45,205l-1.36-3.18,2.27-.45,1.37,3.18Zm-447-3.18-1.82-.45c.46-.91.91-2.28,1.36-3.19l1.82.91Zm444.25-4.09c-.45-.91-.9-2.27-1.36-3.18l1.82-.91c.45.91.91,2.27,1.36,3.18ZM43.2,194.58l-1.82-.91a8.5,8.5,0,0,0,.91-3.18l1.82.45A10.88,10.88,0,0,1,43.2,194.58ZM482,190a8.32,8.32,0,0,1-.91-3.18l1.82-.45a8.45,8.45,0,0,1,.91,3.18ZM45.93,186.4l-2.28-.46c.46-.91.46-2.27.91-3.18l2.28.45A11.47,11.47,0,0,0,45.93,186.4Zm433.79-4.1a8.5,8.5,0,0,1-.91-3.18l1.82-.45a8.27,8.27,0,0,1,.91,3.18ZM48.2,178.67l-2.27-.46c.45-.91.45-2.27.91-3.18l2.27.45A8.37,8.37,0,0,0,48.2,178.67ZM477,174.57c-.45-.9-.45-2.27-.9-3.18l2.27-.45c.45.91.45,2.27.91,3.18ZM50.47,170.94l-2.27-.46.91-3.18,2.27.46Zm424.25-4.55c-.45-.91-.45-2.27-.91-3.18l2.28-.46c.45.91.45,2.28.9,3.19ZM52.29,163.21,50,162.75c.45-.91.45-2.27.91-3.18l2.27.46A11.42,11.42,0,0,1,52.29,163.21Zm420.61-4.55a10.07,10.07,0,0,1-.45-3.63l2.27-.46c0,.91.46,2.27.46,3.18ZM54.57,155.48,52.29,155c.46-.91.46-2.28.91-3.19l2.28.46A27.1,27.1,0,0,0,54.57,155.48Zm417-5c-.46-.91-.46-2.27-.91-3.18l1.82-.46c.45.91.45,2.28.91,3.64Zm-414.7-2.73-2.27-.91c.45-.91.45-2.27.91-3.18l1.81.45A10.1,10.1,0,0,1,56.84,147.75Zm412-4.54c-.45-.91-.91-2.28-1.36-3.19l1.81-.91c.46.91.91,2.28,1.37,3.19ZM59.11,140l-1.82-.45a8.32,8.32,0,0,0,.91-3.18l1.82.91A17.33,17.33,0,0,1,59.11,140Zm406.52-4.09c-.46-.91-1.37-1.82-1.82-2.73l1.82-1.36a20.73,20.73,0,0,1,1.82,3.18ZM61.84,132.3,60,131.39c.46-.91.91-2.28,1.37-3.19l1.82.91A22,22,0,0,0,61.84,132.3Zm399.24-2.73c-.91-.91-1.36-1.82-2.27-2.73l1.82-1.36c.9.9,1.36,1.81,2.27,2.72ZM65,124.57l-1.81-.91c.45-.91.9-2.28,1.36-3.19l1.82.91A22,22,0,0,1,65,124.57Zm390.6-1.37c-.91-.91-1.36-1.82-2.27-2.27l1.36-1.36a12,12,0,0,1,2.28,2.72Zm-5.91-5.45c-.91-.91-1.82-1.37-2.73-2.28l1.37-1.81c.91.9,1.82,1.36,2.73,2.27Zm-381.5-.46-1.82-.91a11.26,11.26,0,0,1,1.82-3.18l1.82.91A7.39,7.39,0,0,1,68.21,117.29Zm375.59-5c-.91-.91-1.82-1.36-2.73-2.27l1.37-1.82c.91.91,1.82,1.36,2.73,2.27ZM72.3,110.47l-1.82-.91a19.93,19.93,0,0,0,1.82-3.18l1.82,1.36C73.21,108.2,72.75,109.11,72.3,110.47Zm365.13-3.18c-.9-.91-1.81-1.36-2.72-2.27l1.36-1.82c.91.91,1.82,1.36,2.73,2.27Zm-361-3.64-1.82-1.36c.91-.91,1.37-1.82,2.28-2.73l1.82,1.37C77.76,101.84,77.3,102.74,76.39,103.65Zm354.68-.91a9.58,9.58,0,0,0-2.73-1.81l1.36-1.82a11.9,11.9,0,0,1,2.73,2.27Zm-6.82-5-2.73-1.81,1.36-1.82,2.73,1.82ZM81.39,97.29l-1.82-1.36c.91-.91,1.37-1.82,2.28-2.73l1.82,1.36A12.23,12.23,0,0,1,81.39,97.29ZM417.88,93.2c-.91-.91-1.82-1.37-2.73-2.28l1.37-1.81c.91.9,1.82,1.36,2.73,2.27Zm-331-1.82L85.49,90a11.91,11.91,0,0,0,2.27-2.72l1.36,1.36A11.9,11.9,0,0,1,86.85,91.38ZM411.06,88.2c-.91-.91-1.82-1.37-2.73-2.28l1.37-1.82c.91.91,1.82,1.37,2.73,2.28ZM92.76,85.47,91.4,84.1a12.44,12.44,0,0,1,2.73-2.27l1.36,1.37C94.13,84.1,93.67,85,92.76,85.47ZM404.7,83.2c-.91-.91-1.82-1.37-2.73-2.28l1.36-1.82c.91.91,1.82,1.37,2.73,2.28ZM98.67,80l-1.82-1.36c.91-.91,1.82-1.36,2.73-2.27L101,77.74Zm300.11-2.27a11.87,11.87,0,0,0-2.72-2.27l1.36-1.37c.91.91,1.82,1.37,2.27,2.28Zm-294.2-3.18-1.36-1.82c.91-.91,1.82-1.36,2.73-2.27l1.36,1.81C106.4,73.19,105.49,73.65,104.58,74.56Zm288.29-2.28-.91-.9c-.45-.46-.91-1.37-1.82-1.82l1.37-1.37c.45.46.91,1.37,1.82,1.82,0,.46.45.46.45.91ZM110.5,69.56l-1.37-1.82c.91-.91,1.82-1.37,2.73-2.27l1.36,1.81A12,12,0,0,0,110.5,69.56Zm276.92-3.19c-.91-.9-1.82-1.36-2.73-2.27l1.36-1.36A11.9,11.9,0,0,0,388.78,65ZM116.86,64.1l-1.36-1.36c.91-.91,1.82-1.37,2.73-2.28l1.36,1.82C118.68,62.74,117.77,63.65,116.86,64.1ZM381.5,60.92c-.9-.91-1.81-1.36-2.72-2.27l1.36-1.82c.91.91,1.82,1.36,2.73,2.27ZM123.23,59.56l-1.37-1.82c.91-.91,1.82-1.37,2.73-2.28L126,57.28A12.23,12.23,0,0,0,123.23,59.56Zm251.91-3.64c-.91-.46-1.82-1.37-2.73-1.82l1.36-1.82c.91.46,1.82,1.37,2.73,1.82ZM130.05,54.55l-1.37-1.81c.91-.46,1.82-1.37,2.73-1.82l1.37,1.82C131.87,53.19,131,54.1,130.05,54.55Zm238.27-3.18c-.91-.45-1.82-1.36-2.73-1.82l.91-1.81a20,20,0,0,0,3.18,1.81ZM136.41,50l-1.36-1.82c.91-.45,1.82-1.36,2.73-1.82l1.36,1.82A14.47,14.47,0,0,1,136.41,50ZM361.5,47.28a20.41,20.41,0,0,0-3.19-1.82l.91-1.82a18.92,18.92,0,0,0,3.19,1.82ZM143.23,45.46l-.91-1.82a19.66,19.66,0,0,1,3.19-1.81l.91,1.81A11.3,11.3,0,0,1,143.23,45.46Zm211-2.27c-.91-.46-2.27-.91-3.18-1.36L352,40c.91.45,2.27.91,3.18,1.36ZM150.51,41.37l-.91-1.82a20.73,20.73,0,0,1,3.18-1.82l.91,1.82A25.09,25.09,0,0,1,150.51,41.37ZM347,39.55c-.91-.45-2.28-.91-3.19-1.36l.91-1.82c.91.45,2.28.91,3.19,1.36ZM157.33,37.73l-.91-2.27a11.12,11.12,0,0,0,3.18-1.82l.91,1.82C159.6,36.37,158.24,36.82,157.33,37.73Zm182.34-1.36c-.91-.45-2.27-.91-3.18-1.36l.91-1.82c.91.45,2.27.91,3.18,1.36Zm-7.27-2.73c-.91-.45-2.28-.91-3.19-1.36l.91-1.82c.91.45,2.28.91,3.18,1.36Zm-167.79,0-.91-1.82c.91-.45,2.27-.91,3.18-1.36l.91,1.82C166.88,32.73,165.52,33.19,164.61,33.64Zm160.06-3.18a8.55,8.55,0,0,0-3.19-.91l.46-1.82a8.32,8.32,0,0,0,3.18.91Zm-152.79,0L171,28.64c.91-.45,2.28-.91,3.19-1.36l.91,1.82C174.16,29.55,172.79,30,171.88,30.46Zm145.06-2.27c-.91-.46-2.28-.46-3.19-.91l.46-2.28c.91.46,2.27.46,3.18.91Zm-137.78-.91-.91-1.82c.91-.46,2.27-.91,3.18-1.37l.91,1.82A22.3,22.3,0,0,1,179.16,27.28Zm130-1.37c-.91-.45-2.28-.45-3.19-.91l.46-2.27c.91.46,2.27.46,3.18.91ZM186.89,24.09,186,22.28c.91-.46,2.27-.91,3.18-1.37l.91,1.82C189.16,23.64,187.8,23.64,186.89,24.09Zm114.59-.45c-.91-.45-2.28-.45-3.19-.91l.46-2.27c.91.45,2.27.45,3.18.91Zm-8.19-1.82c-.91-.45-2.27-.45-3.18-.91l.45-2.27c.91.45,2.28.45,3.19.91Zm-98.67,0L194.16,20a8.55,8.55,0,0,1,3.19-.91l.45,2.28C196.89,20.91,195.53,21.37,194.62,21.82Zm90.94-1.36a7.64,7.64,0,0,0-3.18-.46l.45-2.27c1.37,0,2.28.45,3.64.45Zm-83.21-.91-.46-2.27c.91-.46,2.28-.46,3.19-.91l.45,2.27A8.32,8.32,0,0,0,202.35,19.55Zm75.48-.91c-1.36,0-2.27-.46-3.64-.46l.46-2.27c1.36,0,2.27.46,3.64.46Zm-8.18-1.36c-1.37,0-2.28-.46-3.64-.46l.45-2.27c1.37,0,2.28.45,3.64.45Zm-59.57.45-.46-2.27c1.37-.46,2.28-.46,3.64-.91l.46,2.27A10.77,10.77,0,0,0,210.08,17.73Zm51.38-1.36c-1.36,0-2.27-.46-3.64-.46l.46-2.27c1.36,0,2.27.45,3.64.45Zm-43.65-.46-.46-2.27c1.37,0,2.28-.46,3.64-.46l.46,2.28A9,9,0,0,1,217.81,15.91Zm35.92-.45A5.71,5.71,0,0,1,251,15h-.45V12.73H251a5.83,5.83,0,0,1,2.73.45ZM226,15V12.73a9.89,9.89,0,0,0,3.64-.46v2.28A10.1,10.1,0,0,1,226,15Zm19.56-.45h-3.64V12.27h3.64Zm-11.37,0V12.27h3.63v2.28Z" transform="translate(0 1.36)"/><path class="cls-1" d="M306.93,501v-2.27h2.28V501Zm-5.91-.45h-2.27v-2.28H301Zm14.1,0v-1.82h2.27v1.82Zm-22.28-.46a4.16,4.16,0,0,1-2.28-.45l.46-1.82a4.12,4.12,0,0,1,2.27.45Zm30.46-.45-.45-1.82c.91,0,1.36-.46,2.27-.46l.45,1.82A3.39,3.39,0,0,0,323.3,499.63Zm-38.65-.46c-.91,0-1.36-.45-2.27-.45l.45-1.82c.91,0,1.37.45,2.28.45ZM331,497.81l-.45-1.82c.91,0,1.36-.45,2.27-.45l.45,1.81A4.89,4.89,0,0,0,331,497.81Zm-54.56,0c-.91,0-1.37-.46-2.28-.46l.46-1.81c.91,0,1.36.45,2.27.45ZM268.74,496c-.91,0-1.37-.45-2.28-.45l.46-1.82c.91,0,1.36.45,2.27.45Zm70.48-.91-.91-1.82c.91-.45,1.36-.45,2.27-.91l.91,1.82C340.58,494.63,339.67,494.63,339.22,495.08Zm-78.67-.45c-.91,0-1.36-.46-2.27-.46l.45-1.82c.91,0,1.37.46,2.28.46Zm-7.73-2.28-2.27-.45.45-1.82,2.28.46Zm93.67-.45-.91-1.82a3.52,3.52,0,0,1,1.82-.91l.91,1.82C347.86,491,347.4,491.45,346.49,491.9Zm-101.4-1.36-2.27-.46.45-1.82,2.28.46Zm-8.18-1.82c-.91,0-1.37-.46-2.28-.46l.46-1.82c.91,0,1.36.46,2.27.46Zm116.86-1.37-.91-1.81h.45a2.36,2.36,0,0,1,1.82-.91l.91,1.81A3.48,3.48,0,0,0,353.77,487.35Zm-124.59-.45c-.91,0-1.37-.46-2.28-.46l.46-1.81c.91,0,1.36.45,2.27.45Zm-7.73-1.82c-.91,0-1.37-.45-2.28-.45l.46-1.82c.91,0,1.36.45,2.27.45Zm-8.19-.91a4.12,4.12,0,0,1-2.27-.45V481.9a4.12,4.12,0,0,1,2.27.45Zm147.33-.91-.91-1.82c.45-.45,1.36-.91,1.82-1.36l.91,1.82C362,482.35,361,482.81,360.59,483.26Zm-155.51,0H202.8V481h2.28Zm-7.73,0h-2.28V481h2.28Zm-8.19-.45a4,4,0,0,1-2.27-.46l.45-1.82a4.08,4.08,0,0,1,2.28.46ZM181,481.44c-.91,0-1.37-.45-2.28-.45l.46-1.82c.91,0,1.36.45,2.27.45Zm186.43-2.27-.91-1.82a3.48,3.48,0,0,1,2.27-.91l.91,1.82C368.77,478.72,368.32,479.17,367.41,479.17Zm-194.62.45c-.91,0-1.36-.45-2.27-.45l.45-1.82c.91,0,1.37.46,2.28.46Zm-7.73-2.27c-.91-.45-1.36-.45-2.27-.91l.91-1.82c.91.46,1.36.46,2.27.91Zm209.62-1.82-.91-1.82c.91-.45,1.37-.9,2.28-.9l.91,1.81C376.05,475.08,375.59,475.53,374.68,475.53Zm-217.35-1.36c-.91-.46-1.36-.46-2.27-.91l.91-1.82c.91.46,1.36.46,2.27.91ZM382,471.9l-.91-1.82c.91-.46,1.36-.46,2.27-.91l.91,1.82C383.32,471.44,382.87,471.9,382,471.9ZM150.06,471c-.91-.46-1.37-.91-2.28-.91l.91-1.82c.91.45,1.37.91,2.27.91Zm239.18-2.28-.91-1.81,2.27-.91.91,1.82Zm-246.46-1.36c-.45-.45-1.36-.91-1.82-1.36l.91-1.82c.46.45,1.36.91,1.82,1.36Zm253.73-2.27-.91-1.82,2.27-.91.91,1.82Zm-261-1.82c-.45-.46-1.36-.91-1.81-1.37l.9-1.81c.46.45,1.37.91,1.82,1.36Zm268.74-1.37-.91-1.81c.91-.46,1.37-.46,2.27-.91l.91,1.82A3.49,3.49,0,0,0,404.24,461.89Zm7.28-3.63-.91-1.82c.91-.46,1.36-.46,2.27-.91l.91,1.82A3.43,3.43,0,0,0,411.52,458.26Zm-282.84.45c-.45-.45-1.36-.91-1.82-1.36l1.37-1.82c.45.45,1.36.91,1.82,1.36Zm290.11-4.09-.91-1.82c.91-.45,1.37-.91,1.82-.91l.91,1.82A3.52,3.52,0,0,0,418.79,454.62Zm-296.47-.91c-.46-.45-1.37-.91-1.82-1.36l1.36-1.82c.46.45,1.37.91,1.82,1.36Zm303.75-3.18-.91-1.82a3.45,3.45,0,0,1,1.82-.91l.91,1.82A3.52,3.52,0,0,1,426.07,450.53ZM116,448.71c-.45-.45-1.36-.91-1.82-1.36L115.5,446c.45.46,1.36.91,1.82,1.37Zm316.94-1.82-.91-1.82c.45-.45,1.36-.91,1.82-1.36l.91,1.82A6.35,6.35,0,0,1,432.89,446.89ZM110,443.26c-.45-.46-1.36-.91-1.82-1.82l1.37-1.37a6.29,6.29,0,0,0,1.81,1.37Zm329.67-.91-1.37-1.82c.46-.46,1.37-.91,1.82-1.37l1.37,1.82A6.35,6.35,0,0,1,439.71,442.35Zm6.82-5-1.36-1.82c.45-.46,1.36-.91,1.81-1.37l1.37,1.82C447.89,436.44,447,436.89,446.53,437.35Zm-342.4,0-1.82-1.82,1.36-1.37,1.82,1.82Zm348.77-5L451.53,431a6.35,6.35,0,0,1,1.82-1.36l1.36,1.36A6.32,6.32,0,0,0,452.9,432.34Zm-354.68-.9c-.46-.46-.91-1.37-1.37-1.82l1.37-1.37a6.35,6.35,0,0,1,1.36,1.82Zm360.59-5-1.37-1.36c.46-.45.91-1.36,1.37-1.82l.91-.91,1.81,1.37-.9.91C459.72,425.07,459.26,426,458.81,426.43Zm-366-.9c-.45-.46-.91-1.37-1.36-1.82l1.36-1.37c.46.46.91,1.37,1.37,1.82Zm371.5-6.37-1.82-.91c.46-.45.91-1.36,1.37-1.82l1.82.91A6.35,6.35,0,0,0,464.26,419.16Zm-376.95,0c-.46-.45-.91-1.36-1.37-1.82L87.76,416c.45.45.91,1.36,1.36,1.82Zm-5-6.36c-.45-.46-.91-1.37-1.36-1.82l1.82-1.37c.45.46.91,1.37,1.36,1.82Zm386.06-.91-1.82-.91c.45-.91.45-1.37.91-2.28l1.81.91A3.52,3.52,0,0,0,468.36,411.89Zm-390.6-5.46c-.46-.45-.91-1.36-1.37-1.82l1.82-1.36c.46.45.91,1.36,1.36,1.82Zm393.32-2.27-1.82-.46c.46-.91.46-1.36.91-2.27l1.82.45C471.54,402.79,471.54,403.25,471.08,404.16ZM73.21,399.61c-.46-.45-.91-1.36-1.37-1.82l1.82-.91c.46.46.91,1.37,1.37,1.82Zm400.15-3.18-1.82-.46c0-.9.45-1.36.45-2.27l1.82.46A5,5,0,0,1,473.36,396.43Zm-404.7-3.64c-.45-.45-.91-1.36-1.36-1.82l1.82-.9c.45.45.91,1.36,1.36,1.81Zm407-4.54-1.82-.46c0-.91.46-1.36.46-2.27l1.82.45A4.08,4.08,0,0,0,475.63,388.25ZM64.57,385.52c-.46-.46-.91-1.37-1.36-1.82l1.81-.91a3.41,3.41,0,0,1,.91,1.82ZM477,380.06l-1.81-.45c0-.91.45-1.37.45-2.27l1.82.45A4.89,4.89,0,0,0,477,380.06ZM60.48,378.7c-.46-.91-.91-1.36-.91-2.27l1.82-.91a3.48,3.48,0,0,1,.91,2.27Zm417.88-6.37-1.82-.45a4.12,4.12,0,0,1,.45-2.27l1.82.45A3.45,3.45,0,0,0,478.36,372.33Zm-421.52-.9c-.46-.91-.46-1.37-.91-2.28l1.82-.91c.45.91.45,1.37.91,2.28Zm422.43-7.28-1.82-.45.45-2.28,1.82.46ZM53.66,363.7c-.46-.91-.46-1.37-.91-2.28l1.82-.91c.45.91.45,1.37.91,2.28ZM480.18,356l-1.82-.46.45-2.27,1.82.46Zm-429.71.45c-.45-.91-.45-1.36-.91-2.27l1.82-.45c.46.9.46,1.36.91,2.27Zm431.07-8.18-1.82-.46a4.06,4.06,0,0,1,.46-2.27L482,346A3.36,3.36,0,0,0,481.54,348.24Zm-433.34,0c0-.91-.46-1.36-.46-2.27l1.82-.46c0,.91.46,1.37.46,2.27Zm434.71-8.18-1.82-.46c0-.91.45-1.36.45-2.27l1.82.45A4.16,4.16,0,0,0,482.91,340.06Zm-437,.45c0-.91-.46-1.36-.46-2.27l1.82-.46c0,.91.45,1.37.45,2.28Zm438.34-8.64-1.82-.45c0-.91.46-1.37.46-2.27l1.81.45A5,5,0,0,0,484.27,331.87Zm-440.16.91c0-.91-.46-1.36-.46-2.27l1.82-.46c0,.91.46,1.37.46,2.28Zm442-8.64-1.82-.45c0-.91.45-1.36.45-2.27l1.82.45A19.55,19.55,0,0,1,486.09,324.14Zm-443.8.46c0-.91-.46-1.36-.46-2.27l1.82-.46c0,.91.46,1.37.46,2.27Zm446.07-8.18-1.82-.91c.46-.91.46-1.37.91-2.28l1.82.91C488.82,315.05,488.82,316,488.36,316.42ZM40,316.87l-.45-2.27,1.82-.46.45,2.28Zm451.54-7.73-1.82-.91c.45-.91.91-1.36.91-2.27l1.81.91A3.47,3.47,0,0,1,491.55,309.14Zm-453.81,0-.45-2.27,1.82-.46.45,2.28Zm457.9-6.36-1.82-1.37c0-.45.45-.45.45-.91.46-.45.46-.9.91-.9L497,301c-.45.45-.45.91-.91.91C496.09,302.32,496.09,302.32,495.64,302.78ZM35.47,301.41c0-.91-.46-1.36-.46-2.27l1.82-.45c0,.91.46,1.36.46,2.27ZM500.64,296l-1.82-.91a3.45,3.45,0,0,0,.91-1.82l1.82.91C501.55,294.59,501.09,295.05,500.64,296ZM33.19,293.68c0-.9-.45-1.36-.45-2.27l1.82-.45c0,.91.45,1.36.45,2.27Zm471.09-5.45-1.82-.91c.45-.91.45-1.36.91-2.27l1.82.91A7.48,7.48,0,0,0,504.28,288.23ZM31.38,285.5c0-.91-.46-1.36-.46-2.27l1.82-.46c0,.91.45,1.37.45,2.28Zm475.17-5-1.82-.45c0-.91.46-1.37.46-2.28l1.82.46A4,4,0,0,1,506.55,280.5Zm-477-2.73c0-.91-.46-1.36-.46-2.27l1.82-.45c0,.9.46,1.36.46,2.27Zm478.36-5.45H506.1V270h1.82A2.06,2.06,0,0,1,507.92,272.32ZM27.74,269.59c0-.91-.46-1.36-.46-2.27l1.82-.46c0,.91.46,1.37.46,2.28Zm480.63-5.46H506.1v-2.27h2.27ZM26.83,261.41a4.08,4.08,0,0,0-.46-2.28h1.82a4.08,4.08,0,0,0,.46,2.28Zm479.27-5v-2.28h1.82a4.16,4.16,0,0,0,.45,2.28ZM25.92,253.22V251h2.27v2.27Zm479.27-5c0-.91-.46-1.36-.46-2.27l1.82-.45c0,.9.46,1.36.46,2.27ZM27.74,245.5H25.46v-2.28h2.28Zm476.08-5c0-.9-.45-1.36-.45-2.27l1.82-.45c0,.91.45,1.36.45,2.27ZM28.19,237.31H26.37a4,4,0,0,1,.46-2.27l1.82.45A3.4,3.4,0,0,1,28.19,237.31Zm473.81-5c0-.91-.45-1.36-.45-2.27l1.82-.46c0,.91.45,1.37.45,2.28ZM29.56,229.58l-1.82-.45c0-.91.45-1.36.45-2.27l1.82.45A20,20,0,0,0,29.56,229.58Zm470.17-5c0-.91-.45-1.36-.45-2.27l1.81-.45c0,.9.46,1.36.46,2.27Zm-467.9-2.72L30,221.4c.46-.91.46-1.36.91-2.27l1.82.45A3.47,3.47,0,0,0,31.83,221.86Zm465.63-5c-.46-.91-.46-1.36-.91-2.27l1.82-.45c.45.91.45,1.36.91,2.27Zm-462.9-2.72-1.82-.91c.45-.91.45-1.37.91-2.28l1.82.91A7.52,7.52,0,0,0,34.56,214.13Zm460.17-5c-.46-.91-.46-1.37-.91-2.28l1.82-.45c.45.91.45,1.36.91,2.27ZM38.2,206.85l-1.82-.91c.45-.45.91-1.36,1.36-1.81l1.82.9C38.65,205.49,38.65,206.4,38.2,206.85ZM492,201.4l-.91-2.28,1.82-.91.91,2.28ZM42.29,200l-1.82-1.36c.45-.46.91-1.36,1.36-1.82l1.82.91A4.84,4.84,0,0,1,42.29,200Zm447-5.91-.91-2.27,1.82-.91.91,2.27Zm-442.43-.91L45,192.3a3.46,3.46,0,0,0,.91-1.81l1.81.91C47.29,191.85,47.29,192.76,46.84,193.21Zm439.7-6.82-.91-2.27,1.82-.45.91,2.27Zm-436.07-.45L48.65,185c.46-.91.46-1.36.91-2.27l1.82.91A3.43,3.43,0,0,1,50.47,185.94Zm433.35-7.27c-.46-.91-.46-1.37-.91-2.28l1.81-.45c.46.91.46,1.36.91,2.27Zm-430.16,0-1.82-.91c.45-.91.45-1.37.91-2.28l1.82.91C54.57,177.3,54.11,177.76,53.66,178.67Zm427.88-7.73c-.45-.91-.45-1.37-.91-2.28l1.82-.45c.46.91.46,1.36.91,2.27Zm-424.7,0L55,170c.46-.91.46-1.37.91-2.27l1.82.9C57.29,169.57,56.84,170,56.84,170.94Zm422-7.73c0-.91-.45-1.37-.45-2.27l1.82-.46c0,.91.45,1.36.45,2.27Zm-419.24,0-1.82-.46c.45-.91.45-1.36.91-2.27l1.82.46A7.39,7.39,0,0,0,59.57,163.21ZM477,155v-.91c0-.46-.45-.91-.45-1.37l1.82-.45c0,.45.45.91.45,1.36v.91Zm-414.69.45L60.48,155l.91-2.28,1.82.46Zm412-7.73c-.46-.91-.46-1.36-.91-2.27l1.82-.91c.45.91.45,1.36.91,2.27Zm-409.7,0-1.82-.45.91-2.28,1.82.46Zm406.51-7.27c-.45-.46-.91-1.37-1.36-1.82l1.82-.91c.45.45.91,1.36,1.36,1.82ZM67.3,140l-1.82-.45c.45-.91.45-1.37.91-2.27l1.82.9C67.75,138.66,67.75,139.57,67.3,140Zm399.24-6.36c-.46-.46-.91-1.37-1.37-1.82l1.82-1.36c.46.45.91,1.36,1.37,1.81ZM70,132.75l-1.82-.91c.45-.91.45-1.36.91-2.27l1.82.91C70.48,130.93,70.48,131.84,70,132.75Zm391.5-5a6.54,6.54,0,0,1-1.36-1.82l1.36-1.36c.46.45.91,1.36,1.37,1.81ZM73.21,125l-2.27-.91c.45-.91.45-1.36.9-2.27l1.82.91A19.55,19.55,0,0,1,73.21,125Zm382.41-3.18c-.45-.46-.91-.91-1.82-1.82l1.37-1.36,1.82,1.81ZM76.39,117.75l-1.82-.91c.46-.91.46-1.37.91-2.28l1.82.91C76.85,116.38,76.39,116.84,76.39,117.75Zm373.32-1.37c-.45-.45-1.36-.91-1.82-1.36l1.37-1.36c.45.45,1.36.9,1.82,1.36Zm-5.91-5.45c-.45-.46-1.36-.91-1.82-1.37l1.37-1.36c.45.45,1.36.91,1.82,1.36ZM80,110.47l-1.82-.91a6.54,6.54,0,0,1,1.36-1.82l1.82.91C80.48,109.11,80.48,110,80,110.47Zm357.4-4.54-1.81-1.37L437,103.2l1.82,1.36ZM84.12,103.65l-1.82-.91c.46-.45.91-1.36,1.37-1.81l1.82,1.36C85,102.29,84.58,102.74,84.12,103.65Zm347.4-3.18c-.45-.45-1.36-.91-1.82-1.36l1.37-1.37c.45.46,1.36.91,1.82,1.37ZM88.67,97.29l-1.82-1.36c.45-.46.91-1.37,1.36-1.82l1.37,1.36C89.58,95.93,89.12,96.38,88.67,97.29ZM425.16,95c-.46-.46-1.37-.91-1.82-1.37l1.36-1.36c.46.45,1.37.91,1.82,1.36Zm-331-4.1-1.37-1.36,1.37-1.36,1.36,1.36Zm325.12-1.36-1.82-1.82,1.36-1.36,1.82,1.82ZM99.58,85.47,98.22,84.1,100,82.29l1.36,1.36C101,84.1,100,84.56,99.58,85.47Zm314.21-1.82c-.46-.45-.91-1.36-1.36-1.82l1.36-1.36c.45.45.91,1.36,1.36,1.82Zm-308.3-4.09-1.36-1.37L106,76.38l1.36,1.36Zm302.84-2.27A6.21,6.21,0,0,0,407,75.47l1.82-1.37c.45.46.91,1.37,1.36,1.82ZM111.4,74.1,110,72.74c.46-.46,1.36-.91,1.82-1.36l1.36,1.36A6.35,6.35,0,0,0,111.4,74.1Zm291.93-3.18c-.45-.45-.91-1.36-1.36-1.82l1.36-1.36c.46.45.91,1.36,1.37,1.82Zm-286-2.27L116,67.28c.46-.45,1.37-.91,1.82-1.36l1.36,1.36A6.15,6.15,0,0,1,117.32,68.65ZM397.87,65l-1.81-1.82,1.36-1.36,1.82,1.82ZM123.68,63.65l-1.36-1.37c.45-.45,1.36-.91,1.82-1.36l1.36,1.82A2.36,2.36,0,0,0,123.68,63.65Zm268.74-4.09c-.46-.46-1.37-.91-1.82-1.37L392,56.83c.46.45,1.37.91,1.82,1.36Zm-262.37-.91-1.37-1.82c.46-.46,1.37-.91,1.82-1.37l1.37,1.82A6.21,6.21,0,0,0,130.05,58.65Zm256-4.55c-.45-.45-1.36-.91-1.82-1.36l1.37-1.82c.45.45,1.36.91,1.82,1.36Zm-249.64-.45-1.36-1.82c.45-.46,1.36-.91,1.82-1.37l1.36,1.82C137.78,52.74,136.87,53.19,136.41,53.65Zm243.28-4.1c-.46-.45-1.37-.91-1.82-1.36l1.36-1.82c.46.46,1.37.91,1.82,1.37Zm-236.91-.91-1.36-1.81c.45-.46,1.36-.91,1.81-1.37l1.37,1.82C144.14,48.19,143.69,48.64,142.78,48.64ZM372.87,45c-.46-.46-1.37-.91-1.82-1.37l.91-1.82c.45.46,1.36.91,1.81,1.37ZM149.6,44.1l-.91-1.82c.46-.46,1.37-.91,1.82-1.36l.91,1.81A2.45,2.45,0,0,1,149.6,44.1ZM366,40.92a3.39,3.39,0,0,0-1.81-.91l.91-1.82c.9.45,1.36.91,1.81.91ZM156.42,40l-.91-1.82c.46-.46,1.37-.91,1.82-1.37l.91,1.82A6.21,6.21,0,0,1,156.42,40Zm202.35-2.73c-.91-.46-1.36-.91-2.27-.91l.91-1.82c.9.46,1.36.91,2.27.91ZM163.24,35.91l-.91-1.81c.46-.46,1.37-.91,1.82-1.37l.91,1.82A6,6,0,0,1,163.24,35.91Zm188.25-2.27c-.91-.45-1.36-.45-2.27-.91l.91-1.82c.91.46,1.36.46,2.27.91Zm-181-1.82L169.61,30c.91-.45,1.36-.9,2.27-.9l.91,1.81A3.48,3.48,0,0,0,170.52,31.82Zm173.7-1.36c-.91-.46-1.37-.46-2.28-.91l.91-1.82c.91.46,1.37.46,2.28.91ZM177.79,28.19l-.91-1.82c.91-.46,1.37-.46,2.28-.91l.91,1.82A3.47,3.47,0,0,0,177.79,28.19Zm158.7-.91c-.91-.46-1.37-.46-2.28-.91l.91-1.82c.91.45,1.37.45,2.28.91Zm-7.28-2.73c-.91-.46-1.36-.46-2.27-.91l.45-1.82c.91.46,1.37.46,2.28.91Zm-144.14,0-.91-1.82c.91-.45,1.36-.45,2.27-.91l.91,1.82A7.87,7.87,0,0,1,185.07,24.55Zm136.41-2.27c-.91,0-1.36-.46-2.27-.46l.45-1.82c.91,0,1.37.46,2.28.46Zm-129.14-.91-.91-1.82c.91-.46,1.37-.46,2.28-.91l.91,1.82C193.71,20.91,193.25,21.37,192.34,21.37ZM313.3,20c-.91,0-1.37-.45-2.28-.45l.46-1.82c.91,0,1.36.45,2.27.45ZM200.07,18.64l-.45-1.82c.91-.45,1.36-.45,2.27-.91l.46,1.82A7.79,7.79,0,0,1,200.07,18.64Zm105.5-.46c-.91,0-1.37-.45-2.28-.45l.46-1.82c.91,0,1.36.46,2.27.46Zm-7.73-1.81c-.91,0-1.37-.46-2.28-.46l.46-1.82c.91,0,1.36.46,2.27.46Zm-90,0-.45-1.82c.91,0,1.36-.46,2.27-.46l.46,1.82A3.4,3.4,0,0,0,207.8,16.37Zm81.85-1.82c-.91,0-1.36-.46-2.27-.46l.45-1.82c.91,0,1.37.46,2.28.46Zm-74.12-.46-.45-1.82c.91,0,1.36-.45,2.27-.45l.46,1.82C216.9,13.64,216.44,14.09,215.53,14.09Zm66.39-.91c-.91,0-1.36-.45-2.27-.45l.45-1.82a4.08,4.08,0,0,1,2.28.46Zm-58.66-.91-.45-1.81c.91,0,1.36-.46,2.27-.46l.46,1.82A3.46,3.46,0,0,1,223.26,12.27Zm50.48,0a4.16,4.16,0,0,1-2.28-.45l.46-1.82a4,4,0,0,1,2.27.46Zm-7.73-.9h-2.28V9.55H266Zm-34.56,0L231,9.55a4.08,4.08,0,0,0,2.28-.46v1.82A2.7,2.7,0,0,0,231.45,11.37Zm26.37-.91h-2.27V8.18h2.27Zm-18.64,0V8.18h2.27v2.28ZM249.64,10h-2.28V7.73h2.28Z" transform="translate(0 1.36)"/><path class="cls-1" d="M316.94,496.9v-1.82h1.36v1.82Zm-7.28,0H308.3v-1.82h1.36Zm15.46-.91-.45-1.82h.9L326,496Zm-23.19,0h-1.36l.45-1.82h1.36Zm-8.19-.91h-1.36l.46-1.82h.9Zm39.56-.45-.45-1.82c.45,0,.91,0,.91-.46l.45,1.82C333.76,494.17,333.76,494.63,333.3,494.63Zm-47.74-1.37-.91-.45.46-1.82.9.46ZM341,491.9l-.91-1.82a1.61,1.61,0,0,0,.91-.45l.9,1.82C341.94,491.9,341.49,491.9,341,491.9Zm-63.21-.45-.91-.46.46-1.82.9.46Zm-8.18-1.82-.91-.46.45-1.82.91.46Zm78.66-.91-.91-1.82a1.57,1.57,0,0,0,.91-.45l.91,1.81A1.41,1.41,0,0,0,348.31,488.72Zm-86.39-1.37-.91-.45.45-1.82.91.46Zm93.67-2.27-.91-1.82.91-.45.91,1.82Zm-101.4,0-.91-.45.45-1.82.91.45Zm-7.74-1.82-.9-.45L246,481l.91.45Zm116.87-1.36-.91-1.82.91-.45.91,1.81Zm-125,0h-.91l.45-1.82h1.37Zm-7.73-1.37h-1.36v-1.81h1.36ZM206,480.08h-1.37v-1.82H206Zm7.27,0v-1.82h1.36v1.82Zm9.09-.45H221v-1.82h1.36Zm-24.09.45h-1.37v-1.82h1.37Zm172.33-1.36-.91-1.82.91-.46.91,1.82Zm-180.52,0h-1.36l.45-1.82h.91Zm-8.18-1.37a1.69,1.69,0,0,1-1.37-.45l.46-1.82c.45,0,.91,0,.91.45ZM378.32,476l-.91-1.82.91-.45.91,1.81Zm-204.16-.91a1.56,1.56,0,0,1-.91-.46l.45-1.81a1.57,1.57,0,0,1,.91.45Zm211.89-1.82-.91-1.82.91-.45.91,1.82Zm-219.62-.91a1.57,1.57,0,0,1-.91-.45l.91-1.82a1.57,1.57,0,0,1,.9.45Zm226.9-2.27-.91-1.82.91-.45.91,1.81ZM158.7,468.71a1.57,1.57,0,0,1-.91-.45l.91-1.82a1.56,1.56,0,0,1,.9.46Zm242.36-1.36-.91-1.82.91-.45.91,1.82Zm-249.64-2.27c-.46,0-.46-.46-.91-.46l.91-1.82c.45,0,.45.46.91.46Zm257.37-.91-.91-1.82.91-.46.91,1.82Zm7.27-3.18-.91-1.82.91-.46.91,1.82ZM144.6,461c-.46,0-.46-.46-.91-.46l.91-1.82c.45,0,.45.46.91.46Zm278.74-3.64-.91-1.82a1.61,1.61,0,0,0,.91-.45l.91,1.81C424.25,457.35,423.79,457.35,423.34,457.35Zm-285.56-.91c-.46,0-.46-.45-.91-.45l1.36-1.82c.46,0,.46.45.91.45Zm292.83-2.73-.91-1.82.91-.45.91,1.82Zm-299.2-2.27-.91-.91,1.37-1.36.91.91Zm306.48-1.36-.91-1.82c.45,0,.45-.46.91-.46l.91,1.82A1.39,1.39,0,0,0,437.89,450.08Zm-312.84-3.64-.91-.91,1.36-1.37.91.91Zm319.66-.91-.91-1.82c.46,0,.46-.45.91-.45l.91,1.81A1.41,1.41,0,0,0,444.71,445.53Zm6.82-5-1.36-1.37.91-.91,1.36,1.37ZM118.68,441l-.91-.91,1.36-1.36.91.91Zm338.76-5.91-1.36-1.36.91-.91,1.36,1.36Zm-344.67.46-.91-.91,1.36-1.37.91.91ZM461.08,431l-1.36-1.36.91-.91,1.36,1.36Zm-353.77-1.36-.91-.91,1.37-1.37c.45.46.45.46.91.91Zm357.86-5.46-1.82-.91c0-.45.46-.45.46-.91l1.82.91C465.63,423.71,465.63,423.71,465.17,424.16Zm-363.31-.91-.91-.91,1.36-1.36.91.91Zm367-6.36L467,416a1.56,1.56,0,0,1,.46-.91l1.81.91A1.57,1.57,0,0,0,468.81,416.89Zm-372,0-.91-.91,1.37-.91.91.91Zm-5-6.37-.91-.91,1.37-1.36.91.91Zm379.69-1.36-1.82-.46c0-.45,0-.9.45-.9l1.82.45A1.57,1.57,0,0,0,471.54,409.16Zm-384.69-5-.45-.91,1.81-.91.46.91Zm387-3.18-1.82-.46c0-.45,0-.91.46-.91l1.82.46C473.81,400.52,473.81,400.52,473.81,401ZM82.3,397.34l-.45-.91,1.82-.91.45.91Zm392.88-4.09-1.82-.46v-.91l1.82.46ZM77.76,390.52l-.46-.91,1.82-.91.45.91Zm398.78-5.46-1.82-.45v-1.36l1.82.45ZM73.66,383.7l-.45-.91,1.82-.91.45.91Zm403.79-6.82-1.82-.45v-1.37l1.82.46Zm-407.88-.45-.45-.91,1.82-.91.45.91Zm409.24-7.73-1.82-.46v-1.36l1.82.45Zm-413.33.45-.46-.91,1.82-.91.46.91Zm-3.64-7.27-.45-.91,1.81-.91.46.91ZM479.72,361l-1.82-.46v-1.36l1.82.46ZM58.66,354.61a1.56,1.56,0,0,0-.46-.91l1.82-.91a1.6,1.6,0,0,0,.46.91Zm422-1.82-1.82-.46V351l1.82.45ZM55.47,346.88A1.57,1.57,0,0,0,55,346l1.82-.91a1.61,1.61,0,0,0,.45.91ZM482,344.6l-1.82-.45v-1.37l1.82.46Zm-429.71-5a1.61,1.61,0,0,0-.45-.91l1.82-.45a1.61,1.61,0,0,0,.45.91Zm431.07-2.73-1.82-.45a1.65,1.65,0,0,1,.46-1.36l1.82.45A1.66,1.66,0,0,0,483.36,336.87ZM50,331.42l-.46-.91,1.82-.46.46.91Zm435.61-2.27-1.81-.46c0-.45,0-.91.45-.91l1.82.46C485.63,328.24,485.63,328.69,485.63,329.15ZM47.74,323.69l-.45-.91,1.82-.45.45.91Zm440.17-2.27-1.82-.91a1.57,1.57,0,0,1,.45-.91l1.82.91C488.36,321,488.36,321,487.91,321.42ZM45.47,316l-.45-.91,1.82-.45.45.91Zm446.08-1.36-1.82-.91c0-.46.45-.46.45-.91l1.82.91A1.43,1.43,0,0,1,491.55,314.6Zm5-6.37-1.37-1.36.91-.91,1.37,1.36A1,1,0,0,0,496.55,308.23Zm-453.81,0v-.91l1.82-.45.46.91ZM502,301.87l-1.36-1.36.91-.91,1.36,1.36ZM40.47,300.51,40,299.6l1.82-.46.46.91Zm466.08-5.46-1.82-.91c0-.45.46-.45.46-.91l1.82.91A1.6,1.6,0,0,1,506.55,295.05ZM38.2,292.78l-.46-.91,1.82-.46.45.91Zm471.53-5-1.82-.91a1.56,1.56,0,0,1,.46-.91l1.82.45A1.67,1.67,0,0,1,509.73,287.78ZM35.92,285.05l-.45-.91,1.82-.46.45.91Zm476.54-5.46-1.82-.45c0-.46,0-.91.46-.91l1.82.45A1.41,1.41,0,0,0,512.46,279.59ZM33.65,277.32l-.46-.91L35,276l.46.91Zm480.18-5.46H512V270.5h1.82Zm-482-2.72a1.67,1.67,0,0,0-.46-1.37l1.82-.45c0,.45,0,.91.46.91Zm482.45-5.46h-1.82v-1.36h1.82ZM30,261.41V260l1.82-.45V261Zm481.54-5.91v-1.37h1.82v1.37Zm-482.9-2.28v-1.36h1.82v1.36Zm482-5.91V246l1.82-.45v1.36ZM28.19,245v-1.36H30V245Zm481.09-5.45c0-.46,0-.91-.46-.91l2.28-.91a1.67,1.67,0,0,0,.45,1.36ZM30,236.86H28.19v-1.37H30Zm477.45-5.46c0-.45,0-.91-.45-.91l1.81-.45c0,.45,0,.91.46.91Zm-477-2.73H28.65v-1.36l1.82.46Zm475.17-5-.45-.91,1.82-.45.45.91ZM31.83,221,30,220.49a1.65,1.65,0,0,1,.46-1.36l1.81.45A1.69,1.69,0,0,0,31.83,221Zm471.54-5-.46-.91,1.82-.46.46.91ZM33.65,213.22l-1.82-.46a1.61,1.61,0,0,1,.45-.91l1.82.46A1.57,1.57,0,0,0,33.65,213.22Zm467-5-.46-.91,1.82-.46.46.91ZM36.38,205.94,34.56,205a1.57,1.57,0,0,1,.45-.9l1.82.9A1.41,1.41,0,0,1,36.38,205.94Zm461.53-5-.45-.91,1.82-.45.45.91ZM40,198.67l-1.81-.91c0-.45.45-.45.45-.91l1.82.91A1.41,1.41,0,0,1,40,198.67Zm455.17-5.46-.45-.9,1.82-.91.45.91ZM44.56,191.85l-1.36-1.36c.45-.46.45-.46.91-.91l1.36,1.36C45,191.4,44.56,191.4,44.56,191.85Zm447.89-6.36-.45-.91,1.82-.91.45.91Zm-442.89,0-1.36-1.37.45-.45v-.46L50,184.58l-.46.45C50,185.49,49.56,185.49,49.56,185.49ZM55,179.58l-1.36-1.37c0-.45.45-.45.45-.91l1.82,1.37A1,1,0,0,0,55,179.58Zm434.25-1.82-.45-.91,1.82-.91.45.91Zm-429.7-5-1.82-.91c0-.46.45-.46.45-.91l1.82.91A1.57,1.57,0,0,0,59.57,172.76Zm427-2.28-.45-.91,1.82-.9.45.9Zm-423.34-5-1.81-.91c0-.45.45-.45.45-.91l1.82.91A1.39,1.39,0,0,1,63.2,165.48Zm420.62-2.73-.46-.9,1.82-.46.45.91Zm-417-4.54L65,157.3a1.56,1.56,0,0,1,.46-.91l1.82.91A1.41,1.41,0,0,1,66.84,158.21ZM481.09,155a1.56,1.56,0,0,0-.46-.91l1.82-.46c0,.46,0,.46.46.91ZM70.48,150.48l-1.82-.91.46-.91,1.82.91Zm407.42-2.73c0-.45-.45-.45-.45-.91l1.82-.91a1.57,1.57,0,0,0,.45.91ZM73.21,143.21l-1.82-.91.45-.91,1.82.91Zm401.06-2.28c0-.45-.46-.45-.46-.91l1.82-.91c0,.46.46.46.46.91ZM76.39,135.48,74.57,135l.46-.91,1.82.91Zm392.87-1.37-.9-.91,1.36-1.36c.45.46.45.46.91.91Zm-5-5.91-.91-.91,1.37-1.36.91.91Zm-384.69,0-1.81-.91.45-.91,1.82.91Zm379.24-5.91-.91-.91,1.36-1.36.91.91Zm-376-1.82-1.82-.9.45-.91,1.82.91Zm370.14-4.09-.91-.91,1.36-1.36.91.91ZM86.4,113.2l-1.82-.91a1.61,1.61,0,0,1,.45-.91l1.82.91A1.43,1.43,0,0,0,86.4,113.2ZM447,110.47l-.91-.91,1.37-1.36.91.91ZM90,106.38l-1.82-.91c0-.45.46-.45.46-.91l1.82.91A1.6,1.6,0,0,0,90,106.38ZM441.53,105l-.91-.91,1.36-1.37.91.91Zm-5.46-6.37-.91-.91,1.37-1.36.9.91Zm-341.94.91L92.76,98.2c0-.46.46-.46.46-.91L95,98.2C94.58,98.65,94.58,99.11,94.13,99.56Zm336.48-6.82-.91-.91,1.37-1.36.91.91ZM99.13,93.2l-1.82-1.37.91-.91,1.36,1.37A1.57,1.57,0,0,0,99.13,93.2Zm5.45-6.37-1.36-1.36.91-.91,1.36,1.36Zm321.49-.91c0-.45-.46-.45-.46-.91l1.82-.9c0,.45.46.45.46.9ZM110,81.38,108.68,80l.91-.91L111,80.47ZM422,78.65c0-.45-.45-.45-.45-.91l1.82-.91c0,.46.45.46.45.91ZM116,75.92l-1.36-1.36.91-.91L116.86,75Zm301.48-3.63-.91-.91L417.88,70l.91.91ZM121.86,70.47,120.5,69.1l.91-.91,1.36,1.37Zm290.57-4.55-.91-.91,1.36-1.36.91.91ZM128.23,65l-1.37-1.36.91-.91,1.37,1.36ZM407,60c-.46-.45-.46-.45-.91-.91l1.36-1.36.91.91ZM134.59,60l-1.36-1.36.91-.91,1.36,1.36ZM141,55l-1.36-1.36.91-.91,1.36,1.36Zm260.1-.91-.91-.91,1.36-1.36c.46.45.46.45.91.91ZM147.33,50,146,48.64l.91-.9,1.37,1.36Zm247.82-.91-.91-.91,1.36-1.36.91.91ZM153.69,45.46l-.91-1.82.91-.45L154.6,45ZM388.78,44.1l-.91-.46,1.36-1.81.91.45ZM160.51,40.92l-.91-1.82.91-.46.91,1.82ZM382,39.55c-.46,0-.46-.45-.91-.45l.91-1.82c.45,0,.45.45.91.45ZM167.33,36.37l-.9-1.82.9-.45.91,1.82Zm207.81-.91c-.46,0-.46-.45-.91-.45l.91-1.82c.45,0,.45.45.91.45Zm-201-3.18-.91-1.82.91-.45.9,1.81Zm194.16-.91-.91-.46.91-1.81.91.45ZM181.43,28.19l-.91-1.82.91-.46.91,1.82ZM361,27.73a1.61,1.61,0,0,1-.91-.45l.91-1.82a1.57,1.57,0,0,1,.91.45Zm-7.27-3.63-.91-.46.91-1.82.91.46Zm-165.06.45-.91-1.82.91-.45.91,1.82ZM346,21.37l-.91-.46.91-1.82.91.46ZM196,20.91l-.91-1.82.91-.45.91,1.82Zm142.78-2.72a1.6,1.6,0,0,1-.91-.46l.46-1.82a1.6,1.6,0,0,1,.91.46Zm-135.5-.46-.91-1.82a1.61,1.61,0,0,0,.91-.45l.91,1.82C204.17,17.73,203.71,17.73,203.26,17.73ZM331,15.91l-.91-.45.46-1.82.91.45ZM211,15l-.46-1.82a1.57,1.57,0,0,0,.91-.45l.46,1.82A1.57,1.57,0,0,0,211,15ZM323.3,13.64l-.91-.46.46-1.81.91.45Zm-105-1.36-.45-1.82a1.6,1.6,0,0,0,.91-.46l.45,1.82C219.17,12.28,218.72,12.28,218.26,12.28Zm96.86-.91-.91-.46.45-1.82.91.46ZM226,10l-.45-1.82c.45,0,.91,0,.91-.45l.45,1.82C226.9,10,226.45,10,226,10Zm81.4-.45h-.91l.45-1.82a1.69,1.69,0,0,1,1.37.45Zm-7.73-1.37h-1.37l.46-1.81h1.36Zm-65.48,0-.46-1.81a1.67,1.67,0,0,0,1.37-.46l.45,1.82C234.63,8.18,234.63,8.18,234.18,8.18Zm57.29-.91h-1.36l.45-1.81h1.37Zm-49.56-.45L241.45,5h1.37l.45,1.82Zm41.38-.45h-1.37V4.55h1.37Zm-33.2-.46V4.09h1.37V5.91Zm25.47-.45h-1.37V3.64h1.37Zm-17.28,0V3.64h1.36V5.46Zm9.09,0H266V3.64h1.36Z" transform="translate(0 1.36)"/><path class="cls-1" d="M320.12,492.35v0Zm7.73-.45v1.82C327.85,491.9,328.3,493.72,327.85,491.9Zm-15.92,1.82v0Zm0-2.27v0Zm24.1-.91.46,1.81Zm-31.83,0-.45,1.81Zm-7.73-2.28-.45,1.82C296.47,488.26,295.56,490.08,296.47,488.26Zm46.84-.45.45,1.82C343.31,487.81,344.22,489.63,343.31,487.81Zm-55.48,0,.46-1.82ZM351,485.54l.45,1.81C351,485.54,352,487.35,351,485.54Zm-70-1.82-.45,1.82C281,483.72,280.1,485.54,281,483.72Zm78.67.91-.46-1.82Zm-87.31-1.82.46-.91ZM367,481.44l.46.91ZM273.28,481l-.45.91Zm93.67-.46.46.91C367,480.53,367,481.44,367,480.53ZM265.1,478.72l-.46,1.81Zm109.58-.46.46,1.82Zm-117.77.46v0ZM382.41,476l.46,1.82Zm-125,.91v0Zm-40.47-1.37v0Zm-8.19,1.82v0Zm40.47-.45.46-1.82Zm-24.1-1.37v0Zm-24.1-.91v1.82C201,474.62,200.53,476.44,201,474.62Zm7.73.91v0ZM241,474.17v0Zm-8.19,0V476C232.81,474.17,233.27,476,232.81,474.17Zm157.79,1.36-.46-1.82Zm-166-.91v.91C224.63,474.62,225.08,475.53,224.63,474.62Zm-31.83-1.36-.46,1.82Zm205.53-.91Zm-213.72.91.46-.91ZM397.87,471l.46,1.36Zm-212.8.45-.46.91Zm220.53-3.18.46,1.82Zm-228.26.91-.46,1.82A10.11,10.11,0,0,1,177.34,469.17Zm236-2.73.46.91Zm-244.18,1.37.91-1.82Zm244.18-2.28.46.91C413.33,465.53,413.33,466.44,413.33,465.53Zm7.28-2.73.91,1.82Zm-258.73,1.37.91-1.82Zm266.46-4.09.45.91Zm-.45-.46.45.91C427.89,459.62,428.34,460.08,427.89,459.62ZM156,458.26l-.91,1.82C156,458.26,154.6,460.08,156,458.26Zm279.65-1.37.45.91C435.62,456.89,436.07,457.35,435.62,456.89Zm-.46-.91.46.91Zm-287.38-.45.91-1.36Zm294.66-3.64.91,1.82Zm-301-.91,1.36-1.36Zm307.38-3.63.91,1.36C448.8,447.35,450.17,448.71,448.8,447.35Zm-312.39-3.19-1.36,1.37Zm318.76-1.81,1.36,1.36Zm-325.12-3.64-1.37,1.36C130.05,438.71,129.14,440.07,130.05,438.71Zm329.67-1.82,1.36.91C459.72,436.89,461.53,437.8,459.72,436.89Zm-335.58-3.64-1.37,1.37C124.14,433.25,123.23,434.62,124.14,433.25Zm339.67-3.18,1.82.91Zm-345.13-2.73-1.36,1.37ZM467.9,422.8l.91.45Zm-.91,0,.46.45C467,422.8,467.9,422.8,467,422.8Zm-353.77-1.37-1.36,1.37Zm356.5-6.36,1.82.45Zm-362.86,1.36,1.36-1.36Zm-5-6.36,1.36-.91Zm369.68-2.73,1.82.46Zm-373.32-5-1.37.91Zm376.5-2.73h0Zm-1.82-.45h.91C472.9,399.16,473.81,399.61,472.9,399.16ZM92.31,396.88l.91-.45Zm1.36-1.36-.91.45C93.67,395.52,92.76,396.43,93.67,395.52Zm381.51-4.09h0Zm-.91,0h0ZM89.12,389.16l-1.36.91Zm386.06-5.91h0ZM85,381.88l-1.82.91C85,381.88,83.21,383.25,85,381.88Zm391.06-6.82h1.81C476.09,375.06,477.9,375.52,476.09,375.06Zm-397,.91,1.82-.91Zm-2.27-7.73-1.82.91ZM477,366.88h1.82C477,366.88,478.81,367.33,477,366.88ZM72.75,361l-1.81.91C72.75,361,71.39,361.88,72.75,361Zm405.15-1.82,1.82.46C477.9,359.15,479.72,359.15,477.9,359.15ZM69.12,353.7l-1.82.9C69.12,353.7,67.75,354.6,69.12,353.7Zm411.51-2.28h0Zm-1.82-.45h0ZM65.93,346.42l-1.82.91Zm414.7-3.64,1.82.46ZM62.3,339.15l-1.82.91C62.3,339.15,60.48,339.6,62.3,339.15Zm420.15-4.09,1.37.45ZM59.11,331.42l-1.82.91C59.11,331.42,57.75,332.33,59.11,331.42Zm426.07-4.09,1.82.91C485.18,327.33,487,327.78,485.18,327.33Zm-428.8-3.64-1.81.45C56.38,323.69,54.57,324.6,56.38,323.69Zm432.89-3.64,1.37.91ZM53.66,316.42l-1.82.45Zm440.61-3.19,1.37,1.37Zm5.92-5.45,1.36,1.36Zm-449.26.91-1.82.45Zm454.71-6.37,1.37,1.37C505.64,302.32,507,303.23,505.64,302.32ZM48.2,301l-1.82.45C48.2,301,46.38,301.87,48.2,301Zm462-5.46,1.82.91ZM43.65,294.14l1.82-.46Zm470.18-5.91,1.82.91ZM42.74,285.5l-1.82.46C42.74,285.5,40.92,286.41,42.74,285.5ZM516.1,281l1.82.45ZM38.2,278.68l.91-.45Zm1.81-.45-.9.45C40,278.23,39.11,278.23,40,278.23Zm479.27-5-1.82-.46ZM37.74,270l-1.82.46C37.74,270,35.92,271,37.74,270Zm482.45-5h0Zm-1.82,0h0ZM35.92,262.32l-1.82.45Zm484.27-5.46h0ZM34.1,254.59l-1.82.45Zm485.18-5.91h0ZM32.74,246.4l-1.82.46Zm485.18-5.91-1.82.46ZM31.83,238.68h0Zm484.72-6.37-1.81.46ZM29.1,230.49h0Zm485.18-5.91-1.82.46ZM29.56,222.31h0Zm480.63-5,.91-.46Zm1.82-.46-.91.46C512,216.85,511.1,216.85,512,216.85ZM30.47,214.13l1.81.45Zm477.45-4.55.9-.45Zm1.81-.45-.91.45C509.73,209.13,508.82,209.13,509.73,209.13ZM32.28,206.4l1.82.45Zm474.73-5-1.82.45ZM34.56,198.21l1.82.91Zm467.9-3.63,1.82-.46ZM38.2,190.94l1.81.91Zm461.08-4.09,1.81-.91Zm-457-2.73,1.36.91C42.29,184.12,44.11,185,42.29,184.12Zm455.62-5.45-1.82.9ZM47.29,177.3l1.36,1.37C47.29,177.3,49.11,178.67,47.29,177.3Zm447.44-5.91-1.82.91C494.73,171.39,492.91,171.85,494.73,171.39Zm-441.53,0,1.37,1.37Zm5.91-5.45,1.37,1.36Zm430.62-1.37.91-.45Zm1.82-.91-.91.46ZM65.93,161.39l-1.36-.91Zm422-5-1.82.91C487.91,156.39,486.54,157.3,487.91,156.39ZM69.57,154.12l1.37.91Zm415.15-5-1.81.91ZM74.12,147.3l1.82.91C74.12,147.3,75.48,148.21,74.12,147.3Zm406.06-5.46-1.37.91C480.18,141.84,478.81,143.21,480.18,141.84ZM77.76,140l1.81.91Zm396.05-3.63.91-.46Zm1.82-.91-.91.45ZM81.85,133.2l1.82.91C81.85,133.2,83.21,133.66,81.85,133.2Zm388.78-4.09-1.37,1.37C470.63,129.11,468.81,130,470.63,129.11ZM85,125.93l1.82.91C85,125.93,86.85,126.38,85,125.93Zm380.14-3.18-1.36,1.36C465.17,122.75,463.81,123.66,465.17,122.75ZM90.49,119.11l-.91-.45Zm-1.82-.91.91.46Zm370.14-.45.91-.91Zm1.36-1.37Zm-367.86-5,1.82.91C92.31,111.38,94.13,111.84,92.31,111.38ZM455.17,110l-1.37.91Zm-4.55-6.82-1.36.91C450.62,103.2,448.8,104.56,450.62,103.2Zm-354.22.91,1.82.91Zm350.13-7.73-1.82.91ZM101,97.29l1.36.91Zm4.54-6.82,1.37,1.36ZM441.07,90l1.82-.9ZM111,84.1l1.36,1.37Zm328.76-2.27-1.82.91ZM116.86,78.65,118.23,80Zm317.39-3.18,1.82-.91ZM122.77,73.19l1.37,1.37ZM429.7,68.65l1.37-.91Zm-301-1.37,1.37,1.37Zm5.92-5.45L136,63.19C134.6,61.83,136,63.65,134.6,61.83Zm291.47-.46-1.37,1.37C426.07,61.37,424.7,62.28,426.07,61.37ZM141,56.83l1.37,1.36C141,56.83,141.87,58.19,141,56.83Zm278.29-.46.91-.45ZM420.61,55l-.45.91ZM146.87,51.37l1.37,1.37Zm268.28-1.82-1.36,1.37ZM153.24,46.37l1.36,1.37ZM408.79,44.1l-1.37,1.36ZM159.6,41.37,161,42.73ZM402.42,39.1l-.91,1.36C402.42,39.1,401.06,40.92,402.42,39.1Zm-236-2.73.91,1.36Zm228.26-.45.46-.91Zm.91-1.37-.45.91ZM172.79,31.82l.91,1.37C172.79,31.82,174.16,33.19,172.79,31.82Zm215.08,0,.91-1.81ZM179.61,27.28l.91,1.36Zm201.9-.91-.91,1.82C381.51,26.37,380.6,27.73,381.51,26.37Zm-7.28-3.64-.91,1.82C374.23,22.73,373.32,24.09,374.23,22.73Zm-187.8,0,.91,1.82ZM367,19.09l-.9,1.82Zm-173.24-.45.91,1.82Zm165.51-2.73-.91,1.82C359.22,15.91,358.77,17.73,359.22,15.91ZM201,15l.91,1.82Zm150.51-1.82L351,15ZM208.26,11.37l.91,1.81Zm135.05.9.45-.9Zm.45-1.81-.45.91C343.76,10.46,343.76,11.37,343.76,10.46ZM335.58,10,336,8.18ZM216,8.18l.45,1.82Zm111.86-.91v0Zm.45-.91-.45.91Zm-105-.9.46,1.81C223.26,5.46,224.17,7.27,223.26,5.46Zm96.86-.91-.46,1.81ZM231.45,3.18,231.9,5Zm80.94-.45-.46,1.82ZM304.2,1.36l-.45,1.82ZM239.63,3.18l-.45-1.82ZM296,2.27v0ZM247.36,0l.46,1.82C247.36,0,247.36,1.82,247.36,0Zm40.47-.45v0ZM255.55.91v0Zm24.1,0v0ZM263.73-1.36v0Zm8.19,0v0Z" transform="translate(0 1.36)"/></g></g></svg>