<svg width="796" height="1674" viewBox="0 0 796 1674" fill="none" xmlns="http://www.w3.org/2000/svg">
<path d="M5.49051 424.81C1.3359 487.367 2.53682 550.165 9.08018 612.518C9.08018 612.518 12.4742 644.939 16.9605 672.018C27.4807 735.551 56.3985 826.208 211.331 1079.78C240.461 1127.45 268.354 1171.57 287.504 1239.91C299.169 1281.54 302.559 1319.03 305.89 1352.78C312.502 1419.78 311.575 1475.66 309.392 1514.66V1672.75" stroke="white" stroke-width="1.05833" stroke-miterlimit="10"/>
<path d="M4.12954 424.797C4.13979 424.618 4.18546 424.442 4.26393 424.28C4.3424 424.118 4.45212 423.974 4.58678 423.854C4.72143 423.735 4.87837 423.643 5.04857 423.585C5.21876 423.526 5.39884 423.502 5.57848 423.513C5.75803 423.523 5.9338 423.569 6.09568 423.647C6.25756 423.726 6.40235 423.835 6.52176 423.97C6.64117 424.104 6.73284 424.261 6.79149 424.431C6.85015 424.6 6.87462 424.78 6.86354 424.96C6.85329 425.139 6.80767 425.315 6.7293 425.477C6.65093 425.638 6.54135 425.783 6.40686 425.902C6.27237 426.022 6.11561 426.113 5.94559 426.172C5.77557 426.231 5.59563 426.255 5.41613 426.244C5.23644 426.234 5.06049 426.188 4.89844 426.11C4.73639 426.032 4.59144 425.922 4.47188 425.788C4.35231 425.654 4.26048 425.497 4.20174 425.327C4.14299 425.157 4.11846 424.977 4.12954 424.797Z" fill="white"/>
<path d="M34.4143 142.18C32.3145 191.397 30.993 256.66 33.595 333.384C35.4885 389.239 38.5881 473.171 54.6082 581.015C71.8071 696.782 83.8051 777.552 128.154 875.023C157.75 940.071 192.483 992.165 206.077 1012.4C274.098 1113.6 312.433 1131.95 338.286 1211.9C351.981 1254.26 357.528 1299.54 361.044 1328.28C365.668 1366.01 367.715 1404.02 367.171 1442.03V1672.75" stroke="white" stroke-width="1.05833" stroke-miterlimit="10"/>
<path d="M33.0488 142.196C33.0554 142.016 33.0975 141.839 33.1726 141.676C33.2478 141.513 33.3545 141.366 33.4865 141.244C33.6186 141.122 33.7736 141.027 33.9424 140.965C34.1113 140.903 34.2907 140.875 34.4704 140.883C34.6501 140.889 34.8268 140.931 34.9903 141.006C35.1537 141.081 35.3007 141.188 35.4228 141.32C35.5449 141.452 35.6397 141.607 35.7017 141.776C35.7637 141.944 35.7918 142.124 35.7843 142.303C35.7776 142.483 35.7356 142.66 35.6604 142.823C35.5853 142.986 35.4786 143.133 35.3465 143.255C35.2144 143.377 35.0595 143.472 34.8907 143.534C34.7218 143.596 34.5424 143.624 34.3627 143.616C34.1829 143.61 34.0062 143.568 33.8428 143.493C33.6794 143.418 33.5324 143.311 33.4103 143.179C33.2882 143.047 33.1934 142.892 33.1314 142.723C33.0693 142.555 33.0413 142.375 33.0488 142.196Z" fill="white"/>
<path d="M111.509 462.439C111.206 559.466 121.388 641.057 132.527 702.644C138.321 734.651 151.411 800.214 178.061 880.274C196.772 936.493 208.823 971.977 234.971 1015.03C261.544 1058.78 272.013 1059.86 322.525 1123.53C370.697 1184.25 404.815 1227.26 429.336 1286.28C443.488 1320.34 460.203 1373.59 461.731 1445.54V1672.75" stroke="white" stroke-width="1.05833" stroke-miterlimit="10"/>
<path d="M110.153 462.51C110.153 462.148 110.296 461.801 110.553 461.545C110.809 461.29 111.156 461.146 111.518 461.146C111.88 461.146 112.228 461.29 112.484 461.545C112.74 461.801 112.884 462.148 112.884 462.51C112.884 462.872 112.74 463.219 112.484 463.475C112.228 463.731 111.88 463.875 111.518 463.875C111.156 463.875 110.809 463.731 110.553 463.475C110.296 463.219 110.153 462.872 110.153 462.51Z" fill="white"/>
<path d="M400.436 328.56C398.929 476.725 398.14 550.988 385.567 612.518C381.77 631.083 373.339 668.738 371.556 721.02C369.072 793.801 381.019 849.548 385.564 868.897C403.922 947.02 435.489 1001.65 466.989 1056.16C505.046 1122 515.706 1123.57 537.033 1166.41C571.189 1235.02 580.55 1304.75 579.935 1365.04V1672.76" stroke="white" stroke-width="1.05833" stroke-miterlimit="10"/>
<path d="M399.063 328.612C399.065 328.432 399.102 328.255 399.173 328.089C399.243 327.924 399.346 327.774 399.475 327.649C399.603 327.523 399.756 327.424 399.923 327.358C400.09 327.291 400.268 327.258 400.448 327.261C400.628 327.262 400.806 327.3 400.971 327.37C401.137 327.441 401.287 327.543 401.413 327.672C401.539 327.8 401.638 327.953 401.704 328.12C401.771 328.287 401.804 328.465 401.801 328.645C401.8 328.825 401.762 329.003 401.692 329.168C401.621 329.333 401.518 329.483 401.39 329.608C401.261 329.734 401.109 329.833 400.942 329.899C400.775 329.966 400.596 329.999 400.416 329.996C400.236 329.995 400.058 329.958 399.893 329.887C399.727 329.817 399.577 329.714 399.452 329.585C399.326 329.457 399.227 329.304 399.16 329.137C399.093 328.97 399.06 328.792 399.063 328.612Z" fill="white"/>
<path d="M445.123 5.68164C447.442 146.895 446.606 266.156 445.101 356.14C439.736 676.993 423.946 739.693 404.827 792.771C377.374 868.977 357.247 886.225 310.261 1016.78C284.81 1087.5 261.525 1153.15 246.347 1241.66C233.327 1317.63 228.921 1394.83 233.214 1471.79C233.214 1471.79 241.092 1672.75 233.214 1672.75" stroke="white" stroke-width="1.05833" stroke-miterlimit="10"/>
<path d="M443.752 5.76654C443.749 5.58682 443.781 5.40829 443.847 5.24117C443.914 5.07406 444.012 4.92165 444.138 4.79273C444.263 4.66381 444.413 4.5609 444.578 4.48992C444.743 4.41894 444.921 4.38133 445.1 4.37916C445.28 4.37615 445.459 4.40862 445.626 4.47481C445.793 4.54101 445.946 4.63957 446.075 4.76482C446.204 4.89007 446.307 5.03961 446.378 5.20475C446.449 5.36988 446.487 5.54735 446.489 5.72708C446.492 5.9068 446.459 6.08534 446.393 6.25245C446.327 6.41956 446.228 6.57198 446.103 6.70089C445.977 6.82981 445.828 6.93273 445.663 7.00371C445.497 7.07468 445.32 7.11237 445.14 7.11454C444.96 7.11755 444.781 7.085 444.614 7.01881C444.447 6.95262 444.295 6.85406 444.166 6.72881C444.037 6.60355 443.934 6.45409 443.863 6.28895C443.792 6.12381 443.754 5.94627 443.752 5.76654Z" fill="white"/>
<path d="M215.812 1.29962C220.363 58.9487 226.28 146.162 229.717 253.761C232.549 342.3 230.859 355.631 234.971 409.515C240.041 475.966 247.623 568.778 280.499 679.895C295.464 730.472 312.364 771.072 346.164 852.272C384.701 944.832 394.907 956.866 427.591 1040.4C472.912 1156.24 481.184 1204.43 483.625 1219.78C487.703 1245.41 488.609 1261.71 492.381 1351.9C495.097 1416.85 493.731 1622.04 495.69 1672.75" stroke="white" stroke-width="1.05833" stroke-miterlimit="10"/>
<path d="M214.444 1.46938C214.431 1.29007 214.452 1.10979 214.508 0.938904C214.565 0.76802 214.654 0.60984 214.771 0.47358C214.889 0.33732 215.032 0.225601 215.193 0.144854C215.354 0.0641077 215.529 0.0159275 215.708 0.00307298C215.888 -0.0107755 216.068 0.0109792 216.239 0.0670412C216.41 0.123103 216.568 0.212421 216.705 0.329799C216.841 0.447177 216.953 0.590298 217.034 0.750997C217.114 0.911697 217.163 1.08676 217.175 1.26615C217.189 1.44546 217.168 1.62574 217.111 1.79663C217.055 1.96751 216.966 2.12562 216.849 2.26188C216.731 2.39814 216.588 2.50985 216.427 2.5906C216.266 2.67135 216.091 2.71953 215.912 2.73238C215.732 2.74623 215.552 2.72455 215.381 2.66849C215.21 2.61243 215.052 2.52311 214.915 2.40573C214.779 2.28835 214.667 2.14523 214.586 1.98453C214.506 1.82383 214.457 1.64877 214.444 1.46938Z" fill="white"/>
<path d="M610.689 104.551C621.388 232.364 620.817 339.726 617.584 419.137C614.324 499.197 606.891 586.855 590.442 684.268C565.328 832.991 537.492 896.076 510.768 940.649C490.515 974.426 463.487 1011.53 463.487 1011.53C415.518 1077.37 393.259 1091.58 366.302 1131.4C337.874 1173.4 328.013 1208.75 310.261 1272.28C294.915 1327.24 278.077 1408.69 277.866 1511.16V1672.75" stroke="white" stroke-width="1.05833" stroke-miterlimit="10"/>
<path d="M609.323 104.728C609.308 104.549 609.329 104.369 609.385 104.198C609.44 104.026 609.528 103.868 609.645 103.731C609.762 103.594 609.904 103.482 610.065 103.4C610.225 103.319 610.4 103.27 610.579 103.256C610.759 103.241 610.939 103.262 611.11 103.317C611.282 103.372 611.44 103.461 611.577 103.578C611.714 103.694 611.826 103.837 611.908 103.997C611.99 104.157 612.039 104.332 612.053 104.511C612.067 104.691 612.046 104.871 611.991 105.042C611.936 105.213 611.847 105.372 611.731 105.509C611.614 105.645 611.471 105.758 611.311 105.839C611.151 105.921 610.976 105.97 610.796 105.984C610.617 105.998 610.437 105.978 610.265 105.922C610.094 105.867 609.936 105.779 609.799 105.662C609.662 105.545 609.549 105.403 609.468 105.243C609.386 105.082 609.337 104.908 609.323 104.728Z" fill="white"/>
<path d="M563.462 188.545C576.426 292.133 581.017 379.568 582.562 444.511C585.563 570.703 587.063 633.799 569.429 710.517C541.424 832.348 482.75 940.649 482.75 940.649C469.514 965.079 455.77 987.482 435.471 1029.9C423.685 1054.53 400.518 1103.37 379.435 1168.15C345.694 1271.84 336.382 1357.74 330.405 1415.78C326.863 1450.19 325.165 1479.1 324.276 1499.79V1672.75" stroke="white" stroke-width="1.05833" stroke-miterlimit="10"/>
<path d="M562.101 188.777C562.079 188.599 562.094 188.418 562.142 188.246C562.191 188.073 562.274 187.911 562.385 187.771C562.496 187.63 562.634 187.512 562.791 187.425C562.948 187.337 563.121 187.282 563.299 187.261C563.477 187.24 563.658 187.254 563.831 187.303C564.004 187.352 564.165 187.434 564.306 187.545C564.447 187.657 564.565 187.795 564.652 187.951C564.74 188.108 564.796 188.281 564.816 188.459C564.837 188.637 564.823 188.818 564.774 188.99C564.726 189.163 564.643 189.325 564.532 189.465C564.42 189.606 564.282 189.724 564.126 189.811C563.969 189.899 563.796 189.954 563.618 189.975C563.439 189.996 563.259 189.982 563.086 189.933C562.913 189.884 562.751 189.802 562.61 189.691C562.47 189.579 562.352 189.442 562.264 189.285C562.177 189.128 562.121 188.956 562.101 188.777Z" fill="white"/>
<path d="M723.524 649.266C721.109 801.037 702.198 860.788 689.378 894.272" stroke="white" stroke-width="1.05833" stroke-miterlimit="10"/>
<path d="M787.46 230.557C788.522 295.572 793.807 637.972 784.813 784.897C784.054 797.178 782.418 821.016 776.057 851.398C768.319 888.374 747.66 963.333 692.004 1036.03C677.146 1055.43 621.978 1103.51 511.643 1199.65C488.278 1220.01 468.707 1236.91 446.859 1265.28C398.016 1328.7 387.578 1384.81 385.564 1396.53C382.455 1414.74 381.281 1433.21 382.063 1451.66V1672.75" stroke="white" stroke-width="1.05833" stroke-miterlimit="10"/>
<path d="M786.09 230.646C786.087 230.467 786.12 230.288 786.186 230.121C786.252 229.954 786.351 229.802 786.476 229.673C786.601 229.544 786.751 229.441 786.916 229.37C787.081 229.299 787.259 229.261 787.439 229.259C787.619 229.256 787.797 229.288 787.965 229.355C788.132 229.421 788.284 229.519 788.413 229.645C788.542 229.77 788.645 229.919 788.716 230.085C788.787 230.25 788.825 230.427 788.827 230.607C788.83 230.787 788.798 230.965 788.731 231.132C788.665 231.299 788.566 231.452 788.441 231.581C788.316 231.71 788.166 231.813 788.001 231.884C787.836 231.955 787.658 231.992 787.478 231.994C787.298 231.997 787.12 231.965 786.953 231.899C786.785 231.832 786.633 231.734 786.504 231.609C786.375 231.483 786.272 231.334 786.201 231.169C786.13 231.004 786.092 230.826 786.09 230.646Z" fill="white"/>
<path d="M185.043 199.933C183.677 280.158 183.322 460.582 208.703 638.768C220.29 720.104 235.018 785.392 262.109 855.772C272.057 881.616 286.353 918.322 311.14 961.65C401.716 1119.97 502.232 1139.21 523.897 1257.41C526.771 1273.09 527.856 1294.4 530.025 1337.03C532.712 1389.5 532.712 1442.07 530.025 1494.54V1672.75" stroke="white" stroke-width="1.05833" stroke-miterlimit="10"/>
<path d="M183.679 199.984C183.681 199.804 183.718 199.627 183.789 199.462C183.859 199.296 183.962 199.147 184.091 199.021C184.219 198.896 184.372 198.797 184.539 198.73C184.706 198.664 184.884 198.631 185.064 198.633C185.244 198.635 185.422 198.672 185.587 198.743C185.752 198.813 185.902 198.916 186.028 199.045C186.153 199.173 186.252 199.325 186.319 199.492C186.386 199.659 186.418 199.838 186.416 200.018C186.414 200.197 186.377 200.375 186.306 200.54C186.236 200.705 186.133 200.855 186.004 200.981C185.875 201.106 185.723 201.205 185.556 201.272C185.389 201.338 185.21 201.371 185.031 201.369C184.851 201.367 184.673 201.33 184.508 201.259C184.342 201.188 184.193 201.086 184.067 200.957C183.941 200.828 183.842 200.676 183.776 200.509C183.709 200.342 183.676 200.164 183.679 199.984Z" fill="white"/>
<path d="M471.236 357.429C458.277 486.67 455.686 616.741 463.488 746.395C471.844 885.15 476.491 958.84 502.888 1059.66C522.156 1133.25 540.288 1172.42 544.914 1251.29C547.325 1292.4 546.061 1344.24 544.038 1427.17C543.184 1462.19 542.174 1491.22 541.411 1511.17V1672.75" stroke="white" stroke-width="1.05833" stroke-miterlimit="10"/>
<path d="M469.87 357.367C469.887 357.188 469.939 357.014 470.024 356.855C470.108 356.696 470.223 356.556 470.362 356.441C470.501 356.327 470.661 356.242 470.833 356.189C471.005 356.137 471.186 356.119 471.365 356.137C471.544 356.154 471.718 356.206 471.877 356.29C472.036 356.374 472.177 356.489 472.291 356.627C472.406 356.766 472.491 356.926 472.544 357.098C472.596 357.27 472.614 357.45 472.597 357.629C472.58 357.808 472.528 357.982 472.444 358.141C472.36 358.3 472.245 358.441 472.106 358.555C471.967 358.67 471.807 358.756 471.635 358.808C471.462 358.86 471.282 358.878 471.102 358.86C470.923 358.844 470.749 358.792 470.59 358.707C470.431 358.623 470.29 358.508 470.176 358.37C470.061 358.231 469.975 358.071 469.923 357.899C469.87 357.726 469.853 357.546 469.87 357.367Z" fill="white"/>
<path d="M345.269 223.558C342.679 362.601 342.415 474.838 342.663 552.136C342.986 652.942 344.145 683.797 337.409 737.64C317.24 898.924 272.379 897.541 264.746 1004.53C254.47 1148.41 333.163 1185.13 348.798 1402.66C351.729 1443.43 352.022 1484.35 349.675 1525.16C349.675 1525.16 352.301 1670.12 349.675 1672.75" stroke="white" stroke-width="1.05833" stroke-miterlimit="10"/>
<path d="M343.904 223.605C343.906 223.425 343.944 223.247 344.015 223.082C344.086 222.917 344.19 222.768 344.319 222.643C344.448 222.518 344.6 222.419 344.768 222.353C344.935 222.287 345.114 222.255 345.294 222.258C345.473 222.261 345.651 222.298 345.816 222.37C345.981 222.441 346.131 222.544 346.256 222.673C346.381 222.802 346.48 222.955 346.546 223.122C346.612 223.289 346.644 223.467 346.641 223.647C346.639 223.827 346.601 224.005 346.53 224.17C346.459 224.335 346.356 224.485 346.226 224.61C346.097 224.735 345.945 224.834 345.777 224.9C345.61 224.966 345.431 224.998 345.251 224.995C345.071 224.993 344.893 224.955 344.728 224.884C344.563 224.812 344.413 224.709 344.288 224.58C344.163 224.451 344.064 224.298 343.999 224.131C343.933 223.963 343.9 223.785 343.904 223.605Z" fill="white"/>
<path d="M1.479 835.167C54.4928 1076.49 123.589 1178.28 180.693 1225.03C185.527 1228.99 216.954 1254.4 251.611 1295.03C286.009 1335.36 334.045 1393.19 338.292 1471.79C339.118 1487.29 338.237 1502.85 335.664 1518.16V1672.75" stroke="white" stroke-width="1.05833" stroke-miterlimit="10"/>
<path d="M0.16517 835.533C0.125081 835.357 0.120063 835.176 0.150428 834.999C0.180792 834.821 0.245915 834.652 0.342077 834.5C0.438238 834.348 0.563532 834.216 0.710744 834.113C0.857956 834.009 1.02418 833.936 1.19987 833.897C1.37522 833.857 1.55673 833.852 1.73396 833.883C1.91119 833.913 2.08064 833.978 2.2326 834.074C2.38457 834.17 2.51605 834.295 2.61949 834.442C2.72294 834.589 2.79632 834.755 2.83541 834.931C2.87549 835.106 2.88051 835.288 2.85015 835.465C2.81978 835.642 2.75462 835.812 2.65846 835.964C2.5623 836.116 2.43704 836.247 2.28983 836.351C2.14262 836.454 1.97636 836.528 1.80067 836.567C1.62532 836.607 1.44384 836.611 1.26662 836.581C1.08939 836.551 0.919904 836.485 0.767935 836.389C0.615967 836.293 0.484488 836.168 0.381044 836.021C0.277599 835.874 0.204254 835.708 0.16517 835.533Z" fill="white"/>
<path d="M740.67 557.712C757.055 596.322 777.522 658.858 777.807 737.644C777.936 772.796 777.132 869.479 720.898 961.649C694.62 1004.71 683.606 1001.95 649.102 1059.65C615.061 1116.59 620.916 1127.43 585.189 1192.66C549.978 1256.95 539.233 1255.65 507.264 1320.41C483.369 1368.81 474.19 1400.29 471.368 1433.28C469.538 1454.89 470.42 1476.64 473.994 1498.03V1672.75" stroke="white" stroke-width="1.05833" stroke-miterlimit="10"/>
<path d="M739.424 558.305C739.354 558.139 739.318 557.961 739.317 557.781C739.317 557.602 739.352 557.424 739.42 557.257C739.488 557.091 739.589 556.94 739.716 556.813C739.843 556.685 739.994 556.584 740.16 556.516C740.326 556.446 740.504 556.41 740.684 556.409C740.864 556.409 741.042 556.444 741.208 556.512C741.375 556.58 741.526 556.681 741.653 556.808C741.78 556.935 741.881 557.086 741.95 557.252C742.02 557.418 742.056 557.596 742.057 557.776C742.057 557.955 742.023 558.134 741.954 558.3C741.886 558.466 741.785 558.617 741.658 558.745C741.531 558.872 741.38 558.973 741.214 559.042C741.048 559.111 740.87 559.147 740.69 559.148C740.51 559.149 740.332 559.114 740.166 559.045C739.999 558.977 739.848 558.876 739.721 558.749C739.594 558.622 739.493 558.471 739.424 558.305Z" fill="white"/>
<path d="M789.391 852.677C804.638 954.385 783.446 1017.15 760.304 1056.15C753.712 1067.26 756.631 1060.14 684.132 1152.4C645.913 1201.03 623.04 1231.09 598.328 1273.15C579.697 1304.87 567.176 1331.23 560.679 1365.03C557.526 1381.47 556.057 1398.18 556.296 1414.92V1672.75" stroke="white" stroke-width="1.05833" stroke-miterlimit="10"/>
<path d="M788.026 852.945C787.988 852.678 788.031 852.406 788.148 852.163C788.265 851.92 788.451 851.717 788.683 851.58C788.916 851.443 789.183 851.378 789.453 851.392C789.722 851.407 789.981 851.501 790.197 851.663C790.413 851.825 790.576 852.047 790.666 852.301C790.756 852.555 790.768 852.83 790.702 853.092C790.635 853.353 790.493 853.589 790.292 853.769C790.092 853.949 789.842 854.067 789.575 854.105C789.397 854.131 789.216 854.122 789.041 854.078C788.867 854.033 788.703 853.955 788.559 853.847C788.415 853.739 788.294 853.604 788.203 853.449C788.111 853.295 788.051 853.123 788.026 852.945Z" fill="white"/>
<path d="M727.186 1030.32C736.937 1108.56 718.058 1149.55 699.006 1172.53C681.784 1193.3 665.686 1197.83 642.972 1223.28C636.04 1231.05 618.42 1252.81 593.065 1327.41C556.596 1434.7 549.496 1642.64 547.537 1672.75" stroke="white" stroke-width="1.05833" stroke-miterlimit="10"/>
<path d="M725.829 1030.54C725.798 1030.28 725.847 1030.01 725.97 1029.77C726.094 1029.53 726.285 1029.33 726.521 1029.2C726.757 1029.07 727.026 1029.01 727.295 1029.03C727.564 1029.05 727.821 1029.15 728.032 1029.32C728.244 1029.49 728.401 1029.71 728.484 1029.97C728.567 1030.23 728.573 1030.5 728.499 1030.76C728.426 1031.02 728.277 1031.25 728.072 1031.43C727.866 1031.6 727.614 1031.71 727.346 1031.74C727.167 1031.77 726.987 1031.75 726.814 1031.7C726.641 1031.65 726.479 1031.57 726.338 1031.46C726.197 1031.35 726.08 1031.21 725.992 1031.05C725.905 1030.9 725.849 1030.72 725.829 1030.54Z" fill="white"/>
<path d="M721.714 892.947C719.174 946.529 706.908 1023.33 656.107 1091.15C604.65 1159.84 570.815 1143.01 502.887 1223.28C484.956 1244.47 411.393 1335.36 394.314 1470.03C391.554 1491.86 390.388 1513.86 390.824 1535.85V1672.75" stroke="white" stroke-width="1.05833" stroke-miterlimit="10"/>
<path d="M720.332 892.939C720.347 892.67 720.442 892.411 720.604 892.196C720.767 891.981 720.989 891.818 721.244 891.729C721.499 891.64 721.774 891.628 722.035 891.695C722.297 891.763 722.532 891.906 722.712 892.106C722.892 892.307 723.009 892.557 723.047 892.824C723.085 893.091 723.043 893.363 722.927 893.606C722.81 893.85 722.624 894.053 722.392 894.19C722.16 894.328 721.892 894.394 721.623 894.38C721.443 894.37 721.268 894.325 721.105 894.248C720.943 894.17 720.798 894.061 720.678 893.927C720.558 893.794 720.466 893.637 720.406 893.468C720.347 893.298 720.322 893.119 720.332 892.939Z" fill="white"/>
<path d="M50.2249 595.441C49.8607 688.562 63.5762 760.877 75.6212 808.522C95.3219 886.458 136.006 974.414 216.584 1147.15C257.766 1235.45 268.674 1255.1 280.499 1299.41C304.708 1390.13 302.383 1470.37 296.259 1525.16V1672.75" stroke="white" stroke-width="1.05833" stroke-miterlimit="10"/>
<path d="M48.8672 595.516C48.866 595.336 48.9004 595.157 48.9685 594.991C49.0366 594.824 49.137 594.672 49.2639 594.545C49.3908 594.417 49.5417 594.316 49.708 594.247C49.8743 594.177 50.0526 594.142 50.2327 594.142C50.4128 594.141 50.5913 594.175 50.758 594.243C50.9247 594.311 51.0763 594.412 51.2041 594.538C51.3318 594.665 51.4333 594.816 51.5025 594.982C51.5716 595.148 51.6072 595.327 51.6072 595.507C51.6084 595.687 51.574 595.865 51.5059 596.032C51.4378 596.198 51.3374 596.35 51.2105 596.477C51.0836 596.605 50.9327 596.706 50.7664 596.776C50.6002 596.845 50.4219 596.88 50.2418 596.88C50.0617 596.881 49.8832 596.847 49.7165 596.779C49.5497 596.711 49.3981 596.611 49.2703 596.484C49.1426 596.357 49.0412 596.206 48.972 596.04C48.9028 595.874 48.8672 595.696 48.8672 595.516Z" fill="white"/>
<path d="M634.566 484.268C655.504 559.906 659.341 624.892 658.734 670.269C658.169 712.494 656.828 774.496 630.717 849.645C605.181 923.136 568.568 972.919 550.166 997.522C508.727 1052.95 500.774 1043.44 464.363 1092.02C403.979 1172.58 384.034 1254.53 374.182 1296.78C364.811 1336.98 359.531 1378.02 358.422 1419.29V1672.75" stroke="white" stroke-width="1.05833" stroke-miterlimit="10"/>
<path d="M635.955 484.472C636.039 483.722 635.499 483.045 634.748 482.961C633.996 482.877 633.319 483.417 633.235 484.167C633.151 484.918 633.691 485.595 634.442 485.679C635.194 485.763 635.871 485.223 635.955 484.472Z" fill="white"/>
<path d="M222.853 845.689C227.128 885.336 231.399 936.308 233.22 995.775C235.086 1056.72 237.645 1140.33 226.215 1246.03C219.925 1304.2 212.894 1336.74 213.082 1400.91C213.178 1434.54 215.224 1468.14 219.21 1501.54V1672.75" stroke="white" stroke-width="1.05833" stroke-miterlimit="10"/>
<path d="M221.487 845.895C221.469 845.716 221.486 845.535 221.538 845.363C221.59 845.191 221.675 845.03 221.789 844.891C221.903 844.752 222.043 844.637 222.202 844.552C222.36 844.467 222.534 844.414 222.713 844.397C222.892 844.379 223.073 844.396 223.245 844.448C223.417 844.5 223.578 844.585 223.717 844.699C223.856 844.812 223.971 844.953 224.056 845.111C224.141 845.27 224.193 845.443 224.211 845.622C224.229 845.801 224.212 845.982 224.161 846.154C224.109 846.326 224.024 846.486 223.91 846.625C223.796 846.765 223.656 846.88 223.498 846.965C223.339 847.05 223.165 847.103 222.986 847.12C222.807 847.139 222.627 847.121 222.454 847.07C222.282 847.018 222.121 846.933 221.982 846.819C221.843 846.705 221.727 846.565 221.642 846.406C221.558 846.248 221.505 846.074 221.487 845.895Z" fill="white"/>
<path d="M96.6497 1190.98C123.989 1220.07 163.432 1269.24 192.069 1339.66C212.788 1390.65 224.633 1444.81 227.09 1499.79V1672.75" stroke="white" stroke-width="1.05833" stroke-miterlimit="10"/>
<path d="M95.6876 1191.96C95.5647 1191.83 95.4689 1191.68 95.4059 1191.51C95.3429 1191.34 95.3139 1191.16 95.3205 1190.98C95.3271 1190.8 95.3693 1190.62 95.4445 1190.46C95.5198 1190.3 95.6266 1190.15 95.7589 1190.03C95.8904 1189.91 96.0449 1189.81 96.2134 1189.75C96.3819 1189.69 96.5612 1189.66 96.741 1189.66C96.9207 1189.67 97.0974 1189.71 97.2608 1189.79C97.4243 1189.86 97.5712 1189.97 97.6933 1190.1C97.8161 1190.23 97.9116 1190.39 97.9745 1190.55C98.0374 1190.72 98.0663 1190.9 98.0597 1191.08C98.0531 1191.26 98.011 1191.44 97.9359 1191.6C97.8608 1191.76 97.7541 1191.91 97.622 1192.03C97.4906 1192.16 97.3363 1192.25 97.1678 1192.31C96.9993 1192.38 96.8201 1192.41 96.6403 1192.4C96.4606 1192.39 96.2839 1192.35 96.1204 1192.28C95.9569 1192.2 95.8098 1192.1 95.6876 1191.96Z" fill="white"/>
<path d="M153.44 1077.57C149.985 1120.9 153.927 1177.68 193.82 1217.16C198.608 1221.89 199.077 1221.59 204.326 1226.78C226.022 1248.25 247.006 1282.3 259.485 1384.28C264.618 1426.38 266.958 1468.76 266.49 1511.16V1672.75" stroke="white" stroke-width="1.05833" stroke-miterlimit="10"/>
<path d="M152.082 1077.54C152.094 1077.36 152.142 1077.19 152.222 1077.03C152.302 1076.87 152.414 1076.72 152.549 1076.6C152.685 1076.49 152.843 1076.4 153.014 1076.34C153.185 1076.28 153.365 1076.26 153.544 1076.27C153.724 1076.29 153.899 1076.33 154.061 1076.41C154.222 1076.49 154.366 1076.61 154.484 1076.74C154.602 1076.88 154.692 1077.03 154.748 1077.21C154.805 1077.38 154.827 1077.56 154.814 1077.74C154.802 1077.92 154.754 1078.09 154.674 1078.25C154.594 1078.41 154.483 1078.56 154.347 1078.67C154.211 1078.79 154.053 1078.88 153.882 1078.94C153.711 1078.99 153.531 1079.02 153.352 1079C153.172 1078.99 152.997 1078.94 152.835 1078.86C152.674 1078.78 152.531 1078.67 152.413 1078.54C152.295 1078.4 152.205 1078.24 152.148 1078.07C152.091 1077.9 152.069 1077.72 152.082 1077.54Z" fill="white"/>
<path d="M679.959 771.303C688.921 826.067 694.621 909.588 663.988 1000.15C635.935 1083.09 608.988 1078.59 567.678 1182.15C522.314 1295.88 514.447 1402.49 510.768 1457.78C507.972 1499.79 508.173 1646.96 509.015 1672.75" stroke="white" stroke-width="1.05833" stroke-miterlimit="10"/>
<path d="M678.606 771.583C678.565 771.317 678.604 771.044 678.718 770.8C678.832 770.555 679.015 770.35 679.246 770.21C679.476 770.07 679.743 770.001 680.013 770.012C680.282 770.024 680.542 770.114 680.76 770.273C680.978 770.432 681.144 770.652 681.237 770.905C681.33 771.158 681.346 771.433 681.283 771.695C681.22 771.957 681.081 772.195 680.883 772.378C680.684 772.561 680.437 772.681 680.17 772.724C679.993 772.752 679.811 772.745 679.636 772.703C679.461 772.661 679.296 772.584 679.151 772.478C679.006 772.372 678.883 772.239 678.789 772.085C678.696 771.932 678.633 771.761 678.606 771.583Z" fill="white"/>
<path d="M758.456 1027.7C751.378 1127.82 718.968 1187.29 690.253 1223.28C666.318 1253.28 658.065 1250.52 633.343 1285.41C582.812 1356.72 570.897 1433.73 566.802 1462.16C564.418 1478.69 562.955 1495.34 562.419 1512.04V1672.75" stroke="white" stroke-width="1.05833" stroke-miterlimit="10"/>
<path d="M757.075 1027.66C757.097 1027.39 757.197 1027.13 757.364 1026.92C757.531 1026.71 757.757 1026.55 758.014 1026.47C758.271 1026.38 758.546 1026.38 758.806 1026.45C759.066 1026.52 759.298 1026.67 759.473 1026.88C759.649 1027.08 759.76 1027.33 759.792 1027.6C759.824 1027.87 759.776 1028.14 759.655 1028.38C759.533 1028.62 759.342 1028.82 759.107 1028.95C758.872 1029.09 758.603 1029.15 758.334 1029.13C758.155 1029.11 757.98 1029.06 757.82 1028.98C757.659 1028.9 757.516 1028.79 757.399 1028.65C757.282 1028.52 757.193 1028.36 757.138 1028.19C757.082 1028.02 757.061 1027.84 757.075 1027.66Z" fill="white"/>
<path d="M499.688 467.654C518.762 547.578 522.197 616.308 521.274 665.892C520.488 708.024 518.562 781.715 489.755 869.772C478.852 903.098 467.723 937.122 443.35 977.399C431.297 997.32 420.155 1011.97 393.445 1056.15C372.811 1090.3 366.662 1102.7 361.925 1118.28C352.456 1149.41 354.137 1175 354.92 1190.03C356.905 1228.13 357.457 1281.8 353.169 1359.78V1672.74" stroke="white" stroke-width="1.05833" stroke-miterlimit="10"/>
<path d="M498.359 468.03C498.318 467.855 498.312 467.673 498.342 467.496C498.371 467.318 498.435 467.148 498.531 466.996C498.626 466.843 498.751 466.711 498.898 466.607C499.044 466.503 499.21 466.429 499.386 466.389C499.561 466.348 499.742 466.343 499.92 466.372C500.097 466.402 500.267 466.466 500.419 466.562C500.572 466.657 500.704 466.782 500.808 466.928C500.912 467.075 500.986 467.24 501.026 467.416C501.067 467.591 501.072 467.772 501.043 467.95C501.013 468.127 500.949 468.297 500.854 468.449C500.758 468.602 500.633 468.734 500.487 468.838C500.34 468.942 500.174 469.016 499.999 469.056C499.824 469.097 499.642 469.102 499.465 469.073C499.287 469.043 499.118 468.979 498.965 468.883C498.813 468.788 498.681 468.664 498.577 468.517C498.473 468.37 498.399 468.205 498.359 468.03Z" fill="white"/>
<path d="M88.924 652.073C82.218 780.094 107.384 870.157 131.873 929.025C150.686 974.262 166.477 994.747 223.068 1116.74C255.595 1186.86 271.858 1221.91 282.859 1255.56C299.002 1304.94 317.225 1381.12 315.479 1482.51V1672.75" stroke="white" stroke-width="1.05833" stroke-miterlimit="10"/>
<path d="M87.5617 652.081C87.5695 651.901 87.6127 651.724 87.6889 651.562C87.7651 651.399 87.8728 651.252 88.0058 651.131C88.1387 651.01 88.2943 650.916 88.4636 650.855C88.633 650.795 88.8127 650.768 88.9924 650.777C89.1723 650.784 89.3489 650.828 89.512 650.904C89.6751 650.98 89.8215 651.088 89.9428 651.221C90.0641 651.354 90.1578 651.51 90.2187 651.679C90.2795 651.848 90.3061 652.028 90.2972 652.208C90.2892 652.388 90.2458 652.564 90.1694 652.727C90.093 652.89 89.9852 653.036 89.8521 653.157C89.719 653.278 89.5632 653.371 89.3938 653.432C89.2244 653.493 89.0447 653.519 88.865 653.51C88.6853 653.502 88.509 653.459 88.3462 653.383C88.1833 653.307 88.0372 653.199 87.9161 653.066C87.795 652.933 87.7013 652.778 87.6405 652.609C87.5797 652.439 87.5529 652.26 87.5617 652.081Z" fill="white"/>
<path d="M74.8066 986.426C93.7154 1063.78 121.932 1119.57 144.557 1156.58C197.008 1242.37 243.44 1266.49 272.593 1342.48C296.725 1405.38 294.214 1465.24 288.296 1506.05V1672.75" stroke="white" stroke-width="1.05833" stroke-miterlimit="10"/>
<path d="M73.5079 986.824C73.4625 986.65 73.452 986.468 73.4773 986.289C73.5026 986.111 73.563 985.939 73.6552 985.784C73.7473 985.629 73.8693 985.493 74.0141 985.386C74.1588 985.278 74.3236 985.2 74.4987 985.156C74.6733 985.111 74.8553 985.1 75.034 985.126C75.2127 985.151 75.3846 985.211 75.5398 985.303C75.695 985.396 75.8304 985.517 75.9381 985.662C76.0459 985.807 76.1239 985.971 76.1676 986.146C76.2131 986.321 76.2235 986.503 76.1982 986.681C76.1729 986.86 76.1125 987.032 76.0203 987.187C75.9282 987.342 75.8062 987.477 75.6614 987.585C75.5167 987.693 75.352 987.771 75.1769 987.814C75.0022 987.86 74.8203 987.87 74.6416 987.845C74.4629 987.82 74.2909 987.759 74.1357 987.667C73.9805 987.575 73.8451 987.453 73.7374 987.309C73.6296 987.164 73.5516 986.999 73.5079 986.824Z" fill="white"/>
<path d="M555.847 355.719C556.19 453.552 556.076 535.882 555.847 599.52C555.73 631.32 555.543 667.45 553.431 715.971C551.201 766.924 549.496 805.976 543.16 853.587C531.547 940.826 525.741 984.442 504.506 1019.57C468.814 1078.62 432.491 1075.34 400.629 1143.91C385.718 1175.99 380.55 1204.94 376.47 1227.81C367.341 1278.96 370.25 1315.83 372.243 1356.97C374.351 1400.48 376.082 1462.2 374.055 1539.25V1672.75" stroke="white" stroke-width="1.05833" stroke-miterlimit="10"/>
<path d="M557.074 356.381C557.401 355.7 557.114 354.883 556.432 354.557C555.751 354.23 554.933 354.517 554.606 355.198C554.279 355.879 554.567 356.696 555.248 357.023C555.93 357.349 556.747 357.062 557.074 356.381Z" fill="white"/>
<path d="M272.136 693.716C279.359 756.264 291.838 805.595 302.186 839.698C317.332 889.62 327.802 906.566 357.748 999.648C370.911 1040.56 377.699 1064.68 383.718 1093.2C385.513 1101.71 392.242 1134.32 397.609 1185.54C400.633 1214.42 402.34 1240.75 404.252 1303.85C407.508 1411.24 407.876 1510.27 407.876 1510.27V1672.74" stroke="white" stroke-width="1.05833" stroke-miterlimit="10"/>
<path d="M270.793 693.947C270.772 693.769 270.786 693.588 270.835 693.416C270.883 693.243 270.966 693.082 271.077 692.941C271.188 692.8 271.325 692.683 271.482 692.595C271.638 692.507 271.811 692.451 271.989 692.43C272.167 692.409 272.347 692.423 272.52 692.472C272.693 692.521 272.854 692.603 272.995 692.714C273.136 692.825 273.254 692.962 273.341 693.119C273.429 693.275 273.485 693.447 273.506 693.625C273.527 693.803 273.513 693.984 273.464 694.156C273.416 694.329 273.334 694.49 273.223 694.631C273.112 694.772 272.974 694.889 272.817 694.977C272.661 695.065 272.489 695.12 272.31 695.142C272.132 695.163 271.952 695.149 271.779 695.1C271.606 695.051 271.445 694.969 271.304 694.858C271.163 694.747 271.046 694.61 270.958 694.453C270.87 694.297 270.814 694.125 270.793 693.947Z" fill="white"/>
<path d="M323.205 88.9255C310.958 222.169 313.632 356.362 331.174 489.012C348.209 617.665 362.169 723.082 418.143 851.161C463.166 954.186 496.829 983.684 526.249 1095.01C545.082 1166.27 550.934 1228.53 558.869 1312.9C567.426 1404 569.55 1480.58 569.733 1535.85V1672.75" stroke="white" stroke-width="1.05833" stroke-miterlimit="10"/>
<path d="M321.842 88.88C321.857 88.701 321.907 88.5267 321.99 88.3671C322.073 88.2075 322.186 88.0659 322.324 87.9502C322.461 87.8345 322.62 87.7471 322.792 87.6931C322.963 87.639 323.144 87.6194 323.323 87.6352C323.502 87.6501 323.677 87.7002 323.837 87.7828C323.997 87.8654 324.139 87.9789 324.255 88.1166C324.371 88.2543 324.458 88.4135 324.512 88.5851C324.566 88.7567 324.586 88.9373 324.57 89.1165C324.555 89.2957 324.505 89.4701 324.422 89.6298C324.339 89.7895 324.226 89.9313 324.088 90.0469C323.95 90.1626 323.791 90.25 323.619 90.3039C323.448 90.3579 323.267 90.3775 323.088 90.3614C322.908 90.3464 322.734 90.296 322.574 90.2133C322.414 90.1306 322.273 90.0171 322.157 89.8795C322.041 89.7418 321.954 89.5826 321.9 89.4111C321.846 89.2396 321.826 89.0591 321.842 88.88Z" fill="white"/>
<path d="M36.7114 1019.03C60.3797 1132.23 104.075 1190.22 140.929 1222.37C158.275 1237.51 182.923 1254.62 207.364 1290.57C238.607 1336.53 248.783 1382.8 253.264 1404.05C259.562 1433.99 261.997 1464.62 260.51 1495.19V1672.75" stroke="white" stroke-width="1.05833" stroke-miterlimit="10"/>
<path d="M35.4005 1019.38C35.3622 1019.2 35.3589 1019.02 35.391 1018.85C35.4231 1018.67 35.4898 1018.5 35.5874 1018.35C35.685 1018.2 35.8114 1018.07 35.9595 1017.97C36.1076 1017.86 36.2744 1017.79 36.4504 1017.75C36.6261 1017.72 36.8077 1017.71 36.9847 1017.75C37.1617 1017.78 37.3306 1017.84 37.4818 1017.94C37.6329 1018.04 37.7633 1018.17 37.8654 1018.31C37.9675 1018.46 38.0394 1018.63 38.0768 1018.8C38.1151 1018.98 38.1183 1019.16 38.0862 1019.34C38.0542 1019.52 37.9874 1019.68 37.8899 1019.84C37.7923 1019.99 37.6658 1020.12 37.5177 1020.22C37.3696 1020.32 37.2029 1020.39 37.0269 1020.43C36.8512 1020.47 36.6695 1020.47 36.4925 1020.44C36.3155 1020.41 36.1466 1020.34 35.9955 1020.24C35.8443 1020.15 35.714 1020.02 35.6119 1019.87C35.5098 1019.72 35.4379 1019.56 35.4005 1019.38Z" fill="white"/>
<path d="M98.2715 1221.24C115.498 1320.87 149.454 1362.75 178.379 1382.32C185.076 1386.85 192.52 1390.87 201.934 1399.82C238.876 1434.95 244.933 1487.78 244.21 1527.18V1672.75" stroke="white" stroke-width="1.05833" stroke-miterlimit="10"/>
<path d="M96.9441 1221.54C96.9117 1221.37 96.9147 1221.18 96.9529 1221.01C96.9911 1220.83 97.0636 1220.67 97.1664 1220.52C97.2692 1220.37 97.4002 1220.25 97.5519 1220.15C97.7035 1220.05 97.8729 1219.99 98.0501 1219.95C98.2273 1219.92 98.4092 1219.93 98.5852 1219.96C98.7612 1220 98.9279 1220.07 99.0757 1220.18C99.2234 1220.28 99.3494 1220.41 99.4463 1220.56C99.5432 1220.71 99.6091 1220.88 99.6402 1221.06C99.6723 1221.24 99.669 1221.42 99.6307 1221.6C99.5923 1221.77 99.5196 1221.94 99.4167 1222.09C99.3137 1222.23 99.1826 1222.36 99.0309 1222.46C98.8792 1222.55 98.7098 1222.62 98.5326 1222.65C98.3556 1222.68 98.1741 1222.68 97.9983 1222.64C97.8226 1222.6 97.6561 1222.53 97.5085 1222.43C97.3609 1222.32 97.2351 1222.19 97.1382 1222.04C97.0413 1221.89 96.9754 1221.72 96.9441 1221.54Z" fill="white"/>
<path d="M634.109 875.352C641.265 900.611 645.564 933.181 633.751 965.846C621.712 999.135 601.506 1008.84 580.604 1046.73C571.968 1062.38 562.785 1083.62 552.823 1140.28C539.499 1216.06 538.546 1276.91 537.724 1348.52C536.73 1435.05 536.173 1500.57 535.912 1533.21V1672.75" stroke="white" stroke-width="1.05833" stroke-miterlimit="10"/>
<path d="M632.797 875.787C632.726 875.527 632.733 875.252 632.818 874.996C632.903 874.74 633.061 874.515 633.274 874.349C633.487 874.183 633.744 874.084 634.013 874.064C634.282 874.044 634.551 874.104 634.786 874.237C635.021 874.37 635.211 874.569 635.333 874.81C635.454 875.051 635.502 875.322 635.469 875.59C635.437 875.858 635.325 876.11 635.15 876.314C634.974 876.519 634.741 876.667 634.481 876.739C634.308 876.788 634.127 876.801 633.949 876.78C633.77 876.758 633.598 876.701 633.441 876.613C633.285 876.524 633.147 876.406 633.037 876.264C632.926 876.122 632.845 875.96 632.797 875.787Z" fill="white"/>
<path d="M626.583 621.292C629.61 671.859 627.357 722.603 619.86 772.702C614.518 808.402 605.491 866.13 576.377 933.858C552.861 988.56 524.327 1030.98 470.688 1110.71C443.985 1150.39 442.069 1150.48 432.64 1167.44C401.513 1223.44 395.567 1274.07 387.344 1340.07C382.803 1376.51 378.684 1425.41 379.493 1483.72V1672.75" stroke="white" stroke-width="1.05833" stroke-miterlimit="10"/>
<path d="M625.207 621.43C625.197 621.251 625.223 621.071 625.283 620.902C625.343 620.732 625.436 620.577 625.557 620.443C625.677 620.31 625.823 620.201 625.986 620.124C626.148 620.047 626.324 620.003 626.504 619.995C626.684 619.985 626.863 620.011 627.033 620.071C627.202 620.131 627.358 620.224 627.492 620.344C627.625 620.465 627.734 620.611 627.811 620.773C627.888 620.935 627.932 621.111 627.941 621.291C627.95 621.471 627.924 621.65 627.864 621.82C627.804 621.989 627.711 622.145 627.591 622.278C627.47 622.412 627.325 622.52 627.162 622.597C626.999 622.674 626.823 622.718 626.644 622.727C626.464 622.736 626.284 622.711 626.115 622.65C625.945 622.59 625.789 622.498 625.656 622.377C625.522 622.257 625.414 622.111 625.337 621.949C625.26 621.786 625.216 621.61 625.207 621.43Z" fill="white"/>
<path d="M154.03 649.647C137.644 761.95 149.814 851.267 162.071 907.297C169.244 940.092 184.195 1006.31 223.669 1082.94C260.446 1154.32 282.272 1164.4 302.786 1226.59C315.379 1264.76 318.397 1303.06 323.924 1378.09C328.349 1438.16 329.938 1492.85 329.964 1541.06V1672.75" stroke="white" stroke-width="1.05833" stroke-miterlimit="10"/>
<path d="M152.673 649.527C152.698 649.349 152.758 649.178 152.849 649.022C152.94 648.867 153.061 648.732 153.204 648.624C153.348 648.516 153.512 648.437 153.686 648.392C153.86 648.347 154.041 648.337 154.219 648.363C154.398 648.387 154.569 648.447 154.724 648.538C154.88 648.629 155.015 648.75 155.123 648.893C155.232 649.037 155.311 649.2 155.355 649.374C155.4 649.548 155.41 649.73 155.385 649.908C155.36 650.086 155.301 650.257 155.209 650.412C155.118 650.567 154.998 650.703 154.854 650.811C154.71 650.919 154.547 650.998 154.372 651.043C154.198 651.088 154.017 651.098 153.839 651.072C153.66 651.048 153.489 650.988 153.334 650.897C153.179 650.806 153.043 650.685 152.935 650.542C152.826 650.398 152.748 650.235 152.703 650.06C152.658 649.886 152.648 649.705 152.673 649.527Z" fill="white"/>
<path d="M242.51 850.65C246.588 896.346 256.468 962.053 282.859 1037.07C307.741 1107.81 340.563 1167.65 349.897 1184.34C395.349 1265.63 426.06 1293.37 443.507 1362.4C452.504 1398.01 453.906 1428.51 453.774 1448.11V1672.75" stroke="white" stroke-width="1.05833" stroke-miterlimit="10"/>
<path d="M241.159 850.846C241.142 850.667 241.16 850.486 241.213 850.314C241.266 850.142 241.352 849.982 241.467 849.844C241.581 849.705 241.722 849.591 241.882 849.507C242.041 849.423 242.215 849.372 242.394 849.355C242.573 849.338 242.754 849.356 242.926 849.409C243.099 849.462 243.259 849.548 243.397 849.663C243.536 849.778 243.65 849.919 243.734 850.078C243.818 850.237 243.869 850.412 243.886 850.591C243.903 850.77 243.884 850.951 243.831 851.122C243.778 851.294 243.692 851.454 243.577 851.592C243.462 851.731 243.321 851.845 243.162 851.929C243.002 852.012 242.828 852.064 242.649 852.08C242.47 852.097 242.289 852.079 242.118 852.026C241.946 851.973 241.786 851.887 241.648 851.772C241.509 851.657 241.395 851.517 241.311 851.358C241.227 851.199 241.176 851.025 241.159 850.846Z" fill="white"/>
<path d="M93.3254 1134.73C134.302 1197.72 176.967 1235.79 209.178 1259.19C238.529 1280.51 247.542 1281.19 269.572 1302.65C283.207 1315.93 329.313 1363.94 342.651 1440.26C345.908 1458.91 347.472 1474.75 346.274 1485.53C345.667 1490.96 346.274 1672.75 346.274 1672.75" stroke="white" stroke-width="1.05833" stroke-miterlimit="10"/>
<path d="M92.2405 1135.54C92.1405 1135.39 92.0711 1135.22 92.0362 1135.05C92.0013 1134.87 92.0016 1134.69 92.0371 1134.51C92.0727 1134.34 92.1427 1134.17 92.2432 1134.02C92.3438 1133.87 92.4728 1133.74 92.6229 1133.64C92.7724 1133.54 92.9403 1133.47 93.1168 1133.44C93.2933 1133.4 93.475 1133.4 93.6514 1133.44C93.8277 1133.48 93.9953 1133.55 94.1446 1133.65C94.2938 1133.75 94.4217 1133.88 94.5209 1134.03C94.6209 1134.17 94.6903 1134.34 94.7252 1134.52C94.7601 1134.7 94.7598 1134.88 94.7243 1135.05C94.6887 1135.23 94.6187 1135.4 94.5182 1135.55C94.4177 1135.7 94.2887 1135.82 94.1386 1135.92C93.989 1136.02 93.8211 1136.09 93.6446 1136.13C93.4681 1136.16 93.2864 1136.16 93.1101 1136.13C92.9337 1136.09 92.7661 1136.02 92.6169 1135.92C92.4676 1135.82 92.3397 1135.69 92.2405 1135.54Z" fill="white"/>
<path d="M593.599 955.037C602.17 989.912 608.164 1039.6 589.06 1090.79C585.428 1100.52 579.946 1110.48 569.13 1130.02C511.214 1234.64 481.448 1258.57 471.894 1317.74C471.037 1323.04 470.518 1336.57 469.479 1363.61C466.977 1428.7 467.755 1481.54 468.872 1516.92V1672.75" stroke="white" stroke-width="1.05833" stroke-miterlimit="10"/>
<path d="M592.273 955.424C592.211 955.161 592.228 954.886 592.322 954.634C592.416 954.381 592.583 954.162 592.802 954.004C593.021 953.846 593.281 953.756 593.551 953.746C593.82 953.736 594.087 953.806 594.317 953.947C594.547 954.089 594.729 954.295 594.842 954.539C594.955 954.784 594.993 955.057 594.95 955.324C594.908 955.59 594.788 955.838 594.605 956.036C594.422 956.234 594.184 956.373 593.922 956.437C593.747 956.479 593.566 956.486 593.388 956.458C593.21 956.43 593.04 956.367 592.887 956.273C592.734 956.178 592.601 956.055 592.495 955.909C592.39 955.764 592.314 955.599 592.273 955.424Z" fill="white"/>
<path d="M582.432 821.683C583.155 885.744 567.691 929.747 552.823 958.603C539.984 983.519 529.742 992.965 515.982 1019.56C491.263 1067.34 500.518 1092.18 483.373 1145.71C470.406 1186.2 454.815 1209.2 444.117 1229.01C418.811 1275.88 393.844 1354.99 400.029 1495.19V1672.75" stroke="white" stroke-width="1.05833" stroke-miterlimit="10"/>
<path d="M581.056 821.762C581.056 821.492 581.136 821.229 581.286 821.005C581.435 820.781 581.648 820.606 581.897 820.502C582.145 820.399 582.419 820.371 582.684 820.423C582.948 820.474 583.192 820.603 583.383 820.793C583.575 820.982 583.706 821.224 583.76 821.488C583.814 821.752 583.788 822.026 583.687 822.276C583.585 822.525 583.412 822.739 583.189 822.891C582.966 823.042 582.704 823.124 582.434 823.126C582.254 823.128 582.075 823.094 581.908 823.026C581.741 822.958 581.589 822.858 581.461 822.731C581.333 822.604 581.231 822.453 581.162 822.287C581.092 822.12 581.056 821.942 581.056 821.762Z" fill="white"/>
<path d="M694.899 629.133C702.55 695.63 703.713 762.713 698.373 829.434C695.022 871.176 690.117 928.595 669.988 1000.25C649.961 1071.56 639.948 1107.22 621.068 1142.7C611.704 1160.3 592.138 1194.04 586.039 1242.89C584.001 1259.21 584.16 1271.67 584.227 1277.3C584.81 1326.53 584.896 1414.57 584.834 1533.21V1672.75" stroke="white" stroke-width="1.05833" stroke-miterlimit="10"/>
<path d="M693.537 629.348C693.517 629.17 693.533 628.989 693.583 628.816C693.633 628.644 693.717 628.483 693.83 628.343C693.943 628.203 694.082 628.086 694.24 628C694.398 627.914 694.571 627.86 694.75 627.841C694.929 627.822 695.11 627.837 695.283 627.888C695.455 627.938 695.617 628.022 695.757 628.135C695.897 628.247 696.013 628.387 696.099 628.544C696.185 628.702 696.239 628.876 696.258 629.054C696.279 629.234 696.265 629.415 696.215 629.589C696.165 629.763 696.081 629.925 695.969 630.066C695.856 630.207 695.716 630.324 695.557 630.411C695.399 630.497 695.224 630.552 695.045 630.571C694.865 630.59 694.684 630.574 694.51 630.523C694.337 630.472 694.176 630.388 694.035 630.274C693.895 630.16 693.779 630.02 693.693 629.861C693.608 629.702 693.554 629.528 693.537 629.348Z" fill="white"/>
<path d="M675.175 1093.27C666.452 1141.34 648.336 1232.74 619.86 1322.56C607.932 1360.19 601.9 1379.22 590.275 1406.46C570.151 1453.59 558.273 1466.74 548.602 1500.62C542.768 1521.06 537.018 1632.56 540.147 1672.75" stroke="white" stroke-width="1.05833" stroke-miterlimit="10"/>
<path d="M673.812 1093.09C673.862 1092.83 673.989 1092.58 674.178 1092.39C674.366 1092.2 674.608 1092.06 674.872 1092.01C675.136 1091.95 675.41 1091.98 675.66 1092.08C675.911 1092.18 676.126 1092.35 676.279 1092.57C676.432 1092.79 676.515 1093.06 676.519 1093.33C676.523 1093.59 676.446 1093.86 676.3 1094.09C676.153 1094.31 675.943 1094.49 675.695 1094.6C675.448 1094.7 675.174 1094.73 674.909 1094.69C674.732 1094.65 674.563 1094.59 674.412 1094.49C674.26 1094.39 674.13 1094.27 674.028 1094.12C673.926 1093.97 673.855 1093.8 673.818 1093.63C673.78 1093.45 673.778 1093.27 673.812 1093.09Z" fill="white"/>
<path d="M435.909 1124.36C443.183 1132.75 452.999 1145.89 460.42 1163.82C469.917 1186.77 470.853 1206.36 471.29 1215.13C473.449 1258.42 479.545 1301.55 479.746 1344.9C479.913 1381 481.073 1433.37 485.784 1499.41V1672.75" stroke="white" stroke-width="1.05833" stroke-miterlimit="10"/>
<path d="M434.904 1125.31C434.729 1125.1 434.619 1124.85 434.588 1124.58C434.557 1124.31 434.606 1124.04 434.729 1123.8C434.852 1123.56 435.043 1123.36 435.278 1123.23C435.514 1123.1 435.783 1123.04 436.052 1123.06C436.32 1123.08 436.577 1123.18 436.789 1123.35C437.001 1123.52 437.159 1123.74 437.242 1124C437.326 1124.25 437.332 1124.53 437.26 1124.79C437.187 1125.05 437.039 1125.28 436.835 1125.46C436.698 1125.57 436.54 1125.66 436.369 1125.72C436.198 1125.78 436.017 1125.8 435.838 1125.78C435.658 1125.77 435.483 1125.72 435.323 1125.64C435.163 1125.56 435.02 1125.44 434.904 1125.31Z" fill="white"/>
<path d="M272.741 502.983C283.874 598.689 309.958 719.88 370.432 848.752C402.882 917.905 433.244 964.036 433.244 964.036C460.878 1005.3 465.822 1003.26 479.747 1029.83C503.784 1075.7 508.143 1118.21 513.565 1176.5C515.802 1200.52 514.371 1196.82 517.19 1274.28C519.953 1350.21 521.647 1362.56 523.23 1413.7C524.193 1444.87 525.102 1489.99 524.444 1545.28V1672.75" stroke="white" stroke-width="1.05833" stroke-miterlimit="10"/>
<path d="M271.4 503.218C271.378 503.04 271.391 502.858 271.439 502.685C271.486 502.511 271.568 502.349 271.679 502.207C271.79 502.066 271.928 501.947 272.084 501.859C272.241 501.77 272.414 501.714 272.593 501.693C272.771 501.67 272.952 501.683 273.126 501.731C273.299 501.779 273.461 501.86 273.603 501.971C273.745 502.081 273.864 502.219 273.952 502.375C274.041 502.532 274.097 502.704 274.119 502.883C274.141 503.061 274.128 503.243 274.08 503.416C274.033 503.589 273.951 503.752 273.84 503.893C273.729 504.035 273.592 504.154 273.435 504.242C273.278 504.33 273.105 504.387 272.926 504.408C272.748 504.431 272.567 504.418 272.393 504.37C272.22 504.322 272.058 504.241 271.916 504.13C271.774 504.02 271.655 503.882 271.567 503.726C271.478 503.569 271.422 503.397 271.4 503.218Z" fill="white"/>
<path d="M615.248 977.388C618.863 998.857 621.972 1031.28 616.237 1069.66C608.88 1118.9 590.56 1153.94 573.357 1186.15C550.788 1228.42 545.932 1224.11 497.26 1300.83C457.191 1363.99 449.57 1384.11 444.717 1402.84C437.257 1431.62 435.785 1459.25 434.45 1484.32C432.805 1515.19 433.753 1654.09 435.057 1672.75" stroke="white" stroke-width="1.05833" stroke-miterlimit="10"/>
<path d="M613.89 977.674C613.848 977.407 613.887 977.134 614 976.89C614.113 976.645 614.297 976.439 614.527 976.299C614.757 976.158 615.024 976.089 615.294 976.1C615.563 976.111 615.824 976.201 616.042 976.359C616.26 976.518 616.426 976.738 616.52 976.99C616.613 977.243 616.63 977.518 616.567 977.781C616.504 978.043 616.365 978.281 616.168 978.464C615.97 978.647 615.722 978.768 615.456 978.811C615.278 978.839 615.097 978.833 614.922 978.791C614.747 978.749 614.582 978.673 614.436 978.567C614.291 978.462 614.168 978.328 614.074 978.175C613.98 978.022 613.918 977.851 613.89 977.674Z" fill="white"/>
<path d="M482.16 419.698C482.486 519.8 481.39 613.75 479.74 705.099C478.951 749.071 477.179 820.987 452.574 904.886C444.343 932.92 437.251 949.733 434.45 956.189C406.582 1020.37 374.918 1045.45 339.625 1091.39C319.627 1117.44 271.889 1180.8 250.85 1267.64C241.372 1306.76 240.304 1343.21 238.167 1416.12C236.618 1468.96 237.864 1512.99 239.381 1544.08V1672.75" stroke="white" stroke-width="1.05833" stroke-miterlimit="10"/>
<path d="M480.794 419.766C480.794 419.404 480.938 419.057 481.194 418.801C481.45 418.545 481.797 418.402 482.159 418.402C482.522 418.402 482.869 418.545 483.125 418.801C483.381 419.057 483.525 419.404 483.525 419.766C483.525 420.128 483.381 420.475 483.125 420.731C482.869 420.987 482.522 421.131 482.159 421.131C481.797 421.131 481.45 420.987 481.194 420.731C480.938 420.475 480.794 420.128 480.794 419.766Z" fill="white"/>
<path d="M429.144 586.115C410.642 707.428 425.113 798.128 441.802 858.636C469.79 960.076 508.087 991.311 539.927 1124.68C554.396 1185.29 559.28 1232.43 567.13 1308.18C577.371 1407.05 579.812 1612.9 579.938 1672.75" stroke="white" stroke-width="1.05833" stroke-miterlimit="10"/>
<path d="M427.788 585.984C427.814 585.806 427.874 585.635 427.966 585.481C428.058 585.326 428.18 585.191 428.324 585.084C428.469 584.976 428.633 584.899 428.808 584.855C428.982 584.811 429.164 584.802 429.342 584.829C429.52 584.855 429.691 584.915 429.846 585.007C430 585.099 430.135 585.221 430.243 585.365C430.35 585.509 430.428 585.673 430.472 585.848C430.516 586.022 430.524 586.204 430.498 586.382C430.472 586.56 430.412 586.731 430.32 586.885C430.227 587.04 430.106 587.175 429.961 587.282C429.817 587.39 429.653 587.467 429.478 587.511C429.304 587.555 429.122 587.564 428.944 587.537C428.766 587.511 428.595 587.451 428.44 587.359C428.285 587.267 428.15 587.145 428.043 587.001C427.936 586.857 427.858 586.693 427.814 586.518C427.77 586.344 427.761 586.162 427.788 585.984Z" fill="white"/>
<path d="M270.711 774.49C260.924 904.291 290.62 989.61 320.358 1044.09C362.591 1121.45 408.903 1143.93 459.286 1258.66C487.669 1323.3 499.858 1377.39 504.954 1403.33C513.921 1449.06 518.153 1495.59 517.585 1542.18V1672.75" stroke="white" stroke-width="1.05833" stroke-miterlimit="10"/>
<path d="M269.35 774.464C269.362 774.285 269.409 774.109 269.489 773.948C269.569 773.787 269.68 773.643 269.815 773.525C269.951 773.407 270.109 773.316 270.279 773.259C270.45 773.202 270.63 773.179 270.81 773.192C270.99 773.204 271.165 773.251 271.326 773.331C271.488 773.411 271.632 773.521 271.75 773.657C271.868 773.792 271.958 773.95 272.016 774.121C272.073 774.291 272.096 774.471 272.083 774.651C272.071 774.83 272.024 775.006 271.944 775.167C271.864 775.328 271.753 775.472 271.618 775.59C271.482 775.708 271.324 775.799 271.154 775.856C270.983 775.913 270.803 775.936 270.623 775.923C270.444 775.911 270.268 775.864 270.107 775.784C269.946 775.705 269.802 775.594 269.683 775.458C269.565 775.323 269.475 775.165 269.418 774.994C269.36 774.824 269.338 774.644 269.35 774.464Z" fill="white"/>
<path d="M174.585 785.172C171.482 878.997 189.956 947.791 207.66 993.598C235.848 1066.52 255.25 1063.49 320.357 1193.61C327.856 1208.6 367.04 1287.69 395.164 1381.98C403.75 1410.76 411.307 1440.96 415.567 1478.1C419.33 1510.91 419.32 1652.76 418.481 1672.75" stroke="white" stroke-width="1.05833" stroke-miterlimit="10"/>
<path d="M173.221 785.203C173.225 785.023 173.265 784.846 173.339 784.681C173.412 784.517 173.517 784.369 173.648 784.245C173.779 784.122 173.933 784.025 174.101 783.961C174.27 783.897 174.449 783.867 174.629 783.873C174.809 783.878 174.986 783.918 175.15 783.991C175.314 784.065 175.462 784.17 175.586 784.3C175.71 784.431 175.806 784.585 175.87 784.753C175.934 784.921 175.964 785.1 175.958 785.28C175.953 785.46 175.913 785.637 175.84 785.801C175.766 785.965 175.661 786.113 175.531 786.236C175.4 786.36 175.246 786.456 175.078 786.52C174.91 786.584 174.731 786.614 174.551 786.608C174.372 786.604 174.194 786.564 174.03 786.491C173.866 786.417 173.717 786.313 173.594 786.182C173.47 786.051 173.374 785.898 173.31 785.73C173.246 785.561 173.215 785.382 173.221 785.203Z" fill="white"/>
<path d="M236.693 621.079C231.382 682.471 237.676 732.773 244.582 767.367C252.972 809.416 266.613 877.788 313.56 943.104C329.339 965.066 343.145 978.686 356.308 1009.13C374.765 1051.82 375.273 1089 375.737 1104.28C378.834 1205.58 407.027 1224 426.26 1390.71C432.126 1441.55 438.203 1581.74 436.947 1672.73" stroke="white" stroke-width="1.05833" stroke-miterlimit="10"/>
<path d="M235.335 621.041C235.348 620.861 235.397 620.687 235.479 620.526C235.56 620.366 235.672 620.223 235.809 620.107C235.946 619.99 236.104 619.901 236.276 619.846C236.447 619.79 236.627 619.769 236.806 619.784C236.986 619.797 237.161 619.846 237.321 619.928C237.482 620.009 237.624 620.121 237.741 620.258C237.858 620.395 237.947 620.553 238.002 620.724C238.058 620.895 238.079 621.075 238.064 621.255C238.051 621.434 238.002 621.608 237.92 621.769C237.839 621.929 237.727 622.071 237.59 622.188C237.454 622.305 237.295 622.394 237.124 622.449C236.953 622.505 236.773 622.526 236.594 622.511C236.415 622.498 236.239 622.449 236.079 622.368C235.918 622.287 235.775 622.175 235.658 622.038C235.541 621.901 235.452 621.743 235.397 621.572C235.341 621.4 235.32 621.22 235.335 621.041Z" fill="white"/>
<path d="M509.145 690.954C520.627 737.855 531.013 802.89 525.351 879.996C523.543 904.598 522.013 904.326 513.693 970.295C500.392 1075.68 501.404 1099.18 492.319 1165.45C481.081 1247.43 473.556 1255.1 462.201 1325.66C453.199 1381.61 444.107 1570.92 446.657 1672.75" stroke="white" stroke-width="1.05833" stroke-miterlimit="10"/>
<path d="M507.821 691.345C507.779 691.17 507.772 690.989 507.8 690.811C507.828 690.634 507.891 690.463 507.985 690.31C508.079 690.157 508.203 690.024 508.349 689.919C508.495 689.813 508.66 689.738 508.835 689.697C509.01 689.654 509.191 689.647 509.368 689.675C509.546 689.703 509.716 689.766 509.87 689.86C510.023 689.954 510.156 690.077 510.261 690.223C510.367 690.368 510.442 690.533 510.484 690.708C510.526 690.883 510.533 691.064 510.504 691.241C510.476 691.418 510.412 691.588 510.318 691.741C510.224 691.894 510.1 692.027 509.955 692.132C509.809 692.237 509.644 692.312 509.469 692.353C509.295 692.395 509.114 692.402 508.936 692.374C508.759 692.346 508.589 692.284 508.436 692.19C508.283 692.097 508.15 691.974 508.044 691.829C507.939 691.684 507.863 691.519 507.821 691.345Z" fill="white"/>
<path d="M131.756 833.713C126.816 885.182 125.971 960.732 151.312 1045.06C181.743 1146.32 226.703 1182.93 264.01 1280.99C285.436 1337.32 307.169 1421.37 301.899 1535.85V1672.74" stroke="white" stroke-width="1.05833" stroke-miterlimit="10"/>
<path d="M130.395 833.66C130.411 833.481 130.462 833.307 130.545 833.148C130.629 832.988 130.743 832.847 130.881 832.732C131.019 832.617 131.179 832.53 131.35 832.477C131.522 832.424 131.703 832.405 131.882 832.421C132.061 832.437 132.235 832.488 132.395 832.571C132.554 832.654 132.696 832.768 132.811 832.906C132.926 833.044 133.013 833.203 133.067 833.375C133.12 833.546 133.139 833.727 133.123 833.906C133.107 834.085 133.056 834.259 132.973 834.419C132.89 834.578 132.776 834.72 132.638 834.835C132.499 834.95 132.34 835.037 132.168 835.09C131.996 835.144 131.815 835.163 131.636 835.146C131.457 835.13 131.282 835.08 131.123 834.996C130.963 834.913 130.822 834.799 130.706 834.661C130.591 834.523 130.504 834.363 130.451 834.192C130.397 834.02 130.378 833.839 130.395 833.66Z" fill="white"/>
<path d="M457.147 791.955C450.069 837.877 433.115 908.761 388.365 983.887C356.201 1037.89 328.588 1040.44 291.212 1103.31C253.215 1167.25 239.449 1226.58 232.921 1255.75C222.524 1302.22 221.029 1336.32 218.347 1397.51C215.587 1460.5 216.933 1631.34 219.21 1672.75" stroke="white" stroke-width="1.05833" stroke-miterlimit="10"/>
<path d="M455.776 791.805C455.819 791.539 455.94 791.291 456.124 791.094C456.308 790.897 456.547 790.759 456.809 790.697C457.072 790.634 457.347 790.652 457.599 790.746C457.852 790.84 458.072 791.006 458.23 791.225C458.388 791.443 458.478 791.704 458.488 791.973C458.498 792.242 458.428 792.509 458.287 792.738C458.146 792.968 457.94 793.151 457.695 793.264C457.45 793.377 457.177 793.415 456.911 793.373C456.733 793.345 456.562 793.282 456.409 793.188C456.256 793.094 456.122 792.97 456.017 792.824C455.911 792.679 455.836 792.514 455.794 792.339C455.753 792.164 455.747 791.982 455.776 791.805Z" fill="white"/>
<path d="M644.252 712.298C671.424 803.045 668.914 873.164 661.365 920.777C658.178 940.901 655.59 947.498 626.39 1050.88C596.907 1155.27 582.164 1207.46 578.785 1222.74C555.876 1326.3 551.849 1411.72 549.638 1463.53C547.341 1517.4 548.158 1638.15 549.638 1672.75" stroke="white" stroke-width="1.05833" stroke-miterlimit="10"/>
<path d="M642.949 712.75C642.898 712.578 642.881 712.397 642.9 712.218C642.919 712.039 642.974 711.866 643.06 711.708C643.146 711.55 643.263 711.411 643.403 711.298C643.543 711.186 643.705 711.102 643.877 711.052C644.05 711.001 644.231 710.984 644.41 711.003C644.589 711.022 644.762 711.076 644.92 711.163C645.078 711.249 645.217 711.366 645.33 711.506C645.443 711.646 645.526 711.807 645.577 711.98C645.628 712.152 645.644 712.333 645.625 712.512C645.606 712.691 645.552 712.864 645.466 713.022C645.379 713.18 645.263 713.319 645.122 713.431C644.982 713.544 644.821 713.628 644.648 713.678C644.476 713.729 644.295 713.746 644.116 713.727C643.937 713.707 643.763 713.653 643.605 713.567C643.448 713.481 643.308 713.364 643.196 713.224C643.083 713.084 642.999 712.923 642.949 712.75Z" fill="white"/>
<path d="M666.564 404.869C676.546 506.625 674.285 592.36 669.457 655.771C661.937 754.527 654.81 838.2 610.347 935.233C591.305 976.793 584.734 972.418 539.872 1052.24C492.839 1135.94 469.315 1177.79 452.347 1230.6C432.32 1292.91 428.009 1351.66 419.381 1469.16C415.955 1515.82 414.44 1645.77 413.698 1672.75" stroke="white" stroke-width="1.05833" stroke-miterlimit="10"/>
<path d="M665.2 405.071C665.183 404.892 665.202 404.711 665.255 404.54C665.308 404.368 665.394 404.208 665.509 404.07C665.624 403.932 665.765 403.818 665.924 403.734C666.083 403.651 666.257 403.599 666.436 403.583C666.616 403.566 666.796 403.584 666.968 403.637C667.14 403.69 667.3 403.777 667.438 403.891C667.577 404.006 667.691 404.147 667.775 404.307C667.859 404.466 667.91 404.64 667.926 404.819C667.943 404.998 667.925 405.179 667.872 405.351C667.819 405.523 667.732 405.682 667.617 405.821C667.502 405.959 667.361 406.073 667.201 406.157C667.042 406.241 666.868 406.292 666.688 406.308C666.509 406.325 666.329 406.306 666.157 406.253C665.985 406.2 665.825 406.113 665.687 405.998C665.548 405.883 665.434 405.742 665.351 405.583C665.267 405.424 665.216 405.25 665.2 405.071Z" fill="white"/>
<path d="M750.565 771.746C767.583 824.3 782.532 903.997 754.71 986.354C735.061 1044.52 697.663 1093.42 683.098 1112.45C646.554 1160.23 632.556 1161.54 603.529 1204.47C574.378 1247.59 562.462 1284.79 545.99 1336.21C532.486 1378.38 516.834 1438.13 508.574 1512.39V1672.75" stroke="white" stroke-width="1.05833" stroke-miterlimit="10"/>
<path d="M749.266 772.225C749.186 771.967 749.184 771.692 749.26 771.434C749.337 771.175 749.488 770.945 749.695 770.772C749.903 770.599 750.156 770.492 750.424 770.463C750.693 770.434 750.963 770.486 751.202 770.61C751.442 770.735 751.638 770.928 751.768 771.165C751.897 771.401 751.954 771.671 751.93 771.939C751.907 772.208 751.804 772.463 751.635 772.674C751.467 772.884 751.239 773.04 750.982 773.121C750.811 773.175 750.63 773.195 750.451 773.179C750.271 773.164 750.097 773.113 749.938 773.03C749.778 772.946 749.637 772.832 749.522 772.694C749.406 772.556 749.319 772.397 749.266 772.225Z" fill="white"/>
<path d="M468.547 538.893C488.926 629.218 492.498 700.859 492.13 747.79C491.718 800.669 486.256 829.683 483.036 844.351C472.685 891.646 462.18 897.753 447.8 947.73C440.657 972.555 428.295 1023.01 428.475 1084.04C428.596 1125.19 434.304 1133.45 442.116 1203.33C446.448 1242.08 448.094 1272.86 451.209 1332.83C454.361 1393.51 458.036 1555.02 459.166 1672.75" stroke="white" stroke-width="1.05833" stroke-miterlimit="10"/>
<path d="M467.214 539.261C467.175 539.086 467.171 538.904 467.203 538.727C467.235 538.55 467.301 538.381 467.398 538.23C467.496 538.078 467.622 537.948 467.77 537.845C467.918 537.743 468.085 537.671 468.261 537.633C468.436 537.594 468.618 537.59 468.795 537.622C468.972 537.654 469.141 537.72 469.293 537.817C469.444 537.914 469.575 538.04 469.677 538.188C469.78 538.335 469.852 538.502 469.89 538.678C469.929 538.853 469.933 539.035 469.901 539.212C469.869 539.389 469.803 539.558 469.706 539.71C469.608 539.861 469.482 539.992 469.334 540.094C469.186 540.196 469.019 540.268 468.843 540.306C468.668 540.345 468.486 540.349 468.309 540.317C468.132 540.286 467.963 540.219 467.811 540.122C467.66 540.025 467.529 539.899 467.427 539.751C467.324 539.604 467.252 539.437 467.214 539.261Z" fill="white"/>
<path d="M622.312 818.241C633.096 839.21 646.587 871.55 651.269 912.513C657.989 971.293 643.102 1017.48 633.082 1046.56C578.805 1204.08 532.238 1251.64 504.634 1348.74C491.217 1395.95 478.764 1577.66 490.994 1672.75" stroke="white" stroke-width="1.05833" stroke-miterlimit="10"/>
<path d="M621.118 818.928C620.996 818.687 620.948 818.416 620.98 818.148C621.012 817.881 621.123 817.628 621.298 817.423C621.474 817.219 621.706 817.07 621.966 816.997C622.225 816.924 622.501 816.929 622.758 817.013C623.014 817.096 623.24 817.254 623.408 817.465C623.575 817.677 623.675 817.933 623.697 818.202C623.718 818.471 623.66 818.74 623.528 818.976C623.397 819.211 623.198 819.402 622.958 819.525C622.798 819.607 622.624 819.657 622.444 819.671C622.265 819.685 622.085 819.664 621.914 819.609C621.743 819.553 621.585 819.464 621.448 819.348C621.311 819.231 621.199 819.088 621.118 818.928Z" fill="white"/>
<path d="M252.657 1056.9C271.08 1118.78 285.76 1181.72 296.617 1245.37C319.95 1382.19 322.584 1571.98 317.078 1672.75" stroke="white" stroke-width="1.05833" stroke-miterlimit="10"/>
<path d="M251.353 1057.35C251.303 1057.17 251.287 1056.99 251.306 1056.81C251.326 1056.64 251.381 1056.46 251.467 1056.31C251.554 1056.15 251.671 1056.01 251.812 1055.9C251.952 1055.78 252.114 1055.7 252.286 1055.65C252.459 1055.6 252.64 1055.58 252.819 1055.6C252.998 1055.62 253.171 1055.68 253.329 1055.77C253.486 1055.85 253.625 1055.97 253.737 1056.11C253.85 1056.25 253.933 1056.41 253.983 1056.58C254.033 1056.76 254.049 1056.94 254.03 1057.12C254.01 1057.29 253.956 1057.47 253.869 1057.63C253.783 1057.78 253.666 1057.92 253.526 1058.03C253.385 1058.15 253.224 1058.23 253.051 1058.28C252.878 1058.33 252.697 1058.35 252.518 1058.33C252.339 1058.31 252.166 1058.25 252.008 1058.17C251.85 1058.08 251.711 1057.96 251.599 1057.82C251.487 1057.68 251.403 1057.52 251.353 1057.35Z" fill="white"/>
<path d="M201.711 1180.65C240.754 1259.86 258.979 1328.08 268.2 1374.89C278.708 1428.22 281.737 1475.1 282.978 1495.3C285.405 1534.75 285.141 1646.25 284.114 1672.76" stroke="white" stroke-width="1.05833" stroke-miterlimit="10"/>
<path d="M200.497 1181.3C200.418 1181.14 200.372 1180.97 200.362 1180.79C200.351 1180.61 200.376 1180.43 200.435 1180.26C200.495 1180.09 200.587 1179.93 200.707 1179.8C200.827 1179.66 200.972 1179.55 201.134 1179.48C201.46 1179.32 201.835 1179.3 202.177 1179.42C202.518 1179.54 202.798 1179.79 202.955 1180.12C203.033 1180.28 203.079 1180.45 203.09 1180.63C203.1 1180.81 203.075 1180.99 203.016 1181.16C202.956 1181.33 202.864 1181.49 202.744 1181.62C202.624 1181.76 202.478 1181.87 202.316 1181.94C201.99 1182.1 201.615 1182.12 201.274 1182C200.933 1181.88 200.654 1181.63 200.497 1181.3Z" fill="white"/>
<path d="M306.986 1043.82C284.035 1180.27 303.763 1265.23 327.507 1318.51C336.617 1338.95 356.839 1378.35 367.234 1437.05C376.237 1487.9 373.984 1643.66 370.552 1672.75" stroke="white" stroke-width="1.05833" stroke-miterlimit="10"/>
<path d="M305.632 1043.67C305.661 1043.5 305.724 1043.32 305.818 1043.17C305.912 1043.02 306.036 1042.89 306.182 1042.78C306.328 1042.67 306.493 1042.6 306.668 1042.56C306.844 1042.52 307.025 1042.51 307.203 1042.54C307.38 1042.57 307.551 1042.63 307.704 1042.73C307.857 1042.82 307.991 1042.94 308.096 1043.09C308.201 1043.24 308.277 1043.4 308.318 1043.58C308.359 1043.75 308.365 1043.93 308.336 1044.11C308.308 1044.29 308.246 1044.46 308.152 1044.61C308.058 1044.76 307.935 1044.9 307.79 1045C307.644 1045.11 307.48 1045.18 307.305 1045.22C307.13 1045.27 306.949 1045.27 306.772 1045.25C306.593 1045.22 306.422 1045.15 306.268 1045.06C306.114 1044.97 305.98 1044.84 305.874 1044.7C305.768 1044.55 305.692 1044.38 305.65 1044.21C305.609 1044.03 305.603 1043.85 305.632 1043.67Z" fill="white"/>
<path d="M472.146 724.036C474.654 772.851 475.249 812.876 475.332 840.43C475.528 909.573 472.594 941.46 472.082 1038.48C471.817 1088.87 471.726 1114.45 473.707 1132.64C480.366 1193.78 492.416 1201.73 501.32 1269C507.885 1318.6 507.371 1359.87 507.005 1382.64C506.476 1415.51 504.391 1427.84 502.132 1464.62C500.147 1496.93 498.298 1614.71 499.695 1672.75" stroke="white" stroke-width="1.05833" stroke-miterlimit="10"/>
<path d="M470.767 724.165C470.758 723.985 470.784 723.805 470.845 723.635C470.906 723.465 471 723.309 471.121 723.176C471.243 723.043 471.389 722.935 471.553 722.859C471.716 722.783 471.893 722.739 472.073 722.732C472.253 722.723 472.433 722.75 472.602 722.811C472.771 722.872 472.927 722.966 473.059 723.088C473.192 723.209 473.3 723.355 473.376 723.518C473.452 723.681 473.495 723.858 473.502 724.037C473.511 724.217 473.484 724.396 473.423 724.566C473.362 724.735 473.268 724.89 473.146 725.023C473.025 725.156 472.879 725.263 472.715 725.339C472.552 725.415 472.376 725.458 472.196 725.466C472.017 725.474 471.837 725.447 471.669 725.387C471.5 725.326 471.344 725.232 471.211 725.111C471.079 724.991 470.971 724.845 470.895 724.682C470.819 724.52 470.775 724.344 470.767 724.165Z" fill="white"/>
<path d="M165.705 1200.33C193.453 1250.37 226.544 1323.25 245.477 1415.91C260.022 1487.08 262.118 1624.01 260.097 1672.75" stroke="white" stroke-width="1.05833" stroke-miterlimit="10"/>
<path d="M164.529 1201.05C164.442 1200.89 164.387 1200.72 164.368 1200.54C164.348 1200.36 164.364 1200.18 164.414 1200.01C164.465 1199.84 164.549 1199.68 164.662 1199.54C164.775 1199.4 164.914 1199.28 165.072 1199.19C165.23 1199.11 165.403 1199.05 165.582 1199.03C165.761 1199.01 165.942 1199.03 166.115 1199.08C166.287 1199.13 166.448 1199.22 166.588 1199.33C166.729 1199.44 166.845 1199.58 166.931 1199.74C167.017 1199.9 167.072 1200.07 167.092 1200.25C167.111 1200.43 167.095 1200.61 167.045 1200.78C166.994 1200.95 166.91 1201.11 166.798 1201.25C166.685 1201.39 166.545 1201.51 166.388 1201.6C166.23 1201.68 166.057 1201.74 165.878 1201.76C165.699 1201.78 165.518 1201.76 165.345 1201.71C165.173 1201.66 165.012 1201.58 164.872 1201.46C164.731 1201.35 164.615 1201.21 164.529 1201.05Z" fill="white"/>
<path d="M296.526 1024.97C323.458 1067.79 335.438 1105.73 341.314 1131.01C348.613 1162.42 349.527 1187.35 351.06 1229.23C352.169 1259.54 351.274 1285.29 349.435 1335.56C347.953 1376.11 346.773 1391.79 345.375 1422.41C343.849 1455.82 342.226 1614.16 342.126 1672.75" stroke="white" stroke-width="1.05833" stroke-miterlimit="10"/>
<path d="M295.393 1025.75C295.297 1025.6 295.232 1025.43 295.203 1025.25C295.173 1025.08 295.179 1024.89 295.219 1024.72C295.26 1024.54 295.336 1024.38 295.441 1024.23C295.546 1024.08 295.68 1023.96 295.833 1023.87C295.986 1023.77 296.157 1023.71 296.335 1023.68C296.513 1023.65 296.694 1023.66 296.869 1023.7C297.044 1023.74 297.209 1023.82 297.354 1023.93C297.5 1024.03 297.622 1024.17 297.716 1024.32C297.81 1024.47 297.874 1024.64 297.903 1024.82C297.931 1025 297.925 1025.18 297.883 1025.35C297.842 1025.53 297.766 1025.69 297.66 1025.84C297.555 1025.98 297.422 1026.11 297.268 1026.2C296.96 1026.39 296.589 1026.45 296.238 1026.36C295.886 1026.28 295.583 1026.06 295.393 1025.75Z" fill="white"/>
<path d="M667.162 1051.13C677.782 1134.23 665.001 1194.51 650.752 1234.91C629.814 1294.24 595.162 1340.6 588.214 1425.66C586.63 1445.1 586.63 1464.65 588.214 1484.1V1672.75" stroke="white" stroke-width="1.05833" stroke-miterlimit="10"/>
<path d="M665.802 1051.37C665.77 1051.1 665.818 1050.83 665.94 1050.59C666.062 1050.35 666.253 1050.15 666.488 1050.02C666.723 1049.89 666.991 1049.83 667.26 1049.85C667.529 1049.87 667.786 1049.97 667.999 1050.13C668.211 1050.3 668.37 1050.52 668.455 1050.78C668.539 1051.04 668.546 1051.31 668.475 1051.57C668.403 1051.83 668.256 1052.06 668.052 1052.24C667.848 1052.42 667.596 1052.53 667.329 1052.56C667.15 1052.58 666.969 1052.57 666.795 1052.52C666.622 1052.48 666.459 1052.39 666.318 1052.28C666.176 1052.17 666.057 1052.03 665.969 1051.88C665.88 1051.72 665.824 1051.55 665.802 1051.37Z" fill="white"/>
<path d="M542.127 751.617C548.358 790.696 552.013 840.774 545.161 898.06C542.162 923.174 538.968 948.662 528.106 978.423C504.98 1041.78 468.799 1065.02 438.768 1105.05C407.362 1146.92 398.336 1201.41 380.298 1310.4C369.47 1375.82 358.963 1561.63 360.807 1672.75" stroke="white" stroke-width="1.05833" stroke-miterlimit="10"/>
<path d="M540.776 751.895C540.736 751.628 540.775 751.356 540.89 751.111C541.004 750.867 541.188 750.662 541.419 750.523C541.65 750.383 541.917 750.315 542.186 750.326C542.456 750.338 542.715 750.429 542.933 750.589C543.151 750.748 543.316 750.968 543.409 751.221C543.502 751.474 543.517 751.749 543.454 752.011C543.39 752.273 543.25 752.511 543.052 752.693C542.854 752.876 542.606 752.996 542.339 753.038C542.161 753.066 541.98 753.059 541.805 753.016C541.63 752.974 541.465 752.897 541.32 752.791C541.175 752.685 541.052 752.551 540.959 752.397C540.865 752.243 540.803 752.072 540.776 751.895Z" fill="white"/>
<path d="M353.523 475.661C355.754 587.69 354.63 682.899 352.684 756.827C351.074 818.147 348.865 865.911 347.812 887.508C341.994 1006.74 333.887 1094.89 331.567 1121.27C323.881 1208.71 315.168 1429.86 312.076 1672.75" stroke="white" stroke-width="1.05833" stroke-miterlimit="10"/>
<path d="M354.511 476.673C355.037 476.13 355.022 475.264 354.479 474.739C353.936 474.214 353.069 474.229 352.544 474.772C352.018 475.315 352.033 476.181 352.576 476.706C353.12 477.231 353.986 477.216 354.511 476.673Z" fill="white"/>
<path d="M362.58 797.08C368.906 851.457 374.812 906.761 380.298 962.994C387.658 1038.66 392.313 1096.58 393.293 1109.1C406.755 1280.98 403.296 1608.83 402.226 1672.75" stroke="white" stroke-width="1.05833" stroke-miterlimit="10"/>
<path d="M361.222 797.3C361.201 797.12 361.216 796.938 361.266 796.765C361.316 796.591 361.399 796.429 361.512 796.288C361.625 796.147 361.765 796.03 361.924 795.943C362.082 795.856 362.256 795.802 362.436 795.783C362.616 795.762 362.798 795.777 362.971 795.827C363.145 795.876 363.307 795.96 363.448 796.073C363.59 796.186 363.707 796.326 363.794 796.484C363.88 796.643 363.935 796.817 363.953 796.996C363.974 797.176 363.96 797.357 363.91 797.531C363.86 797.705 363.776 797.867 363.663 798.008C363.551 798.149 363.411 798.266 363.252 798.353C363.094 798.439 362.919 798.494 362.74 798.513C362.56 798.534 362.378 798.519 362.204 798.469C362.031 798.419 361.869 798.336 361.727 798.223C361.586 798.11 361.469 797.97 361.382 797.812C361.296 797.653 361.241 797.479 361.222 797.3Z" fill="white"/>
<path d="M250.354 1152.14C293.301 1198.18 366.792 1291.25 389.838 1426.21C396.995 1468.12 397.981 1506.44 396.092 1539.41V1672.76" stroke="white" stroke-width="1.05833" stroke-miterlimit="10"/>
<path d="M249.382 1153.12C249.26 1152.99 249.166 1152.83 249.104 1152.66C249.042 1152.49 249.014 1152.32 249.022 1152.14C249.03 1151.96 249.073 1151.78 249.149 1151.62C249.225 1151.45 249.333 1151.31 249.466 1151.19C249.598 1151.06 249.753 1150.97 249.922 1150.91C250.091 1150.85 250.271 1150.82 250.45 1150.83C250.63 1150.83 250.807 1150.88 250.97 1150.95C251.133 1151.03 251.279 1151.14 251.4 1151.27C251.522 1151.4 251.617 1151.56 251.679 1151.73C251.741 1151.89 251.768 1152.07 251.761 1152.25C251.753 1152.43 251.71 1152.61 251.634 1152.77C251.557 1152.94 251.45 1153.08 251.317 1153.2C251.185 1153.32 251.03 1153.42 250.861 1153.48C250.692 1153.54 250.512 1153.57 250.332 1153.56C250.153 1153.56 249.976 1153.51 249.813 1153.44C249.65 1153.36 249.504 1153.25 249.382 1153.12Z" fill="white"/>
<path d="M581.548 1078.61C547.975 1123.43 520.102 1156.18 500.328 1178.27C483.715 1196.84 456.178 1226.47 452.347 1230.6C430.141 1254.49 413.962 1271.46 412.769 1272.72C388.828 1298.08 367.645 1430.23 364.821 1672.75" stroke="white" stroke-width="1.05833" stroke-miterlimit="10"/>
<path d="M580.41 1077.83C580.573 1077.62 580.797 1077.46 581.052 1077.37C581.307 1077.28 581.582 1077.27 581.843 1077.34C582.104 1077.41 582.339 1077.55 582.518 1077.76C582.697 1077.96 582.812 1078.21 582.849 1078.47C582.886 1078.74 582.843 1079.01 582.726 1079.26C582.608 1079.5 582.421 1079.7 582.189 1079.84C581.956 1079.97 581.689 1080.04 581.419 1080.02C581.15 1080.01 580.891 1079.91 580.676 1079.75C580.532 1079.64 580.411 1079.51 580.32 1079.35C580.229 1079.2 580.169 1079.03 580.144 1078.85C580.12 1078.67 580.13 1078.49 580.176 1078.31C580.222 1078.14 580.301 1077.98 580.41 1077.83Z" fill="white"/>
<path d="M559.128 969.42C509.982 1021.24 480.657 1069.63 463.498 1102.57C400.363 1223.76 393.508 1343.79 387.059 1456.76C384.507 1501.43 384.557 1649.18 384.973 1672.75" stroke="white" stroke-width="1.05833" stroke-miterlimit="10"/>
<path d="M559.408 970.82C560.142 970.64 560.591 969.9 560.411 969.166C560.231 968.433 559.49 967.984 558.756 968.164C558.022 968.344 557.573 969.084 557.753 969.818C557.933 970.551 558.674 971 559.408 970.82Z" fill="white"/>
<path d="M243.114 1171.79C263.188 1210.66 278.615 1251.77 289.075 1294.25C301.559 1345.04 303.545 1384.3 306.449 1448.43C308.327 1489.91 309.247 1607.07 305.754 1672.75" stroke="white" stroke-width="1.05833" stroke-miterlimit="10"/>
<path d="M241.912 1172.47C241.83 1172.31 241.782 1172.13 241.768 1171.95C241.754 1171.77 241.777 1171.59 241.833 1171.42C241.889 1171.25 241.979 1171.1 242.097 1170.96C242.214 1170.82 242.358 1170.71 242.519 1170.63C242.679 1170.55 242.854 1170.5 243.034 1170.49C243.213 1170.47 243.393 1170.5 243.564 1170.55C243.735 1170.61 243.893 1170.7 244.029 1170.82C244.166 1170.93 244.277 1171.08 244.358 1171.24C244.439 1171.4 244.488 1171.57 244.501 1171.75C244.515 1171.93 244.493 1172.11 244.436 1172.28C244.38 1172.45 244.29 1172.61 244.173 1172.75C244.055 1172.88 243.912 1172.99 243.751 1173.08C243.59 1173.16 243.415 1173.21 243.236 1173.22C243.056 1173.23 242.876 1173.21 242.705 1173.15C242.534 1173.1 242.376 1173.01 242.24 1172.89C242.104 1172.77 241.992 1172.63 241.912 1172.47Z" fill="white"/>
<path d="M145.352 1168.86C175.421 1206.15 218.725 1269.28 246.691 1357.45C273.193 1441.01 275.327 1626.2 273.09 1672.75H272.59" stroke="white" stroke-width="1.05833" stroke-miterlimit="10"/>
<path d="M144.317 1169.78C144.204 1169.64 144.121 1169.47 144.071 1169.3C144.021 1169.13 144.006 1168.95 144.026 1168.77C144.046 1168.59 144.102 1168.42 144.189 1168.26C144.277 1168.1 144.394 1167.97 144.535 1167.85C144.676 1167.74 144.837 1167.66 145.01 1167.61C145.183 1167.56 145.364 1167.54 145.543 1167.56C145.721 1167.58 145.894 1167.64 146.052 1167.73C146.209 1167.81 146.347 1167.93 146.459 1168.07C146.571 1168.21 146.655 1168.37 146.705 1168.55C146.755 1168.72 146.77 1168.9 146.75 1169.08C146.729 1169.26 146.674 1169.43 146.587 1169.59C146.499 1169.74 146.382 1169.88 146.241 1169.99C146.1 1170.11 145.939 1170.19 145.766 1170.24C145.593 1170.29 145.412 1170.31 145.233 1170.28C145.054 1170.26 144.881 1170.21 144.724 1170.12C144.567 1170.03 144.428 1169.92 144.317 1169.78Z" fill="white"/>
<path d="M199.354 1329.43C240.774 1407.65 248.448 1453.7 248.779 1479.68C248.839 1484.44 248.882 1506.41 248.779 1529.68C248.653 1558.11 248.337 1657.14 248.084 1672.75" stroke="white" stroke-width="1.05833" stroke-miterlimit="10"/>
<path d="M198.151 1330.12C198.068 1329.96 198.018 1329.79 198.002 1329.61C197.987 1329.43 198.007 1329.25 198.061 1329.08C198.116 1328.91 198.204 1328.75 198.32 1328.61C198.436 1328.48 198.578 1328.36 198.738 1328.28C198.898 1328.2 199.072 1328.15 199.252 1328.13C199.431 1328.12 199.612 1328.14 199.783 1328.19C199.954 1328.25 200.113 1328.33 200.251 1328.45C200.388 1328.57 200.501 1328.71 200.583 1328.87C200.666 1329.03 200.717 1329.2 200.733 1329.38C200.748 1329.56 200.728 1329.74 200.673 1329.91C200.619 1330.08 200.531 1330.24 200.415 1330.38C200.298 1330.52 200.156 1330.63 199.996 1330.71C199.837 1330.79 199.662 1330.84 199.483 1330.86C199.304 1330.88 199.123 1330.86 198.952 1330.8C198.78 1330.75 198.621 1330.66 198.484 1330.54C198.347 1330.43 198.234 1330.28 198.151 1330.12Z" fill="white"/>
<path d="M513.45 830.934C509.568 893.2 504.168 944.852 499.633 982.424C494.246 1027.07 488.787 1062.1 478.089 1130.35C470.292 1180.1 469.371 1183.99 454.463 1275.5C432.821 1408.36 424.333 1464.19 423.194 1541.49C422.975 1556.21 423.076 1664.85 423.194 1672.75" stroke="white" stroke-width="1.05833" stroke-miterlimit="10"/>
<path d="M512.075 830.911C512.094 830.642 512.192 830.384 512.357 830.171C512.522 829.958 512.746 829.798 513.002 829.712C513.257 829.625 513.533 829.617 513.793 829.687C514.054 829.757 514.288 829.903 514.465 830.106C514.643 830.309 514.757 830.56 514.792 830.827C514.827 831.095 514.782 831.367 514.662 831.608C514.543 831.85 514.355 832.051 514.121 832.186C513.888 832.321 513.619 832.384 513.35 832.367C513.171 832.355 512.995 832.308 512.834 832.229C512.673 832.149 512.529 832.039 512.41 831.903C512.292 831.768 512.201 831.611 512.144 831.441C512.086 831.27 512.063 831.09 512.075 830.911Z" fill="white"/>
</svg>
