<svg xmlns="http://www.w3.org/2000/svg" xmlns:xlink="http://www.w3.org/1999/xlink" viewBox="0 0 715.43 747.79"><defs><style>.cls-1{fill:none;stroke:#fff;stroke-width:1.06px;}.cls-1,.cls-3{stroke-miterlimit:10;}.cls-2{fill:#fff;}.cls-3{stroke-width:0.8px;fill:url(#linear-gradient);stroke:url(#linear-gradient-2);}</style><linearGradient id="linear-gradient" x1="348.92" y1="599.09" x2="351.79" y2="701.24" gradientUnits="userSpaceOnUse"><stop offset="0" stop-color="#fff" stop-opacity="0"/><stop offset="0.12" stop-color="#fff" stop-opacity="0.23"/><stop offset="0.35" stop-color="#fff" stop-opacity="0.64"/><stop offset="0.51" stop-color="#fff" stop-opacity="0.9"/><stop offset="0.58" stop-color="#fff"/></linearGradient><linearGradient id="linear-gradient-2" x1="293.47" y1="669.39" x2="409.47" y2="669.39" gradientUnits="userSpaceOnUse"><stop offset="0" stop-color="#fff" stop-opacity="0"/><stop offset="0.87" stop-color="#535353" stop-opacity="0.13"/><stop offset="1" stop-opacity="0.2"/></linearGradient></defs><g id="Layer_2" data-name="Layer 2"><g id="lines"><path class="cls-1" d="M520.94,2c-26.57,43.75-34,26.34-84.51,90-48.17,60.72-82.29,103.73-106.81,162.75-14.15,34.06-33.39,131.62-32.39,159.26s55.61,237.79,55.61,237.79"/><path class="cls-1" d="M302.84,2c-38,65.85-59.59,90.05-80.91,132.89C187.77,203.54,178.41,273.26,179,333.55L343.17,662.16"/><path class="cls-1" d="M448.7,12.29C474.15,83,497.43,121.66,512.61,210.17c13,76,22.61,203.21,13.13,230.13s-173.32,213-165.45,213"/><path class="cls-2" d="M359.68,648.8a1.39,1.39,0,0,0,.1.53,1.2,1.2,0,0,0,.29.45,1.23,1.23,0,0,0,.44.3c.16.07-.66.11-.48.11a1.5,1.5,0,0,0,.52-.09,1.51,1.51,0,0,0,.45-.29,1.47,1.47,0,0,0,.31-.44,1.4,1.4,0,0,0,.11-.53,1.34,1.34,0,0,0-.1-.52,1.2,1.2,0,0,0-.29-.45,1.23,1.23,0,0,0-.44-.3,1.31,1.31,0,0,0-.52-.11c-.18,0,.64,0,.47.09a1.34,1.34,0,0,0-.75.73,1.35,1.35,0,0,0-.11.52Z"/><path class="cls-1" d="M336,1.52c-45.32,115.84-58.25,171.42-60.69,186.77-4.07,25.63-5,41.93-8.75,132.13-2.72,64.94,85.65,282.13,83.69,332.84"/><path class="cls-2" d="M337.64,653.17a1.36,1.36,0,0,0,.07.53,1.28,1.28,0,0,0,.26.47,1.5,1.5,0,0,0,.42.33,1.54,1.54,0,0,0,.52.14,1.36,1.36,0,0,0,.53-.07,1.17,1.17,0,0,0,.46-.26,1.34,1.34,0,0,0,.47-.94,1.22,1.22,0,0,0-.06-.53,1.4,1.4,0,0,0-.26-.46,1.34,1.34,0,0,0-.94-.47,1.35,1.35,0,0,0-.53.06,1.47,1.47,0,0,0-.47.27,1.34,1.34,0,0,0-.32.42,1.5,1.5,0,0,0-.15.51Z"/><path class="cls-1" d="M293.93,1.52c48,65.84,71.77,58.57,98.73,98.4,28.42,42,38.29,77.34,56,140.87,15.34,55,32.18,136.41-11.61,238.88l-100,173.59"/><path class="cls-1" d="M325,1.52a1055.68,1055.68,0,0,1,54.55,135.15c33.74,103.69,43.06,189.58,49,247.63,3.55,34.4,11.35,65.16,6.13,84s-73.26,186.27-73.26,186.27"/><path class="cls-1" d="M67,1.52C81.81,20.93,137,72,247.32,168.17c23.36,20.35,42.93,37.25,64.78,65.62,48.84,63.42,59.28,119.53,61.29,131.26a261.63,261.63,0,0,1,3.51,55.12l-18,233.09"/><path class="cls-1" d="M247.17,1.52c-2.88,15.68-5.56,17.82-7.73,60.44a1538.15,1538.15,0,0,0,0,157.51l107,178.21"/><path class="cls-1" d="M256.07,28.17c-19.27,73.59-37.4,112.76-42,191.63-2.41,41.12-1.14,92.95.88,175.88.85,35,1.86,64.05,2.63,84L342,660"/><path class="cls-1" d="M494.21,0c10.28,143.88-68.41,153.6-84,371.13-2.93,40.77,5.5,89.73-.88,122.5S329,621,361.28,653.26"/><path class="cls-1" d="M578.27,193.54c-4.84,4-36.27,29.37-70.92,70C473,303.88,424.91,361.7,420.67,440.3a211.75,211.75,0,0,0,2.62,46.37l-63,166.59"/><path class="cls-1" d="M106.23,1.26c34,56.94,31.81,94.68,67.54,159.91,35.21,64.29,46,63,77.92,127.75,23.9,48.41,33.08,79.88,35.9,112.88,1.83,21.6-6.7,32.91-2.63,64.74s65.34,188,65.34,188"/><path class="cls-1" d="M47.51,1.52c6.59,11.11-12,81.9,27.32,119.39,38.22,48.63,61.09,78.69,85.8,120.75,18.63,31.72,31.15,58.08,37.65,91.88,3.15,16.44,1.75,30.18,4.38,55.89S344.19,666.88,344.19,666.88"/><path class="cls-1" d="M30.66,2C20.9,80.27,40.9,118.06,60,141c17.22,20.77,33.32,25.31,56,50.75,6.93,7.77,24.55,29.53,49.9,104.13,51.2,151.59,177.51,340.7,177.79,365.73"/><path class="cls-1" d="M63,1.52c51.45,68.69,125.15,110,193.08,190.27C274,213,347.57,303.87,364.64,438.55a452.44,452.44,0,0,1,3.49,65.82l-6.85,148.89"/><path class="cls-1" d="M553.55,2c-41.18,88.3-54.77,133.09-66.59,177.4-24.21,90.72-21.89,171-15.76,225.75l-55,147.59"/><path class="cls-1" d="M219.58,2c41.44,55.43,38.6,9.93,75,58.51C355,141.1,374.92,223,384.78,265.29A612.16,612.16,0,0,1,400.54,387.8L361.28,653.26"/><path class="cls-1" d="M529.56,2c-1.86,61-8.25,106.81,3.18,212.51,6.29,58.17,13.32,90.72,13.14,154.88-.1,33.63,10.59,69-6.13,100.63C518.06,511.1,517,507.81,362,666.17"/><path class="cls-1" d="M662.31,159.49a483.23,483.23,0,0,0-95.42,148.68c-20.72,51-23.29,132.41-35,160.13C508.23,524.15,373.94,645,362,657.17"/><path class="cls-1" d="M626.06,2c7.72,47.74-17.87,147.42-60.92,183.64-4.79,4.74-5.26,4.43-10.51,9.62-21.69,21.47-42.68,55.52-55.16,157.5-5.13,42.1-7.47,84.48-51,126.88l-100,173.59"/><path class="cls-1" d="M97.2,2C125.26,85,150,47.1,191.28,150.67,236.64,264.4,244.51,371,248.19,426.3c3,44.8,94.66,199.33,93.75,227"/><path class="cls-1" d="M.53,2C7.61,102.15,40,155.81,68.71,191.79c23.93,30,32.18,27.24,56.91,62.13,50.53,71.31,62.44,148.32,66.54,176.75,2.38,16.53,4.46,49.13,21.81,77.4,20.56,33.48,20.82,32.65,132.26,166.47"/><path class="cls-1" d="M380.7,2c-2,38.11,1.44,94.68,5.73,172.66l-29,313"/><path class="cls-1" d="M535.89,85.25c-32.53,70.12-48.79,105.18-59.79,138.83C460,273.46,441.73,349.63,428.48,451l-74,202.24"/><path class="cls-1" d="M659.42,2c9.18,67.78-143.9,233-173,309C462.23,373.9,492,422.68,470.66,474.56s-115,178.7-115,178.7"/><path class="cls-1" d="M251.83,1.26c35.69,59.05,74.64,42.6,106.5,111.16,14.91,32.08,20.08,61,24.16,83.9,9.13,51.16,6.22,88,4.23,129.17-2.11,43.5-3.84,105.23-16.82,182.28l-19,145.49"/><path class="cls-1" d="M399.1,1.52c-13.17,40.91-17.84,31.67-23.86,60.19-1.79,8.51-8.52,41.12-13.89,92.35-3,28.87-4.73,55.2-6.64,118.3-3.26,107.39-3.63,206.42-3.63,206.42l4.58,174.48"/><path class="cls-1" d="M237.06,2c-18.83,71.27-29,195-37,279.38-8.56,91.1-30.43,182.15-10.86,223,33.05,68.93,142,150.89,155.47,163"/><path class="cls-1" d="M714.91,2c-23.67,113.2-60,156.7-96.88,188.85-17.35,15.14-42,32.26-66.44,68.21-31.24,46-41.41,92.22-45.9,113.47-6.29,29.95-8.73,60.58-51.24,91.14l-100,189.56"/><path class="cls-1" d="M682.74,1.52c15.79,154.81-85.22,342.67-102.16,349.31-6.7,4.53-14.14,8.55-23.56,17.5-36.94,35.13-45.38,109.88-57.27,127.36s-145,157.57-145,157.57"/><path class="cls-1" d="M181.32,2c8.64,15.65,14.85,50.11,24.82,106.76,13.32,75.78,14.27,136.63,15.09,208.24,1,86.53-9.53,152.89,6.82,184.69,22.88,44.53,128.39,182.88,114.6,164.14"/><path class="cls-1" d="M288.27,79.22C315,118.9,316.89,119,326.32,136c31.13,56,37.07,106.62,45.29,172.62a1043.35,1043.35,0,0,1,7.86,143.65l-19,201"/><path class="cls-1" d="M520.94,45.67c-36.78,71.38-58.6,81.45-79.12,143.65-12.59,38.17-15.61,76.46-21.13,151.5-4.43,60.06-6,114.76-6,163L343.17,647.47"/><path class="cls-1" d="M476.1,5.58c-24.88,70.74-57.7,130.58-67,147.28-45.45,81.28-76.16,109-93.61,178.05-9,35.61-13,58.6-10.27,85.71s53,236.64,53,236.64"/><path class="cls-1" d="M693.46,1.26c-41,63-125.5,203.89-157.71,227.29-29.35,21.32-38.37,22-60.4,43.46-13.63,13.28-59.74,61.29-73.08,137.62-3.25,18.64-5.91,28.77-4.71,39.55-8.68,74-78.52,310.43-50.31,204.93"/><path class="cls-1" d="M149.63,2c3.64,9.73,29.38,77,40.2,96.5,57.91,104.63,87.68,128.55,97.23,187.72.86,5.31,1.38,18.83,2.42,45.87,2.5,65.09,1.72,117.93.61,153.31l68,167.83"/><path class="cls-1" d="M240.28,1.52C265,49.3,258.44,60.69,275.59,114.23c13,40.48,28.55,63.48,39.25,83.29,25.31,46.87,50.27,126,44.09,266.18l-3.27,189.56"/><path class="cls-1" d="M124.28,1.26c9.36,17.61,28.93,55.89,35,104.74a242.34,242.34,0,0,1,1.81,34.41c-.58,49.23-5.76,234.84-.61,255.92s107,139.53,107,139.53"/><path class="cls-1" d="M53.12,2c8.73,48.07,57.5,199.22,86,289.05,11.93,37.62,18,56.65,29.58,83.89,20.13,47.13,32.95,68,41.68,94.16S349.94,613.07,346.81,653.26"/><path class="cls-1" d="M323.05,92.87a145,145,0,0,0-24.51,39.46,148.15,148.15,0,0,0-10.87,51.31c-2.16,43.29-8.26,86.43-8.46,129.77-.16,36.1-14.75,113.35-6,154.51s77.13,158.4,77.13,158.4"/><path class="cls-1" d="M276.11,2c-24,45.87-25.29,84.69-30.72,143-2.23,24-.8,20.32-3.62,97.78-2.76,75.93-4.46,88.28-6,139.43-1,31.16-10.8,84.71-1.22,131.58s123,139.46,123,139.46"/><path class="cls-1" d="M142.72,2c7.36,49.24,25.68,120.42,42.88,152.64,22.57,42.26,27.43,38,76.1,114.68,40.07,63.15,47.69,83.27,52.54,102,7.46,28.79,8.93,56.41,10.27,81.49,1.64,30.86,37.7,181.76,36.39,200.42"/><path class="cls-1" d="M507.54,1.52c20,26,46.52,149,36.36,216.83-14.34,101.91-25.25,93.37-23.11,166.28,4,77.42,11.16,118.68-1.21,128C499,528,354.4,659.73,354.4,659.73"/><path class="cls-1" d="M204.36,2c-14.47,60.61-4.68,198.91-12.53,274.67-10.24,98.86,149.93,320.63,149.8,380.48"/><path class="cls-1" d="M440.46,1.52c-42.23,77.36-90.4,110.92-140.79,225.66A694.73,694.73,0,0,0,254,371.85c-9,45.72-22,93.46-12.63,138.84s103.7,117.68,103.7,117.68"/><path class="cls-1" d="M438.6,162.12c-7.5,15-46.68,94.08-74.81,188.37-8.58,28.78-16.14,59-20.4,96.12-3.76,32.82,11.43,186.66,12.27,206.65"/><path class="cls-1" d="M402.65,1.52c-18.46,42.69-19,56-19.43,71.27-3.1,101.3-31.29,119.73-50.52,286.43-5.87,50.84,16.95,203,18.2,294"/><path class="cls-1" d="M266.64,134c11.24,82,18.76,89.64,30.12,160.2,9,55.95,44.71,254.2,42.16,356"/><path class="cls-1" d="M604.1,2C573.67,103.29,532.26,151.44,495,249.5c-21.43,56.33-31.23,237.36-37.89,254.86s-102.15,137.5-102.15,137.5"/><path class="cls-1" d="M467.75,71.83c38,63.93,51.76,123.26,58.29,152.43,10.39,46.47,11.89,80.58,14.57,141.76,4.2,103.47-179.7,311.25-181.44,312.15"/><path class="cls-1" d="M134.83,1.52c29.48,104.39,42,174.46,45.34,189.73,22.91,103.56,26.94,189,29.15,240.8,2.55,59.85,137.62,198.05,136.4,226.66"/><path class="cls-1" d="M209.43,1.26c47,83.7,80.21,145,97.18,197.85,20,62.31,24.34,121.06,33,238.56,3.42,46.66,2.47,187.19,3.21,214.17"/><path class="cls-1" d="M60.25,1.26C60.33,65.58,126.4,130.05,155.43,173,184.58,216.1,196.5,253.3,213,304.72c13.5,42.17,29.15,101.92,73.41,176.18l62.09,175.26"/><path class="cls-1" d="M342.79,1.26c-.12,41.15-18.14,100.7-26,170.58-4.33,38.75-6,69.53-9.09,129.5C304.6,362,344.3,537.41,343.17,655.13"/><path class="cls-1" d="M119.51,2c54.27,157.52,107.21,218.12,134.81,315.23,13.42,47.2,112.87,240.91,100.64,336"/><path class="cls-1" d="M506.3,25.41a1609.83,1609.83,0,0,0-44,188.47C439,350.7,335.11,554.36,340.61,655.13"/><path class="cls-1" d="M540.57,150.51c-39,79.21-57.27,147.43-66.49,194.24C463.57,398.08,460.54,445,459.3,465.17c-2.43,39.45-117.16,162.94-116.13,189.45"/><path class="cls-1" d="M459.08,1.26C482,137.71,455.2,233.74,431.45,287c-9.11,20.44-29.33,59.84-39.73,118.54-9.48,53.56-53.44,217.94-49.77,249"/><path class="cls-1" d="M286,2c.27,50.39,1.26,80.93-.72,99.12-6.66,61.14-18.71,69.09-27.61,136.37-6.57,49.59-6,90.86-5.69,113.63.53,32.87,1.77,66.79,4.88,82S357.92,617,346.26,653.26"/><path class="cls-1" d="M593.25,168.84a757.46,757.46,0,0,0-79.77,215.59c-15.74,77-159.9,218.6-157.82,268.83"/><path class="cls-1" d="M455.57,1.52c-26.93,42.82-32.05,72.72-37.93,98-7.29,31.41-8.21,56.33-9.74,98.21-1.11,30.31-.22,56.06,1.62,106.33,1.49,40.55,2.67,56.23,4.06,86.85,1.51,33-60.84,203.54-60.74,262.29"/><path class="cls-1" d="M87.87,1.52C77.25,84.61,94,163,108.21,203.42c20.93,59.34,55.59,105.69,62.53,190.75,1.59,19.45,5.09,70.32,24.34,99.6C219.59,531.05,342.14,682.2,342.14,682.2"/><path class="cls-1" d="M320.19,73.56c31.41,41.87,40.43,96.36,58.47,205.35,10.83,65.42-29.35,261.81-31.2,372.93"/><path class="cls-1" d="M415.65,92.85c7.68,87.44-74.82,321.91-71.73,564.79"/><path class="cls-1" d="M371.93,2c-13.46,171.89-25.75,588.17-24.68,652.08"/><path class="cls-1" d="M498.34,123.15c-42.94,46-116.44,139.11-139.48,274.07a501.82,501.82,0,0,0-6.26,113.2l-8.41,142.16"/><path class="cls-1" d="M160.36,1.52c21,31.43,57.53,105.2,93.67,144.75,16.62,18.57,44.15,48.2,48,52.33,22.2,23.89,38.38,40.86,39.57,42.12,23.94,25.36-1.76,171.9,1.06,414.41"/><path class="cls-1" d="M295.46,71.08c63.14,121.19,70,241.22,76.44,354.2,2.55,44.66-15.5,204.41-15.91,228"/><path class="cls-1" d="M515.84,140.3a557.65,557.65,0,0,0-46,122.46c-12.48,50.79-14.47,90.05-17.37,154.18-.39,62.39-96.43,177.13-93.5,234.9"/><path class="cls-1" d="M674.06,1.52C677.12,84.79,537.17,238.81,509.2,327c-27.89,88-144.67,279.87-168.36,330.19"/><path class="cls-2" d="M111.17,91.05a1.38,1.38,0,0,0-.48-.25,1.35,1.35,0,0,0-.53,0,1.32,1.32,0,0,0-.51.16"/><path class="cls-1" d="M559.6,297.94c-41.42,78.22-49.09,124.27-49.42,150.25-.06,4.76-.1,26.73,0,50,.13,28.62-149.16,138.74-148.9,155.06"/><path class="cls-1" d="M280.87,98.86c7.8,49.75,8.72,53.64,23.63,145.15,21.64,132.86,30.13,188.7,31.26,266,.35,15,10.7,149.88,7.41,150.75"/></g><g id="arrow"><path class="cls-3" d="M351.36,747.39a13.08,13.08,0,0,1-4.75-.93,13.83,13.83,0,0,1-2.12-1.12,17.46,17.46,0,0,1-2-1.63l-45.14-45.17a12.75,12.75,0,0,1,18-18l23.15,29.21V610.15c0-9.39,1.34-12.63,3.73-15a12.73,12.73,0,0,1,18,0c2.39,2.4,3.73,5.64,3.73,15v99.58l23.15-29.21a12.88,12.88,0,0,1,9-3.83,12.88,12.88,0,0,1,9.09,3.7,12.84,12.84,0,0,1,.13,18.15l-45,45.09a15.36,15.36,0,0,1-2,1.63,13.9,13.9,0,0,1-2.08,1.12A13.11,13.11,0,0,1,351.36,747.39Z"/></g></g></svg>