<svg xmlns="http://www.w3.org/2000/svg" xmlns:xlink="http://www.w3.org/1999/xlink" viewBox="0 0 715.43 715.56"><defs><style>.cls-1,.cls-10,.cls-11,.cls-12,.cls-13,.cls-14,.cls-15,.cls-16,.cls-17,.cls-18,.cls-19,.cls-2,.cls-20,.cls-21,.cls-22,.cls-23,.cls-24,.cls-25,.cls-26,.cls-27,.cls-28,.cls-29,.cls-3,.cls-30,.cls-31,.cls-32,.cls-33,.cls-34,.cls-35,.cls-36,.cls-37,.cls-38,.cls-39,.cls-40,.cls-41,.cls-42,.cls-43,.cls-44,.cls-45,.cls-46,.cls-47,.cls-48,.cls-49,.cls-5,.cls-50,.cls-51,.cls-52,.cls-53,.cls-54,.cls-55,.cls-56,.cls-57,.cls-58,.cls-59,.cls-6,.cls-60,.cls-61,.cls-62,.cls-63,.cls-64,.cls-65,.cls-66,.cls-67,.cls-68,.cls-69,.cls-7,.cls-70,.cls-71,.cls-72,.cls-73,.cls-74,.cls-8,.cls-9{fill:none;}.cls-1,.cls-10,.cls-11,.cls-12,.cls-13,.cls-14,.cls-15,.cls-16,.cls-17,.cls-18,.cls-19,.cls-2,.cls-20,.cls-21,.cls-22,.cls-23,.cls-24,.cls-25,.cls-26,.cls-27,.cls-28,.cls-29,.cls-3,.cls-30,.cls-31,.cls-32,.cls-33,.cls-34,.cls-35,.cls-36,.cls-37,.cls-38,.cls-39,.cls-40,.cls-41,.cls-42,.cls-43,.cls-44,.cls-45,.cls-46,.cls-47,.cls-48,.cls-49,.cls-5,.cls-50,.cls-51,.cls-52,.cls-53,.cls-54,.cls-55,.cls-56,.cls-57,.cls-58,.cls-59,.cls-6,.cls-60,.cls-61,.cls-62,.cls-63,.cls-64,.cls-65,.cls-66,.cls-67,.cls-68,.cls-69,.cls-7,.cls-70,.cls-71,.cls-72,.cls-73,.cls-74,.cls-75,.cls-8,.cls-9{stroke-miterlimit:10;}.cls-1,.cls-10,.cls-11,.cls-12,.cls-13,.cls-14,.cls-15,.cls-16,.cls-17,.cls-18,.cls-19,.cls-2,.cls-20,.cls-21,.cls-22,.cls-23,.cls-24,.cls-25,.cls-26,.cls-27,.cls-28,.cls-29,.cls-3,.cls-30,.cls-31,.cls-32,.cls-33,.cls-34,.cls-35,.cls-36,.cls-37,.cls-38,.cls-39,.cls-40,.cls-41,.cls-42,.cls-43,.cls-44,.cls-45,.cls-46,.cls-47,.cls-48,.cls-49,.cls-5,.cls-50,.cls-51,.cls-52,.cls-53,.cls-54,.cls-55,.cls-56,.cls-57,.cls-58,.cls-59,.cls-6,.cls-60,.cls-61,.cls-62,.cls-63,.cls-64,.cls-65,.cls-66,.cls-67,.cls-68,.cls-69,.cls-7,.cls-70,.cls-71,.cls-73,.cls-74,.cls-8,.cls-9{stroke-width:1.06px;}.cls-1{stroke:url(#linear-gradient);}.cls-2{stroke:url(#linear-gradient-2);}.cls-3{stroke:url(#linear-gradient-3);}.cls-4{fill:#fff;}.cls-5{stroke:url(#linear-gradient-4);}.cls-6{stroke:url(#linear-gradient-5);}.cls-7{stroke:url(#linear-gradient-6);}.cls-8{stroke:url(#linear-gradient-7);}.cls-9{stroke:url(#linear-gradient-8);}.cls-10{stroke:url(#linear-gradient-9);}.cls-11{stroke:url(#linear-gradient-10);}.cls-12{stroke:url(#linear-gradient-11);}.cls-13{stroke:url(#linear-gradient-12);}.cls-14{stroke:url(#linear-gradient-13);}.cls-15{stroke:url(#linear-gradient-14);}.cls-16{stroke:url(#linear-gradient-15);}.cls-17{stroke:url(#linear-gradient-16);}.cls-18{stroke:url(#linear-gradient-17);}.cls-19{stroke:url(#linear-gradient-18);}.cls-20{stroke:url(#linear-gradient-19);}.cls-21{stroke:url(#linear-gradient-20);}.cls-22{stroke:url(#linear-gradient-21);}.cls-23{stroke:url(#linear-gradient-22);}.cls-24{stroke:url(#linear-gradient-23);}.cls-25{stroke:url(#linear-gradient-24);}.cls-26{stroke:url(#linear-gradient-25);}.cls-27{stroke:url(#linear-gradient-26);}.cls-28{stroke:url(#linear-gradient-27);}.cls-29{stroke:url(#linear-gradient-28);}.cls-30{stroke:url(#linear-gradient-29);}.cls-31{stroke:url(#linear-gradient-30);}.cls-32{stroke:url(#linear-gradient-31);}.cls-33{stroke:url(#linear-gradient-32);}.cls-34{stroke:url(#linear-gradient-33);}.cls-35{stroke:url(#linear-gradient-34);}.cls-36{stroke:url(#linear-gradient-35);}.cls-37{stroke:url(#linear-gradient-36);}.cls-38{stroke:url(#linear-gradient-37);}.cls-39{stroke:url(#linear-gradient-38);}.cls-40{stroke:url(#linear-gradient-39);}.cls-41{stroke:url(#linear-gradient-40);}.cls-42{stroke:url(#linear-gradient-41);}.cls-43{stroke:url(#linear-gradient-42);}.cls-44{stroke:url(#linear-gradient-43);}.cls-45{stroke:url(#linear-gradient-44);}.cls-46{stroke:url(#linear-gradient-45);}.cls-47{stroke:url(#linear-gradient-46);}.cls-48{stroke:url(#linear-gradient-47);}.cls-49{stroke:url(#linear-gradient-48);}.cls-50{stroke:url(#linear-gradient-49);}.cls-51{stroke:url(#linear-gradient-50);}.cls-52{stroke:url(#linear-gradient-51);}.cls-53{stroke:url(#linear-gradient-52);}.cls-54{stroke:url(#linear-gradient-53);}.cls-55{stroke:url(#linear-gradient-54);}.cls-56{stroke:url(#linear-gradient-55);}.cls-57{stroke:url(#linear-gradient-56);}.cls-58{stroke:url(#linear-gradient-57);}.cls-59{stroke:url(#linear-gradient-58);}.cls-60{stroke:url(#linear-gradient-59);}.cls-61{stroke:url(#linear-gradient-60);}.cls-62{stroke:url(#linear-gradient-61);}.cls-63{stroke:url(#linear-gradient-62);}.cls-64{stroke:url(#linear-gradient-63);}.cls-65{stroke:url(#linear-gradient-64);}.cls-66{stroke:url(#linear-gradient-65);}.cls-67{stroke:url(#linear-gradient-66);}.cls-68{stroke:url(#linear-gradient-67);}.cls-69{stroke:url(#linear-gradient-68);}.cls-70{stroke:url(#linear-gradient-69);}.cls-71{stroke:url(#linear-gradient-70);}.cls-72{stroke:url(#linear-gradient-71);}.cls-73{stroke:url(#linear-gradient-72);}.cls-74{stroke:url(#linear-gradient-73);}.cls-75{stroke-width:0.51px;fill:url(#linear-gradient-74);stroke:url(#linear-gradient-75);}</style><linearGradient id="linear-gradient" x1="403.33" y1="5.31" x2="421.48" y2="650.28" gradientTransform="translate(0 -0.26)" gradientUnits="userSpaceOnUse"><stop offset="0" stop-color="#fff" stop-opacity="0"/><stop offset="0.12" stop-color="#fff" stop-opacity="0.23"/><stop offset="0.35" stop-color="#fff" stop-opacity="0.64"/><stop offset="0.51" stop-color="#fff" stop-opacity="0.9"/><stop offset="0.58" stop-color="#fff"/></linearGradient><linearGradient id="linear-gradient-2" x1="247.15" y1="3.57" x2="265.76" y2="664.81" xlink:href="#linear-gradient"/><linearGradient id="linear-gradient-3" x1="430.49" y1="12.89" x2="448.46" y2="651.56" xlink:href="#linear-gradient"/><linearGradient id="linear-gradient-4" x1="296.72" y1="2.67" x2="315.07" y2="654.54" xlink:href="#linear-gradient"/><linearGradient id="linear-gradient-5" x1="374.69" y1="-0.8" x2="393.07" y2="652.22" xlink:href="#linear-gradient"/><linearGradient id="linear-gradient-6" x1="374.35" y1="0.17" x2="392.75" y2="654.16" xlink:href="#linear-gradient"/><linearGradient id="linear-gradient-7" x1="216.28" y1="-2.74" x2="234.85" y2="657.06" xlink:href="#linear-gradient"/><linearGradient id="linear-gradient-8" x1="284.03" y1="0.63" x2="295.26" y2="399.64" xlink:href="#linear-gradient"/><linearGradient id="linear-gradient-9" x1="264.3" y1="28.05" x2="282.15" y2="662.21" xlink:href="#linear-gradient"/><linearGradient id="linear-gradient-10" x1="415.04" y1="2.5" x2="433.31" y2="651.85" xlink:href="#linear-gradient"/><linearGradient id="linear-gradient-11" x1="462.81" y1="196.63" x2="475.58" y2="650.47" xlink:href="#linear-gradient"/><linearGradient id="linear-gradient-12" x1="218.99" y1="-1.91" x2="237.57" y2="658.18" xlink:href="#linear-gradient"/><linearGradient id="linear-gradient-13" x1="186.31" y1="-2.39" x2="205.27" y2="671.29" xlink:href="#linear-gradient"/><linearGradient id="linear-gradient-14" x1="175.9" y1="-1.88" x2="194.7" y2="666.1" xlink:href="#linear-gradient"/><linearGradient id="linear-gradient-15" x1="208.67" y1="-2.63" x2="227.24" y2="657.33" xlink:href="#linear-gradient"/><linearGradient id="linear-gradient-16" x1="477.17" y1="4.2" x2="492.56" y2="551.07" xlink:href="#linear-gradient"/><linearGradient id="linear-gradient-17" x1="304.6" y1="-0.41" x2="323.04" y2="654.68" xlink:href="#linear-gradient"/><linearGradient id="linear-gradient-18" x1="440.44" y1="4.76" x2="458.99" y2="664.08" xlink:href="#linear-gradient"/><linearGradient id="linear-gradient-19" x1="505.28" y1="163.79" x2="519.06" y2="653.39" xlink:href="#linear-gradient"/><linearGradient id="linear-gradient-20" x1="478.7" y1="6.36" x2="496.8" y2="649.62" xlink:href="#linear-gradient"/><linearGradient id="linear-gradient-21" x1="210.34" y1="-1.05" x2="228.85" y2="656.73" xlink:href="#linear-gradient"/><linearGradient id="linear-gradient-22" x1="163.73" y1="-2.33" x2="182.92" y2="679.72" xlink:href="#linear-gradient"/><linearGradient id="linear-gradient-23" x1="362.68" y1="2.75" x2="376.32" y2="487.44" xlink:href="#linear-gradient"/><linearGradient id="linear-gradient-24" x1="437.26" y1="88.05" x2="453.1" y2="650.94" xlink:href="#linear-gradient"/><linearGradient id="linear-gradient-25" x1="498.68" y1="6.75" x2="516.77" y2="649.31" xlink:href="#linear-gradient"/><linearGradient id="linear-gradient-26" x1="316.62" y1="-0.57" x2="335.04" y2="654.05" xlink:href="#linear-gradient"/><linearGradient id="linear-gradient-27" x1="368.21" y1="2.47" x2="386.51" y2="652.65" xlink:href="#linear-gradient"/><linearGradient id="linear-gradient-28" x1="247.11" y1="1.85" x2="265.91" y2="670.25" xlink:href="#linear-gradient"/><linearGradient id="linear-gradient-29" x1="525.69" y1="7.49" x2="543.73" y2="648.45" xlink:href="#linear-gradient"/><linearGradient id="linear-gradient-30" x1="510.22" y1="6.59" x2="528.29" y2="649.01" xlink:href="#linear-gradient"/><linearGradient id="linear-gradient-31" x1="253.21" y1="0.02" x2="272.07" y2="670.4" xlink:href="#linear-gradient"/><linearGradient id="linear-gradient-32" x1="329.09" y1="78.04" x2="345.3" y2="654.01" xlink:href="#linear-gradient"/><linearGradient id="linear-gradient-33" x1="423.65" y1="48.4" x2="440.45" y2="645.24" xlink:href="#linear-gradient"/><linearGradient id="linear-gradient-34" x1="384.68" y1="8.22" x2="402.81" y2="652.37" xlink:href="#linear-gradient"/><linearGradient id="linear-gradient-35" x1="507.55" y1="6.45" x2="526.4" y2="676.35" xlink:href="#linear-gradient"/><linearGradient id="linear-gradient-36" x1="244.61" y1="-0.56" x2="263.1" y2="656.37" xlink:href="#linear-gradient"/><linearGradient id="linear-gradient-37" x1="294.31" y1="0.02" x2="312.74" y2="654.75" xlink:href="#linear-gradient"/><linearGradient id="linear-gradient-38" x1="188.29" y1="-0.52" x2="203.45" y2="538.25" xlink:href="#linear-gradient"/><linearGradient id="linear-gradient-39" x1="190.75" y1="-1.67" x2="209.3" y2="657.44" xlink:href="#linear-gradient"/><linearGradient id="linear-gradient-40" x1="297.96" y1="93.48" x2="313" y2="627.88" xlink:href="#linear-gradient"/><linearGradient id="linear-gradient-41" x1="278.06" y1="1.97" x2="296.45" y2="655.63" xlink:href="#linear-gradient"/><linearGradient id="linear-gradient-42" x1="242.61" y1="-0.59" x2="261.09" y2="656.38" xlink:href="#linear-gradient"/><linearGradient id="linear-gradient-43" x1="438.65" y1="3.4" x2="457.05" y2="657.5" xlink:href="#linear-gradient"/><linearGradient id="linear-gradient-44" x1="253.22" y1="0.77" x2="271.76" y2="659.41" xlink:href="#linear-gradient"/><linearGradient id="linear-gradient-45" x1="332.61" y1="4.54" x2="350.18" y2="628.89" xlink:href="#linear-gradient"/><linearGradient id="linear-gradient-46" x1="386.41" y1="163.6" x2="400.16" y2="652.27" xlink:href="#linear-gradient"/><linearGradient id="linear-gradient-47" x1="361.79" y1="2.7" x2="380.08" y2="652.71" xlink:href="#linear-gradient"/><linearGradient id="linear-gradient-48" x1="295.82" y1="133.34" x2="310.39" y2="651.28" xlink:href="#linear-gradient"/><linearGradient id="linear-gradient-49" x1="470.65" y1="5.87" x2="488.46" y2="638.7" xlink:href="#linear-gradient"/><linearGradient id="linear-gradient-50" x1="437.39" y1="72.68" x2="454.37" y2="676.23" xlink:href="#linear-gradient"/><linearGradient id="linear-gradient-51" x1="230.97" y1="-1.06" x2="249.62" y2="661.71" xlink:href="#linear-gradient"/><linearGradient id="linear-gradient-52" x1="268.61" y1="-0.39" x2="287.01" y2="653.66" xlink:href="#linear-gradient"/><linearGradient id="linear-gradient-53" x1="195.01" y1="-2.29" x2="213.65" y2="660.37" xlink:href="#linear-gradient"/><linearGradient id="linear-gradient-54" x1="320.83" y1="2.12" x2="339.22" y2="655.52" xlink:href="#linear-gradient"/><linearGradient id="linear-gradient-55" x1="228.79" y1="-0.95" x2="247.3" y2="656.63" xlink:href="#linear-gradient"/><linearGradient id="linear-gradient-56" x1="414.63" y1="28.08" x2="432.21" y2="652.83" xlink:href="#linear-gradient"/><linearGradient id="linear-gradient-57" x1="434.82" y1="153.5" x2="448.85" y2="651.91" xlink:href="#linear-gradient"/><linearGradient id="linear-gradient-58" x1="394.37" y1="3.27" x2="412.65" y2="652.89" xlink:href="#linear-gradient"/><linearGradient id="linear-gradient-59" x1="285.55" y1="2.28" x2="303.92" y2="654.89" xlink:href="#linear-gradient"/><linearGradient id="linear-gradient-60" x1="467.7" y1="172.36" x2="481.14" y2="649.99" xlink:href="#linear-gradient"/><linearGradient id="linear-gradient-61" x1="395.03" y1="3.18" x2="413.29" y2="651.77" xlink:href="#linear-gradient"/><linearGradient id="linear-gradient-62" x1="202.75" y1="-1.54" x2="222.1" y2="686.15" xlink:href="#linear-gradient"/><linearGradient id="linear-gradient-63" x1="347.14" y1="72.75" x2="363.43" y2="651.67" xlink:href="#linear-gradient"/><linearGradient id="linear-gradient-64" x1="371.98" y1="94.3" x2="387.81" y2="656.67" xlink:href="#linear-gradient"/><linearGradient id="linear-gradient-65" x1="350.43" y1="2.83" x2="368.75" y2="653.77" xlink:href="#linear-gradient"/><linearGradient id="linear-gradient-66" x1="413.8" y1="125.42" x2="428.57" y2="650.51" xlink:href="#linear-gradient"/><linearGradient id="linear-gradient-67" x1="251.95" y1="-1.09" x2="270.48" y2="657.43" xlink:href="#linear-gradient"/><linearGradient id="linear-gradient-68" x1="328.72" y1="70.17" x2="345.14" y2="653.85" xlink:href="#linear-gradient"/><linearGradient id="linear-gradient-69" x1="430.25" y1="142.7" x2="444.52" y2="649.7" xlink:href="#linear-gradient"/><linearGradient id="linear-gradient-70" x1="498.39" y1="6.71" x2="516.57" y2="652.72" xlink:href="#linear-gradient"/><linearGradient id="linear-gradient-71" x1="110.43" y1="90.5" x2="110.47" y2="91.71" xlink:href="#linear-gradient"/><linearGradient id="linear-gradient-72" x1="455.49" y1="300.87" x2="465.33" y2="650.59" xlink:href="#linear-gradient"/><linearGradient id="linear-gradient-73" x1="304.56" y1="98.38" x2="320.43" y2="662.16" xlink:href="#linear-gradient"/><linearGradient id="linear-gradient-74" x1="349.84" y1="608.65" x2="351.68" y2="674.03" gradientTransform="translate(0 11.74)" xlink:href="#linear-gradient"/><linearGradient id="linear-gradient-75" x1="314.35" y1="653.64" x2="388.59" y2="653.64" gradientTransform="translate(0 11.74)" gradientUnits="userSpaceOnUse"><stop offset="0" stop-color="#fff" stop-opacity="0"/><stop offset="0.87" stop-color="#535353" stop-opacity="0.13"/><stop offset="1" stop-opacity="0.2"/></linearGradient></defs><g id="Layer_2" data-name="Layer 2"><g id="lines"><path class="cls-1" d="M520.94,2c-26.57,43.75-34,26.34-84.51,90-48.17,60.72-82.29,103.73-106.81,162.75-14.15,34.06-33.39,131.62-32.39,159.26s55.61,237.79,55.61,237.79"/><path class="cls-2" d="M302.84,2c-38,65.85-59.59,90.05-80.91,132.89C187.77,203.54,178.41,273.26,179,333.55L343.17,662.16"/><path class="cls-3" d="M448.7,12.29C474.15,83,497.43,121.66,512.61,210.17c13,76,22.61,203.21,13.13,230.13s-173.32,213-165.45,213"/><path class="cls-4" d="M359.68,648.8a1.39,1.39,0,0,0,.1.53,1.2,1.2,0,0,0,.29.45,1.23,1.23,0,0,0,.44.3c.16.07-.66.11-.48.11a1.5,1.5,0,0,0,.52-.09,1.51,1.51,0,0,0,.45-.29,1.47,1.47,0,0,0,.31-.44,1.4,1.4,0,0,0,.11-.53,1.34,1.34,0,0,0-.1-.52,1.2,1.2,0,0,0-.29-.45,1.23,1.23,0,0,0-.44-.3,1.31,1.31,0,0,0-.52-.11c-.18,0,.64,0,.47.09a1.34,1.34,0,0,0-.75.73,1.35,1.35,0,0,0-.11.52Z"/><path class="cls-5" d="M336,1.52c-45.32,115.84-58.25,171.42-60.69,186.77-4.07,25.63-5,41.93-8.75,132.13-2.72,64.94,85.65,282.13,83.69,332.84"/><path class="cls-4" d="M337.64,653.17a1.36,1.36,0,0,0,.07.53,1.28,1.28,0,0,0,.26.47,1.5,1.5,0,0,0,.42.33,1.54,1.54,0,0,0,.52.14,1.36,1.36,0,0,0,.53-.07,1.17,1.17,0,0,0,.46-.26,1.34,1.34,0,0,0,.47-.94,1.22,1.22,0,0,0-.06-.53,1.4,1.4,0,0,0-.26-.46,1.34,1.34,0,0,0-.94-.47,1.35,1.35,0,0,0-.53.06,1.47,1.47,0,0,0-.47.27,1.34,1.34,0,0,0-.32.42,1.5,1.5,0,0,0-.15.51Z"/><path class="cls-6" d="M293.93,1.52c48,65.84,71.77,58.57,98.73,98.4,28.42,42,38.29,77.34,56,140.87,15.34,55,32.18,136.41-11.61,238.88l-100,173.59"/><path class="cls-7" d="M325,1.52a1055.68,1055.68,0,0,1,54.55,135.15c33.74,103.69,43.06,189.58,49,247.63,3.55,34.4,11.35,65.16,6.13,84s-73.26,186.27-73.26,186.27"/><path class="cls-8" d="M67,1.52C81.81,20.93,137,72,247.32,168.17c23.36,20.35,42.93,37.25,64.78,65.62,48.84,63.42,59.28,119.53,61.29,131.26a261.63,261.63,0,0,1,3.51,55.12l-18,233.09"/><path class="cls-9" d="M247.17,1.52c-2.88,15.68-5.56,17.82-7.73,60.44a1538.15,1538.15,0,0,0,0,157.51l107,178.21"/><path class="cls-10" d="M256.07,28.17c-19.27,73.59-37.4,112.76-42,191.63-2.41,41.12-1.14,92.95.88,175.88.85,35,1.86,64.05,2.63,84L342,660"/><path class="cls-11" d="M494.21,0c10.28,143.88-68.41,153.6-84,371.13-2.93,40.77,5.5,89.73-.88,122.5S329,621,361.28,653.26"/><path class="cls-12" d="M578.27,193.54c-4.84,4-36.27,29.37-70.92,70C473,303.88,424.91,361.7,420.67,440.3a211.75,211.75,0,0,0,2.62,46.37l-63,166.59"/><path class="cls-13" d="M106.23,1.26c34,56.94,31.81,94.68,67.54,159.91,35.21,64.29,46,63,77.92,127.75,23.9,48.41,33.08,79.88,35.9,112.88,1.83,21.6-6.7,32.91-2.63,64.74s65.34,188,65.34,188"/><path class="cls-14" d="M47.51,1.52c6.59,11.11-12,81.9,27.32,119.39,38.22,48.63,61.09,78.69,85.8,120.75,18.63,31.72,31.15,58.08,37.65,91.88,3.15,16.44,1.75,30.18,4.38,55.89S344.19,666.88,344.19,666.88"/><path class="cls-15" d="M30.66,2C20.9,80.27,40.9,118.06,60,141c17.22,20.77,33.32,25.31,56,50.75,6.93,7.77,24.55,29.53,49.9,104.13,51.2,151.59,177.51,340.7,177.79,365.73"/><path class="cls-16" d="M63,1.52c51.45,68.69,125.15,110,193.08,190.27C274,213,347.57,303.87,364.64,438.55a452.44,452.44,0,0,1,3.49,65.82l-6.85,148.89"/><path class="cls-17" d="M553.55,2c-41.18,88.3-54.77,133.09-66.59,177.4-24.21,90.72-21.89,171-15.76,225.75l-55,147.59"/><path class="cls-18" d="M219.58,2c41.44,55.43,38.6,9.93,75,58.51C355,141.1,374.92,223,384.78,265.29A612.16,612.16,0,0,1,400.54,387.8L361.28,653.26"/><path class="cls-19" d="M529.56,2c-1.86,61-8.25,106.81,3.18,212.51,6.29,58.17,13.32,90.72,13.14,154.88-.1,33.63,10.59,69-6.13,100.63C518.06,511.1,517,507.81,362,666.17"/><path class="cls-20" d="M662.31,159.49a483.23,483.23,0,0,0-95.42,148.68c-20.72,51-23.29,132.41-35,160.13C508.23,524.15,373.94,645,362,657.17"/><path class="cls-21" d="M626.06,2c7.72,47.74-17.87,147.42-60.92,183.64-4.79,4.74-5.26,4.43-10.51,9.62-21.69,21.47-42.68,55.52-55.16,157.5-5.13,42.1-7.47,84.48-51,126.88l-100,173.59"/><path class="cls-22" d="M97.2,2C125.26,85,150,47.1,191.28,150.67,236.64,264.4,244.51,371,248.19,426.3c3,44.8,94.66,199.33,93.75,227"/><path class="cls-23" d="M.53,2C7.61,102.15,40,155.81,68.71,191.79c23.93,30,32.18,27.24,56.91,62.13,50.53,71.31,62.44,148.32,66.54,176.75,2.38,16.53,4.46,49.13,21.81,77.4,20.56,33.48,20.82,32.65,132.26,166.47"/><path class="cls-24" d="M380.7,2c-2,38.11,1.44,94.68,5.73,172.66l-29,313"/><path class="cls-25" d="M535.89,85.25c-32.53,70.12-48.79,105.18-59.79,138.83C460,273.46,441.73,349.63,428.48,451l-74,202.24"/><path class="cls-26" d="M659.42,2c9.18,67.78-143.9,233-173,309C462.23,373.9,492,422.68,470.66,474.56s-115,178.7-115,178.7"/><path class="cls-27" d="M251.83,1.26c35.69,59.05,74.64,42.6,106.5,111.16,14.91,32.08,20.08,61,24.16,83.9,9.13,51.16,6.22,88,4.23,129.17-2.11,43.5-3.84,105.23-16.82,182.28l-19,145.49"/><path class="cls-28" d="M399.1,1.52c-13.17,40.91-17.84,31.67-23.86,60.19-1.79,8.51-8.52,41.12-13.89,92.35-3,28.87-4.73,55.2-6.64,118.3-3.26,107.39-3.63,206.42-3.63,206.42l4.58,174.48"/><path class="cls-29" d="M237.06,2c-18.83,71.27-29,195-37,279.38-8.56,91.1-30.43,182.15-10.86,223,33.05,68.93,142,150.89,155.47,163"/><path class="cls-30" d="M714.91,2c-23.67,113.2-60,156.7-96.88,188.85-17.35,15.14-42,32.26-66.44,68.21-31.24,46-41.41,92.22-45.9,113.47-6.29,29.95-8.73,60.58-51.24,91.14l-100,189.56"/><path class="cls-31" d="M682.74,1.52c15.79,154.81-85.22,342.67-102.16,349.31-6.7,4.53-14.14,8.55-23.56,17.5-36.94,35.13-45.38,109.88-57.27,127.36s-145,157.57-145,157.57"/><path class="cls-32" d="M181.32,2c8.64,15.65,14.85,50.11,24.82,106.76,13.32,75.78,14.27,136.63,15.09,208.24,1,86.53-9.53,152.89,6.82,184.69,22.88,44.53,128.39,182.88,114.6,164.14"/><path class="cls-33" d="M288.27,79.22C315,118.9,316.89,119,326.32,136c31.13,56,37.07,106.62,45.29,172.62a1043.35,1043.35,0,0,1,7.86,143.65l-19,201"/><path class="cls-34" d="M520.94,45.67c-36.78,71.38-58.6,81.45-79.12,143.65-12.59,38.17-15.61,76.46-21.13,151.5-4.43,60.06-6,114.76-6,163L343.17,647.47"/><path class="cls-35" d="M476.1,5.58c-24.88,70.74-57.7,130.58-67,147.28-45.45,81.28-76.16,109-93.61,178.05-9,35.61-13,58.6-10.27,85.71s53,236.64,53,236.64"/><path class="cls-36" d="M693.46,1.26c-41,63-125.5,203.89-157.71,227.29-29.35,21.32-38.37,22-60.4,43.46-13.63,13.28-59.74,61.29-73.08,137.62-3.25,18.64-5.91,28.77-4.71,39.55-8.68,74-78.52,310.43-50.31,204.93"/><path class="cls-37" d="M149.63,2c3.64,9.73,29.38,77,40.2,96.5,57.91,104.63,87.68,128.55,97.23,187.72.86,5.31,1.38,18.83,2.42,45.87,2.5,65.09,1.72,117.93.61,153.31l68,167.83"/><path class="cls-38" d="M240.28,1.52C265,49.3,258.44,60.69,275.59,114.23c13,40.48,28.55,63.48,39.25,83.29,25.31,46.87,50.27,126,44.09,266.18l-3.27,189.56"/><path class="cls-39" d="M124.28,1.26c9.36,17.61,28.93,55.89,35,104.74a242.34,242.34,0,0,1,1.81,34.41c-.58,49.23-5.76,234.84-.61,255.92s107,139.53,107,139.53"/><path class="cls-40" d="M53.12,2c8.73,48.07,57.5,199.22,86,289.05,11.93,37.62,18,56.65,29.58,83.89,20.13,47.13,32.95,68,41.68,94.16S349.94,613.07,346.81,653.26"/><path class="cls-41" d="M323.05,92.87a145,145,0,0,0-24.51,39.46,148.15,148.15,0,0,0-10.87,51.31c-2.16,43.29-8.26,86.43-8.46,129.77-.16,36.1-14.75,113.35-6,154.51s77.13,158.4,77.13,158.4"/><path class="cls-42" d="M276.11,2c-24,45.87-25.29,84.69-30.72,143-2.23,24-.8,20.32-3.62,97.78-2.76,75.93-4.46,88.28-6,139.43-1,31.16-10.8,84.71-1.22,131.58s123,139.46,123,139.46"/><path class="cls-43" d="M142.72,2c7.36,49.24,25.68,120.42,42.88,152.64,22.57,42.26,27.43,38,76.1,114.68,40.07,63.15,47.69,83.27,52.54,102,7.46,28.79,8.93,56.41,10.27,81.49,1.64,30.86,37.7,181.76,36.39,200.42"/><path class="cls-44" d="M507.54,1.52c20,26,46.52,149,36.36,216.83-14.34,101.91-25.25,93.37-23.11,166.28,4,77.42,11.16,118.68-1.21,128C499,528,354.4,659.73,354.4,659.73"/><path class="cls-45" d="M204.36,2c-14.47,60.61-4.68,198.91-12.53,274.67-10.24,98.86,149.93,320.63,149.8,380.48"/><path class="cls-46" d="M440.46,1.52c-42.23,77.36-90.4,110.92-140.79,225.66A694.73,694.73,0,0,0,254,371.85c-9,45.72-22,93.46-12.63,138.84s103.7,117.68,103.7,117.68"/><path class="cls-47" d="M438.6,162.12c-7.5,15-46.68,94.08-74.81,188.37-8.58,28.78-16.14,59-20.4,96.12-3.76,32.82,11.43,186.66,12.27,206.65"/><path class="cls-48" d="M402.65,1.52c-18.46,42.69-19,56-19.43,71.27-3.1,101.3-31.29,119.73-50.52,286.43-5.87,50.84,16.95,203,18.2,294"/><path class="cls-49" d="M266.64,134c11.24,82,18.76,89.64,30.12,160.2,9,55.95,44.71,254.2,42.16,356"/><path class="cls-50" d="M604.1,2C573.67,103.29,532.26,151.44,495,249.5c-21.43,56.33-31.23,237.36-37.89,254.86s-102.15,137.5-102.15,137.5"/><path class="cls-51" d="M467.75,71.83c38,63.93,51.76,123.26,58.29,152.43,10.39,46.47,11.89,80.58,14.57,141.76,4.2,103.47-179.7,311.25-181.44,312.15"/><path class="cls-52" d="M134.83,1.52c29.48,104.39,42,174.46,45.34,189.73,22.91,103.56,26.94,189,29.15,240.8,2.55,59.85,137.62,198.05,136.4,226.66"/><path class="cls-53" d="M209.43,1.26c47,83.7,80.21,145,97.18,197.85,20,62.31,24.34,121.06,33,238.56,3.42,46.66,2.47,187.19,3.21,214.17"/><path class="cls-54" d="M60.25,1.26C60.33,65.58,126.4,130.05,155.43,173,184.58,216.1,196.5,253.3,213,304.72c13.5,42.17,29.15,101.92,73.41,176.18l62.09,175.26"/><path class="cls-55" d="M342.79,1.26c-.12,41.15-18.14,100.7-26,170.58-4.33,38.75-6,69.53-9.09,129.5C304.6,362,344.3,537.41,343.17,655.13"/><path class="cls-56" d="M119.51,2c54.27,157.52,107.21,218.12,134.81,315.23,13.42,47.2,112.87,240.91,100.64,336"/><path class="cls-57" d="M506.3,25.41a1609.83,1609.83,0,0,0-44,188.47C439,350.7,335.11,554.36,340.61,655.13"/><path class="cls-58" d="M540.57,150.51c-39,79.21-57.27,147.43-66.49,194.24C463.57,398.08,460.54,445,459.3,465.17c-2.43,39.45-117.16,162.94-116.13,189.45"/><path class="cls-59" d="M459.08,1.26C482,137.71,455.2,233.74,431.45,287c-9.11,20.44-29.33,59.84-39.73,118.54-9.48,53.56-53.44,217.94-49.77,249"/><path class="cls-60" d="M286,2c.27,50.39,1.26,80.93-.72,99.12-6.66,61.14-18.71,69.09-27.61,136.37-6.57,49.59-6,90.86-5.69,113.63.53,32.87,1.77,66.79,4.88,82S357.92,617,346.26,653.26"/><path class="cls-61" d="M593.25,168.84a757.46,757.46,0,0,0-79.77,215.59c-15.74,77-159.9,218.6-157.82,268.83"/><path class="cls-62" d="M455.57,1.52c-26.93,42.82-32.05,72.72-37.93,98-7.29,31.41-8.21,56.33-9.74,98.21-1.11,30.31-.22,56.06,1.62,106.33,1.49,40.55,2.67,56.23,4.06,86.85,1.51,33-60.84,203.54-60.74,262.29"/><path class="cls-63" d="M87.87,1.52C77.25,84.61,94,163,108.21,203.42c20.93,59.34,55.59,105.69,62.53,190.75,1.59,19.45,5.09,70.32,24.34,99.6C219.59,531.05,342.14,682.2,342.14,682.2"/><path class="cls-64" d="M320.19,73.56c31.41,41.87,40.43,96.36,58.47,205.35,10.83,65.42-29.35,261.81-31.2,372.93"/><path class="cls-65" d="M415.65,92.85c7.68,87.44-74.82,321.91-71.73,564.79"/><path class="cls-66" d="M371.93,2c-13.46,171.89-25.75,588.17-24.68,652.08"/><path class="cls-67" d="M498.34,123.15c-42.94,46-116.44,139.11-139.48,274.07a501.82,501.82,0,0,0-6.26,113.2l-8.41,142.16"/><path class="cls-68" d="M160.36,1.52c21,31.43,57.53,105.2,93.67,144.75,16.62,18.57,44.15,48.2,48,52.33,22.2,23.89,38.38,40.86,39.57,42.12,23.94,25.36-1.76,171.9,1.06,414.41"/><path class="cls-69" d="M295.46,71.08c63.14,121.19,70,241.22,76.44,354.2,2.55,44.66-15.5,204.41-15.91,228"/><path class="cls-70" d="M515.84,140.3a557.65,557.65,0,0,0-46,122.46c-12.48,50.79-14.47,90.05-17.37,154.18-.39,62.39-96.43,177.13-93.5,234.9"/><path class="cls-71" d="M674.06,1.52C677.12,84.79,537.17,238.81,509.2,327c-27.89,88-144.67,279.87-168.36,330.19"/><path class="cls-72" d="M111.17,91.05a1.38,1.38,0,0,0-.48-.25,1.35,1.35,0,0,0-.53,0,1.32,1.32,0,0,0-.51.16"/><path class="cls-73" d="M559.6,297.94c-41.42,78.22-49.09,124.27-49.42,150.25-.06,4.76-.1,26.73,0,50,.13,28.62-149.16,138.74-148.9,155.06"/><path class="cls-74" d="M280.87,98.86c7.8,49.75,8.72,53.64,23.63,145.15,21.64,132.86,30.13,188.7,31.26,266,.35,15,10.7,149.88,7.41,150.75"/></g><g id="arrow"><path class="cls-75" d="M351.4,715.31a8.36,8.36,0,0,1-3-.6A8.84,8.84,0,0,1,347,714a10.58,10.58,0,0,1-1.28-1l-28.9-28.9a8.16,8.16,0,0,1,11.54-11.54l14.81,18.69V627.47c0-6,.86-8.08,2.39-9.61a8.15,8.15,0,0,1,11.53,0c1.53,1.53,2.38,3.61,2.38,9.61V691.2l14.82-18.69a8.22,8.22,0,0,1,5.78-2.45,8.19,8.19,0,0,1,7.61,5,8.22,8.22,0,0,1-1.71,9L357.18,712.9a10.38,10.38,0,0,1-1.26,1,8.21,8.21,0,0,1-1.34.72A8.45,8.45,0,0,1,351.4,715.31Z"/></g></g></svg>