<svg width="89" height="88" viewBox="0 0 89 88" fill="none" xmlns="http://www.w3.org/2000/svg">
<g clip-path="url(#clip0)">
<path d="M69.6006 76.9614H19.9399C19.7188 76.9614 19.5068 76.876 19.3504 76.724C19.1941 76.572 19.1062 76.3659 19.1062 76.1509V23.8527C19.1062 23.6377 19.1941 23.4315 19.3504 23.2795C19.5068 23.1275 19.7188 23.0421 19.9399 23.0421H33.5955V11.772C33.5954 11.6673 33.6172 11.5636 33.6596 11.4674C33.702 11.3711 33.764 11.2842 33.8419 11.212C33.9199 11.1398 34.0122 11.0838 34.1132 11.0473C34.2141 11.0109 34.3217 10.9948 34.4292 11.0001H55.1113C55.2188 10.9948 55.3264 11.0109 55.4273 11.0473C55.5283 11.0838 55.6205 11.1398 55.6984 11.212C55.7764 11.2842 55.8385 11.3711 55.8809 11.4674C55.9233 11.5636 55.945 11.6673 55.9449 11.772V23.0421H69.6006C69.8217 23.0421 70.0337 23.1275 70.1901 23.2795C70.3464 23.4315 70.4342 23.6377 70.4342 23.8527V76.1509C70.4342 76.3659 70.3464 76.572 70.1901 76.724C70.0337 76.876 69.8217 76.9614 69.6006 76.9614ZM20.7735 75.3404H68.767V24.6632H55.1113C54.8902 24.6632 54.6781 24.5778 54.5218 24.4258C54.3654 24.2738 54.2777 24.0677 54.2777 23.8527V12.5825H35.2628V23.8527C35.2628 24.0677 35.1751 24.2738 35.0187 24.4258C34.8624 24.5778 34.6503 24.6632 34.4292 24.6632H20.7735V75.3404Z" fill="#F3F3F3"/>
<path d="M48.9205 40.758H40.6239C40.4028 40.758 40.1907 40.6727 40.0344 40.5207C39.8781 40.3687 39.7903 40.1625 39.7903 39.9475V31.9194C39.7903 31.813 39.8117 31.7076 39.8536 31.6092C39.8955 31.5109 39.957 31.4216 40.0344 31.3463C40.1118 31.271 40.2036 31.2113 40.3048 31.1706C40.4059 31.1299 40.5144 31.1089 40.6239 31.1089H48.9205C49.03 31.1089 49.1383 31.1299 49.2395 31.1706C49.3406 31.2113 49.4326 31.271 49.51 31.3463C49.5874 31.4216 49.6487 31.5109 49.6906 31.6092C49.7325 31.7076 49.7541 31.813 49.7541 31.9194V39.9475C49.7541 40.1625 49.6663 40.3687 49.51 40.5207C49.3537 40.6727 49.1416 40.758 48.9205 40.758ZM41.4575 39.137H48.0869V32.73H41.4575V39.137Z" fill="#F3F3F3"/>
<path d="M34.2724 40.758H26.3331C26.2254 40.7581 26.1188 40.737 26.0198 40.6958C25.9208 40.6546 25.8314 40.5943 25.7571 40.5185C25.6829 40.4427 25.6253 40.3529 25.5878 40.2548C25.5503 40.1566 25.5337 40.0521 25.5391 39.9475V31.9194C25.5337 31.8149 25.5503 31.7103 25.5878 31.6122C25.6253 31.514 25.6829 31.4243 25.7571 31.3485C25.8314 31.2726 25.9208 31.2123 26.0198 31.1711C26.1188 31.13 26.2254 31.1088 26.3331 31.1089H34.2724C34.4935 31.1089 34.7056 31.1943 34.8619 31.3463C35.0183 31.4983 35.106 31.7045 35.106 31.9194V39.9475C35.106 40.1625 35.0183 40.3687 34.8619 40.5207C34.7056 40.6727 34.4935 40.758 34.2724 40.758ZM26.8094 39.137H33.4388V32.73H26.8094V39.137Z" fill="#F3F3F3"/>
<path d="M63.41 40.758H55.1134C54.8923 40.758 54.6802 40.6727 54.5239 40.5207C54.3676 40.3687 54.2798 40.1625 54.2798 39.9475V31.9194C54.2798 31.813 54.3014 31.7076 54.3433 31.6092C54.3852 31.5109 54.4465 31.4216 54.5239 31.3463C54.6013 31.271 54.6933 31.2113 54.7944 31.1706C54.8956 31.1299 55.0039 31.1089 55.1134 31.1089H63.41C63.5177 31.1088 63.6243 31.13 63.7233 31.1711C63.8223 31.2123 63.9117 31.2726 63.9859 31.3485C64.0602 31.4243 64.1178 31.514 64.1553 31.6122C64.1928 31.7103 64.2094 31.8149 64.204 31.9194V39.9475C64.2094 40.0521 64.1928 40.1566 64.1553 40.2548C64.1178 40.3529 64.0602 40.4427 63.9859 40.5185C63.9117 40.5943 63.8223 40.6546 63.7233 40.6958C63.6243 40.737 63.5177 40.7581 63.41 40.758ZM55.947 39.137H62.5764V32.73H55.947V39.137Z" fill="#F3F3F3"/>
<path d="M48.9205 54.8457H40.6239C40.4059 54.8362 40.1995 54.7478 40.0452 54.5978C39.8909 54.4478 39.8 54.247 39.7903 54.0351V46.007C39.7903 45.7921 39.8781 45.5859 40.0344 45.4339C40.1907 45.2819 40.4028 45.1965 40.6239 45.1965H48.9205C49.1416 45.1965 49.3537 45.2819 49.51 45.4339C49.6663 45.5859 49.7541 45.7921 49.7541 46.007V54.0351C49.7444 54.247 49.6535 54.4478 49.4992 54.5978C49.3449 54.7478 49.1385 54.8362 48.9205 54.8457ZM41.4575 53.2246H48.0869V46.8176H41.4575V53.2246Z" fill="#F3F3F3"/>
<path d="M34.2724 54.8457H26.3331C26.1189 54.8357 25.917 54.7459 25.7691 54.595C25.6213 54.4441 25.5388 54.2435 25.5391 54.0351V46.007C25.5337 45.9025 25.5503 45.7979 25.5878 45.6998C25.6253 45.6016 25.6829 45.5119 25.7571 45.4361C25.8314 45.3603 25.9208 45.2999 26.0198 45.2587C26.1188 45.2175 26.2254 45.1964 26.3331 45.1965H34.2724C34.4935 45.1965 34.7056 45.2819 34.8619 45.4339C35.0183 45.5859 35.106 45.7921 35.106 46.007V54.0351C35.0963 54.247 35.0054 54.4478 34.8511 54.5978C34.6969 54.7478 34.4904 54.8362 34.2724 54.8457ZM26.8094 53.2246H33.4388V46.8176H26.8094V53.2246Z" fill="#F3F3F3"/>
<path d="M63.41 54.8457H55.1134C54.8954 54.8362 54.689 54.7478 54.5347 54.5978C54.3804 54.4478 54.2895 54.247 54.2798 54.0351V46.007C54.2798 45.7921 54.3676 45.5859 54.5239 45.4339C54.6802 45.2819 54.8923 45.1965 55.1134 45.1965H63.41C63.5177 45.1964 63.6243 45.2175 63.7233 45.2587C63.8223 45.2999 63.9117 45.3603 63.9859 45.4361C64.0602 45.5119 64.1178 45.6016 64.1553 45.6998C64.1928 45.7979 64.2094 45.9025 64.204 46.007V54.0351C64.2042 54.2435 64.1218 54.4441 63.9739 54.595C63.8261 54.7459 63.6241 54.8357 63.41 54.8457ZM55.947 53.2246H62.5764V46.8176H55.947V53.2246Z" fill="#F3F3F3"/>
<path d="M48.9205 76.9614H40.6239C40.4028 76.9614 40.1907 76.876 40.0344 76.724C39.8781 76.572 39.7903 76.3659 39.7903 76.1509V60.0561C39.8 59.8442 39.8909 59.6435 40.0452 59.4935C40.1995 59.3435 40.4059 59.255 40.6239 59.2456H48.9205C49.1385 59.255 49.3449 59.3435 49.4992 59.4935C49.6535 59.6435 49.7444 59.8442 49.7541 60.0561V76.1509C49.7541 76.3659 49.6663 76.572 49.51 76.724C49.3537 76.876 49.1416 76.9614 48.9205 76.9614ZM41.4575 75.3789H48.0869V60.8667H41.4575V75.3789Z" fill="#F3F3F3"/>
<path d="M34.2714 68.9333H26.3321C26.1179 68.9234 25.916 68.8336 25.7681 68.6827C25.6203 68.5318 25.5378 68.3312 25.5381 68.1228V60.0561C25.5378 59.8477 25.6203 59.6471 25.7681 59.4962C25.916 59.3453 26.1179 59.2555 26.3321 59.2456H34.2714C34.4894 59.255 34.6959 59.3435 34.8501 59.4935C35.0044 59.6435 35.0953 59.8442 35.105 60.0561V68.1228C35.0953 68.3347 35.0044 68.5355 34.8501 68.6855C34.6959 68.8355 34.4894 68.9239 34.2714 68.9333ZM26.8084 67.3123H33.4378V60.8667H26.8084V67.3123Z" fill="#F3F3F3"/>
<path d="M63.41 68.9333H55.1134C54.8954 68.9239 54.689 68.8355 54.5347 68.6855C54.3804 68.5355 54.2895 68.3347 54.2798 68.1228V60.0561C54.2895 59.8442 54.3804 59.6435 54.5347 59.4935C54.689 59.3435 54.8954 59.255 55.1134 59.2456H63.41C63.6242 59.2555 63.8261 59.3453 63.9739 59.4962C64.1218 59.6471 64.2042 59.8477 64.204 60.0561V68.1228C64.2042 68.3312 64.1218 68.5318 63.9739 68.6827C63.8261 68.8336 63.6242 68.9234 63.41 68.9333ZM55.947 67.3123H62.5764V60.8667H55.947V67.3123Z" fill="#F3F3F3"/>
<path d="M40.6239 26.6702C40.4028 26.6702 40.1907 26.5848 40.0344 26.4328C39.8781 26.2808 39.7903 26.0747 39.7903 25.8597V17.8316C39.7903 17.6166 39.8781 17.4105 40.0344 17.2585C40.1907 17.1065 40.4028 17.0211 40.6239 17.0211C40.845 17.0211 41.057 17.1065 41.2134 17.2585C41.3697 17.4105 41.4575 17.6166 41.4575 17.8316V25.8597C41.4575 26.0747 41.3697 26.2808 41.2134 26.4328C41.057 26.5848 40.845 26.6702 40.6239 26.6702Z" fill="#F3F3F3"/>
<path d="M48.9195 26.6702C48.6984 26.6702 48.4864 26.5848 48.33 26.4328C48.1737 26.2808 48.0859 26.0747 48.0859 25.8597V17.8316C48.0859 17.6166 48.1737 17.4105 48.33 17.2585C48.4864 17.1065 48.6984 17.0211 48.9195 17.0211C49.1406 17.0211 49.3527 17.1065 49.509 17.2585C49.6654 17.4105 49.7531 17.6166 49.7531 17.8316V25.8597C49.7531 26.0747 49.6654 26.2808 49.509 26.4328C49.3527 26.5848 49.1406 26.6702 48.9195 26.6702Z" fill="#F3F3F3"/>
<path d="M48.9205 22.6561H40.6239C40.4028 22.6561 40.1907 22.5707 40.0344 22.4187C39.8781 22.2667 39.7903 22.0606 39.7903 21.8456C39.8 21.6337 39.8909 21.4329 40.0452 21.2829C40.1995 21.1329 40.4059 21.0445 40.6239 21.0351H48.9205C49.1385 21.0445 49.3449 21.1329 49.4992 21.2829C49.6535 21.4329 49.7444 21.6337 49.7541 21.8456C49.7541 22.0606 49.6663 22.2667 49.51 22.4187C49.3537 22.5707 49.1416 22.6561 48.9205 22.6561Z" fill="#F3F3F3"/>
</g>
<defs>
<clipPath id="clip0">
<rect width="51.3333" height="66" fill="white" transform="translate(19.1062 11)"/>
</clipPath>
</defs>
</svg>
