<?xml version="1.0" encoding="utf-8"?>
<!-- Generator: Adobe Illustrator 15.0.0, SVG Export Plug-In . SVG Version: 6.00 Build 0)  -->
<!DOCTYPE svg PUBLIC "-//W3C//DTD SVG 1.1//EN" "http://www.w3.org/Graphics/SVG/1.1/DTD/svg11.dtd">
<svg version="1.1" xmlns="http://www.w3.org/2000/svg" xmlns:xlink="http://www.w3.org/1999/xlink" x="0px" y="0px"
	 width="841.89px" height="595.275px" viewBox="0 0 841.89 595.275" enable-background="new 0 0 841.89 595.275"
	 xml:space="preserve">
<g id="Fondo">
</g>
<g id="Guías">
</g>
<g id="Primer_plano">
	<g>
		<g>
			<path fill="#005291" d="M156.718,349.219v-14.109c7.818,4.468,14.183,9,26.084,9c4.838,0,14.693-2.218,25.513-3.944
				c10.7-1.709,37.37-7.548,43.246-7.548c3.839,0,6.6,1.44,8.339,2.394v14.208H156.718z"/>
			<path fill="#005291" d="M259.899,246.038v84.255c-7.818-4.469-14.182-9-26.083-9c-4.839,0-14.694,2.217-25.513,3.944
				c-10.701,1.708-37.37,7.548-43.246,7.548c-3.84,0-6.6-1.441-8.34-2.394v-84.354H259.899z"/>
		</g>
		<g>
			<path fill="#FFFFFF" d="M172.448,301.994h-6.993v-30.686h6.993V301.994z"/>
			<path fill="#E97700" d="M194.528,271.308l11.41,30.686h-7.407l-3.267-9.386h-9.385l-3.313,9.386h-7.314l11.225-30.686H194.528z
				 M192.642,284.604c-0.046-0.092-0.23-0.69-0.506-1.518l-0.553-1.702c-0.506-1.518-0.735-2.438-1.058-3.727
				c-0.138,0.506-0.23,0.874-0.276,1.012l-0.321,1.15c-0.599,1.978-0.645,2.208-1.519,4.784l-0.736,2.116h5.751L192.642,284.604z"/>
			<path fill="#FFFFFF" d="M228.292,278.577c-2.392-1.15-3.864-1.564-5.889-1.564c-5.75,0-9.661,3.957-9.661,9.661
				c0,5.659,3.911,9.753,9.386,9.753c2.208,0,4.094-0.506,6.164-1.61v6.671c-2.208,0.781-4.187,1.149-6.486,1.149
				c-9.432,0-16.24-6.763-16.24-16.102c0-8.925,6.901-15.734,16.01-15.734c2.024,0,3.772,0.276,6.717,0.966V278.577z"/>
			<path fill="#FFFFFF" d="M250.832,278.761c-2.53-1.196-5.199-1.84-7.361-1.84c-2.393,0-3.956,0.874-3.956,2.208
				c0,1.15,0.828,1.656,4.14,2.76l2.761,0.92c4.831,1.564,7.314,4.692,7.314,9.109c0,6.349-5.106,10.582-12.789,10.582
				c-3.128,0-6.349-0.645-9.569-1.887v-7.223l0.46,0.184c3.451,1.656,5.935,2.3,8.879,2.3c3.312,0,5.521-1.564,5.521-3.864
				c0-1.794-0.921-2.53-4.509-3.727c-7.867-2.576-9.753-4.325-9.753-8.787c0-5.291,4.416-8.741,11.179-8.741
				c2.53,0,5.613,0.552,7.684,1.38V278.761z"/>
		</g>
		<g>
			<path fill="#005291" d="M276.526,301.947h-5.354v-30.686h5.354V301.947z"/>
			<path fill="#005291" d="M287.612,280.923l0.048,1.978c1.8-1.656,3.695-2.392,6.064-2.392c5.069,0,7.628,2.853,7.628,8.465v12.974
				h-4.691V290.17c0-3.864-1.137-5.383-4.121-5.383c-1.706,0-3.222,0.736-4.69,2.208v14.952h-4.69v-21.024H287.612z"/>
			<path fill="#005291" d="M319.83,285.983c-1.895-1.058-3.506-1.518-5.069-1.518c-1.942,0-3.316,0.782-3.316,1.886
				c0,0.782,0.711,1.288,2.511,1.886l1.801,0.598c4.217,1.426,6.017,3.358,6.017,6.487c0,4.232-3.695,7.177-9.002,7.177
				c-2.227,0-4.643-0.507-7.154-1.427v-4.692c2.653,1.334,4.786,1.932,6.965,1.932c2.464,0,4.17-1.242,4.17-2.99
				c0-1.519-0.854-2.163-4.265-3.267c-4.406-1.426-5.97-2.944-5.97-5.659c0-3.497,3.08-5.843,7.676-5.843
				c2.037,0,3.695,0.368,5.638,1.15V285.983z"/>
			<path fill="#005291" d="M331.817,280.923h5.827v4.094h-5.827v8.327c0,3.588,0.758,4.692,3.222,4.692
				c0.947,0,1.61-0.184,2.605-0.736v4.324c-1.421,0.461-2.464,0.645-3.695,0.645c-4.596,0-6.822-2.438-6.822-7.407v-9.845h-3.459
				v-4.094h3.459v-6.119l4.69-1.932V280.923z"/>
			<path fill="#005291" d="M344.088,277.933c-1.658,0-3.032-1.288-3.032-2.898s1.374-2.944,3.032-2.944s3.032,1.334,3.032,2.944
				S345.747,277.933,344.088,277.933z M346.41,301.947h-4.69v-21.024h4.69V301.947z"/>
			<path fill="#005291" d="M358.208,280.923h5.827v4.094h-5.827v8.327c0,3.588,0.758,4.692,3.222,4.692
				c0.947,0,1.61-0.184,2.605-0.736v4.324c-1.421,0.461-2.464,0.645-3.695,0.645c-4.596,0-6.822-2.438-6.822-7.407v-9.845h-3.459
				v-4.094h3.459v-6.119l4.69-1.932V280.923z"/>
			<path fill="#005291" d="M386.114,301.947h-4.501v-1.932c-1.99,1.656-3.79,2.346-6.159,2.346c-4.928,0-7.628-2.853-7.628-8.097
				v-13.341h4.69v11.869c0,3.727,1.231,5.291,4.074,5.291c1.706,0,3.222-0.644,4.833-2.07v-15.09h4.69V301.947z"/>
			<path fill="#005291" d="M397.817,280.923h5.827v4.094h-5.827v8.327c0,3.588,0.758,4.692,3.222,4.692
				c0.947,0,1.61-0.184,2.605-0.736v4.324c-1.421,0.461-2.464,0.645-3.695,0.645c-4.596,0-6.822-2.438-6.822-7.407v-9.845h-3.459
				v-4.094h3.459v-6.119l4.69-1.932V280.923z"/>
			<path fill="#005291" d="M416.721,302.5c-6.207,0-10.708-4.601-10.708-10.996c0-6.44,4.501-11.087,10.756-11.087
				c6.206,0,10.707,4.646,10.707,11.041C427.476,297.899,422.975,302.5,416.721,302.5z M416.769,284.604
				c-3.507,0-5.78,2.714-5.78,6.947c0,4.048,2.273,6.762,5.685,6.762c3.507,0,5.828-2.622,5.828-6.716
				C422.501,287.271,420.275,284.604,416.769,284.604z"/>
			<path fill="#005291" d="M457.846,271.262l12.034,30.686h-5.78l-4.264-11.317h-10.14l-4.358,11.317h-5.686l12.034-30.686H457.846z
				 M456.377,281.015c-0.711-1.84-1.09-3.036-1.658-4.738c-0.379,1.38-0.9,2.944-1.563,4.738l-1.896,5.061h6.965L456.377,281.015z"
				/>
			<path fill="#005291" d="M477.888,280.923v2.07c2.037-1.748,3.27-2.3,5.259-2.3c1.043,0,1.753,0.138,2.985,0.644v4.785
				c-1.422-0.69-2.369-1.012-3.459-1.012c-1.61,0-3.127,0.736-4.406,2.07v14.768h-4.69v-21.024H477.888z"/>
			<path fill="#005291" d="M490.823,281.383c1.848-0.552,4.075-0.874,6.349-0.874c6.444,0,8.86,1.978,8.86,7.269l-0.048,9.063
				c0,3.036,0.143,3.726,1.138,5.152h-4.975c-0.237-0.506-0.427-1.104-0.569-1.702c-1.753,1.288-3.695,1.979-5.591,1.979
				c-4.405,0-7.628-2.99-7.628-7.085c0-4.509,3.648-7.637,9.002-7.637c1.422,0,2.701,0.23,4.027,0.644c0-0.184,0-0.276,0-0.368
				c0-2.393-1.516-3.497-4.975-3.497c-1.942,0-3.743,0.46-5.638,1.426L490.823,281.383z M498.309,290.998
				c-3.032,0-5.022,1.472-5.022,3.772c0,2.024,1.658,3.497,3.979,3.497c1.374,0,2.512-0.415,4.075-1.519l0.047-5.198
				C500.109,291.136,499.446,290.998,498.309,290.998z"/>
			<path fill="#005291" d="M530.715,281.981c-0.995-0.782-1.753-1.104-2.653-1.104c-0.947,0-1.658,0.322-2.653,1.242
				c2.228,1.15,3.506,3.082,3.506,5.475c0,4.187-3.127,6.533-8.812,6.625c-1.801,0.046-2.512,0.414-2.512,1.242
				c0,0.92,0.759,1.288,2.796,1.38c7.154,0.23,10.471,2.484,10.471,7.085c0,4.738-4.17,7.867-10.519,7.867s-10.66-2.945-10.66-7.361
				c0-3.174,2.085-5.383,5.97-6.211c-1.942-0.322-2.89-1.104-2.89-2.438c0-1.334,0.947-2.163,2.938-2.53
				c-2.606-1.058-4.122-3.128-4.122-5.751c0-4.094,3.553-7.039,8.48-7.039c0.995,0,1.753,0.092,2.559,0.322
				c1.801-2.76,3.506-3.864,5.922-3.864c0.806,0,1.279,0.092,2.18,0.414V281.981z M514.559,304.109c0,2.438,2.18,3.91,5.875,3.91
				c3.316,0,5.544-1.564,5.544-3.91s-2.18-3.772-5.733-3.772S514.559,301.764,514.559,304.109z M520.292,284.005
				c-2.322,0-3.98,1.426-3.98,3.45c0,2.07,1.563,3.45,3.886,3.45c2.368,0,4.026-1.38,4.026-3.45
				C524.224,285.478,522.519,284.005,520.292,284.005z"/>
			<path fill="#005291" d="M543.46,302.5c-6.207,0-10.708-4.601-10.708-10.996c0-6.44,4.501-11.087,10.756-11.087
				c6.206,0,10.707,4.646,10.707,11.041C554.215,297.899,549.714,302.5,543.46,302.5z M543.508,284.604
				c-3.507,0-5.78,2.714-5.78,6.947c0,4.048,2.273,6.762,5.685,6.762c3.507,0,5.828-2.622,5.828-6.716
				C549.241,287.271,547.014,284.604,543.508,284.604z"/>
			<path fill="#005291" d="M563.265,280.923l0.048,1.978c1.8-1.656,3.695-2.392,6.064-2.392c5.069,0,7.628,2.853,7.628,8.465v12.974
				h-4.69V290.17c0-3.864-1.138-5.383-4.122-5.383c-1.706,0-3.222,0.736-4.69,2.208v14.952h-4.69v-21.024H563.265z"/>
			<path fill="#005291" d="M586.245,291.09c0,0.138,0,0.23,0,0.322c0,3.864,3.032,6.717,7.153,6.717
				c2.559,0,4.691-0.782,6.823-2.576l0.047,5.014c-2.511,1.289-4.927,1.887-7.58,1.887c-6.728,0-11.419-4.6-11.419-11.225
				c0-6.441,3.98-10.903,9.713-10.903c5.733,0,8.955,3.681,9.381,10.765H586.245z M590.982,283.821
				c-2.132,0-3.933,1.426-4.358,3.404h8.48C594.488,284.925,593.162,283.821,590.982,283.821z M592.972,277.473h-3.885l3.458-5.751
				h5.686L592.972,277.473z"/>
			<path fill="#005291" d="M617.277,285.983c-1.895-1.058-3.506-1.518-5.069-1.518c-1.942,0-3.316,0.782-3.316,1.886
				c0,0.782,0.711,1.288,2.511,1.886l1.801,0.598c4.217,1.426,6.017,3.358,6.017,6.487c0,4.232-3.695,7.177-9.002,7.177
				c-2.227,0-4.643-0.507-7.154-1.427v-4.692c2.653,1.334,4.786,1.932,6.965,1.932c2.464,0,4.17-1.242,4.17-2.99
				c0-1.519-0.854-2.163-4.265-3.267c-4.406-1.426-5.97-2.944-5.97-5.659c0-3.497,3.08-5.843,7.676-5.843
				c2.037,0,3.695,0.368,5.638,1.15V285.983z"/>
			<path fill="#005291" d="M652.337,301.947h-4.264v-1.932c-1.99,1.609-3.648,2.254-6.018,2.254c-5.686,0-9.713-4.371-9.713-10.582
				c0-6.579,4.312-11.225,10.424-11.225c1.896,0,3.222,0.322,4.88,1.242v-10.443h4.69V301.947z M643.478,284.511
				c-3.554,0-6.112,2.853-6.112,6.855c0,3.864,2.464,6.625,5.875,6.625c1.658,0,2.985-0.552,4.406-1.794v-10.213
				C646.083,284.925,644.994,284.511,643.478,284.511z"/>
			<path fill="#005291" d="M661.956,291.09c0,0.138,0,0.23,0,0.322c0,3.864,3.032,6.717,7.153,6.717
				c2.559,0,4.691-0.782,6.823-2.576l0.047,5.014c-2.511,1.289-4.927,1.887-7.58,1.887c-6.728,0-11.419-4.6-11.419-11.225
				c0-6.441,3.98-10.903,9.713-10.903c5.733,0,8.955,3.681,9.381,10.765H661.956z M666.693,283.821
				c-2.132,0-3.933,1.426-4.358,3.404h8.48C670.199,284.925,668.873,283.821,666.693,283.821z"/>
			<path fill="#005291" d="M292.634,322.519c-2.653-1.38-4.501-1.886-6.822-1.886c-6.349,0-10.992,4.646-10.992,11.087
				c0,6.395,4.549,11.041,10.755,11.041c2.512,0,4.785-0.599,7.06-1.886v5.29c-2.511,1.013-4.596,1.427-7.201,1.427
				c-9.286,0-16.156-6.764-16.156-15.965c0-8.971,6.965-15.779,16.108-15.779c2.417,0,4.501,0.368,7.249,1.334V322.519z"/>
			<path fill="#005291" d="M300.358,322.933c-1.658,0-3.032-1.288-3.032-2.898s1.374-2.944,3.032-2.944s3.032,1.334,3.032,2.944
				S302.016,322.933,300.358,322.933z M302.679,346.947h-4.69v-21.024h4.69V346.947z"/>
			<path fill="#005291" d="M312.25,336.09c0,0.139,0,0.23,0,0.322c0,3.864,3.032,6.717,7.153,6.717c2.559,0,4.691-0.782,6.823-2.576
				l0.047,5.014c-2.511,1.289-4.927,1.887-7.58,1.887c-6.728,0-11.419-4.6-11.419-11.225c0-6.441,3.98-10.904,9.713-10.904
				c5.733,0,8.955,3.682,9.381,10.766H312.25z M316.988,328.821c-2.132,0-3.933,1.427-4.358,3.404h8.48
				C320.494,329.926,319.167,328.821,316.988,328.821z"/>
			<path fill="#005291" d="M335.276,325.923l0.048,1.978c1.8-1.655,3.695-2.392,6.064-2.392c5.069,0,7.628,2.853,7.628,8.465v12.974
				h-4.691V335.17c0-3.864-1.137-5.383-4.121-5.383c-1.706,0-3.222,0.736-4.69,2.209v14.951h-4.69v-21.024H335.276z"/>
			<path fill="#005291" d="M369.341,330.938c-1.61-0.874-2.89-1.196-4.406-1.196c-3.79,0-6.633,2.853-6.633,6.763
				c0,3.818,2.796,6.625,6.586,6.625c1.516,0,2.748-0.322,4.453-1.196v4.739c-1.658,0.551-3.269,0.828-5.069,0.828
				c-6.206,0-10.992-4.739-10.992-10.949c0-6.35,4.833-11.088,11.324-11.088c1.8,0,3.127,0.23,4.737,0.828V330.938z"/>
			<path fill="#005291" d="M376.733,322.933c-1.658,0-3.032-1.288-3.032-2.898s1.374-2.944,3.032-2.944s3.032,1.334,3.032,2.944
				S378.391,322.933,376.733,322.933z M379.054,346.947h-4.69v-21.024h4.69V346.947z"/>
			<path fill="#005291" d="M386.114,326.383c1.848-0.552,4.075-0.874,6.349-0.874c6.444,0,8.86,1.978,8.86,7.269l-0.048,9.063
				c0,3.036,0.143,3.726,1.138,5.152h-4.975c-0.237-0.506-0.427-1.104-0.569-1.702c-1.753,1.288-3.695,1.979-5.591,1.979
				c-4.405,0-7.628-2.99-7.628-7.085c0-4.509,3.648-7.637,9.002-7.637c1.422,0,2.701,0.229,4.027,0.644c0-0.184,0-0.275,0-0.367
				c0-2.393-1.516-3.497-4.975-3.497c-1.942,0-3.743,0.46-5.638,1.427L386.114,326.383z M393.6,335.998
				c-3.032,0-5.022,1.473-5.022,3.772c0,2.024,1.658,3.497,3.979,3.497c1.374,0,2.512-0.414,4.075-1.52l0.047-5.197
				C395.4,336.137,394.737,335.998,393.6,335.998z"/>
			<path fill="#005291" d="M420.131,330.983c-1.895-1.058-3.506-1.519-5.069-1.519c-1.942,0-3.316,0.783-3.316,1.887
				c0,0.782,0.711,1.288,2.511,1.887l1.801,0.598c4.217,1.426,6.017,3.358,6.017,6.486c0,4.232-3.695,7.178-9.002,7.178
				c-2.227,0-4.643-0.507-7.154-1.427v-4.692c2.653,1.334,4.786,1.932,6.965,1.932c2.464,0,4.17-1.242,4.17-2.99
				c0-1.518-0.854-2.162-4.265-3.266c-4.406-1.427-5.97-2.945-5.97-5.659c0-3.497,3.08-5.843,7.676-5.843
				c2.037,0,3.695,0.368,5.638,1.15V330.983z"/>
			<path fill="#005291" d="M455.192,346.947h-4.264v-1.932c-1.99,1.609-3.648,2.254-6.018,2.254c-5.686,0-9.713-4.371-9.713-10.582
				c0-6.578,4.312-11.225,10.424-11.225c1.896,0,3.222,0.322,4.88,1.242v-10.443h4.69V346.947z M446.333,329.512
				c-3.554,0-6.112,2.852-6.112,6.854c0,3.864,2.464,6.624,5.875,6.624c1.658,0,2.985-0.551,4.406-1.793v-10.214
				C448.938,329.926,447.848,329.512,446.333,329.512z"/>
			<path fill="#005291" d="M464.81,336.09c0,0.139,0,0.23,0,0.322c0,3.864,3.032,6.717,7.153,6.717c2.559,0,4.691-0.782,6.823-2.576
				l0.047,5.014c-2.511,1.289-4.927,1.887-7.58,1.887c-6.728,0-11.419-4.6-11.419-11.225c0-6.441,3.98-10.904,9.713-10.904
				c5.733,0,8.955,3.682,9.381,10.766H464.81z M469.547,328.821c-2.132,0-3.933,1.427-4.358,3.404h8.48
				C473.053,329.926,471.727,328.821,469.547,328.821z"/>
			<path fill="#005291" d="M498.354,346.947h-4.69v-30.686h4.69V346.947z"/>
			<path fill="#005291" d="M505.366,326.383c1.848-0.552,4.075-0.874,6.349-0.874c6.444,0,8.86,1.978,8.86,7.269l-0.048,9.063
				c0,3.036,0.143,3.726,1.138,5.152h-4.975c-0.237-0.506-0.427-1.104-0.569-1.702c-1.753,1.288-3.695,1.979-5.591,1.979
				c-4.405,0-7.628-2.99-7.628-7.085c0-4.509,3.648-7.637,9.002-7.637c1.422,0,2.701,0.229,4.027,0.644c0-0.184,0-0.275,0-0.367
				c0-2.393-1.516-3.497-4.975-3.497c-1.942,0-3.743,0.46-5.638,1.427L505.366,326.383z M512.852,335.998
				c-3.032,0-5.022,1.473-5.022,3.772c0,2.024,1.658,3.497,3.979,3.497c1.374,0,2.512-0.414,4.075-1.52l0.047-5.197
				C514.652,336.137,513.989,335.998,512.852,335.998z"/>
			<path fill="#005291" d="M555.113,322.748c-2.368-1.38-5.211-2.162-7.817-2.162c-3.032,0-5.069,1.196-5.069,3.037
				c0,1.748,0.663,2.162,6.064,3.956c7.344,2.438,9.618,4.692,9.618,9.522c0,6.119-5.212,10.398-12.745,10.398
				c-3.601,0-7.012-0.736-9.854-2.117v-5.705c3.222,1.795,6.681,2.762,9.76,2.762c4.217,0,7.202-2.117,7.202-5.061
				c0-2.669-1.043-3.451-6.965-5.43c-6.728-2.254-8.812-4.186-8.812-8.097c0-4.831,4.217-8.051,10.518-8.051
				c2.653,0,5.496,0.552,8.102,1.563V322.748z"/>
			<path fill="#005291" d="M563.357,326.383c1.848-0.552,4.075-0.874,6.349-0.874c6.443,0,8.86,1.978,8.86,7.269l-0.048,9.063
				c0,3.036,0.143,3.726,1.138,5.152h-4.975c-0.237-0.506-0.427-1.104-0.569-1.702c-1.753,1.288-3.695,1.979-5.591,1.979
				c-4.405,0-7.628-2.99-7.628-7.085c0-4.509,3.648-7.637,9.002-7.637c1.422,0,2.701,0.229,4.027,0.644c0-0.184,0-0.275,0-0.367
				c0-2.393-1.516-3.497-4.975-3.497c-1.942,0-3.743,0.46-5.638,1.427L563.357,326.383z M570.843,335.998
				c-3.032,0-5.022,1.473-5.022,3.772c0,2.024,1.658,3.497,3.979,3.497c1.374,0,2.512-0.414,4.075-1.52l0.047-5.197
				C572.643,336.137,571.98,335.998,570.843,335.998z"/>
			<path fill="#005291" d="M589.605,346.947h-4.69v-30.686h4.69V346.947z"/>
			<path fill="#005291" d="M613.863,346.947h-4.501v-1.932c-1.99,1.656-3.79,2.346-6.159,2.346c-4.928,0-7.628-2.853-7.628-8.098
				v-13.341h4.69v11.869c0,3.727,1.231,5.291,4.074,5.291c1.706,0,3.222-0.644,4.833-2.07v-15.09h4.69V346.947z"/>
			<path fill="#005291" d="M638.358,346.947h-4.264v-1.932c-1.99,1.609-3.648,2.254-6.018,2.254c-5.686,0-9.713-4.371-9.713-10.582
				c0-6.578,4.312-11.225,10.424-11.225c1.896,0,3.222,0.322,4.88,1.242v-10.443h4.69V346.947z M629.499,329.512
				c-3.554,0-6.112,2.852-6.112,6.854c0,3.864,2.464,6.624,5.875,6.624c1.658,0,2.985-0.551,4.406-1.793v-10.214
				C632.104,329.926,631.014,329.512,629.499,329.512z"/>
		</g>
	</g>
	<rect x="433.939" y="547.454" fill="none" width="407.737" height="19.476"/>
	<text transform="matrix(1 0 0 1 433.9395 554.6543)"><tspan x="0" y="0" font-family="'Helvetica-Bold'" font-size="10">Azul:</tspan><tspan x="24.438" y="0" font-family="'Helvetica'" font-size="10"> </tspan><tspan x="27.217" y="0" font-family="'Helvetica-Light'" font-size="10">Pantone: 301; CMYK: 100, 67, 14, 3; RGB 0, 81, 149; Hexadecimal: #005195</tspan><tspan x="0" y="12" font-family="'Helvetica-Bold'" font-size="10">Naranja:</tspan><tspan x="40.015" y="12" font-family="'Helvetica'" font-size="10"> </tspan><tspan x="42.793" y="12" font-family="'Helvetica-Light'" font-size="10">Pantone: 151; CMYK: 0, 64, 97, 0; RGB 232, 120, 0; Hexadecimal: #e87800</tspan></text>
</g>
</svg>
