<svg xmlns="http://www.w3.org/2000/svg" viewBox="0 0 684.96 322.77"><defs><style>.cls-1{fill:#005291;}.cls-2{fill:#fff;}.cls-3{fill:#e97700;}.cls-4{fill:none;}.cls-5{isolation:isolate;}</style></defs><g id="Layer_2" data-name="Layer 2"><g id="Layer_1-2" data-name="Layer 1"><g id="Primer_plano" data-name="Primer plano"><path class="cls-1" d="M0,103.18V89.07c7.82,4.47,14.18,9,26.09,9,4.83,0,14.69-2.21,25.51-3.94S89,86.58,94.84,86.58a16.61,16.61,0,0,1,8.34,2.4v14.2Z"/><path class="cls-1" d="M103.18,0V84.26c-7.82-4.47-14.18-9-26.08-9-4.84,0-14.7,2.21-25.51,3.94S14.22,86.75,8.34,86.75A16.61,16.61,0,0,1,0,84.35V0Z"/><path class="cls-2" d="M15.73,56h-7V25.27h7Z"/><path class="cls-3" d="M37.81,25.27,49.22,56H41.81l-3.26-9.39H29.16L25.85,56H18.54L29.76,25.27Zm-1.88,13.3c0-.09-.23-.69-.51-1.52l-.55-1.7c-.51-1.52-.74-2.44-1.06-3.73-.14.51-.23.87-.28,1l-.32,1.15c-.6,2-.64,2.21-1.52,4.79L31,40.68h5.75Z"/><path class="cls-2" d="M71.58,32.54A12.31,12.31,0,0,0,65.69,31C59.94,31,56,34.93,56,40.64s3.91,9.75,9.38,9.75a12.53,12.53,0,0,0,6.17-1.61v6.67a18.62,18.62,0,0,1-6.49,1.15c-9.43,0-16.24-6.76-16.24-16.1,0-8.93,6.9-15.74,16-15.74a27.69,27.69,0,0,1,6.72,1v6.81Z"/><path class="cls-2" d="M94.12,32.72a18.15,18.15,0,0,0-7.37-1.84c-2.39,0-4,.88-4,2.21,0,1.15.83,1.66,4.14,2.76l2.76.92C94.53,38.34,97,41.46,97,45.88c0,6.35-5.1,10.58-12.79,10.58a26.63,26.63,0,0,1-9.56-1.88V47.35l.46.19A19.22,19.22,0,0,0,84,49.84c3.32,0,5.53-1.57,5.53-3.87,0-1.79-.93-2.53-4.51-3.72-7.87-2.58-9.76-4.33-9.76-8.79,0-5.29,4.42-8.74,11.18-8.74a22.8,22.8,0,0,1,7.69,1.38v6.62Z"/><path class="cls-1" d="M119.81,55.91h-5.35V25.22h5.35Z"/><path class="cls-1" d="M130.9,34.89l0,2A8.46,8.46,0,0,1,137,34.47c5.07,0,7.63,2.86,7.63,8.47v13h-4.7V44.13c0-3.86-1.13-5.38-4.12-5.38A6.52,6.52,0,0,0,131.13,41V55.91h-4.69v-21Z"/><path class="cls-1" d="M163.11,40A10.21,10.21,0,0,0,158,38.43c-1.94,0-3.31.78-3.31,1.88,0,.79.71,1.29,2.51,1.89l1.8.6c4.22,1.42,6,3.36,6,6.48,0,4.24-3.7,7.18-9,7.18A21.08,21.08,0,0,1,148.9,55V50.34a15.07,15.07,0,0,0,7,1.93c2.46,0,4.17-1.24,4.17-3,0-1.52-.86-2.17-4.27-3.27-4.41-1.43-6-3-6-5.66,0-3.5,3.08-5.84,7.68-5.84a14,14,0,0,1,5.63,1.15V40Z"/><path class="cls-1" d="M175.1,34.89h5.83V39H175.1v8.33c0,3.59.76,4.69,3.22,4.69a4.76,4.76,0,0,0,2.61-.74v4.33a11.21,11.21,0,0,1-3.7.64c-4.59,0-6.82-2.44-6.82-7.41V39H167V34.89h3.46V28.77l4.69-1.94Z"/><path class="cls-1" d="M187.37,31.9a3,3,0,0,1-3-2.9,3,3,0,0,1,6.06,0A3,3,0,0,1,187.37,31.9Zm2.32,24H185v-21h4.69Z"/><path class="cls-1" d="M201.49,34.89h5.83V39h-5.83v8.33c0,3.59.76,4.69,3.22,4.69a4.76,4.76,0,0,0,2.61-.74v4.33a11.21,11.21,0,0,1-3.7.64c-4.59,0-6.82-2.44-6.82-7.41V39h-3.46V34.89h3.46V28.77l4.69-1.94Z"/><path class="cls-1" d="M229.4,55.91h-4.5V54a8.94,8.94,0,0,1-6.16,2.34c-4.93,0-7.63-2.85-7.63-8.09V34.89h4.69V46.75c0,3.73,1.23,5.3,4.07,5.3A7.09,7.09,0,0,0,224.71,50V34.89h4.69v21Z"/><path class="cls-1" d="M241.1,34.89h5.83V39H241.1v8.33c0,3.59.76,4.69,3.22,4.69a4.76,4.76,0,0,0,2.61-.74v4.33a11.21,11.21,0,0,1-3.7.64c-4.59,0-6.82-2.44-6.82-7.41V39H233V34.89h3.46V28.77l4.69-1.94Z"/><path class="cls-1" d="M260,56.46c-6.2,0-10.7-4.6-10.7-11s4.5-11.09,10.75-11.09,10.71,4.65,10.71,11S266.26,56.46,260,56.46Zm.05-17.89c-3.5,0-5.78,2.71-5.78,6.94,0,4.05,2.28,6.77,5.69,6.77s5.83-2.63,5.83-6.72C265.78,41.23,263.56,38.57,260.05,38.57Z"/><path class="cls-1" d="M301.13,25.23l12,30.68h-5.78l-4.26-11.32H293l-4.36,11.32h-5.69l12-30.68ZM299.66,35c-.71-1.84-1.09-3-1.66-4.74-.38,1.38-.9,2.94-1.56,4.74L294.54,40h7Z"/><path class="cls-1" d="M321.17,34.89V37c2-1.75,3.27-2.3,5.26-2.3a6.87,6.87,0,0,1,3,.64v4.79a7.69,7.69,0,0,0-3.46-1,6.13,6.13,0,0,0-4.41,2.07V55.91h-4.69v-21Z"/><path class="cls-1" d="M334.11,35.35a22.35,22.35,0,0,1,6.35-.88c6.44,0,8.86,2,8.86,7.27l-.05,9.06c0,3,.14,3.73,1.13,5.16h-5a8.8,8.8,0,0,1-.57-1.71,9.48,9.48,0,0,1-5.59,2c-4.41,0-7.63-3-7.63-7.08,0-4.51,3.65-7.64,9-7.64a12.93,12.93,0,0,1,4,.65v-.37c0-2.4-1.51-3.5-5-3.5a12,12,0,0,0-5.64,1.43ZM341.59,45c-3,0-5,1.47-5,3.77,0,2,1.66,3.5,4,3.5a6.59,6.59,0,0,0,4.07-1.52l.05-5.2A8.66,8.66,0,0,0,341.59,45Z"/><path class="cls-1" d="M374,35.94a4.11,4.11,0,0,0-2.65-1.1,3.65,3.65,0,0,0-2.66,1.24,6,6,0,0,1,3.51,5.48c0,4.18-3.13,6.53-8.81,6.62-1.81,0-2.52.42-2.52,1.24s.76,1.29,2.8,1.38c7.15.23,10.47,2.49,10.47,7.09s-4.17,7.87-10.52,7.87S353,62.81,353,58.4c0-3.18,2.09-5.39,6-6.22-1.94-.32-2.89-1.1-2.89-2.43s.95-2.17,2.94-2.53a6.07,6.07,0,0,1-4.12-5.75c0-4.1,3.55-7,8.48-7a8.89,8.89,0,0,1,2.56.32c1.8-2.76,3.5-3.87,5.92-3.87a5.6,5.6,0,0,1,2.18.42v4.64ZM357.84,58.07c0,2.44,2.18,3.91,5.88,3.91,3.31,0,5.54-1.56,5.54-3.91s-2.18-3.77-5.73-3.77S357.84,55.73,357.84,58.07ZM363.58,38c-2.33,0-4,1.42-4,3.45s1.56,3.45,3.88,3.45,4-1.38,4-3.45A3.64,3.64,0,0,0,363.58,38Z"/><path class="cls-1" d="M386.74,56.46c-6.2,0-10.7-4.6-10.7-11s4.5-11.09,10.75-11.09,10.71,4.65,10.71,11S393,56.46,386.74,56.46Zm.05-17.89c-3.51,0-5.78,2.71-5.78,6.94,0,4.05,2.27,6.77,5.69,6.77s5.82-2.63,5.82-6.72C392.52,41.23,390.3,38.57,386.79,38.57Z"/><path class="cls-1" d="M406.55,34.89l.05,2a8.44,8.44,0,0,1,6.06-2.39c5.07,0,7.63,2.86,7.63,8.47v13H415.6V44.13c0-3.86-1.14-5.38-4.12-5.38A6.49,6.49,0,0,0,406.79,41V55.91H402.1v-21Z"/><path class="cls-1" d="M429.53,45.05v.33c0,3.86,3,6.71,7.15,6.71a10,10,0,0,0,6.82-2.57l.05,5A16.06,16.06,0,0,1,436,56.42c-6.73,0-11.42-4.6-11.42-11.23,0-6.44,4-10.9,9.72-10.9s9,3.68,9.38,10.76Zm4.74-7.27a4.39,4.39,0,0,0-4.36,3.41h8.48C437.77,38.89,436.45,37.78,434.27,37.78Zm2-6.34h-3.89l3.46-5.76h5.68Z"/><path class="cls-1" d="M460.56,40a10.27,10.27,0,0,0-5.07-1.52c-1.94,0-3.31.78-3.31,1.88,0,.79.71,1.29,2.51,1.89l1.8.6c4.21,1.42,6,3.36,6,6.48,0,4.24-3.69,7.18-9,7.18A21.08,21.08,0,0,1,446.35,55V50.34a15,15,0,0,0,7,1.93c2.47,0,4.17-1.24,4.17-3,0-1.52-.85-2.17-4.26-3.27-4.41-1.43-6-3-6-5.66,0-3.5,3.08-5.84,7.67-5.84a14.06,14.06,0,0,1,5.64,1.15V40Z"/><path class="cls-1" d="M495.62,55.91h-4.26V54a8.69,8.69,0,0,1-6,2.25c-5.69,0-9.72-4.37-9.72-10.58,0-6.58,4.32-11.23,10.43-11.23a9.08,9.08,0,0,1,4.88,1.25V25.22h4.69V55.91Zm-8.86-17.44c-3.55,0-6.11,2.86-6.11,6.86S483.11,52,486.52,52a6.32,6.32,0,0,0,4.41-1.79V40A6.78,6.78,0,0,0,486.76,38.47Z"/><path class="cls-1" d="M505.24,45.05v.33c0,3.86,3,6.71,7.15,6.71a10.07,10.07,0,0,0,6.83-2.57l0,5a16,16,0,0,1-7.58,1.89c-6.73,0-11.42-4.6-11.42-11.23,0-6.44,4-10.9,9.72-10.9s8.95,3.68,9.38,10.76ZM510,37.78a4.39,4.39,0,0,0-4.36,3.41h8.48C513.48,38.89,512.16,37.78,510,37.78Z"/><path class="cls-1" d="M135.92,76.48a13.62,13.62,0,0,0-6.82-1.88,10.68,10.68,0,0,0-11,11.08c0,6.4,4.55,11,10.76,11a13.87,13.87,0,0,0,7.06-1.88v5.29a18,18,0,0,1-7.2,1.43c-9.29,0-16.16-6.77-16.16-16,0-9,7-15.78,16.11-15.78a20.39,20.39,0,0,1,7.25,1.34v5.33Z"/><path class="cls-1" d="M143.64,76.9a3,3,0,0,1-3-2.9,3,3,0,0,1,6.06,0A3,3,0,0,1,143.64,76.9Zm2.32,24h-4.69v-21H146Z"/><path class="cls-1" d="M155.53,90.05v.33c0,3.86,3,6.71,7.16,6.71a10,10,0,0,0,6.82-2.57l.05,5a16.06,16.06,0,0,1-7.58,1.89c-6.73,0-11.42-4.6-11.42-11.23,0-6.44,4-10.9,9.71-10.9s9,3.68,9.38,10.76Zm4.74-7.27a4.41,4.41,0,0,0-4.36,3.41h8.48C163.78,83.89,162.45,82.78,160.27,82.78Z"/><path class="cls-1" d="M178.56,79.89l.05,2a8.44,8.44,0,0,1,6.06-2.39c5.07,0,7.63,2.86,7.63,8.47v13h-4.69V89.13c0-3.86-1.14-5.38-4.12-5.38A6.51,6.51,0,0,0,178.8,86v15h-4.69v-21Z"/><path class="cls-1" d="M212.62,84.9a8.66,8.66,0,0,0-4.4-1.2,6.52,6.52,0,0,0-6.63,6.77,6.41,6.41,0,0,0,6.58,6.62,9,9,0,0,0,4.45-1.19v4.74a15.55,15.55,0,0,1-5.06.82,10.79,10.79,0,0,1-11-10.95,10.92,10.92,0,0,1,11.33-11.08,12.63,12.63,0,0,1,4.73.82Z"/><path class="cls-1" d="M220,76.9a3,3,0,0,1-3-2.9,3,3,0,0,1,6.07,0A3,3,0,0,1,220,76.9Zm2.32,24h-4.69v-21h4.69Z"/><path class="cls-1" d="M229.4,80.35a22.4,22.4,0,0,1,6.35-.88c6.44,0,8.86,2,8.86,7.27l-.05,9.06c0,3,.14,3.73,1.14,5.16h-5a8.8,8.8,0,0,1-.57-1.71,9.48,9.48,0,0,1-5.59,2c-4.4,0-7.63-3-7.63-7.08,0-4.51,3.65-7.64,9-7.64a12.92,12.92,0,0,1,4,.65v-.37c0-2.39-1.51-3.5-5-3.5a12,12,0,0,0-5.64,1.43ZM236.88,90c-3,0-5,1.47-5,3.77,0,2,1.66,3.5,4,3.5a6.63,6.63,0,0,0,4.08-1.52l0-5.2A8.66,8.66,0,0,0,236.88,90Z"/><path class="cls-1" d="M263.41,85a10.21,10.21,0,0,0-5.06-1.52c-2,0-3.32.78-3.32,1.88,0,.79.71,1.29,2.51,1.89l1.8.6c4.22,1.42,6,3.36,6,6.48,0,4.24-3.7,7.18-9,7.18A21.06,21.06,0,0,1,249.2,100v-4.7a15.12,15.12,0,0,0,7,1.94c2.46,0,4.17-1.25,4.17-3,0-1.52-.86-2.17-4.27-3.27-4.4-1.43-6-2.94-6-5.66,0-3.5,3.08-5.84,7.68-5.84a14.3,14.3,0,0,1,5.64,1.15V85Z"/><path class="cls-1" d="M298.48,100.91h-4.27V99a8.69,8.69,0,0,1-6,2.25c-5.68,0-9.71-4.37-9.71-10.58,0-6.58,4.31-11.23,10.42-11.23a9.05,9.05,0,0,1,4.88,1.25V70.22h4.69v30.69Zm-8.86-17.43c-3.56,0-6.12,2.85-6.12,6.85S286,97,289.38,97a6.33,6.33,0,0,0,4.41-1.79V85A6.8,6.8,0,0,0,289.62,83.48Z"/><path class="cls-1" d="M308.09,90.05v.33c0,3.86,3,6.71,7.16,6.71a10,10,0,0,0,6.82-2.57l.05,5a16.06,16.06,0,0,1-7.58,1.89c-6.73,0-11.42-4.6-11.42-11.23,0-6.44,4-10.9,9.71-10.9s9,3.68,9.38,10.76Zm4.74-7.27a4.41,4.41,0,0,0-4.36,3.41H317C316.34,83.89,315,82.78,312.83,82.78Z"/><path class="cls-1" d="M341.64,100.91H337V70.22h4.69Z"/><path class="cls-1" d="M348.65,80.35a22.4,22.4,0,0,1,6.35-.88c6.44,0,8.86,2,8.86,7.27l-.05,9.06c0,3,.14,3.73,1.14,5.16h-5a10.39,10.39,0,0,1-.57-1.71,9.48,9.48,0,0,1-5.59,2c-4.4,0-7.62-3-7.62-7.08,0-4.51,3.64-7.64,9-7.64a12.92,12.92,0,0,1,4,.65v-.37c0-2.39-1.51-3.5-5-3.5a12,12,0,0,0-5.64,1.43ZM356.14,90c-3,0-5,1.47-5,3.77,0,2,1.66,3.5,4,3.5a6.61,6.61,0,0,0,4.08-1.52l0-5.2A8.64,8.64,0,0,0,356.14,90Z"/><path class="cls-1" d="M398.4,76.71a16,16,0,0,0-7.82-2.16c-3,0-5.07,1.2-5.07,3s.66,2.16,6.06,4c7.35,2.44,9.62,4.69,9.62,9.52,0,6.12-5.21,10.4-12.74,10.4a22.72,22.72,0,0,1-9.86-2.11V93.64a20.55,20.55,0,0,0,9.76,2.76c4.22,0,7.21-2.11,7.21-5.06,0-2.67-1.05-3.45-7-5.43-6.73-2.25-8.81-4.18-8.81-8.1,0-4.83,4.21-8,10.52-8a22.89,22.89,0,0,1,8.1,1.57v5.38Z"/><path class="cls-1" d="M406.64,80.35a22.45,22.45,0,0,1,6.35-.88c6.44,0,8.86,2,8.86,7.27l-.05,9.06c0,3,.14,3.73,1.14,5.16h-5a9.52,9.52,0,0,1-.56-1.71,9.54,9.54,0,0,1-5.6,2c-4.4,0-7.62-3-7.62-7.08,0-4.51,3.64-7.64,9-7.64a13,13,0,0,1,4,.65v-.37c0-2.39-1.52-3.5-5-3.5a12,12,0,0,0-5.64,1.43ZM414.13,90c-3,0-5,1.47-5,3.77,0,2,1.66,3.5,4,3.5a6.59,6.59,0,0,0,4.08-1.52l0-5.2A8.7,8.7,0,0,0,414.13,90Z"/><path class="cls-1" d="M432.89,100.91H428.2V70.22h4.69Z"/><path class="cls-1" d="M457.15,100.91h-4.5V99a8.94,8.94,0,0,1-6.16,2.34c-4.93,0-7.63-2.85-7.63-8.09V79.89h4.69V91.75c0,3.73,1.23,5.29,4.07,5.29A7.06,7.06,0,0,0,452.46,95V79.88h4.69v21Z"/><path class="cls-1" d="M481.64,100.91h-4.26V99a8.69,8.69,0,0,1-6,2.25c-5.69,0-9.71-4.37-9.71-10.58,0-6.58,4.31-11.23,10.42-11.23A9.08,9.08,0,0,1,477,80.67V70.22h4.69v30.69Zm-8.86-17.43c-3.55,0-6.11,2.85-6.11,6.85S469.13,97,472.55,97a6.31,6.31,0,0,0,4.4-1.79V85A6.76,6.76,0,0,0,472.78,83.48Z"/><rect class="cls-4" x="277.22" y="301.42" width="407.74" height="19.48"/><g class="cls-5"><g class="cls-5"><path d="M280,301.42h1.7l2.55,7.2h-1.63l-.48-1.48h-2.65l-.48,1.48h-1.58Zm-.1,4.48h1.85l-.91-2.83Z"/><path d="M284.79,304.43V303.3H289v1.15l-2.61,3h2.7v1.14h-4.48v-1.09l2.63-3.1Z"/><path d="M291.48,303.3v3.2a1.73,1.73,0,0,0,.11.69.73.73,0,0,0,.74.4,1,1,0,0,0,1-.57,2.14,2.14,0,0,0,.14-.83V303.3h1.41v5.32H293.5v-.75a.55.55,0,0,0-.1.14.79.79,0,0,1-.19.22,1.84,1.84,0,0,1-.63.4,2.17,2.17,0,0,1-.71.1,1.61,1.61,0,0,1-1.59-.84,3.36,3.36,0,0,1-.23-1.39v-3.2Z"/><path d="M297.62,308.62h-1.39v-7.2h1.39Z"/><path d="M299.46,303.5h1.48V305h-1.48Zm0,3.66h1.48v1.46h-1.48Z"/></g><g class="cls-5"><path d="M305.22,308.62v-7.2h2.63a3.39,3.39,0,0,1,1.15.16,1.61,1.61,0,0,1,.72.44,1.48,1.48,0,0,1,.37.64,2.81,2.81,0,0,1,.11.77,1.77,1.77,0,0,1-.25,1,1.75,1.75,0,0,1-.63.61,2.77,2.77,0,0,1-.89.32,5.52,5.52,0,0,1-1,.09H305.9v3.18Zm2.24-3.76a5.52,5.52,0,0,0,.86-.06,1.67,1.67,0,0,0,.64-.23,1,1,0,0,0,.41-.45,1.6,1.6,0,0,0,.15-.74,1.21,1.21,0,0,0-.45-1,2.21,2.21,0,0,0-1.41-.35H305.9v2.86Z"/><path d="M313.65,305.6l.4-.06a2.1,2.1,0,0,0,.39-.11.32.32,0,0,0,.18-.24,1.13,1.13,0,0,0,0-.3,1,1,0,0,0-.3-.76,1.38,1.38,0,0,0-1-.29,3.27,3.27,0,0,0-.57.05,1.35,1.35,0,0,0-.46.19,1.12,1.12,0,0,0-.32.36,1.68,1.68,0,0,0-.16.57h-.61a1.88,1.88,0,0,1,.21-.79,1.68,1.68,0,0,1,.46-.53,2.22,2.22,0,0,1,.66-.3,3.44,3.44,0,0,1,.8-.09,3.4,3.4,0,0,1,.73.08,1.83,1.83,0,0,1,.6.27,1.24,1.24,0,0,1,.4.5,1.72,1.72,0,0,1,.15.76v2.82c0,.23,0,.38.12.44s.26.05.51,0v.47l-.21.06a1.17,1.17,0,0,1-.26,0l-.27,0a.53.53,0,0,1-.24-.1.65.65,0,0,1-.15-.18.78.78,0,0,1-.07-.23,2.11,2.11,0,0,1,0-.26,2.58,2.58,0,0,1-.87.64,2.68,2.68,0,0,1-1.06.22,2.39,2.39,0,0,1-.66-.09,1.68,1.68,0,0,1-.55-.28,1.34,1.34,0,0,1-.38-.47,1.45,1.45,0,0,1-.14-.65c0-.88.6-1.4,1.81-1.56Zm1,.3a3.52,3.52,0,0,1-.77.21l-.78.08a2.13,2.13,0,0,0-1.08.31.89.89,0,0,0-.38.79.86.86,0,0,0,.09.41.89.89,0,0,0,.25.29,1,1,0,0,0,.36.17,1.52,1.52,0,0,0,.42.06,2.74,2.74,0,0,0,.7-.09,1.66,1.66,0,0,0,.6-.28,1.39,1.39,0,0,0,.43-.47,1.3,1.3,0,0,0,.16-.67Z"/><path d="M317.43,308.62h-.6v-5.18h.6v.72a3.75,3.75,0,0,1,.74-.62,1.74,1.74,0,0,1,.93-.24,2.35,2.35,0,0,1,.89.16,1.52,1.52,0,0,1,.69.58,1.19,1.19,0,0,1,.22.57,4.12,4.12,0,0,1,0,.62v3.39h-.6v-3.38a1.51,1.51,0,0,0-.31-1.05,1.3,1.3,0,0,0-1-.35,1.6,1.6,0,0,0-.51.08,1.72,1.72,0,0,0-.42.23,1.57,1.57,0,0,0-.31.32,1.38,1.38,0,0,0-.2.38,1.67,1.67,0,0,0-.11.48c0,.15,0,.32,0,.5Z"/><path d="M324.21,308.64a1.67,1.67,0,0,0-.29.07,1.62,1.62,0,0,1-.4.05,1,1,0,0,1-.69-.23,1.12,1.12,0,0,1-.23-.8v-3.79h-.73v-.5h.73V302h.6v1.44h1v.5h-1v3.55c0,.12,0,.23,0,.33a.7.7,0,0,0,.06.23.28.28,0,0,0,.15.13,1.08,1.08,0,0,0,.3,0l.24,0,.25-.05Z"/><path d="M327.23,308.76a2.91,2.91,0,0,1-.94-.18,2.31,2.31,0,0,1-.76-.51,2.64,2.64,0,0,1-.51-.85,3.34,3.34,0,0,1-.19-1.19A3.69,3.69,0,0,1,325,305a2.43,2.43,0,0,1,.45-.86,2.19,2.19,0,0,1,.75-.59,2.76,2.76,0,0,1,2.11,0,2.18,2.18,0,0,1,1.19,1.45,3.69,3.69,0,0,1,.15,1.07,3.6,3.6,0,0,1-.17,1.12,2.51,2.51,0,0,1-.49.86,2.09,2.09,0,0,1-.76.55A2.38,2.38,0,0,1,327.23,308.76ZM329,306a3.33,3.33,0,0,0-.1-.86,2.13,2.13,0,0,0-.31-.7A1.51,1.51,0,0,0,328,304a1.67,1.67,0,0,0-.81-.17,1.73,1.73,0,0,0-.81.18,1.7,1.7,0,0,0-.54.49,2.33,2.33,0,0,0-.31.7,3.23,3.23,0,0,0-.1.82,3.48,3.48,0,0,0,.11.88,2.17,2.17,0,0,0,.34.7,1.6,1.6,0,0,0,.55.45,1.81,1.81,0,0,0,.76.16,1.55,1.55,0,0,0,.8-.19,1.53,1.53,0,0,0,.55-.49,2.33,2.33,0,0,0,.31-.7A3.1,3.1,0,0,0,329,306Z"/><path d="M331.33,308.62h-.6v-5.18h.6v.72a3.75,3.75,0,0,1,.74-.62,1.74,1.74,0,0,1,.93-.24,2.35,2.35,0,0,1,.89.16,1.52,1.52,0,0,1,.69.58,1.19,1.19,0,0,1,.22.57,4.12,4.12,0,0,1,0,.62v3.39h-.6v-3.38a1.51,1.51,0,0,0-.31-1.05,1.3,1.3,0,0,0-1-.35,1.6,1.6,0,0,0-.51.08,1.72,1.72,0,0,0-.42.23,1.57,1.57,0,0,0-.31.32,1.38,1.38,0,0,0-.2.38,1.67,1.67,0,0,0-.11.48c0,.15,0,.32,0,.5Z"/><path d="M336.66,306.17a2.9,2.9,0,0,0,.11.79,1.88,1.88,0,0,0,.32.65,1.58,1.58,0,0,0,.55.44,1.67,1.67,0,0,0,.76.17,1.71,1.71,0,0,0,1-.31A1.49,1.49,0,0,0,340,307h.67a3.16,3.16,0,0,1-.29.68,2,2,0,0,1-.45.55,1.92,1.92,0,0,1-.64.37,2.78,2.78,0,0,1-.86.13,2.52,2.52,0,0,1-1.07-.21,1.94,1.94,0,0,1-.74-.58,2.4,2.4,0,0,1-.43-.86,4,4,0,0,1-.14-1.06,3.38,3.38,0,0,1,.16-1.07,2.74,2.74,0,0,1,.47-.88,2.39,2.39,0,0,1,.75-.59,2.29,2.29,0,0,1,1-.21,2.07,2.07,0,0,1,1.68.73,3.2,3.2,0,0,1,.6,2.14Zm3.38-.5a2.41,2.41,0,0,0-.11-.72,1.71,1.71,0,0,0-.31-.58,1.44,1.44,0,0,0-.51-.39,1.76,1.76,0,0,0-.71-.14,1.61,1.61,0,0,0-.71.15,1.68,1.68,0,0,0-.52.4,2.06,2.06,0,0,0-.34.58,2.66,2.66,0,0,0-.17.7Z"/><path d="M342.15,304.58v-.88h.73v.88Zm0,4v-.88h.73v.88Z"/><path d="M348.9,304.7a5.17,5.17,0,0,0,.82-.06,1.47,1.47,0,0,0,.63-.21,1.1,1.1,0,0,0,.42-.41,1.36,1.36,0,0,0,.15-.67,1.26,1.26,0,0,0-.12-.57,1.1,1.1,0,0,0-.33-.38,1.18,1.18,0,0,0-.48-.22,2.12,2.12,0,0,0-.57-.07,1.56,1.56,0,0,0-.62.11,1.38,1.38,0,0,0-.47.31,1.52,1.52,0,0,0-.31.48,1.74,1.74,0,0,0-.11.61h-.64a2.21,2.21,0,0,1,.16-.87A2.27,2.27,0,0,1,348,302a1.61,1.61,0,0,1,.74-.39,4.91,4.91,0,0,1,.86-.08,2.78,2.78,0,0,1,.78.1,1.83,1.83,0,0,1,.64.32,1.63,1.63,0,0,1,.59,1.32,1.75,1.75,0,0,1-.25.95,1.62,1.62,0,0,1-.75.62,1.89,1.89,0,0,1,.62.31,1.56,1.56,0,0,1,.39.43,1.52,1.52,0,0,1,.19.5,2.92,2.92,0,0,1,.05.5,2.25,2.25,0,0,1-.15.82,2.11,2.11,0,0,1-.44.67,2,2,0,0,1-.72.46,2.6,2.6,0,0,1-1,.19,4.67,4.67,0,0,1-1.06-.11,1.89,1.89,0,0,1-.75-.37,1.66,1.66,0,0,1-.47-.67,3.75,3.75,0,0,1-.23-1h.64a1.51,1.51,0,0,0,.48,1.22,1.89,1.89,0,0,0,1.27.42,2.08,2.08,0,0,0,.71-.13,1.84,1.84,0,0,0,.56-.35,1.49,1.49,0,0,0,.36-.51,1.29,1.29,0,0,0,.12-.6,1.42,1.42,0,0,0-.2-.72,1.25,1.25,0,0,0-.49-.45,2.11,2.11,0,0,0-.71-.22,5,5,0,0,0-.87,0Z"/><path d="M355,301.57a2.42,2.42,0,0,1,.9.15,2.1,2.1,0,0,1,.65.43,2.31,2.31,0,0,1,.42.63,3.25,3.25,0,0,1,.26.76,5.66,5.66,0,0,1,.12.84q0,.42,0,.84a8.37,8.37,0,0,1-.1,1.34,3.58,3.58,0,0,1-.37,1.13,2.07,2.07,0,0,1-.72.78,2.23,2.23,0,0,1-1.19.29,2.27,2.27,0,0,1-1.2-.29,2.13,2.13,0,0,1-.73-.79,3.79,3.79,0,0,1-.36-1.15,8.7,8.7,0,0,1-.1-1.38,9.29,9.29,0,0,1,.09-1.31,3.44,3.44,0,0,1,.35-1.15,2,2,0,0,1,.72-.81A2.16,2.16,0,0,1,355,301.57Zm1.74,3.58a8.32,8.32,0,0,0-.07-1.12,3.14,3.14,0,0,0-.25-1,1.7,1.7,0,0,0-.54-.69,1.64,1.64,0,0,0-1.77,0,1.82,1.82,0,0,0-.52.71,3.56,3.56,0,0,0-.27,1,8.51,8.51,0,0,0-.07,1.14,7.72,7.72,0,0,0,.09,1.23,3,3,0,0,0,.28.95,1.48,1.48,0,0,0,.53.6,1.51,1.51,0,0,0,.85.22,1.43,1.43,0,0,0,.91-.28,1.83,1.83,0,0,0,.53-.72,3.78,3.78,0,0,0,.24-1A10,10,0,0,0,356.77,305.15Z"/><path d="M360.83,303.38H359V303l.72-.08a1.82,1.82,0,0,0,.57-.19,1.15,1.15,0,0,0,.41-.41,1.73,1.73,0,0,0,.25-.71h.51v7.05h-.64Z"/><path d="M364.39,304.58v-.88h.73v.88Zm.73,4.34a1.08,1.08,0,0,1-.21.7,1,1,0,0,1-.52.37v-.37a1.19,1.19,0,0,0,.23-.22.75.75,0,0,0,.11-.44v-.34h-.34v-.88h.73Z"/><path d="M374.85,303.51a2,2,0,0,0-.78-1.31,2.6,2.6,0,0,0-1.49-.39,2.21,2.21,0,0,0-1.12.26,2.27,2.27,0,0,0-.78.7,3.21,3.21,0,0,0-.45,1,5.36,5.36,0,0,0-.14,1.22,5.83,5.83,0,0,0,.12,1.18,3.38,3.38,0,0,0,.42,1,2.13,2.13,0,0,0,.78.74,2.54,2.54,0,0,0,1.23.28,2.24,2.24,0,0,0,.84-.15,2.06,2.06,0,0,0,.66-.42,2.29,2.29,0,0,0,.48-.62,3.4,3.4,0,0,0,.3-.79h.71a4.76,4.76,0,0,1-.35,1,2.88,2.88,0,0,1-.61.82,2.67,2.67,0,0,1-.91.55,3.37,3.37,0,0,1-1.25.21,3,3,0,0,1-1.42-.31,2.76,2.76,0,0,1-1-.82,3.42,3.42,0,0,1-.54-1.21,6.13,6.13,0,0,1-.17-1.45,5.27,5.27,0,0,1,.25-1.75,3.21,3.21,0,0,1,.71-1.18,2.72,2.72,0,0,1,1.06-.66,4.36,4.36,0,0,1,1.33-.2,3.64,3.64,0,0,1,1,.14,2.41,2.41,0,0,1,.84.44,2.17,2.17,0,0,1,.6.71,3,3,0,0,1,.33,1Z"/><path d="M376.93,308.62v-7.2h1l2.36,6.35h0l2.32-6.35h1v7.2H383V302.2h0l-2.36,6.42H380l-2.37-6.42h0v6.42Z"/><path d="M387.5,304.89l2.17-3.47h.79l-2.61,4.06v3.14h-.68v-3.09l-2.57-4.11h.78Z"/><path d="M391.44,308.62v-7.2h.68v3.73l3.69-3.73h.77l-2.84,2.87,3.34,4.33h-.83l-3-3.91-1.13,1.13v2.78Z"/><path d="M398.28,304.58v-.88H399v.88Zm0,4v-.88H399v.88Z"/><path d="M405.84,303.38H404V303l.72-.08a1.82,1.82,0,0,0,.57-.19,1.15,1.15,0,0,0,.41-.41,1.89,1.89,0,0,0,.25-.71h.51v7.05h-.64Z"/><path d="M411.16,301.57a2.42,2.42,0,0,1,.9.15,2,2,0,0,1,.64.43,2.13,2.13,0,0,1,.43.63,3.78,3.78,0,0,1,.26.76,5.66,5.66,0,0,1,.12.84q0,.42,0,.84a8.37,8.37,0,0,1-.1,1.34,3.58,3.58,0,0,1-.37,1.13,2.07,2.07,0,0,1-.72.78,2.23,2.23,0,0,1-1.19.29,2.27,2.27,0,0,1-1.2-.29,2.13,2.13,0,0,1-.73-.79,3.79,3.79,0,0,1-.36-1.15,8.7,8.7,0,0,1-.1-1.38,9.29,9.29,0,0,1,.09-1.31,3.68,3.68,0,0,1,.34-1.15,2.11,2.11,0,0,1,.73-.81A2.16,2.16,0,0,1,411.16,301.57Zm1.74,3.58a8.32,8.32,0,0,0-.07-1.12,3.14,3.14,0,0,0-.25-1,1.7,1.7,0,0,0-.54-.69,1.64,1.64,0,0,0-1.77,0,1.82,1.82,0,0,0-.52.71,3.56,3.56,0,0,0-.27,1,8.51,8.51,0,0,0-.07,1.14,9.18,9.18,0,0,0,.08,1.23,3.32,3.32,0,0,0,.29.95,1.48,1.48,0,0,0,.53.6,1.51,1.51,0,0,0,.85.22,1.43,1.43,0,0,0,.91-.28,1.83,1.83,0,0,0,.53-.72,3.78,3.78,0,0,0,.24-1A10,10,0,0,0,412.9,305.15Z"/><path d="M416.72,301.57a2.42,2.42,0,0,1,.9.15,2,2,0,0,1,.64.43,2.13,2.13,0,0,1,.43.63,3.78,3.78,0,0,1,.26.76,5.66,5.66,0,0,1,.12.84q0,.42,0,.84a8.37,8.37,0,0,1-.1,1.34,3.58,3.58,0,0,1-.37,1.13,2.07,2.07,0,0,1-.72.78,2.23,2.23,0,0,1-1.19.29,2.27,2.27,0,0,1-1.2-.29,2.13,2.13,0,0,1-.73-.79,3.79,3.79,0,0,1-.36-1.15,8.7,8.7,0,0,1-.1-1.38,9.29,9.29,0,0,1,.09-1.31,3.68,3.68,0,0,1,.34-1.15,2.11,2.11,0,0,1,.73-.81A2.16,2.16,0,0,1,416.72,301.57Zm1.74,3.58a8.32,8.32,0,0,0-.07-1.12,3.14,3.14,0,0,0-.25-1,1.7,1.7,0,0,0-.54-.69,1.64,1.64,0,0,0-1.77,0,1.82,1.82,0,0,0-.52.71,3.56,3.56,0,0,0-.27,1,8.51,8.51,0,0,0-.07,1.14,9.18,9.18,0,0,0,.08,1.23,3.32,3.32,0,0,0,.29.95,1.48,1.48,0,0,0,.53.6,1.51,1.51,0,0,0,.85.22,1.43,1.43,0,0,0,.91-.28,1.83,1.83,0,0,0,.53-.72,3.78,3.78,0,0,0,.24-1A10,10,0,0,0,418.46,305.15Z"/><path d="M421.25,308.92a1.08,1.08,0,0,1-.21.7,1,1,0,0,1-.52.37v-.37a1.19,1.19,0,0,0,.23-.22.75.75,0,0,0,.11-.44v-.34h-.34v-.88h.73Z"/><path d="M429.43,303.3a1.64,1.64,0,0,0-.44-.87,1.25,1.25,0,0,0-.9-.32,1.56,1.56,0,0,0-1,.31,2,2,0,0,0-.57.78,4.17,4.17,0,0,0-.27,1c-.05.37-.08.72-.11,1.06.1-.14.2-.27.31-.4a2.16,2.16,0,0,1,.38-.36,2,2,0,0,1,.49-.25,2.56,2.56,0,0,1,2.32.51,2.31,2.31,0,0,1,.59,1.67,2.34,2.34,0,0,1-.59,1.68,2.24,2.24,0,0,1-1.67.61,2.63,2.63,0,0,1-1-.18,1.88,1.88,0,0,1-.78-.57,3,3,0,0,1-.52-1.05,5.48,5.48,0,0,1-.19-1.57,8.58,8.58,0,0,1,.11-1.31,4,4,0,0,1,.39-1.23,2.49,2.49,0,0,1,.78-.92,2.13,2.13,0,0,1,1.28-.36,2.15,2.15,0,0,1,1.4.44,1.84,1.84,0,0,1,.66,1.29Zm-1.49,1.44a1.46,1.46,0,0,0-.67.14,1.55,1.55,0,0,0-.5.38,1.74,1.74,0,0,0-.31.55,2.15,2.15,0,0,0-.11.68,2.47,2.47,0,0,0,.08.6,1.64,1.64,0,0,0,.28.56,1.69,1.69,0,0,0,.5.41,1.65,1.65,0,0,0,.74.16,1.54,1.54,0,0,0,.75-.16,1.35,1.35,0,0,0,.5-.41,1.5,1.5,0,0,0,.27-.57,2.28,2.28,0,0,0,.09-.63,1.83,1.83,0,0,0-.4-1.27A1.57,1.57,0,0,0,427.94,304.74Z"/><path d="M431.21,301.64h4.49v.6a10.83,10.83,0,0,0-1.29,1.76,14.3,14.3,0,0,0-.87,1.76,10.1,10.1,0,0,0-.51,1.6,7.89,7.89,0,0,0-.19,1.26h-.7a7.15,7.15,0,0,1,.3-1.62,13.91,13.91,0,0,1,.64-1.69,14.93,14.93,0,0,1,.86-1.63,12.28,12.28,0,0,1,1-1.4h-3.72Z"/><path d="M437.93,308.92a1.08,1.08,0,0,1-.21.7,1,1,0,0,1-.52.37v-.37a1.19,1.19,0,0,0,.23-.22.75.75,0,0,0,.11-.44v-.34h-.34v-.88h.73Z"/><path d="M444.76,303.38h-1.82V303l.72-.08a1.82,1.82,0,0,0,.57-.19,1.15,1.15,0,0,0,.41-.41,1.89,1.89,0,0,0,.25-.71h.51v7.05h-.64Z"/><path d="M450.88,306.88h-3.22v-.55l3.28-4.69h.58v4.7h1v.54h-1v1.74h-.64Zm-2.59-.54h2.59V302.6Z"/><path d="M454.61,308.92a1.08,1.08,0,0,1-.21.7,1,1,0,0,1-.52.37v-.37a1.19,1.19,0,0,0,.23-.22.75.75,0,0,0,.11-.44v-.34h-.34v-.88h.73Z"/><path d="M460.63,304.7a5.17,5.17,0,0,0,.82-.06,1.47,1.47,0,0,0,.63-.21,1.1,1.1,0,0,0,.42-.41,1.36,1.36,0,0,0,.15-.67,1.26,1.26,0,0,0-.12-.57,1.1,1.1,0,0,0-.33-.38,1.18,1.18,0,0,0-.48-.22,2.12,2.12,0,0,0-.57-.07,1.56,1.56,0,0,0-.62.11,1.38,1.38,0,0,0-.47.31,1.52,1.52,0,0,0-.31.48,1.74,1.74,0,0,0-.11.61H459a2.21,2.21,0,0,1,.16-.87,2.27,2.27,0,0,1,.52-.71,1.61,1.61,0,0,1,.74-.39,4.91,4.91,0,0,1,.86-.08,2.78,2.78,0,0,1,.78.1,1.83,1.83,0,0,1,.64.32,1.63,1.63,0,0,1,.59,1.32,1.75,1.75,0,0,1-.25.95,1.62,1.62,0,0,1-.75.62,1.89,1.89,0,0,1,.62.31,1.56,1.56,0,0,1,.39.43,1.52,1.52,0,0,1,.19.5,2.92,2.92,0,0,1,.05.5,2.25,2.25,0,0,1-.15.82,2.11,2.11,0,0,1-.44.67,2,2,0,0,1-.72.46,2.6,2.6,0,0,1-1,.19,4.67,4.67,0,0,1-1.06-.11,1.89,1.89,0,0,1-.75-.37,1.66,1.66,0,0,1-.47-.67,3.75,3.75,0,0,1-.23-1h.64a1.51,1.51,0,0,0,.48,1.22,1.89,1.89,0,0,0,1.27.42,2.08,2.08,0,0,0,.71-.13,1.84,1.84,0,0,0,.56-.35,1.49,1.49,0,0,0,.36-.51,1.29,1.29,0,0,0,.12-.6,1.42,1.42,0,0,0-.2-.72,1.25,1.25,0,0,0-.49-.45,2.11,2.11,0,0,0-.71-.22,5,5,0,0,0-.87,0Z"/><path d="M465,304.58v-.88h.73v.88Zm.73,4.34a1.08,1.08,0,0,1-.21.7,1,1,0,0,1-.52.37v-.37a1.19,1.19,0,0,0,.23-.22.75.75,0,0,0,.11-.44v-.34H465v-.88h.73Z"/><path d="M471,305.35v3.27h-.68v-7.19h2.82a3.2,3.2,0,0,1,1.82.44,1.65,1.65,0,0,1,.63,1.45,1.84,1.84,0,0,1-.28,1.08,2.16,2.16,0,0,1-.89.68,1.11,1.11,0,0,1,.5.32,1.42,1.42,0,0,1,.27.48,2.13,2.13,0,0,1,.11.57c0,.2,0,.39,0,.58s0,.5,0,.68,0,.32.06.44a1.52,1.52,0,0,0,.09.26.36.36,0,0,0,.12.15v.06h-.75a1.4,1.4,0,0,1-.16-.5c0-.22-.05-.44-.07-.67s0-.46,0-.68a3.56,3.56,0,0,0-.05-.54,1.13,1.13,0,0,0-.2-.47.9.9,0,0,0-.32-.26,1.43,1.43,0,0,0-.43-.12,3.64,3.64,0,0,0-.48,0Zm2.12-.58a3.06,3.06,0,0,0,.7-.08,1.66,1.66,0,0,0,.57-.26,1.16,1.16,0,0,0,.38-.44,1.45,1.45,0,0,0,.14-.65,1.29,1.29,0,0,0-.15-.66,1,1,0,0,0-.39-.41,1.63,1.63,0,0,0-.56-.21,3.42,3.42,0,0,0-.65-.06H471v2.77Z"/><path d="M480.08,305.48v-.58h3.08v3.72h-.58v-1.23a3.16,3.16,0,0,1-.44.58,2.22,2.22,0,0,1-.56.45,2.6,2.6,0,0,1-.74.29,4.54,4.54,0,0,1-.95.1,3.29,3.29,0,0,1-1.26-.24,2.64,2.64,0,0,1-1-.72,3.32,3.32,0,0,1-.66-1.19,5.64,5.64,0,0,1-.23-1.68,5.4,5.4,0,0,1,.2-1.48,3.44,3.44,0,0,1,.61-1.19,3,3,0,0,1,1-.79,3.4,3.4,0,0,1,1.48-.29,3.62,3.62,0,0,1,1.06.14,2.71,2.71,0,0,1,.89.42,2.52,2.52,0,0,1,.67.71,3,3,0,0,1,.39,1h-.7a1.94,1.94,0,0,0-.31-.72,2,2,0,0,0-.51-.54,2.46,2.46,0,0,0-.67-.33,2.81,2.81,0,0,0-.77-.11,2.71,2.71,0,0,0-1.22.25,2.2,2.2,0,0,0-.84.7,3.3,3.3,0,0,0-.49,1.09,6.13,6.13,0,0,0-.15,1.4,3.88,3.88,0,0,0,.17,1.14,3.1,3.1,0,0,0,.51.95,2.59,2.59,0,0,0,.82.65,2.51,2.51,0,0,0,1.11.24,2.58,2.58,0,0,0,.6-.07,2.14,2.14,0,0,0,.6-.21,2.46,2.46,0,0,0,.54-.39,2.19,2.19,0,0,0,.43-.59,2.68,2.68,0,0,0,.23-.71,4.91,4.91,0,0,0,.08-.78Z"/><path d="M484.8,308.62v-7.2h2.6a3.8,3.8,0,0,1,1.08.13,1.86,1.86,0,0,1,.73.37,1.46,1.46,0,0,1,.42.57,2,2,0,0,1,.13.74,1.81,1.81,0,0,1-.1.65,1.35,1.35,0,0,1-.26.46,1.13,1.13,0,0,1-.37.29,1.5,1.5,0,0,1-.42.15v0a1.59,1.59,0,0,1,1.11.59,1.89,1.89,0,0,1,.37,1.2,2.27,2.27,0,0,1-.18,1,1.52,1.52,0,0,1-.48.63,2,2,0,0,1-.75.34,4,4,0,0,1-.94.11Zm.68-4h1.72a3.75,3.75,0,0,0,.89-.09,1.49,1.49,0,0,0,.58-.27.89.89,0,0,0,.31-.43,1.5,1.5,0,0,0,.1-.58,1.43,1.43,0,0,0-.11-.58.91.91,0,0,0-.35-.38,2.11,2.11,0,0,0-.63-.21,6.17,6.17,0,0,0-.94-.06h-1.57Zm0,3.44h1.73a8.91,8.91,0,0,0,1-.05,1.81,1.81,0,0,0,.69-.21,1,1,0,0,0,.4-.44,1.76,1.76,0,0,0,.14-.75,1.55,1.55,0,0,0-.15-.73,1,1,0,0,0-.43-.42,2.11,2.11,0,0,0-.67-.21,7.57,7.57,0,0,0-.87-.05h-1.81Z"/><path d="M496.22,301.57a2.42,2.42,0,0,1,.9.15,2,2,0,0,1,.64.43,2.13,2.13,0,0,1,.43.63,3.78,3.78,0,0,1,.26.76,5.66,5.66,0,0,1,.12.84q0,.42,0,.84a8.37,8.37,0,0,1-.1,1.34,3.58,3.58,0,0,1-.37,1.13,2.07,2.07,0,0,1-.72.78,2.23,2.23,0,0,1-1.19.29,2.27,2.27,0,0,1-1.2-.29,2.13,2.13,0,0,1-.73-.79,3.79,3.79,0,0,1-.36-1.15,8.7,8.7,0,0,1-.1-1.38,9.29,9.29,0,0,1,.09-1.31,3.68,3.68,0,0,1,.34-1.15,2.11,2.11,0,0,1,.73-.81A2.16,2.16,0,0,1,496.22,301.57Zm1.74,3.58a8.32,8.32,0,0,0-.07-1.12,3.14,3.14,0,0,0-.25-1,1.7,1.7,0,0,0-.54-.69,1.64,1.64,0,0,0-1.77,0,1.82,1.82,0,0,0-.52.71,3.56,3.56,0,0,0-.27,1,8.51,8.51,0,0,0-.07,1.14,9.18,9.18,0,0,0,.08,1.23,3.32,3.32,0,0,0,.29.95,1.48,1.48,0,0,0,.53.6,1.51,1.51,0,0,0,.85.22,1.43,1.43,0,0,0,.91-.28,1.83,1.83,0,0,0,.53-.72,3.78,3.78,0,0,0,.24-1A10,10,0,0,0,498,305.15Z"/><path d="M500.75,308.92a1.08,1.08,0,0,1-.21.7,1,1,0,0,1-.52.37v-.37a1.19,1.19,0,0,0,.23-.22.75.75,0,0,0,.11-.44v-.34H500v-.88h.73Z"/><path d="M506.23,304.83c-.17-.11-.32-.21-.45-.31a1.46,1.46,0,0,1-.3-.31,1.27,1.27,0,0,1-.18-.39,2.58,2.58,0,0,1-.05-.53,1.45,1.45,0,0,1,.16-.68,1.82,1.82,0,0,1,.43-.56,2,2,0,0,1,.63-.36,2.08,2.08,0,0,1,.79-.12,2.88,2.88,0,0,1,.78.1,2,2,0,0,1,.69.31,1.62,1.62,0,0,1,.48.53,1.61,1.61,0,0,1,.18.78,1.87,1.87,0,0,1-.23.94,1.66,1.66,0,0,1-.73.64,1.83,1.83,0,0,1,.91.67,1.72,1.72,0,0,1,.34,1.08,2.25,2.25,0,0,1-.18.92,1.74,1.74,0,0,1-.5.67,2.22,2.22,0,0,1-.78.41,3.64,3.64,0,0,1-1,.14,2.77,2.77,0,0,1-.78-.13,2.34,2.34,0,0,1-.71-.39,2.12,2.12,0,0,1-.4-2.69A1.81,1.81,0,0,1,506.23,304.83Zm1.12.34a2.38,2.38,0,0,0-.68.09,1.52,1.52,0,0,0-.54.27,1.4,1.4,0,0,0-.36.47,1.59,1.59,0,0,0-.13.68,1.54,1.54,0,0,0,.12.61,1.52,1.52,0,0,0,.35.48,1.68,1.68,0,0,0,.55.33,2.11,2.11,0,0,0,.73.12,1.75,1.75,0,0,0,.65-.12,1.51,1.51,0,0,0,.87-.82,1.53,1.53,0,0,0,.13-.64,1.64,1.64,0,0,0-.13-.65,1.47,1.47,0,0,0-.36-.46,1.52,1.52,0,0,0-.54-.27A2.39,2.39,0,0,0,507.35,305.17Zm0-3.06a1.69,1.69,0,0,0-.56.08,1.19,1.19,0,0,0-.46.24,1,1,0,0,0-.3.4,1.35,1.35,0,0,0-.11.55,1.19,1.19,0,0,0,.12.56,1.17,1.17,0,0,0,.34.39,1.51,1.51,0,0,0,.48.22,2.1,2.1,0,0,0,.56.08,1.91,1.91,0,0,0,.54-.08,1.07,1.07,0,0,0,.43-.24,1.28,1.28,0,0,0,.28-.43,1.75,1.75,0,0,0,.11-.64,1.06,1.06,0,0,0-.35-.84A1.7,1.7,0,0,0,507.32,302.11Z"/><path d="M513.14,303.38h-1.82V303l.72-.08a1.82,1.82,0,0,0,.57-.19,1.15,1.15,0,0,0,.41-.41,1.89,1.89,0,0,0,.25-.71h.51v7.05h-.64Z"/><path d="M517.43,308.92a1.08,1.08,0,0,1-.21.7,1,1,0,0,1-.52.37v-.37a1.19,1.19,0,0,0,.23-.22A.75.75,0,0,0,517,309v-.34h-.34v-.88h.73Z"/><path d="M524.26,303.38h-1.82V303l.72-.08a1.82,1.82,0,0,0,.57-.19,1.15,1.15,0,0,0,.41-.41,1.89,1.89,0,0,0,.25-.71h.51v7.05h-.64Z"/><path d="M530.38,306.88h-3.22v-.55l3.28-4.69H531v4.7h1v.54h-1v1.74h-.64Zm-2.59-.54h2.59V302.6Z"/><path d="M533.54,307.07a1.48,1.48,0,0,0,.44.86,1.42,1.42,0,0,0,.93.29,1.55,1.55,0,0,0,1-.31,2,2,0,0,0,.58-.78,3.75,3.75,0,0,0,.28-1,9.75,9.75,0,0,0,.1-1l0,0a2.25,2.25,0,0,1-.8.82,2.16,2.16,0,0,1-1.1.28,2.57,2.57,0,0,1-.9-.16,1.94,1.94,0,0,1-.69-.46,2.18,2.18,0,0,1-.44-.72,2.75,2.75,0,0,1-.15-.93,3.07,3.07,0,0,1,.14-.93,2,2,0,0,1,.42-.74,2,2,0,0,1,.7-.49,2.81,2.81,0,0,1,1-.17,2.24,2.24,0,0,1,1.18.28,2.05,2.05,0,0,1,.76.76,3.36,3.36,0,0,1,.41,1.13,7.58,7.58,0,0,1,.12,1.39,5.67,5.67,0,0,1-.19,1.57,3.55,3.55,0,0,1-.54,1.14,2.41,2.41,0,0,1-.81.69,2.36,2.36,0,0,1-1,.23,3.18,3.18,0,0,1-.77-.1,1.86,1.86,0,0,1-.63-.31,1.62,1.62,0,0,1-.44-.53,2.18,2.18,0,0,1-.21-.75Zm1.5-5a1.55,1.55,0,0,0-1.22.5,2,2,0,0,0-.41,1.31,1.78,1.78,0,0,0,.42,1.26,1.6,1.6,0,0,0,1.21.45,1.53,1.53,0,0,0,.66-.14,1.47,1.47,0,0,0,.5-.38,1.61,1.61,0,0,0,.31-.56,2.09,2.09,0,0,0,.11-.67,1.89,1.89,0,0,0-.42-1.27A1.51,1.51,0,0,0,535,302.11Z"/><path d="M538.94,304.58v-.88h.73v.88Zm.73,4.34a1.08,1.08,0,0,1-.21.7,1,1,0,0,1-.52.37v-.37a1.19,1.19,0,0,0,.23-.22.75.75,0,0,0,.11-.44v-.34h-.34v-.88h.73Z"/><path d="M544.28,308.62v-7.2H545v3.09h4.26v-3.09h.68v7.2h-.68v-3.53H545v3.53Z"/><path d="M551.79,306.17a2.9,2.9,0,0,0,.11.79,1.88,1.88,0,0,0,.32.65,1.58,1.58,0,0,0,.55.44,1.67,1.67,0,0,0,.76.17,1.71,1.71,0,0,0,1-.31,1.49,1.49,0,0,0,.56-.88h.67a3.16,3.16,0,0,1-.29.68,2,2,0,0,1-.45.55,1.92,1.92,0,0,1-.64.37,2.78,2.78,0,0,1-.86.13,2.52,2.52,0,0,1-1.07-.21,1.94,1.94,0,0,1-.74-.58,2.4,2.4,0,0,1-.43-.86,4,4,0,0,1-.14-1.06,3.38,3.38,0,0,1,.16-1.07,2.74,2.74,0,0,1,.47-.88,2.39,2.39,0,0,1,.75-.59,2.29,2.29,0,0,1,1-.21,2.07,2.07,0,0,1,1.68.73,3.2,3.2,0,0,1,.6,2.14Zm3.38-.5a2.41,2.41,0,0,0-.11-.72,1.71,1.71,0,0,0-.31-.58,1.44,1.44,0,0,0-.51-.39,1.76,1.76,0,0,0-.71-.14,1.61,1.61,0,0,0-.71.15,1.68,1.68,0,0,0-.52.4,2.06,2.06,0,0,0-.34.58,2.66,2.66,0,0,0-.17.7Z"/><path d="M558.78,306.38l-1.61,2.24h-.73l2-2.68-1.83-2.5h.74l1.43,2.06,1.47-2.06H561l-1.87,2.5,1.94,2.68h-.72Z"/><path d="M564.36,305.6l.4-.06a2.1,2.1,0,0,0,.39-.11.32.32,0,0,0,.18-.24,1.13,1.13,0,0,0,0-.3,1,1,0,0,0-.3-.76,1.38,1.38,0,0,0-1-.29,3.27,3.27,0,0,0-.57.05,1.35,1.35,0,0,0-.46.19,1.12,1.12,0,0,0-.32.36,1.68,1.68,0,0,0-.16.57H562a1.88,1.88,0,0,1,.21-.79,1.68,1.68,0,0,1,.46-.53,2.22,2.22,0,0,1,.66-.3,3.44,3.44,0,0,1,.8-.09,3.4,3.4,0,0,1,.73.08,1.83,1.83,0,0,1,.6.27,1.24,1.24,0,0,1,.4.5,1.72,1.72,0,0,1,.15.76v2.82c0,.23,0,.38.12.44s.26.05.51,0v.47l-.21.06a1,1,0,0,1-.53,0,.53.53,0,0,1-.24-.1.65.65,0,0,1-.15-.18.78.78,0,0,1-.07-.23,2.11,2.11,0,0,1,0-.26,2.58,2.58,0,0,1-.87.64,2.68,2.68,0,0,1-1.06.22,2.39,2.39,0,0,1-.66-.09,1.68,1.68,0,0,1-.55-.28,1.34,1.34,0,0,1-.38-.47,1.45,1.45,0,0,1-.14-.65c0-.88.6-1.4,1.81-1.56Zm1,.3a3.52,3.52,0,0,1-.77.21l-.78.08a2.13,2.13,0,0,0-1.08.31.89.89,0,0,0-.38.79.86.86,0,0,0,.09.41.89.89,0,0,0,.25.29,1,1,0,0,0,.36.17,1.52,1.52,0,0,0,.42.06,2.74,2.74,0,0,0,.7-.09,1.66,1.66,0,0,0,.6-.28,1.39,1.39,0,0,0,.43-.47,1.3,1.3,0,0,0,.16-.67Z"/><path d="M571.54,301.42h.6v7.2h-.6v-.91h0a1.67,1.67,0,0,1-.34.45,1.87,1.87,0,0,1-.45.33,3.07,3.07,0,0,1-.5.2,2.4,2.4,0,0,1-.51.07,2.46,2.46,0,0,1-1.07-.21,2,2,0,0,1-.73-.58,2.22,2.22,0,0,1-.41-.86,4.13,4.13,0,0,1-.13-1.07,3.58,3.58,0,0,1,.14-1,2.48,2.48,0,0,1,.42-.88,2.11,2.11,0,0,1,.72-.6,2.2,2.2,0,0,1,1-.22,2.41,2.41,0,0,1,1,.24,1.94,1.94,0,0,1,.8.73Zm0,4.59a2.89,2.89,0,0,0-.12-.84,2.24,2.24,0,0,0-.35-.69,1.79,1.79,0,0,0-.55-.47,1.57,1.57,0,0,0-.73-.17,1.7,1.7,0,0,0-.81.18,1.61,1.61,0,0,0-.56.51,2,2,0,0,0-.32.74,3.07,3.07,0,0,0-.08.92,2.55,2.55,0,0,0,.13.86,1.94,1.94,0,0,0,.38.64,1.57,1.57,0,0,0,.56.39,1.75,1.75,0,0,0,.7.14,1.56,1.56,0,0,0,1.3-.64,1.89,1.89,0,0,0,.33-.7A3,3,0,0,0,571.54,306Z"/><path d="M574,306.17a2.9,2.9,0,0,0,.11.79,1.88,1.88,0,0,0,.32.65,1.58,1.58,0,0,0,.55.44,1.67,1.67,0,0,0,.76.17,1.71,1.71,0,0,0,1-.31,1.49,1.49,0,0,0,.56-.88H578a3.16,3.16,0,0,1-.29.68,2,2,0,0,1-.45.55,1.92,1.92,0,0,1-.64.37,2.78,2.78,0,0,1-.86.13,2.52,2.52,0,0,1-1.07-.21A1.94,1.94,0,0,1,574,308a2.4,2.4,0,0,1-.43-.86,4,4,0,0,1-.14-1.06,3.38,3.38,0,0,1,.16-1.07,2.74,2.74,0,0,1,.47-.88,2.39,2.39,0,0,1,.75-.59,2.29,2.29,0,0,1,1-.21,2.07,2.07,0,0,1,1.68.73,3.2,3.2,0,0,1,.6,2.14Zm3.38-.5a2.41,2.41,0,0,0-.11-.72,1.71,1.71,0,0,0-.31-.58,1.44,1.44,0,0,0-.51-.39,1.76,1.76,0,0,0-.71-.14,1.61,1.61,0,0,0-.71.15,1.68,1.68,0,0,0-.52.4,2.06,2.06,0,0,0-.34.58,2.66,2.66,0,0,0-.17.7Z"/><path d="M582.88,305.07a1.78,1.78,0,0,0-.55-.91,1.61,1.61,0,0,0-2.32.37,2.16,2.16,0,0,0-.31.71,3.13,3.13,0,0,0-.1.8,3.57,3.57,0,0,0,.09.8,2.33,2.33,0,0,0,.31.7,1.59,1.59,0,0,0,.54.49,1.75,1.75,0,0,0,1.87-.18,1.73,1.73,0,0,0,.52-1h.64a3.11,3.11,0,0,1-.26.78,1.83,1.83,0,0,1-.45.61,2,2,0,0,1-.65.4,2.65,2.65,0,0,1-.87.14,2.49,2.49,0,0,1-1.07-.21,1.94,1.94,0,0,1-.74-.58,2.25,2.25,0,0,1-.43-.86A3.74,3.74,0,0,1,579,306a3.58,3.58,0,0,1,.15-1,2.78,2.78,0,0,1,.46-.87,2.18,2.18,0,0,1,.74-.61,2.6,2.6,0,0,1,2.48.21,2,2,0,0,1,.7,1.34Z"/><path d="M584.83,302.31v-.89h.66v.89Zm0,6.31v-5.18h.6v5.18Z"/><path d="M587.51,308.62h-.6v-5.18h.6v.78h0a1.57,1.57,0,0,1,.66-.69,2,2,0,0,1,.94-.23,1.84,1.84,0,0,1,.61.08,1.18,1.18,0,0,1,.42.21,1.1,1.1,0,0,1,.29.32,1.79,1.79,0,0,1,.2.39,1.77,1.77,0,0,1,.69-.76,2.05,2.05,0,0,1,1-.24,1.81,1.81,0,0,1,.84.17,1.28,1.28,0,0,1,.49.46,1.72,1.72,0,0,1,.22.66,4.68,4.68,0,0,1,.06.76v3.27h-.6V305a1.42,1.42,0,0,0-.24-.88,1,1,0,0,0-.87-.32,1.61,1.61,0,0,0-.64.14,1.5,1.5,0,0,0-.53.45,1.24,1.24,0,0,0-.17.3c0,.12-.07.24-.1.37a2.32,2.32,0,0,0-.06.38c0,.12,0,.24,0,.35v2.79h-.6V305a1.42,1.42,0,0,0-.24-.88,1,1,0,0,0-.87-.32,1.61,1.61,0,0,0-.64.14,1.5,1.5,0,0,0-.53.45,1.24,1.24,0,0,0-.17.3c0,.12-.07.24-.1.37a2.32,2.32,0,0,0-.06.38c0,.12,0,.24,0,.35Z"/><path d="M597.7,305.6l.4-.06a2.1,2.1,0,0,0,.39-.11.32.32,0,0,0,.18-.24,1.13,1.13,0,0,0,0-.3,1,1,0,0,0-.3-.76,1.39,1.39,0,0,0-1-.29,3.27,3.27,0,0,0-.57.05,1.27,1.27,0,0,0-.46.19,1.12,1.12,0,0,0-.32.36,1.48,1.48,0,0,0-.16.57h-.61a1.88,1.88,0,0,1,.21-.79,1.68,1.68,0,0,1,.46-.53,2.22,2.22,0,0,1,.66-.3,3.44,3.44,0,0,1,.8-.09,3.4,3.4,0,0,1,.73.08,1.83,1.83,0,0,1,.6.27,1.24,1.24,0,0,1,.4.5,1.72,1.72,0,0,1,.15.76v2.82c0,.23,0,.38.12.44s.25.05.51,0v.47l-.21.06a1.27,1.27,0,0,1-.26,0,1.12,1.12,0,0,1-.27,0,.53.53,0,0,1-.24-.1.65.65,0,0,1-.15-.18.78.78,0,0,1-.07-.23,1.1,1.1,0,0,1,0-.26,2.8,2.8,0,0,1-.87.64,2.68,2.68,0,0,1-1.06.22,2.39,2.39,0,0,1-.66-.09,1.68,1.68,0,0,1-.55-.28,1.37,1.37,0,0,1-.52-1.12c0-.88.6-1.4,1.81-1.56Zm1,.3a3.68,3.68,0,0,1-.77.21l-.78.08a2.13,2.13,0,0,0-1.08.31.89.89,0,0,0-.38.79.86.86,0,0,0,.09.41.89.89,0,0,0,.25.29,1,1,0,0,0,.36.17,1.52,1.52,0,0,0,.42.06,2.74,2.74,0,0,0,.7-.09,1.74,1.74,0,0,0,.6-.28,1.39,1.39,0,0,0,.43-.47,1.3,1.3,0,0,0,.16-.67Z"/><path d="M601,308.62v-7.2h.6v7.2Z"/><path d="M603.4,304.58v-.88h.73v.88Zm0,4v-.88h.73v.88Z"/><path d="M613,306.34h-1.11l-.32,2.28H611l.31-2.28H609.9l-.34,2.28H609l.34-2.28h-1.1v-.58h1.19l.21-1.41h-1.12v-.58h1.2l.32-2.13h.6l-.32,2.13h1.36l.31-2.13h.59l-.31,2.13h1v.58h-1.08l-.2,1.41h1Zm-2.77-2-.22,1.41h1.38l.2-1.41Z"/><path d="M616.28,301.57a2.5,2.5,0,0,1,.9.15,2,2,0,0,1,.64.43,2.13,2.13,0,0,1,.43.63,3.78,3.78,0,0,1,.26.76,5.66,5.66,0,0,1,.12.84q0,.42,0,.84a9.71,9.71,0,0,1-.1,1.34,3.58,3.58,0,0,1-.37,1.13,2.16,2.16,0,0,1-.72.78,2.61,2.61,0,0,1-2.39,0,2.13,2.13,0,0,1-.73-.79,3.53,3.53,0,0,1-.36-1.15,8.7,8.7,0,0,1-.1-1.38,9.29,9.29,0,0,1,.09-1.31,3.68,3.68,0,0,1,.34-1.15,2,2,0,0,1,.73-.81A2.16,2.16,0,0,1,616.28,301.57Zm1.74,3.58A8.32,8.32,0,0,0,618,304a3.44,3.44,0,0,0-.25-1,1.7,1.7,0,0,0-.54-.69,1.64,1.64,0,0,0-1.77,0,1.73,1.73,0,0,0-.52.71,3.56,3.56,0,0,0-.27,1,8.51,8.51,0,0,0-.07,1.14,9.18,9.18,0,0,0,.08,1.23,3,3,0,0,0,.29.95,1.48,1.48,0,0,0,.53.6,1.51,1.51,0,0,0,.85.22,1.43,1.43,0,0,0,.91-.28,1.83,1.83,0,0,0,.53-.72,3.78,3.78,0,0,0,.24-1A10,10,0,0,0,618,305.15Z"/><path d="M621.84,301.57a2.42,2.42,0,0,1,.9.15,2,2,0,0,1,.64.43,2.13,2.13,0,0,1,.43.63,3.78,3.78,0,0,1,.26.76,5.66,5.66,0,0,1,.12.84q0,.42,0,.84a8.37,8.37,0,0,1-.1,1.34,3.58,3.58,0,0,1-.37,1.13,2.16,2.16,0,0,1-.72.78,2.23,2.23,0,0,1-1.19.29,2.27,2.27,0,0,1-1.2-.29,2.13,2.13,0,0,1-.73-.79,3.79,3.79,0,0,1-.36-1.15,8.7,8.7,0,0,1-.1-1.38,9.29,9.29,0,0,1,.09-1.31,3.68,3.68,0,0,1,.34-1.15,2,2,0,0,1,.73-.81A2.16,2.16,0,0,1,621.84,301.57Zm1.74,3.58a8.32,8.32,0,0,0-.07-1.12,3.44,3.44,0,0,0-.25-1,1.7,1.7,0,0,0-.54-.69,1.64,1.64,0,0,0-1.77,0,1.73,1.73,0,0,0-.52.71,3.56,3.56,0,0,0-.27,1,8.51,8.51,0,0,0-.07,1.14,9.18,9.18,0,0,0,.08,1.23,3.32,3.32,0,0,0,.29.95,1.48,1.48,0,0,0,.53.6,1.51,1.51,0,0,0,.85.22,1.43,1.43,0,0,0,.91-.28,1.83,1.83,0,0,0,.53-.72,3.78,3.78,0,0,0,.24-1A10,10,0,0,0,623.58,305.15Z"/><path d="M625.61,306.79a1.51,1.51,0,0,0,.57,1.07,1.89,1.89,0,0,0,1.17.36,1.75,1.75,0,0,0,.7-.14,1.59,1.59,0,0,0,.87-1,2,2,0,0,0,.12-.7,1.88,1.88,0,0,0-.13-.72,1.65,1.65,0,0,0-.35-.57,1.41,1.41,0,0,0-.55-.37,1.85,1.85,0,0,0-.72-.13,2.13,2.13,0,0,0-.86.17,1.7,1.7,0,0,0-.67.56l-.53-.07.57-3.65h3.5v.54h-3l-.44,2.37.38-.22.36-.15a2.2,2.2,0,0,1,.37-.07,3,3,0,0,1,.44,0,2.38,2.38,0,0,1,.89.16,2,2,0,0,1,.71.46,2,2,0,0,1,.46.73,2.76,2.76,0,0,1,.17,1,2.4,2.4,0,0,1-.19,1,2.28,2.28,0,0,1-.49.74,2.08,2.08,0,0,1-.72.45,2.19,2.19,0,0,1-.83.16,4.59,4.59,0,0,1-.94-.1,2.11,2.11,0,0,1-.76-.34,1.78,1.78,0,0,1-.54-.61,2.26,2.26,0,0,1-.24-.92Z"/><path d="M633.2,303.38h-1.82V303l.72-.08a1.82,1.82,0,0,0,.57-.19,1.15,1.15,0,0,0,.41-.41,2.08,2.08,0,0,0,.25-.71h.51v7.05h-.64Z"/><path d="M636.92,307.07a1.48,1.48,0,0,0,.44.86,1.4,1.4,0,0,0,.93.29,1.55,1.55,0,0,0,1-.31,2,2,0,0,0,.58-.78,3.75,3.75,0,0,0,.28-1c.05-.36.08-.7.1-1l0,0a2.33,2.33,0,0,1-.8.82,2.16,2.16,0,0,1-1.1.28,2.53,2.53,0,0,1-.9-.16,1.94,1.94,0,0,1-.69-.46,2.18,2.18,0,0,1-.44-.72,2.75,2.75,0,0,1-.15-.93,3.07,3.07,0,0,1,.14-.93,2,2,0,0,1,.42-.74,1.88,1.88,0,0,1,.7-.49,2.81,2.81,0,0,1,1-.17,2.24,2.24,0,0,1,1.18.28,2.05,2.05,0,0,1,.76.76,3.36,3.36,0,0,1,.41,1.13,7.58,7.58,0,0,1,.12,1.39,5.67,5.67,0,0,1-.19,1.57,3.55,3.55,0,0,1-.54,1.14,2.2,2.2,0,0,1-1.84.92,3.12,3.12,0,0,1-.77-.1,1.86,1.86,0,0,1-.63-.31,1.62,1.62,0,0,1-.44-.53,2,2,0,0,1-.21-.75Zm1.5-5a1.55,1.55,0,0,0-1.22.5,1.91,1.91,0,0,0-.41,1.31,1.78,1.78,0,0,0,.42,1.26,1.6,1.6,0,0,0,1.21.45,1.56,1.56,0,0,0,.66-.14,1.47,1.47,0,0,0,.5-.38,1.61,1.61,0,0,0,.31-.56,2.09,2.09,0,0,0,.11-.67,1.89,1.89,0,0,0-.42-1.27A1.51,1.51,0,0,0,638.42,302.11Z"/><path d="M642.29,306.79a1.51,1.51,0,0,0,.57,1.07,1.89,1.89,0,0,0,1.17.36,1.75,1.75,0,0,0,.7-.14,1.59,1.59,0,0,0,.87-1,2,2,0,0,0,.12-.7,1.88,1.88,0,0,0-.13-.72,1.65,1.65,0,0,0-.35-.57,1.41,1.41,0,0,0-.55-.37,1.85,1.85,0,0,0-.72-.13,2.13,2.13,0,0,0-.86.17,1.7,1.7,0,0,0-.67.56l-.53-.07.57-3.65H646v.54h-3l-.44,2.37.38-.22.36-.15a2.2,2.2,0,0,1,.37-.07,3,3,0,0,1,.44,0,2.38,2.38,0,0,1,.89.16,2,2,0,0,1,.71.46,2,2,0,0,1,.46.73,2.76,2.76,0,0,1,.17,1,2.4,2.4,0,0,1-.19,1,2.28,2.28,0,0,1-.49.74,2.08,2.08,0,0,1-.72.45,2.19,2.19,0,0,1-.83.16,4.59,4.59,0,0,1-.94-.1,2.11,2.11,0,0,1-.76-.34,1.78,1.78,0,0,1-.54-.61,2.26,2.26,0,0,1-.24-.92Z"/></g><g class="cls-5"><path d="M278,313.42h1.58l2.85,5v-5h1.4v7.2h-1.5l-2.93-5.11v5.11H278Z"/><path d="M287.2,317.38a2.08,2.08,0,0,0,.56-.12.43.43,0,0,0,.3-.4.48.48,0,0,0-.23-.45,1.53,1.53,0,0,0-.68-.12.91.91,0,0,0-.71.24,1,1,0,0,0-.19.49H284.9a2,2,0,0,1,.4-1.15,2.26,2.26,0,0,1,1.9-.7,3.32,3.32,0,0,1,1.56.35,1.32,1.32,0,0,1,.68,1.3v2.45c0,.16,0,.37,0,.61a.84.84,0,0,0,.08.37.49.49,0,0,0,.21.16v.21h-1.52a1.29,1.29,0,0,1-.08-.31,2.53,2.53,0,0,1,0-.32,2.85,2.85,0,0,1-.67.53,1.94,1.94,0,0,1-1,.26,1.72,1.72,0,0,1-1.2-.41,1.45,1.45,0,0,1-.48-1.17,1.53,1.53,0,0,1,.76-1.42,3.45,3.45,0,0,1,1.23-.34Zm.85.65a1.11,1.11,0,0,1-.27.13,1.73,1.73,0,0,1-.37.1l-.32.06a2,2,0,0,0-.64.19.63.63,0,0,0-.33.59.58.58,0,0,0,.21.51.71.71,0,0,0,.48.16,1.39,1.39,0,0,0,.84-.26,1.12,1.12,0,0,0,.4-1Z"/><path d="M293.61,315.17h.12v1.42l-.23,0h-.17a1.16,1.16,0,0,0-1.13.55,2.21,2.21,0,0,0-.16.94v2.55h-1.4V315.3H292v.92a2.84,2.84,0,0,1,.56-.72,1.53,1.53,0,0,1,1-.33Z"/><path d="M296.66,317.38a2.08,2.08,0,0,0,.55-.12.43.43,0,0,0,.3-.4.48.48,0,0,0-.23-.45,1.49,1.49,0,0,0-.67-.12.89.89,0,0,0-.71.24,1,1,0,0,0-.2.49h-1.34a2.05,2.05,0,0,1,.39-1.15,2.28,2.28,0,0,1,1.9-.7,3.26,3.26,0,0,1,1.56.35,1.31,1.31,0,0,1,.68,1.3v2.45c0,.16,0,.37,0,.61a.7.7,0,0,0,.09.37.41.41,0,0,0,.2.16v.21h-1.51a1.34,1.34,0,0,1-.09-.31,2.53,2.53,0,0,1,0-.32,2.66,2.66,0,0,1-.67.53,1.94,1.94,0,0,1-1,.26,1.75,1.75,0,0,1-1.2-.41,1.44,1.44,0,0,1-.47-1.17,1.51,1.51,0,0,1,.76-1.42,3.45,3.45,0,0,1,1.23-.34Zm.85.65a1.11,1.11,0,0,1-.27.13,1.85,1.85,0,0,1-.38.1l-.31.06a1.81,1.81,0,0,0-.64.19.63.63,0,0,0-.33.59.58.58,0,0,0,.2.51.74.74,0,0,0,.49.16,1.44,1.44,0,0,0,.84-.26,1.14,1.14,0,0,0,.4-1Z"/><path d="M304.4,315.6a1.76,1.76,0,0,1,.52,1.43v3.59H303.5v-3.24a1.53,1.53,0,0,0-.11-.64.78.78,0,0,0-.78-.41,1,1,0,0,0-1,.6,2.07,2.07,0,0,0-.14.81v2.88h-1.39v-5.31h1.35v.77a2.22,2.22,0,0,1,.5-.59,1.81,1.81,0,0,1,1.09-.32A2,2,0,0,1,304.4,315.6Z"/><path d="M305.61,321.64h.26a.43.43,0,0,0,.31-.1.57.57,0,0,0,.1-.39v-5.84h1.39v5.87a1.8,1.8,0,0,1-.32,1.19,1.54,1.54,0,0,1-1.24.39h-.5Zm2.06-7h-1.39v-1.28h1.39Z"/><path d="M311.1,317.38a2.08,2.08,0,0,0,.56-.12.43.43,0,0,0,.3-.4.48.48,0,0,0-.23-.45,1.5,1.5,0,0,0-.68-.12.87.87,0,0,0-.7.24,1,1,0,0,0-.2.49H308.8a2,2,0,0,1,.4-1.15,2.28,2.28,0,0,1,1.9-.7,3.29,3.29,0,0,1,1.56.35,1.32,1.32,0,0,1,.68,1.3v2.45c0,.16,0,.37,0,.61a.84.84,0,0,0,.08.37.49.49,0,0,0,.21.16v.21h-1.52a1.29,1.29,0,0,1-.08-.31,2.53,2.53,0,0,1,0-.32,2.85,2.85,0,0,1-.67.53,1.94,1.94,0,0,1-1,.26,1.72,1.72,0,0,1-1.2-.41,1.45,1.45,0,0,1-.48-1.17,1.52,1.52,0,0,1,.77-1.42,3.33,3.33,0,0,1,1.23-.34Zm.85.65a.84.84,0,0,1-.27.13,1.73,1.73,0,0,1-.37.1l-.32.06a2,2,0,0,0-.64.19.63.63,0,0,0-.32.59.58.58,0,0,0,.2.51.71.71,0,0,0,.48.16,1.39,1.39,0,0,0,.84-.26,1.12,1.12,0,0,0,.4-1Z"/><path d="M315,315.5h1.48V317H315Zm0,3.66h1.48v1.46H315Z"/></g><g class="cls-5"><path d="M320.8,320.62v-7.2h2.63a3.43,3.43,0,0,1,1.15.16,1.73,1.73,0,0,1,.72.44,1.48,1.48,0,0,1,.37.64,2.81,2.81,0,0,1,.11.77,1.86,1.86,0,0,1-.25,1,1.75,1.75,0,0,1-.63.61,2.77,2.77,0,0,1-.89.32,5.52,5.52,0,0,1-1,.09h-1.54v3.18Zm2.24-3.76a5.61,5.61,0,0,0,.86-.06,1.73,1.73,0,0,0,.64-.23,1.11,1.11,0,0,0,.41-.45,1.6,1.6,0,0,0,.15-.74,1.21,1.21,0,0,0-.45-1,2.25,2.25,0,0,0-1.41-.35h-1.76v2.86Z"/><path d="M329.23,317.6l.4-.06a2.1,2.1,0,0,0,.39-.11.32.32,0,0,0,.18-.24,1.77,1.77,0,0,0,0-.3,1,1,0,0,0-.3-.76,1.41,1.41,0,0,0-1-.29,3.27,3.27,0,0,0-.57.05,1.27,1.27,0,0,0-.46.19,1,1,0,0,0-.32.36,1.48,1.48,0,0,0-.16.57h-.61a1.88,1.88,0,0,1,.21-.79,1.68,1.68,0,0,1,.46-.53,2.22,2.22,0,0,1,.66-.3,3.44,3.44,0,0,1,.8-.09,3.4,3.4,0,0,1,.73.08,1.83,1.83,0,0,1,.6.27,1.33,1.33,0,0,1,.4.5,1.72,1.72,0,0,1,.15.76v2.82c0,.23,0,.38.12.44s.25.05.51,0v.47l-.21.06a1.27,1.27,0,0,1-.26,0,1.12,1.12,0,0,1-.27,0,.53.53,0,0,1-.24-.1.65.65,0,0,1-.15-.18.56.56,0,0,1-.07-.23,1.1,1.1,0,0,1,0-.26,2.8,2.8,0,0,1-.87.64,2.68,2.68,0,0,1-1.06.22,2.39,2.39,0,0,1-.66-.09,1.68,1.68,0,0,1-.55-.28,1.37,1.37,0,0,1-.52-1.12c0-.88.6-1.4,1.81-1.56Zm1,.3a3.68,3.68,0,0,1-.77.21l-.78.08a2.13,2.13,0,0,0-1.08.31.87.87,0,0,0-.38.79.86.86,0,0,0,.09.41.79.79,0,0,0,.25.29.86.86,0,0,0,.36.17,1.52,1.52,0,0,0,.42.06,2.74,2.74,0,0,0,.7-.09,1.83,1.83,0,0,0,.6-.28,1.39,1.39,0,0,0,.43-.47,1.41,1.41,0,0,0,.16-.67Z"/><path d="M333,320.62h-.6v-5.18h.6v.72a3.48,3.48,0,0,1,.74-.62,1.74,1.74,0,0,1,.93-.24,2.38,2.38,0,0,1,.89.16,1.52,1.52,0,0,1,.69.58,1.3,1.3,0,0,1,.22.57,6.06,6.06,0,0,1,0,.62v3.39h-.6v-3.38a1.57,1.57,0,0,0-.31-1.05,1.3,1.3,0,0,0-1-.35,1.6,1.6,0,0,0-.51.08,1.42,1.42,0,0,0-.42.23,1.34,1.34,0,0,0-.31.32,1.16,1.16,0,0,0-.2.38,1.67,1.67,0,0,0-.11.48,3.94,3.94,0,0,0,0,.5Z"/><path d="M339.79,320.64a1.48,1.48,0,0,0-.29.07,1.68,1.68,0,0,1-.4.05,1,1,0,0,1-.69-.23,1.08,1.08,0,0,1-.23-.8v-3.79h-.73v-.5h.73V314h.6v1.44h1v.5h-1v3.55c0,.12,0,.23,0,.33a.41.41,0,0,0,.06.23.28.28,0,0,0,.15.13,1.08,1.08,0,0,0,.3,0l.24,0,.25-.05Z"/><path d="M342.81,320.76a2.86,2.86,0,0,1-.94-.18,2.19,2.19,0,0,1-1.27-1.36,3.34,3.34,0,0,1-.19-1.19,3.69,3.69,0,0,1,.15-1.07,2.43,2.43,0,0,1,.45-.86,2.19,2.19,0,0,1,.75-.59,2.46,2.46,0,0,1,1.05-.21,2.51,2.51,0,0,1,1.06.21,2.29,2.29,0,0,1,.75.58,2.46,2.46,0,0,1,.44.87,3.69,3.69,0,0,1,.15,1.07,3.33,3.33,0,0,1-.18,1.12,2.49,2.49,0,0,1-.48.86,2.09,2.09,0,0,1-.76.55A2.42,2.42,0,0,1,342.81,320.76Zm1.76-2.73a3.83,3.83,0,0,0-.1-.86,2.13,2.13,0,0,0-.31-.7,1.51,1.51,0,0,0-.54-.46,2,2,0,0,0-1.62,0,1.7,1.7,0,0,0-.54.49,2.11,2.11,0,0,0-.31.7,3.23,3.23,0,0,0-.1.82,3.08,3.08,0,0,0,.11.88,2.17,2.17,0,0,0,.34.7,1.52,1.52,0,0,0,.55.45,1.81,1.81,0,0,0,.76.16,1.55,1.55,0,0,0,.8-.19,1.62,1.62,0,0,0,.55-.49,2.33,2.33,0,0,0,.31-.7A3.59,3.59,0,0,0,344.57,318Z"/><path d="M346.91,320.62h-.6v-5.18h.6v.72a3.48,3.48,0,0,1,.74-.62,1.74,1.74,0,0,1,.93-.24,2.38,2.38,0,0,1,.89.16,1.52,1.52,0,0,1,.69.58,1.3,1.3,0,0,1,.22.57,6.06,6.06,0,0,1,0,.62v3.39h-.6v-3.38a1.57,1.57,0,0,0-.31-1.05,1.3,1.3,0,0,0-1-.35,1.6,1.6,0,0,0-.51.08,1.42,1.42,0,0,0-.42.23,1.34,1.34,0,0,0-.31.32,1.16,1.16,0,0,0-.2.38,1.67,1.67,0,0,0-.11.48,3.94,3.94,0,0,0,0,.5Z"/><path d="M352.24,318.17a2.56,2.56,0,0,0,.11.79,1.88,1.88,0,0,0,.32.65,1.49,1.49,0,0,0,.55.44,1.67,1.67,0,0,0,.76.17,1.71,1.71,0,0,0,1-.31,1.54,1.54,0,0,0,.56-.88h.67a3.76,3.76,0,0,1-.29.68,2,2,0,0,1-1.09.92,2.83,2.83,0,0,1-.86.13,2.49,2.49,0,0,1-1.07-.21,1.94,1.94,0,0,1-.74-.58,2.25,2.25,0,0,1-.43-.86,3.62,3.62,0,0,1-.14-1.06,3.38,3.38,0,0,1,.16-1.07,2.74,2.74,0,0,1,.47-.88,2.19,2.19,0,0,1,.75-.59,2.26,2.26,0,0,1,1-.21,2.07,2.07,0,0,1,1.68.73,3.31,3.31,0,0,1,.6,2.14Zm3.38-.5a2.41,2.41,0,0,0-.11-.72,1.71,1.71,0,0,0-.31-.58,1.65,1.65,0,0,0-.51-.39,1.8,1.8,0,0,0-.71-.14,1.56,1.56,0,0,0-1.23.55,1.85,1.85,0,0,0-.34.58,2.32,2.32,0,0,0-.17.7Z"/><path d="M357.73,316.58v-.88h.73v.88Zm0,4v-.88h.73v.88Z"/><path d="M365.29,315.38h-1.82V315l.72-.08a1.82,1.82,0,0,0,.57-.19,1.24,1.24,0,0,0,.41-.41,2.08,2.08,0,0,0,.25-.71h.51v7.05h-.64Z"/><path d="M368.82,318.79a1.47,1.47,0,0,0,.57,1.07,1.89,1.89,0,0,0,1.17.36,1.75,1.75,0,0,0,.7-.14,1.63,1.63,0,0,0,.54-.39,1.78,1.78,0,0,0,.33-.57,2,2,0,0,0,.12-.7,2.09,2.09,0,0,0-.13-.72,1.65,1.65,0,0,0-.35-.57,1.41,1.41,0,0,0-.55-.37,1.88,1.88,0,0,0-.72-.13,2.13,2.13,0,0,0-.86.17,1.7,1.7,0,0,0-.67.56l-.53-.07.57-3.65h3.5v.54h-3l-.44,2.37.38-.22.36-.15a2.2,2.2,0,0,1,.37-.07,3,3,0,0,1,.44,0,2.38,2.38,0,0,1,.89.16,2,2,0,0,1,.71.46,2,2,0,0,1,.46.73,2.76,2.76,0,0,1,.17,1,2.57,2.57,0,0,1-.19,1,2.28,2.28,0,0,1-.49.74,2.08,2.08,0,0,1-.72.45,2.19,2.19,0,0,1-.83.16,4.59,4.59,0,0,1-.94-.1,2.11,2.11,0,0,1-.76-.34,1.78,1.78,0,0,1-.54-.61,2.11,2.11,0,0,1-.24-.92Z"/><path d="M376.41,315.38h-1.82V315l.72-.08a1.82,1.82,0,0,0,.57-.19,1.24,1.24,0,0,0,.41-.41,2.08,2.08,0,0,0,.25-.71h.51v7.05h-.64Z"/><path d="M380,316.58v-.88h.73v.88Zm.73,4.34a1.08,1.08,0,0,1-.21.7,1.07,1.07,0,0,1-.52.37v-.37a1.56,1.56,0,0,0,.23-.22.75.75,0,0,0,.11-.44v-.34H380v-.88h.73Z"/><path d="M390.43,315.51a2.08,2.08,0,0,0-.78-1.31,2.6,2.6,0,0,0-1.49-.39,2.25,2.25,0,0,0-1.13.26,2.15,2.15,0,0,0-.77.7,3.21,3.21,0,0,0-.45,1,4.86,4.86,0,0,0-.14,1.22,5.83,5.83,0,0,0,.12,1.18,2.94,2.94,0,0,0,.42,1,2.13,2.13,0,0,0,.78.74,2.49,2.49,0,0,0,1.23.28,2.32,2.32,0,0,0,.84-.15,2.06,2.06,0,0,0,.66-.42,2.29,2.29,0,0,0,.48-.62,3.4,3.4,0,0,0,.3-.79h.71a4.76,4.76,0,0,1-.35,1,3.08,3.08,0,0,1-.61.82,2.67,2.67,0,0,1-.91.55,3.41,3.41,0,0,1-1.25.21,3,3,0,0,1-1.42-.31,2.68,2.68,0,0,1-1-.82,3.42,3.42,0,0,1-.54-1.21A5.65,5.65,0,0,1,385,317a5.27,5.27,0,0,1,.25-1.75,3.21,3.21,0,0,1,.71-1.18,2.72,2.72,0,0,1,1.06-.66,4.31,4.31,0,0,1,1.33-.2,3.75,3.75,0,0,1,1,.14,2.41,2.41,0,0,1,.84.44,2.44,2.44,0,0,1,.6.71,3,3,0,0,1,.33,1Z"/><path d="M392.51,320.62v-7.2h1l2.36,6.35h0l2.32-6.35h1v7.2h-.68V314.2h0l-2.36,6.42h-.64l-2.37-6.42h0v6.42Z"/><path d="M403.08,316.89l2.16-3.47H406l-2.6,4.06v3.14h-.69v-3.09l-2.56-4.11H401Z"/><path d="M407,320.62v-7.2h.68v3.73l3.69-3.73h.77l-2.84,2.87,3.34,4.33h-.83l-3-3.91-1.13,1.13v2.78Z"/><path d="M413.86,316.58v-.88h.72v.88Zm0,4v-.88h.72v.88Z"/><path d="M421.17,313.57a2.52,2.52,0,0,1,.91.15,2.06,2.06,0,0,1,.64.43,2.13,2.13,0,0,1,.43.63,3.78,3.78,0,0,1,.26.76q.07.4.12.84c0,.28,0,.56,0,.84a8.36,8.36,0,0,1-.11,1.34,3.33,3.33,0,0,1-.36,1.13,2.36,2.36,0,0,1-3.11.78,2.13,2.13,0,0,1-.73-.79,3.31,3.31,0,0,1-.36-1.15,8.67,8.67,0,0,1-.11-1.38,11.07,11.07,0,0,1,.09-1.31,4,4,0,0,1,.35-1.15,2,2,0,0,1,.73-.81A2.14,2.14,0,0,1,421.17,313.57Zm1.74,3.58a10.37,10.37,0,0,0-.06-1.12,3.44,3.44,0,0,0-.25-1,1.7,1.7,0,0,0-.54-.69,1.42,1.42,0,0,0-.9-.26,1.39,1.39,0,0,0-.87.26,1.73,1.73,0,0,0-.52.71,3.56,3.56,0,0,0-.27,1,8.5,8.5,0,0,0-.08,1.14,7.72,7.72,0,0,0,.09,1.23,3.33,3.33,0,0,0,.28.95,1.58,1.58,0,0,0,.54.6,1.46,1.46,0,0,0,.84.22,1.44,1.44,0,0,0,.92-.28,1.93,1.93,0,0,0,.53-.72,3.78,3.78,0,0,0,.24-1A10,10,0,0,0,422.91,317.15Z"/><path d="M425.7,320.92a1.08,1.08,0,0,1-.2.7,1.07,1.07,0,0,1-.52.37v-.37a1.14,1.14,0,0,0,.22-.22.68.68,0,0,0,.12-.44v-.34H425v-.88h.72Z"/><path d="M433.89,315.3a1.8,1.8,0,0,0-.44-.87,1.26,1.26,0,0,0-.91-.32,1.53,1.53,0,0,0-1,.31,2,2,0,0,0-.57.78,3.46,3.46,0,0,0-.27,1c-.05.37-.09.72-.11,1.06a3.9,3.9,0,0,1,.31-.4,1.92,1.92,0,0,1,.86-.61,2.26,2.26,0,0,1,.67-.09,2.21,2.21,0,0,1,1.66.6,2.31,2.31,0,0,1,.59,1.67,2.34,2.34,0,0,1-.59,1.68,2.25,2.25,0,0,1-1.67.61,2.68,2.68,0,0,1-1-.18,1.92,1.92,0,0,1-.77-.57,2.72,2.72,0,0,1-.52-1.05,5.48,5.48,0,0,1-.19-1.57,8.53,8.53,0,0,1,.1-1.31,4.33,4.33,0,0,1,.4-1.23,2.49,2.49,0,0,1,.78-.92,2.13,2.13,0,0,1,1.28-.36,2.19,2.19,0,0,1,1.4.44,1.8,1.8,0,0,1,.65,1.29Zm-1.49,1.44a1.46,1.46,0,0,0-.67.14,1.45,1.45,0,0,0-.5.38,1.77,1.77,0,0,0-.32.55,2.15,2.15,0,0,0-.1.68,2.06,2.06,0,0,0,.08.6,1.64,1.64,0,0,0,.28.56,1.78,1.78,0,0,0,.49.41,1.7,1.7,0,0,0,.75.16,1.57,1.57,0,0,0,.75-.16,1.43,1.43,0,0,0,.5-.41,1.87,1.87,0,0,0,.27-.57,2.28,2.28,0,0,0,.09-.63,1.88,1.88,0,0,0-.4-1.27A1.57,1.57,0,0,0,432.4,316.74Z"/><path d="M438.66,318.88h-3.22v-.55l3.28-4.69h.58v4.7h1v.54h-1v1.74h-.64Zm-2.59-.54h2.59V314.6Z"/><path d="M442.39,320.92a1.08,1.08,0,0,1-.21.7,1.07,1.07,0,0,1-.52.37v-.37a1.56,1.56,0,0,0,.23-.22.75.75,0,0,0,.1-.44v-.34h-.33v-.88h.73Z"/><path d="M447.38,319.07a1.48,1.48,0,0,0,.44.86,1.37,1.37,0,0,0,.92.29,1.56,1.56,0,0,0,1-.31,2.16,2.16,0,0,0,.58-.78,3.75,3.75,0,0,0,.28-1,9.62,9.62,0,0,0,.09-1v0a2.33,2.33,0,0,1-.8.82,2.23,2.23,0,0,1-1.11.28,2.48,2.48,0,0,1-.89-.16,1.94,1.94,0,0,1-.69-.46,2,2,0,0,1-.44-.72,2.75,2.75,0,0,1-.15-.93,3.08,3.08,0,0,1,.13-.93,2.18,2.18,0,0,1,.43-.74,1.88,1.88,0,0,1,.7-.49,2.77,2.77,0,0,1,1-.17,2.27,2.27,0,0,1,1.18.28,2.05,2.05,0,0,1,.76.76,3.36,3.36,0,0,1,.41,1.13,7.58,7.58,0,0,1,.12,1.39,6.08,6.08,0,0,1-.19,1.57,3.55,3.55,0,0,1-.54,1.14,2.2,2.2,0,0,1-1.84.92,3.06,3.06,0,0,1-.77-.1,1.86,1.86,0,0,1-.63-.31,1.62,1.62,0,0,1-.44-.53,1.82,1.82,0,0,1-.21-.75Zm1.5-5a1.55,1.55,0,0,0-1.22.5,1.91,1.91,0,0,0-.42,1.31,1.78,1.78,0,0,0,.43,1.26,1.63,1.63,0,0,0,2.37-.07,1.61,1.61,0,0,0,.31-.56,2.09,2.09,0,0,0,.1-.67,1.84,1.84,0,0,0-.42-1.27A1.48,1.48,0,0,0,448.88,314.11Z"/><path d="M452.34,313.64h4.49v.6a12.17,12.17,0,0,0-1.29,1.76,14.3,14.3,0,0,0-.87,1.76,11.13,11.13,0,0,0-.5,1.6,6.9,6.9,0,0,0-.19,1.26h-.7a7.15,7.15,0,0,1,.3-1.62,13.84,13.84,0,0,1,.63-1.69,15,15,0,0,1,.87-1.63,12.28,12.28,0,0,1,1-1.4h-3.73Z"/><path d="M459.07,320.92a1.08,1.08,0,0,1-.21.7,1,1,0,0,1-.53.37v-.37a1.6,1.6,0,0,0,.24-.22.75.75,0,0,0,.1-.44v-.34h-.34v-.88h.74Z"/><path d="M465.66,313.57a2.5,2.5,0,0,1,.9.15,2.06,2.06,0,0,1,.64.43,2.13,2.13,0,0,1,.43.63,3.23,3.23,0,0,1,.25.76,3.87,3.87,0,0,1,.12.84,7.86,7.86,0,0,1,0,.84,9.73,9.73,0,0,1-.09,1.34,3.58,3.58,0,0,1-.37,1.13,2.36,2.36,0,0,1-3.11.78,2.13,2.13,0,0,1-.73-.79,3.31,3.31,0,0,1-.36-1.15,8.7,8.7,0,0,1-.1-1.38,8,8,0,0,1,.09-1.31,3.43,3.43,0,0,1,.34-1.15,2.09,2.09,0,0,1,.72-.81A2.21,2.21,0,0,1,465.66,313.57Zm1.74,3.58a10.36,10.36,0,0,0-.07-1.12,3.44,3.44,0,0,0-.25-1,1.7,1.7,0,0,0-.54-.69,1.43,1.43,0,0,0-.91-.26,1.38,1.38,0,0,0-.86.26,1.84,1.84,0,0,0-.53.71,3.94,3.94,0,0,0-.26,1,8.51,8.51,0,0,0-.07,1.14,7.78,7.78,0,0,0,.08,1.23,3,3,0,0,0,.29.95,1.43,1.43,0,0,0,1.38.82,1.45,1.45,0,0,0,.91-.28,1.83,1.83,0,0,0,.53-.72,4.22,4.22,0,0,0,.23-1A10.11,10.11,0,0,0,467.4,317.15Z"/><path d="M469.45,316.58v-.88h.74v.88Zm.74,4.34a1.08,1.08,0,0,1-.21.7,1,1,0,0,1-.53.37v-.37a1.6,1.6,0,0,0,.24-.22.75.75,0,0,0,.1-.44v-.34h-.34v-.88h.74Z"/><path d="M475.48,317.35v3.27h-.69v-7.19h2.83a3.2,3.2,0,0,1,1.82.44,1.65,1.65,0,0,1,.63,1.45,1.92,1.92,0,0,1-.28,1.08,2.16,2.16,0,0,1-.89.68,1.11,1.11,0,0,1,.5.32,1.25,1.25,0,0,1,.26.48,2.14,2.14,0,0,1,.12.57c0,.2,0,.39,0,.58a6.39,6.39,0,0,0,0,.68c0,.18,0,.32.06.44a1,1,0,0,0,.08.26.49.49,0,0,0,.13.15v.06h-.75a1.23,1.23,0,0,1-.16-.5c0-.22,0-.44-.07-.67s0-.46,0-.68a3.39,3.39,0,0,0-.06-.54,1.13,1.13,0,0,0-.19-.47,1,1,0,0,0-.32-.26,1.43,1.43,0,0,0-.43-.12l-.48,0Zm2.12-.58a3.13,3.13,0,0,0,.7-.08,1.75,1.75,0,0,0,.57-.26,1.14,1.14,0,0,0,.37-.44,1.33,1.33,0,0,0,.15-.65,1.29,1.29,0,0,0-.15-.66,1.1,1.1,0,0,0-.39-.41,1.63,1.63,0,0,0-.56-.21,3.49,3.49,0,0,0-.65-.06h-2.16v2.77Z"/><path d="M484.53,317.48v-.58h3.09v3.72H487v-1.23a3.12,3.12,0,0,1-.43.58,2.1,2.1,0,0,1-.57.45,2.49,2.49,0,0,1-.74.29,4.37,4.37,0,0,1-.94.1,3.3,3.3,0,0,1-1.27-.24,2.81,2.81,0,0,1-1-.72,3.47,3.47,0,0,1-.65-1.19,5.33,5.33,0,0,1-.23-1.68,5,5,0,0,1,.2-1.48,3.28,3.28,0,0,1,.61-1.19,2.93,2.93,0,0,1,1-.79,3.4,3.4,0,0,1,1.48-.29,3.62,3.62,0,0,1,1.06.14,2.71,2.71,0,0,1,.89.42,2.84,2.84,0,0,1,.67.71,3,3,0,0,1,.38,1h-.7a1.93,1.93,0,0,0-.3-.72,2.19,2.19,0,0,0-.51-.54,2.61,2.61,0,0,0-.67-.33,2.87,2.87,0,0,0-.77-.11,2.68,2.68,0,0,0-1.22.25,2.2,2.2,0,0,0-.84.7,2.94,2.94,0,0,0-.49,1.09,6.12,6.12,0,0,0-.16,1.4,3.58,3.58,0,0,0,.18,1.14,3.1,3.1,0,0,0,.51.95,2.49,2.49,0,0,0,.82.65,2.63,2.63,0,0,0,1.7.17,2.32,2.32,0,0,0,.61-.21,2.46,2.46,0,0,0,.54-.39,2.72,2.72,0,0,0,.43-.59,2.68,2.68,0,0,0,.23-.71,4.92,4.92,0,0,0,.07-.78Z"/><path d="M489.25,320.62v-7.2h2.61a3.85,3.85,0,0,1,1.08.13,1.86,1.86,0,0,1,.73.37,1.34,1.34,0,0,1,.41.57,2,2,0,0,1,.13.74,2.08,2.08,0,0,1-.09.65,1.54,1.54,0,0,1-.26.46,1.13,1.13,0,0,1-.37.29,1.77,1.77,0,0,1-.42.15v0a1.59,1.59,0,0,1,1.11.59,1.94,1.94,0,0,1,.36,1.2,2.27,2.27,0,0,1-.17,1,1.63,1.63,0,0,1-.49.63,1.87,1.87,0,0,1-.74.34,4,4,0,0,1-.94.11Zm.69-4h1.72a3.67,3.67,0,0,0,.88-.09,1.42,1.42,0,0,0,.58-.27.91.91,0,0,0,.32-.43,1.72,1.72,0,0,0,.09-.58,1.28,1.28,0,0,0-.11-.58.88.88,0,0,0-.34-.38,2.21,2.21,0,0,0-.63-.21,6.32,6.32,0,0,0-.95-.06h-1.56Zm0,3.44h1.72a9.11,9.11,0,0,0,1-.05,1.81,1.81,0,0,0,.69-.21,1,1,0,0,0,.4-.44,1.76,1.76,0,0,0,.14-.75,1.44,1.44,0,0,0-.16-.73,1,1,0,0,0-.43-.42,2,2,0,0,0-.66-.21,7.61,7.61,0,0,0-.88-.05h-1.8Z"/><path d="M498.58,315.88a2.87,2.87,0,0,1,.16-.95,2.21,2.21,0,0,1,.46-.73,2.23,2.23,0,0,1,.73-.47,2.58,2.58,0,0,1,.94-.16,2.69,2.69,0,0,1,.94.15,2,2,0,0,1,.68.42,1.79,1.79,0,0,1,.42.62,2.13,2.13,0,0,1,.13.76,2.16,2.16,0,0,1-.15.83,2.26,2.26,0,0,1-.41.64,3.54,3.54,0,0,1-.58.5l-.66.41-.67.38a3.74,3.74,0,0,0-.59.38,3,3,0,0,0-.33.27,1.75,1.75,0,0,0-.29.32,1.36,1.36,0,0,0-.21.37,1.14,1.14,0,0,0-.09.46H503v.54h-4.62a4.19,4.19,0,0,1,.12-.92,1.85,1.85,0,0,1,.43-.8,5.68,5.68,0,0,1,.77-.72c.26-.2.52-.38.77-.54l.73-.43a3.87,3.87,0,0,0,.59-.42,1.85,1.85,0,0,0,.42-.52,1.69,1.69,0,0,0,.15-.71,1.48,1.48,0,0,0-.12-.61,1.43,1.43,0,0,0-.33-.46,1.63,1.63,0,0,0-.49-.29,2,2,0,0,0-.62-.09,1.46,1.46,0,0,0-.63.14,1.69,1.69,0,0,0-.49.39,1.78,1.78,0,0,0-.4,1.24Z"/><path d="M505.66,316.7a5.31,5.31,0,0,0,.83-.06,1.57,1.57,0,0,0,.63-.21,1,1,0,0,0,.41-.41,1.45,1.45,0,0,0,0-1.24,1.1,1.1,0,0,0-.33-.38,1.32,1.32,0,0,0-.48-.22,2.12,2.12,0,0,0-.57-.07,1.52,1.52,0,0,0-.62.11,1.38,1.38,0,0,0-.47.31,1.55,1.55,0,0,0-.32.48,1.74,1.74,0,0,0-.1.61H504a2.06,2.06,0,0,1,.68-1.58,1.64,1.64,0,0,1,.75-.39,4.82,4.82,0,0,1,.86-.08,2.78,2.78,0,0,1,.78.1,1.92,1.92,0,0,1,.64.32,1.65,1.65,0,0,1,.42.55,1.68,1.68,0,0,1,.17.77,1.84,1.84,0,0,1-.25.95,1.67,1.67,0,0,1-.75.62,1.89,1.89,0,0,1,.62.31,1.68,1.68,0,0,1,.38.43,1.54,1.54,0,0,1,.2.5,2.92,2.92,0,0,1,.05.5,2.25,2.25,0,0,1-.15.82,2.11,2.11,0,0,1-.44.67,2.22,2.22,0,0,1-.72.46,2.65,2.65,0,0,1-1,.19,4.76,4.76,0,0,1-1.07-.11,2,2,0,0,1-.75-.37,1.64,1.64,0,0,1-.46-.67,3.4,3.4,0,0,1-.24-1h.65a1.51,1.51,0,0,0,.48,1.22,1.85,1.85,0,0,0,1.27.42,2.08,2.08,0,0,0,.71-.13,2,2,0,0,0,.56-.35,1.49,1.49,0,0,0,.36-.51,1.61,1.61,0,0,0,.12-.6,1.53,1.53,0,0,0-.2-.72,1.33,1.33,0,0,0-.49-.45,2.1,2.1,0,0,0-.72-.22,5,5,0,0,0-.87,0Z"/><path d="M509.7,315.88a2.63,2.63,0,0,1,.17-.95,1.93,1.93,0,0,1,.46-.73,2.09,2.09,0,0,1,.72-.47,2.58,2.58,0,0,1,.94-.16,2.69,2.69,0,0,1,.94.15,2,2,0,0,1,.68.42,1.79,1.79,0,0,1,.42.62,2.13,2.13,0,0,1,.13.76,2.16,2.16,0,0,1-.15.83,2.26,2.26,0,0,1-.41.64,3.54,3.54,0,0,1-.58.5l-.66.41-.67.38a3.74,3.74,0,0,0-.59.38,3,3,0,0,0-.33.27,1.75,1.75,0,0,0-.29.32,1.36,1.36,0,0,0-.21.37,1.14,1.14,0,0,0-.09.46h3.93v.54h-4.62a4.19,4.19,0,0,1,.12-.92,1.85,1.85,0,0,1,.43-.8,5.68,5.68,0,0,1,.77-.72c.26-.2.52-.38.77-.54l.73-.43a4.55,4.55,0,0,0,.6-.42,2,2,0,0,0,.41-.52,1.69,1.69,0,0,0,.15-.71,1.48,1.48,0,0,0-.12-.61,1.29,1.29,0,0,0-.33-.46,1.63,1.63,0,0,0-.49-.29,2,2,0,0,0-.62-.09,1.46,1.46,0,0,0-.63.14,1.69,1.69,0,0,0-.49.39,1.78,1.78,0,0,0-.4,1.24Z"/><path d="M516.33,320.92a1.08,1.08,0,0,1-.21.7,1.07,1.07,0,0,1-.52.37v-.37a1.56,1.56,0,0,0,.23-.22.75.75,0,0,0,.11-.44v-.34h-.34v-.88h.73Z"/><path d="M523.16,315.38h-1.83V315l.73-.08a1.82,1.82,0,0,0,.57-.19,1.24,1.24,0,0,0,.41-.41,1.9,1.9,0,0,0,.24-.71h.51v7.05h-.63Z"/><path d="M526.38,315.88a2.87,2.87,0,0,1,.16-.95,2.21,2.21,0,0,1,.46-.73,2.13,2.13,0,0,1,.73-.47,2.58,2.58,0,0,1,.94-.16,2.69,2.69,0,0,1,.94.15,2,2,0,0,1,.68.42,1.64,1.64,0,0,1,.41.62,1.94,1.94,0,0,1,.14.76,2.16,2.16,0,0,1-.15.83,2.26,2.26,0,0,1-.41.64,3.54,3.54,0,0,1-.58.5c-.22.14-.44.28-.67.41l-.66.38a3.74,3.74,0,0,0-.59.38,3,3,0,0,0-.33.27,1.75,1.75,0,0,0-.29.32,1.36,1.36,0,0,0-.21.37,1.14,1.14,0,0,0-.09.46h3.92v.54h-4.61a4.94,4.94,0,0,1,.11-.92,2,2,0,0,1,.44-.8,5.68,5.68,0,0,1,.77-.72c.26-.2.52-.38.77-.54l.73-.43a3.87,3.87,0,0,0,.59-.42,1.65,1.65,0,0,0,.41-.52,1.55,1.55,0,0,0,.16-.71A1.48,1.48,0,0,0,530,315a1.43,1.43,0,0,0-.33-.46,1.56,1.56,0,0,0-.5-.29,1.91,1.91,0,0,0-.61-.09,1.46,1.46,0,0,0-.63.14,1.69,1.69,0,0,0-.49.39,1.78,1.78,0,0,0-.4,1.24Z"/><path d="M534,313.57a2.52,2.52,0,0,1,.91.15,2.06,2.06,0,0,1,.64.43,2.13,2.13,0,0,1,.43.63,3.76,3.76,0,0,1,.25.76,3.87,3.87,0,0,1,.12.84,7.86,7.86,0,0,1,0,.84,9.73,9.73,0,0,1-.09,1.34,3.58,3.58,0,0,1-.37,1.13,2.36,2.36,0,0,1-3.11.78,2.13,2.13,0,0,1-.73-.79,3.53,3.53,0,0,1-.37-1.15,10.1,10.1,0,0,1-.09-1.38,8,8,0,0,1,.09-1.31,3.43,3.43,0,0,1,.34-1.15,2.09,2.09,0,0,1,.72-.81A2.2,2.2,0,0,1,534,313.57Zm1.75,3.58a10.36,10.36,0,0,0-.07-1.12,3.14,3.14,0,0,0-.26-1,1.6,1.6,0,0,0-.53-.69,1.43,1.43,0,0,0-.91-.26,1.38,1.38,0,0,0-.86.26,1.84,1.84,0,0,0-.53.71,3.94,3.94,0,0,0-.26,1,8.5,8.5,0,0,0-.08,1.14,7.72,7.72,0,0,0,.09,1.23,3,3,0,0,0,.29.95,1.43,1.43,0,0,0,1.37.82,1.46,1.46,0,0,0,.92-.28,1.83,1.83,0,0,0,.53-.72,4.22,4.22,0,0,0,.23-1A10.11,10.11,0,0,0,535.78,317.15Z"/><path d="M538.57,320.92a1.08,1.08,0,0,1-.21.7,1,1,0,0,1-.53.37v-.37a1.6,1.6,0,0,0,.24-.22.75.75,0,0,0,.1-.44v-.34h-.34v-.88h.74Z"/><path d="M545.16,313.57a2.5,2.5,0,0,1,.9.15,2.06,2.06,0,0,1,.64.43,2.13,2.13,0,0,1,.43.63,3.23,3.23,0,0,1,.25.76,3.87,3.87,0,0,1,.12.84,7.86,7.86,0,0,1,0,.84,9.73,9.73,0,0,1-.09,1.34,3.58,3.58,0,0,1-.37,1.13,2.36,2.36,0,0,1-3.11.78,2.13,2.13,0,0,1-.73-.79,3.31,3.31,0,0,1-.36-1.15,8.7,8.7,0,0,1-.1-1.38,8,8,0,0,1,.09-1.31,3.43,3.43,0,0,1,.34-1.15,2.09,2.09,0,0,1,.72-.81A2.21,2.21,0,0,1,545.16,313.57Zm1.74,3.58a10.36,10.36,0,0,0-.07-1.12,3.44,3.44,0,0,0-.25-1,1.7,1.7,0,0,0-.54-.69,1.43,1.43,0,0,0-.91-.26,1.38,1.38,0,0,0-.86.26,1.84,1.84,0,0,0-.53.71,3.94,3.94,0,0,0-.26,1,8.51,8.51,0,0,0-.07,1.14,7.78,7.78,0,0,0,.08,1.23,3,3,0,0,0,.29.95,1.43,1.43,0,0,0,1.38.82,1.45,1.45,0,0,0,.91-.28,1.83,1.83,0,0,0,.53-.72,4.22,4.22,0,0,0,.23-1A10.11,10.11,0,0,0,546.9,317.15Z"/><path d="M549,316.58v-.88h.74v.88Zm.74,4.34a1.08,1.08,0,0,1-.21.7,1,1,0,0,1-.53.37v-.37a1.6,1.6,0,0,0,.24-.22.75.75,0,0,0,.1-.44v-.34H549v-.88h.74Z"/><path d="M554.29,320.62v-7.2H555v3.09h4.26v-3.09h.67v7.2h-.67v-3.53H555v3.53Z"/><path d="M561.8,318.17a2.9,2.9,0,0,0,.11.79,2.09,2.09,0,0,0,.33.65,1.54,1.54,0,0,0,.54.44,1.7,1.7,0,0,0,.76.17,1.66,1.66,0,0,0,1-.31,1.55,1.55,0,0,0,.57-.88h.66a2.73,2.73,0,0,1-.29.68,2,2,0,0,1-.45.55,1.87,1.87,0,0,1-.63.37,2.84,2.84,0,0,1-.87.13,2.55,2.55,0,0,1-1.07-.21,1.9,1.9,0,0,1-.73-.58,2.42,2.42,0,0,1-.44-.86,4,4,0,0,1-.14-1.06,3.38,3.38,0,0,1,.17-1.07,2.74,2.74,0,0,1,.47-.88,2.25,2.25,0,0,1,.74-.59,2.33,2.33,0,0,1,1-.21,2,2,0,0,1,1.68.73,3.25,3.25,0,0,1,.61,2.14Zm3.39-.5a2.41,2.41,0,0,0-.11-.72,1.71,1.71,0,0,0-.31-.58,1.58,1.58,0,0,0-.52-.39,1.73,1.73,0,0,0-.71-.14,1.56,1.56,0,0,0-1.22.55,2.08,2.08,0,0,0-.35.58,3.12,3.12,0,0,0-.17.7Z"/><path d="M568.79,318.38l-1.6,2.24h-.74l2-2.68-1.83-2.5h.74l1.42,2.06,1.47-2.06H571l-1.87,2.5,1.93,2.68h-.71Z"/><path d="M574.37,317.6l.41-.06a1.77,1.77,0,0,0,.38-.11.31.31,0,0,0,.19-.24,1.69,1.69,0,0,0,0-.3,1,1,0,0,0-.29-.76,1.42,1.42,0,0,0-1-.29,3.24,3.24,0,0,0-.56.05,1.27,1.27,0,0,0-.46.19,1,1,0,0,0-.32.36,1.67,1.67,0,0,0-.17.57H572a1.74,1.74,0,0,1,.21-.79,1.56,1.56,0,0,1,.46-.53,2.22,2.22,0,0,1,.66-.3,3.44,3.44,0,0,1,.8-.09,3.4,3.4,0,0,1,.73.08,1.83,1.83,0,0,1,.6.27,1.33,1.33,0,0,1,.4.5,1.72,1.72,0,0,1,.15.76v2.82c0,.23,0,.38.12.44s.25.05.51,0v.47l-.21.06a1.05,1.05,0,0,1-.54,0,.64.64,0,0,1-.24-.1.86.86,0,0,1-.14-.18.78.78,0,0,1-.08-.23,2.17,2.17,0,0,1,0-.26,2.8,2.8,0,0,1-.87.64,2.73,2.73,0,0,1-1.07.22,2.37,2.37,0,0,1-.65-.09,1.73,1.73,0,0,1-.56-.28,1.33,1.33,0,0,1-.51-1.12q0-1.32,1.8-1.56Zm1,.3a3.59,3.59,0,0,1-.76.21l-.79.08a2.09,2.09,0,0,0-1.07.31.87.87,0,0,0-.39.79.86.86,0,0,0,.1.41.79.79,0,0,0,.25.29.86.86,0,0,0,.36.17,1.51,1.51,0,0,0,.41.06,2.76,2.76,0,0,0,.71-.09,1.83,1.83,0,0,0,.6-.28,1.39,1.39,0,0,0,.43-.47,1.41,1.41,0,0,0,.15-.67Z"/><path d="M581.56,313.42h.6v7.2h-.6v-.91h0a1.45,1.45,0,0,1-.33.45,2.36,2.36,0,0,1-.45.33,2.85,2.85,0,0,1-.51.2,2.23,2.23,0,0,1-.5.07,2.54,2.54,0,0,1-1.08-.21,2,2,0,0,1-.72-.58,2.22,2.22,0,0,1-.41-.86,4.13,4.13,0,0,1-.13-1.07,4,4,0,0,1,.13-1,2.68,2.68,0,0,1,.43-.88,2.11,2.11,0,0,1,.72-.6,2.19,2.19,0,0,1,1-.22,2.45,2.45,0,0,1,1.06.24,1.94,1.94,0,0,1,.8.73Zm0,4.59a2.89,2.89,0,0,0-.12-.84,2.24,2.24,0,0,0-.35-.69,1.79,1.79,0,0,0-.55-.47,1.6,1.6,0,0,0-.73-.17,1.74,1.74,0,0,0-.82.18,1.58,1.58,0,0,0-.55.51,2,2,0,0,0-.32.74,3.42,3.42,0,0,0-.09.92,2.54,2.54,0,0,0,.14.86,1.92,1.92,0,0,0,.37.64,1.61,1.61,0,0,0,.57.39,1.75,1.75,0,0,0,.7.14,1.72,1.72,0,0,0,.75-.17,1.66,1.66,0,0,0,.55-.47,2.27,2.27,0,0,0,.33-.7A3,3,0,0,0,581.56,318Z"/><path d="M584,318.17a2.56,2.56,0,0,0,.12.79,1.88,1.88,0,0,0,.32.65,1.46,1.46,0,0,0,.54.44,1.74,1.74,0,0,0,.77.17,1.67,1.67,0,0,0,1-.31,1.44,1.44,0,0,0,.56-.88H588a3.16,3.16,0,0,1-.29.68,2,2,0,0,1-.44.55,2.08,2.08,0,0,1-.65.37,2.71,2.71,0,0,1-.85.13,2.54,2.54,0,0,1-1.08-.21A2.1,2.1,0,0,1,584,320a2.57,2.57,0,0,1-.43-.86,4,4,0,0,1-.13-1.06,3.38,3.38,0,0,1,.16-1.07,2.74,2.74,0,0,1,.47-.88,2.19,2.19,0,0,1,.75-.59,2.26,2.26,0,0,1,1-.21,2,2,0,0,1,1.67.73,3.2,3.2,0,0,1,.6,2.14Zm3.38-.5a2.41,2.41,0,0,0-.1-.72,1.71,1.71,0,0,0-.31-.58,1.65,1.65,0,0,0-.51-.39,1.8,1.8,0,0,0-.71-.14,1.56,1.56,0,0,0-1.23.55,2.08,2.08,0,0,0-.35.58,3.12,3.12,0,0,0-.17.7Z"/><path d="M592.9,317.07a1.73,1.73,0,0,0-.56-.91,1.52,1.52,0,0,0-1-.32,1.49,1.49,0,0,0-.79.19,1.37,1.37,0,0,0-.54.5,2.18,2.18,0,0,0-.32.71,3.63,3.63,0,0,0-.09.8,3.57,3.57,0,0,0,.09.8,2.09,2.09,0,0,0,.3.7,1.69,1.69,0,0,0,.54.49,1.59,1.59,0,0,0,.81.19,1.56,1.56,0,0,0,1.07-.37,1.78,1.78,0,0,0,.52-1h.63a2.74,2.74,0,0,1-.25.78,2.15,2.15,0,0,1-.45.61,2,2,0,0,1-.65.4,2.65,2.65,0,0,1-.87.14,2.54,2.54,0,0,1-1.08-.21,2.1,2.1,0,0,1-.74-.58,2.38,2.38,0,0,1-.42-.86A3.74,3.74,0,0,1,589,318a3.58,3.58,0,0,1,.15-1,2.57,2.57,0,0,1,.45-.87,2.13,2.13,0,0,1,.75-.61,2.26,2.26,0,0,1,1-.22,2.29,2.29,0,0,1,1.45.43,2,2,0,0,1,.69,1.34Z"/><path d="M594.84,314.31v-.89h.66v.89Zm0,6.31v-5.18h.6v5.18Z"/><path d="M597.53,320.62h-.61v-5.18h.61v.78h0a1.69,1.69,0,0,1,.66-.69,2,2,0,0,1,.94-.23,1.8,1.8,0,0,1,.61.08,1.33,1.33,0,0,1,.43.21,1.26,1.26,0,0,1,.29.32,1.76,1.76,0,0,1,.19.39,1.85,1.85,0,0,1,.7-.76,2,2,0,0,1,1-.24,1.83,1.83,0,0,1,.85.17,1.25,1.25,0,0,1,.48.46,1.72,1.72,0,0,1,.23.66,4.7,4.7,0,0,1,.05.76v3.27h-.59V317a1.42,1.42,0,0,0-.24-.88,1,1,0,0,0-.88-.32,1.52,1.52,0,0,0-.63.14,1.63,1.63,0,0,0-.54.45,1.22,1.22,0,0,0-.16.3c0,.12-.08.24-.11.37s0,.25,0,.38,0,.24,0,.35v2.79h-.6V317a1.42,1.42,0,0,0-.23-.88,1,1,0,0,0-.88-.32,1.52,1.52,0,0,0-.63.14,1.5,1.5,0,0,0-.53.45,1,1,0,0,0-.17.3c0,.12-.08.24-.11.37s0,.25-.05.38,0,.24,0,.35Z"/><path d="M607.71,317.6l.41-.06a2,2,0,0,0,.38-.11.33.33,0,0,0,.19-.24,1.69,1.69,0,0,0,0-.3,1,1,0,0,0-.29-.76,1.42,1.42,0,0,0-1-.29,3.45,3.45,0,0,0-.57.05,1.3,1.3,0,0,0-.45.19,1,1,0,0,0-.32.36,1.67,1.67,0,0,0-.17.57h-.61a1.88,1.88,0,0,1,.21-.79,1.71,1.71,0,0,1,.47-.53,2.22,2.22,0,0,1,.66-.3,3.35,3.35,0,0,1,.79-.09,3.5,3.5,0,0,1,.74.08,1.83,1.83,0,0,1,.6.27,1.33,1.33,0,0,1,.4.5,1.72,1.72,0,0,1,.14.76v2.82a.56.56,0,0,0,.13.44c.08.07.25.05.5,0v.47l-.2.06a1.26,1.26,0,0,1-.27,0l-.27,0a.53.53,0,0,1-.24-.1.62.62,0,0,1-.14-.18.78.78,0,0,1-.08-.23,2.11,2.11,0,0,1,0-.26,2.58,2.58,0,0,1-.87.64,2.64,2.64,0,0,1-1.06.22,2.37,2.37,0,0,1-.65-.09,1.73,1.73,0,0,1-.56-.28,1.37,1.37,0,0,1-.52-1.12c0-.88.61-1.4,1.81-1.56Zm1,.3a3.52,3.52,0,0,1-.77.21l-.78.08a2.09,2.09,0,0,0-1.07.31.87.87,0,0,0-.39.79.86.86,0,0,0,.1.41.79.79,0,0,0,.25.29.86.86,0,0,0,.36.17,1.45,1.45,0,0,0,.41.06,2.69,2.69,0,0,0,.7-.09,1.79,1.79,0,0,0,.61-.28,1.27,1.27,0,0,0,.42-.47,1.3,1.3,0,0,0,.16-.67Z"/><path d="M611,320.62v-7.2h.6v7.2Z"/><path d="M613.41,316.58v-.88h.73v.88Zm0,4v-.88h.73v.88Z"/><path d="M623,318.34h-1.11l-.32,2.28H621l.31-2.28h-1.37l-.34,2.28H619l.34-2.28h-1.1v-.58h1.19l.21-1.41H618.5v-.58h1.2l.32-2.13h.6l-.32,2.13h1.36l.31-2.13h.59l-.31,2.13h1v.58h-1.08l-.2,1.41h1Zm-2.77-2-.22,1.41h1.38l.2-1.41Z"/><path d="M624.6,318.17a2.9,2.9,0,0,0,.11.79,2.09,2.09,0,0,0,.33.65,1.46,1.46,0,0,0,.54.44,1.79,1.79,0,0,0,1.77-.14,1.49,1.49,0,0,0,.56-.88h.67a3.16,3.16,0,0,1-.29.68,2,2,0,0,1-.45.55,1.92,1.92,0,0,1-.64.37,2.73,2.73,0,0,1-.86.13,2.52,2.52,0,0,1-1.07-.21,2,2,0,0,1-.74-.58,2.57,2.57,0,0,1-.43-.86,4,4,0,0,1-.14-1.06,3.38,3.38,0,0,1,.17-1.07,2.74,2.74,0,0,1,.47-.88,2.25,2.25,0,0,1,.74-.59,2.33,2.33,0,0,1,1-.21A2,2,0,0,1,628,316a3.2,3.2,0,0,1,.6,2.14Zm3.38-.5a2.41,2.41,0,0,0-.1-.72,1.71,1.71,0,0,0-.31-.58,1.58,1.58,0,0,0-.52-.39,1.73,1.73,0,0,0-.71-.14,1.56,1.56,0,0,0-1.22.55,2.08,2.08,0,0,0-.35.58,3.12,3.12,0,0,0-.17.7Z"/><path d="M630.74,316.83a4.67,4.67,0,0,1-.44-.31,1.52,1.52,0,0,1-.31-.31,1.25,1.25,0,0,1-.17-.39,2,2,0,0,1-.06-.53,1.58,1.58,0,0,1,.16-.68,1.82,1.82,0,0,1,.43-.56,2.13,2.13,0,0,1,1.42-.48,3,3,0,0,1,.79.1,1.92,1.92,0,0,1,.68.31,1.62,1.62,0,0,1,.48.53,1.61,1.61,0,0,1,.18.78,1.87,1.87,0,0,1-.22.94,1.69,1.69,0,0,1-.74.64,1.86,1.86,0,0,1,.92.67,1.78,1.78,0,0,1,.33,1.08,2.25,2.25,0,0,1-.17.92,1.84,1.84,0,0,1-.5.67,2.37,2.37,0,0,1-.79.41,3.54,3.54,0,0,1-1,.14,2.65,2.65,0,0,1-.77-.13,2.34,2.34,0,0,1-.71-.39,2.23,2.23,0,0,1-.52-.65,2,2,0,0,1-.2-.91,2.07,2.07,0,0,1,.32-1.13A1.78,1.78,0,0,1,630.74,316.83Zm1.12.34a2.48,2.48,0,0,0-.68.09,1.71,1.71,0,0,0-.54.27,1.4,1.4,0,0,0-.36.47,1.75,1.75,0,0,0-.13.68,1.55,1.55,0,0,0,.13.61,1.38,1.38,0,0,0,.35.48,1.58,1.58,0,0,0,.55.33,2.09,2.09,0,0,0,.72.12,1.71,1.71,0,0,0,.65-.12,1.51,1.51,0,0,0,.53-.32,1.46,1.46,0,0,0,.35-.5,1.69,1.69,0,0,0,.12-.64,1.48,1.48,0,0,0-.13-.65,1.23,1.23,0,0,0-.36-.46,1.52,1.52,0,0,0-.54-.27A2.29,2.29,0,0,0,631.86,317.17Zm0-3.06a1.73,1.73,0,0,0-.56.08,1.22,1.22,0,0,0-.45.24,1.13,1.13,0,0,0-.31.4,1.35,1.35,0,0,0-.11.55,1.19,1.19,0,0,0,.13.56,1,1,0,0,0,.33.39,1.51,1.51,0,0,0,.48.22,2.1,2.1,0,0,0,.56.08,1.8,1.8,0,0,0,.54-.08,1.07,1.07,0,0,0,.43-.24,1.3,1.3,0,0,0,.29-.43,1.76,1.76,0,0,0,.1-.64,1,1,0,0,0-.35-.84A1.68,1.68,0,0,0,631.83,314.11Z"/><path d="M635.22,313.64h4.49v.6a12.17,12.17,0,0,0-1.29,1.76,14.3,14.3,0,0,0-.87,1.76,11.13,11.13,0,0,0-.5,1.6,8.05,8.05,0,0,0-.2,1.26h-.7a7.8,7.8,0,0,1,.31-1.62,13.84,13.84,0,0,1,.63-1.69,16.89,16.89,0,0,1,.86-1.63,12.28,12.28,0,0,1,1-1.4h-3.72Z"/><path d="M641.86,316.83a4.67,4.67,0,0,1-.44-.31,1.52,1.52,0,0,1-.31-.31,1.25,1.25,0,0,1-.17-.39,2,2,0,0,1-.06-.53,1.58,1.58,0,0,1,.16-.68,1.82,1.82,0,0,1,.43-.56,2.13,2.13,0,0,1,1.42-.48,3,3,0,0,1,.79.1,1.92,1.92,0,0,1,.68.31,1.62,1.62,0,0,1,.48.53,1.61,1.61,0,0,1,.18.78,1.87,1.87,0,0,1-.22.94,1.69,1.69,0,0,1-.74.64,1.86,1.86,0,0,1,.92.67,1.78,1.78,0,0,1,.33,1.08,2.25,2.25,0,0,1-.17.92,1.84,1.84,0,0,1-.5.67,2.37,2.37,0,0,1-.79.41,3.54,3.54,0,0,1-1,.14,2.65,2.65,0,0,1-.77-.13,2.34,2.34,0,0,1-.71-.39,2.23,2.23,0,0,1-.52-.65,2,2,0,0,1-.2-.91,2.07,2.07,0,0,1,.32-1.13A1.78,1.78,0,0,1,641.86,316.83Zm1.12.34a2.48,2.48,0,0,0-.68.09,1.71,1.71,0,0,0-.54.27,1.4,1.4,0,0,0-.36.47,1.75,1.75,0,0,0-.13.68,1.55,1.55,0,0,0,.13.61,1.38,1.38,0,0,0,.35.48,1.58,1.58,0,0,0,.55.33,2.09,2.09,0,0,0,.72.12,1.71,1.71,0,0,0,.65-.12,1.51,1.51,0,0,0,.53-.32,1.46,1.46,0,0,0,.35-.5,1.69,1.69,0,0,0,.12-.64,1.48,1.48,0,0,0-.13-.65,1.23,1.23,0,0,0-.36-.46,1.52,1.52,0,0,0-.54-.27A2.29,2.29,0,0,0,643,317.17Zm0-3.06a1.73,1.73,0,0,0-.56.08,1.22,1.22,0,0,0-.45.24,1.13,1.13,0,0,0-.31.4,1.35,1.35,0,0,0-.11.55,1.19,1.19,0,0,0,.13.56,1,1,0,0,0,.33.39,1.51,1.51,0,0,0,.48.22,2.1,2.1,0,0,0,.56.08,1.8,1.8,0,0,0,.54-.08,1.07,1.07,0,0,0,.43-.24,1.3,1.3,0,0,0,.29-.43,1.76,1.76,0,0,0,.1-.64,1,1,0,0,0-.35-.84A1.68,1.68,0,0,0,643,314.11Z"/><path d="M648.53,313.57a2.42,2.42,0,0,1,.9.15,2,2,0,0,1,.65.43,2.13,2.13,0,0,1,.43.63,3.76,3.76,0,0,1,.25.76,5.66,5.66,0,0,1,.12.84q0,.42,0,.84a8.37,8.37,0,0,1-.1,1.34,3.57,3.57,0,0,1-.36,1.13,2.18,2.18,0,0,1-.73.78,2.21,2.21,0,0,1-1.19.29,2.25,2.25,0,0,1-1.19-.29,2.05,2.05,0,0,1-.73-.79,3.53,3.53,0,0,1-.37-1.15,10.06,10.06,0,0,1-.1-1.38,9.29,9.29,0,0,1,.09-1.31,3.69,3.69,0,0,1,.35-1.15,2.09,2.09,0,0,1,.72-.81A2.2,2.2,0,0,1,648.53,313.57Zm1.74,3.58a10.37,10.37,0,0,0-.06-1.12,3.44,3.44,0,0,0-.26-1,1.6,1.6,0,0,0-.53-.69,1.43,1.43,0,0,0-.91-.26,1.38,1.38,0,0,0-.86.26,1.84,1.84,0,0,0-.53.71,3.94,3.94,0,0,0-.26,1,8.5,8.5,0,0,0-.08,1.14,7.72,7.72,0,0,0,.09,1.23,3.33,3.33,0,0,0,.28.95,1.58,1.58,0,0,0,.54.6,1.68,1.68,0,0,0,1.76-.06,1.81,1.81,0,0,0,.52-.72,3.78,3.78,0,0,0,.24-1A10,10,0,0,0,650.27,317.15Z"/><path d="M654.09,313.57a2.42,2.42,0,0,1,.9.15,2,2,0,0,1,.65.43,2.13,2.13,0,0,1,.43.63,3.76,3.76,0,0,1,.25.76,5.66,5.66,0,0,1,.12.84q0,.42,0,.84a8.37,8.37,0,0,1-.1,1.34,3.33,3.33,0,0,1-.36,1.13,2.18,2.18,0,0,1-.73.78,2.21,2.21,0,0,1-1.19.29,2.25,2.25,0,0,1-1.19-.29,2.13,2.13,0,0,1-.73-.79,3.53,3.53,0,0,1-.37-1.15,10.06,10.06,0,0,1-.1-1.38,9.29,9.29,0,0,1,.09-1.31,3.69,3.69,0,0,1,.35-1.15,2.09,2.09,0,0,1,.72-.81A2.2,2.2,0,0,1,654.09,313.57Zm1.74,3.58a10.37,10.37,0,0,0-.06-1.12,3.14,3.14,0,0,0-.26-1,1.6,1.6,0,0,0-.53-.69,1.43,1.43,0,0,0-.91-.26,1.38,1.38,0,0,0-.86.26,1.84,1.84,0,0,0-.53.71,3.94,3.94,0,0,0-.26,1,8.5,8.5,0,0,0-.08,1.14,7.72,7.72,0,0,0,.09,1.23,3.33,3.33,0,0,0,.28.95,1.58,1.58,0,0,0,.54.6,1.68,1.68,0,0,0,1.76-.06,1.81,1.81,0,0,0,.52-.72,3.78,3.78,0,0,0,.24-1A10,10,0,0,0,655.83,317.15Z"/></g></g></g></g></g></svg>