<svg width="297" height="258" viewBox="0 0 297 258" fill="none" xmlns="http://www.w3.org/2000/svg">
<rect width="297" height="258" rx="2" fill="#F3F3F3"/>
<rect x="0.5" y="0.5" width="296" height="257" rx="1.5" stroke="#4A4A4A" stroke-opacity="0.5"/>
<g clip-path="url(#clip0)">
<path d="M12 11L284.659 246.516" stroke="#4A4A4A" stroke-opacity="0.5"/>
<path d="M284.659 11L11.9998 246.516" stroke="#4A4A4A" stroke-opacity="0.5"/>
</g>
<rect x="115" y="101" width="68" height="56" rx="4" fill="#F3F3F3"/>
<path fill-rule="evenodd" clip-rule="evenodd" d="M179 101H119C116.791 101 115 102.791 115 105V153C115 155.209 116.791 157 119 157H179C181.209 157 183 155.209 183 153V105C183 102.791 181.209 101 179 101ZM119 153V105H179V153H119Z" fill="#4A4A4A" fill-opacity="0.5"/>
<path fill-rule="evenodd" clip-rule="evenodd" d="M126 117.5C126 121.642 129.358 125 133.5 125C137.642 125 141 121.642 141 117.5C141 113.358 137.642 110 133.5 110C129.358 110 126 113.358 126 117.5ZM137 117.5C137 119.433 135.433 121 133.5 121C131.567 121 130 119.433 130 117.5C130 115.567 131.567 114 133.5 114C135.433 114 137 115.567 137 117.5Z" fill="#4A4A4A" fill-opacity="0.5"/>
<path d="M129.408 148.42C128.624 149.198 127.357 149.193 126.58 148.408C125.802 147.624 125.807 146.357 126.592 145.58L143.041 129.272L152.313 137.336C153.146 138.061 153.234 139.324 152.509 140.158C151.784 140.991 150.521 141.079 149.687 140.354L143.219 134.728L129.408 148.42Z" fill="#4A4A4A" fill-opacity="0.5"/>
<path d="M144.414 148.414C143.633 149.195 142.367 149.195 141.586 148.414C140.805 147.633 140.805 146.367 141.586 145.586L167.908 119.261L182.319 131.905C183.149 132.634 183.232 133.897 182.503 134.728C181.775 135.558 180.511 135.64 179.681 134.912L168.087 124.739L144.414 148.414Z" fill="#4A4A4A" fill-opacity="0.5"/>
<defs>
<clipPath id="clip0">
<rect width="273" height="236" fill="white" transform="translate(12 11)"/>
</clipPath>
</defs>
</svg>
