<?xml version="1.0" encoding="UTF-8"?>
<svg width="128pt" height="128pt" version="1.1" viewBox="0 0 128 128" xmlns="http://www.w3.org/2000/svg">
 <g fill="#fff">
  <path d="m45.234 47.551h-21.492c-0.70703 0-1.2773 0.57422-1.2773 1.2812v21.492c0 0.33984 0.13281 0.66406 0.375 0.90234 0.23828 0.24219 0.56641 0.375 0.90234 0.375h21.492c0.33984 0 0.66406-0.13281 0.90625-0.375 0.23828-0.23828 0.375-0.5625 0.375-0.90234v-21.492c0-0.33984-0.13672-0.66406-0.375-0.90625-0.24219-0.23828-0.56641-0.375-0.90625-0.375zm-1.2812 21.492h-18.93v-18.93h18.934z"/>
  <path d="m45.234 77.133h-21.492c-0.70703 0-1.2773 0.57422-1.2773 1.2812v21.426c0 0.33984 0.13281 0.66406 0.375 0.90625 0.23828 0.23828 0.56641 0.375 0.90234 0.375h21.492c0.33984 0 0.66406-0.13672 0.90625-0.375 0.23828-0.24219 0.375-0.56641 0.375-0.90625v-21.426c0-0.33984-0.13672-0.66797-0.375-0.90625-0.24219-0.23828-0.56641-0.375-0.90625-0.375zm-1.2773 21.426h-18.934v-18.867h18.934z"/>
  <path d="m91.52 66.559c-0.74219 0-1.4727 0-2.1875 0.11328v-37.121 0.003907c0-4.2422-3.4375-7.6797-7.6797-7.6797h-2.7656v-2.6758c0-4.2422-3.4375-7.6797-7.6797-7.6797-4.2422 0-7.6797 3.4375-7.6797 7.6797v2.7266h-5.4297v-2.7266c0-4.2422-3.4375-7.6797-7.6797-7.6797-4.2422 0-7.6797 3.4375-7.6797 7.6797v2.7266h-5.4141v-2.7266c0-4.2422-3.4375-7.6797-7.6797-7.6797-4.2422 0-7.6797 3.4375-7.6797 7.6797v2.7266h-2.7656c-4.2422 0-7.6797 3.4375-7.6797 7.6797v70.402c0 4.2383 3.4375 7.6797 7.6797 7.6797h53.34c5.5156 6.4766 13.957 9.6914 22.387 8.5352 8.4297-1.1602 15.688-6.5352 19.254-14.262 3.5625-7.7266 2.9453-16.734-1.6406-23.902-4.5859-7.168-12.512-11.5-21.02-11.5zm-25.434-42.07v-5.2891c0-2.8281 2.293-5.1211 5.1211-5.1211s5.1211 2.293 5.1211 5.1211v8c0 2.8281-2.293 5.1211-5.1211 5.1211s-5.1211-2.293-5.1211-5.1211zm-20.789 0 0.003906-5.2891c0-2.8281 2.2891-5.1211 5.1172-5.1211s5.1211 2.293 5.1211 5.1211v8c0 2.8281-2.293 5.1211-5.1211 5.1211s-5.1172-2.293-5.1172-5.1211zm-20.773 0v-5.2891c0-2.8281 2.293-5.1211 5.1211-5.1211s5.1211 2.293 5.1211 5.1211v8c0 2.8281-2.293 5.1211-5.1211 5.1211s-5.1211-2.293-5.1211-5.1211zm-10.445 5.1211v-0.003906c0-2.8281 2.293-5.1172 5.1211-5.1172h2.7539v2.7148-0.003906c0 4.2422 3.4375 7.6797 7.6797 7.6797 4.2422 0 7.6797-3.4375 7.6797-7.6797v-2.7109h5.4141v2.7148-0.003906c0 4.2422 3.4375 7.6797 7.6797 7.6797s7.6797-3.4375 7.6797-7.6797v-2.7109h5.4258v2.7148-0.003906c0 4.2422 3.4414 7.6797 7.6836 7.6797 4.2383 0 7.6797-3.4375 7.6797-7.6797v-2.7109h2.7539-0.003906c1.3594 0 2.6602 0.53906 3.6211 1.4961 0.96094 0.96094 1.5 2.2656 1.5 3.6211v11.52h-72.668zm5.1211 75.52v-0.003906c-2.8281 0-5.1211-2.2891-5.1211-5.1172v-56.32h72.691v23.332c-2.9805 0.60547-5.8281 1.75-8.3945 3.3789v-21.488c0-0.33984-0.13672-0.66797-0.375-0.90625-0.24219-0.24219-0.56641-0.375-0.90625-0.375h-21.477c-0.70703 0-1.2812 0.57422-1.2812 1.2812v21.488c0 0.33984 0.13672 0.66797 0.375 0.90625 0.23828 0.24219 0.56641 0.375 0.90625 0.375h20.836c-2.0547 1.5586-3.8594 3.4219-5.3477 5.5312h-15.488c-0.70703 0-1.2812 0.57031-1.2812 1.2773v21.48c0 0.33984 0.13672 0.66406 0.375 0.90625 0.23828 0.23828 0.56641 0.37109 0.90625 0.37109h12.914c0.58594 1.3398 1.2812 2.625 2.0859 3.8438zm56.613-54.941v18.934h-18.918v-18.934zm-8.1914 48.5h-10.727v-18.93h12.621c-3.1211 5.8086-3.8008 12.617-1.8945 18.93zm23.898 15.234c-5.7695 0-11.316-2.2344-15.477-6.2344-0.42188-0.41016-0.83203-0.84375-1.2148-1.2812-0.38281-0.43359-0.73047-0.84375-1.0625-1.2812-0.92188-1.1953-1.7227-2.4805-2.3945-3.8398-0.20312-0.42188-0.41016-0.84375-0.58984-1.2812-0.17969-0.43359-0.32031-0.84375-0.47266-1.2812v0.003906c-0.78516-2.3203-1.1875-4.7539-1.1875-7.207 0-4.1562 1.168-8.2344 3.3672-11.762 0.28125-0.43359 0.5625-0.85937 0.85938-1.2812 0.29297-0.42187 0.62891-0.87109 0.97266-1.2812h-0.003906c3.1953-3.832 7.5781-6.4922 12.453-7.5508 0.41016-0.10156 0.84375-0.15234 1.2812-0.23047 0.43359-0.078124 0.84375-0.14062 1.2812-0.17969 0.72656-0.078125 1.457-0.11328 2.1875-0.11328 8.0039 0 15.398 4.2695 19.398 11.199 4.0039 6.9297 4.0039 15.469 0 22.398-4 6.9336-11.395 11.203-19.398 11.203z"/>
  <path d="m102.16 79.691-1.2812 1.2812-9.2812 8.7812-2.2539-2.4688-2.5625-2.7891-1.2812-1.4336-0.60156-0.65234 0.007813-0.003906c-0.21484-0.29297-0.54297-0.48047-0.90625-0.51562-0.35938-0.035156-0.71875 0.085937-0.98828 0.32812-0.26562 0.24609-0.41797 0.58984-0.41797 0.95312 0.003906 0.36328 0.16016 0.70703 0.42969 0.94922l3.8398 4.1602 1.2812 1.3945 1.2812 1.4062 1.2812 1.3555-0.003906 0.003906c0.23047 0.25391 0.55469 0.40625 0.89844 0.42188 0.32812 0.003907 0.64453-0.12109 0.88281-0.34375l11.52-10.906c0.51172-0.48828 0.53125-1.3008 0.042969-1.8125-0.48438-0.51172-1.2969-0.53125-1.8086-0.042969z"/>
 </g>
</svg>
