<svg xmlns="http://www.w3.org/2000/svg" viewBox="0 0 337.32 166.71"><defs><style>.cls-1{fill:#ffc800;}.cls-2{fill:#eb5a0a;}.cls-3{fill:#004b9b;}.cls-4{fill:#3c3c3c;}</style></defs><g id="Layer_2" data-name="Layer 2"><g id="Logo"><polygon class="cls-1" points="182.57 11.19 185.85 8.81 189.13 11.19 187.88 7.33 191.17 4.94 187.11 4.94 185.85 1.09 184.6 4.94 180.55 4.94 183.83 7.33 182.57 11.19"/><polygon class="cls-1" points="165.56 10.11 168.84 7.72 172.12 10.11 170.87 6.24 174.16 3.85 170.1 3.85 168.84 0 167.59 3.85 163.54 3.85 166.82 6.24 165.56 10.11"/><polygon class="cls-1" points="148.95 13.85 152.23 11.47 155.51 13.85 154.25 9.98 157.54 7.6 153.48 7.6 152.23 3.75 150.97 7.6 146.93 7.6 150.2 9.98 148.95 13.85"/><polygon class="cls-1" points="134.09 22.11 137.36 19.73 140.64 22.11 139.39 18.25 142.68 15.86 138.62 15.86 137.36 12.01 136.11 15.86 132.06 15.86 135.34 18.25 134.09 22.11"/><polygon class="cls-1" points="122.12 34.24 125.4 31.86 128.68 34.24 127.42 30.38 130.72 27.99 126.65 27.99 125.4 24.14 124.14 27.99 120.1 27.99 123.37 30.38 122.12 34.24"/><polygon class="cls-1" points="114.07 49.25 117.35 46.86 120.62 49.25 119.37 45.38 122.66 42.99 118.6 42.99 117.35 39.14 116.09 42.99 112.04 42.99 115.32 45.38 114.07 49.25"/><polygon class="cls-1" points="230.99 83.99 229.74 80.14 228.48 83.99 224.43 83.99 227.71 86.38 226.46 90.24 229.74 87.86 233.01 90.24 231.76 86.38 235.05 83.99 230.99 83.99"/><polygon class="cls-1" points="238.56 67.33 234.49 67.33 233.24 63.48 231.99 67.33 227.94 67.33 231.22 69.72 229.96 73.58 233.24 71.19 236.52 73.58 235.27 69.72 238.56 67.33"/><polygon class="cls-1" points="226.61 50.35 229.89 52.73 228.63 56.6 231.91 54.22 235.19 56.6 233.94 52.73 237.23 50.35 233.17 50.35 231.91 46.5 230.66 50.35 226.61 50.35"/><polygon class="cls-1" points="223.81 36.83 222.56 40.7 225.84 38.31 229.12 40.7 227.86 36.83 231.16 34.44 227.09 34.44 225.84 30.59 224.58 34.44 220.54 34.44 223.81 36.83"/><polygon class="cls-1" points="212.27 27.14 215.55 24.76 218.83 27.14 217.58 23.28 220.87 20.89 216.81 20.89 215.55 17.04 214.3 20.89 210.25 20.89 213.53 23.28 212.27 27.14"/><polygon class="cls-1" points="198.56 17.04 201.84 14.65 205.11 17.04 203.86 13.17 207.15 10.79 203.09 10.79 201.84 6.93 200.58 10.79 196.53 10.79 199.81 13.17 198.56 17.04"/><path class="cls-2" d="M214,63c-.36-3-.84-5.76-1-6.79-1.09-13.3-14.11-23.8-31.36-23.8-7.17,0-15.09,2.56-22.64,6.4a7.29,7.29,0,0,0-1.08-1.14A7.09,7.09,0,0,0,154,36c-4.31-.44-8.21,3.25-8.72,8.24a10.62,10.62,0,0,0-.06,1.38,8.66,8.66,0,0,0,.07.89c0,.28.08.57.13.84a87.55,87.55,0,0,0-12.1,10.8l-.51.56c-.17.19-.33.38-.5.56a39.74,39.74,0,0,0-4.1,5.55l-.39.68c-.12.24-.25.47-.36.7a9.43,9.43,0,0,0-1.14,4,1.34,1.34,0,0,0,0,.2,3.87,3.87,0,0,0,.32,1.39,6.57,6.57,0,0,0,2.89,2.89,15.49,15.49,0,0,0,2.08,1,38.87,38.87,0,0,0,7.31,2l1.3.23,1.27.2c3.32.51,7,.86,10.75,1.11l1.14.07,1.14.06,2.5.13a7.83,7.83,0,0,1-3.42-6.64c0-3.88,2.57-7.8,7.49-7.8h36.25c3.93,0,8.32,1.64,12.14,4.24a17.59,17.59,0,0,0,1.81-3c.08,1,.12,2,.12,2.87,0,.54,0,1-.06,1.5,0,.26,0,.51-.09.74a7.9,7.9,0,0,1-.21,1h0c-.71,2.67-2.47,4.78-4.32,7-2,2.42-4.1,4.92-4.82,8.23a13.8,13.8,0,0,0,2.59,11.49,1.49,1.49,0,0,0,1.14.52,1.46,1.46,0,0,0,1-.37,1.51,1.51,0,0,0,.17-2.12,10.74,10.74,0,0,1-1.93-8.87c.56-2.59,2.32-4.71,4.19-7a25.19,25.19,0,0,0,4.4-6.6h0A13.85,13.85,0,0,0,214,73c.1-.39.19-.79.26-1.21A37.55,37.55,0,0,0,214,63ZM144.4,64.3a4.18,4.18,0,1,1,4.18-4.17A4.18,4.18,0,0,1,144.4,64.3Z"/><path class="cls-3" d="M131.2,58.16l-1.28-1.28a6,6,0,0,0-8.55,0c-.18.19-.35.39-.51.59l6.2,6.2A41.47,41.47,0,0,1,131.2,58.16Z"/><path class="cls-3" d="M130.34,80h10.85l-.44-.45A56.19,56.19,0,0,1,134,78.06c-.54-.16-1.06-.32-1.55-.49s-1.18-.43-1.72-.65l-.09,0c-3.47-1.49-5.42-3.46-5.8-5.85a5.26,5.26,0,0,1-.08-.89,1.94,1.94,0,0,1,0-.24,8.14,8.14,0,0,1,.09-1,13.67,13.67,0,0,1,1.42-3.9l-9.66-9.66a6,6,0,0,0-10.17,3,7.42,7.42,0,0,1,3.67,2Z"/><path class="cls-3" d="M214.5,76a29.07,29.07,0,0,1-4.32,6.27c-1.82,2.18-3.39,4.07-3.87,6.3a9.36,9.36,0,0,0,1.58,7.55,3,3,0,1,1-4.56,4,15.4,15.4,0,0,1-2.93-12.8c.8-3.67,3.11-6.44,5.14-8.88,1.9-2.28,3.69-4.44,4.17-7.09l-.59-.44-.63-.43a20.9,20.9,0,0,0-11.18-3.91H161.06c-7.93,0-8,12.53,0,12.53H182.2a1.35,1.35,0,0,1,1.27.68,1.09,1.09,0,0,1,.12.75,1.14,1.14,0,0,1-.56.77,1.68,1.68,0,0,1-.82.2l-52.48,0-20.66-20a6,6,0,0,0-2.75-1.57,7.43,7.43,0,0,0-1.52-.2h0A6,6,0,0,0,100.53,70l24.9,24.9c.13.13.27.25.41.37a6,6,0,0,0,4.4,1.91h46.43c3.08,0,6.73,1,8.39,4.88s9.46,20.48,9.46,20.48c20.21-6,30.93-23.94,30.93-23.94S219.74,86,216.57,79.31A18.48,18.48,0,0,0,214.5,76Z"/><path class="cls-4" d="M0,166.24V132H5.6v34.26Z"/><path class="cls-4" d="M40.79,166.24H33.93l-16.85-27.3h-.19l.12,1.52c.21,2.91.32,5.56.32,8v17.81H12.25V132H19l16.81,27.16H36c0-.36-.09-1.67-.19-3.93s-.14-4-.14-5.28V132h5.13Z"/><path class="cls-4" d="M53,166.24H47.44V132H66.78v4.73H53v10.71H65.91v4.76H53Z"/><path class="cls-4" d="M76.19,152.55v13.69h-5.6V132h9.68q6.63,0,9.82,2.48c2.12,1.66,3.19,4.16,3.19,7.5q0,6.4-6.66,9.12l9.68,15.16H89.92l-8.2-13.69Zm0-4.64h3.89q3.92,0,5.67-1.45a5.28,5.28,0,0,0,1.76-4.31,4.62,4.62,0,0,0-1.9-4.17,10.34,10.34,0,0,0-5.72-1.27h-3.7Z"/><path class="cls-4" d="M120.13,166.24l-3.42-9.51H103.6l-3.35,9.51h-5.9l12.82-34.4h6.09l12.82,34.4Zm-4.9-14.34L112,142.57c-.24-.62-.56-1.61-1-2.95s-.69-2.33-.85-3a52.18,52.18,0,0,1-1.85,6.31l-3.1,8.93Z"/><path class="cls-4" d="M133.76,166.24H128.2V132h19.34v4.73H133.76v10.71h12.91v4.76H133.76Z"/><path class="cls-4" d="M157,152.55v13.69h-5.6V132H161q6.63,0,9.82,2.48c2.12,1.66,3.19,4.16,3.19,7.5q0,6.4-6.66,9.12l9.68,15.16h-6.37l-8.21-13.69Zm0-4.64h3.89q3.91,0,5.67-1.45a5.25,5.25,0,0,0,1.76-4.31,4.62,4.62,0,0,0-1.9-4.17,10.34,10.34,0,0,0-5.72-1.27H157Z"/><path class="cls-4" d="M210.05,149.06q0,8.37-4.18,13T194,166.71q-7.76,0-11.92-4.6T177.94,149q0-8.49,4.18-13t11.95-4.54q7.63,0,11.81,4.61T210.05,149.06Zm-26.16,0q0,6.33,2.56,9.6c1.7,2.18,4.23,3.27,7.57,3.27s5.84-1.08,7.53-3.23,2.55-5.37,2.55-9.64-.84-7.39-2.52-9.56-4.19-3.26-7.51-3.26-5.9,1.09-7.61,3.26S183.89,144.86,183.89,149.06Z"/><path class="cls-4" d="M243.56,166.24h-6.87l-16.85-27.3h-.19l.12,1.52c.22,2.91.33,5.56.33,8v17.81H215V132h6.8l16.8,27.16h.14c0-.36-.09-1.67-.19-3.93s-.14-4-.14-5.28V132h5.14Z"/><path class="cls-4" d="M262,166.24h-5.6V136.78H246.36V132h25.76v4.8H262Z"/><path class="cls-4" d="M275,166.24V132h5.6v34.26Z"/><path class="cls-4" d="M306.6,166.24H287.22V132H306.6v4.73H292.82V146h12.91v4.69H292.82v10.75H306.6Z"/><path class="cls-4" d="M317.21,152.55v13.69h-5.6V132h9.68q6.63,0,9.82,2.48t3.18,7.5q0,6.4-6.65,9.12l9.68,15.16h-6.38l-8.2-13.69Zm0-4.64h3.89q3.91,0,5.67-1.45a5.28,5.28,0,0,0,1.76-4.31,4.64,4.64,0,0,0-1.9-4.17,10.36,10.36,0,0,0-5.72-1.27h-3.7Z"/></g></g></svg>