<svg width="59" height="58" viewBox="0 0 59 58" fill="none" xmlns="http://www.w3.org/2000/svg">
<path d="M41.4692 4.01166L37.3488 9.6771L41.4692 11.9866L45.1909 6.13822L41.4692 4.01166ZM35.388 10.9898L25.4522 25.8929L30.7854 29.6146L33.5601 25.461C33.2402 25.2138 32.9495 24.9314 32.6961 24.6136C31.6182 23.2574 31.3108 21.2471 32.2475 19.3301C33.4272 17.5067 34.6836 16.7424 36.2682 16.4724C37.3087 16.352 38.3534 16.5015 39.2423 16.9044L41.0699 14.1796L35.388 10.9898ZM37.0163 17.4862C35.6206 17.4738 34.1232 18.1217 33.2115 19.8123C31.6436 23.0188 34.2458 25.6771 37.3818 25.6771C39.9945 28.3479 41.5687 30.4932 41.5687 34.2337C41.5687 40.1113 36.8668 45.4487 31.1183 45.4487C27.9823 45.4487 24.9897 44.4186 24.323 42.2587H16.4809C18.6076 47.0769 23.7914 49.735 29.5397 49.735C34.2438 49.735 37.9156 49.7246 40.0072 48.6551C45.2346 45.4485 47.3176 40.1112 47.3176 34.2336C47.3176 29.4237 45.11 24.2356 40.406 19.9616C40.4329 18.6033 38.811 17.5005 37.0166 17.486L37.0163 17.4862ZM36.684 19.4301C37.8594 19.4301 38.8106 20.3813 38.8106 21.5568C38.8106 22.7322 37.8594 23.6834 36.684 23.6834C35.5085 23.6834 34.5573 22.7322 34.5573 21.5568C34.5573 20.3813 35.5085 19.4301 36.684 19.4301ZM24.2727 27.6709L22.3289 30.5951L27.6455 34.3168L29.5894 31.3926L24.2727 27.6709ZM14.354 39.0688C13.2906 39.0688 12.2273 39.6005 12.2273 40.697C12.2273 41.7271 13.2906 42.2588 14.354 42.2588H15.4007C15.4007 41.696 15.9178 41.1872 16.4806 41.1955H24.3227C25.222 41.2245 25.4587 41.7541 25.4691 42.2588H27.114C28.1773 42.2588 29.2406 41.7251 29.2406 40.6472C29.2406 39.5984 28.1773 39.0688 27.114 39.0688H14.354ZM21.7643 49.054C20.0842 50.1838 17.5442 51.9741 17.5442 52.9917V53.9885H45.1909V52.9584C45.1909 51.9989 42.7485 50.5286 41.0705 49.2202C37.6001 51.243 32.6117 50.7986 29.5397 50.7986C26.7609 50.7986 24.0837 50.2005 21.7641 49.0541L21.7643 49.054Z" fill="#F3F3F3"/>
</svg>
