<svg xmlns="http://www.w3.org/2000/svg" viewBox="0 0 211.58 751.97"><defs><style>.cls-1{isolation:isolate;}.cls-2{mix-blend-mode:soft-light;}.cls-3{fill:none;stroke:#fff;stroke-miterlimit:10;stroke-width:0.75px;}.cls-4{fill:#fff;}</style></defs><g class="cls-1"><g id="Layer_2" data-name="Layer 2"><g id="Layer_1-2" data-name="Layer 1"><g class="cls-2"><line class="cls-3" x1="67.14" y1="680.19" x2="67.14" y2="0.38"/><circle class="cls-4" cx="67.14" cy="680.08" r="2.26"/><line class="cls-3" x1="96.58" y1="717.22" x2="96.58" y2="0.38"/><circle class="cls-4" cx="96.58" cy="717.11" r="2.26"/><line class="cls-3" x1="144.77" y1="715.44" x2="144.77" y2="0.38"/><path class="cls-4" d="M147,715.32a2.26,2.26,0,1,1-2.25-2.25A2.26,2.26,0,0,1,147,715.32Z"/><path class="cls-3" d="M28.33,702.06C28.57,659.64,32.21.38,28.32.38"/><path class="cls-4" d="M30.59,702a2.26,2.26,0,1,1-2.25-2.27A2.27,2.27,0,0,1,30.59,702Z"/><line class="cls-3" x1="51.07" y1="681.97" x2="51.07" y2="0.38"/><circle class="cls-4" cx="51.07" cy="681.86" r="2.26"/><path class="cls-3" d="M77.63,730.61C76,714,75.16,700,74.72,689.92V.38"/><path class="cls-4" d="M79.9,730.31a2.26,2.26,0,1,1-2.44-2.06A2.25,2.25,0,0,1,79.9,730.31Z"/><path class="cls-3" d="M38.83,689.12c-.41-4.64-.6-8.51-.69-11.25V.38"/><path class="cls-4" d="M41.13,688.86a2.26,2.26,0,1,1-2.4-2.11A2.26,2.26,0,0,1,41.13,688.86Z"/><path class="cls-3" d="M105.61,740.45a133.49,133.49,0,0,1-1.44-26V.38"/><path class="cls-4" d="M107.88,740a2.26,2.26,0,1,1-2.55-1.92A2.26,2.26,0,0,1,107.88,740Z"/><line class="cls-3" x1="179.57" y1="690.45" x2="179.57" y2="0.38"/><circle class="cls-4" cx="179.57" cy="690.34" r="2.26"/><path class="cls-3" d="M186.66,724.8c-.43-16.9-.92-30.92-1.29-40.68V.38"/><path class="cls-4" d="M188.89,724.62a2.26,2.26,0,1,1-2.32-2.18A2.26,2.26,0,0,1,188.89,724.62Z"/><path class="cls-3" d="M87.36,737.3a484.33,484.33,0,0,0,.3-60.32S89,1.71,87.66.38"/><path class="cls-4" d="M89.58,737.31a2.25,2.25,0,1,1-2.13-2.37A2.24,2.24,0,0,1,89.58,737.31Z"/><path class="cls-3" d="M82,702.05a107.76,107.76,0,0,0-1.43-21.5V.38"/><path class="cls-4" d="M84.16,702a2.26,2.26,0,1,1-2.21-2.3A2.26,2.26,0,0,1,84.16,702Z"/><path class="cls-3" d="M149.51,721.69A132.46,132.46,0,0,1,151,690.81V.38"/><path class="cls-4" d="M151.82,721.47a2.25,2.25,0,1,1-2.36-2.15A2.26,2.26,0,0,1,151.82,721.47Z"/><line class="cls-3" x1="192.95" y1="731.05" x2="192.95" y2="0.38"/><path class="cls-4" d="M195.21,730.94a2.26,2.26,0,1,1-2.26-2.26A2.26,2.26,0,0,1,195.21,730.94Z"/><path class="cls-3" d="M110.15,703a232.09,232.09,0,0,1-1.52-31.43V.38"/><path class="cls-4" d="M112.42,702.61a2.25,2.25,0,1,1-2.48-2A2.26,2.26,0,0,1,112.42,702.61Z"/><line class="cls-3" x1="60.44" y1="674.84" x2="60.44" y2="0.38"/><circle class="cls-4" cx="60.44" cy="674.72" r="2.26"/><line class="cls-3" x1="92.12" y1="728.82" x2="92.12" y2="0.38"/><circle class="cls-4" cx="92.12" cy="728.71" r="2.26"/><path class="cls-3" d="M18.07,738.19A442.67,442.67,0,0,1,21.18,689V.38"/><path class="cls-4" d="M20.36,738.13a2.26,2.26,0,1,1-2.21-2.31A2.25,2.25,0,0,1,20.36,738.13Z"/><line class="cls-3" x1="25.2" y1="687.77" x2="25.2" y2="0.38"/><path class="cls-4" d="M27.45,687.66a2.26,2.26,0,1,1-2.25-2.25A2.26,2.26,0,0,1,27.45,687.66Z"/><path class="cls-3" d="M42,746.68a489.15,489.15,0,0,0,3.31-62.56V.38"/><path class="cls-4" d="M44.19,746.81a2.26,2.26,0,1,1-2-2.48A2.25,2.25,0,0,1,44.19,746.81Z"/><path class="cls-3" d="M169.67,709.2c-1.34-46.79-1.23-695.94-.81-708.82"/><circle class="cls-4" cx="169.72" cy="709.08" r="2.26" transform="translate(-225.05 96.09) rotate(-19.32)"/><path class="cls-3" d="M198,707a228.52,228.52,0,0,1-1.93-23.31V.38"/><path class="cls-4" d="M200.3,706.61a2.25,2.25,0,1,1-2.49-2A2.25,2.25,0,0,1,200.3,706.61Z"/><line class="cls-3" x1="89.44" y1="670.13" x2="89.44" y2="0.38"/><circle class="cls-4" cx="89.44" cy="670.02" r="2.26"/><line class="cls-3" x1="70.23" y1="696.58" x2="70.23" y2="0.38"/><circle class="cls-4" cx="70.23" cy="696.47" r="2.26"/><line class="cls-3" x1="56.39" y1="684.58" x2="56.39" y2="0.38"/><circle class="cls-4" cx="56.39" cy="684.47" r="2.26"/><line class="cls-3" x1="100.09" y1="667.65" x2="100.09" y2="0.38"/><circle class="cls-4" cx="100.09" cy="667.54" r="2.26"/><line class="cls-3" x1="117.32" y1="682.43" x2="117.32" y2="0.38"/><circle class="cls-4" cx="117.32" cy="682.31" r="2.26"/><line class="cls-3" x1="199.8" y1="669.38" x2="199.8" y2="0.38"/><circle class="cls-4" cx="199.8" cy="669.27" r="2.26"/><path class="cls-3" d="M39,736.63a182.73,182.73,0,0,0,3.26-44.37V.38"/><path class="cls-4" d="M41.17,736.94a2.25,2.25,0,1,1-1.79-2.64A2.24,2.24,0,0,1,41.17,736.94Z"/><path class="cls-3" d="M2.16,748.64a62.54,62.54,0,0,0,10.22-7.75C31.2,723,34.29,696,33.92,676V.38"/><path class="cls-4" d="M3.5,750.45a2.25,2.25,0,1,1,.64-3.12A2.26,2.26,0,0,1,3.5,750.45Z"/><line class="cls-3" x1="182.57" y1="670.73" x2="182.57" y2="0.38"/><path class="cls-4" d="M184.82,670.62a2.26,2.26,0,1,1-2.25-2.26A2.25,2.25,0,0,1,184.82,670.62Z"/><line class="cls-3" x1="102.86" y1="695.97" x2="102.86" y2="0.38"/><circle class="cls-4" cx="102.86" cy="695.85" r="2.26"/><path class="cls-3" d="M74.7,749.83c2.14-29.79,2.91-57,2.92-81V.38"/><path class="cls-4" d="M76.94,749.86a2.25,2.25,0,1,1-2.11-2.39A2.26,2.26,0,0,1,76.94,749.86Z"/><line class="cls-3" x1="140.71" y1="714.12" x2="140.71" y2="0.38"/><circle class="cls-4" cx="140.71" cy="714.01" r="2.26"/><path class="cls-3" d="M84.44,718.16c1.42-8.59,2.06-15.89,1.49-21-.31-2.77,0-696.81,0-696.81"/><path class="cls-4" d="M86.66,718.39a2.25,2.25,0,1,1-1.88-2.58A2.26,2.26,0,0,1,86.66,718.39Z"/><line class="cls-3" x1="148.41" y1="679.04" x2="148.41" y2="0.38"/><circle class="cls-4" cx="148.41" cy="678.93" r="2.26"/><line class="cls-3" x1="113.32" y1="690.12" x2="113.32" y2="0.38"/><path class="cls-4" d="M115.58,690a2.26,2.26,0,1,1-2.26-2.26A2.26,2.26,0,0,1,115.58,690Z"/><line class="cls-3" x1="207.5" y1="670.73" x2="207.5" y2="0.38"/><path class="cls-4" d="M209.75,670.62a2.26,2.26,0,1,1-2.25-2.26A2.25,2.25,0,0,1,209.75,670.62Z"/><path class="cls-3" d="M209.42,735.53c-9.75-22.44-15.6-29.24-20.39-46-3-10.42-5.9-668.62-4.31-689.11"/><path class="cls-4" d="M211.38,734.51a2.26,2.26,0,1,1-3-1.11A2.25,2.25,0,0,1,211.38,734.51Z"/><line class="cls-3" x1="157.02" y1="687.96" x2="157.02" y2="0.38"/><circle class="cls-4" cx="157.02" cy="687.85" r="2.26"/><path class="cls-3" d="M176.17,731.67c.46-15.78.87-38,.55-64.95V.38"/><path class="cls-4" d="M178.41,731.6a2.26,2.26,0,1,1-2.21-2.3A2.26,2.26,0,0,1,178.41,731.6Z"/><path class="cls-3" d="M135.58,737.27c-3.36-13.93-4.07-27.28-4.72-39.47-.83-15.74-.35-687.91.31-697.42"/><path class="cls-4" d="M137.77,736.64a2.25,2.25,0,1,1-2.71-1.68A2.25,2.25,0,0,1,137.77,736.64Z"/><path class="cls-3" d="M30.78,730.43c-.69-26-.07-47.67.68-63.1V.38"/><path class="cls-4" d="M33.06,730.28a2.26,2.26,0,1,1-2.3-2.21A2.26,2.26,0,0,1,33.06,730.28Z"/><path class="cls-3" d="M167.19,737a345.45,345.45,0,0,0,6-68.69V.38"/><path class="cls-4" d="M169.41,737.28a2.26,2.26,0,1,1-1.82-2.62A2.26,2.26,0,0,1,169.41,737.28Z"/><path class="cls-3" d="M111.45,747.93A270.55,270.55,0,0,0,121.24,701c1.92-16.74,1.91-690.41,1.49-700.6"/><path class="cls-4" d="M113.63,748.43a2.26,2.26,0,1,1-1.56-2.78A2.26,2.26,0,0,1,113.63,748.43Z"/><path class="cls-3" d="M126.87,743.4c2.93-41.46,5.89-453.92,5.26-499.36V.38"/><path class="cls-4" d="M129.07,743.42A2.25,2.25,0,1,1,127,741,2.24,2.24,0,0,1,129.07,743.42Z"/><line class="cls-3" x1="63.32" y1="669.38" x2="63.32" y2="0.38"/><circle class="cls-4" cx="63.32" cy="669.27" r="2.26"/><path class="cls-3" d="M20.67,739.93C19.36,687.26,20,21.14,21.18.38"/><path class="cls-4" d="M23,739.79a2.26,2.26,0,1,1-2.28-2.23A2.26,2.26,0,0,1,23,739.79Z"/><path class="cls-3" d="M189.5,706.26c-1.09-49.37-.68-688.57.06-705.88"/><path class="cls-4" d="M191.8,706.12a2.26,2.26,0,1,1-2.28-2.23A2.26,2.26,0,0,1,191.8,706.12Z"/><path class="cls-3" d="M123.08,703.4c-1.67-47.62-2.42-689.54-2.79-703"/><path class="cls-4" d="M125.38,703.22a2.26,2.26,0,1,1-2.32-2.2A2.25,2.25,0,0,1,125.38,703.22Z"/><line class="cls-3" x1="168.64" y1="681.35" x2="168.64" y2="0.38"/><path class="cls-4" d="M170.89,681.24a2.26,2.26,0,1,1-2.25-2.26A2.25,2.25,0,0,1,170.89,681.24Z"/><path class="cls-3" d="M53.75,690.07c1.15-45.68,1-676.46.51-689.69"/><path class="cls-4" d="M56,690a2.26,2.26,0,1,1-2.23-2.28A2.26,2.26,0,0,1,56,690Z"/><path class="cls-3" d="M96.86,719.78C101.16,670.83,100,14.93,98.3.38"/><path class="cls-4" d="M99.07,719.88a2.26,2.26,0,1,1-2-2.46A2.25,2.25,0,0,1,99.07,719.88Z"/><path class="cls-3" d="M167.79,747.51c-.32-15.19-1.34-21.72-2.44-39.66C164.34,691.38,163.4,30,164.11.38"/><path class="cls-4" d="M170,747.33a2.26,2.26,0,1,1-2.33-2.19A2.26,2.26,0,0,1,170,747.33Z"/><path class="cls-3" d="M34.9,730.57C42,676,43,24.85,42,.38"/><path class="cls-4" d="M37.09,730.74a2.25,2.25,0,1,1-1.94-2.53A2.25,2.25,0,0,1,37.09,730.74Z"/><path class="cls-3" d="M85.42,727.23C84.66,682,83.87,29.58,83.82.38"/><path class="cls-4" d="M87.72,727.11a2.26,2.26,0,1,1-2.27-2.25A2.26,2.26,0,0,1,87.72,727.11Z"/><path class="cls-3" d="M209.06,725.58a182.86,182.86,0,0,1,.16-27.66V.38"/><path class="cls-4" d="M211.34,725.34a2.25,2.25,0,1,1-2.38-2.13A2.26,2.26,0,0,1,211.34,725.34Z"/><path class="cls-3" d="M108.48,725.32a255.83,255.83,0,0,0,2.84-55.6V.38"/><path class="cls-4" d="M110.7,725.55a2.26,2.26,0,1,1-1.88-2.57A2.26,2.26,0,0,1,110.7,725.55Z"/><path class="cls-3" d="M106.64,709.72c-1.22-47.4-1.2-697.56-1-709.34"/><path class="cls-4" d="M108.94,709.57a2.26,2.26,0,1,1-2.28-2.23A2.26,2.26,0,0,1,108.94,709.57Z"/><path class="cls-3" d="M65.7,714C66.61,667.73,67,33.17,65.28.38"/><path class="cls-4" d="M67.9,713.86a2.26,2.26,0,0,1-4.51,0,2.26,2.26,0,1,1,4.51,0Z"/><path class="cls-3" d="M36.26,698c0-4.38,0-13.64,0-23.36C36.18,660.18,36,8.34,35.89.38"/><circle class="cls-4" cx="36.24" cy="697.91" r="2.26"/><path class="cls-3" d="M125.12,666.52c-.1-41.73-.05-662.23,0-666.14"/><circle class="cls-4" cx="125.13" cy="666.4" r="2.26"/></g></g></g></g></svg>