<svg xmlns="http://www.w3.org/2000/svg" viewBox="0 0 102.3 397.63"><defs><style>.cls-1{opacity:0.2;}.cls-2{fill:none;stroke:#fff;stroke-miterlimit:10;stroke-width:0.19px;}.cls-3{fill:#fff;}</style></defs><g id="Layer_2" data-name="Layer 2"><g id="Layer_1-2" data-name="Layer 1"><g class="cls-1"><line class="cls-2" x1="39.69" y1="175.95" x2="39.69" y2="195.57"/><circle class="cls-3" cx="39.69" cy="175.98" r="0.56"/></g><g class="cls-1"><line class="cls-2" x1="47.05" y1="166.69" x2="47.05" y2="195.57"/><circle class="cls-3" cx="47.05" cy="166.72" r="0.56"/></g><g class="cls-1"><line class="cls-2" x1="59.1" y1="167.14" x2="59.1" y2="195.57"/><circle class="cls-3" cx="59.1" cy="167.17" r="0.56"/></g><g class="cls-1"><line class="cls-2" x1="74.16" y1="156.88" x2="74.16" y2="195.57"/><circle class="cls-3" cx="74.16" cy="156.91" r="0.56"/></g><g class="cls-1"><path class="cls-2" d="M30,170.48c.14,3.67.9,25.09,0,25.09"/><circle class="cls-3" cx="30.01" cy="170.51" r="0.56"/></g><g class="cls-1"><path class="cls-2" d="M63,155.2c.31,8.81.15,34,.4,40.37"/><path class="cls-3" d="M62.45,155.24a.56.56,0,0,1,.56-.57.56.56,0,0,1,.57.56.57.57,0,0,1-.56.57A.57.57,0,0,1,62.45,155.24Z"/></g><g class="cls-1"><line class="cls-2" x1="35.68" y1="175.5" x2="35.68" y2="195.57"/><circle class="cls-3" cx="35.68" cy="175.53" r="0.56"/></g><g class="cls-1"><line class="cls-2" x1="41.59" y1="174.05" x2="41.59" y2="195.57"/><path class="cls-3" d="M41,174.08a.56.56,0,1,1,1.12,0,.56.56,0,1,1-1.12,0Z"/></g><g class="cls-1"><line class="cls-2" x1="32.44" y1="177.07" x2="32.44" y2="195.57"/><path class="cls-3" d="M31.88,177.09a.56.56,0,0,1,.56-.56.57.57,0,1,1,0,1.13A.56.56,0,0,1,31.88,177.09Z"/></g><g class="cls-1"><line class="cls-2" x1="48.95" y1="167.92" x2="48.95" y2="195.57"/><path class="cls-3" d="M48.39,168a.56.56,0,1,1,1.12,0,.56.56,0,0,1-1.12,0Z"/></g><g class="cls-1"><line class="cls-2" x1="67.8" y1="173.39" x2="67.8" y2="195.57"/><circle class="cls-3" cx="67.8" cy="173.41" r="0.56"/></g><g class="cls-1"><line class="cls-2" x1="69.25" y1="175.5" x2="69.25" y2="195.57"/><circle class="cls-3" cx="69.25" cy="175.53" r="0.56"/></g><g class="cls-1"><path class="cls-2" d="M44.83,177.29c.05,3,.29,18,0,18.28"/><path class="cls-3" d="M44.27,177.32a.56.56,0,0,1,.55-.57.58.58,0,0,1,.58.56.57.57,0,0,1-.56.57A.56.56,0,0,1,44.27,177.32Z"/></g><g class="cls-1"><line class="cls-2" x1="43.04" y1="176.4" x2="43.04" y2="195.57"/><circle class="cls-3" cx="43.04" cy="176.43" r="0.56"/></g><g class="cls-1"><line class="cls-2" x1="60.66" y1="173.83" x2="60.66" y2="195.57"/><path class="cls-3" d="M60.1,173.86a.56.56,0,0,1,.56-.56.56.56,0,1,1,0,1.12A.56.56,0,0,1,60.1,173.86Z"/></g><g class="cls-1"><line class="cls-2" x1="71.15" y1="163.24" x2="71.15" y2="195.57"/><path class="cls-3" d="M70.58,163.26a.57.57,0,0,1,.57-.56.56.56,0,0,1,.56.56.57.57,0,0,1-.56.57A.58.58,0,0,1,70.58,163.26Z"/></g><g class="cls-1"><path class="cls-2" d="M75.66,152.05c-4.5,13.82-5.38,39.73-5.63,43.52"/><path class="cls-3" d="M75.14,151.94a.56.56,0,1,1,.39.69A.55.55,0,0,1,75.14,151.94Z"/></g><g class="cls-1"><line class="cls-2" x1="50.07" y1="178.65" x2="50.07" y2="195.57"/><circle class="cls-3" cx="50.07" cy="178.68" r="0.56"/></g><g class="cls-1"><line class="cls-2" x1="38.02" y1="177.29" x2="38.02" y2="195.57"/><path class="cls-3" d="M37.46,177.32a.56.56,0,1,1,1.12,0,.56.56,0,1,1-1.12,0Z"/></g><g class="cls-1"><line class="cls-2" x1="45.94" y1="163.79" x2="45.94" y2="195.57"/><circle class="cls-3" cx="45.94" cy="163.82" r="0.56"/></g><g class="cls-1"><line class="cls-2" x1="28.2" y1="174.28" x2="28.2" y2="195.57"/><circle class="cls-3" cx="28.2" cy="174.31" r="0.56"/></g><g class="cls-1"><line class="cls-2" x1="29.21" y1="174.05" x2="29.21" y2="195.57"/><circle class="cls-3" cx="29.21" cy="174.08" r="0.56"/></g><g class="cls-1"><line class="cls-2" x1="34.23" y1="175.5" x2="34.23" y2="195.57"/><circle class="cls-3" cx="34.23" cy="175.53" r="0.56"/></g><g class="cls-1"><path class="cls-2" d="M65.32,168.7c-.33,6-.3,23.68-.2,26.87"/><path class="cls-3" d="M64.77,168.72a.58.58,0,0,1,.58-.56.57.57,0,0,1,.55.58.57.57,0,0,1-1.13,0Z"/></g><g class="cls-1"><line class="cls-2" x1="71.93" y1="175.62" x2="71.93" y2="195.57"/><circle class="cls-3" cx="71.93" cy="175.64" r="0.56"/></g><g class="cls-1"><line class="cls-2" x1="45.27" y1="178.47" x2="45.27" y2="195.57"/><path class="cls-3" d="M44.71,178.49a.56.56,0,1,1,.56.57A.56.56,0,0,1,44.71,178.49Z"/></g><g class="cls-1"><line class="cls-2" x1="40.47" y1="171.85" x2="40.47" y2="195.57"/><circle class="cls-3" cx="40.47" cy="171.88" r="0.56"/></g><g class="cls-1"><line class="cls-2" x1="37.01" y1="174.85" x2="37.01" y2="195.57"/><circle class="cls-3" cx="37.01" cy="174.88" r="0.56"/></g><g class="cls-1"><line class="cls-2" x1="47.93" y1="179.09" x2="47.93" y2="195.57"/><circle class="cls-3" cx="47.93" cy="179.11" r="0.56"/></g><g class="cls-1"><line class="cls-2" x1="52.24" y1="175.39" x2="52.24" y2="195.57"/><circle class="cls-3" cx="52.24" cy="175.42" r="0.56"/></g><g class="cls-1"><line class="cls-2" x1="72.86" y1="178.65" x2="72.86" y2="195.57"/><circle class="cls-3" cx="72.86" cy="178.68" r="0.56"/></g><g class="cls-1"><line class="cls-2" x1="33.47" y1="173.47" x2="33.47" y2="195.57"/><circle class="cls-3" cx="33.47" cy="173.5" r="0.56"/></g><g class="cls-1"><line class="cls-2" x1="31.39" y1="177.55" x2="31.39" y2="195.57"/><circle class="cls-3" cx="31.39" cy="177.57" r="0.56"/></g><g class="cls-1"><line class="cls-2" x1="68.55" y1="178.32" x2="68.55" y2="195.57"/><circle class="cls-3" cx="68.55" cy="178.34" r="0.56"/></g><g class="cls-1"><line class="cls-2" x1="48.62" y1="172.01" x2="48.62" y2="195.57"/><circle class="cls-3" cx="48.62" cy="172.03" r="0.56"/></g><g class="cls-1"><path class="cls-2" d="M42.31,179.31v16.26"/><path class="cls-3" d="M41.75,179.34a.57.57,0,1,1,.56.57A.56.56,0,0,1,41.75,179.34Z"/></g><g class="cls-1"><line class="cls-2" x1="58.09" y1="167.47" x2="58.09" y2="195.57"/><circle class="cls-3" cx="58.09" cy="167.5" r="0.56"/></g><g class="cls-1"><path class="cls-2" d="M44.38,172.23c-.05,3.57,0,23.34,0,23.34"/><circle class="cls-3" cx="44.39" cy="172.27" r="0.56"/></g><g class="cls-1"><line class="cls-2" x1="60.01" y1="176.24" x2="60.01" y2="195.57"/><circle class="cls-3" cx="60.01" cy="176.27" r="0.56"/></g><g class="cls-1"><line class="cls-2" x1="51.24" y1="173.47" x2="51.24" y2="195.57"/><circle class="cls-3" cx="51.24" cy="173.5" r="0.56"/></g><g class="cls-1"><line class="cls-2" x1="74.78" y1="178.32" x2="74.78" y2="195.57"/><circle class="cls-3" cx="74.78" cy="178.34" r="0.56"/></g><g class="cls-1"><path class="cls-2" d="M70.05,174.14a135.14,135.14,0,0,0-1,21.43"/><path class="cls-3" d="M69.51,174.08a.56.56,0,1,1,.45.65A.55.55,0,0,1,69.51,174.08Z"/></g><g class="cls-1"><line class="cls-2" x1="62.16" y1="174.01" x2="62.16" y2="195.57"/><path class="cls-3" d="M61.6,174a.57.57,0,1,1,.56.56A.56.56,0,0,1,61.6,174Z"/></g><g class="cls-1"><line class="cls-2" x1="67.09" y1="179.85" x2="67.09" y2="195.57"/><circle class="cls-3" cx="67.09" cy="179.88" r="0.56"/></g><g class="cls-1"><path class="cls-2" d="M55.6,172.08c-.18,4.79-.06,21.2.1,23.49"/><path class="cls-3" d="M55.06,172.11a.56.56,0,0,1,.56-.56.55.55,0,0,1,.56.57.56.56,0,1,1-1.12,0Z"/></g><g class="cls-1"><line class="cls-2" x1="30.77" y1="179.7" x2="30.77" y2="195.57"/><path class="cls-3" d="M30.21,179.73a.57.57,0,0,1,.56-.57.58.58,0,0,1,.57.57.57.57,0,0,1-.57.56A.56.56,0,0,1,30.21,179.73Z"/></g><g class="cls-1"><path class="cls-2" d="M72.58,149.63c1.26,12.79,1.56,38.41,1.58,45.94"/><path class="cls-3" d="M72,149.7a.58.58,0,0,1,.53-.61.57.57,0,0,1,.6.53.56.56,0,0,1-.52.6A.58.58,0,0,1,72,149.7Z"/></g><g class="cls-1"><line class="cls-2" x1="66.22" y1="179.46" x2="66.22" y2="195.57"/><circle class="cls-3" cx="66.22" cy="179.49" r="0.56"/></g><g class="cls-1"><path class="cls-2" d="M53.27,171.29c.43,5,.42,21.82.32,24.28"/><path class="cls-3" d="M52.69,171.35a.56.56,0,1,1,1.12-.06.56.56,0,0,1-.53.59A.55.55,0,0,1,52.69,171.35Z"/></g><g class="cls-1"><path class="cls-2" d="M54.64,160.14c.73,6.88,1.46,24.13,1.3,35.43"/><path class="cls-3" d="M54.06,160.22a.57.57,0,1,1,.61.52A.58.58,0,0,1,54.06,160.22Z"/></g><g class="cls-1"><path class="cls-2" d="M59.08,151.85c-1.12,7.72-2.22,31-1.9,43.72"/><path class="cls-3" d="M58.54,151.83a.57.57,0,0,1,.62-.51.56.56,0,1,1-.62.51Z"/></g><g class="cls-1"><line class="cls-2" x1="38.74" y1="178.65" x2="38.74" y2="195.57"/><circle class="cls-3" cx="38.74" cy="178.68" r="0.56"/></g><g class="cls-1"><path class="cls-2" d="M28.07,161c-.32,8.42-.15,29.39.13,34.56"/><path class="cls-3" d="M27.52,161a.57.57,0,0,1,.57-.56.56.56,0,0,1,.56.57.57.57,0,0,1-1.13,0Z"/></g><g class="cls-1"><path class="cls-2" d="M70.28,169.43c-.27,7.1-.16,21.84,0,26.14"/><path class="cls-3" d="M69.73,169.45a.55.55,0,0,1,.57-.55.57.57,0,0,1,.56.57.57.57,0,0,1-.57.56A.56.56,0,0,1,69.73,169.45Z"/></g><g class="cls-1"><path class="cls-2" d="M53.67,170.15c-.41,6.34-.6,22.08-.69,25.42"/><path class="cls-3" d="M53.12,170.16a.57.57,0,1,1,.55.58A.56.56,0,0,1,53.12,170.16Z"/></g><g class="cls-1"><line class="cls-2" x1="65.07" y1="175.66" x2="65.07" y2="195.57"/><path class="cls-3" d="M64.5,175.69a.57.57,0,0,1,.57-.56.56.56,0,0,1,0,1.12A.57.57,0,0,1,64.5,175.69Z"/></g><g class="cls-1"><path class="cls-2" d="M57.79,152.77c.39,8.11.84,28.12,1,42.8"/><path class="cls-3" d="M57.21,152.81a.56.56,0,0,1,.55-.57.57.57,0,0,1,.58.55.57.57,0,1,1-1.13,0Z"/></g><g class="cls-1"><path class="cls-2" d="M64.43,154.78c-1.66,6.72-3.12,29-1.6,40.79"/><path class="cls-3" d="M63.9,154.7a.56.56,0,0,1,1.1.23.56.56,0,0,1-.67.44A.56.56,0,0,1,63.9,154.7Z"/></g><g class="cls-1"><path class="cls-2" d="M38.15,141.62C41,159,41.37,182.85,40.67,195.57"/><path class="cls-3" d="M37.59,141.73a.56.56,0,0,1,1.11-.17.55.55,0,0,1-.47.64A.56.56,0,0,1,37.59,141.73Z"/></g><g class="cls-1"><path class="cls-2" d="M36.36,173.48c.27,5.43.24,18.82.11,22.09"/><path class="cls-3" d="M35.78,173.52a.56.56,0,1,1,.57.55A.55.55,0,0,1,35.78,173.52Z"/></g><g class="cls-1"><path class="cls-2" d="M47.15,166.05c1,7,.76,25.9.33,29.52"/><path class="cls-3" d="M46.57,166.15a.56.56,0,1,1,.63.49A.56.56,0,0,1,46.57,166.15Z"/></g><g class="cls-1"><path class="cls-2" d="M64.22,169.57c-.24,4.75-.46,18.89-.28,26"/><path class="cls-3" d="M63.67,169.58a.55.55,0,0,1,.58-.54.56.56,0,1,1-.58.54Z"/></g><g class="cls-1"><path class="cls-2" d="M31.65,163.35c1.76,9.21,2,26.12,1.76,32.22"/><path class="cls-3" d="M31.09,163.48a.56.56,0,1,1,1.11-.19.56.56,0,0,1-1.11.19Z"/></g><g class="cls-1"><path class="cls-2" d="M44.26,164.19c-.19,5.19-.38,24.18-.4,31.38"/><path class="cls-3" d="M43.71,164.21a.55.55,0,0,1,.57-.55.55.55,0,0,1,.55.57.56.56,0,1,1-1.12,0Z"/></g><g class="cls-1"><line class="cls-2" x1="75.21" y1="172.05" x2="75.21" y2="195.57"/><circle class="cls-3" cx="75.21" cy="172.08" r="0.56"/></g><g class="cls-1"><path class="cls-2" d="M48.64,149.9c-1.35,8.77-2.63,31.79-2.4,45.67"/><path class="cls-3" d="M48.1,149.87a.56.56,0,0,1,.63-.49.55.55,0,0,1,.49.62.56.56,0,0,1-.62.5A.58.58,0,0,1,48.1,149.87Z"/></g><g class="cls-1"><path class="cls-2" d="M42.47,125.8c-1,11.49-2,39.28-2.44,69.77"/><path class="cls-3" d="M41.92,125.79a.56.56,0,1,1,.52.6A.55.55,0,0,1,41.92,125.79Z"/></g><g class="cls-1"><path class="cls-2" d="M50.42,124.25c1.67,22.05,1.23,63.23,1.1,71.32"/><path class="cls-3" d="M49.85,124.31a.56.56,0,1,1,.59.53A.55.55,0,0,1,49.85,124.31Z"/></g><g class="cls-1"><line class="cls-2" x1="50.74" y1="179.1" x2="50.74" y2="195.57"/><circle class="cls-3" cx="50.74" cy="179.13" r="0.56"/></g><g class="cls-1"><path class="cls-2" d="M52.53,145c-2.91,4.07-5.43,20.8-5.78,50.58"/><path class="cls-3" d="M52.07,144.69a.57.57,0,0,1,.79-.12.57.57,0,1,1-.67.91A.57.57,0,0,1,52.07,144.69Z"/></g><g class="cls-1"><path class="cls-2" d="M49.56,168.57c-.3,6.25-.29,24.08-.24,27"/><path class="cls-3" d="M49,168.59a.58.58,0,0,1,.58-.56.57.57,0,0,1,.55.58.57.57,0,0,1-1.13,0Z"/></g><g class="cls-1"><path class="cls-2" d="M39.34,167.51c.22,5.69.32,20-.11,28.06"/><path class="cls-3" d="M38.76,167.54a.57.57,0,0,1,.56-.57.57.57,0,0,1,.57.56.56.56,0,0,1-.55.57A.57.57,0,0,1,38.76,167.54Z"/></g><g class="cls-1"><path class="cls-2" d="M31.86,155.89c3.23,10.87,3.49,33.84,3.21,39.68H35"/><path class="cls-3" d="M31.29,156.06a.58.58,0,0,1,.41-.69.57.57,0,1,1-.41.69Z"/></g><g class="cls-1"><path class="cls-2" d="M32,177.86c0,4.19-.06,15.8-.09,17.71"/><path class="cls-3" d="M31.4,177.89a.57.57,0,1,1,1.13,0,.56.56,0,0,1-.57.56A.57.57,0,0,1,31.4,177.89Z"/></g><g class="cls-1"><path class="cls-2" d="M54.19,179.37c0,3.15,0,15.26,0,16.2"/><circle class="cls-3" cx="54.19" cy="179.4" r="0.56"/></g><g class="cls-1"><path class="cls-2" d="M1,354.28a141,141,0,0,1,.48-23.56s.44-4.13,1-7.58c1.34-8.1,5-19.66,24.76-52,3.71-6.08,7.26-11.7,9.7-20.41a80.1,80.1,0,0,0,2.35-14.39,134,134,0,0,0,.44-20.64V195.57"/><path class="cls-3" d="M1.52,354.22a.55.55,0,0,1-.53.59.56.56,0,1,1-.06-1.12A.55.55,0,0,1,1.52,354.22Z"/></g><g class="cls-1"><path class="cls-2" d="M4.58,365.77a261.22,261.22,0,0,1,2.65-31C9.43,320,11,309.68,16.6,297.26a123.39,123.39,0,0,1,9.93-17.51c8.67-12.9,13.55-15.24,16.84-25.44a79.25,79.25,0,0,0,2.9-14.83,104.8,104.8,0,0,0,.78-14.5V195.57"/><path class="cls-3" d="M5.15,365.77a.56.56,0,0,1-.59.53.57.57,0,0,1-.54-.59.56.56,0,0,1,.59-.53A.57.57,0,0,1,5.15,365.77Z"/></g><g class="cls-1"><path class="cls-2" d="M14.48,349.48a169.64,169.64,0,0,1,2.68-30.25A166.14,166.14,0,0,1,23,296.59c2.39-7.17,3.92-11.69,7.25-17.18s4.72-5.71,11.16-13.83c6.13-7.74,10.48-13.22,13.6-20.75a55.16,55.16,0,0,0,4.13-20.3v-29"/><path class="cls-3" d="M15.06,349.47a.57.57,0,0,1-.58.55.57.57,0,0,1-.55-.58.57.57,0,0,1,.58-.55A.56.56,0,0,1,15.06,349.47Z"/></g><g class="cls-1"><path class="cls-2" d="M51.29,366.55c-.19-18.64-.3-28-1.89-35.83a76.21,76.21,0,0,1-1.79-13.83A73,73,0,0,1,49.4,298c2.34-10,6.36-16.92,10.37-23.87,4.85-8.39,6.21-8.59,8.92-14.06a55,55,0,0,0,5.47-25.31V195.57"/><path class="cls-3" d="M51.85,366.51a.57.57,0,0,1-.56.57.55.55,0,0,1-.57-.55.57.57,0,0,1,.55-.58A.58.58,0,0,1,51.85,366.51Z"/></g><g class="cls-1"><path class="cls-2" d="M57,362.86c-.69-40.43-2.69-48.38-5.12-55.12-3.5-9.71-6.06-11.91-12.05-28.55-3.24-9-6.2-17.39-8.14-28.67A130.75,130.75,0,0,1,30,221.19s1-25.62,0-25.62"/><path class="cls-3" d="M57.53,362.82a.57.57,0,0,1-.55.58.56.56,0,0,1-.58-.55.57.57,0,0,1,1.13,0Z"/></g><g class="cls-1"><path class="cls-2" d="M30.25,356.07A156.4,156.4,0,0,1,36,322.13c1.91-6.45,4.06-11.62,8.37-22,4.91-11.8,6.21-13.33,10.37-24,5.77-14.77,6.83-20.91,7.14-22.87.52-3.27.63-5.34,1.12-16.84.34-8.28.17-34.44.42-40.9"/><path class="cls-3" d="M30.82,356.08a.57.57,0,0,1-.61.52.56.56,0,0,1-.51-.61.57.57,0,0,1,.61-.52A.56.56,0,0,1,30.82,356.08Z"/></g><g class="cls-1"><path class="cls-2" d="M78.93,354.84a263.67,263.67,0,0,0-3.43-33.27c-3.2-18.95-6.75-27-10.15-32.68-2.58-4.3-6-9-6-9-6.11-8.4-8.94-10.21-12.38-15.28-3.62-5.36-4.88-9.86-7.14-18a113.81,113.81,0,0,1-4.12-30.45v-20.6"/><path class="cls-3" d="M79.48,354.77a.56.56,0,0,1-.52.6.56.56,0,1,1-.08-1.12A.55.55,0,0,1,79.48,354.77Z"/></g><g class="cls-1"><path class="cls-2" d="M74.51,351.6c.37-15.73.53-23.7-1.69-33.37a132.49,132.49,0,0,0-11-29.34c-1.69-3.11-3.44-6-6-11.37a140.06,140.06,0,0,1-7.13-17.63,144.51,144.51,0,0,1-6.25-31.56c-.45-4.39-.67-8.07-.78-10.71V195.57"/><path class="cls-3" d="M75.07,351.58a.57.57,0,1,1-.55-.57A.55.55,0,0,1,75.07,351.58Z"/></g><g class="cls-1"><path class="cls-2" d="M89.74,366.89A252,252,0,0,0,92.45,326c-.31-19.35-2.72-27-4.35-31.24a73.47,73.47,0,0,0-12-20.41c-3.15-3.77-6.76-6.92-13.84-13.05-16-13.83-16.25-11.81-20-16.95-7.87-10.9-9.33-23.75-9.59-26.44-.14-1.4-.2-2.56-.23-3.34v-19"/><path class="cls-3" d="M90.29,366.93a.56.56,0,0,1-.63.49.57.57,0,0,1-.49-.63.56.56,0,0,1,1.12.14Z"/></g><g class="cls-1"><path class="cls-2" d="M100.6,379c.15-9.13.79-51.82-.34-70.29a58,58,0,0,0-1.12-8.48,59.11,59.11,0,0,0-10.7-23.54c-1.9-2.47-8.92-8.6-23-20.85a54.2,54.2,0,0,1-8.26-8.37c-6.22-8.08-7.55-15.24-7.8-16.73a33.12,33.12,0,0,1-.45-7V195.57"/><path class="cls-3" d="M101.16,379a.56.56,0,1,1-1.12,0,.56.56,0,1,1,1.12,0Z"/></g><g class="cls-1"><path class="cls-2" d="M23.85,383c-.17-10.4-.18-33.13,3-55.58a120.31,120.31,0,0,1,6.8-27.66,93,93,0,0,1,6.25-13.49C51.45,266,64.26,263.58,67,248.51a91.39,91.39,0,0,0,.78-10.15,193.89,193.89,0,0,0,0-20.07V195.57"/><path class="cls-3" d="M24.41,382.91a.56.56,0,1,1-1.12,0,.56.56,0,1,1,1.12,0Z"/></g><g class="cls-1"><path class="cls-2" d="M60.27,362.87a310.93,310.93,0,0,1-1-49.22c1.07-17.68,1.66-27.08,5-39.93,2.46-9.38,4.77-14.37,5.36-24.42.3-5.25.14-11.85-.11-22.42-.11-4.47-.24-8.17-.34-10.71v-20.6"/><path class="cls-3" d="M60.84,362.79a.56.56,0,0,1-.51.61.56.56,0,1,1-.09-1.12A.55.55,0,0,1,60.84,362.79Z"/></g><g class="cls-1"><path class="cls-2" d="M44.26,379.93c-.33-17.55-.36-31.73-.33-41.51,0-12.85.19-16.79-.67-23.65-2.57-20.56-8.28-20.38-9.26-34-1.3-18.34,8.72-23,10.71-50.75a120.92,120.92,0,0,0,.11-15.62s.34-18.48,0-18.81"/><path class="cls-3" d="M44.83,379.9a.57.57,0,1,1-.57-.56A.57.57,0,0,1,44.83,379.9Z"/></g><g class="cls-1"><path class="cls-2" d="M.55,302c6.74-30.51,15.5-43.4,22.75-49.34a71.43,71.43,0,0,0,9-8.92c4.38-5.14,10.5-12.51,11-22.53a26.78,26.78,0,0,0-.33-5.91V195.57"/><path class="cls-3" d="M1.11,302.09a.56.56,0,0,1-.68.41.56.56,0,0,1-.41-.68.57.57,0,0,1,.68-.42A.57.57,0,0,1,1.11,302.09Z"/></g><g class="cls-1"><path class="cls-2" d="M94.78,337.37a59.43,59.43,0,0,0,4.59-22.6c0-4.48-.09-16.81-7.25-28.55-3.35-5.49-4.75-5.14-9.15-12.5s-3.59-8.64-8.14-17-5.86-8-9.93-16.29c-3-6.17-4.21-10.18-4.57-14.39a33.22,33.22,0,0,1,.33-8.25V195.57"/><path class="cls-3" d="M95.3,337.53a.57.57,0,0,1-.73.33.56.56,0,0,1-.32-.73.56.56,0,0,1,1,.4Z"/></g><g class="cls-1"><path class="cls-2" d="M100.9,299.74c1.83-12.75-.84-20.65-3.76-25.57-.84-1.42-.47-.51-9.71-12.27A129.27,129.27,0,0,1,76.5,246.51a35.16,35.16,0,0,1-4.79-11.71,31.52,31.52,0,0,1-.56-6.36V195.57"/><path class="cls-3" d="M101.44,299.77a.56.56,0,0,1-.62.5.56.56,0,1,1,.13-1.12A.55.55,0,0,1,101.44,299.77Z"/></g><g class="cls-1"><path class="cls-2" d="M93,277.09c1.14-9.73-1.23-14.86-3.63-17.76-2.2-2.64-4.25-3.22-7.14-6.47-.88-1-3.13-3.76-6.36-13.27-4.64-13.68-5.55-40.18-5.8-44"/><path class="cls-3" d="M93.51,277.12a.57.57,0,0,1-.61.51.57.57,0,1,1,.61-.51Z"/></g><g class="cls-1"><path class="cls-2" d="M92.2,294.61c-.36-6.82-2-16.41-8.34-24.9C77.31,261,73,263.1,64.34,252.86a62.28,62.28,0,0,1-13.83-31.45,58.53,58.53,0,0,1-.44-8.39V195.57"/><circle class="cls-3" cx="92.18" cy="294.58" r="0.56"/></g><g class="cls-1"><path class="cls-2" d="M6.68,332.53a108.2,108.2,0,0,1,3.23-26.79c2.51-9.94,7.69-21.15,18-43.17,5.25-11.26,6.64-13.76,8.14-19.41a77.78,77.78,0,0,0,2-28.78V195.57"/><path class="cls-3" d="M7.26,332.52a.56.56,0,0,1-.58.54.57.57,0,0,1-.55-.58.57.57,0,0,1,1.13,0Z"/></g><g class="cls-1"><path class="cls-2" d="M81.22,346.71a84.86,84.86,0,0,0,3-23.35,68.33,68.33,0,0,0-3.57-22.87,67.9,67.9,0,0,0-10.26-18.85c-5.28-7.06-6.3-5.85-10.93-12C51.74,259.33,49.2,248.88,48,243.5a78,78,0,0,1-2-15.62V195.57"/><path class="cls-3" d="M81.75,346.81a.57.57,0,1,1-1.1-.26.58.58,0,0,1,.68-.42A.57.57,0,0,1,81.75,346.81Z"/></g><g class="cls-1"><path class="cls-2" d="M28.71,300.63c.53-5,1.05-11.36,1.28-18.76A218.23,218.23,0,0,0,29.1,250c-.8-7.41-1.7-11.56-1.68-19.74a112.34,112.34,0,0,1,.78-12.83V195.57"/><path class="cls-3" d="M29.26,300.65a.56.56,0,1,1-.51-.61A.56.56,0,0,1,29.26,300.65Z"/></g><g class="cls-1"><path class="cls-2" d="M12.84,256.71A61.58,61.58,0,0,0,24.75,238a61.62,61.62,0,0,0,4.46-20.41V195.57"/><path class="cls-3" d="M13.27,257.05a.56.56,0,1,1,0-.79A.55.55,0,0,1,13.27,257.05Z"/></g><g class="cls-1"><path class="cls-2" d="M19.8,271.07c-.39-5.47.2-12.5,5.17-17.42.61-.61.67-.57,1.34-1.23,2.76-2.74,5.44-7.08,7-20.08a122.8,122.8,0,0,0,.89-16.17v-20.6"/><path class="cls-3" d="M20.37,271a.55.55,0,0,1-.53.59.56.56,0,1,1-.07-1.12A.56.56,0,0,1,20.37,271Z"/></g><g class="cls-1"><path class="cls-2" d="M87,310.12a60.3,60.3,0,0,0-2.09-28.81c-3.58-10.57-7-10-12.27-23.2C66.82,243.61,65.82,230,65.35,223c-.36-5.35-.33-24.11-.23-27.4"/><path class="cls-3" d="M87.5,310.15a.56.56,0,0,1-.63.49.56.56,0,0,1,.14-1.12A.56.56,0,0,1,87.5,310.15Z"/></g><g class="cls-1"><path class="cls-2" d="M96.87,277.43c-1-12.54-5-20-8.66-24.57-3-3.82-4.1-3.47-7.25-7.91-6.43-9.1-7.95-18.91-8.47-22.54a54.76,54.76,0,0,1-.56-6.35V195.57"/><path class="cls-3" d="M97.42,277.34a.57.57,0,1,1-.62-.5A.57.57,0,0,1,97.42,277.34Z"/></g><g class="cls-1"><path class="cls-2" d="M64,348.83a100.91,100.91,0,0,0,2.67-24.91,85.21,85.21,0,0,0-4-26,60.75,60.75,0,0,0-5.91-13.72c-1.54-2.54-3-4.41-6.36-10-2.63-4.35-3.41-5.93-4-7.92a25,25,0,0,1-.9-9.15,199.62,199.62,0,0,0-.22-21.64V195.57"/><path class="cls-3" d="M64.56,348.91a.57.57,0,0,1-.66.44.57.57,0,0,1,.22-1.11A.56.56,0,0,1,64.56,348.91Z"/></g><g class="cls-1"><path class="cls-2" d="M11.59,325.31c-.79-16.13,2.39-27.49,5.49-34.94,2.4-5.76,4.41-8.37,11.62-23.92,4.14-8.94,6.21-13.41,7.61-17.7a87.37,87.37,0,0,0,4.16-28.93V195.57"/><path class="cls-3" d="M12.16,325.27a.54.54,0,0,1-.54.57.56.56,0,1,1,0-1.12A.55.55,0,0,1,12.16,325.27Z"/></g><g class="cls-1"><path class="cls-2" d="M9.9,282.7a75.32,75.32,0,0,1,8.79-21.33c6.69-10.94,12.6-14,16.31-23.7a41.44,41.44,0,0,0,2-20.85V195.57"/><path class="cls-3" d="M10.47,282.83a.57.57,0,1,1-.39-.7A.57.57,0,0,1,10.47,282.83Z"/></g><g class="cls-1"><path class="cls-2" d="M71.09,363.08c0-12.3,0-22.67,0-30.7,0-4.06,0-8.66-.31-14.85-.28-6.49-.5-11.47-1.31-17.54-1.48-11.12-2.22-16.68-4.92-21.16C60,271.31,55.38,271.72,51.32,263a41,41,0,0,1-3.08-10.69c-1.16-6.52-.79-11.22-.54-16.47.27-5.54.49-13.41.23-23.23v-17"/><path class="cls-3" d="M71.65,363.06a.56.56,0,1,1-1.12,0,.56.56,0,1,1,1.12,0Z"/></g><g class="cls-1"><path class="cls-2" d="M35,320a106.63,106.63,0,0,1,3.78-18.24c1.93-6.36,3.27-8.52,7.08-20.39a108.84,108.84,0,0,0,3.31-11.92,115,115,0,0,0,1.77-11.78c.39-3.68.6-7,.85-15.08.41-13.69.46-26.31.46-26.31V195.57"/><path class="cls-3" d="M35.56,320.05a.56.56,0,1,1-.48-.63A.55.55,0,0,1,35.56,320.05Z"/></g><g class="cls-1"><path class="cls-2" d="M41.42,397.1a229.23,229.23,0,0,1,1-50.64c2.17-16.4,4-29.83,11.08-46.16,5.73-13.13,10-16.89,13.77-31.08,2.4-9.09,3.14-17,4.15-27.78,1.1-11.61,1.37-21.37,1.39-28.42V195.57"/><path class="cls-3" d="M42,397a.56.56,0,0,1-.52.6.57.57,0,0,1-.6-.53.56.56,0,0,1,.52-.6A.57.57,0,0,1,42,397Z"/></g><g class="cls-1"><path class="cls-2" d="M5,278.54c3-14.19,8.55-21.49,13.2-25.56,2.21-1.93,5.35-4.11,8.47-8.69a39.66,39.66,0,0,0,5.84-14.47,45.87,45.87,0,0,0,.93-11.62V195.57"/><path class="cls-3" d="M5.6,278.65a.56.56,0,1,1-.41-.68A.56.56,0,0,1,5.6,278.65Z"/></g><g class="cls-1"><path class="cls-2" d="M12.86,252.76c2.22-12.44,6.49-17.7,10.14-20.17a18.65,18.65,0,0,0,3-2.23c4.71-4.48,5.48-11.21,5.39-16.23V195.57"/><path class="cls-3" d="M13.43,252.85a.56.56,0,1,1-.43-.67A.57.57,0,0,1,13.43,252.85Z"/></g><g class="cls-1"><path class="cls-2" d="M81.16,296.86A18.57,18.57,0,0,0,81,285.68c-1.54-4.24-4.11-5.48-6.78-10.31-1.1-2-2.27-4.7-3.53-11.93C69,253.79,68.89,246,68.78,236.9c-.13-11-.2-19.38-.23-23.54V195.57"/><path class="cls-3" d="M81.69,297a.56.56,0,1,1-1.09-.26.56.56,0,1,1,1.09.26Z"/></g><g class="cls-1"><path class="cls-2" d="M80.12,329.24a93.19,93.19,0,0,0-.87-18.94,79.92,79.92,0,0,0-5.54-20.54c-3-7-6.64-12.38-13.47-22.55-3.4-5-3.64-5.06-4.85-7.23-4-7.14-4.72-13.59-5.77-22a133.41,133.41,0,0,1-1-18.31v-24.1"/><path class="cls-3" d="M80.68,329.23a.57.57,0,0,1-.59.54.57.57,0,0,1-.54-.59.57.57,0,0,1,.59-.54A.56.56,0,0,1,80.68,329.23Z"/></g><g class="cls-1"><path class="cls-2" d="M19.85,325.62a91.47,91.47,0,0,1,1.07-32.48,88.83,88.83,0,0,1,7.85-22.39c4.69-9.1,7.47-10.38,10.08-18.31,1.61-4.86,2-9.75,2.69-19.31.57-7.66.77-14.63.77-20.77V195.57"/><path class="cls-3" d="M20.42,325.52a.58.58,0,0,1-.5.63.55.55,0,0,1-.62-.49.56.56,0,1,1,1.12-.14Z"/></g><g class="cls-1"><path class="cls-2" d="M31.21,300a97.89,97.89,0,0,1,5.1-23.4,126.11,126.11,0,0,1,8.54-18.77c5.79-10.36,9.71-13.9,11.93-22.7a43.63,43.63,0,0,0,1.31-10.92V195.57"/><path class="cls-3" d="M31.78,300a.56.56,0,1,1-.5-.62A.56.56,0,0,1,31.78,300Z"/></g><g class="cls-1"><path class="cls-2" d="M12.37,263.84a58.69,58.69,0,0,1,14.56-15.55c3.74-2.72,4.88-2.81,7.69-5.54a33,33,0,0,0,9.31-17.54,23.07,23.07,0,0,0,.46-5.78c-.08-.69,0-23.86,0-23.86"/><path class="cls-3" d="M12.86,264.14a.56.56,0,1,1-.15-.78A.56.56,0,0,1,12.86,264.14Z"/></g><g class="cls-1"><path class="cls-2" d="M76,286.7a29.19,29.19,0,0,0-.67-16.95,39.58,39.58,0,0,0-2.54-5c-7.38-13.33-11.17-16.38-12.38-23.93-.11-.67-.18-2.4-.31-5.84-.32-8.3-.22-15-.08-19.55V195.57"/><path class="cls-3" d="M76.52,286.78a.56.56,0,1,1-.44-.67A.56.56,0,0,1,76.52,286.78Z"/></g><g class="cls-1"><path class="cls-2" d="M74.48,303.69a36.28,36.28,0,0,0-3.77-17.09c-1.64-3.17-2.95-4.38-4.7-7.77-3.15-6.09-2-9.25-4.15-16.08a52.88,52.88,0,0,0-5-10.62c-3.23-6-6.41-16-5.62-33.93V195.57"/><path class="cls-3" d="M75,303.65a.57.57,0,0,1-1.13,0,.57.57,0,0,1,.56-.57A.56.56,0,0,1,75,303.65Z"/></g><g class="cls-1"><path class="cls-2" d="M88.85,328.23a132,132,0,0,0,.4-25.16,107.59,107.59,0,0,0-3.62-21.78c-2.55-9.09-3.83-13.63-6.23-18.15a34.67,34.67,0,0,1-4.46-12.78,30.6,30.6,0,0,1-.23-4.38c.07-6.28.08-17.5.07-32.62V195.57"/><path class="cls-3" d="M89.4,328.25a.57.57,0,1,1-.52-.61A.58.58,0,0,1,89.4,328.25Z"/></g><g class="cls-1"><path class="cls-2" d="M86.23,269.08a247.86,247.86,0,0,0-7-28.87,106.34,106.34,0,0,0-3.77-10.7c-2.57-6-4.08-7.68-5.31-12-.75-2.6-1.48-16.82-1.08-21.94"/><path class="cls-3" d="M86.76,268.93a.56.56,0,1,1-.66-.44A.56.56,0,0,1,86.76,268.93Z"/></g><g class="cls-1"><path class="cls-2" d="M56.05,265.19a18.24,18.24,0,0,0,2.88-4.75,19,19,0,0,0,1.39-6.54c.27-5.51,1-11,1.08-16.54,0-4.6.16-11.28.76-19.69v-22.1"/><path class="cls-3" d="M56.49,265.49a.56.56,0,1,1-.1-.79A.56.56,0,0,1,56.49,265.49Z"/></g><g class="cls-1"><path class="cls-2" d="M35.07,344.32a142.13,142.13,0,0,1,12.4-43.71,128.7,128.7,0,0,1,8-14.7c3.52-5.26,4.15-5,5.93-8.39,3.06-5.84,3.61-11.26,4.3-18.69.29-3.06.11-2.59.47-12.47.35-9.67.56-11.25.77-17.77.12-4,.23-9.72.15-16.77V195.57"/><path class="cls-3" d="M35.65,344.37a.58.58,0,0,1-.65.48.57.57,0,1,1,.65-.48Z"/></g><g class="cls-1"><path class="cls-2" d="M78.72,283.85a37.6,37.6,0,0,0,.06-11.4c-.93-6.28-3.27-10.75-5.46-14.85-2.87-5.39-3.49-4.84-9.69-14.62-5.11-8-6.08-10.62-6.7-13a51.89,51.89,0,0,1-1.31-10.39c-.2-3.94-.08-21.64.08-24"/><path class="cls-3" d="M79.27,283.89a.57.57,0,1,1-.48-.63A.56.56,0,0,1,79.27,283.89Z"/></g><g class="cls-1"><path class="cls-2" d="M61.7,354.93c0-12.62-.1-24.48-.3-36a93.18,93.18,0,0,0-3.47-25.47,53,53,0,0,0-2.31-6.54c-3.55-8.18-7.58-11.38-12.07-17.23-2.55-3.32-8.63-11.4-11.32-22.47-1.2-5-1.34-9.63-1.61-18.93-.2-6.73,0-12.35.15-16.31v-16.4"/><path class="cls-3" d="M62.26,354.9a.57.57,0,0,1-1.13,0,.57.57,0,1,1,1.13,0Z"/></g><g class="cls-1"><path class="cls-2" d="M54.89,333.72c-2.27-15.28-.44-26.72,1.67-34.37,3.57-12.93,8.45-16.91,12.5-33.92,1.85-7.72,2.47-13.73,3.47-23.39,1.3-12.6,1.61-38.84,1.63-46.47"/><path class="cls-3" d="M55.46,333.62a.56.56,0,0,1-1.12.14.57.57,0,0,1,.49-.63A.56.56,0,0,1,55.46,333.62Z"/></g><g class="cls-1"><path class="cls-2" d="M34.74,309.7c-1.17-16.34,2.59-27.1,6.35-34,5.38-9.86,11.28-12.73,17.7-27.36a88.8,88.8,0,0,0,5.82-18.44,87.24,87.24,0,0,0,1.61-17.7V195.57"/><path class="cls-3" d="M35.32,309.65a.57.57,0,1,1-.59-.54A.57.57,0,0,1,35.32,309.65Z"/></g><g class="cls-1"><path class="cls-2" d="M22.51,308.34a66.33,66.33,0,0,1,4.22-26.2c3.59-9.29,6.07-8.91,14.36-25.49a157,157,0,0,0,9.53-24,68.82,68.82,0,0,0,2.6-12.26c.48-4.18.48-22.26.37-24.81"/><path class="cls-3" d="M23.08,308.31a.56.56,0,1,1-1.12,0,.56.56,0,1,1,1.12,0Z"/></g><g class="cls-1"><path class="cls-2" d="M30.4,329.26a65.83,65.83,0,0,1,1-18.28c1.06-5.36,2.8-14.07,8.78-22.4,2-2.8,3.77-4.54,5.45-8.42A31.31,31.31,0,0,0,48.14,268c.4-12.91,4-15.26,6.44-36.51.75-6.48,1.52-24.35,1.36-36"/><circle class="cls-3" cx="30.42" cy="329.23" r="0.56" transform="translate(-299.73 311.44) rotate(-81.64)"/></g><g class="cls-1"><path class="cls-2" d="M65.23,320.36a77.39,77.39,0,0,0,2-23.74c-.24-3.13-.43-3.1-1.49-11.51C64,271.68,64.15,268.69,63,260.24c-1.43-10.45-2.39-11.43-3.84-20.43-1.15-7.13-2.3-31.26-2-44.24"/><path class="cls-3" d="M65.77,320.45a.56.56,0,1,1-.43-.67A.56.56,0,0,1,65.77,320.45Z"/></g><g class="cls-1"><path class="cls-2" d="M17,302.16a70.2,70.2,0,0,1,2.52-26.58c3.88-12.9,9.61-17.57,14.36-30.07A79.68,79.68,0,0,0,38.74,213V195.57"/><path class="cls-3" d="M17.61,302.09a.57.57,0,1,1-.6-.53A.57.57,0,0,1,17.61,302.09Z"/></g><g class="cls-1"><path class="cls-2" d="M58.46,307.48a68.11,68.11,0,0,0-8.71-24.1c-4.09-6.88-7.61-7.21-12.37-15.22A64.53,64.53,0,0,1,30,248.73c-1.32-5.93-1.51-10.28-1.86-18.07-.35-8-.18-29.81.11-35.09"/><path class="cls-3" d="M59,307.35a.56.56,0,1,1-1.11.21.56.56,0,1,1,1.11-.21Z"/></g><g class="cls-1"><path class="cls-2" d="M82.46,317.65c3.35-11.4,3-20.22,2.07-26.22-.4-2.57-.73-3.41-4.45-16.59s-5.64-20-6.07-21.91a169.7,169.7,0,0,1-3.71-30.69c-.29-6.87-.19-22.26,0-26.67"/><path class="cls-3" d="M83,317.76a.57.57,0,0,1-.69.4.56.56,0,0,1-.4-.69.56.56,0,1,1,1.09.29Z"/></g><g class="cls-1"><path class="cls-2" d="M85.23,356.82a184,184,0,0,0,.33-31.61c-1-12.59-1.86-23.26-7.53-35.63-2.42-5.29-3.26-4.74-9-14.91-6-10.67-9-16-11.16-22.74-2.55-7.94-3.1-15.43-4.19-30.41-.44-6-.63-22.51-.73-26"/><path class="cls-3" d="M85.78,356.83a.55.55,0,0,1-.6.52.56.56,0,1,1,.08-1.12A.55.55,0,0,1,85.78,356.83Z"/></g><g class="cls-1"><path class="cls-2" d="M96,310.07c2.12-6.7,3.9-16.69.41-27-2.5-7.42-7.26-13.65-9.12-16.08-4.65-6.09-6.44-6.25-10.14-11.73S71.93,245,69.83,238.47A115.3,115.3,0,0,1,65.07,216V195.57"/><path class="cls-3" d="M96.55,310.2a.56.56,0,1,1-.38-.7A.56.56,0,0,1,96.55,310.2Z"/></g><g class="cls-1"><path class="cls-2" d="M60.05,339.74A116.32,116.32,0,0,0,63,313.48a57.36,57.36,0,0,0-1.16-12.31c-1.31-6-2.65-6.81-4.48-13.18a63.35,63.35,0,0,1-2.47-17.38c0-5.24.75-6.3,1.74-15.2.55-4.94.76-8.87,1.16-16.51s.87-28.32,1-43.33"/><path class="cls-3" d="M60.59,339.82a.56.56,0,0,1-.66.45.57.57,0,0,1-.44-.66.56.56,0,0,1,.66-.45A.56.56,0,0,1,60.59,339.82Z"/></g><g class="cls-1"><path class="cls-2" d="M79.72,304.17a35,35,0,0,0,3.53-11.69,37.51,37.51,0,0,0-2.32-17.09C74,255.31,68.08,249.25,64.57,236.87c-1.71-6-3.3-29.18-1.74-41.3"/><path class="cls-3" d="M80.23,304.38a.56.56,0,1,1-.26-.75A.55.55,0,0,1,80.23,304.38Z"/></g><g class="cls-1"><path class="cls-2" d="M32.57,273.72a206.48,206.48,0,0,0,5.5-23.67c3-17.44,3.3-41.63,2.6-54.48"/><path class="cls-3" d="M33.11,273.83a.56.56,0,1,1-.4-.69A.57.57,0,0,1,33.11,273.83Z"/></g><g class="cls-1"><path class="cls-2" d="M26.14,258a99.79,99.79,0,0,0,8.31-24.43,117.67,117.67,0,0,0,1.88-15.35c.31-5,.27-19.24.14-22.62"/><path class="cls-3" d="M26.65,258.16a.56.56,0,1,1-1-.46.56.56,0,0,1,.74-.28A.56.56,0,0,1,26.65,258.16Z"/></g><g class="cls-1"><path class="cls-2" d="M39.33,275.37C36.5,258.2,39,247.47,42,240.73a58,58,0,0,0,5.06-15.12c1.15-6.48.86-26.33.42-30"/><path class="cls-3" d="M39.9,275.27a.56.56,0,0,1-.49.63.56.56,0,1,1-.15-1.11A.56.56,0,0,1,39.9,275.27Z"/></g><g class="cls-1"><path class="cls-2" d="M60.45,316.13c.3-6.05.37-11,.38-14.46,0-8.82-.35-12.88-.41-25.25,0-6.42-.05-9.68.2-12,.85-7.79,2.39-8.81,3.52-17.38a96.29,96.29,0,0,0,.73-14.49c-.07-4.19-.34-5.76-.62-10.45C64,218,63.76,203,63.94,195.57"/><path class="cls-3" d="M61,316.12a.57.57,0,1,1-.55-.58A.57.57,0,0,1,61,316.12Z"/></g><g class="cls-1"><path class="cls-2" d="M21.57,255.47a96.84,96.84,0,0,0,10-27.16c1.85-9.07,2.12-26.53,1.86-32.74"/><path class="cls-3" d="M22.07,255.69a.56.56,0,0,1-1-.52.57.57,0,0,1,.76-.24A.58.58,0,0,1,22.07,255.69Z"/></g><g class="cls-1"><path class="cls-2" d="M38.25,277.83a43.88,43.88,0,0,0,5.51-13.2c.93-4,1.05-7.19,1.24-12.52.14-3.87,0-7.15-.21-13.56-.18-5.17-.33-7.17-.51-11.07-.2-4.26-.4-24.44-.42-31.91"/><path class="cls-3" d="M38.73,278.07a.56.56,0,0,1-1-.55.56.56,0,1,1,1,.55Z"/></g><g class="cls-1"><path class="cls-2" d="M85.32,274.44c1.27-10.4-.34-18-2.14-23.06-2.67-7.56-7.08-13.47-8-24.31a46.53,46.53,0,0,1,0-7.45V195.57"/><path class="cls-3" d="M85.87,274.47a.57.57,0,0,1-1.13-.11.58.58,0,0,1,.62-.51A.57.57,0,0,1,85.87,274.47Z"/></g><g class="cls-1"><path class="cls-2" d="M69.4,312.63a67.55,67.55,0,0,0,.33-18.31,42.69,42.69,0,0,0-2.17-10.24c-3-8.08-7.56-11-11.38-16.14-4-5.34-5.16-12.29-7.45-26.18-1.38-8.34-2.72-32-2.49-46.19"/><path class="cls-3" d="M70,312.67a.57.57,0,0,1-1.12-.15.57.57,0,1,1,1.12.15Z"/></g><g class="cls-1"><path class="cls-2" d="M45.32,347.8c.28-14.12.13-26.13-.11-35.48-.21-7.81-.49-13.9-.62-16.65-.74-15.2-1.78-26.44-2.07-29.8-1-11.15-2.09-39.34-2.49-70.3"/><path class="cls-3" d="M45.88,347.77a.57.57,0,1,1-.56-.57A.57.57,0,0,1,45.88,347.77Z"/></g><g class="cls-1"><path class="cls-2" d="M46.51,306.83Q47.69,296.6,48.73,286c.93-9.64,1.53-17,1.65-18.62,1.72-21.91,1.28-63.7,1.14-71.85"/><path class="cls-3" d="M47.07,306.86a.56.56,0,1,1-1.12-.12.56.56,0,0,1,.62-.5A.56.56,0,0,1,47.07,306.86Z"/></g><g class="cls-1"><path class="cls-2" d="M32.42,261.67c5.5-6,14.63-17.73,17.52-34.67a64.14,64.14,0,0,0,.8-14.43v-17"/><path class="cls-3" d="M32.86,262a.57.57,0,0,1-.8,0,.56.56,0,0,1,0-.79.57.57,0,0,1,.79-.05A.58.58,0,0,1,32.86,262Z"/></g><g class="cls-1"><path class="cls-2" d="M74.14,271C70,265.45,66.49,261.37,64,258.6c-2.12-2.36-5.63-6.14-6.12-6.67-2.82-3-4.89-5.21-5-5.37-3-3.23-5.75-20.08-6.11-51"/><path class="cls-3" d="M74.56,270.65a.56.56,0,1,1-.79-.1A.56.56,0,0,1,74.56,270.65Z"/></g><g class="cls-1"><path class="cls-2" d="M71.25,285a74.9,74.9,0,0,1-11.92-16.71c-8-15.45-8.92-30.75-9.74-45.15-.33-5.69-.32-24.52-.27-27.53"/><path class="cls-3" d="M71.67,284.55a.56.56,0,1,1-.84.74.55.55,0,0,1,0-.79A.56.56,0,0,1,71.67,284.55Z"/></g><g class="cls-1"><path class="cls-2" d="M31.42,259.1a70.48,70.48,0,0,0,5.68-15.28c1.59-6.48,1.85-11.48,2.22-19.66.24-5.28.35-20.22-.09-28.59"/><path class="cls-3" d="M31.93,259.32a.57.57,0,1,1-.26-.76A.58.58,0,0,1,31.93,259.32Z"/></g><g class="cls-1"><path class="cls-2" d="M19,259.51A74,74,0,0,0,31.7,235.76c3.38-10.65,3.65-34.26,3.37-40.19H35"/><path class="cls-3" d="M19.48,259.82a.56.56,0,1,1-.11-.79A.56.56,0,0,1,19.48,259.82Z"/></g><g class="cls-1"><path class="cls-2" d="M25.85,239c5.12-9.77,6.08-15.54,6.12-18.82,0-.61,0-3.41,0-6.37,0-3.63-.06-16.25-.09-18.24"/><path class="cls-3" d="M26.35,239.23a.56.56,0,0,1-.75.25.56.56,0,0,1-.25-.76.56.56,0,0,1,.75-.25A.56.56,0,0,1,26.35,239.23Z"/></g><g class="cls-1"><path class="cls-2" d="M65.67,302.51c-.5-7.77-1.17-14.23-1.74-18.94-.69-5.69-1.38-10.16-2.75-18.86-1-6.34-1.11-6.84-3-18.5-2.75-16.94-3.83-24.05-4-33.91,0-1.88,0-15.72,0-16.73"/><path class="cls-3" d="M66.22,302.44a.57.57,0,1,1-.61-.52A.57.57,0,0,1,66.22,302.44Z"/></g></g><g id="Layer_3" data-name="Layer 3"><g class="cls-1"><line class="cls-2" x1="40.4" y1="221.68" x2="40.4" y2="202.06"/><path class="cls-3" d="M41,221.65a.56.56,0,1,1-.56-.56A.56.56,0,0,1,41,221.65Z"/></g><g class="cls-1"><line class="cls-2" x1="47.76" y1="230.94" x2="47.76" y2="202.06"/><circle class="cls-3" cx="47.76" cy="230.91" r="0.56"/></g><g class="cls-1"><line class="cls-2" x1="59.81" y1="230.49" x2="59.81" y2="202.06"/><path class="cls-3" d="M60.37,230.46a.57.57,0,0,1-.56.57.58.58,0,0,1-.57-.57.57.57,0,0,1,.57-.56A.56.56,0,0,1,60.37,230.46Z"/></g><g class="cls-1"><line class="cls-2" x1="74.87" y1="240.75" x2="74.87" y2="202.06"/><circle class="cls-3" cx="74.87" cy="240.72" r="0.56"/></g><g class="cls-1"><path class="cls-2" d="M30.72,227.15c.13-3.67.89-25.09,0-25.09"/><circle class="cls-3" cx="30.71" cy="227.12" r="0.56"/></g><g class="cls-1"><path class="cls-2" d="M63.73,242.43c.32-8.81.16-34,.4-40.37"/><path class="cls-3" d="M64.28,242.4a.56.56,0,0,1-.57.56.57.57,0,0,1-.56-.57.58.58,0,0,1,.58-.56A.56.56,0,0,1,64.28,242.4Z"/></g><g class="cls-1"><line class="cls-2" x1="36.38" y1="222.13" x2="36.38" y2="202.06"/><path class="cls-3" d="M37,222.1a.57.57,0,0,1-1.13,0,.57.57,0,1,1,1.13,0Z"/></g><g class="cls-1"><line class="cls-2" x1="42.3" y1="223.58" x2="42.3" y2="202.06"/><circle class="cls-3" cx="42.3" cy="223.55" r="0.56"/></g><g class="cls-1"><line class="cls-2" x1="33.15" y1="220.56" x2="33.15" y2="202.06"/><circle class="cls-3" cx="33.15" cy="220.54" r="0.56"/></g><g class="cls-1"><line class="cls-2" x1="49.66" y1="229.71" x2="49.66" y2="202.06"/><path class="cls-3" d="M50.22,229.68a.57.57,0,0,1-.56.57.58.58,0,0,1-.57-.57.57.57,0,0,1,.57-.56A.56.56,0,0,1,50.22,229.68Z"/></g><g class="cls-1"><line class="cls-2" x1="68.51" y1="224.24" x2="68.51" y2="202.06"/><circle class="cls-3" cx="68.51" cy="224.22" r="0.56"/></g><g class="cls-1"><line class="cls-2" x1="69.96" y1="222.13" x2="69.96" y2="202.06"/><circle class="cls-3" cx="69.96" cy="222.1" r="0.56"/></g><g class="cls-1"><path class="cls-2" d="M45.54,220.34c.05-3,.29-18,0-18.28"/><path class="cls-3" d="M46.1,220.32a.57.57,0,0,1-.57.56.58.58,0,0,1-.56-.58.56.56,0,0,1,.58-.55A.55.55,0,0,1,46.1,220.32Z"/></g><g class="cls-1"><line class="cls-2" x1="43.75" y1="221.23" x2="43.75" y2="202.06"/><path class="cls-3" d="M44.31,221.2a.57.57,0,1,1-.56-.56A.56.56,0,0,1,44.31,221.2Z"/></g><g class="cls-1"><line class="cls-2" x1="61.37" y1="223.8" x2="61.37" y2="202.06"/><circle class="cls-3" cx="61.37" cy="223.77" r="0.56"/></g><g class="cls-1"><line class="cls-2" x1="71.85" y1="234.39" x2="71.85" y2="202.06"/><circle class="cls-3" cx="71.85" cy="234.37" r="0.56"/></g><g class="cls-1"><path class="cls-2" d="M76.37,245.58c-4.5-13.82-5.38-39.73-5.63-43.52"/><path class="cls-3" d="M76.93,245.39a.56.56,0,0,1-.39.69.56.56,0,1,1-.3-1.08A.55.55,0,0,1,76.93,245.39Z"/></g><g class="cls-1"><line class="cls-2" x1="50.77" y1="218.98" x2="50.77" y2="202.06"/><circle class="cls-3" cx="50.77" cy="218.95" r="0.56"/></g><g class="cls-1"><line class="cls-2" x1="38.73" y1="220.34" x2="38.73" y2="202.06"/><circle class="cls-3" cx="38.73" cy="220.31" r="0.56"/></g><g class="cls-1"><line class="cls-2" x1="46.65" y1="233.84" x2="46.65" y2="202.06"/><path class="cls-3" d="M47.21,233.81a.57.57,0,0,1-1.13,0,.57.57,0,1,1,1.13,0Z"/></g><g class="cls-1"><line class="cls-2" x1="28.91" y1="223.35" x2="28.91" y2="202.06"/><circle class="cls-3" cx="28.91" cy="223.32" r="0.56"/></g><g class="cls-1"><line class="cls-2" x1="29.92" y1="223.58" x2="29.92" y2="202.06"/><circle class="cls-3" cx="29.92" cy="223.55" r="0.56"/></g><g class="cls-1"><line class="cls-2" x1="34.93" y1="222.13" x2="34.93" y2="202.06"/><circle class="cls-3" cx="34.93" cy="222.1" r="0.56"/></g><g class="cls-1"><path class="cls-2" d="M66,228.93c-.32-6-.29-23.68-.19-26.87"/><path class="cls-3" d="M66.61,228.89a.57.57,0,0,1-1.13,0,.55.55,0,0,1,.55-.57A.57.57,0,0,1,66.61,228.89Z"/></g><g class="cls-1"><line class="cls-2" x1="72.64" y1="222.01" x2="72.64" y2="202.06"/><circle class="cls-3" cx="72.64" cy="221.99" r="0.56"/></g><g class="cls-1"><line class="cls-2" x1="45.98" y1="219.16" x2="45.98" y2="202.06"/><circle class="cls-3" cx="45.98" cy="219.14" r="0.56"/></g><g class="cls-1"><line class="cls-2" x1="41.17" y1="225.78" x2="41.17" y2="202.06"/><circle class="cls-3" cx="41.17" cy="225.75" r="0.56"/></g><g class="cls-1"><line class="cls-2" x1="37.71" y1="222.78" x2="37.71" y2="202.06"/><circle class="cls-3" cx="37.71" cy="222.75" r="0.56"/></g><g class="cls-1"><line class="cls-2" x1="48.64" y1="218.54" x2="48.64" y2="202.06"/><circle class="cls-3" cx="48.64" cy="218.52" r="0.56"/></g><g class="cls-1"><line class="cls-2" x1="52.95" y1="222.24" x2="52.95" y2="202.06"/><circle class="cls-3" cx="52.95" cy="222.21" r="0.56"/></g><g class="cls-1"><line class="cls-2" x1="73.57" y1="218.98" x2="73.57" y2="202.06"/><circle class="cls-3" cx="73.57" cy="218.95" r="0.56"/></g><g class="cls-1"><line class="cls-2" x1="34.17" y1="224.16" x2="34.17" y2="202.06"/><circle class="cls-3" cx="34.17" cy="224.13" r="0.56"/></g><g class="cls-1"><line class="cls-2" x1="32.1" y1="220.08" x2="32.1" y2="202.06"/><circle class="cls-3" cx="32.1" cy="220.06" r="0.56"/></g><g class="cls-1"><line class="cls-2" x1="69.26" y1="219.31" x2="69.26" y2="202.06"/><circle class="cls-3" cx="69.26" cy="219.29" r="0.56"/></g><g class="cls-1"><line class="cls-2" x1="49.33" y1="225.62" x2="49.33" y2="202.06"/><path class="cls-3" d="M49.89,225.59a.56.56,0,1,1-.56-.56A.56.56,0,0,1,49.89,225.59Z"/></g><g class="cls-1"><path class="cls-2" d="M43,218.32V202.06"/><circle class="cls-3" cx="43.02" cy="218.29" r="0.56"/></g><g class="cls-1"><line class="cls-2" x1="58.79" y1="230.16" x2="58.79" y2="202.06"/><circle class="cls-3" cx="58.79" cy="230.13" r="0.56"/></g><g class="cls-1"><path class="cls-2" d="M45.08,225.4c0-3.57,0-23.34,0-23.34"/><circle class="cls-3" cx="45.1" cy="225.36" r="0.56"/></g><g class="cls-1"><line class="cls-2" x1="60.72" y1="221.39" x2="60.72" y2="202.06"/><circle class="cls-3" cx="60.72" cy="221.36" r="0.56"/></g><g class="cls-1"><line class="cls-2" x1="51.95" y1="224.16" x2="51.95" y2="202.06"/><circle class="cls-3" cx="51.95" cy="224.13" r="0.56"/></g><g class="cls-1"><line class="cls-2" x1="75.49" y1="219.31" x2="75.49" y2="202.06"/><path class="cls-3" d="M76.05,219.29a.56.56,0,1,1-.56-.57A.56.56,0,0,1,76.05,219.29Z"/></g><g class="cls-1"><path class="cls-2" d="M70.75,223.49c-.7-3.6-1.33-16.58-1-21.43"/><path class="cls-3" d="M71.32,223.35a.56.56,0,1,1-.65-.45A.55.55,0,0,1,71.32,223.35Z"/></g><g class="cls-1"><line class="cls-2" x1="62.87" y1="223.62" x2="62.87" y2="202.06"/><circle class="cls-3" cx="62.87" cy="223.59" r="0.56"/></g><g class="cls-1"><line class="cls-2" x1="67.8" y1="217.78" x2="67.8" y2="202.06"/><path class="cls-3" d="M68.36,217.75a.57.57,0,0,1-1.13,0,.57.57,0,1,1,1.13,0Z"/></g><g class="cls-1"><path class="cls-2" d="M56.31,225.55c-.18-4.79-.06-21.2.1-23.49"/><path class="cls-3" d="M56.89,225.51a.57.57,0,0,1-.56.57.57.57,0,1,1,0-1.13A.57.57,0,0,1,56.89,225.51Z"/></g><g class="cls-1"><line class="cls-2" x1="31.48" y1="217.93" x2="31.48" y2="202.06"/><circle class="cls-3" cx="31.48" cy="217.9" r="0.56"/></g><g class="cls-1"><path class="cls-2" d="M73.29,248c1.26-12.79,1.56-38.41,1.58-45.94"/><path class="cls-3" d="M73.84,248a.58.58,0,0,1-.61.53.58.58,0,0,1-.52-.61.56.56,0,0,1,.6-.52A.57.57,0,0,1,73.84,248Z"/></g><g class="cls-1"><line class="cls-2" x1="66.92" y1="218.17" x2="66.92" y2="202.06"/><circle class="cls-3" cx="66.92" cy="218.14" r="0.56"/></g><g class="cls-1"><path class="cls-2" d="M54,226.34c.43-5,.42-21.82.32-24.28"/><path class="cls-3" d="M54.52,226.34a.57.57,0,0,1-.59.54.58.58,0,0,1-.54-.6.57.57,0,0,1,1.13.06Z"/></g><g class="cls-1"><path class="cls-2" d="M55.35,237.49c.72-6.88,1.45-24.13,1.3-35.43"/><path class="cls-3" d="M55.9,237.5a.57.57,0,0,1-1.13-.09.57.57,0,1,1,1.13.09Z"/></g><g class="cls-1"><path class="cls-2" d="M59.79,245.78c-1.12-7.72-2.22-31-1.9-43.72"/><path class="cls-3" d="M60.37,245.69a.56.56,0,0,1-.5.62.57.57,0,0,1-.62-.51.56.56,0,0,1,1.12-.11Z"/></g><g class="cls-1"><line class="cls-2" x1="39.45" y1="218.98" x2="39.45" y2="202.06"/><path class="cls-3" d="M40,219a.57.57,0,1,1-.56-.56A.56.56,0,0,1,40,219Z"/></g><g class="cls-1"><path class="cls-2" d="M28.78,236.62c-.32-8.42-.15-29.39.13-34.56"/><path class="cls-3" d="M29.36,236.58a.57.57,0,1,1-.57-.56A.57.57,0,0,1,29.36,236.58Z"/></g><g class="cls-1"><path class="cls-2" d="M71,228.2c-.27-7.1-.17-21.84,0-26.14"/><path class="cls-3" d="M71.56,228.16a.55.55,0,0,1-.55.57.55.55,0,0,1-.57-.55.56.56,0,0,1,.55-.58A.57.57,0,0,1,71.56,228.16Z"/></g><g class="cls-1"><path class="cls-2" d="M54.38,227.48c-.42-6.34-.6-22.08-.69-25.42"/><path class="cls-3" d="M55,227.43a.57.57,0,0,1-.55.58.55.55,0,0,1-.58-.54.56.56,0,0,1,.54-.58A.57.57,0,0,1,55,227.43Z"/></g><g class="cls-1"><line class="cls-2" x1="65.77" y1="221.97" x2="65.77" y2="202.06"/><circle class="cls-3" cx="65.77" cy="221.94" r="0.56"/></g><g class="cls-1"><path class="cls-2" d="M58.49,244.86c.4-8.11.85-28.12,1-42.8"/><path class="cls-3" d="M59,244.84a.55.55,0,0,1-.57.55.57.57,0,0,1,0-1.13A.57.57,0,0,1,59,244.84Z"/></g><g class="cls-1"><path class="cls-2" d="M65.14,242.85c-1.66-6.72-3.12-29-1.6-40.79"/><path class="cls-3" d="M65.71,242.7a.56.56,0,0,1-.44.66.56.56,0,0,1-.23-1.1A.56.56,0,0,1,65.71,242.7Z"/></g><g class="cls-1"><path class="cls-2" d="M38.86,256c2.89-17.39,3.21-41.23,2.52-53.95"/><path class="cls-3" d="M39.41,256.07a.56.56,0,0,1-.64.47.56.56,0,1,1,.17-1.11A.56.56,0,0,1,39.41,256.07Z"/></g><g class="cls-1"><path class="cls-2" d="M37.06,224.15c.28-5.43.25-18.82.12-22.09"/><path class="cls-3" d="M37.61,224.13a.57.57,0,0,1-1.13,0,.57.57,0,0,1,.58-.55A.55.55,0,0,1,37.61,224.13Z"/></g><g class="cls-1"><path class="cls-2" d="M47.85,231.58c1-7,.77-25.9.34-29.52"/><path class="cls-3" d="M48.4,231.62a.56.56,0,1,1-.49-.63A.58.58,0,0,1,48.4,231.62Z"/></g><g class="cls-1"><path class="cls-2" d="M64.92,228.06c-.24-4.75-.45-18.89-.28-26"/><path class="cls-3" d="M65.5,228a.55.55,0,0,1-.55.57.56.56,0,1,1,.55-.57Z"/></g><g class="cls-1"><path class="cls-2" d="M32.36,234.28c1.76-9.21,2-26.12,1.76-32.22"/><path class="cls-3" d="M32.91,234.34a.57.57,0,1,1-.47-.65A.56.56,0,0,1,32.91,234.34Z"/></g><g class="cls-1"><path class="cls-2" d="M45,233.44c-.19-5.19-.38-24.18-.39-31.38"/><path class="cls-3" d="M45.54,233.4a.57.57,0,0,1-1.13,0,.57.57,0,0,1,.56-.57A.55.55,0,0,1,45.54,233.4Z"/></g><g class="cls-1"><line class="cls-2" x1="75.92" y1="225.58" x2="75.92" y2="202.06"/><circle class="cls-3" cx="75.92" cy="225.55" r="0.56"/></g><g class="cls-1"><path class="cls-2" d="M49.35,247.73C48,239,46.72,215.94,47,202.06"/><path class="cls-3" d="M49.93,247.63a.56.56,0,0,1-.5.62.55.55,0,0,1-.62-.49.57.57,0,0,1,.49-.63A.58.58,0,0,1,49.93,247.63Z"/></g><g class="cls-1"><path class="cls-2" d="M43.18,271.83c-1-11.49-2-39.28-2.44-69.77"/><path class="cls-3" d="M43.75,271.76a.56.56,0,0,1-.52.6.55.55,0,0,1-.6-.52.55.55,0,0,1,.52-.6A.56.56,0,0,1,43.75,271.76Z"/></g><g class="cls-1"><path class="cls-2" d="M51.13,273.38c1.67-22,1.23-63.23,1.1-71.32"/><path class="cls-3" d="M51.68,273.38a.56.56,0,0,1-.59.53.57.57,0,0,1-.54-.59.56.56,0,0,1,.59-.53A.57.57,0,0,1,51.68,273.38Z"/></g><g class="cls-1"><line class="cls-2" x1="51.45" y1="218.52" x2="51.45" y2="202.06"/><circle class="cls-3" cx="51.45" cy="218.5" r="0.56"/></g><g class="cls-1"><path class="cls-2" d="M53.23,252.64c-2.91-4.07-5.42-20.8-5.77-50.58"/><path class="cls-3" d="M53.69,252.27a.57.57,0,1,1-.79-.12A.56.56,0,0,1,53.69,252.27Z"/></g><g class="cls-1"><path class="cls-2" d="M50.27,229.06c-.3-6.25-.29-24.08-.24-27"/><circle class="cls-3" cx="50.28" cy="229.03" r="0.56" transform="translate(-67.53 26.29) rotate(-17.78)"/></g><g class="cls-1"><path class="cls-2" d="M40.05,230.12c.22-5.69.32-20-.11-28.06"/><path class="cls-3" d="M40.6,230.1a.58.58,0,0,1-.58.56.57.57,0,0,1-.55-.58.56.56,0,0,1,.57-.55A.57.57,0,0,1,40.6,230.1Z"/></g><g class="cls-1"><path class="cls-2" d="M32.57,241.74c3.23-10.87,3.49-33.84,3.21-39.68h-.07"/><path class="cls-3" d="M33.09,241.84a.56.56,0,0,1-.68.42.57.57,0,0,1-.41-.69.56.56,0,0,1,.68-.41A.55.55,0,0,1,33.09,241.84Z"/></g><g class="cls-1"><path class="cls-2" d="M32.67,219.77c0-4.19-.05-15.81-.08-17.71"/><path class="cls-3" d="M33.24,219.73a.57.57,0,1,1-.57-.56A.57.57,0,0,1,33.24,219.73Z"/></g><g class="cls-1"><path class="cls-2" d="M54.89,218.26c0-3.15,0-15.26,0-16.2"/><circle class="cls-3" cx="54.9" cy="218.23" r="0.56"/></g><g class="cls-1"><path class="cls-2" d="M1.66,43.35a141,141,0,0,0,.48,23.56s.43,4.13,1,7.58c1.34,8.1,5,19.66,24.76,52,3.71,6.08,7.26,11.7,9.7,20.41A79.13,79.13,0,0,1,40,161.27a133,133,0,0,1,.45,20.64v20.15"/><path class="cls-3" d="M1.1,43.35a.56.56,0,0,1,.6-.53.55.55,0,0,1,.53.59.56.56,0,0,1-.59.53A.57.57,0,0,1,1.1,43.35Z"/></g><g class="cls-1"><path class="cls-2" d="M5.28,31.86a263.85,263.85,0,0,0,2.66,31c2.19,14.76,3.72,25.06,9.37,37.48a123.39,123.39,0,0,0,9.93,17.51c8.66,12.9,13.55,15.24,16.84,25.43A80.31,80.31,0,0,1,47,158.15a106.4,106.4,0,0,1,.78,14.5v29.41"/><path class="cls-3" d="M4.73,31.92a.55.55,0,0,1,.53-.59.56.56,0,0,1,.6.53.57.57,0,0,1-.54.59A.55.55,0,0,1,4.73,31.92Z"/></g><g class="cls-1"><path class="cls-2" d="M15.19,48.15A168.71,168.71,0,0,0,17.87,78.4,164.61,164.61,0,0,0,23.67,101c2.38,7.17,3.92,11.69,7.25,17.18s4.72,5.71,11.15,13.83c6.14,7.74,10.49,13.22,13.61,20.75a55.53,55.53,0,0,1,4.13,20.3v29"/><path class="cls-3" d="M14.64,48.19a.57.57,0,0,1,.55-.58.57.57,0,0,1,.58.55.57.57,0,0,1-.55.58A.56.56,0,0,1,14.64,48.19Z"/></g><g class="cls-1"><path class="cls-2" d="M52,31.08c-.18,18.64-.29,28-1.89,35.83a77.43,77.43,0,0,0-1.78,13.83A72.65,72.65,0,0,0,50.1,99.59c2.34,10,6.36,16.92,10.38,23.87,4.85,8.39,6.2,8.59,8.92,14a55.22,55.22,0,0,1,5.47,25.32v39.23"/><path class="cls-3" d="M51.43,31.1a.56.56,0,1,1,.55.57A.55.55,0,0,1,51.43,31.1Z"/></g><g class="cls-1"><path class="cls-2" d="M57.68,34.77C57,75.2,55,83.15,52.56,89.89c-3.5,9.71-6.06,11.91-12.05,28.55-3.24,9-6.21,17.39-8.14,28.67a130.16,130.16,0,0,0-1.67,29.33s1,25.62,0,25.62"/><path class="cls-3" d="M57.11,34.77a.56.56,0,0,1,.58-.54.57.57,0,0,1,0,1.13A.56.56,0,0,1,57.11,34.77Z"/></g><g class="cls-1"><path class="cls-2" d="M31,41.56A156.4,156.4,0,0,0,36.72,75.5c1.91,6.45,4.06,11.62,8.36,22,4.91,11.8,6.21,13.33,10.38,24,5.77,14.77,6.83,20.91,7.14,22.87.52,3.27.63,5.34,1.11,16.84.35,8.28.17,34.44.42,40.9"/><path class="cls-3" d="M30.4,41.64a.57.57,0,1,1,.61.52A.58.58,0,0,1,30.4,41.64Z"/></g><g class="cls-1"><path class="cls-2" d="M79.64,42.79A265.87,265.87,0,0,1,76.2,76.06c-3.19,19-6.74,27-10.15,32.68-2.58,4.3-6,9-6,9-6.11,8.4-9,10.21-12.38,15.28-3.62,5.36-4.88,9.86-7.14,18a114.16,114.16,0,0,0-4.13,30.45v20.6"/><path class="cls-3" d="M79.06,42.78a.56.56,0,0,1,.6-.52.57.57,0,0,1,.53.6.55.55,0,0,1-.6.52A.56.56,0,0,1,79.06,42.78Z"/></g><g class="cls-1"><path class="cls-2" d="M75.21,46c.38,15.73.54,23.7-1.68,33.37a132.24,132.24,0,0,1-11.05,29.34c-1.68,3.11-3.43,6-6,11.37a141.26,141.26,0,0,0-7.14,17.63,144.37,144.37,0,0,0-6.24,31.56c-.45,4.39-.67,8.07-.78,10.71v22.05"/><circle class="cls-3" cx="75.21" cy="46.06" r="0.56" transform="translate(13.35 108.91) rotate(-76.94)"/></g><g class="cls-1"><path class="cls-2" d="M90.45,30.74a253.14,253.14,0,0,1,2.71,40.85c-.31,19.35-2.72,27-4.35,31.24a73.19,73.19,0,0,1-12,20.41c-3.15,3.77-6.75,6.92-13.83,13-16,13.83-16.25,11.81-20,17-7.88,10.9-9.34,23.75-9.6,26.44-.13,1.4-.19,2.56-.22,3.34v19"/><path class="cls-3" d="M89.88,30.84a.56.56,0,1,1,.63.49A.56.56,0,0,1,89.88,30.84Z"/></g><g class="cls-1"><path class="cls-2" d="M101.31,18.59c.15,9.12.79,51.82-.34,70.29a58,58,0,0,1-1.12,8.48A59.31,59.31,0,0,1,89.14,120.9c-1.89,2.47-8.92,8.6-23,20.85a54.2,54.2,0,0,0-8.26,8.37c-6.22,8.08-7.55,15.24-7.81,16.73a33.68,33.68,0,0,0-.44,7v28.18"/><path class="cls-3" d="M100.74,18.62a.57.57,0,0,1,.56-.57.57.57,0,1,1,0,1.13A.56.56,0,0,1,100.74,18.62Z"/></g><g class="cls-1"><path class="cls-2" d="M24.55,14.68c-.17,10.4-.17,33.13,3,55.58C29.05,80.62,30.92,89,34.38,97.92a92.75,92.75,0,0,0,6.24,13.49C52.16,131.6,65,134.05,67.73,149.12a94,94,0,0,1,.78,10.15,196.78,196.78,0,0,1,0,20.07v22.72"/><path class="cls-3" d="M24,14.71a.57.57,0,0,1,.57-.56.57.57,0,0,1,.56.57.56.56,0,0,1-.57.56A.57.57,0,0,1,24,14.71Z"/></g><g class="cls-1"><path class="cls-2" d="M61,34.76A310.9,310.9,0,0,0,60,84c1.07,17.68,1.66,27.08,5,39.93,2.46,9.38,4.77,14.37,5.35,24.42.31,5.25.15,11.85-.11,22.42-.11,4.47-.23,8.17-.33,10.71v20.6"/><path class="cls-3" d="M60.43,34.74a.55.55,0,0,1,.6-.51.56.56,0,1,1-.6.51Z"/></g><g class="cls-1"><path class="cls-2" d="M45,17.7c-.32,17.55-.35,31.73-.32,41.51,0,12.85.19,16.79-.67,23.65-2.57,20.56-8.29,20.38-9.26,34-1.31,18.34,8.72,23,10.71,50.75a120.92,120.92,0,0,1,.11,15.62s.34,18.48,0,18.81"/><path class="cls-3" d="M44.41,17.72a.56.56,0,1,1,.55.57A.55.55,0,0,1,44.41,17.72Z"/></g><g class="cls-1"><path class="cls-2" d="M1.25,95.65C8,126.16,16.76,139.05,24,145a71.17,71.17,0,0,1,9,8.92c4.38,5.14,10.5,12.51,11,22.53a26.78,26.78,0,0,1-.33,5.91v19.71"/><path class="cls-3" d="M.72,95.81a.57.57,0,0,1,1.1-.27.57.57,0,0,1-.42.69A.58.58,0,0,1,.72,95.81Z"/></g><g class="cls-1"><path class="cls-2" d="M95.48,60.26a59.05,59.05,0,0,1,4.59,22.6c0,4.48-.08,16.81-7.25,28.55-3.34,5.49-4.75,5.14-9.14,12.5s-3.59,8.64-8.14,17-5.86,8-9.93,16.29c-3,6.17-4.22,10.18-4.58,14.38a33.2,33.2,0,0,0,.34,8.26v22.27"/><path class="cls-3" d="M95,60.5a.57.57,0,0,1,.33-.73.56.56,0,1,1-.33.73Z"/></g><g class="cls-1"><path class="cls-2" d="M101.6,97.89c1.84,12.75-.84,20.65-3.76,25.57-.84,1.42-.46.51-9.7,12.27a129.27,129.27,0,0,0-10.93,15.39,35.19,35.19,0,0,0-4.8,11.71,31.52,31.52,0,0,0-.56,6.36v32.87"/><path class="cls-3" d="M101,98a.56.56,0,0,1,.49-.62.57.57,0,0,1,.63.5.56.56,0,0,1-.5.62A.56.56,0,0,1,101,98Z"/></g><g class="cls-1"><path class="cls-2" d="M93.67,120.54c1.14,9.73-1.24,14.86-3.63,17.76-2.2,2.64-4.25,3.22-7.14,6.47-.89,1-3.13,3.76-6.36,13.27-4.65,13.68-5.55,40.18-5.8,44"/><path class="cls-3" d="M93.09,120.61a.57.57,0,0,1,1.13-.1.57.57,0,1,1-1.13.1Z"/></g><g class="cls-1"><path class="cls-2" d="M92.91,103c-.36,6.82-2,16.41-8.34,24.9-6.56,8.76-10.87,6.61-19.52,16.85a62.19,62.19,0,0,0-13.83,31.45,57.34,57.34,0,0,0-.45,8.39v17.45"/><path class="cls-3" d="M92.32,103a.57.57,0,1,1,.51.61A.56.56,0,0,1,92.32,103Z"/></g><g class="cls-1"><path class="cls-2" d="M7.38,65.1a108.12,108.12,0,0,0,3.24,26.79c2.51,9.94,7.69,21.15,18,43.17,5.24,11.26,6.63,13.76,8.14,19.41a78,78,0,0,1,2,28.78v18.81"/><path class="cls-3" d="M6.84,65.15a.56.56,0,0,1,.54-.58.55.55,0,0,1,.58.54.56.56,0,1,1-1.12,0Z"/></g><g class="cls-1"><path class="cls-2" d="M81.92,50.92a84.48,84.48,0,0,1,3,23.35,68.53,68.53,0,0,1-3.56,22.87A67.86,67.86,0,0,1,71.07,116c-5.28,7.06-6.29,5.85-10.93,12-7.69,10.27-10.23,20.72-11.49,26.1a77.91,77.91,0,0,0-2,15.62v32.31"/><path class="cls-3" d="M81.36,51.08a.57.57,0,1,1,.68.42A.57.57,0,0,1,81.36,51.08Z"/></g><g class="cls-1"><path class="cls-2" d="M29.41,97c.54,5,1.06,11.36,1.29,18.76a218.49,218.49,0,0,1-.9,31.91c-.8,7.41-1.69,11.56-1.67,19.74a112.34,112.34,0,0,0,.78,12.83v21.82"/><path class="cls-3" d="M28.85,97.08a.56.56,0,1,1,.61.51A.56.56,0,0,1,28.85,97.08Z"/></g><g class="cls-1"><path class="cls-2" d="M13.55,140.92a61.58,61.58,0,0,1,11.9,18.68A61.68,61.68,0,0,1,29.92,180v22.05"/><path class="cls-3" d="M13.13,141.32a.57.57,0,0,1,0-.79.56.56,0,1,1,0,.79Z"/></g><g class="cls-1"><path class="cls-2" d="M20.5,126.56c-.38,5.47.21,12.5,5.18,17.42.61.61.67.57,1.33,1.23,2.77,2.74,5.44,7.08,7,20.08a122.8,122.8,0,0,1,.89,16.17v20.6"/><path class="cls-3" d="M20,126.56a.57.57,0,0,1,1.13.06.57.57,0,0,1-.6.53A.56.56,0,0,1,20,126.56Z"/></g><g class="cls-1"><path class="cls-2" d="M87.67,87.51a60.32,60.32,0,0,1-2.1,28.81c-3.57,10.57-7,10-12.27,23.2-5.78,14.5-6.78,28.09-7.25,35.14-.35,5.35-.33,24.11-.22,27.4"/><path class="cls-3" d="M87.09,87.62a.56.56,0,1,1,.63.49A.58.58,0,0,1,87.09,87.62Z"/></g><g class="cls-1"><path class="cls-2" d="M97.58,120.2c-1,12.54-5,20-8.66,24.57-3,3.82-4.1,3.47-7.25,7.91-6.44,9.09-8,18.91-8.48,22.54a56.62,56.62,0,0,0-.55,6.35v20.49"/><path class="cls-3" d="M97,120.17a.56.56,0,0,1,.62-.5.56.56,0,0,1,.5.62.56.56,0,0,1-1.12-.12Z"/></g><g class="cls-1"><path class="cls-2" d="M64.73,48.8a100.82,100.82,0,0,1,2.66,24.91,85.12,85.12,0,0,1-4,26,60.75,60.75,0,0,1-5.91,13.72c-1.54,2.54-3,4.41-6.36,10-2.63,4.35-3.41,5.93-4,7.92a25.13,25.13,0,0,0-.89,9.15A205,205,0,0,1,46,162.17v39.89"/><path class="cls-3" d="M64.16,49a.57.57,0,1,1,.67.44A.57.57,0,0,1,64.16,49Z"/></g><g class="cls-1"><path class="cls-2" d="M12.29,72.32c-.78,16.13,2.4,27.49,5.49,34.94,2.4,5.76,4.41,8.37,11.62,23.92,4.15,8.94,6.22,13.41,7.62,17.7a87.11,87.11,0,0,1,4.15,28.93v24.25"/><path class="cls-3" d="M11.74,72.34a.56.56,0,0,1,.58-.55.56.56,0,1,1,0,1.12A.56.56,0,0,1,11.74,72.34Z"/></g><g class="cls-1"><path class="cls-2" d="M10.6,114.93a75.29,75.29,0,0,0,8.8,21.33c6.68,10.94,12.6,14,16.31,23.7a41.31,41.31,0,0,1,2,20.85v21.25"/><circle class="cls-3" cx="10.63" cy="114.95" r="0.56" transform="translate(-95.14 68.7) rotate(-61.1)"/></g><g class="cls-1"><path class="cls-2" d="M71.8,34.54c0,12.31,0,22.68,0,30.71,0,4.06,0,8.66-.31,14.85-.28,6.49-.5,11.47-1.31,17.54C68.7,108.76,68,114.32,65.26,118.8c-4.55,7.52-9.18,7.11-13.24,15.85A41,41,0,0,0,49,145.34c-1.17,6.52-.8,11.22-.54,16.47.27,5.54.49,13.41.23,23.23v17"/><circle class="cls-3" cx="71.8" cy="34.57" r="0.56"/></g><g class="cls-1"><path class="cls-2" d="M35.7,77.63a104.72,104.72,0,0,0,3.78,18.24c1.93,6.36,3.27,8.52,7.08,20.39a111.15,111.15,0,0,1,3.31,11.92A117.62,117.62,0,0,1,51.64,140c.38,3.68.6,7,.84,15.08.42,13.69.47,26.31.47,26.31v20.71"/><circle class="cls-3" cx="35.71" cy="77.65" r="0.56" transform="translate(-46.33 53.7) rotate(-49.02)"/></g><g class="cls-1"><path class="cls-2" d="M42.13.53a229.17,229.17,0,0,0,1,50.64C45.35,67.57,47.12,81,54.25,97.33c5.74,13.13,10,16.89,13.78,31.08,2.4,9.09,3.14,17,4.15,27.78,1.09,11.61,1.36,21.37,1.39,28.42v17.45"/><path class="cls-3" d="M41.57.53a.57.57,0,0,1,.6-.53.56.56,0,0,1,.53.6A.57.57,0,1,1,41.57.53Z"/></g><g class="cls-1"><path class="cls-2" d="M5.74,119.09c3,14.19,8.54,21.49,13.2,25.56,2.21,1.93,5.35,4.11,8.46,8.69a39.73,39.73,0,0,1,5.85,14.47,45.33,45.33,0,0,1,.92,11.62v22.63"/><path class="cls-3" d="M5.21,119.25a.57.57,0,0,1,.42-.68.56.56,0,0,1,.68.41.57.57,0,0,1-1.1.27Z"/></g><g class="cls-1"><path class="cls-2" d="M13.57,144.87c2.21,12.44,6.49,17.7,10.14,20.17a19.11,19.11,0,0,1,3,2.23c4.71,4.48,5.48,11.21,5.39,16.23v18.56"/><path class="cls-3" d="M13,145a.56.56,0,0,1,.44-.67A.57.57,0,1,1,13,145Z"/></g><g class="cls-1"><path class="cls-2" d="M81.87,100.77A18.58,18.58,0,0,1,81.72,112c-1.53,4.24-4.11,5.48-6.77,10.31-1.1,2-2.27,4.7-3.54,11.93-1.7,9.65-1.82,17.41-1.92,26.54-.13,11-.2,19.38-.23,23.54v17.79"/><path class="cls-3" d="M81.3,100.93a.58.58,0,0,1,.42-.68.57.57,0,1,1-.42.68Z"/></g><g class="cls-1"><path class="cls-2" d="M80.83,68.39A92.57,92.57,0,0,1,80,87.33a79.1,79.1,0,0,1-5.54,20.54c-3,7-6.63,12.38-13.46,22.54-3.4,5.06-3.65,5.07-4.85,7.24-4,7.14-4.72,13.59-5.77,22a133.41,133.41,0,0,0-1,18.31v24.1"/><path class="cls-3" d="M80.26,68.45a.57.57,0,0,1,.54-.59.57.57,0,1,1-.54.59Z"/></g><g class="cls-1"><path class="cls-2" d="M20.55,72a91.44,91.44,0,0,0,1.08,32.48,88.83,88.83,0,0,0,7.85,22.39C34.16,136,37,137.26,39.56,145.19c1.6,4.86,2,9.74,2.69,19.31.57,7.66.77,14.63.77,20.77v16.79"/><path class="cls-3" d="M20,72a.56.56,0,0,1,1.12.14.55.55,0,0,1-.62.49A.58.58,0,0,1,20,72Z"/></g><g class="cls-1"><path class="cls-2" d="M31.91,97.63A98,98,0,0,0,37,121a126.11,126.11,0,0,0,8.54,18.77c5.79,10.36,9.7,13.9,11.93,22.7a43.53,43.53,0,0,1,1.3,10.92v28.64"/><path class="cls-3" d="M31.37,97.72a.56.56,0,0,1,.49-.62.58.58,0,0,1,.63.5.56.56,0,0,1-.5.62A.56.56,0,0,1,31.37,97.72Z"/></g><g class="cls-1"><path class="cls-2" d="M13.08,133.79a58.52,58.52,0,0,0,14.55,15.55c3.74,2.72,4.89,2.81,7.7,5.54a33,33,0,0,1,9.31,17.54,23,23,0,0,1,.46,5.77c-.08.7,0,23.87,0,23.87"/><path class="cls-3" d="M12.64,134.12a.56.56,0,1,1,.78.15A.55.55,0,0,1,12.64,134.12Z"/></g><g class="cls-1"><path class="cls-2" d="M76.69,110.93A29.1,29.1,0,0,1,76,127.88a39.58,39.58,0,0,1-2.54,5c-7.38,13.33-11.17,16.38-12.39,23.93-.11.67-.17,2.4-.31,5.84-.31,8.3-.22,15-.07,19.55v19.86"/><path class="cls-3" d="M76.12,111.07a.57.57,0,0,1,1.11-.22.57.57,0,1,1-1.11.22Z"/></g><g class="cls-1"><path class="cls-2" d="M75.19,93.94A36.14,36.14,0,0,1,71.41,111c-1.63,3.17-2.94,4.38-4.69,7.77-3.15,6.09-2,9.25-4.16,16.08a51.8,51.8,0,0,1-5,10.62c-3.22,6-6.4,16.05-5.61,33.93v22.63"/><path class="cls-3" d="M74.61,94a.55.55,0,0,1,.57-.55.56.56,0,1,1,0,1.12A.55.55,0,0,1,74.61,94Z"/></g><g class="cls-1"><path class="cls-2" d="M89.55,69.4A130.33,130.33,0,0,1,90,94.56a107.26,107.26,0,0,1-3.61,21.77c-2.55,9.1-3.83,13.64-6.23,18.16a34.64,34.64,0,0,0-4.47,12.77,30.77,30.77,0,0,0-.23,4.39c.08,6.28.09,17.5.08,32.62v17.79"/><circle class="cls-3" cx="89.54" cy="69.42" r="0.56" transform="translate(6.77 146.8) rotate(-80.86)"/></g><g class="cls-1"><path class="cls-2" d="M86.93,128.55a243.79,243.79,0,0,1-7,28.87,106.34,106.34,0,0,1-3.77,10.7c-2.56,6-4.07,7.68-5.31,12-.74,2.6-1.47,16.82-1.07,21.94"/><path class="cls-3" d="M86.36,128.47a.57.57,0,1,1,.44.67A.58.58,0,0,1,86.36,128.47Z"/></g><g class="cls-1"><path class="cls-2" d="M56.76,132.44a18.51,18.51,0,0,1,2.88,4.75A19,19,0,0,1,61,143.73c.27,5.51,1,11,1.07,16.54,0,4.6.17,11.28.77,19.69v22.1"/><path class="cls-3" d="M56.3,132.82a.56.56,0,1,1,.79.11A.56.56,0,0,1,56.3,132.82Z"/></g><g class="cls-1"><path class="cls-2" d="M35.77,53.31A142.46,142.46,0,0,0,48.18,97a128.7,128.7,0,0,0,8,14.7c3.52,5.26,4.15,5,5.92,8.38,3.06,5.85,3.62,11.27,4.31,18.7.29,3.06.1,2.59.46,12.47.35,9.67.57,11.25.77,17.77.12,4,.24,9.72.16,16.77v16.25"/><path class="cls-3" d="M35.24,53.42a.56.56,0,1,1,.64.48A.56.56,0,0,1,35.24,53.42Z"/></g><g class="cls-1"><path class="cls-2" d="M79.42,113.78a37.22,37.22,0,0,1,.07,11.4c-.94,6.28-3.27,10.75-5.46,14.85-2.88,5.39-3.5,4.84-9.7,14.62-5.1,8-6.07,10.62-6.69,13A51.17,51.17,0,0,0,56.33,178c-.21,3.94-.09,21.64.08,24"/><path class="cls-3" d="M78.86,113.89a.56.56,0,1,1,.64.48A.55.55,0,0,1,78.86,113.89Z"/></g><g class="cls-1"><path class="cls-2" d="M62.41,42.7c0,12.62-.1,24.48-.31,36a92.7,92.7,0,0,1-3.46,25.47,54.88,54.88,0,0,1-2.31,6.54C52.78,118.9,48.75,122.1,44.25,128c-2.55,3.32-8.63,11.4-11.31,22.47-1.21,5-1.34,9.63-1.61,18.93-.2,6.73,0,12.35.15,16.31v16.4"/><path class="cls-3" d="M61.84,42.72a.57.57,0,0,1,.57-.56.57.57,0,0,1,.56.57.57.57,0,1,1-1.13,0Z"/></g><g class="cls-1"><path class="cls-2" d="M55.6,63.91c-2.27,15.28-.44,26.72,1.67,34.37,3.56,12.93,8.44,16.91,12.5,33.92,1.84,7.72,2.46,13.73,3.46,23.39,1.31,12.6,1.62,38.84,1.64,46.47"/><path class="cls-3" d="M55.05,63.87a.56.56,0,1,1,.49.63A.56.56,0,0,1,55.05,63.87Z"/></g><g class="cls-1"><path class="cls-2" d="M35.44,87.93c-1.16,16.33,2.6,27.1,6.36,34,5.38,9.86,11.28,12.73,17.7,27.36a88.59,88.59,0,0,1,5.81,18.44,85.82,85.82,0,0,1,1.61,17.7v16.64"/><path class="cls-3" d="M34.9,87.93a.56.56,0,1,1,.54.59A.57.57,0,0,1,34.9,87.93Z"/></g><g class="cls-1"><path class="cls-2" d="M23.21,89.29a66.48,66.48,0,0,0,4.23,26.2C31,124.78,33.5,124.4,41.8,141a159.29,159.29,0,0,1,9.53,24,69.71,69.71,0,0,1,2.6,12.26c.48,4.18.47,22.26.37,24.81"/><path class="cls-3" d="M22.66,89.31a.57.57,0,1,1,1.13,0,.57.57,0,0,1-1.13,0Z"/></g><g class="cls-1"><path class="cls-2" d="M31.11,68.37a66.28,66.28,0,0,0,1,18.28c1.07,5.36,2.81,14.07,8.79,22.4,2,2.8,3.77,4.54,5.45,8.42a31.51,31.51,0,0,1,2.47,12.13c.4,12.91,4,15.26,6.44,36.51.74,6.48,1.52,24.35,1.36,35.95"/><path class="cls-3" d="M30.56,68.37a.57.57,0,1,1,.54.59A.57.57,0,0,1,30.56,68.37Z"/></g><g class="cls-1"><path class="cls-2" d="M65.93,77.27a77.08,77.08,0,0,1,2,23.74c-.23,3.13-.42,3.1-1.48,11.51-1.7,13.43-1.57,16.42-2.73,24.87-1.43,10.45-2.39,11.43-3.83,20.43-1.15,7.13-2.31,31.26-2,44.24"/><path class="cls-3" d="M65.37,77.42a.57.57,0,0,1,1.11-.24.57.57,0,0,1-.44.67A.57.57,0,0,1,65.37,77.42Z"/></g><g class="cls-1"><path class="cls-2" d="M17.74,95.47a70,70,0,0,0,2.52,26.58c3.88,12.9,9.61,17.57,14.36,30.07a79.68,79.68,0,0,1,4.83,32.49v17.45"/><path class="cls-3" d="M17.19,95.47a.56.56,0,1,1,.53.6A.56.56,0,0,1,17.19,95.47Z"/></g><g class="cls-1"><path class="cls-2" d="M59.17,90.15a68.31,68.31,0,0,1-8.71,24.1c-4.1,6.88-7.62,7.21-12.38,15.22a64.43,64.43,0,0,0-7.42,19.43c-1.33,5.93-1.52,10.28-1.86,18.07-.35,8-.18,29.81.11,35.09"/><path class="cls-3" d="M58.59,90.07a.56.56,0,0,1,.66-.45.56.56,0,1,1-.66.45Z"/></g><g class="cls-1"><path class="cls-2" d="M83.17,80c3.34,11.4,3,20.22,2.07,26.22-.41,2.57-.74,3.41-4.46,16.59s-5.63,20-6.06,21.91A169.7,169.7,0,0,0,71,175.39c-.3,6.87-.19,22.26,0,26.67"/><path class="cls-3" d="M82.61,80.16a.56.56,0,0,1,1.09-.29.56.56,0,0,1-.39.69A.58.58,0,0,1,82.61,80.16Z"/></g><g class="cls-1"><path class="cls-2" d="M85.94,40.81a184,184,0,0,1,.33,31.61c-1,12.59-1.87,23.26-7.53,35.63-2.43,5.29-3.26,4.74-9,14.91-6,10.67-9,16-11.15,22.74-2.55,7.94-3.1,15.43-4.2,30.41-.43,5.95-.63,22.51-.72,25.95"/><path class="cls-3" d="M85.37,40.88a.56.56,0,1,1,1.12-.08.56.56,0,0,1-1.12.08Z"/></g><g class="cls-1"><path class="cls-2" d="M96.72,87.56c2.12,6.7,3.89,16.69.41,27-2.5,7.42-7.27,13.65-9.12,16.08-4.66,6.09-6.44,6.25-10.14,11.73s-5.23,10.24-7.33,16.79a115.94,115.94,0,0,0-4.77,22.46v20.44"/><path class="cls-3" d="M96.17,87.75a.56.56,0,1,1,.71.38A.57.57,0,0,1,96.17,87.75Z"/></g><g class="cls-1"><path class="cls-2" d="M60.76,57.89a116.32,116.32,0,0,1,2.92,26.26,57.36,57.36,0,0,1-1.16,12.31c-1.32,6-2.66,6.81-4.49,13.18A63.44,63.44,0,0,0,55.57,127c0,5.24.74,6.3,1.74,15.2.55,4.94.76,8.87,1.16,16.51s.87,28.32,1,43.33"/><path class="cls-3" d="M60.19,58a.56.56,0,1,1,.66.45A.57.57,0,0,1,60.19,58Z"/></g><g class="cls-1"><path class="cls-2" d="M80.43,93.46A35,35,0,0,1,84,105.15a37.53,37.53,0,0,1-2.31,17.09c-6.92,20.08-12.85,26.14-16.37,38.52-1.71,6-3.29,29.18-1.73,41.3"/><path class="cls-3" d="M79.92,93.74a.57.57,0,0,1,.27-.75.56.56,0,1,1-.27.75Z"/></g><g class="cls-1"><path class="cls-2" d="M33.28,123.91a204.47,204.47,0,0,1,5.49,23.67c3,17.44,3.31,41.63,2.61,54.48"/><path class="cls-3" d="M32.73,124.09a.56.56,0,0,1,.39-.69.58.58,0,0,1,.7.4.56.56,0,0,1-1.09.29Z"/></g><g class="cls-1"><path class="cls-2" d="M26.84,139.66a98.94,98.94,0,0,1,8.31,24.43A114.18,114.18,0,0,1,37,179.44c.31,5,.28,19.24.15,22.62"/><path class="cls-3" d="M26.32,139.93a.57.57,0,0,1,.29-.75.55.55,0,0,1,.74.29.56.56,0,0,1-.28.74A.57.57,0,0,1,26.32,139.93Z"/></g><g class="cls-1"><path class="cls-2" d="M40,122.26c-2.83,17.17-.33,27.9,2.68,34.64A58.43,58.43,0,0,1,47.77,172c1.15,6.49.86,26.34.42,30.05"/><path class="cls-3" d="M39.49,122.21a.56.56,0,1,1,.48.63A.55.55,0,0,1,39.49,122.21Z"/></g><g class="cls-1"><path class="cls-2" d="M61.15,81.5c.31,6,.38,11,.39,14.46,0,8.82-.35,12.88-.42,25.25,0,6.42,0,9.68.21,12,.85,7.79,2.39,8.81,3.52,17.38a94.63,94.63,0,0,1,.72,14.49c-.06,4.19-.33,5.76-.62,10.45-.25,4.12-.49,19.13-.31,26.53"/><circle class="cls-3" cx="61.14" cy="81.52" r="0.56"/></g><g class="cls-1"><path class="cls-2" d="M22.27,142.16a96.81,96.81,0,0,1,10,27.16c1.85,9.07,2.12,26.53,1.86,32.74"/><path class="cls-3" d="M21.77,142.45a.58.58,0,0,1,.24-.76.56.56,0,0,1,.76.25.56.56,0,0,1-.24.76A.57.57,0,0,1,21.77,142.45Z"/></g><g class="cls-1"><path class="cls-2" d="M39,119.8A44.15,44.15,0,0,1,44.47,133c.93,4,1,7.19,1.24,12.52.14,3.87,0,7.15-.21,13.56-.19,5.17-.34,7.17-.52,11.07-.19,4.26-.4,24.44-.41,31.91"/><path class="cls-3" d="M38.46,120.11a.56.56,0,1,1,.77.22A.56.56,0,0,1,38.46,120.11Z"/></g><g class="cls-1"><path class="cls-2" d="M86,123.19c1.27,10.4-.34,18-2.13,23.06-2.67,7.56-7.08,13.47-8,24.31a45.37,45.37,0,0,0,0,7.45v24.05"/><path class="cls-3" d="M85.45,123.27a.56.56,0,0,1,.51-.61.56.56,0,0,1,.11,1.12A.57.57,0,0,1,85.45,123.27Z"/></g><g class="cls-1"><path class="cls-2" d="M70.11,85a68,68,0,0,1,.33,18.31,42.75,42.75,0,0,1-2.18,10.24c-2.94,8.08-7.55,11-11.38,16.14-4,5.34-5.15,12.29-7.45,26.18-1.38,8.34-2.71,32-2.48,46.19"/><path class="cls-3" d="M69.54,85.11a.56.56,0,0,1,.48-.63.57.57,0,0,1,.64.48.58.58,0,0,1-.49.64A.56.56,0,0,1,69.54,85.11Z"/></g><g class="cls-1"><path class="cls-2" d="M46,49.83C46.3,64,46.16,76,45.92,85.31c-.21,7.81-.49,13.9-.63,16.65-.74,15.2-1.77,26.44-2.06,29.8-1,11.15-2.09,39.34-2.49,70.3"/><circle class="cls-3" cx="46.02" cy="49.86" r="0.56" transform="translate(-18.42 28.62) rotate(-29.05)"/></g><g class="cls-1"><path class="cls-2" d="M47.22,90.8q1.19,10.23,2.21,20.79c.94,9.64,1.53,17,1.66,18.62,1.71,21.91,1.27,63.7,1.14,71.85"/><path class="cls-3" d="M46.66,90.89a.56.56,0,0,1,.5-.62.57.57,0,0,1,.62.5.56.56,0,0,1-.5.62A.56.56,0,0,1,46.66,90.89Z"/></g><g class="cls-1"><path class="cls-2" d="M33.13,136c5.5,6,14.63,17.73,17.52,34.67a64.12,64.12,0,0,1,.8,14.43v17"/><path class="cls-3" d="M32.72,136.37a.56.56,0,0,1,.05-.8.57.57,0,0,1,.79.05.56.56,0,0,1,0,.79A.57.57,0,0,1,32.72,136.37Z"/></g><g class="cls-1"><path class="cls-2" d="M74.85,126.62c-4.18,5.56-7.65,9.64-10.13,12.41-2.11,2.36-5.62,6.14-6.11,6.67-2.83,3-4.89,5.21-5,5.37-3,3.23-5.75,20.07-6.11,51"/><path class="cls-3" d="M74.38,126.29a.56.56,0,1,1,.1.79A.56.56,0,0,1,74.38,126.29Z"/></g><g class="cls-1"><path class="cls-2" d="M72,112.67A75,75,0,0,0,60,129.38c-8,15.45-8.91,30.75-9.74,45.15C50,180.22,50,199.05,50,202.06"/><path class="cls-3" d="M71.53,112.34a.56.56,0,1,1,.85.74.56.56,0,0,1-.85-.74Z"/></g><g class="cls-1"><path class="cls-2" d="M32.12,138.53a71,71,0,0,1,5.69,15.28c1.59,6.48,1.84,11.48,2.21,19.66.24,5.28.36,20.22-.08,28.59"/><circle class="cls-3" cx="32.13" cy="138.56" r="0.56" transform="translate(-109.36 123.98) rotate(-71.06)"/></g><g class="cls-1"><path class="cls-2" d="M19.73,138.12a73.78,73.78,0,0,1,12.68,23.75c3.38,10.65,3.65,34.26,3.37,40.19h-.07"/><path class="cls-3" d="M19.29,138.49a.56.56,0,0,1,.9-.68.58.58,0,0,1-.11.79A.56.56,0,0,1,19.29,138.49Z"/></g><g class="cls-1"><path class="cls-2" d="M26.55,158.63c5.13,9.77,6.09,15.54,6.13,18.82,0,.61,0,3.41,0,6.37,0,3.63-.06,16.25-.09,18.24"/><path class="cls-3" d="M26.05,158.91a.57.57,0,1,1,.76.25A.56.56,0,0,1,26.05,158.91Z"/></g><g class="cls-1"><path class="cls-2" d="M66.37,95.12c-.49,7.77-1.17,14.23-1.73,18.94-.69,5.69-1.39,10.16-2.75,18.86-1,6.34-1.11,6.84-3,18.5-2.76,16.94-3.84,24.05-4,33.91,0,1.87,0,15.72,0,16.73"/><path class="cls-3" d="M65.8,95.1a.56.56,0,0,1,.61-.51.55.55,0,0,1,.51.6.56.56,0,1,1-1.12-.09Z"/></g></g></g></svg>