<svg xmlns="http://www.w3.org/2000/svg" xmlns:xlink="http://www.w3.org/1999/xlink" viewBox="0 0 715.43 732.11"><defs><style>.cls-1,.cls-10,.cls-11,.cls-12,.cls-13,.cls-14,.cls-15,.cls-16,.cls-17,.cls-18,.cls-19,.cls-2,.cls-20,.cls-21,.cls-22,.cls-23,.cls-24,.cls-25,.cls-26,.cls-27,.cls-28,.cls-29,.cls-3,.cls-30,.cls-31,.cls-32,.cls-33,.cls-34,.cls-35,.cls-36,.cls-37,.cls-38,.cls-39,.cls-40,.cls-41,.cls-42,.cls-43,.cls-44,.cls-45,.cls-46,.cls-47,.cls-48,.cls-49,.cls-5,.cls-50,.cls-51,.cls-52,.cls-53,.cls-54,.cls-55,.cls-56,.cls-57,.cls-58,.cls-59,.cls-6,.cls-60,.cls-61,.cls-62,.cls-63,.cls-64,.cls-65,.cls-66,.cls-67,.cls-68,.cls-69,.cls-7,.cls-70,.cls-71,.cls-72,.cls-73,.cls-74,.cls-8,.cls-9{fill:none;}.cls-1,.cls-10,.cls-11,.cls-12,.cls-13,.cls-14,.cls-15,.cls-16,.cls-17,.cls-18,.cls-19,.cls-2,.cls-20,.cls-21,.cls-22,.cls-23,.cls-24,.cls-25,.cls-26,.cls-27,.cls-28,.cls-29,.cls-3,.cls-30,.cls-31,.cls-32,.cls-33,.cls-34,.cls-35,.cls-36,.cls-37,.cls-38,.cls-39,.cls-40,.cls-41,.cls-42,.cls-43,.cls-44,.cls-45,.cls-46,.cls-47,.cls-48,.cls-49,.cls-5,.cls-50,.cls-51,.cls-52,.cls-53,.cls-54,.cls-55,.cls-56,.cls-57,.cls-58,.cls-59,.cls-6,.cls-60,.cls-61,.cls-62,.cls-63,.cls-64,.cls-65,.cls-66,.cls-67,.cls-68,.cls-69,.cls-7,.cls-70,.cls-71,.cls-72,.cls-73,.cls-74,.cls-75,.cls-8,.cls-9{stroke-miterlimit:10;}.cls-1,.cls-10,.cls-11,.cls-12,.cls-13,.cls-14,.cls-15,.cls-16,.cls-17,.cls-18,.cls-19,.cls-2,.cls-20,.cls-21,.cls-22,.cls-23,.cls-24,.cls-25,.cls-26,.cls-27,.cls-28,.cls-29,.cls-3,.cls-30,.cls-31,.cls-32,.cls-33,.cls-34,.cls-35,.cls-36,.cls-37,.cls-38,.cls-39,.cls-40,.cls-41,.cls-42,.cls-43,.cls-44,.cls-45,.cls-46,.cls-47,.cls-48,.cls-49,.cls-5,.cls-50,.cls-51,.cls-52,.cls-53,.cls-54,.cls-55,.cls-56,.cls-57,.cls-58,.cls-59,.cls-6,.cls-60,.cls-61,.cls-62,.cls-63,.cls-64,.cls-65,.cls-66,.cls-67,.cls-68,.cls-69,.cls-7,.cls-70,.cls-71,.cls-73,.cls-74,.cls-8,.cls-9{stroke-width:1.06px;}.cls-1{stroke:url(#linear-gradient);}.cls-2{stroke:url(#linear-gradient-2);}.cls-3{stroke:url(#linear-gradient-3);}.cls-4{fill:#fff;}.cls-5{stroke:url(#linear-gradient-4);}.cls-6{stroke:url(#linear-gradient-5);}.cls-7{stroke:url(#linear-gradient-6);}.cls-8{stroke:url(#linear-gradient-7);}.cls-9{stroke:url(#linear-gradient-8);}.cls-10{stroke:url(#linear-gradient-9);}.cls-11{stroke:url(#linear-gradient-10);}.cls-12{stroke:url(#linear-gradient-11);}.cls-13{stroke:url(#linear-gradient-12);}.cls-14{stroke:url(#linear-gradient-13);}.cls-15{stroke:url(#linear-gradient-14);}.cls-16{stroke:url(#linear-gradient-15);}.cls-17{stroke:url(#linear-gradient-16);}.cls-18{stroke:url(#linear-gradient-17);}.cls-19{stroke:url(#linear-gradient-18);}.cls-20{stroke:url(#linear-gradient-19);}.cls-21{stroke:url(#linear-gradient-20);}.cls-22{stroke:url(#linear-gradient-21);}.cls-23{stroke:url(#linear-gradient-22);}.cls-24{stroke:url(#linear-gradient-23);}.cls-25{stroke:url(#linear-gradient-24);}.cls-26{stroke:url(#linear-gradient-25);}.cls-27{stroke:url(#linear-gradient-26);}.cls-28{stroke:url(#linear-gradient-27);}.cls-29{stroke:url(#linear-gradient-28);}.cls-30{stroke:url(#linear-gradient-29);}.cls-31{stroke:url(#linear-gradient-30);}.cls-32{stroke:url(#linear-gradient-31);}.cls-33{stroke:url(#linear-gradient-32);}.cls-34{stroke:url(#linear-gradient-33);}.cls-35{stroke:url(#linear-gradient-34);}.cls-36{stroke:url(#linear-gradient-35);}.cls-37{stroke:url(#linear-gradient-36);}.cls-38{stroke:url(#linear-gradient-37);}.cls-39{stroke:url(#linear-gradient-38);}.cls-40{stroke:url(#linear-gradient-39);}.cls-41{stroke:url(#linear-gradient-40);}.cls-42{stroke:url(#linear-gradient-41);}.cls-43{stroke:url(#linear-gradient-42);}.cls-44{stroke:url(#linear-gradient-43);}.cls-45{stroke:url(#linear-gradient-44);}.cls-46{stroke:url(#linear-gradient-45);}.cls-47{stroke:url(#linear-gradient-46);}.cls-48{stroke:url(#linear-gradient-47);}.cls-49{stroke:url(#linear-gradient-48);}.cls-50{stroke:url(#linear-gradient-49);}.cls-51{stroke:url(#linear-gradient-50);}.cls-52{stroke:url(#linear-gradient-51);}.cls-53{stroke:url(#linear-gradient-52);}.cls-54{stroke:url(#linear-gradient-53);}.cls-55{stroke:url(#linear-gradient-54);}.cls-56{stroke:url(#linear-gradient-55);}.cls-57{stroke:url(#linear-gradient-56);}.cls-58{stroke:url(#linear-gradient-57);}.cls-59{stroke:url(#linear-gradient-58);}.cls-60{stroke:url(#linear-gradient-59);}.cls-61{stroke:url(#linear-gradient-60);}.cls-62{stroke:url(#linear-gradient-61);}.cls-63{stroke:url(#linear-gradient-62);}.cls-64{stroke:url(#linear-gradient-63);}.cls-65{stroke:url(#linear-gradient-64);}.cls-66{stroke:url(#linear-gradient-65);}.cls-67{stroke:url(#linear-gradient-66);}.cls-68{stroke:url(#linear-gradient-67);}.cls-69{stroke:url(#linear-gradient-68);}.cls-70{stroke:url(#linear-gradient-69);}.cls-71{stroke:url(#linear-gradient-70);}.cls-72{stroke:url(#linear-gradient-71);}.cls-73{stroke:url(#linear-gradient-72);}.cls-74{stroke:url(#linear-gradient-73);}.cls-75{stroke-width:0.64px;fill:url(#linear-gradient-74);stroke:url(#linear-gradient-75);}</style><linearGradient id="linear-gradient" x1="403.32" y1="12.07" x2="421.47" y2="657.04" gradientTransform="translate(715.42 739.12) rotate(180)" gradientUnits="userSpaceOnUse"><stop offset="0" stop-color="#fff" stop-opacity="0"/><stop offset="0.12" stop-color="#fff" stop-opacity="0.23"/><stop offset="0.35" stop-color="#fff" stop-opacity="0.64"/><stop offset="0.51" stop-color="#fff" stop-opacity="0.9"/><stop offset="0.58" stop-color="#fff"/></linearGradient><linearGradient id="linear-gradient-2" x1="247.14" y1="10.34" x2="265.75" y2="671.57" xlink:href="#linear-gradient"/><linearGradient id="linear-gradient-3" x1="430.48" y1="19.65" x2="448.45" y2="658.33" xlink:href="#linear-gradient"/><linearGradient id="linear-gradient-4" x1="296.71" y1="9.44" x2="315.06" y2="661.31" xlink:href="#linear-gradient"/><linearGradient id="linear-gradient-5" x1="374.68" y1="5.96" x2="393.06" y2="658.98" xlink:href="#linear-gradient"/><linearGradient id="linear-gradient-6" x1="374.34" y1="6.93" x2="392.74" y2="660.92" xlink:href="#linear-gradient"/><linearGradient id="linear-gradient-7" x1="216.27" y1="4.02" x2="234.84" y2="663.82" xlink:href="#linear-gradient"/><linearGradient id="linear-gradient-8" x1="284.02" y1="7.39" x2="295.25" y2="406.4" xlink:href="#linear-gradient"/><linearGradient id="linear-gradient-9" x1="264.29" y1="34.81" x2="282.14" y2="668.97" xlink:href="#linear-gradient"/><linearGradient id="linear-gradient-10" x1="415.03" y1="9.26" x2="433.3" y2="658.61" xlink:href="#linear-gradient"/><linearGradient id="linear-gradient-11" x1="462.8" y1="203.39" x2="475.57" y2="657.23" xlink:href="#linear-gradient"/><linearGradient id="linear-gradient-12" x1="218.98" y1="4.85" x2="237.56" y2="664.94" xlink:href="#linear-gradient"/><linearGradient id="linear-gradient-13" x1="186.3" y1="4.37" x2="205.26" y2="678.05" xlink:href="#linear-gradient"/><linearGradient id="linear-gradient-14" x1="175.89" y1="4.88" x2="194.69" y2="672.86" xlink:href="#linear-gradient"/><linearGradient id="linear-gradient-15" x1="208.66" y1="4.13" x2="227.23" y2="664.09" xlink:href="#linear-gradient"/><linearGradient id="linear-gradient-16" x1="477.16" y1="10.96" x2="492.55" y2="557.84" xlink:href="#linear-gradient"/><linearGradient id="linear-gradient-17" x1="304.59" y1="6.35" x2="323.03" y2="661.45" xlink:href="#linear-gradient"/><linearGradient id="linear-gradient-18" x1="440.43" y1="11.52" x2="458.98" y2="670.84" xlink:href="#linear-gradient"/><linearGradient id="linear-gradient-19" x1="505.27" y1="170.55" x2="519.05" y2="660.15" xlink:href="#linear-gradient"/><linearGradient id="linear-gradient-20" x1="478.69" y1="13.12" x2="496.79" y2="656.38" xlink:href="#linear-gradient"/><linearGradient id="linear-gradient-21" x1="210.33" y1="5.71" x2="228.84" y2="663.49" xlink:href="#linear-gradient"/><linearGradient id="linear-gradient-22" x1="163.72" y1="4.43" x2="182.91" y2="686.48" xlink:href="#linear-gradient"/><linearGradient id="linear-gradient-23" x1="362.67" y1="9.51" x2="376.31" y2="494.2" xlink:href="#linear-gradient"/><linearGradient id="linear-gradient-24" x1="437.25" y1="94.81" x2="453.09" y2="657.7" xlink:href="#linear-gradient"/><linearGradient id="linear-gradient-25" x1="498.67" y1="13.51" x2="516.76" y2="656.07" xlink:href="#linear-gradient"/><linearGradient id="linear-gradient-26" x1="316.61" y1="6.2" x2="335.03" y2="660.81" xlink:href="#linear-gradient"/><linearGradient id="linear-gradient-27" x1="368.2" y1="9.23" x2="386.5" y2="659.41" xlink:href="#linear-gradient"/><linearGradient id="linear-gradient-28" x1="247.1" y1="8.61" x2="265.9" y2="677.01" xlink:href="#linear-gradient"/><linearGradient id="linear-gradient-29" x1="525.68" y1="14.25" x2="543.72" y2="655.21" xlink:href="#linear-gradient"/><linearGradient id="linear-gradient-30" x1="510.21" y1="13.35" x2="528.28" y2="655.77" xlink:href="#linear-gradient"/><linearGradient id="linear-gradient-31" x1="253.2" y1="6.78" x2="272.06" y2="677.16" xlink:href="#linear-gradient"/><linearGradient id="linear-gradient-32" x1="329.08" y1="84.8" x2="345.29" y2="660.77" xlink:href="#linear-gradient"/><linearGradient id="linear-gradient-33" x1="423.64" y1="55.16" x2="440.44" y2="652" xlink:href="#linear-gradient"/><linearGradient id="linear-gradient-34" x1="384.67" y1="14.98" x2="402.8" y2="659.13" xlink:href="#linear-gradient"/><linearGradient id="linear-gradient-35" x1="507.54" y1="13.21" x2="526.39" y2="683.11" xlink:href="#linear-gradient"/><linearGradient id="linear-gradient-36" x1="244.61" y1="6.2" x2="263.09" y2="663.14" xlink:href="#linear-gradient"/><linearGradient id="linear-gradient-37" x1="294.3" y1="6.79" x2="312.73" y2="661.51" xlink:href="#linear-gradient"/><linearGradient id="linear-gradient-38" x1="188.28" y1="6.24" x2="203.44" y2="545.02" xlink:href="#linear-gradient"/><linearGradient id="linear-gradient-39" x1="190.74" y1="5.09" x2="209.29" y2="664.2" xlink:href="#linear-gradient"/><linearGradient id="linear-gradient-40" x1="297.95" y1="100.24" x2="312.99" y2="634.64" xlink:href="#linear-gradient"/><linearGradient id="linear-gradient-41" x1="278.05" y1="8.73" x2="296.44" y2="662.4" xlink:href="#linear-gradient"/><linearGradient id="linear-gradient-42" x1="242.6" y1="6.17" x2="261.08" y2="663.14" xlink:href="#linear-gradient"/><linearGradient id="linear-gradient-43" x1="438.64" y1="10.16" x2="457.04" y2="664.26" xlink:href="#linear-gradient"/><linearGradient id="linear-gradient-44" x1="253.21" y1="7.53" x2="271.75" y2="666.18" xlink:href="#linear-gradient"/><linearGradient id="linear-gradient-45" x1="332.6" y1="11.3" x2="350.17" y2="635.65" xlink:href="#linear-gradient"/><linearGradient id="linear-gradient-46" x1="386.4" y1="170.36" x2="400.15" y2="659.03" xlink:href="#linear-gradient"/><linearGradient id="linear-gradient-47" x1="361.78" y1="9.46" x2="380.07" y2="659.47" xlink:href="#linear-gradient"/><linearGradient id="linear-gradient-48" x1="295.81" y1="140.11" x2="310.38" y2="658.04" xlink:href="#linear-gradient"/><linearGradient id="linear-gradient-49" x1="470.64" y1="12.64" x2="488.45" y2="645.46" xlink:href="#linear-gradient"/><linearGradient id="linear-gradient-50" x1="437.38" y1="79.44" x2="454.36" y2="682.99" xlink:href="#linear-gradient"/><linearGradient id="linear-gradient-51" x1="230.96" y1="5.7" x2="249.61" y2="668.47" xlink:href="#linear-gradient"/><linearGradient id="linear-gradient-52" x1="268.6" y1="6.37" x2="287" y2="660.42" xlink:href="#linear-gradient"/><linearGradient id="linear-gradient-53" x1="195" y1="4.47" x2="213.64" y2="667.13" xlink:href="#linear-gradient"/><linearGradient id="linear-gradient-54" x1="320.82" y1="8.88" x2="339.21" y2="662.28" xlink:href="#linear-gradient"/><linearGradient id="linear-gradient-55" x1="228.78" y1="5.81" x2="247.29" y2="663.39" xlink:href="#linear-gradient"/><linearGradient id="linear-gradient-56" x1="414.62" y1="34.84" x2="432.2" y2="659.59" xlink:href="#linear-gradient"/><linearGradient id="linear-gradient-57" x1="434.81" y1="160.26" x2="448.84" y2="658.67" xlink:href="#linear-gradient"/><linearGradient id="linear-gradient-58" x1="394.36" y1="10.03" x2="412.64" y2="659.65" xlink:href="#linear-gradient"/><linearGradient id="linear-gradient-59" x1="285.54" y1="9.05" x2="303.91" y2="661.65" xlink:href="#linear-gradient"/><linearGradient id="linear-gradient-60" x1="467.69" y1="179.12" x2="481.13" y2="656.75" xlink:href="#linear-gradient"/><linearGradient id="linear-gradient-61" x1="395.02" y1="9.95" x2="413.28" y2="658.54" xlink:href="#linear-gradient"/><linearGradient id="linear-gradient-62" x1="202.74" y1="5.22" x2="222.09" y2="692.92" xlink:href="#linear-gradient"/><linearGradient id="linear-gradient-63" x1="347.13" y1="79.51" x2="363.42" y2="658.43" xlink:href="#linear-gradient"/><linearGradient id="linear-gradient-64" x1="371.97" y1="101.06" x2="387.8" y2="663.43" xlink:href="#linear-gradient"/><linearGradient id="linear-gradient-65" x1="350.42" y1="9.6" x2="368.74" y2="660.53" xlink:href="#linear-gradient"/><linearGradient id="linear-gradient-66" x1="413.79" y1="132.18" x2="428.56" y2="657.27" xlink:href="#linear-gradient"/><linearGradient id="linear-gradient-67" x1="251.94" y1="5.68" x2="270.47" y2="664.19" xlink:href="#linear-gradient"/><linearGradient id="linear-gradient-68" x1="328.71" y1="76.93" x2="345.13" y2="660.61" xlink:href="#linear-gradient"/><linearGradient id="linear-gradient-69" x1="430.24" y1="149.47" x2="444.51" y2="656.46" xlink:href="#linear-gradient"/><linearGradient id="linear-gradient-70" x1="498.38" y1="13.47" x2="516.56" y2="659.48" xlink:href="#linear-gradient"/><linearGradient id="linear-gradient-71" x1="110.42" y1="97.26" x2="110.46" y2="98.47" xlink:href="#linear-gradient"/><linearGradient id="linear-gradient-72" x1="455.48" y1="307.63" x2="465.32" y2="657.36" xlink:href="#linear-gradient"/><linearGradient id="linear-gradient-73" x1="304.55" y1="105.15" x2="320.42" y2="668.92" xlink:href="#linear-gradient"/><linearGradient id="linear-gradient-74" x1="349.42" y1="620.17" x2="351.72" y2="701.88" gradientTransform="translate(12.5 -613.68)" xlink:href="#linear-gradient"/><linearGradient id="linear-gradient-75" x1="305.06" y1="676.4" x2="397.86" y2="676.4" gradientTransform="translate(12.5 -613.68)" gradientUnits="userSpaceOnUse"><stop offset="0" stop-color="#fff" stop-opacity="0"/><stop offset="0.87" stop-color="#535353" stop-opacity="0.13"/><stop offset="1" stop-opacity="0.2"/></linearGradient></defs><g id="Layer_2" data-name="Layer 2"><g id="lines"><path class="cls-1" d="M194.49,730.08c26.57-43.76,34-26.35,84.5-90,48.18-60.72,82.29-103.72,106.81-162.75C400,443.25,419.2,345.7,418.2,318.06S362.58,80.27,362.58,80.27"/><path class="cls-2" d="M412.58,730.08c38.06-65.85,59.59-90.05,80.92-132.9,34.16-68.61,43.52-138.34,42.9-198.63L372.26,70"/><path class="cls-3" d="M266.73,719.82C241.28,649.09,218,610.44,202.82,521.94c-13-76-22.61-203.21-13.14-230.13s173.33-213,165.45-213"/><path class="cls-4" d="M355.75,83.3a1.39,1.39,0,0,0-.1-.53,1.34,1.34,0,0,0-.29-.45,1.23,1.23,0,0,0-.44-.3c-.16-.07.66-.11.48-.11a1.6,1.6,0,0,0-.53.09,1.65,1.65,0,0,0-.45.29,1.43,1.43,0,0,0-.3.44,1.4,1.4,0,0,0-.11.53,1.34,1.34,0,0,0,.1.52,1.2,1.2,0,0,0,.29.45,1.23,1.23,0,0,0,.44.3,1.31,1.31,0,0,0,.52.11c.18,0-.64,0-.48-.09a1.51,1.51,0,0,0,.45-.29,1.67,1.67,0,0,0,.31-.44,1.56,1.56,0,0,0,.11-.52Z"/><path class="cls-5" d="M379.41,730.59c45.32-115.85,58.24-171.43,60.68-186.77,4.08-25.64,5-41.94,8.76-132.13,2.72-64.95-85.65-282.14-83.69-332.85"/><path class="cls-4" d="M377.78,78.94a1.19,1.19,0,0,0-.06-.53,1.66,1.66,0,0,0-.26-.47,1.41,1.41,0,0,0-.43-.33,1.49,1.49,0,0,0-.51-.14,1.36,1.36,0,0,0-.53.07,1.28,1.28,0,0,0-.47.26,1.5,1.5,0,0,0-.33.42,1.34,1.34,0,0,0-.14.52,1.41,1.41,0,0,0,.07.53,1.24,1.24,0,0,0,.26.46,1.34,1.34,0,0,0,.94.47,1.35,1.35,0,0,0,.53-.06,1.33,1.33,0,0,0,.46-.27,1.23,1.23,0,0,0,.33-.42,1.29,1.29,0,0,0,.14-.51Z"/><path class="cls-6" d="M421.49,730.59c-48-65.85-71.76-58.57-98.72-98.4-28.43-42-38.29-77.34-56-140.88-15.35-55-32.18-136.41,11.6-238.88l100-173.59"/><path class="cls-7" d="M390.45,730.59A1059.35,1059.35,0,0,1,335.9,595.44c-33.74-103.69-43-189.58-49-247.63-3.54-34.4-11.34-65.17-6.13-84S354,77.53,354,77.53"/><path class="cls-8" d="M648.47,730.59c-14.86-19.41-70-70.51-180.36-166.65-23.36-20.35-42.93-37.25-64.78-65.63C354.48,434.9,344.05,378.78,342,367.06a261.68,261.68,0,0,1-3.5-55.13l18-233.09"/><path class="cls-9" d="M468.26,730.59c2.88-15.68,5.56-17.82,7.73-60.45a1543.68,1543.68,0,0,0,0-157.5L369,334.42"/><path class="cls-10" d="M459.36,703.93c19.26-73.59,37.4-112.75,42-191.63,2.41-41.11,1.15-92.94-.87-175.87-.86-35-1.87-64.05-2.63-84L373.48,72.12"/><path class="cls-11" d="M221.21,732.07c-10.27-143.89,68.42-153.6,84.06-371.14,2.93-40.77-5.5-89.72.87-122.5s80.27-127.28,48-159.59"/><path class="cls-12" d="M137.16,538.56c4.84-4,36.26-29.36,70.92-70,34.4-40.33,82.43-98.15,86.68-176.75a211.26,211.26,0,0,0-2.63-46.38l63-166.59"/><path class="cls-13" d="M609.2,730.84c-34-56.93-31.82-94.68-67.54-159.9-35.21-64.29-46-63-77.93-127.75-23.89-48.41-33.07-79.88-35.89-112.88-1.83-21.61,6.7-32.92,2.62-64.75s-65.33-188-65.33-188"/><path class="cls-14" d="M667.92,730.59c-6.59-11.11,12-81.91-27.32-119.4-38.22-48.63-61.09-78.68-85.8-120.75-18.63-31.71-31.16-58.07-37.65-91.88-3.16-16.43-1.75-30.17-4.39-55.88S371.24,65.23,371.24,65.23"/><path class="cls-15" d="M684.77,730.08c9.75-78.24-10.24-116-29.3-139-17.22-20.77-33.32-25.3-56-50.75-6.93-7.76-24.55-29.53-49.91-104.12C498.34,284.59,372,95.49,371.75,70.46"/><path class="cls-16" d="M652.44,730.59C601,661.9,527.28,620.58,459.36,540.31c-17.94-21.19-91.5-112.07-108.58-246.75a454,454,0,0,1-3.49-65.82l6.85-148.9"/><path class="cls-17" d="M161.88,730.08c41.18-88.3,54.76-133.09,66.59-177.4,24.21-90.73,21.88-171,15.76-225.76l55-147.58"/><path class="cls-18" d="M495.85,730.08c-41.44-55.43-38.61-9.93-75-58.51C360.45,591,340.5,509.07,330.65,466.81a612.16,612.16,0,0,1-15.76-122.5L354.14,78.84"/><path class="cls-19" d="M185.87,730.08c1.86-61,8.24-106.81-3.19-212.52-6.29-58.17-13.32-90.71-13.13-154.88.1-33.63-10.59-69,6.13-100.62C197.37,221,198.39,224.29,353.44,65.93"/><path class="cls-20" d="M53.12,572.62a483.36,483.36,0,0,0,95.42-148.68c20.72-51,23.29-132.42,35-160.13C207.2,208,341.49,87.07,353.4,74.93"/><path class="cls-21" d="M89.37,730.08c-7.72-47.75,17.87-147.43,60.92-183.64,4.79-4.74,5.26-4.43,10.5-9.63,21.7-21.46,42.68-55.51,55.16-157.5,5.14-42.09,7.48-84.48,51-126.88L367,78.84"/><path class="cls-22" d="M618.22,730.08c-28.05-83-52.76-45.08-94.07-148.64-45.37-113.73-53.23-220.34-56.91-275.63-3-44.81-94.66-199.33-93.76-227"/><path class="cls-23" d="M714.9,730.08C707.82,630,675.44,576.3,646.72,540.31c-23.93-30-32.19-27.24-56.91-62.12-50.53-71.32-62.44-148.32-66.54-176.76-2.38-16.53-4.46-49.13-21.82-77.4-20.56-33.48-20.82-32.64-132.25-166.46"/><path class="cls-24" d="M334.73,730.08c2-38.11-1.44-94.68-5.73-172.66l29-313"/><path class="cls-25" d="M179.54,646.85c32.52-70.11,48.79-105.17,59.79-138.82,16.14-49.38,34.36-125.56,47.62-226.95L361,78.84"/><path class="cls-26" d="M56,730.08c-9.17-67.78,143.91-233,173.06-309,24.13-62.9-5.58-111.68,15.7-163.57s115-178.7,115-178.7"/><path class="cls-27" d="M463.6,730.84c-35.69-59-74.64-42.59-106.5-111.15-14.91-32.09-20.08-61-24.16-83.9-9.13-51.16-6.22-88-4.23-129.17,2.11-43.51,3.84-105.23,16.81-182.28l19-145.5"/><path class="cls-28" d="M316.33,730.59c13.16-40.92,17.84-31.67,23.86-60.2,1.79-8.51,8.52-41.12,13.89-92.34,3-28.87,4.73-55.21,6.64-118.3,3.26-107.4,3.62-206.43,3.62-206.43L359.76,78.84"/><path class="cls-29" d="M478.37,730.08c18.83-71.27,29-195,37-279.38,8.55-91.1,30.43-182.16,10.86-223-33.05-68.94-142-150.89-155.47-163"/><path class="cls-30" d="M.52,730.08c23.67-113.21,60-156.7,96.88-188.86,17.34-15.13,42-32.25,66.43-68.2,31.25-46,41.42-92.23,45.9-113.47C216,329.6,218.47,299,261,268.4L361,78.85"/><path class="cls-31" d="M32.69,730.59C16.9,575.78,117.9,387.91,134.85,381.28c6.69-4.54,14.14-8.56,23.55-17.51,36.94-35.13,45.38-109.87,57.28-127.35s145-157.58,145-157.58"/><path class="cls-32" d="M534.11,730.08c-8.64-15.66-14.86-50.11-24.82-106.77C496,547.54,495,486.68,494.19,415.08c-1-86.54,9.54-152.89-6.81-184.7C464.5,185.85,359,47.51,372.77,66.25"/><path class="cls-33" d="M427.16,652.89c-26.71-39.68-28.62-39.77-38.05-56.74-31.13-56-37.07-106.63-45.3-172.62A1043.64,1043.64,0,0,1,336,279.87l19-201"/><path class="cls-34" d="M194.49,686.44c36.77-71.38,58.6-81.46,79.11-143.65,12.6-38.17,15.61-76.47,21.14-151.5,4.43-60.07,6-114.77,6-163L372.26,84.63"/><path class="cls-35" d="M239.33,726.52c24.88-70.74,57.7-130.58,67-147.27,45.45-81.29,76.16-109,93.61-178.06,9-35.61,13-58.6,10.26-85.71s-53-236.64-53-236.64"/><path class="cls-36" d="M22,730.84c41-63,125.51-203.89,157.72-227.29,29.35-21.32,38.36-22,60.39-43.46,13.64-13.28,59.74-61.29,73.08-137.61,3.26-18.65,5.92-28.77,4.72-39.55C326.55,208.88,396.39-27.51,368.18,78"/><path class="cls-37" d="M565.79,730.08c-3.63-9.73-29.38-77-40.19-96.51C467.68,529,437.92,505,428.36,445.86,427.51,440.55,427,427,426,400c-2.5-65.09-1.73-117.92-.61-153.31l-68-167.83"/><path class="cls-38" d="M475.15,730.59C450.43,682.8,457,671.41,439.84,617.88c-13-40.49-28.56-63.48-39.25-83.29-25.31-46.88-50.28-126-44.09-266.19l3.26-189.56"/><path class="cls-39" d="M591.15,730.84c-9.37-17.6-28.93-55.89-35-104.74a242.16,242.16,0,0,1-1.81-34.4c.58-49.24,5.76-234.85.6-255.92s-107-139.54-107-139.54"/><path class="cls-40" d="M662.3,730.08c-8.72-48.07-57.5-199.23-86-289.05-11.93-37.63-18-56.66-29.59-83.9-20.12-47.13-33-68-41.67-94.16S365.49,119,368.62,78.84"/><path class="cls-41" d="M392.38,639.23a144.84,144.84,0,0,0,24.51-39.46,148.11,148.11,0,0,0,10.87-51.3c2.16-43.3,8.25-86.43,8.45-129.77.17-36.11,14.76-113.35,6-154.52s-77.12-158.39-77.12-158.39"/><path class="cls-42" d="M439.31,730.08c24-45.87,25.3-84.7,30.72-143,2.24-24,.81-20.32,3.63-97.78,2.76-75.93,4.46-88.29,6-139.43,1-31.16,10.8-84.71,1.21-131.58s-123-139.47-123-139.47"/><path class="cls-43" d="M572.71,730.08c-7.36-49.24-25.68-120.42-42.88-152.64-22.57-42.27-27.43-38-76.1-114.68-40.07-63.16-47.69-83.28-52.54-102-7.46-28.78-8.94-56.4-10.27-81.48-1.65-30.87-37.7-181.77-36.39-200.43"/><path class="cls-44" d="M207.88,730.59c-20-26.05-46.51-149-36.35-216.83,14.34-101.91,25.24-93.38,23.11-166.29-4-77.42-11.17-118.67,1.21-128C216.43,204.08,361,72.37,361,72.37"/><path class="cls-45" d="M511.07,730.08c14.47-60.61,4.68-198.92,12.53-274.67,10.24-98.86-149.93-320.64-149.81-380.48"/><path class="cls-46" d="M275,730.59c42.23-77.37,90.4-110.93,140.78-225.66a693.65,693.65,0,0,0,45.67-144.67c9-45.73,22-93.47,12.63-138.85S370.36,103.74,370.36,103.74"/><path class="cls-47" d="M276.83,570c7.49-15,46.68-94.08,74.8-188.36,8.59-28.79,16.15-59,20.41-96.13,3.76-32.81-11.44-186.65-12.28-206.65"/><path class="cls-48" d="M312.78,730.59c18.45-42.7,19-56,19.43-71.28C335.3,558,363.5,539.59,382.73,372.89c5.86-50.85-17-203-18.21-294"/><path class="cls-49" d="M448.79,598.14c-11.24-82-18.77-89.65-30.12-160.21-9-55.95-44.71-254.19-42.16-356"/><path class="cls-50" d="M111.33,730.08c30.43-101.27,71.84-149.41,109.15-247.48,21.42-56.32,31.23-237.36,37.89-254.86S360.52,90.25,360.52,90.25"/><path class="cls-51" d="M247.68,660.28c-38-63.93-51.76-123.26-58.29-152.44-10.4-46.46-11.89-80.57-14.57-141.76C170.61,262.61,354.52,54.83,356.26,53.93"/><path class="cls-52" d="M580.6,730.59c-29.48-104.39-42-174.46-45.35-189.74-22.91-103.56-26.93-189-29.14-240.79C503.55,240.21,368.48,102,369.71,73.4"/><path class="cls-53" d="M506,730.84c-47-83.7-80.22-145-97.18-197.85-20-62.31-24.34-121.06-33-238.56-3.43-46.66-2.47-187.18-3.22-214.16"/><path class="cls-54" d="M655.18,730.84C655.09,666.52,589,602.06,560,559.12c-29.15-43.12-41.07-80.31-57.54-131.73C489,385.22,473.3,325.47,429,251.2L367,76"/><path class="cls-55" d="M372.63,730.84c.12-41.14,18.14-100.7,25.95-170.57,4.34-38.76,6-69.53,9.1-129.51C410.83,370.09,371.13,194.7,372.26,77"/><path class="cls-56" d="M595.92,730.08C541.64,572.55,488.71,512,461.1,414.85c-13.41-47.2-112.87-240.91-100.64-336"/><path class="cls-57" d="M209.13,706.7a1610,1610,0,0,0,44-188.48C276.42,381.4,380.32,177.74,374.82,77"/><path class="cls-58" d="M174.86,581.59c39-79.21,57.27-147.43,66.49-194.23,10.51-53.33,13.53-100.22,14.78-120.42C258.55,227.49,373.29,104,372.26,77.48"/><path class="cls-59" d="M256.35,730.84c-23-136.45,3.88-232.48,27.63-285.76,9.11-20.44,29.33-59.83,39.72-118.54,9.49-53.56,53.44-217.93,49.78-249"/><path class="cls-60" d="M429.45,730.08c-.26-50.4-1.26-80.93.73-99.13,6.65-61.14,18.7-69.09,27.61-136.36,6.56-49.6,6-90.86,5.68-113.64-.53-32.87-1.76-66.78-4.87-82S357.51,115.11,369.16,78.84"/><path class="cls-61" d="M122.17,563.26A757.23,757.23,0,0,0,202,347.68c15.74-77,159.9-218.61,157.81-268.84"/><path class="cls-62" d="M259.85,730.59c26.94-42.82,32.06-72.72,37.93-98,7.3-31.41,8.22-56.34,9.75-98.21,1.11-30.31.21-56.07-1.63-106.34-1.48-40.55-2.66-56.23-4.06-86.85-1.5-32.95,60.84-203.54,60.74-262.28"/><path class="cls-63" d="M627.55,730.59c10.62-83.1-6.08-161.51-20.33-201.9-20.94-59.34-55.59-105.7-62.54-190.75-1.58-19.45-5.08-70.32-24.33-99.61C495.84,201.06,373.28,49.91,373.28,49.91"/><path class="cls-64" d="M395.24,658.55c-31.41-41.87-40.44-96.37-58.47-205.35C325.94,387.77,366.12,191.38,368,80.27"/><path class="cls-65" d="M299.78,639.26c-7.69-87.44,74.82-321.91,71.73-564.79"/><path class="cls-66" d="M343.5,730.08C357,558.19,369.25,141.91,368.18,78"/><path class="cls-67" d="M217.08,609c42.95-46,116.44-139.1,139.49-274.07a501.13,501.13,0,0,0,6.25-113.2l8.42-142.16"/><path class="cls-68" d="M555.07,730.59c-21-31.44-57.53-105.21-93.68-144.76-16.61-18.56-44.15-48.2-48-52.33-22.2-23.89-38.38-40.85-39.58-42.12C349.89,466,375.6,319.49,372.77,77"/><path class="cls-69" d="M420,661c-63.14-121.19-70-241.22-76.44-354.19-2.55-44.66,15.5-204.42,15.91-228"/><path class="cls-70" d="M199.58,591.81a557.22,557.22,0,0,0,46-122.47c12.49-50.79,14.47-90,17.38-154.17.39-62.4,96.42-177.14,93.5-234.9"/><path class="cls-71" d="M41.37,730.59c-3.06-83.28,136.89-237.3,164.85-325.47,27.9-88,144.68-279.87,168.36-330.19"/><path class="cls-72" d="M604.26,641.06a1.4,1.4,0,0,0,.47.24,1.42,1.42,0,0,0,.54.05,1.34,1.34,0,0,0,.51-.17"/><path class="cls-73" d="M155.82,434.16c41.42-78.21,49.1-124.27,49.43-150.25.06-4.75.1-26.73,0-50-.13-28.62,149.16-138.74,148.89-155.07"/><path class="cls-74" d="M434.56,633.24c-7.8-49.75-8.72-53.63-23.63-145.15-21.64-132.86-30.13-188.69-31.27-266-.35-15-10.69-149.87-7.4-150.75"/></g><g id="arrow"><path class="cls-75" d="M363.87,125.12a10.32,10.32,0,0,1-3.8-.74,11,11,0,0,1-1.69-.9,13.46,13.46,0,0,1-1.61-1.3L320.65,86.05a10.2,10.2,0,0,1,14.42-14.42L353.59,95V15.33c0-7.51,1.07-10.11,3-12a10.16,10.16,0,0,1,14.4,0c1.91,1.91,3,4.51,3,12V95l18.52-23.36A10.23,10.23,0,0,1,407,71.52a10.28,10.28,0,0,1,.11,14.53l-36,36.07a13.15,13.15,0,0,1-1.58,1.3,10.76,10.76,0,0,1-1.67.9A10.44,10.44,0,0,1,363.87,125.12Z"/></g></g></svg>