<svg xmlns="http://www.w3.org/2000/svg" viewBox="0 0 101.59 185.7"><defs><style>.cls-1{opacity:0.4;}.cls-2{fill:#fff;}.cls-3{fill:none;stroke:#fff;stroke-miterlimit:10;stroke-width:0.19px;}</style></defs><g id="Layer_2" data-name="Layer 2"><g id="Layer_3" data-name="Layer 3"><g class="cls-1"><circle class="cls-2" cx="35.9" cy="0.65" r="0.56"/></g><g class="cls-1"><path class="cls-2" d="M31.94.09a.56.56,0,1,1-.56.56A.56.56,0,0,1,31.94.09Z"/></g><g class="cls-1"><circle class="cls-2" cx="45.33" cy="0.65" r="0.56"/></g><g class="cls-1"><path class="cls-2" d="M26.87.09a.56.56,0,1,1-.56.56A.56.56,0,0,1,26.87.09Z"/></g><g class="cls-1"><path class="cls-2" d="M47.44.09a.56.56,0,0,1,0,1.12.57.57,0,0,1-.57-.56A.57.57,0,0,1,47.44.09Z"/></g><g class="cls-1"><circle class="cls-2" cx="45.09" cy="0.65" r="0.56"/></g><g class="cls-1"><path class="cls-2" d="M43.85.09a.56.56,0,1,1-.56.56A.56.56,0,0,1,43.85.09Z"/></g><g class="cls-1"><circle class="cls-2" cx="72.83" cy="0.65" r="0.56"/></g><g class="cls-1"><circle class="cls-2" cx="48.05" cy="0.65" r="0.56"/></g><g class="cls-1"><circle class="cls-2" cx="42.26" cy="0.65" r="0.56"/></g><g class="cls-1"><path class="cls-2" d="M38.2.09a.56.56,0,1,1-.56.56A.56.56,0,0,1,38.2.09Z"/></g><g class="cls-1"><path class="cls-2" d="M64.56.09a.56.56,0,1,1,0,1.12A.57.57,0,0,1,64,.65.57.57,0,0,1,64.56.09Z"/></g><g class="cls-1"><circle class="cls-2" cx="53.54" cy="0.65" r="0.56"/></g><g class="cls-1"><circle class="cls-2" cx="37.09" cy="0.65" r="0.56"/></g><g class="cls-1"><circle class="cls-2" cx="67.62" cy="0.65" r="0.56"/></g><g class="cls-1"><circle class="cls-2" cx="57.17" cy="0.65" r="0.56"/></g><g class="cls-1"><circle class="cls-2" cx="54.79" cy="0.65" r="0.56"/></g><g class="cls-1"><circle class="cls-2" cx="54.27" cy="0.65" r="0.56"/></g><g class="cls-1"><circle class="cls-2" cx="51.71" cy="0.65" r="0.56"/></g><g class="cls-1"><path class="cls-2" d="M61.8.09a.56.56,0,1,1-.56.56A.56.56,0,0,1,61.8.09Z"/></g><g class="cls-1"><circle class="cls-2" cx="67.09" cy="0.65" r="0.56"/></g><g class="cls-1"><circle class="cls-2" cx="69.15" cy="0.65" r="0.56"/></g><g class="cls-1"><path class="cls-2" d="M46.84.09a.56.56,0,0,1,0,1.12.57.57,0,0,1-.57-.56A.57.57,0,0,1,46.84.09Z"/></g><g class="cls-1"><path class="cls-3" d="M100.64,175.45a141,141,0,0,0-.48-23.56s-.43-4.13-1-7.58c-1.34-8.1-5-19.66-24.76-52-3.71-6.08-7.26-11.7-9.7-20.41a79.13,79.13,0,0,1-2.34-14.39,133,133,0,0,1-.45-20.64V.65"/><path class="cls-2" d="M101.2,175.45a.56.56,0,0,1-.6.53.55.55,0,0,1-.53-.59.56.56,0,0,1,.59-.53A.57.57,0,0,1,101.2,175.45Z"/></g><g class="cls-1"><path class="cls-3" d="M96.63,174.18c-.57-7.24-.28-4.85-2.27-18.27-2.19-14.76-3.72-25.06-9.37-37.48a123.39,123.39,0,0,0-9.93-17.51C66.4,88,61.51,85.68,58.22,75.49a80.31,80.31,0,0,1-2.9-14.84,106.4,106.4,0,0,1-.78-14.5V.65"/><path class="cls-2" d="M97.19,174.1a.57.57,0,1,1-1.13.1.56.56,0,0,1,.51-.61A.57.57,0,0,1,97.19,174.1Z"/></g><g class="cls-1"><path class="cls-3" d="M87.11,170.65a168.71,168.71,0,0,0-2.68-30.25,164.61,164.61,0,0,0-5.8-22.64c-2.38-7.17-3.92-11.69-7.25-17.18s-4.72-5.71-11.15-13.83C54.09,79,49.74,73.53,46.62,66a55.53,55.53,0,0,1-4.13-20.3V.65"/><path class="cls-2" d="M87.66,170.61a.57.57,0,0,1-.55.58.57.57,0,0,1-.58-.55.57.57,0,0,1,.55-.58A.56.56,0,0,1,87.66,170.61Z"/></g><g class="cls-1"><path class="cls-3" d="M48.62,174.18c.22-18.39,2-14.5,3.58-22.29A77.43,77.43,0,0,0,54,138.06a72.65,72.65,0,0,0-1.78-18.85c-2.34-10-6.36-16.92-10.38-23.87-4.85-8.39-6.2-8.59-8.92-14A55.22,55.22,0,0,1,27.43,56V.65"/><path class="cls-2" d="M49.19,174.17a.57.57,0,0,1-.58.55.57.57,0,1,1,0-1.13A.56.56,0,0,1,49.19,174.17Z"/></g><g class="cls-1"><path class="cls-3" d="M43.51,171.24c.71-40.32,3.81-35.59,6.23-42.33,3.5-9.71,6.06-11.91,12-28.55C65,91.34,68,83,69.93,71.69A130.16,130.16,0,0,0,71.6,42.36S70.6.65,71.6.65"/><path class="cls-2" d="M44.08,171.23a.55.55,0,0,1-.57.55.57.57,0,1,1,.57-.55Z"/></g><g class="cls-1"><path class="cls-3" d="M71.34,177.24a156.4,156.4,0,0,0-5.76-33.94c-1.91-6.45-4.06-11.62-8.36-22-4.91-11.8-6.21-13.33-10.38-24C41.07,82.58,40,76.44,39.7,74.48c-.52-3.27-.63-5.34-1.11-16.84-.35-8.28-.17-50.52-.42-57"/><path class="cls-2" d="M71.9,177.16a.57.57,0,1,1-.61-.52A.58.58,0,0,1,71.9,177.16Z"/></g><g class="cls-1"><path class="cls-3" d="M22.66,176a265.87,265.87,0,0,1,3.44-33.27c3.2-19,6.74-27,10.15-32.68,2.58-4.3,6-9,6-9,6.11-8.4,8.95-10.21,12.38-15.28,3.62-5.36,4.88-9.86,7.14-18a114.16,114.16,0,0,0,4.13-30.45V.65"/><path class="cls-2" d="M23.24,176a.56.56,0,0,1-.6.52.57.57,0,0,1-.53-.6.55.55,0,0,1,.6-.52A.56.56,0,0,1,23.24,176Z"/></g><g class="cls-1"><path class="cls-3" d="M27.09,172.77c-.38-15.73-.54-23.7,1.68-33.37a132.24,132.24,0,0,1,11.05-29.34c1.68-3.11,3.43-6,6-11.37A141.26,141.26,0,0,0,53,81.06,144.37,144.37,0,0,0,59.22,49.5c.45-4.39.67-8.07.78-10.71V.65"/><path class="cls-2" d="M27.65,172.73a.57.57,0,0,1-.55.58.57.57,0,1,1,0-1.13A.55.55,0,0,1,27.65,172.73Z"/></g><g class="cls-1"><path class="cls-3" d="M13.67,175.23c-1.86-8.44-4.69-18-4.53-28,.31-19.35,2.72-27,4.35-31.24a73.19,73.19,0,0,1,12-20.41c3.15-3.77,6.75-6.92,13.83-13,16-13.83,16.25-11.81,20-17,7.88-10.9,9.34-23.75,9.6-26.44.13-1.39.19-2.56.22-3.34V.65"/><path class="cls-2" d="M14.21,175.07a.56.56,0,0,1-.43.68.57.57,0,0,1-.67-.43.55.55,0,0,1,.43-.67A.56.56,0,0,1,14.21,175.07Z"/></g><g class="cls-1"><path class="cls-3" d="M1,175.21c-.15-8.16-.78-26.85.34-45.29a58,58,0,0,1,1.12-8.48A59.22,59.22,0,0,1,13.16,97.91c1.89-2.48,8.92-8.61,23-20.86a54.2,54.2,0,0,0,8.26-8.37C50.61,60.6,51.94,53.44,52.2,52a33.68,33.68,0,0,0,.44-7V.65"/><path class="cls-2" d="M1.55,175.17a.57.57,0,0,1-.55.58.57.57,0,0,1-.57-.56.55.55,0,0,1,.55-.57A.55.55,0,0,1,1.55,175.17Z"/></g><g class="cls-1"><path class="cls-3" d="M77.75,179.12c.17-9.55.17-8.15-3-30.58-1.48-10.36-3.35-18.69-6.81-27.66a92.75,92.75,0,0,0-6.24-13.49C50.14,87.2,37.33,84.75,34.57,69.69a94.55,94.55,0,0,1-.78-10.16,196.78,196.78,0,0,1,0-20.07V.65"/><path class="cls-2" d="M78.31,179.09a.57.57,0,1,1-.56-.57A.57.57,0,0,1,78.31,179.09Z"/></g><g class="cls-1"><path class="cls-3" d="M41.32,159c1.4-13.57,2.06-5.78,1-24.21-1.07-17.69-1.66-27.09-5-39.94-2.45-9.38-4.77-14.37-5.35-24.42-.31-5.25-.15-11.85.11-22.42.11-4.47.23-8.17.33-10.71V.65"/><path class="cls-2" d="M41.9,159.08a.56.56,0,1,1-.49-.63A.57.57,0,0,1,41.9,159.08Z"/></g><g class="cls-1"><path class="cls-3" d="M57.34,176.1c.32-17,.35-6.73.32-16.51,0-12.85-.19-16.79.67-23.65,2.57-20.56,8.29-20.38,9.26-34,1.31-18.34-8.72-23-10.71-50.75a120.92,120.92,0,0,1-.11-15.62S56.43,1,56.77.65"/><path class="cls-2" d="M57.91,176.09a.57.57,0,1,1-.55-.58A.57.57,0,0,1,57.91,176.09Z"/></g><g class="cls-1"><path class="cls-3" d="M101.05,123.15C94.3,92.64,85.54,79.75,78.3,73.81a71.17,71.17,0,0,1-9-8.92c-4.38-5.14-10.1-12.57-10.64-22.59-.14-2.52-.1-4.4-.07-5.85V.65"/><path class="cls-2" d="M101.58,123a.57.57,0,1,1-.68-.41A.56.56,0,0,1,101.58,123Z"/></g><g class="cls-1"><path class="cls-3" d="M6.82,158.54a59.05,59.05,0,0,1-4.59-22.6c0-4.48.08-16.8,7.25-28.55,3.34-5.49,4.75-5.14,9.14-12.5s3.59-8.64,8.14-17,5.86-8,9.93-16.29c3.05-6.17,4.22-10.18,4.58-14.38a82.09,82.09,0,0,0,.11-8.39L40.93.65"/><path class="cls-2" d="M7.35,158.3a.57.57,0,1,1-1.06.4.57.57,0,0,1,1.06-.4Z"/></g><g class="cls-1"><path class="cls-3" d="M.7,120.91c-1.84-12.75.84-20.65,3.76-25.57.84-1.42.46-.51,9.7-12.27A129.27,129.27,0,0,0,25.09,67.68,35.19,35.19,0,0,0,29.89,56a31.52,31.52,0,0,0,.56-6.36V.65"/><path class="cls-2" d="M1.27,120.82a.55.55,0,0,1-.49.62.56.56,0,1,1-.13-1.12A.56.56,0,0,1,1.27,120.82Z"/></g><g class="cls-1"><path class="cls-3" d="M8.63,98.26C7.49,88.53,9.87,83.4,12.26,80.5c2.2-2.64,4.25-3.22,7.14-6.46.89-1,3.13-3.77,6.36-13.28C30.41,47.08,31.31,4.49,31.56.65"/><path class="cls-2" d="M9.21,98.19a.57.57,0,0,1-.51.61.57.57,0,1,1,.51-.61Z"/></g><g class="cls-1"><path class="cls-3" d="M9.39,115.78c.36-6.82,2-16.41,8.34-24.9C24.29,82.12,28.6,84.27,37.25,74A62.29,62.29,0,0,0,51.08,42.58a57.34,57.34,0,0,0,.45-8.39V.65"/><circle class="cls-2" cx="9.42" cy="115.75" r="0.56"/></g><g class="cls-1"><path class="cls-3" d="M94.92,153.7a108.18,108.18,0,0,0-3.24-26.79c-2.51-9.94-7.69-21.15-18-43.17C68.48,72.48,67.09,70,65.58,64.33a78,78,0,0,1-2-28.78V.65"/><circle class="cls-2" cx="94.9" cy="153.67" r="0.56" transform="translate(-75.55 213.39) rotate(-77.61)"/></g><g class="cls-1"><path class="cls-3" d="M20.38,167.88a84.48,84.48,0,0,1-3-23.35,65.08,65.08,0,0,1,13.83-41.72c5.28-7.06,6.29-5.85,10.93-12,7.69-10.27,10.23-20.72,11.49-26.1a77.91,77.91,0,0,0,2-15.62V.65"/><path class="cls-2" d="M20.94,167.72a.57.57,0,1,1-.68-.42A.57.57,0,0,1,20.94,167.72Z"/></g><g class="cls-1"><path class="cls-3" d="M72.89,121.8c-.54-5-1.06-11.36-1.29-18.76a218.33,218.33,0,0,1,.9-31.9c.8-7.42,1.69-11.57,1.67-19.75,0-5.43-.73-11.61-.78-12.82s0-37.92,0-37.92"/><path class="cls-2" d="M73.45,121.72a.56.56,0,1,1-.61-.51A.56.56,0,0,1,73.45,121.72Z"/></g><g class="cls-1"><path class="cls-3" d="M88.75,77.88A61.44,61.44,0,0,1,72.39,38.79V.65"/><path class="cls-2" d="M89.17,77.48a.57.57,0,0,1,0,.79.56.56,0,1,1,0-.79Z"/></g><g class="cls-1"><path class="cls-3" d="M81.8,92.24c.38-5.47-.21-12.5-5.18-17.42-.61-.61-.67-.57-1.33-1.23-2.77-2.74-5.44-7.08-7-20.08a122.8,122.8,0,0,1-.89-16.17V.65"/><circle class="cls-2" cx="81.79" cy="92.21" r="0.56"/></g><g class="cls-1"><path class="cls-3" d="M14.63,131.29a60.32,60.32,0,0,1,2.1-28.81c3.57-10.57,7-10,12.27-23.2,5.78-14.5,6.78-28.09,7.25-35.14.35-5.35.33-40.2.22-43.49"/><path class="cls-2" d="M15.21,131.18a.56.56,0,1,1-.63-.49A.58.58,0,0,1,15.21,131.18Z"/></g><g class="cls-1"><path class="cls-3" d="M4.72,98.6c1-12.54,5-20,8.66-24.56,3-3.83,4.1-3.48,7.25-7.92,6.44-9.09,8-18.91,8.48-22.54a56.62,56.62,0,0,0,.55-6.35V.65"/><path class="cls-2" d="M5.3,98.63a.56.56,0,0,1-.62.5.56.56,0,0,1-.5-.62.56.56,0,1,1,1.12.12Z"/></g><g class="cls-1"><path class="cls-3" d="M37.57,170a100.82,100.82,0,0,1-2.66-24.91,85.12,85.12,0,0,1,4-26,60.75,60.75,0,0,1,5.91-13.72c1.54-2.54,3-4.41,6.36-10,2.63-4.35,3.41-5.93,4-7.92a25.13,25.13,0,0,0,.89-9.15,205,205,0,0,1,.22-21.64V.65"/><path class="cls-2" d="M38.14,169.85a.57.57,0,1,1-.67-.44A.57.57,0,0,1,38.14,169.85Z"/></g><g class="cls-1"><path class="cls-3" d="M90,146.48c.78-16.12-2.4-27.49-5.49-34.94-2.4-5.76-4.41-8.37-11.62-23.92-4.15-8.94-6.22-13.41-7.62-17.7A87.11,87.11,0,0,1,61.13,41V.65"/><path class="cls-2" d="M90.56,146.46A.56.56,0,0,1,90,147a.56.56,0,1,1,0-1.12A.56.56,0,0,1,90.56,146.46Z"/></g><g class="cls-1"><path class="cls-3" d="M91.7,103.87a75.29,75.29,0,0,0-8.8-21.33c-6.68-10.94-12.6-14-16.31-23.7-3.08-8-2.06-19.26-2-20.85s0-37.34,0-37.34"/><path class="cls-2" d="M92.21,103.69a.57.57,0,0,1-.39.7.56.56,0,0,1-.69-.39.55.55,0,0,1,.38-.69A.56.56,0,0,1,92.21,103.69Z"/></g><g class="cls-1"><path class="cls-3" d="M30.5,159.25c0-11.58,0,2.33,0-5.7,0-4.06,0-8.66.31-14.85.28-6.49.5-11.47,1.31-17.54C33.6,110,34.34,104.48,37,100c4.55-7.52,9.18-7.11,13.24-15.85a41,41,0,0,0,3.07-10.69c1.17-6.52.8-11.22.54-16.47-.27-5.54-.49-13.41-.23-23.23V.65"/><path class="cls-2" d="M31.06,159.22a.56.56,0,1,1-1.12,0,.57.57,0,0,1,.56-.57A.56.56,0,0,1,31.06,159.22Z"/></g><g class="cls-1"><path class="cls-3" d="M66.6,141.17a104.72,104.72,0,0,0-3.78-18.24c-1.93-6.36-3.27-8.52-7.08-20.39a111.15,111.15,0,0,1-3.31-11.92,117.62,117.62,0,0,1-1.77-11.78c-.38-3.68-.6-7-.84-15.08-.42-13.69-.47-26.31-.47-26.31V.65"/><path class="cls-2" d="M67.15,141.07a.57.57,0,1,1-.64-.48A.56.56,0,0,1,67.15,141.07Z"/></g><g class="cls-1"><path class="cls-3" d="M62.76,185.16c.07-3.28.83.24-1.65-18.49-2.17-16.4-5.93-28.87-13.06-45.2-5.74-13.13-10-16.89-13.78-31.08-2.4-9.09-3.14-17-4.15-27.78C29,51,28.76,41.24,28.73,34.19V.65"/><path class="cls-2" d="M63.35,185.16a.57.57,0,0,1-.6.53.55.55,0,0,1-.53-.59.56.56,0,0,1,.59-.53A.57.57,0,0,1,63.35,185.16Z"/></g><g class="cls-1"><path class="cls-3" d="M96.56,99.71c-3-14.19-8.54-21.49-13.2-25.56C81.15,72.22,78,70,74.9,65.46A39.73,39.73,0,0,1,69.05,51a45.33,45.33,0,0,1-.92-11.62V.65"/><path class="cls-2" d="M97.09,99.55a.57.57,0,0,1-.42.68.56.56,0,0,1-.68-.41.57.57,0,0,1,1.1-.27Z"/></g><g class="cls-1"><path class="cls-3" d="M88.73,73.93c-2.21-12.44-6.49-17.7-10.14-20.17a19.11,19.11,0,0,1-3-2.23c-4.71-4.48-5.48-11.21-5.39-16.23V.65"/><path class="cls-2" d="M89.26,73.79a.56.56,0,0,1-.44.67.57.57,0,1,1,.44-.67Z"/></g><g class="cls-1"><path class="cls-3" d="M20.43,118a18.58,18.58,0,0,1,.15-11.18c1.53-4.24,4.11-5.48,6.77-10.31,1.1-2,2.27-4.7,3.54-11.92,1.7-9.66,1.82-17.42,1.92-26.55.13-11,.2-19.38.23-23.54V.65"/><path class="cls-2" d="M21,117.87a.58.58,0,0,1-.42.68.57.57,0,1,1,.42-.68Z"/></g><g class="cls-1"><path class="cls-3" d="M21.47,150.41a92.57,92.57,0,0,1,.88-18.94,79.1,79.1,0,0,1,5.54-20.54c3-7,6.63-12.38,13.46-22.54,3.4-5.06,3.65-5.07,4.85-7.24,4-7.14,4.72-13.59,5.77-22a133.41,133.41,0,0,0,1-18.31V.65"/><path class="cls-2" d="M22,150.35a.57.57,0,0,1-.54.59.57.57,0,1,1,.54-.59Z"/></g><g class="cls-1"><path class="cls-3" d="M81.75,146.79a91.44,91.44,0,0,0-1.08-32.48,88.83,88.83,0,0,0-7.85-22.39c-4.68-9.09-7.47-10.38-10.08-18.31-1.6-4.86-2-9.74-2.69-19.31-.57-7.66-.77-14.63-.77-20.77V.65"/><path class="cls-2" d="M82.3,146.83a.56.56,0,1,1-1.12-.14.56.56,0,0,1,.62-.49A.58.58,0,0,1,82.3,146.83Z"/></g><g class="cls-1"><path class="cls-3" d="M70.39,121.17a98,98,0,0,0-5.11-23.4A126.11,126.11,0,0,0,56.74,79C51,68.64,47,65.1,44.81,56.3a43.53,43.53,0,0,1-1.3-10.92V.65"/><path class="cls-2" d="M70.93,121.08a.56.56,0,0,1-.49.62.57.57,0,0,1-.63-.5.56.56,0,0,1,.5-.62A.56.56,0,0,1,70.93,121.08Z"/></g><g class="cls-1"><path class="cls-3" d="M89.22,85A58.52,58.52,0,0,0,74.67,69.46c-3.74-2.72-4.89-2.81-7.7-5.54a33,33,0,0,1-9.31-17.54,23,23,0,0,1-.46-5.77c.08-.7,0-40,0-40"/><path class="cls-2" d="M89.66,84.68a.56.56,0,0,1-.14.78.56.56,0,1,1-.64-.93A.55.55,0,0,1,89.66,84.68Z"/></g><g class="cls-1"><path class="cls-3" d="M25.61,107.87a29.1,29.1,0,0,1,.66-17,39.58,39.58,0,0,1,2.54-5C36.19,72.59,40,69.54,41.2,62c.11-.67.17-2.4.31-5.84.31-8.3.22-15,.07-19.55V.65"/><path class="cls-2" d="M26.18,107.73a.57.57,0,0,1-1.11.22.57.57,0,1,1,1.11-.22Z"/></g><g class="cls-1"><path class="cls-3" d="M27.11,124.86a36.14,36.14,0,0,1,3.78-17.09c1.63-3.17,2.94-4.38,4.69-7.77,3.15-6.09,2-9.25,4.16-16.08a51.4,51.4,0,0,1,5-10.61c3.22-6,6.4-16.06,5.61-33.94V.65"/><path class="cls-2" d="M27.69,124.84a.55.55,0,0,1-.57.55.56.56,0,1,1,0-1.12A.55.55,0,0,1,27.69,124.84Z"/></g><g class="cls-1"><path class="cls-3" d="M12.75,149.4a130.33,130.33,0,0,1-.4-25.16A107.26,107.26,0,0,1,16,102.47c2.55-9.09,3.83-13.64,6.23-18.16a34.64,34.64,0,0,0,4.47-12.77,30.77,30.77,0,0,0,.23-4.39c-.08-6.28-.09-17.5-.08-32.62V.65"/><path class="cls-2" d="M13.32,149.33a.56.56,0,1,1-.61-.52A.58.58,0,0,1,13.32,149.33Z"/></g><g class="cls-1"><path class="cls-3" d="M15.37,90.25a243.79,243.79,0,0,1,7-28.87,106.34,106.34,0,0,1,3.77-10.7c2.56-6,4.07-7.68,5.31-12,.74-2.6,1.47-32.9,1.07-38"/><path class="cls-2" d="M15.94,90.33a.57.57,0,0,1-1.11-.22.56.56,0,0,1,.67-.44A.57.57,0,0,1,15.94,90.33Z"/></g><g class="cls-1"><path class="cls-3" d="M45.54,86.36a18.24,18.24,0,0,1-4.26-11.29c-.28-5.51-1.06-11-1.08-16.54,0-4.6-.17-11.28-.77-19.69V.65"/><path class="cls-2" d="M46,86a.56.56,0,0,1-.11.79.56.56,0,1,1-.68-.9A.56.56,0,0,1,46,86Z"/></g><g class="cls-1"><path class="cls-3" d="M66.53,165.49a142.46,142.46,0,0,0-12.41-43.71,128.7,128.7,0,0,0-8-14.7c-3.52-5.26-4.15-5-5.92-8.38-3.06-5.85-3.62-11.27-4.31-18.7-.29-3.06-.1-2.59-.46-12.47-.35-9.67-.57-11.25-.77-17.77-.12-4-.24-9.72-.16-16.77V.65"/><path class="cls-2" d="M67.06,165.38a.56.56,0,0,1-.47.64.57.57,0,1,1,.47-.64Z"/></g><g class="cls-1"><path class="cls-3" d="M22.88,105a37.22,37.22,0,0,1-.07-11.4c.94-6.28,3.27-10.75,5.46-14.85,2.88-5.39,3.5-4.84,9.7-14.62,5.1-8.05,6.07-10.62,6.69-13A51.17,51.17,0,0,0,46,40.76c.21-3.94.09-37.73-.08-40.11"/><path class="cls-2" d="M23.44,104.91a.56.56,0,1,1-.63-.48A.55.55,0,0,1,23.44,104.91Z"/></g><g class="cls-1"><path class="cls-3" d="M39.89,176.1c0-12.62.1-24.48.31-36a92.7,92.7,0,0,1,3.46-25.47A55.61,55.61,0,0,1,46,108.08c3.55-8.18,7.58-11.38,12.08-17.23,2.55-3.32,8.63-11.4,11.31-22.47,1.21-5,1.34-9.63,1.61-18.93.2-6.73,0-12.35-.15-16.31V.65"/><path class="cls-2" d="M40.46,176.08a.57.57,0,0,1-.57.56.57.57,0,0,1-.56-.57.57.57,0,1,1,1.13,0Z"/></g><g class="cls-1"><path class="cls-3" d="M46.7,154.89c2.27-15.28.44-26.72-1.67-34.37-3.56-12.93-8.44-16.91-12.5-33.92-1.84-7.72-2.46-13.73-3.46-23.39C27.76,50.61,27.45,8.28,27.43.65"/><path class="cls-2" d="M47.25,154.93a.56.56,0,1,1-.49-.63A.56.56,0,0,1,47.25,154.93Z"/></g><g class="cls-1"><path class="cls-3" d="M66.86,130.87c1.16-16.33-2.6-27.1-6.36-34C55.12,87,49.22,84.15,42.8,69.52A88.59,88.59,0,0,1,37,51.08a85.82,85.82,0,0,1-1.61-17.7V.65"/><path class="cls-2" d="M67.4,130.87a.56.56,0,1,1-.54-.59A.57.57,0,0,1,67.4,130.87Z"/></g><g class="cls-1"><path class="cls-3" d="M79.09,129.51a66.48,66.48,0,0,0-4.23-26.2C71.27,94,68.8,94.4,60.5,77.82a159.29,159.29,0,0,1-9.53-24,69.71,69.71,0,0,1-2.6-12.26C47.89,37.37,47.9,3.2,48,.65"/><path class="cls-2" d="M79.64,129.49a.57.57,0,0,1-.57.56.57.57,0,1,1,.57-.56Z"/></g><g class="cls-1"><path class="cls-3" d="M71.19,150.43a66.28,66.28,0,0,0-1-18.28c-1.07-5.36-2.81-14.07-8.79-22.4-2-2.8-3.77-4.54-5.45-8.42A31.51,31.51,0,0,1,53.45,89.2c-.4-12.91-4-15.26-6.44-36.51-.74-6.48-1.52-40.44-1.36-52"/><path class="cls-2" d="M71.74,150.43a.57.57,0,1,1-.54-.59A.57.57,0,0,1,71.74,150.43Z"/></g><g class="cls-1"><path class="cls-3" d="M36.37,141.53a77.08,77.08,0,0,1-2-23.74c.23-3.13.42-3.1,1.48-11.51,1.7-13.43,1.57-16.42,2.73-24.87C40,71,41,70,42.43,61c1.15-7.13,2.31-47.35,2-60.33"/><path class="cls-2" d="M36.93,141.38a.57.57,0,0,1-1.11.24.57.57,0,0,1,1.11-.24Z"/></g><g class="cls-1"><path class="cls-3" d="M84.56,123.33A70,70,0,0,0,82,96.75c-3.88-12.9-9.61-17.57-14.36-30.07a79.68,79.68,0,0,1-4.83-32.49V.65"/><path class="cls-2" d="M85.11,123.33a.56.56,0,1,1-.53-.6A.56.56,0,0,1,85.11,123.33Z"/></g><g class="cls-1"><path class="cls-3" d="M43.13,128.65a68.31,68.31,0,0,1,8.71-24.1c4.1-6.88,7.62-7.21,12.38-15.22A64.34,64.34,0,0,0,71.64,69.9C73,64,73.16,59.63,73.5,51.83c.35-8,.18-45.9-.11-51.18"/><path class="cls-2" d="M43.71,128.73a.56.56,0,0,1-.66.45.57.57,0,0,1-.45-.66.58.58,0,0,1,.66-.45A.57.57,0,0,1,43.71,128.73Z"/></g><g class="cls-1"><path class="cls-3" d="M19.14,138.82c-3.35-11.4-3-20.22-2.08-26.22.41-2.57.74-3.41,4.46-16.59s5.63-20,6.06-21.91a169.7,169.7,0,0,0,3.71-30.69c.3-6.87.19-38.35,0-42.76"/><path class="cls-2" d="M19.69,138.64a.56.56,0,1,1-1.09.29.56.56,0,0,1,.39-.69A.58.58,0,0,1,19.69,138.64Z"/></g><g class="cls-1"><path class="cls-3" d="M17.12,170.65C15.87,158,15.42,154.38,16,146.38c1-12.59,1.87-23.26,7.53-35.63,2.43-5.29,3.26-4.74,9-14.91,6-10.67,9-16,11.15-22.74,2.55-7.94,3.1-15.43,4.2-30.41.43-5.95.63-38.6.72-42"/><path class="cls-2" d="M17.68,170.58a.56.56,0,0,1-1.12.1.57.57,0,0,1,.51-.62A.56.56,0,0,1,17.68,170.58Z"/></g><g class="cls-1"><path class="cls-3" d="M5.58,131.24c-2.12-6.7-3.89-16.69-.41-27,2.5-7.42,7.27-13.65,9.12-16.08,4.66-6.09,6.44-6.25,10.14-11.73s5.23-10.24,7.33-16.79a115.94,115.94,0,0,0,4.77-22.46V.65"/><path class="cls-2" d="M6.13,131.05a.56.56,0,1,1-.71-.38A.57.57,0,0,1,6.13,131.05Z"/></g><g class="cls-1"><path class="cls-3" d="M41.54,160.91a116.32,116.32,0,0,1-2.92-26.26,57.36,57.36,0,0,1,1.16-12.31c1.32-6,2.66-6.81,4.49-13.18a63.44,63.44,0,0,0,2.46-17.38c0-5.24-.74-6.3-1.74-15.2-.55-4.94-.76-8.87-1.16-16.51S43,15.66,42.82.65"/><path class="cls-2" d="M42.11,160.78a.56.56,0,1,1-.66-.45A.57.57,0,0,1,42.11,160.78Z"/></g><g class="cls-1"><path class="cls-3" d="M21.87,125.34a35,35,0,0,1-3.52-11.69,37.53,37.53,0,0,1,2.31-17.09C27.58,76.48,33.51,70.42,37,58c1.71-6,3.29-45.27,1.73-57.39"/><path class="cls-2" d="M22.38,125.06a.57.57,0,0,1-.27.75.56.56,0,1,1,.27-.75Z"/></g><g class="cls-1"><path class="cls-3" d="M69,94.89c-2.08-7.12-3.66-15.09-5.49-23.67-3.73-17.44-4.17-38-2.42-50.84L60.92.65"/><path class="cls-2" d="M69.58,94.72a.55.55,0,0,1-.4.68.56.56,0,0,1-.69-.4.57.57,0,0,1,.41-.69A.56.56,0,0,1,69.58,94.72Z"/></g><g class="cls-1"><path class="cls-3" d="M75.46,79.14a98.94,98.94,0,0,1-8.31-24.43,114.18,114.18,0,0,1-1.88-15.35C65,34.33,65,4,65.12.65"/><path class="cls-2" d="M76,78.87a.57.57,0,0,1-.29.75.55.55,0,0,1-.74-.29.56.56,0,0,1,.28-.74A.57.57,0,0,1,76,78.87Z"/></g><g class="cls-1"><path class="cls-3" d="M62.27,96.55c2.83-17.18.33-27.91-2.68-34.65a58.43,58.43,0,0,1-5.06-15.11C53.38,40.3,53.67,4.36,54.11.65"/><path class="cls-2" d="M62.82,96.59a.56.56,0,0,1-.64.48A.56.56,0,0,1,62.33,96,.56.56,0,0,1,62.82,96.59Z"/></g><g class="cls-1"><path class="cls-3" d="M41.15,137.31c-.31-6.06-.38-11-.39-14.47,0-8.82.35-12.88.42-25.25,0-6.42,0-9.68-.21-12-.85-7.79-2.39-8.81-3.52-17.38a94.58,94.58,0,0,1-.72-14.49c.06-4.19.33-5.76.62-10.45.25-4.12.49-35.22.31-42.62"/><path class="cls-2" d="M41.72,137.26a.56.56,0,1,1-.58-.55A.56.56,0,0,1,41.72,137.26Z"/></g><g class="cls-1"><path class="cls-3" d="M80,76.64A96.81,96.81,0,0,1,70,49.48C68.19,40.41,67.92,6.86,68.18.65"/><path class="cls-2" d="M80.53,76.35a.58.58,0,0,1-.24.76.56.56,0,0,1-.76-.25.56.56,0,0,1,.24-.76A.57.57,0,0,1,80.53,76.35Z"/></g><g class="cls-1"><path class="cls-3" d="M63.34,99a44.15,44.15,0,0,1-5.51-13.2c-.93-4-1-7.18-1.24-12.52-.14-3.87,0-7.15.21-13.56.19-5.17.34-7.17.52-11.07.19-4.26.4-40.53.41-48"/><path class="cls-2" d="M63.84,98.69a.56.56,0,0,1-1,.55.57.57,0,0,1,.21-.77A.56.56,0,0,1,63.84,98.69Z"/></g><g class="cls-1"><path class="cls-3" d="M16.28,95.61c-1.27-10.4.34-18,2.13-23.06,2.67-7.56,7.08-13.47,8-24.31a45.37,45.37,0,0,0,0-7.45V.65"/><path class="cls-2" d="M16.85,95.53a.56.56,0,0,1-.51.61.55.55,0,0,1-.61-.5.56.56,0,0,1,.5-.62A.57.57,0,0,1,16.85,95.53Z"/></g><g class="cls-1"><path class="cls-3" d="M32.19,133.8a68,68,0,0,1-.33-18.31A42.75,42.75,0,0,1,34,105.25c2.94-8.08,7.55-11,11.38-16.14,4-5.34,5.15-12.29,7.45-26.18,1.38-8.34,2.71-48.11,2.48-62.28"/><path class="cls-2" d="M32.76,133.69a.56.56,0,0,1-.48.63.57.57,0,0,1-.64-.48.58.58,0,0,1,.49-.64A.56.56,0,0,1,32.76,133.69Z"/></g><g class="cls-1"><path class="cls-3" d="M56.27,169c-.27-14.12-.13-26.13.11-35.47.21-7.82.49-13.91.63-16.66.74-15.2,1.77-26.44,2.07-29.8,1-11.15,2.43-55.05,2.82-86V0"/><path class="cls-2" d="M56.84,168.93a.56.56,0,0,1-.56.57.57.57,0,0,1,0-1.13A.57.57,0,0,1,56.84,168.93Z"/></g><g class="cls-1"><path class="cls-3" d="M55.08,128q-1.19-10.23-2.21-20.79c-.94-9.64-1.53-17-1.66-18.62C49.5,66.68,49.94,8.8,50.07.65"/><path class="cls-2" d="M55.64,127.91a.56.56,0,0,1-.5.62.57.57,0,0,1-.62-.5.56.56,0,0,1,.5-.62A.56.56,0,0,1,55.64,127.91Z"/></g><g class="cls-1"><path class="cls-3" d="M69.17,82.84c-5.5-6-14.63-17.73-17.52-34.67a63.48,63.48,0,0,1-.79-14.43V.65"/><path class="cls-2" d="M69.58,82.43a.56.56,0,0,1,0,.8.57.57,0,0,1-.79,0,.56.56,0,0,1,0-.79A.57.57,0,0,1,69.58,82.43Z"/></g><g class="cls-1"><path class="cls-3" d="M27.45,92.18c4.18-5.56,7.65-9.64,10.13-12.41,2.11-2.36,5.62-6.14,6.11-6.67,2.83-3,4.89-5.21,5-5.37C51.78,64.5,54.48,31.57,54.84.65"/><path class="cls-2" d="M27.92,92.51a.56.56,0,1,1-.1-.79A.56.56,0,0,1,27.92,92.51Z"/></g><g class="cls-1"><path class="cls-3" d="M30.34,106.13A75,75,0,0,0,42.27,89.42C50.31,74,51.18,58.67,52,44.27c.32-5.69.31-40.61.26-43.62"/><path class="cls-2" d="M30.77,106.46a.56.56,0,1,1-.85-.74.56.56,0,0,1,.85.74Z"/></g><g class="cls-1"><path class="cls-3" d="M70.18,80.27A71,71,0,0,1,64.49,65c-1.59-6.48-1.84-11.48-2.21-19.65C62,40.05,61.92,9,62.36.65"/><path class="cls-2" d="M70.68,80a.57.57,0,0,1-.26.76.57.57,0,0,1-.5-1A.58.58,0,0,1,70.68,80Z"/></g><g class="cls-1"><path class="cls-3" d="M82.57,80.68A73.78,73.78,0,0,1,69.89,56.93C66.51,46.28,66.24,6.59,66.52.65h.07"/><path class="cls-2" d="M83,80.31a.56.56,0,1,1-.9.68.58.58,0,0,1,.11-.79A.56.56,0,0,1,83,80.31Z"/></g><g class="cls-1"><path class="cls-3" d="M75.75,60.17c-5.13-9.77-6.09-15.54-6.13-18.82,0-.6,0-3.41,0-6.37,0-3.63.06-32.34.09-34.33"/><path class="cls-2" d="M76.25,59.89a.57.57,0,1,1-.76-.25A.56.56,0,0,1,76.25,59.89Z"/></g><g class="cls-1"><path class="cls-3" d="M35.93,123.68c.49-7.77,1.17-14.23,1.73-18.94.69-5.69,1.39-10.16,2.75-18.86,1-6.34,1.11-6.84,3-18.5,2.76-16.94,3.84-24,4-33.91,0-1.87,0-31.81,0-32.82"/><path class="cls-2" d="M36.5,123.7a.56.56,0,0,1-.61.51.55.55,0,0,1-.51-.6.56.56,0,0,1,.6-.52A.57.57,0,0,1,36.5,123.7Z"/></g></g></g></svg>