<svg xmlns="http://www.w3.org/2000/svg" viewBox="0 0 101.59 185.7"><defs><style>.cls-1{opacity:0.4;}.cls-2{fill:#fff;}.cls-3{fill:none;stroke:#fff;stroke-miterlimit:10;stroke-width:0.19px;}</style></defs><g id="Layer_2" data-name="Layer 2"><g id="Layer_3" data-name="Layer 3"><g class="cls-1"><path class="cls-2" d="M64.56,184.48a.57.57,0,1,1-.56.57A.56.56,0,0,1,64.56,184.48Z"/></g><g class="cls-1"><circle class="cls-2" cx="68.53" cy="185.05" r="0.56"/></g><g class="cls-1"><path class="cls-2" d="M55.14,184.48a.57.57,0,0,1,0,1.13.57.57,0,1,1,0-1.13Z"/></g><g class="cls-1"><circle class="cls-2" cx="73.6" cy="185.05" r="0.56"/></g><g class="cls-1"><circle class="cls-2" cx="53.03" cy="185.05" r="0.56"/></g><g class="cls-1"><path class="cls-2" d="M55.38,184.48a.57.57,0,0,1,0,1.13.57.57,0,1,1,0-1.13Z"/></g><g class="cls-1"><circle class="cls-2" cx="56.62" cy="185.05" r="0.56"/></g><g class="cls-1"><path class="cls-2" d="M27.64,184.48a.57.57,0,1,1-.56.57A.56.56,0,0,1,27.64,184.48Z"/></g><g class="cls-1"><path class="cls-2" d="M52.42,184.48a.57.57,0,0,1,0,1.13.57.57,0,1,1,0-1.13Z"/></g><g class="cls-1"><circle class="cls-2" cx="58.21" cy="185.05" r="0.56"/></g><g class="cls-1"><circle class="cls-2" cx="62.26" cy="185.05" r="0.56"/></g><g class="cls-1"><circle class="cls-2" cx="35.91" cy="185.05" r="0.56"/></g><g class="cls-1"><circle class="cls-2" cx="46.92" cy="185.05" r="0.56"/></g><g class="cls-1"><circle class="cls-2" cx="63.37" cy="185.05" r="0.56"/></g><g class="cls-1"><path class="cls-2" d="M32.85,184.48a.57.57,0,1,1-.56.57A.56.56,0,0,1,32.85,184.48Z"/></g><g class="cls-1"><path class="cls-2" d="M43.3,184.48a.57.57,0,1,1-.56.57A.56.56,0,0,1,43.3,184.48Z"/></g><g class="cls-1"><path class="cls-2" d="M45.68,184.48a.57.57,0,0,1,0,1.13.57.57,0,1,1,0-1.13Z"/></g><g class="cls-1"><circle class="cls-2" cx="46.19" cy="185.05" r="0.56"/></g><g class="cls-1"><path class="cls-2" d="M48.76,184.48a.57.57,0,0,1,0,1.13.57.57,0,1,1,0-1.13Z"/></g><g class="cls-1"><circle class="cls-2" cx="38.67" cy="185.05" r="0.56"/></g><g class="cls-1"><circle class="cls-2" cx="34.5" cy="185.05" r="0.56"/></g><g class="cls-1"><path class="cls-2" d="M31.32,184.48a.57.57,0,0,1,0,1.13.57.57,0,1,1,0-1.13Z"/></g><g class="cls-1"><circle class="cls-2" cx="53.63" cy="185.05" r="0.56"/></g><g class="cls-1"><path class="cls-3" d="M1,10.24A141,141,0,0,0,1.43,33.8s.44,4.14,1,7.59c1.34,8.1,5,19.65,24.76,52,3.71,6.07,7.26,11.7,9.7,20.41a80.1,80.1,0,0,1,2.35,14.39,133.88,133.88,0,0,1,.44,20.63V185"/><path class="cls-2" d="M.4,10.25A.57.57,0,0,1,1,9.71a.56.56,0,0,1,.53.59.57.57,0,0,1-.59.54A.56.56,0,0,1,.4,10.25Z"/></g><g class="cls-1"><path class="cls-3" d="M5,11.52c.57,7.23.28,4.84,2.27,18.27C9.43,44.55,11,54.84,16.6,67.27a123.39,123.39,0,0,0,9.93,17.51C35.2,97.68,40.08,100,43.37,110.21A79.4,79.4,0,0,1,46.27,125a105,105,0,0,1,.78,14.51V185"/><path class="cls-2" d="M4.41,11.59a.56.56,0,1,1,1.12-.1A.56.56,0,0,1,5,12.1.56.56,0,0,1,4.41,11.59Z"/></g><g class="cls-1"><path class="cls-3" d="M14.48,15a169.55,169.55,0,0,0,2.68,30.25A166.54,166.54,0,0,0,23,67.94c2.39,7.16,3.92,11.69,7.25,17.17s4.72,5.72,11.16,13.83c6.13,7.74,10.48,13.23,13.6,20.75A55.16,55.16,0,0,1,59.1,140v45"/><path class="cls-2" d="M13.93,15.08a.57.57,0,0,1,1.13,0,.57.57,0,0,1-.55.58A.58.58,0,0,1,13.93,15.08Z"/></g><g class="cls-1"><path class="cls-3" d="M53,11.52C52.75,29.9,51,26,49.4,33.8a76.22,76.22,0,0,0-1.79,13.84A73,73,0,0,0,49.4,66.49c2.34,10,6.36,16.92,10.37,23.87,4.85,8.39,6.21,8.59,8.92,14a55.07,55.07,0,0,1,5.47,25.32V185"/><path class="cls-2" d="M52.4,11.53a.57.57,0,1,1,.55.58A.57.57,0,0,1,52.4,11.53Z"/></g><g class="cls-1"><path class="cls-3" d="M58.08,14.46c-.7,40.31-3.8,35.59-6.23,42.32-3.5,9.72-6.06,11.91-12.05,28.56-3.24,9-6.2,17.38-8.14,28.66A130.86,130.86,0,0,0,30,143.34S31,185,30,185"/><path class="cls-2" d="M57.51,14.46a.57.57,0,1,1,.55.58A.56.56,0,0,1,57.51,14.46Z"/></g><g class="cls-1"><path class="cls-3" d="M30.25,8.46A156.33,156.33,0,0,0,36,42.39c1.91,6.45,4.06,11.63,8.37,22,4.91,11.8,6.21,13.33,10.37,24,5.77,14.76,6.83,20.91,7.14,22.86.52,3.27.63,5.35,1.12,16.85.34,8.28.17,50.52.42,57"/><path class="cls-2" d="M29.7,8.54a.56.56,0,0,1,1.12-.1.56.56,0,0,1-.51.61A.56.56,0,0,1,29.7,8.54Z"/></g><g class="cls-1"><path class="cls-3" d="M78.93,9.69A263.53,263.53,0,0,1,75.5,43c-3.2,19-6.75,27-10.15,32.68-2.58,4.31-6,9-6,9-6.11,8.39-8.94,10.2-12.38,15.28-3.62,5.35-4.88,9.86-7.14,18a113.69,113.69,0,0,0-4.12,30.45V185"/><path class="cls-2" d="M78.35,9.68A.58.58,0,0,1,79,9.15a.57.57,0,0,1-.08,1.13A.57.57,0,0,1,78.35,9.68Z"/></g><g class="cls-1"><path class="cls-3" d="M74.51,12.93c.37,15.72.53,23.7-1.69,33.37a132.29,132.29,0,0,1-11,29.33c-1.69,3.12-3.44,6-6,11.38a139.74,139.74,0,0,0-7.13,17.62,144.58,144.58,0,0,0-6.25,31.57c-.45,4.38-.67,8.07-.78,10.71V185"/><circle class="cls-2" cx="74.51" cy="12.95" r="0.56" transform="translate(45.05 82.6) rotate(-76.94)"/></g><g class="cls-1"><path class="cls-3" d="M87.92,10.47c1.86,8.43,4.69,18,4.53,28-.31,19.35-2.72,27-4.35,31.23a73.47,73.47,0,0,1-12,20.41c-3.15,3.78-6.76,6.92-13.84,13.05-16,13.83-16.25,11.81-20,17-7.87,10.9-9.33,23.75-9.59,26.43-.14,1.4-.2,2.56-.23,3.35V185"/><path class="cls-2" d="M87.38,10.62a.57.57,0,0,1,.43-.67.56.56,0,1,1-.43.67Z"/></g><g class="cls-1"><path class="cls-3" d="M100.6,10.48c.15,8.16.79,26.85-.34,45.3a58.1,58.1,0,0,1-1.12,8.47,59,59,0,0,1-10.7,23.54c-1.9,2.47-8.92,8.6-23,20.86A54.12,54.12,0,0,0,57.2,117c-6.22,8.09-7.55,15.24-7.8,16.74a33,33,0,0,0-.45,7V185"/><path class="cls-2" d="M100,10.52a.55.55,0,0,1,.55-.57.56.56,0,0,1,.58.55.57.57,0,1,1-1.13,0Z"/></g><g class="cls-1"><path class="cls-3" d="M23.84,6.58c-.16,9.55-.17,8.14,3,30.57a120.18,120.18,0,0,0,6.8,27.66,92.55,92.55,0,0,0,6.25,13.5C51.45,98.49,64.26,100.94,67,116a91.86,91.86,0,0,1,.78,10.15,194.09,194.09,0,0,1,0,20.08V185"/><path class="cls-2" d="M23.28,6.6a.56.56,0,0,1,.57-.55.56.56,0,1,1,0,1.12A.57.57,0,0,1,23.28,6.6Z"/></g><g class="cls-1"><path class="cls-3" d="M60.27,26.66c-1.4,13.57-2.06,5.78-1,24.21C60.39,68.56,61,78,64.34,90.8c2.46,9.38,4.77,14.38,5.36,24.43.3,5.24.14,11.85-.11,22.42-.11,4.46-.24,8.16-.34,10.71V185"/><path class="cls-2" d="M59.7,26.61a.56.56,0,1,1,.49.63A.56.56,0,0,1,59.7,26.61Z"/></g><g class="cls-1"><path class="cls-3" d="M44.26,9.59c-.33,17.05-.36,6.73-.33,16.52,0,12.85.19,16.78-.67,23.64C40.69,70.31,35,70.14,34,83.77c-1.3,18.35,8.72,23,10.71,50.76a120.77,120.77,0,0,1,.11,15.61s.34,34.57,0,34.9"/><path class="cls-2" d="M43.69,9.61a.56.56,0,0,1,.58-.55.57.57,0,0,1,.55.58.56.56,0,0,1-.58.54A.55.55,0,0,1,43.69,9.61Z"/></g><g class="cls-1"><path class="cls-3" d="M.55,62.55c6.74,30.5,15.5,43.4,22.75,49.33a72.7,72.7,0,0,1,9,8.93C36.71,126,42.44,133.38,43,143.39c.13,2.53.09,4.41.06,5.86V185"/><path class="cls-2" d="M0,62.71A.57.57,0,0,1,.43,62a.57.57,0,0,1,.68.42.56.56,0,0,1-.41.68A.56.56,0,0,1,0,62.71Z"/></g><g class="cls-1"><path class="cls-3" d="M94.78,27.15a59.52,59.52,0,0,1,4.59,22.6c0,4.49-.09,16.81-7.25,28.56C88.77,83.8,87.37,83.45,83,90.8s-3.59,8.64-8.14,17S69,115.79,64.9,124c-3,6.17-4.21,10.18-4.57,14.39a82.57,82.57,0,0,0-.12,8.39L60.66,185"/><path class="cls-2" d="M94.25,27.39a.55.55,0,0,1,.32-.72.56.56,0,1,1-.32.72Z"/></g><g class="cls-1"><path class="cls-3" d="M100.9,64.79c1.83,12.75-.84,20.64-3.76,25.57-.84,1.41-.47.5-9.71,12.27A128.46,128.46,0,0,0,76.5,118a35,35,0,0,0-4.79,11.71,31.46,31.46,0,0,0-.56,6.36V185"/><path class="cls-2" d="M100.32,64.88a.58.58,0,0,1,.5-.63.57.57,0,0,1,.13,1.13A.58.58,0,0,1,100.32,64.88Z"/></g><g class="cls-1"><path class="cls-3" d="M93,87.43c1.14,9.74-1.23,14.87-3.63,17.76-2.2,2.65-4.25,3.23-7.14,6.47-.88,1-3.13,3.76-6.36,13.27C71.19,138.61,70.28,181.2,70,185"/><path class="cls-2" d="M92.39,87.51A.56.56,0,1,1,93,88,.56.56,0,0,1,92.39,87.51Z"/></g><g class="cls-1"><path class="cls-3" d="M92.2,69.92c-.36,6.81-2,16.41-8.34,24.9-6.55,8.75-10.86,6.61-19.52,16.84a62.33,62.33,0,0,0-13.83,31.45,58.59,58.59,0,0,0-.44,8.39V185"/><path class="cls-2" d="M91.62,69.9a.56.56,0,0,1,1.12.1.56.56,0,1,1-1.12-.1Z"/></g><g class="cls-1"><path class="cls-3" d="M6.68,32A108.27,108.27,0,0,0,9.91,58.79c2.51,9.93,7.69,21.15,18,43.17,5.25,11.25,6.64,13.75,8.14,19.4a77.8,77.8,0,0,1,2,28.78V185"/><path class="cls-2" d="M6.13,32a.57.57,0,1,1,.58.55A.57.57,0,0,1,6.13,32Z"/></g><g class="cls-1"><path class="cls-3" d="M81.22,17.81a84.88,84.88,0,0,1,3,23.36A68.28,68.28,0,0,1,80.63,64,67.9,67.9,0,0,1,70.37,82.88c-5.28,7.07-6.3,5.86-10.93,12.05C51.74,105.2,49.2,115.64,48,121a77.88,77.88,0,0,0-2,15.62V185"/><path class="cls-2" d="M80.65,18a.56.56,0,1,1,.68.42A.56.56,0,0,1,80.65,18Z"/></g><g class="cls-1"><path class="cls-3" d="M28.71,63.89c.53,5,1.05,11.37,1.28,18.77a218.07,218.07,0,0,1-.89,31.9c-.8,7.42-1.7,11.56-1.68,19.74,0,5.44.73,11.62.78,12.83s0,37.91,0,37.91"/><path class="cls-2" d="M28.14,64a.57.57,0,0,1,.51-.62.56.56,0,0,1,.61.51.56.56,0,1,1-1.12.11Z"/></g><g class="cls-1"><path class="cls-3" d="M12.84,107.81a61.58,61.58,0,0,1,11.91,18.68,61.62,61.62,0,0,1,4.46,20.42V185"/><path class="cls-2" d="M12.43,108.22a.56.56,0,0,1,.05-.8.57.57,0,0,1,.79,0,.56.56,0,0,1,0,.8A.57.57,0,0,1,12.43,108.22Z"/></g><g class="cls-1"><path class="cls-3" d="M19.8,93.45C19.41,98.93,20,106,25,110.88c.61.6.67.56,1.34,1.23,2.76,2.73,5.44,7.07,7,20.07a123.07,123.07,0,0,1,.89,16.18V185"/><path class="cls-2" d="M19.24,93.45a.57.57,0,1,1,.53.6A.58.58,0,0,1,19.24,93.45Z"/></g><g class="cls-1"><path class="cls-3" d="M87,54.41a60.31,60.31,0,0,1-2.09,28.81c-3.58,10.57-7,10-12.27,23.2-5.78,14.49-6.78,28.08-7.25,35.13C65,146.91,65,181.76,65.12,185"/><path class="cls-2" d="M86.38,54.51a.58.58,0,0,1,.49-.63.56.56,0,1,1-.49.63Z"/></g><g class="cls-1"><path class="cls-3" d="M96.87,87.1c-1,12.54-5,20-8.66,24.56-3,3.82-4.1,3.47-7.25,7.92-6.43,9.09-7.95,18.91-8.47,22.53a54.71,54.71,0,0,0-.56,6.36V185"/><path class="cls-2" d="M96.29,87.07a.57.57,0,1,1,.51.62A.58.58,0,0,1,96.29,87.07Z"/></g><g class="cls-1"><path class="cls-3" d="M64,15.7a100.82,100.82,0,0,1,2.67,24.91,85.25,85.25,0,0,1-4,26,60.94,60.94,0,0,1-5.91,13.72c-1.54,2.54-3,4.4-6.36,10-2.63,4.35-3.41,5.93-4,7.91a25,25,0,0,0-.9,9.15,199.62,199.62,0,0,1-.22,21.64v56"/><path class="cls-2" d="M63.46,15.84a.55.55,0,0,1,.44-.66.56.56,0,1,1-.44.66Z"/></g><g class="cls-1"><path class="cls-3" d="M11.59,39.22C10.8,55.34,14,66.7,17.08,74.15c2.4,5.77,4.41,8.38,11.62,23.93,4.14,8.94,6.21,13.41,7.61,17.7a87.26,87.26,0,0,1,4.16,28.92V185"/><path class="cls-2" d="M11,39.23a.55.55,0,0,1,.57-.55.56.56,0,0,1,.55.58.55.55,0,0,1-.57.55A.57.57,0,0,1,11,39.23Z"/></g><g class="cls-1"><path class="cls-3" d="M9.9,81.83a75.45,75.45,0,0,0,8.79,21.33c6.69,10.93,12.6,14,16.31,23.69,3.08,8,2.07,19.26,2,20.86S37,185,37,185"/><circle class="cls-2" cx="9.92" cy="81.85" r="0.56" transform="translate(-66.52 50.98) rotate(-61.1)"/></g><g class="cls-1"><path class="cls-3" d="M71.09,26.44c0,11.59,0-2.32,0,5.71,0,4.05,0,8.66-.31,14.84-.28,6.5-.5,11.48-1.31,17.54C68,75.65,67.25,81.21,64.55,85.69,60,93.22,55.38,92.8,51.32,101.54a41,41,0,0,0-3.08,10.7c-1.16,6.52-.79,11.22-.54,16.46.27,5.55.49,13.42.23,23.24V185"/><path class="cls-2" d="M70.53,26.47a.57.57,0,1,1,1.13,0,.57.57,0,0,1-1.13,0Z"/></g><g class="cls-1"><path class="cls-3" d="M35,44.52a106.63,106.63,0,0,0,3.78,18.24c1.93,6.37,3.27,8.53,7.08,20.39a108.92,108.92,0,0,1,3.31,11.93,114,114,0,0,1,1.77,11.77c.39,3.68.6,7,.85,15.08.41,13.69.46,26.31.46,26.31V185"/><circle class="cls-2" cx="35.01" cy="44.55" r="0.56" transform="translate(-21.58 41.77) rotate(-49.02)"/></g><g class="cls-1"><path class="cls-3" d="M38.83.53C38.76,3.82,38,.29,40.48,19c2.17,16.4,5.94,28.88,13.07,45.21,5.73,13.13,10,16.89,13.77,31.08,2.4,9.08,3.14,17,4.15,27.77,1.1,11.62,1.37,21.38,1.39,28.42V185"/><path class="cls-2" d="M38.25.53A.55.55,0,0,1,38.84,0a.56.56,0,0,1,.53.59.56.56,0,0,1-.59.54A.57.57,0,0,1,38.25.53Z"/></g><g class="cls-1"><path class="cls-3" d="M5,86c3,14.19,8.55,21.49,13.2,25.55,2.21,1.93,5.35,4.12,8.47,8.7a39.63,39.63,0,0,1,5.84,14.46,45.9,45.9,0,0,1,.93,11.62V185"/><path class="cls-2" d="M4.51,86.14a.56.56,0,0,1,.41-.68.57.57,0,1,1-.41.68Z"/></g><g class="cls-1"><path class="cls-3" d="M12.86,111.77c2.22,12.43,6.49,17.69,10.14,20.16a18.65,18.65,0,0,1,3,2.23c4.71,4.48,5.48,11.22,5.39,16.24V185"/><path class="cls-2" d="M12.33,111.9a.56.56,0,0,1,.44-.66.56.56,0,0,1,.23,1.1A.56.56,0,0,1,12.33,111.9Z"/></g><g class="cls-1"><path class="cls-3" d="M81.16,67.66A18.57,18.57,0,0,1,81,78.84c-1.54,4.25-4.11,5.48-6.78,10.31-1.1,2-2.27,4.71-3.53,11.93-1.7,9.66-1.82,17.42-1.93,26.54-.13,11-.2,19.39-.23,23.55V185"/><path class="cls-2" d="M80.6,67.83a.55.55,0,0,1,.42-.68.56.56,0,1,1-.42.68Z"/></g><g class="cls-1"><path class="cls-3" d="M80.12,35.29a93.1,93.1,0,0,1-.87,18.93,80.08,80.08,0,0,1-5.54,20.55c-3,7-6.64,12.38-13.47,22.54-3.4,5.06-3.64,5.07-4.85,7.23-4,7.14-4.72,13.59-5.77,22a133.31,133.31,0,0,0-1,18.31V185"/><path class="cls-2" d="M79.55,35.34a.56.56,0,0,1,.54-.58.57.57,0,0,1,.59.54.57.57,0,0,1-1.13,0Z"/></g><g class="cls-1"><path class="cls-3" d="M19.85,38.9a91.46,91.46,0,0,0,1.07,32.48,88.83,88.83,0,0,0,7.85,22.39c4.69,9.1,7.47,10.38,10.08,18.31,1.61,4.87,2,9.75,2.69,19.31.57,7.66.77,14.63.77,20.78V185"/><path class="cls-2" d="M19.3,38.87a.57.57,0,0,1,.62-.5.58.58,0,0,1,.5.63.56.56,0,0,1-.63.49A.55.55,0,0,1,19.3,38.87Z"/></g><g class="cls-1"><path class="cls-3" d="M31.21,64.53a97.83,97.83,0,0,0,5.1,23.39,126.4,126.4,0,0,0,8.54,18.78c5.79,10.36,9.71,13.89,11.93,22.69a43.65,43.65,0,0,1,1.31,10.93V185"/><path class="cls-2" d="M30.66,64.62a.58.58,0,0,1,.5-.63.56.56,0,0,1,.62.5.56.56,0,1,1-1.12.13Z"/></g><g class="cls-1"><path class="cls-3" d="M12.37,100.68a58.76,58.76,0,0,0,14.56,15.56c3.74,2.72,4.88,2.8,7.69,5.54a32.9,32.9,0,0,1,9.31,17.54,23,23,0,0,1,.46,5.77c-.08.69,0,39.95,0,39.95"/><path class="cls-2" d="M11.93,101a.56.56,0,1,1,.78.15A.57.57,0,0,1,11.93,101Z"/></g><g class="cls-1"><path class="cls-3" d="M76,77.82a29.19,29.19,0,0,1-.67,17,39.58,39.58,0,0,1-2.54,5C65.4,113.11,61.61,116.16,60.4,123.7c-.11.68-.18,2.4-.31,5.85-.32,8.29-.22,15-.08,19.54V185"/><path class="cls-2" d="M75.42,78a.55.55,0,0,1,.44-.66.55.55,0,0,1,.66.44.56.56,0,1,1-1.1.22Z"/></g><g class="cls-1"><path class="cls-3" d="M74.48,60.84a36.23,36.23,0,0,1-3.77,17.08c-1.64,3.18-2.95,4.38-4.7,7.77-3.15,6.09-2,9.26-4.15,16.08a52.88,52.88,0,0,1-5,10.62c-3.23,6-6.41,16.06-5.62,33.93V185"/><path class="cls-2" d="M73.9,60.86a.57.57,0,1,1,.56.57A.57.57,0,0,1,73.9,60.86Z"/></g><g class="cls-1"><path class="cls-3" d="M88.85,36.29a132.07,132.07,0,0,1,.4,25.17,107.41,107.41,0,0,1-3.62,21.77c-2.55,9.09-3.83,13.63-6.23,18.16a34.53,34.53,0,0,0-4.46,12.77,30.72,30.72,0,0,0-.23,4.39c.07,6.27.08,17.49.07,32.62V185"/><circle class="cls-2" cx="88.84" cy="36.32" r="0.56" transform="translate(38.86 118.26) rotate(-80.86)"/></g><g class="cls-1"><path class="cls-3" d="M86.23,95.45a248.34,248.34,0,0,1-7,28.87A106.07,106.07,0,0,1,75.48,135c-2.57,6-4.08,7.68-5.31,12-.75,2.61-1.48,32.91-1.08,38"/><path class="cls-2" d="M85.66,95.36a.56.56,0,1,1,1.1.23.56.56,0,1,1-1.1-.23Z"/></g><g class="cls-1"><path class="cls-3" d="M56.05,99.33a18.41,18.41,0,0,1,2.88,4.75,19,19,0,0,1,1.39,6.54c.27,5.52,1,11,1.08,16.54,0,4.6.16,11.28.76,19.7V185"/><path class="cls-2" d="M55.6,99.72a.56.56,0,1,1,.79.1A.57.57,0,0,1,55.6,99.72Z"/></g><g class="cls-1"><path class="cls-3" d="M35.07,20.21a142.2,142.2,0,0,0,12.4,43.71,129,129,0,0,0,8,14.69c3.52,5.26,4.15,5,5.93,8.39,3.06,5.85,3.61,11.27,4.3,18.7.29,3.06.11,2.59.47,12.46.35,9.68.56,11.25.77,17.77.12,4,.23,9.73.15,16.78V185"/><path class="cls-2" d="M34.53,20.32a.56.56,0,0,1,.47-.64.56.56,0,1,1,.17,1.11A.56.56,0,0,1,34.53,20.32Z"/></g><g class="cls-1"><path class="cls-3" d="M78.72,80.68a37.59,37.59,0,0,1,.06,11.4c-.93,6.27-3.27,10.74-5.46,14.85-2.87,5.39-3.49,4.84-9.69,14.62-5.11,8-6.08,10.61-6.7,13a51.89,51.89,0,0,0-1.31,10.39c-.2,3.93-.08,37.72.08,40.1"/><path class="cls-2" d="M78.15,80.79a.57.57,0,1,1,.64.48A.57.57,0,0,1,78.15,80.79Z"/></g><g class="cls-1"><path class="cls-3" d="M61.7,9.6c0,12.62-.1,24.47-.3,36a93.12,93.12,0,0,1-3.47,25.46,52.34,52.34,0,0,1-2.31,6.54C52.07,85.79,48,89,43.55,94.85c-2.55,3.32-8.63,11.4-11.32,22.46-1.2,5-1.34,9.64-1.61,18.93-.2,6.74,0,12.35.15,16.31V185"/><path class="cls-2" d="M61.13,9.62a.57.57,0,0,1,.57-.56.57.57,0,1,1,0,1.13A.57.57,0,0,1,61.13,9.62Z"/></g><g class="cls-1"><path class="cls-3" d="M54.89,30.81c-2.27,15.28-.44,26.72,1.67,34.37C60.13,78.11,65,82.09,69.06,99.09c1.85,7.73,2.47,13.74,3.47,23.39,1.3,12.6,1.61,54.93,1.63,62.56"/><path class="cls-2" d="M54.34,30.76a.58.58,0,0,1,.63-.49.56.56,0,1,1-.63.49Z"/></g><g class="cls-1"><path class="cls-3" d="M34.74,54.82c-1.17,16.34,2.59,27.11,6.35,34,5.38,9.86,11.28,12.73,17.7,27.35a89,89,0,0,1,5.82,18.44,87.36,87.36,0,0,1,1.61,17.7V185"/><path class="cls-2" d="M34.19,54.83a.57.57,0,0,1,1.13,0,.57.57,0,0,1-.59.54A.56.56,0,0,1,34.19,54.83Z"/></g><g class="cls-1"><path class="cls-3" d="M22.51,56.18a66.33,66.33,0,0,0,4.22,26.2c3.59,9.3,6.07,8.91,14.36,25.5a156.55,156.55,0,0,1,9.53,24,68.89,68.89,0,0,1,2.6,12.25c.48,4.19.48,38.35.37,40.9"/><path class="cls-2" d="M22,56.21a.56.56,0,0,1,.56-.56.55.55,0,0,1,.56.57.56.56,0,1,1-1.12,0Z"/></g><g class="cls-1"><path class="cls-3" d="M30.4,35.27a65.78,65.78,0,0,0,1,18.27C32.5,58.9,34.24,67.62,40.22,76c2,2.8,3.77,4.53,5.45,8.41a31.31,31.31,0,0,1,2.47,12.13c.4,12.91,4,15.26,6.44,36.51.75,6.48,1.52,40.44,1.36,52"/><path class="cls-2" d="M29.86,35.27a.56.56,0,1,1,1.12,0,.57.57,0,0,1-.59.54A.56.56,0,0,1,29.86,35.27Z"/></g><g class="cls-1"><path class="cls-3" d="M65.23,44.16a77.42,77.42,0,0,1,2,23.74C67,71,66.78,71,65.72,79.41,64,92.85,64.15,95.84,63,104.29c-1.43,10.45-2.39,11.43-3.84,20.42-1.15,7.13-2.3,47.35-2,60.33"/><path class="cls-2" d="M64.67,44.31a.56.56,0,1,1,1.1-.23.56.56,0,0,1-1.1.23Z"/></g><g class="cls-1"><path class="cls-3" d="M17,62.37a70.15,70.15,0,0,0,2.52,26.57c3.88,12.91,9.61,17.58,14.36,30.08a79.63,79.63,0,0,1,4.83,32.48V185"/><path class="cls-2" d="M16.48,62.36a.57.57,0,0,1,1.13.07.57.57,0,0,1-1.13-.07Z"/></g><g class="cls-1"><path class="cls-3" d="M58.46,57a68.11,68.11,0,0,1-8.71,24.1C45.66,88,42.14,88.35,37.38,96.37A64.43,64.43,0,0,0,30,115.8c-1.32,5.92-1.51,10.27-1.86,18.07-.35,8-.18,45.89.11,51.17"/><path class="cls-2" d="M57.88,57a.58.58,0,0,1,.66-.45.56.56,0,1,1-.66.45Z"/></g><g class="cls-1"><path class="cls-3" d="M82.46,46.88c3.35,11.39,3,20.21,2.07,26.22-.4,2.56-.73,3.41-4.45,16.58s-5.64,20-6.07,21.91a169.7,169.7,0,0,0-3.71,30.7c-.29,6.86-.19,38.34,0,42.75"/><path class="cls-2" d="M81.91,47.06a.57.57,0,0,1,.4-.7.56.56,0,1,1,.29,1.09A.56.56,0,0,1,81.91,47.06Z"/></g><g class="cls-1"><path class="cls-3" d="M84.47,15c1.25,12.61,1.7,16.27,1.09,24.28-1,12.59-1.86,23.25-7.53,35.62-2.42,5.3-3.26,4.74-9,14.92-6,10.67-9,16-11.16,22.73-2.55,8-3.1,15.43-4.19,30.41-.44,5.95-.63,38.6-.73,42"/><path class="cls-2" d="M83.91,15.12a.56.56,0,0,1,.51-.61A.56.56,0,0,1,85,15a.56.56,0,1,1-1.12.1Z"/></g><g class="cls-1"><path class="cls-3" d="M96,54.45c2.12,6.7,3.9,16.69.41,27-2.5,7.41-7.26,13.65-9.12,16.07-4.65,6.09-6.44,6.26-10.14,11.73s-5.23,10.24-7.33,16.79a115.47,115.47,0,0,0-4.76,22.46V185"/><path class="cls-2" d="M95.47,54.65a.57.57,0,0,1,.38-.71.56.56,0,0,1,.7.38.56.56,0,0,1-.38.7A.56.56,0,0,1,95.47,54.65Z"/></g><g class="cls-1"><path class="cls-3" d="M60.05,24.78A116.39,116.39,0,0,1,63,51.05a57.36,57.36,0,0,1-1.16,12.31c-1.31,6-2.65,6.8-4.48,13.17a63.42,63.42,0,0,0-2.47,17.38c0,5.25.75,6.3,1.74,15.21.55,4.94.76,8.86,1.16,16.51s.87,44.4,1,59.41"/><path class="cls-2" d="M59.49,24.92a.56.56,0,0,1,1.1-.22.56.56,0,1,1-1.1.22Z"/></g><g class="cls-1"><path class="cls-3" d="M79.72,60.36a34.82,34.82,0,0,1,3.53,11.69,37.44,37.44,0,0,1-2.32,17.08C74,109.21,68.08,115.27,64.57,127.65c-1.71,6-3.3,45.27-1.74,57.39"/><path class="cls-2" d="M79.22,60.63a.56.56,0,0,1,.26-.75.57.57,0,0,1,.75.27.55.55,0,0,1-.26.75A.57.57,0,0,1,79.22,60.63Z"/></g><g class="cls-1"><path class="cls-3" d="M32.57,90.8c2.09,7.12,3.66,15.1,5.5,23.68,3.72,17.44,4.17,38,2.41,50.84L40.67,185"/><path class="cls-2" d="M32,91a.57.57,0,0,1,.41-.69.56.56,0,0,1,.68.41.55.55,0,0,1-.4.68A.56.56,0,0,1,32,91Z"/></g><g class="cls-1"><path class="cls-3" d="M26.14,106.56A99.61,99.61,0,0,1,34.45,131a117.87,117.87,0,0,1,1.88,15.35c.31,5,.27,35.33.14,38.71"/><path class="cls-2" d="M25.62,106.82a.56.56,0,0,1,.28-.74.57.57,0,0,1,.75.28.58.58,0,0,1-.29.75A.56.56,0,0,1,25.62,106.82Z"/></g><g class="cls-1"><path class="cls-3" d="M39.33,89.15C36.5,106.33,39,117.06,42,123.8a58,58,0,0,1,5.06,15.11c1.15,6.48.86,42.42.42,46.13"/><path class="cls-2" d="M38.78,89.1a.56.56,0,0,1,.63-.48.57.57,0,0,1,.49.64.58.58,0,0,1-.64.48A.57.57,0,0,1,38.78,89.1Z"/></g><g class="cls-1"><path class="cls-3" d="M60.45,48.39c.3,6,.37,11,.38,14.47,0,8.81-.35,12.88-.41,25.24,0,6.43-.05,9.69.2,12,.85,7.79,2.39,8.8,3.52,17.38A96.11,96.11,0,0,1,64.87,132c-.07,4.19-.34,5.76-.62,10.45-.26,4.12-.49,35.22-.31,42.62"/><circle class="cls-2" cx="60.43" cy="48.42" r="0.56"/></g><g class="cls-1"><path class="cls-3" d="M21.57,109.06a96.59,96.59,0,0,1,10,27.16c1.85,9.07,2.12,42.61,1.86,48.82"/><path class="cls-2" d="M21.07,109.35a.55.55,0,0,1,.24-.76.58.58,0,0,1,.76.24.57.57,0,0,1-.24.76A.56.56,0,0,1,21.07,109.35Z"/></g><g class="cls-1"><path class="cls-3" d="M38.25,86.7a43.78,43.78,0,0,1,5.51,13.2c.93,4,1.05,7.18,1.24,12.52.14,3.86,0,7.14-.21,13.55-.18,5.17-.33,7.17-.51,11.07-.2,4.26-.4,40.53-.42,48"/><path class="cls-2" d="M37.75,87a.56.56,0,0,1,.22-.77.56.56,0,1,1-.22.77Z"/></g><g class="cls-1"><path class="cls-3" d="M85.32,90.08c1.27,10.41-.34,18-2.14,23.06-2.67,7.57-7.08,13.48-8,24.32a46.56,46.56,0,0,0,0,7.45V185"/><path class="cls-2" d="M84.74,90.17a.57.57,0,1,1,1.13-.11.56.56,0,0,1-.51.61A.57.57,0,0,1,84.74,90.17Z"/></g><g class="cls-1"><path class="cls-3" d="M69.4,51.9a67.49,67.49,0,0,1,.33,18.3,42.87,42.87,0,0,1-2.17,10.25c-3,8.07-7.56,11-11.38,16.14-4,5.34-5.16,12.28-7.45,26.17C47.35,131.1,46,170.88,46.24,185"/><path class="cls-2" d="M68.83,52A.57.57,0,1,1,70,51.86a.57.57,0,0,1-1.12.15Z"/></g><g class="cls-1"><path class="cls-3" d="M45.32,16.73c.28,14.12.13,26.13-.11,35.47C45,60,44.72,66.11,44.59,68.86c-.74,15.2-1.78,26.43-2.07,29.8-1,11.14-2.43,55-2.83,86v1"/><circle class="cls-2" cx="45.32" cy="16.76" r="0.56" transform="translate(-2.44 24.11) rotate(-29.05)"/></g><g class="cls-1"><path class="cls-3" d="M46.51,57.7q1.18,10.22,2.22,20.78c.93,9.64,1.53,17,1.65,18.62C52.1,119,51.66,176.9,51.52,185"/><path class="cls-2" d="M46,57.79a.56.56,0,0,1,.5-.62.56.56,0,0,1,.62.5.57.57,0,0,1-.5.62A.56.56,0,0,1,46,57.79Z"/></g><g class="cls-1"><path class="cls-3" d="M32.42,102.86c5.5,6,14.63,17.72,17.52,34.67a64.09,64.09,0,0,1,.8,14.43V185"/><path class="cls-2" d="M32,103.27a.57.57,0,1,1,.84-.76.58.58,0,0,1,0,.8A.56.56,0,0,1,32,103.27Z"/></g><g class="cls-1"><path class="cls-3" d="M74.14,93.52C70,99.08,66.49,103.16,64,105.92c-2.12,2.37-5.63,6.15-6.12,6.67-2.82,3-4.89,5.21-5,5.37-3,3.23-5.75,36.17-6.11,67.08"/><path class="cls-2" d="M73.67,93.18a.57.57,0,1,1,.1.79A.56.56,0,0,1,73.67,93.18Z"/></g><g class="cls-1"><path class="cls-3" d="M71.25,79.57a74.66,74.66,0,0,0-11.92,16.7c-8,15.45-8.92,30.75-9.74,45.15-.33,5.7-.32,40.62-.27,43.62"/><path class="cls-2" d="M70.83,79.23a.56.56,0,1,1,.84.75.57.57,0,0,1-.79,0A.56.56,0,0,1,70.83,79.23Z"/></g><g class="cls-1"><path class="cls-3" d="M31.42,105.42a70.79,70.79,0,0,1,5.68,15.29c1.59,6.47,1.85,11.47,2.22,19.65.24,5.29.35,36.31-.09,44.68"/><circle class="cls-2" cx="31.42" cy="105.46" r="0.56" transform="translate(-78.52 100.95) rotate(-71.06)"/></g><g class="cls-1"><path class="cls-3" d="M19,105A74.21,74.21,0,0,1,31.7,128.76c3.38,10.66,3.65,50.35,3.37,56.28H35"/><path class="cls-2" d="M18.58,105.38a.56.56,0,0,1,.11-.79.57.57,0,0,1,.79.12.56.56,0,0,1-.11.79A.57.57,0,0,1,18.58,105.38Z"/></g><g class="cls-1"><path class="cls-3" d="M25.85,125.52c5.12,9.77,6.08,15.55,6.12,18.82,0,.61,0,3.41,0,6.38,0,3.62-.06,32.33-.09,34.32"/><path class="cls-2" d="M25.35,125.8a.56.56,0,1,1,.75.25A.56.56,0,0,1,25.35,125.8Z"/></g><g class="cls-1"><path class="cls-3" d="M65.67,62c-.5,7.77-1.17,14.22-1.74,18.94-.69,5.69-1.38,10.15-2.75,18.85-1,6.35-1.11,6.84-3,18.51-2.75,16.93-3.83,24.05-4,33.9,0,1.88,0,31.82,0,32.82"/><path class="cls-2" d="M65.09,62a.57.57,0,1,1,.52.61A.58.58,0,0,1,65.09,62Z"/></g></g></g></svg>