<svg xmlns="http://www.w3.org/2000/svg" xmlns:xlink="http://www.w3.org/1999/xlink" viewBox="0 0 715.43 725.56"><defs><style>.cls-1,.cls-10,.cls-11,.cls-12,.cls-13,.cls-14,.cls-15,.cls-16,.cls-17,.cls-18,.cls-19,.cls-2,.cls-20,.cls-21,.cls-22,.cls-23,.cls-24,.cls-25,.cls-26,.cls-27,.cls-28,.cls-29,.cls-3,.cls-30,.cls-31,.cls-32,.cls-33,.cls-34,.cls-35,.cls-36,.cls-37,.cls-38,.cls-39,.cls-40,.cls-41,.cls-42,.cls-43,.cls-44,.cls-45,.cls-46,.cls-47,.cls-48,.cls-49,.cls-5,.cls-50,.cls-51,.cls-52,.cls-53,.cls-54,.cls-55,.cls-56,.cls-57,.cls-58,.cls-59,.cls-6,.cls-60,.cls-61,.cls-62,.cls-63,.cls-64,.cls-65,.cls-66,.cls-67,.cls-68,.cls-69,.cls-7,.cls-70,.cls-71,.cls-72,.cls-73,.cls-74,.cls-8,.cls-9{fill:none;}.cls-1,.cls-10,.cls-11,.cls-12,.cls-13,.cls-14,.cls-15,.cls-16,.cls-17,.cls-18,.cls-19,.cls-2,.cls-20,.cls-21,.cls-22,.cls-23,.cls-24,.cls-25,.cls-26,.cls-27,.cls-28,.cls-29,.cls-3,.cls-30,.cls-31,.cls-32,.cls-33,.cls-34,.cls-35,.cls-36,.cls-37,.cls-38,.cls-39,.cls-40,.cls-41,.cls-42,.cls-43,.cls-44,.cls-45,.cls-46,.cls-47,.cls-48,.cls-49,.cls-5,.cls-50,.cls-51,.cls-52,.cls-53,.cls-54,.cls-55,.cls-56,.cls-57,.cls-58,.cls-59,.cls-6,.cls-60,.cls-61,.cls-62,.cls-63,.cls-64,.cls-65,.cls-66,.cls-67,.cls-68,.cls-69,.cls-7,.cls-70,.cls-71,.cls-72,.cls-73,.cls-74,.cls-75,.cls-8,.cls-9{stroke-miterlimit:10;}.cls-1,.cls-10,.cls-11,.cls-12,.cls-13,.cls-14,.cls-15,.cls-16,.cls-17,.cls-18,.cls-19,.cls-2,.cls-20,.cls-21,.cls-22,.cls-23,.cls-24,.cls-25,.cls-26,.cls-27,.cls-28,.cls-29,.cls-3,.cls-30,.cls-31,.cls-32,.cls-33,.cls-34,.cls-35,.cls-36,.cls-37,.cls-38,.cls-39,.cls-40,.cls-41,.cls-42,.cls-43,.cls-44,.cls-45,.cls-46,.cls-47,.cls-48,.cls-49,.cls-5,.cls-50,.cls-51,.cls-52,.cls-53,.cls-54,.cls-55,.cls-56,.cls-57,.cls-58,.cls-59,.cls-6,.cls-60,.cls-61,.cls-62,.cls-63,.cls-64,.cls-65,.cls-66,.cls-67,.cls-68,.cls-69,.cls-7,.cls-70,.cls-71,.cls-73,.cls-74,.cls-8,.cls-9{stroke-width:1.06px;}.cls-1{stroke:url(#linear-gradient);}.cls-2{stroke:url(#linear-gradient-2);}.cls-3{stroke:url(#linear-gradient-3);}.cls-4{fill:#fff;}.cls-5{stroke:url(#linear-gradient-4);}.cls-6{stroke:url(#linear-gradient-5);}.cls-7{stroke:url(#linear-gradient-6);}.cls-8{stroke:url(#linear-gradient-7);}.cls-9{stroke:url(#linear-gradient-8);}.cls-10{stroke:url(#linear-gradient-9);}.cls-11{stroke:url(#linear-gradient-10);}.cls-12{stroke:url(#linear-gradient-11);}.cls-13{stroke:url(#linear-gradient-12);}.cls-14{stroke:url(#linear-gradient-13);}.cls-15{stroke:url(#linear-gradient-14);}.cls-16{stroke:url(#linear-gradient-15);}.cls-17{stroke:url(#linear-gradient-16);}.cls-18{stroke:url(#linear-gradient-17);}.cls-19{stroke:url(#linear-gradient-18);}.cls-20{stroke:url(#linear-gradient-19);}.cls-21{stroke:url(#linear-gradient-20);}.cls-22{stroke:url(#linear-gradient-21);}.cls-23{stroke:url(#linear-gradient-22);}.cls-24{stroke:url(#linear-gradient-23);}.cls-25{stroke:url(#linear-gradient-24);}.cls-26{stroke:url(#linear-gradient-25);}.cls-27{stroke:url(#linear-gradient-26);}.cls-28{stroke:url(#linear-gradient-27);}.cls-29{stroke:url(#linear-gradient-28);}.cls-30{stroke:url(#linear-gradient-29);}.cls-31{stroke:url(#linear-gradient-30);}.cls-32{stroke:url(#linear-gradient-31);}.cls-33{stroke:url(#linear-gradient-32);}.cls-34{stroke:url(#linear-gradient-33);}.cls-35{stroke:url(#linear-gradient-34);}.cls-36{stroke:url(#linear-gradient-35);}.cls-37{stroke:url(#linear-gradient-36);}.cls-38{stroke:url(#linear-gradient-37);}.cls-39{stroke:url(#linear-gradient-38);}.cls-40{stroke:url(#linear-gradient-39);}.cls-41{stroke:url(#linear-gradient-40);}.cls-42{stroke:url(#linear-gradient-41);}.cls-43{stroke:url(#linear-gradient-42);}.cls-44{stroke:url(#linear-gradient-43);}.cls-45{stroke:url(#linear-gradient-44);}.cls-46{stroke:url(#linear-gradient-45);}.cls-47{stroke:url(#linear-gradient-46);}.cls-48{stroke:url(#linear-gradient-47);}.cls-49{stroke:url(#linear-gradient-48);}.cls-50{stroke:url(#linear-gradient-49);}.cls-51{stroke:url(#linear-gradient-50);}.cls-52{stroke:url(#linear-gradient-51);}.cls-53{stroke:url(#linear-gradient-52);}.cls-54{stroke:url(#linear-gradient-53);}.cls-55{stroke:url(#linear-gradient-54);}.cls-56{stroke:url(#linear-gradient-55);}.cls-57{stroke:url(#linear-gradient-56);}.cls-58{stroke:url(#linear-gradient-57);}.cls-59{stroke:url(#linear-gradient-58);}.cls-60{stroke:url(#linear-gradient-59);}.cls-61{stroke:url(#linear-gradient-60);}.cls-62{stroke:url(#linear-gradient-61);}.cls-63{stroke:url(#linear-gradient-62);}.cls-64{stroke:url(#linear-gradient-63);}.cls-65{stroke:url(#linear-gradient-64);}.cls-66{stroke:url(#linear-gradient-65);}.cls-67{stroke:url(#linear-gradient-66);}.cls-68{stroke:url(#linear-gradient-67);}.cls-69{stroke:url(#linear-gradient-68);}.cls-70{stroke:url(#linear-gradient-69);}.cls-71{stroke:url(#linear-gradient-70);}.cls-72{stroke:url(#linear-gradient-71);}.cls-73{stroke:url(#linear-gradient-72);}.cls-74{stroke:url(#linear-gradient-73);}.cls-75{stroke-width:0.51px;fill:url(#linear-gradient-74);stroke:url(#linear-gradient-75);}</style><linearGradient id="linear-gradient" x1="403.32" y1="5.53" x2="421.47" y2="650.5" gradientTransform="translate(715.42 726.03) rotate(180)" gradientUnits="userSpaceOnUse"><stop offset="0" stop-color="#fff" stop-opacity="0"/><stop offset="0.12" stop-color="#fff" stop-opacity="0.23"/><stop offset="0.35" stop-color="#fff" stop-opacity="0.64"/><stop offset="0.51" stop-color="#fff" stop-opacity="0.9"/><stop offset="0.58" stop-color="#fff"/></linearGradient><linearGradient id="linear-gradient-2" x1="247.14" y1="3.79" x2="265.75" y2="665.03" xlink:href="#linear-gradient"/><linearGradient id="linear-gradient-3" x1="430.48" y1="13.11" x2="448.45" y2="651.78" xlink:href="#linear-gradient"/><linearGradient id="linear-gradient-4" x1="296.71" y1="2.89" x2="315.06" y2="654.76" xlink:href="#linear-gradient"/><linearGradient id="linear-gradient-5" x1="374.68" y1="-0.58" x2="393.06" y2="652.44" xlink:href="#linear-gradient"/><linearGradient id="linear-gradient-6" x1="374.34" y1="0.39" x2="392.74" y2="654.38" xlink:href="#linear-gradient"/><linearGradient id="linear-gradient-7" x1="216.27" y1="-2.52" x2="234.84" y2="657.28" xlink:href="#linear-gradient"/><linearGradient id="linear-gradient-8" x1="284.02" y1="0.84" x2="295.25" y2="399.85" xlink:href="#linear-gradient"/><linearGradient id="linear-gradient-9" x1="264.29" y1="28.26" x2="282.14" y2="662.43" xlink:href="#linear-gradient"/><linearGradient id="linear-gradient-10" x1="415.03" y1="2.72" x2="433.3" y2="652.07" xlink:href="#linear-gradient"/><linearGradient id="linear-gradient-11" x1="462.8" y1="196.85" x2="475.57" y2="650.69" xlink:href="#linear-gradient"/><linearGradient id="linear-gradient-12" x1="218.98" y1="-1.69" x2="237.56" y2="658.4" xlink:href="#linear-gradient"/><linearGradient id="linear-gradient-13" x1="186.3" y1="-2.17" x2="205.26" y2="671.5" xlink:href="#linear-gradient"/><linearGradient id="linear-gradient-14" x1="175.89" y1="-1.66" x2="194.69" y2="666.32" xlink:href="#linear-gradient"/><linearGradient id="linear-gradient-15" x1="208.66" y1="-2.41" x2="227.23" y2="657.55" xlink:href="#linear-gradient"/><linearGradient id="linear-gradient-16" x1="477.16" y1="4.42" x2="492.55" y2="551.29" xlink:href="#linear-gradient"/><linearGradient id="linear-gradient-17" x1="304.59" y1="-0.19" x2="323.03" y2="654.9" xlink:href="#linear-gradient"/><linearGradient id="linear-gradient-18" x1="440.43" y1="4.98" x2="458.98" y2="664.3" xlink:href="#linear-gradient"/><linearGradient id="linear-gradient-19" x1="505.27" y1="164.01" x2="519.05" y2="653.61" xlink:href="#linear-gradient"/><linearGradient id="linear-gradient-20" x1="478.69" y1="6.58" x2="496.79" y2="649.84" xlink:href="#linear-gradient"/><linearGradient id="linear-gradient-21" x1="210.33" y1="-0.84" x2="228.84" y2="656.95" xlink:href="#linear-gradient"/><linearGradient id="linear-gradient-22" x1="163.72" y1="-2.11" x2="182.91" y2="679.93" xlink:href="#linear-gradient"/><linearGradient id="linear-gradient-23" x1="362.67" y1="2.97" x2="376.31" y2="487.65" xlink:href="#linear-gradient"/><linearGradient id="linear-gradient-24" x1="437.25" y1="88.27" x2="453.09" y2="651.15" xlink:href="#linear-gradient"/><linearGradient id="linear-gradient-25" x1="498.67" y1="6.97" x2="516.76" y2="649.53" xlink:href="#linear-gradient"/><linearGradient id="linear-gradient-26" x1="316.61" y1="-0.35" x2="335.03" y2="654.27" xlink:href="#linear-gradient"/><linearGradient id="linear-gradient-27" x1="368.2" y1="2.69" x2="386.5" y2="652.87" xlink:href="#linear-gradient"/><linearGradient id="linear-gradient-28" x1="247.1" y1="2.07" x2="265.9" y2="670.46" xlink:href="#linear-gradient"/><linearGradient id="linear-gradient-29" x1="525.68" y1="7.7" x2="543.72" y2="648.66" xlink:href="#linear-gradient"/><linearGradient id="linear-gradient-30" x1="510.21" y1="6.81" x2="528.28" y2="649.23" xlink:href="#linear-gradient"/><linearGradient id="linear-gradient-31" x1="253.2" y1="0.24" x2="272.06" y2="670.62" xlink:href="#linear-gradient"/><linearGradient id="linear-gradient-32" x1="329.08" y1="78.26" x2="345.29" y2="654.23" xlink:href="#linear-gradient"/><linearGradient id="linear-gradient-33" x1="423.64" y1="48.62" x2="440.44" y2="645.46" xlink:href="#linear-gradient"/><linearGradient id="linear-gradient-34" x1="384.67" y1="8.44" x2="402.8" y2="652.59" xlink:href="#linear-gradient"/><linearGradient id="linear-gradient-35" x1="507.54" y1="6.67" x2="526.39" y2="676.57" xlink:href="#linear-gradient"/><linearGradient id="linear-gradient-36" x1="244.61" y1="-0.34" x2="263.09" y2="656.59" xlink:href="#linear-gradient"/><linearGradient id="linear-gradient-37" x1="294.3" y1="0.24" x2="312.73" y2="654.97" xlink:href="#linear-gradient"/><linearGradient id="linear-gradient-38" x1="188.28" y1="-0.3" x2="203.44" y2="538.47" xlink:href="#linear-gradient"/><linearGradient id="linear-gradient-39" x1="190.74" y1="-1.45" x2="209.29" y2="657.66" xlink:href="#linear-gradient"/><linearGradient id="linear-gradient-40" x1="297.95" y1="93.69" x2="312.99" y2="628.1" xlink:href="#linear-gradient"/><linearGradient id="linear-gradient-41" x1="278.05" y1="2.19" x2="296.44" y2="655.85" xlink:href="#linear-gradient"/><linearGradient id="linear-gradient-42" x1="242.6" y1="-0.37" x2="261.08" y2="656.59" xlink:href="#linear-gradient"/><linearGradient id="linear-gradient-43" x1="438.64" y1="3.62" x2="457.04" y2="657.72" xlink:href="#linear-gradient"/><linearGradient id="linear-gradient-44" x1="253.21" y1="0.99" x2="271.75" y2="659.63" xlink:href="#linear-gradient"/><linearGradient id="linear-gradient-45" x1="332.6" y1="4.76" x2="350.17" y2="629.11" xlink:href="#linear-gradient"/><linearGradient id="linear-gradient-46" x1="386.4" y1="163.82" x2="400.15" y2="652.49" xlink:href="#linear-gradient"/><linearGradient id="linear-gradient-47" x1="361.78" y1="2.92" x2="380.07" y2="652.92" xlink:href="#linear-gradient"/><linearGradient id="linear-gradient-48" x1="295.81" y1="133.56" x2="310.38" y2="651.5" xlink:href="#linear-gradient"/><linearGradient id="linear-gradient-49" x1="470.64" y1="6.09" x2="488.45" y2="638.91" xlink:href="#linear-gradient"/><linearGradient id="linear-gradient-50" x1="437.38" y1="72.9" x2="454.36" y2="676.44" xlink:href="#linear-gradient"/><linearGradient id="linear-gradient-51" x1="230.96" y1="-0.84" x2="249.61" y2="661.92" xlink:href="#linear-gradient"/><linearGradient id="linear-gradient-52" x1="268.6" y1="-0.17" x2="287" y2="653.88" xlink:href="#linear-gradient"/><linearGradient id="linear-gradient-53" x1="195" y1="-2.07" x2="213.64" y2="660.59" xlink:href="#linear-gradient"/><linearGradient id="linear-gradient-54" x1="320.82" y1="2.34" x2="339.21" y2="655.74" xlink:href="#linear-gradient"/><linearGradient id="linear-gradient-55" x1="228.78" y1="-0.73" x2="247.29" y2="656.85" xlink:href="#linear-gradient"/><linearGradient id="linear-gradient-56" x1="414.62" y1="28.3" x2="432.2" y2="653.04" xlink:href="#linear-gradient"/><linearGradient id="linear-gradient-57" x1="434.81" y1="153.71" x2="448.84" y2="652.13" xlink:href="#linear-gradient"/><linearGradient id="linear-gradient-58" x1="394.36" y1="3.48" x2="412.64" y2="653.11" xlink:href="#linear-gradient"/><linearGradient id="linear-gradient-59" x1="285.54" y1="2.5" x2="303.91" y2="655.11" xlink:href="#linear-gradient"/><linearGradient id="linear-gradient-60" x1="467.69" y1="172.58" x2="481.13" y2="650.21" xlink:href="#linear-gradient"/><linearGradient id="linear-gradient-61" x1="395.02" y1="3.4" x2="413.28" y2="651.99" xlink:href="#linear-gradient"/><linearGradient id="linear-gradient-62" x1="202.74" y1="-1.32" x2="222.09" y2="686.37" xlink:href="#linear-gradient"/><linearGradient id="linear-gradient-63" x1="347.13" y1="72.97" x2="363.42" y2="651.88" xlink:href="#linear-gradient"/><linearGradient id="linear-gradient-64" x1="371.97" y1="94.52" x2="387.8" y2="656.89" xlink:href="#linear-gradient"/><linearGradient id="linear-gradient-65" x1="350.42" y1="3.05" x2="368.74" y2="653.99" xlink:href="#linear-gradient"/><linearGradient id="linear-gradient-66" x1="413.79" y1="125.63" x2="428.56" y2="650.73" xlink:href="#linear-gradient"/><linearGradient id="linear-gradient-67" x1="251.94" y1="-0.87" x2="270.47" y2="657.65" xlink:href="#linear-gradient"/><linearGradient id="linear-gradient-68" x1="328.71" y1="70.39" x2="345.13" y2="654.07" xlink:href="#linear-gradient"/><linearGradient id="linear-gradient-69" x1="430.24" y1="142.92" x2="444.51" y2="649.92" xlink:href="#linear-gradient"/><linearGradient id="linear-gradient-70" x1="498.38" y1="6.93" x2="516.56" y2="652.94" xlink:href="#linear-gradient"/><linearGradient id="linear-gradient-71" x1="110.42" y1="90.72" x2="110.46" y2="91.92" xlink:href="#linear-gradient"/><linearGradient id="linear-gradient-72" x1="455.48" y1="301.08" x2="465.32" y2="650.81" xlink:href="#linear-gradient"/><linearGradient id="linear-gradient-73" x1="304.55" y1="98.6" x2="320.42" y2="662.38" xlink:href="#linear-gradient"/><linearGradient id="linear-gradient-74" x1="349.83" y1="618.87" x2="351.67" y2="684.24" gradientTransform="translate(12.5 -613.68)" xlink:href="#linear-gradient"/><linearGradient id="linear-gradient-75" x1="314.34" y1="663.86" x2="388.58" y2="663.86" gradientTransform="translate(12.5 -613.68)" gradientUnits="userSpaceOnUse"><stop offset="0" stop-color="#fff" stop-opacity="0"/><stop offset="0.87" stop-color="#535353" stop-opacity="0.13"/><stop offset="1" stop-opacity="0.2"/></linearGradient></defs><g id="Layer_2" data-name="Layer 2"><g id="lines"><path class="cls-1" d="M194.49,723.53c26.57-43.75,34-26.34,84.5-90,48.18-60.72,82.29-103.73,106.81-162.75,14.16-34.06,33.4-131.62,32.4-159.26S362.58,73.72,362.58,73.72"/><path class="cls-2" d="M412.58,723.53c38.06-65.84,59.59-90,80.92-132.89C527.66,522,537,452.3,536.4,392L372.26,63.41"/><path class="cls-3" d="M266.73,713.27C241.28,642.55,218,603.9,202.82,515.39c-13-76-22.61-203.21-13.14-230.13S363,72.3,355.13,72.3"/><path class="cls-4" d="M355.75,76.76a1.39,1.39,0,0,0-.1-.53,1.34,1.34,0,0,0-.29-.45,1.23,1.23,0,0,0-.44-.3c-.16-.07.66-.11.48-.11a1.6,1.6,0,0,0-.53.09,1.65,1.65,0,0,0-.45.29,1.43,1.43,0,0,0-.3.44,1.4,1.4,0,0,0-.11.53,1.34,1.34,0,0,0,.1.52,1.2,1.2,0,0,0,.29.45,1.23,1.23,0,0,0,.44.3,1.31,1.31,0,0,0,.52.11c.18,0-.64,0-.48-.09a1.51,1.51,0,0,0,.45-.29,1.67,1.67,0,0,0,.31-.44,1.56,1.56,0,0,0,.11-.52Z"/><path class="cls-5" d="M379.41,724c45.32-115.84,58.24-171.42,60.68-186.77,4.08-25.63,5-41.93,8.76-132.13C451.57,340.2,363.2,123,365.16,72.3"/><path class="cls-4" d="M377.78,72.39a1.19,1.19,0,0,0-.06-.53,1.66,1.66,0,0,0-.26-.47,1.41,1.41,0,0,0-.43-.33,1.49,1.49,0,0,0-.51-.14A1.36,1.36,0,0,0,376,71a1.28,1.28,0,0,0-.47.26,1.5,1.5,0,0,0-.33.42,1.34,1.34,0,0,0-.14.52,1.41,1.41,0,0,0,.07.53,1.24,1.24,0,0,0,.26.46,1.34,1.34,0,0,0,.94.47,1.35,1.35,0,0,0,.53-.06,1.33,1.33,0,0,0,.46-.27,1.23,1.23,0,0,0,.33-.42,1.29,1.29,0,0,0,.14-.51Z"/><path class="cls-6" d="M421.49,724c-48-65.84-71.76-58.57-98.72-98.39-28.43-42-38.29-77.35-56-140.88-15.35-55-32.18-136.41,11.6-238.88l100-173.59"/><path class="cls-7" d="M390.45,724A1059,1059,0,0,1,335.9,588.9c-33.74-103.7-43-189.59-49-247.63-3.54-34.41-11.34-65.17-6.13-84S354,71,354,71"/><path class="cls-8" d="M648.47,724c-14.86-19.41-70-70.5-180.36-166.65-23.36-20.35-42.93-37.25-64.78-65.62-48.85-63.42-59.28-119.53-61.3-131.26a261.59,261.59,0,0,1-3.5-55.12l18-233.09"/><path class="cls-9" d="M468.26,724c2.88-15.68,5.56-17.81,7.73-60.44a1543.88,1543.88,0,0,0,0-157.51L369,327.88"/><path class="cls-10" d="M459.36,697.39c19.26-73.59,37.4-112.76,42-191.63,2.41-41.11,1.15-92.95-.87-175.88-.86-35-1.87-64.05-2.63-84L373.48,65.58"/><path class="cls-11" d="M221.21,725.52c-10.27-143.88,68.42-153.6,84.06-371.13,2.93-40.77-5.5-89.72.87-122.5s80.27-127.29,48-159.59"/><path class="cls-12" d="M137.16,532c4.84-4,36.26-29.37,70.92-70,34.4-40.34,82.43-98.16,86.68-176.76a211.14,211.14,0,0,0-2.63-46.37l63-166.59"/><path class="cls-13" d="M609.2,724.3c-34-56.94-31.82-94.68-67.54-159.91-35.21-64.29-46-63-77.93-127.75-23.89-48.4-33.07-79.88-35.89-112.88-1.83-21.6,6.7-32.91,2.62-64.74S365.13,71,365.13,71"/><path class="cls-14" d="M667.92,724c-6.59-11.11,12-81.9-27.32-119.39C602.38,556,579.51,526,554.8,483.9c-18.63-31.72-31.16-58.08-37.65-91.88-3.16-16.44-1.75-30.18-4.39-55.89S371.24,58.68,371.24,58.68"/><path class="cls-15" d="M684.77,723.53c9.75-78.24-10.24-116-29.3-139-17.22-20.77-33.32-25.3-56-50.75-6.93-7.77-24.55-29.53-49.91-104.13C498.34,278.05,372,89,371.75,63.92"/><path class="cls-16" d="M652.44,724C601,655.35,527.28,614,459.36,533.77,441.42,512.58,367.86,421.69,350.78,287a453.85,453.85,0,0,1-3.49-65.82L354.14,72.3"/><path class="cls-17" d="M161.88,723.53c41.18-88.3,54.76-133.09,66.59-177.4,24.21-90.72,21.88-171,15.76-225.75l55-147.59"/><path class="cls-18" d="M495.85,723.53c-41.44-55.43-38.61-9.92-75-58.5-60.38-80.57-80.33-162.51-90.18-204.76a612.16,612.16,0,0,1-15.76-122.51L354.14,72.3"/><path class="cls-19" d="M185.87,723.53c1.86-60.94,8.24-106.81-3.19-212.51-6.29-58.17-13.32-90.72-13.13-154.88.1-33.63-10.59-69,6.13-100.63,21.69-41,22.71-37.76,177.76-196.12"/><path class="cls-20" d="M53.12,566.07a483.23,483.23,0,0,0,95.42-148.68c20.72-51,23.29-132.41,35-160.13C207.2,201.41,341.49,80.53,353.4,68.39"/><path class="cls-21" d="M89.37,723.53c-7.72-47.74,17.87-147.42,60.92-183.64,4.79-4.73,5.26-4.43,10.5-9.62,21.7-21.47,42.68-55.52,55.16-157.5,5.14-42.1,7.48-84.48,51-126.88L367,72.3"/><path class="cls-22" d="M618.22,723.53c-28.05-82.94-52.76-45.07-94.07-148.64-45.37-113.72-53.23-220.33-56.91-275.63-3-44.8-94.66-199.33-93.76-227"/><path class="cls-23" d="M714.9,723.53c-7.08-100.12-39.46-153.77-68.18-189.76-23.93-30-32.19-27.24-56.91-62.13-50.53-71.31-62.44-148.32-66.54-176.75-2.38-16.53-4.46-49.13-21.82-77.4C480.89,184,480.63,184.85,369.2,51"/><path class="cls-24" d="M334.73,723.53c2-38.1-1.44-94.68-5.73-172.66l29-313"/><path class="cls-25" d="M179.54,640.31c32.52-70.12,48.79-105.18,59.79-138.83,16.14-49.37,34.36-125.55,47.62-226.94L361,72.3"/><path class="cls-26" d="M56,723.53c-9.17-67.78,143.91-233,173.06-309,24.13-62.9-5.58-111.68,15.7-163.57s115-178.7,115-178.7"/><path class="cls-27" d="M463.6,724.3c-35.69-59-74.64-42.6-106.5-111.16-14.91-32.08-20.08-61-24.16-83.9-9.13-51.15-6.22-88-4.23-129.16,2.11-43.51,3.84-105.23,16.81-182.29l19-145.49"/><path class="cls-28" d="M316.33,724c13.16-40.91,17.84-31.67,23.86-60.19,1.79-8.51,8.52-41.12,13.89-92.34,3-28.88,4.73-55.21,6.64-118.31,3.26-107.39,3.62-206.42,3.62-206.42L359.76,72.3"/><path class="cls-29" d="M478.37,723.53c18.83-71.26,29-195,37-279.38,8.55-91.1,30.43-182.15,10.86-223-33.05-68.93-142-150.89-155.47-163"/><path class="cls-30" d="M.52,723.53c23.67-113.2,60-156.7,96.88-188.85,17.34-15.14,42-32.25,66.43-68.2,31.25-46,41.42-92.23,45.9-113.48,6.3-29.95,8.74-60.57,51.25-91.14L361,72.3"/><path class="cls-31" d="M32.69,724C16.9,569.23,117.9,381.37,134.85,374.73c6.69-4.53,14.14-8.55,23.55-17.5,36.94-35.13,45.38-109.88,57.28-127.36s145-157.57,145-157.57"/><path class="cls-32" d="M534.11,723.53c-8.64-15.65-14.86-50.1-24.82-106.76C496,541,495,480.14,494.19,408.53c-1-86.53,9.54-152.89-6.81-184.69C464.5,179.31,359,41,372.77,59.7"/><path class="cls-33" d="M427.16,646.34c-26.71-39.68-28.62-39.77-38.05-56.73C358,533.61,352,483,343.81,417A1043.58,1043.58,0,0,1,336,273.33l19-201"/><path class="cls-34" d="M194.49,679.9c36.77-71.39,58.6-81.46,79.11-143.66,12.6-38.17,15.61-76.46,21.14-151.5,4.43-60.06,6-114.76,6-163L372.26,78.09"/><path class="cls-35" d="M239.33,720c24.88-70.74,57.7-130.58,67-147.28,45.45-81.28,76.16-109,93.61-178.05,9-35.61,13-58.6,10.26-85.71s-53-236.64-53-236.64"/><path class="cls-36" d="M22,724.3c41-63,125.51-203.89,157.72-227.29C209,475.69,218,475,240.07,453.55c13.64-13.28,59.74-61.29,73.08-137.62,3.26-18.64,5.92-28.77,4.72-39.55,8.68-74,78.52-310.43,50.31-204.93"/><path class="cls-37" d="M565.79,723.53c-3.63-9.73-29.38-77-40.19-96.5-57.92-104.63-87.68-128.55-97.24-187.72-.85-5.3-1.37-18.83-2.41-45.87-2.5-65.09-1.73-117.93-.61-153.31l-68-167.83"/><path class="cls-38" d="M475.15,724c-24.72-47.78-18.16-59.17-35.31-112.7-13-40.49-28.56-63.49-39.25-83.3-25.31-46.87-50.28-126-44.09-266.18L359.76,72.3"/><path class="cls-39" d="M591.15,724.3c-9.37-17.61-28.93-55.89-35-104.74a242.34,242.34,0,0,1-1.81-34.41c.58-49.23,5.76-234.84.6-255.92s-107-139.53-107-139.53"/><path class="cls-40" d="M662.3,723.53c-8.72-48.06-57.5-199.22-86-289-11.93-37.62-18-56.65-29.59-83.89-20.12-47.13-33-68-41.67-94.16S365.49,112.49,368.62,72.3"/><path class="cls-41" d="M392.38,632.69a145,145,0,0,0,24.51-39.46,148.15,148.15,0,0,0,10.87-51.31c2.16-43.29,8.25-86.43,8.45-129.77.17-36.1,14.76-113.35,6-154.51s-77.12-158.4-77.12-158.4"/><path class="cls-42" d="M439.31,723.53c24-45.87,25.3-84.69,30.72-143,2.24-24,.81-20.32,3.63-97.78,2.76-75.93,4.46-88.28,6-139.43,1-31.16,10.8-84.71,1.21-131.58s-123-139.46-123-139.46"/><path class="cls-43" d="M572.71,723.53c-7.36-49.24-25.68-120.42-42.88-152.64-22.57-42.26-27.43-38-76.1-114.68-40.07-63.15-47.69-83.27-52.54-102-7.46-28.79-8.94-56.41-10.27-81.49C389.27,241.86,353.22,91,354.53,72.3"/><path class="cls-44" d="M207.88,724c-20-26-46.51-149-36.35-216.83,14.34-101.91,25.24-93.37,23.11-166.28-4-77.42-11.17-118.68,1.21-128C216.43,197.53,361,65.83,361,65.83"/><path class="cls-45" d="M511.07,723.53c14.47-60.61,4.68-198.91,12.53-274.66C533.84,350,373.67,128.23,373.79,68.38"/><path class="cls-46" d="M275,724c42.23-77.36,90.4-110.92,140.78-225.65a693.69,693.69,0,0,0,45.67-144.68c9-45.72,22-93.46,12.63-138.84S370.36,97.19,370.36,97.19"/><path class="cls-47" d="M276.83,563.44c7.49-15,46.68-94.08,74.8-188.37,8.59-28.78,16.15-59,20.41-96.12C375.8,246.14,360.6,92.29,359.76,72.3"/><path class="cls-48" d="M312.78,724c18.45-42.69,19-56,19.43-71.27C335.3,551.47,363.5,533,382.73,366.34c5.86-50.84-17-203-18.21-294"/><path class="cls-49" d="M448.79,591.59c-11.24-82-18.77-89.64-30.12-160.2-9-55.95-44.71-254.2-42.16-356"/><path class="cls-50" d="M111.33,723.53c30.43-101.26,71.84-149.41,109.15-247.47,21.42-56.33,31.23-237.36,37.89-254.86S360.52,83.7,360.52,83.7"/><path class="cls-51" d="M247.68,653.74c-38-63.94-51.76-123.27-58.29-152.44-10.4-46.47-11.89-80.58-14.57-141.76C170.61,256.07,354.52,48.29,356.26,47.39"/><path class="cls-52" d="M580.6,724c-29.48-104.39-42-174.46-45.35-189.73-22.91-103.56-26.93-189-29.14-240.8-2.56-59.85-137.63-198-136.4-226.66"/><path class="cls-53" d="M506,724.3c-47-83.7-80.22-145-97.18-197.85-20-62.31-24.34-121.06-33-238.56-3.43-46.66-2.47-187.19-3.22-214.17"/><path class="cls-54" d="M655.18,724.3C655.09,660,589,595.51,560,552.58c-29.15-43.12-41.07-80.32-57.54-131.74C489,378.67,473.3,318.92,429,244.66L367,69.41"/><path class="cls-55" d="M372.63,724.3c.12-41.15,18.14-100.7,25.95-170.58,4.34-38.75,6-69.53,9.1-129.5,3.15-60.68-36.55-236.06-35.42-353.79"/><path class="cls-56" d="M595.92,723.53C541.64,566,488.71,505.41,461.1,408.3c-13.41-47.2-112.87-240.91-100.64-336"/><path class="cls-57" d="M209.13,700.15a1609.83,1609.83,0,0,0,44-188.47C276.42,374.86,380.32,171.2,374.82,70.43"/><path class="cls-58" d="M174.86,575.05c39-79.21,57.27-147.43,66.49-194.24,10.51-53.33,13.53-100.21,14.78-120.42,2.42-39.45,117.16-162.94,116.13-189.45"/><path class="cls-59" d="M256.35,724.3c-23-136.45,3.88-232.48,27.63-285.76C293.09,418.1,313.31,378.7,323.7,320c9.49-53.56,53.44-217.94,49.78-249"/><path class="cls-60" d="M429.45,723.53c-.26-50.39-1.26-80.93.73-99.12,6.65-61.14,18.7-69.09,27.61-136.37,6.56-49.59,6-90.86,5.68-113.63-.53-32.87-1.76-66.79-4.87-82S357.51,108.56,369.16,72.3"/><path class="cls-61" d="M122.17,556.72A757.35,757.35,0,0,0,202,341.14c15.74-77,159.9-218.61,157.81-268.84"/><path class="cls-62" d="M259.85,724c26.94-42.81,32.06-72.72,37.93-98,7.3-31.41,8.22-56.34,9.75-98.22,1.11-30.31.21-56.06-1.63-106.33-1.48-40.55-2.66-56.23-4.06-86.85-1.5-33,60.84-203.54,60.74-262.28"/><path class="cls-63" d="M627.55,724c10.62-83.09-6.08-161.5-20.33-201.9-20.94-59.34-55.59-105.69-62.54-190.75-1.58-19.45-5.08-70.32-24.33-99.6C495.84,194.51,373.28,43.36,373.28,43.36"/><path class="cls-64" d="M395.24,652c-31.41-41.87-40.44-96.36-58.47-205.35C325.94,381.23,366.12,184.84,368,73.72"/><path class="cls-65" d="M299.78,632.71c-7.69-87.43,74.82-321.91,71.73-564.79"/><path class="cls-66" d="M343.5,723.53C357,551.65,369.25,135.36,368.18,71.45"/><path class="cls-67" d="M217.08,602.41c42.95-46,116.44-139.11,139.49-274.07a501.16,501.16,0,0,0,6.25-113.2L371.24,73"/><path class="cls-68" d="M555.07,724c-21-31.43-57.53-105.2-93.68-144.75-16.61-18.57-44.15-48.2-48-52.33-22.2-23.89-38.38-40.86-39.58-42.12C349.89,459.48,375.6,313,372.77,70.43"/><path class="cls-69" d="M420,654.48c-63.14-121.19-70-241.22-76.44-354.2C341,255.62,359,95.87,359.44,72.3"/><path class="cls-70" d="M199.58,585.26a557,557,0,0,0,46-122.46C258,412,260,372.75,262.92,308.62c.39-62.39,96.42-177.13,93.5-234.9"/><path class="cls-71" d="M41.37,724c-3.06-83.27,136.89-237.29,164.85-325.46,27.9-88,144.68-279.87,168.36-330.19"/><path class="cls-72" d="M604.26,634.51a1.3,1.3,0,0,0,1,.29,1.32,1.32,0,0,0,.51-.16"/><path class="cls-73" d="M155.82,427.62c41.42-78.22,49.1-124.27,49.43-150.25.06-4.76.1-26.73,0-50C205.12,198.74,354.41,88.62,354.14,72.3"/><path class="cls-74" d="M434.56,626.7c-7.8-49.75-8.72-53.64-23.63-145.15-21.64-132.86-30.13-188.7-31.27-266-.35-15-10.69-149.88-7.4-150.75"/></g><g id="arrow"><path class="cls-75" d="M363.89,100.1a8.36,8.36,0,0,1-3-.6,8.84,8.84,0,0,1-1.36-.72,10.58,10.58,0,0,1-1.28-1l-28.9-28.9A8.16,8.16,0,0,1,340.85,57.3L355.66,76V12.26c0-6,.86-8.08,2.39-9.61a8.15,8.15,0,0,1,11.53,0c1.53,1.53,2.38,3.61,2.38,9.61V76L386.78,57.3a8.41,8.41,0,0,1,2.65-1.8,8.12,8.12,0,0,1,6.27,0,8.1,8.1,0,0,1,2.68,1.76,8.3,8.3,0,0,1,1.8,2.65,8.43,8.43,0,0,1,.64,3.14,8.21,8.21,0,0,1-2.36,5.83L369.67,97.7a11.32,11.32,0,0,1-1.26,1,8.21,8.21,0,0,1-1.34.72A8.45,8.45,0,0,1,363.89,100.1Z"/></g></g></svg>