<svg xmlns="http://www.w3.org/2000/svg" viewBox="0 0 397.63 102.3"><defs><style>.cls-1{opacity:0.2;}.cls-2{fill:none;stroke:#fff;stroke-miterlimit:10;stroke-width:0.19px;}.cls-3{fill:#fff;}</style></defs><g id="Layer_2" data-name="Layer 2"><g id="Layer_1-2" data-name="Layer 1"><g class="cls-1"><line class="cls-2" x1="221.68" y1="39.69" x2="202.06" y2="39.69"/><circle class="cls-3" cx="221.65" cy="39.69" r="0.56"/></g><g class="cls-1"><line class="cls-2" x1="230.94" y1="47.05" x2="202.06" y2="47.05"/><circle class="cls-3" cx="230.91" cy="47.05" r="0.56"/></g><g class="cls-1"><line class="cls-2" x1="230.49" y1="59.1" x2="202.06" y2="59.1"/><circle class="cls-3" cx="230.46" cy="59.1" r="0.56"/></g><g class="cls-1"><line class="cls-2" x1="240.75" y1="74.16" x2="202.06" y2="74.16"/><circle class="cls-3" cx="240.72" cy="74.16" r="0.56"/></g><g class="cls-1"><path class="cls-2" d="M227.15,30c-3.67.14-25.09.9-25.09,0"/><path class="cls-3" d="M227.1,29.44a.57.57,0,1,1-.55.58A.57.57,0,0,1,227.1,29.44Z"/></g><g class="cls-1"><path class="cls-2" d="M242.43,63c-8.81.31-34,.15-40.37.4"/><path class="cls-3" d="M242.39,62.45A.56.56,0,0,1,243,63a.56.56,0,0,1-.56.57.57.57,0,0,1-.57-.56A.57.57,0,0,1,242.39,62.45Z"/></g><g class="cls-1"><line class="cls-2" x1="222.13" y1="35.68" x2="202.06" y2="35.68"/><circle class="cls-3" cx="222.1" cy="35.68" r="0.56"/></g><g class="cls-1"><line class="cls-2" x1="223.58" y1="41.59" x2="202.06" y2="41.59"/><circle class="cls-3" cx="223.55" cy="41.59" r="0.56"/></g><g class="cls-1"><line class="cls-2" x1="220.56" y1="32.44" x2="202.06" y2="32.44"/><circle class="cls-3" cx="220.54" cy="32.44" r="0.56"/></g><g class="cls-1"><line class="cls-2" x1="229.71" y1="48.95" x2="202.06" y2="48.95"/><path class="cls-3" d="M229.68,48.39a.56.56,0,1,1,0,1.12.56.56,0,0,1,0-1.12Z"/></g><g class="cls-1"><line class="cls-2" x1="224.24" y1="67.8" x2="202.06" y2="67.8"/><circle class="cls-3" cx="224.22" cy="67.8" r="0.56"/></g><g class="cls-1"><line class="cls-2" x1="222.13" y1="69.25" x2="202.06" y2="69.25"/><circle class="cls-3" cx="222.1" cy="69.25" r="0.56"/></g><g class="cls-1"><path class="cls-2" d="M220.34,44.83c-3,.05-18,.29-18.28,0"/><path class="cls-3" d="M220.3,44.27a.56.56,0,0,1,.58.55.58.58,0,0,1-.56.58.57.57,0,0,1-.57-.56A.55.55,0,0,1,220.3,44.27Z"/></g><g class="cls-1"><line class="cls-2" x1="221.23" y1="43.04" x2="202.06" y2="43.04"/><circle class="cls-3" cx="221.2" cy="43.04" r="0.56"/></g><g class="cls-1"><line class="cls-2" x1="223.8" y1="60.66" x2="202.06" y2="60.66"/><circle class="cls-3" cx="223.77" cy="60.66" r="0.56"/></g><g class="cls-1"><line class="cls-2" x1="234.39" y1="71.15" x2="202.06" y2="71.15"/><circle class="cls-3" cx="234.37" cy="71.15" r="0.56"/></g><g class="cls-1"><path class="cls-2" d="M245.58,75.66c-13.82-4.5-39.73-5.38-43.52-5.63"/><path class="cls-3" d="M245.69,75.14a.56.56,0,1,1-.69.39A.55.55,0,0,1,245.69,75.14Z"/></g><g class="cls-1"><line class="cls-2" x1="218.98" y1="50.07" x2="202.06" y2="50.07"/><circle class="cls-3" cx="218.95" cy="50.07" r="0.56"/></g><g class="cls-1"><line class="cls-2" x1="220.34" y1="38.02" x2="202.06" y2="38.02"/><path class="cls-3" d="M220.31,37.46a.56.56,0,1,1,0,1.12.56.56,0,0,1,0-1.12Z"/></g><g class="cls-1"><line class="cls-2" x1="233.84" y1="45.94" x2="202.06" y2="45.94"/><path class="cls-3" d="M233.81,45.38a.56.56,0,1,1,0,1.12.56.56,0,1,1,0-1.12Z"/></g><g class="cls-1"><line class="cls-2" x1="223.35" y1="28.2" x2="202.06" y2="28.2"/><circle class="cls-3" cx="223.32" cy="28.2" r="0.56"/></g><g class="cls-1"><line class="cls-2" x1="223.58" y1="29.21" x2="202.06" y2="29.21"/><circle class="cls-3" cx="223.55" cy="29.21" r="0.56"/></g><g class="cls-1"><line class="cls-2" x1="222.13" y1="34.23" x2="202.06" y2="34.23"/><circle class="cls-3" cx="222.1" cy="34.23" r="0.56"/></g><g class="cls-1"><path class="cls-2" d="M228.93,65.32c-6-.33-23.68-.3-26.87-.2"/><path class="cls-3" d="M228.91,64.77a.57.57,0,0,1,.55.58.55.55,0,0,1-.57.55.57.57,0,0,1,0-1.13Z"/></g><g class="cls-1"><line class="cls-2" x1="222.01" y1="71.93" x2="202.06" y2="71.93"/><circle class="cls-3" cx="221.99" cy="71.93" r="0.56"/></g><g class="cls-1"><line class="cls-2" x1="219.16" y1="45.27" x2="202.06" y2="45.27"/><path class="cls-3" d="M219.14,44.71a.56.56,0,1,1-.57.56A.56.56,0,0,1,219.14,44.71Z"/></g><g class="cls-1"><line class="cls-2" x1="225.78" y1="40.47" x2="202.06" y2="40.47"/><circle class="cls-3" cx="225.75" cy="40.47" r="0.56"/></g><g class="cls-1"><line class="cls-2" x1="222.78" y1="37.01" x2="202.06" y2="37.01"/><circle class="cls-3" cx="222.75" cy="37.01" r="0.56"/></g><g class="cls-1"><line class="cls-2" x1="218.54" y1="47.93" x2="202.06" y2="47.93"/><path class="cls-3" d="M218.52,47.37a.56.56,0,0,1,0,1.12.56.56,0,1,1,0-1.12Z"/></g><g class="cls-1"><line class="cls-2" x1="222.24" y1="52.24" x2="202.06" y2="52.24"/><path class="cls-3" d="M222.21,51.68a.56.56,0,1,1-.56.56A.56.56,0,0,1,222.21,51.68Z"/></g><g class="cls-1"><line class="cls-2" x1="218.98" y1="72.86" x2="202.06" y2="72.86"/><circle class="cls-3" cx="218.95" cy="72.86" r="0.56"/></g><g class="cls-1"><line class="cls-2" x1="224.16" y1="33.47" x2="202.06" y2="33.47"/><path class="cls-3" d="M224.13,32.9a.57.57,0,1,1,0,1.13.57.57,0,0,1,0-1.13Z"/></g><g class="cls-1"><line class="cls-2" x1="220.08" y1="31.39" x2="202.06" y2="31.39"/><path class="cls-3" d="M220.06,30.82a.57.57,0,0,1,.56.57.57.57,0,0,1-1.13,0A.57.57,0,0,1,220.06,30.82Z"/></g><g class="cls-1"><line class="cls-2" x1="219.31" y1="68.55" x2="202.06" y2="68.55"/><circle class="cls-3" cx="219.29" cy="68.55" r="0.56"/></g><g class="cls-1"><line class="cls-2" x1="225.62" y1="48.62" x2="202.06" y2="48.62"/><path class="cls-3" d="M225.6,48.06a.56.56,0,0,1,.56.56.57.57,0,1,1-1.13,0A.56.56,0,0,1,225.6,48.06Z"/></g><g class="cls-1"><path class="cls-2" d="M218.32,42.31H202.06"/><path class="cls-3" d="M218.29,41.75a.57.57,0,1,1-.57.56A.56.56,0,0,1,218.29,41.75Z"/></g><g class="cls-1"><line class="cls-2" x1="230.16" y1="58.09" x2="202.06" y2="58.09"/><circle class="cls-3" cx="230.13" cy="58.09" r="0.56"/></g><g class="cls-1"><path class="cls-2" d="M225.4,44.38c-3.57-.05-23.34,0-23.34,0"/><circle class="cls-3" cx="225.36" cy="44.39" r="0.56"/></g><g class="cls-1"><line class="cls-2" x1="221.39" y1="60.01" x2="202.06" y2="60.01"/><circle class="cls-3" cx="221.36" cy="60.01" r="0.56"/></g><g class="cls-1"><line class="cls-2" x1="224.16" y1="51.24" x2="202.06" y2="51.24"/><path class="cls-3" d="M224.13,50.68a.56.56,0,1,1,0,1.12.56.56,0,0,1,0-1.12Z"/></g><g class="cls-1"><line class="cls-2" x1="219.31" y1="74.78" x2="202.06" y2="74.78"/><circle class="cls-3" cx="219.29" cy="74.78" r="0.56"/></g><g class="cls-1"><path class="cls-2" d="M223.49,70.05a135.14,135.14,0,0,0-21.43-1"/><circle class="cls-3" cx="223.45" cy="70.06" r="0.56" transform="translate(110.69 275.3) rotate(-78.62)"/></g><g class="cls-1"><line class="cls-2" x1="223.62" y1="62.16" x2="202.06" y2="62.16"/><circle class="cls-3" cx="223.59" cy="62.16" r="0.56"/></g><g class="cls-1"><line class="cls-2" x1="217.78" y1="67.09" x2="202.06" y2="67.09"/><circle class="cls-3" cx="217.75" cy="67.09" r="0.56"/></g><g class="cls-1"><path class="cls-2" d="M225.55,55.6c-4.79-.18-21.2-.06-23.49.1"/><path class="cls-3" d="M225.52,55.06a.56.56,0,1,1-.57.56A.56.56,0,0,1,225.52,55.06Z"/></g><g class="cls-1"><line class="cls-2" x1="217.93" y1="30.77" x2="202.06" y2="30.77"/><circle class="cls-3" cx="217.9" cy="30.77" r="0.56"/></g><g class="cls-1"><path class="cls-2" d="M248,72.58c-12.79,1.26-38.41,1.56-45.94,1.58"/><path class="cls-3" d="M247.93,72a.58.58,0,0,1,.61.53.57.57,0,0,1-.53.6.56.56,0,0,1-.6-.52A.58.58,0,0,1,247.93,72Z"/></g><g class="cls-1"><line class="cls-2" x1="218.17" y1="66.22" x2="202.06" y2="66.22"/><path class="cls-3" d="M218.14,65.65a.57.57,0,1,1,0,1.13.57.57,0,0,1,0-1.13Z"/></g><g class="cls-1"><path class="cls-2" d="M226.34,53.27c-5,.43-21.82.42-24.28.32"/><path class="cls-3" d="M226.28,52.69a.56.56,0,1,1,.06,1.12.56.56,0,0,1-.59-.53A.55.55,0,0,1,226.28,52.69Z"/></g><g class="cls-1"><path class="cls-2" d="M237.49,54.64c-6.88.73-24.13,1.46-35.43,1.3"/><path class="cls-3" d="M237.41,54.06a.57.57,0,0,1,.09,1.13.57.57,0,0,1-.09-1.13Z"/></g><g class="cls-1"><path class="cls-2" d="M245.78,59.08c-7.72-1.12-31-2.22-43.72-1.9"/><path class="cls-3" d="M245.8,58.54a.57.57,0,0,1,.51.62.56.56,0,1,1-.51-.62Z"/></g><g class="cls-1"><line class="cls-2" x1="218.98" y1="38.74" x2="202.06" y2="38.74"/><circle class="cls-3" cx="218.95" cy="38.74" r="0.56"/></g><g class="cls-1"><path class="cls-2" d="M236.62,28.07c-8.42-.32-29.39-.15-34.56.13"/><path class="cls-3" d="M236.59,27.52a.57.57,0,0,1,.56.57.56.56,0,0,1-.57.56.57.57,0,1,1,0-1.13Z"/></g><g class="cls-1"><path class="cls-2" d="M228.2,70.28c-7.1-.27-21.84-.16-26.14,0"/><path class="cls-3" d="M228.18,69.73a.55.55,0,0,1,.55.57.57.57,0,0,1-.57.56.57.57,0,0,1-.56-.57A.56.56,0,0,1,228.18,69.73Z"/></g><g class="cls-1"><path class="cls-2" d="M227.48,53.67c-6.34-.41-22.08-.6-25.42-.69"/><path class="cls-3" d="M227.47,53.12a.57.57,0,1,1-.58.55A.56.56,0,0,1,227.47,53.12Z"/></g><g class="cls-1"><line class="cls-2" x1="221.97" y1="65.07" x2="202.06" y2="65.07"/><circle class="cls-3" cx="221.94" cy="65.07" r="0.56"/></g><g class="cls-1"><path class="cls-2" d="M244.86,57.79c-8.11.39-28.12.84-42.8,1"/><path class="cls-3" d="M244.81,57.21a.56.56,0,0,1,.58.55.57.57,0,0,1-.55.58.57.57,0,0,1,0-1.13Z"/></g><g class="cls-1"><path class="cls-2" d="M242.85,64.43c-6.72-1.66-29-3.12-40.79-1.6"/><path class="cls-3" d="M242.93,63.9a.56.56,0,0,1-.23,1.1.56.56,0,0,1-.44-.67A.56.56,0,0,1,242.93,63.9Z"/></g><g class="cls-1"><path class="cls-2" d="M256,38.15c-17.39,2.89-41.23,3.22-53.95,2.52"/><path class="cls-3" d="M255.9,37.59a.56.56,0,0,1,.17,1.11.56.56,0,1,1-.17-1.11Z"/></g><g class="cls-1"><path class="cls-2" d="M224.15,36.36c-5.43.27-18.82.24-22.09.11"/><path class="cls-3" d="M224.11,35.78a.56.56,0,1,1-.55.57A.55.55,0,0,1,224.11,35.78Z"/></g><g class="cls-1"><path class="cls-2" d="M231.58,47.15c-7,1-25.9.76-29.52.33"/><path class="cls-3" d="M231.48,46.57a.56.56,0,1,1-.49.63A.56.56,0,0,1,231.48,46.57Z"/></g><g class="cls-1"><path class="cls-2" d="M228.06,64.22c-4.75-.24-18.89-.46-26-.28"/><path class="cls-3" d="M228.05,63.67a.55.55,0,0,1,.54.58.56.56,0,1,1-.54-.58Z"/></g><g class="cls-1"><path class="cls-2" d="M234.28,31.65c-9.21,1.76-26.12,2-32.22,1.76"/><path class="cls-3" d="M234.15,31.09a.56.56,0,0,1,.19,1.11.56.56,0,0,1-.19-1.11Z"/></g><g class="cls-1"><path class="cls-2" d="M233.44,44.26c-5.19-.19-24.18-.38-31.38-.4"/><path class="cls-3" d="M233.42,43.71a.56.56,0,1,1-.57.55A.55.55,0,0,1,233.42,43.71Z"/></g><g class="cls-1"><line class="cls-2" x1="225.58" y1="75.21" x2="202.06" y2="75.21"/><circle class="cls-3" cx="225.55" cy="75.21" r="0.56"/></g><g class="cls-1"><path class="cls-2" d="M247.73,48.64c-8.77-1.35-31.79-2.63-45.67-2.4"/><path class="cls-3" d="M247.76,48.1a.56.56,0,0,1,.49.63.55.55,0,0,1-.62.49.56.56,0,0,1-.5-.62A.58.58,0,0,1,247.76,48.1Z"/></g><g class="cls-1"><path class="cls-2" d="M271.83,42.47c-11.49-1-39.28-2-69.77-2.44"/><path class="cls-3" d="M271.84,41.92a.56.56,0,1,1-.6.52A.55.55,0,0,1,271.84,41.92Z"/></g><g class="cls-1"><path class="cls-2" d="M273.38,50.42c-22,1.67-63.23,1.23-71.32,1.1"/><path class="cls-3" d="M273.32,49.85a.56.56,0,1,1-.53.59A.55.55,0,0,1,273.32,49.85Z"/></g><g class="cls-1"><line class="cls-2" x1="218.52" y1="50.74" x2="202.06" y2="50.74"/><circle class="cls-3" cx="218.5" cy="50.74" r="0.56"/></g><g class="cls-1"><path class="cls-2" d="M252.64,52.53c-4.07-2.91-20.8-5.43-50.58-5.78"/><path class="cls-3" d="M252.94,52.07a.57.57,0,0,1,.12.79.57.57,0,1,1-.91-.67A.57.57,0,0,1,252.94,52.07Z"/></g><g class="cls-1"><path class="cls-2" d="M229.06,49.56c-6.25-.3-24.08-.29-27-.24"/><path class="cls-3" d="M229,49a.58.58,0,0,1,.56.58.57.57,0,0,1-.58.55.56.56,0,0,1-.55-.57A.57.57,0,0,1,229,49Z"/></g><g class="cls-1"><path class="cls-2" d="M230.12,39.34c-5.69.22-20,.32-28.06-.11"/><path class="cls-3" d="M230.08,38.76a.58.58,0,0,1,.58.56.57.57,0,0,1-.56.57.57.57,0,0,1,0-1.13Z"/></g><g class="cls-1"><path class="cls-2" d="M241.74,31.86c-10.87,3.23-33.84,3.49-39.68,3.21V35"/><path class="cls-3" d="M241.57,31.29a.58.58,0,0,1,.69.41.57.57,0,1,1-.69-.41Z"/></g><g class="cls-1"><path class="cls-2" d="M219.77,32c-4.19,0-15.81-.06-17.71-.09"/><path class="cls-3" d="M219.74,31.4a.57.57,0,1,1,0,1.13.56.56,0,0,1-.56-.57A.57.57,0,0,1,219.74,31.4Z"/></g><g class="cls-1"><path class="cls-2" d="M218.26,54.19c-3.15,0-15.26,0-16.2,0"/><path class="cls-3" d="M218.23,53.63a.56.56,0,1,1-.56.56A.56.56,0,0,1,218.23,53.63Z"/></g><g class="cls-1"><path class="cls-2" d="M43.35,1a141,141,0,0,1,23.56.48s4.13.44,7.58,1c8.1,1.34,19.66,5,52,24.76,6.08,3.71,11.7,7.26,20.41,9.7a80.1,80.1,0,0,0,14.39,2.35,134,134,0,0,0,20.64.44h20.15"/><path class="cls-3" d="M43.41,1.52A.55.55,0,0,1,42.82,1,.56.56,0,1,1,43.94.93.55.55,0,0,1,43.41,1.52Z"/></g><g class="cls-1"><path class="cls-2" d="M31.86,4.58a261.22,261.22,0,0,1,31,2.65C77.65,9.43,88,11,100.37,16.6a123.39,123.39,0,0,1,17.51,9.93c12.9,8.67,15.24,13.55,25.43,16.84a79.48,79.48,0,0,0,14.84,2.9,104.8,104.8,0,0,0,14.5.78h29.41"/><path class="cls-3" d="M31.86,5.15a.56.56,0,0,1-.53-.59A.57.57,0,0,1,31.92,4a.56.56,0,0,1,.53.59A.57.57,0,0,1,31.86,5.15Z"/></g><g class="cls-1"><path class="cls-2" d="M48.15,14.48A169.64,169.64,0,0,1,78.4,17.16,166.14,166.14,0,0,1,101,23c7.17,2.39,11.69,3.92,17.18,7.25s5.71,4.72,13.83,11.16c7.74,6.13,13.22,10.48,20.75,13.6a55.11,55.11,0,0,0,20.3,4.13h29"/><path class="cls-3" d="M48.16,15.06a.57.57,0,0,1-.55-.58.57.57,0,0,1,.58-.55.57.57,0,0,1,.55.58A.56.56,0,0,1,48.16,15.06Z"/></g><g class="cls-1"><path class="cls-2" d="M31.08,51.29c18.64-.19,28-.3,35.83-1.89a76.21,76.21,0,0,1,13.83-1.79A73,73,0,0,1,99.59,49.4c10,2.34,16.92,6.36,23.87,10.37,8.39,4.85,8.59,6.21,14,8.92a55.09,55.09,0,0,0,25.32,5.47h39.23"/><path class="cls-3" d="M31.12,51.85a.57.57,0,0,1-.57-.56.56.56,0,1,1,1.12,0A.57.57,0,0,1,31.12,51.85Z"/></g><g class="cls-1"><path class="cls-2" d="M34.77,57c40.43-.69,48.38-2.69,55.12-5.12,9.71-3.5,11.91-6.06,28.55-12.05,9-3.24,17.39-6.2,28.67-8.14A130.75,130.75,0,0,1,176.44,30s25.62,1,25.62,0"/><path class="cls-3" d="M34.81,57.53a.57.57,0,0,1-.58-.55.56.56,0,0,1,.54-.58.57.57,0,1,1,0,1.13Z"/></g><g class="cls-1"><path class="cls-2" d="M41.56,30.25A156.4,156.4,0,0,1,75.5,36c6.45,1.91,11.62,4.06,22,8.37,11.8,4.91,13.33,6.21,24,10.37,14.77,5.77,20.91,6.83,22.87,7.14,3.27.52,5.34.63,16.84,1.12,8.28.34,34.44.17,40.9.42"/><path class="cls-3" d="M41.55,30.82a.57.57,0,0,1-.52-.61.56.56,0,0,1,.61-.51.57.57,0,0,1,.52.61A.56.56,0,0,1,41.55,30.82Z"/></g><g class="cls-1"><path class="cls-2" d="M42.79,78.93A263.85,263.85,0,0,0,76.06,75.5c19-3.2,27-6.75,32.68-10.15,4.3-2.58,9-6,9-6,8.4-6.11,10.21-8.94,15.28-12.38,5.36-3.62,9.86-4.88,18-7.14a113.81,113.81,0,0,1,30.45-4.12h20.6"/><path class="cls-3" d="M42.86,79.48a.56.56,0,0,1-.6-.52.56.56,0,1,1,1.12-.08A.55.55,0,0,1,42.86,79.48Z"/></g><g class="cls-1"><path class="cls-2" d="M46,74.51c15.73.37,23.7.53,33.37-1.69a132.49,132.49,0,0,0,29.34-11c3.11-1.69,6-3.44,11.37-6a140.06,140.06,0,0,1,17.63-7.13,144.51,144.51,0,0,1,31.56-6.25c4.39-.45,8.07-.67,10.71-.78h22.05"/><path class="cls-3" d="M46.05,75.07a.57.57,0,1,1,.57-.55A.56.56,0,0,1,46.05,75.07Z"/></g><g class="cls-1"><path class="cls-2" d="M30.74,89.74a252,252,0,0,0,40.85,2.71c19.35-.31,27-2.72,31.24-4.35a73.47,73.47,0,0,0,20.41-12c3.77-3.15,6.92-6.76,13-13.84,13.83-16,11.81-16.25,17-20,10.9-7.87,23.75-9.33,26.44-9.59,1.4-.14,2.56-.2,3.34-.23h19"/><path class="cls-3" d="M30.7,90.29a.56.56,0,0,1-.49-.63.57.57,0,0,1,.63-.49.56.56,0,0,1-.14,1.12Z"/></g><g class="cls-1"><path class="cls-2" d="M18.59,100.6c9.12.15,51.82.79,70.29-.34a58,58,0,0,0,8.48-1.12,59.11,59.11,0,0,0,23.54-10.7c2.47-1.9,8.6-8.92,20.85-23a54.2,54.2,0,0,1,8.37-8.26c8.08-6.22,15.24-7.55,16.73-7.8a33.12,33.12,0,0,1,7-.45h28.18"/><path class="cls-3" d="M18.61,101.16a.56.56,0,1,1,0-1.12.56.56,0,1,1,0,1.12Z"/></g><g class="cls-1"><path class="cls-2" d="M14.68,23.85c10.4-.17,33.13-.18,55.58,3a120.31,120.31,0,0,1,27.66,6.8,93,93,0,0,1,13.49,6.25C131.6,51.45,134.05,64.26,149.12,67a91.39,91.39,0,0,0,10.15.78,193.89,193.89,0,0,0,20.07,0h22.72"/><path class="cls-3" d="M14.72,24.41a.56.56,0,1,1,0-1.12.56.56,0,1,1,0,1.12Z"/></g><g class="cls-1"><path class="cls-2" d="M34.76,60.27a310.9,310.9,0,0,1,49.22-1c17.68,1.07,27.08,1.66,39.93,5,9.38,2.46,14.37,4.77,24.42,5.36,5.25.3,11.85.14,22.42-.11,4.47-.11,8.17-.24,10.71-.34h20.6"/><path class="cls-3" d="M34.84,60.84a.56.56,0,0,1-.61-.51.56.56,0,1,1,1.12-.09A.55.55,0,0,1,34.84,60.84Z"/></g><g class="cls-1"><path class="cls-2" d="M17.7,44.26c17.55-.33,31.73-.36,41.51-.33,12.85,0,16.79.19,23.65-.67,20.56-2.57,20.38-8.28,34-9.26,18.34-1.3,23,8.72,50.75,10.71a120.92,120.92,0,0,0,15.62.11s18.48.34,18.81,0"/><path class="cls-3" d="M17.73,44.83a.57.57,0,1,1,.56-.57A.57.57,0,0,1,17.73,44.83Z"/></g><g class="cls-1"><path class="cls-2" d="M95.65.55c30.51,6.74,43.4,15.5,49.34,22.75a71.43,71.43,0,0,0,8.92,9c5.14,4.38,12.51,10.5,22.53,11a26.78,26.78,0,0,0,5.91-.33h19.71"/><path class="cls-3" d="M95.54,1.11a.56.56,0,0,1-.41-.68A.56.56,0,0,1,95.81,0a.57.57,0,0,1,.42.68A.57.57,0,0,1,95.54,1.11Z"/></g><g class="cls-1"><path class="cls-2" d="M60.26,94.78a59.43,59.43,0,0,0,22.6,4.59c4.48,0,16.81-.09,28.55-7.25,5.49-3.35,5.14-4.75,12.5-9.15s8.64-3.59,17-8.14,8-5.86,16.29-9.93c6.17-3,10.18-4.21,14.38-4.57a33.28,33.28,0,0,1,8.26.33h22.27"/><path class="cls-3" d="M60.1,95.3a.56.56,0,1,1,.4-1,.56.56,0,0,1-.4,1Z"/></g><g class="cls-1"><path class="cls-2" d="M97.89,100.9c12.75,1.83,20.65-.84,25.57-3.76,1.42-.84.51-.47,12.27-9.71A129.27,129.27,0,0,1,151.12,76.5a35.16,35.16,0,0,1,11.71-4.79,31.52,31.52,0,0,1,6.36-.56h32.87"/><path class="cls-3" d="M97.86,101.44a.56.56,0,0,1-.5-.62.56.56,0,1,1,1.12.13A.55.55,0,0,1,97.86,101.44Z"/></g><g class="cls-1"><path class="cls-2" d="M120.54,93c9.73,1.14,14.86-1.23,17.76-3.63,2.64-2.2,3.22-4.25,6.47-7.14,1-.88,3.76-3.13,13.27-6.36,13.68-4.64,40.18-5.55,44-5.8"/><path class="cls-3" d="M120.51,93.51a.57.57,0,0,1-.51-.61.56.56,0,0,1,.61-.51.56.56,0,1,1-.1,1.12Z"/></g><g class="cls-1"><path class="cls-2" d="M103,92.2c6.82-.36,16.41-2,24.9-8.34,8.76-6.55,6.61-10.86,16.85-19.52a62.28,62.28,0,0,1,31.45-13.83,58.53,58.53,0,0,1,8.39-.44h17.45"/><path class="cls-3" d="M103.1,92.74a.56.56,0,0,1-.61-.51.56.56,0,1,1,1.12-.1A.56.56,0,0,1,103.1,92.74Z"/></g><g class="cls-1"><path class="cls-2" d="M65.1,6.68A108.27,108.27,0,0,1,91.89,9.91c9.94,2.51,21.15,7.69,43.17,18,11.26,5.25,13.76,6.64,19.41,8.14a77.78,77.78,0,0,0,28.78,2h18.81"/><path class="cls-3" d="M65.11,7.26a.56.56,0,0,1-.54-.58.57.57,0,0,1,.58-.55.56.56,0,0,1,.54.58A.57.57,0,0,1,65.11,7.26Z"/></g><g class="cls-1"><path class="cls-2" d="M50.92,81.22a84.86,84.86,0,0,0,23.35,3,68.33,68.33,0,0,0,22.87-3.57A67.9,67.9,0,0,0,116,70.37c7.06-5.28,5.85-6.3,12-10.93,10.27-7.7,20.72-10.24,26.1-11.49a78,78,0,0,1,15.62-2h32.31"/><path class="cls-3" d="M50.82,81.75a.57.57,0,0,1,.26-1.1.58.58,0,0,1,.42.68A.57.57,0,0,1,50.82,81.75Z"/></g><g class="cls-1"><path class="cls-2" d="M97,28.71c5,.53,11.36,1.05,18.76,1.28a218.23,218.23,0,0,0,31.91-.89c7.41-.8,11.56-1.7,19.74-1.68a112.34,112.34,0,0,1,12.83.78h21.82"/><path class="cls-3" d="M97,29.26a.56.56,0,1,1,.61-.51A.56.56,0,0,1,97,29.26Z"/></g><g class="cls-1"><path class="cls-2" d="M140.92,12.84A61.58,61.58,0,0,0,159.6,24.75,61.62,61.62,0,0,0,180,29.21h22.05"/><path class="cls-3" d="M140.58,13.27a.56.56,0,1,1,.79,0A.55.55,0,0,1,140.58,13.27Z"/></g><g class="cls-1"><path class="cls-2" d="M126.56,19.8C132,19.41,139.06,20,144,25c.61.61.57.67,1.23,1.34,2.74,2.76,7.08,5.44,20.08,7a122.8,122.8,0,0,0,16.17.89h20.6"/><path class="cls-3" d="M126.62,20.37a.55.55,0,0,1-.59-.53.56.56,0,1,1,1.12-.07A.56.56,0,0,1,126.62,20.37Z"/></g><g class="cls-1"><path class="cls-2" d="M87.51,87a60.3,60.3,0,0,0,28.81-2.09c10.57-3.58,10-7,23.2-12.27,14.5-5.78,28.09-6.78,35.14-7.25,5.35-.36,24.11-.33,27.4-.23"/><path class="cls-3" d="M87.48,87.5a.56.56,0,0,1-.49-.63.57.57,0,0,1,.63-.49.58.58,0,0,1,.49.63A.56.56,0,0,1,87.48,87.5Z"/></g><g class="cls-1"><path class="cls-2" d="M120.2,96.87c12.54-1,20-5,24.57-8.66,3.82-3,3.47-4.1,7.91-7.25,9.09-6.43,18.91-7.95,22.54-8.47a54.76,54.76,0,0,1,6.35-.56h20.49"/><path class="cls-3" d="M120.29,97.42a.57.57,0,1,1,.5-.62A.57.57,0,0,1,120.29,97.42Z"/></g><g class="cls-1"><path class="cls-2" d="M48.8,64a100.91,100.91,0,0,0,24.91,2.67,85.21,85.21,0,0,0,26-4,60.75,60.75,0,0,0,13.72-5.91c2.54-1.54,4.41-3,10-6.36,4.35-2.63,5.93-3.41,7.92-4a25,25,0,0,1,9.15-.9,199.62,199.62,0,0,0,21.64-.22h39.89"/><path class="cls-3" d="M48.72,64.56a.57.57,0,0,1-.44-.66.57.57,0,0,1,1.11.22A.56.56,0,0,1,48.72,64.56Z"/></g><g class="cls-1"><path class="cls-2" d="M72.32,11.59c16.13-.79,27.49,2.39,34.94,5.49,5.76,2.4,8.37,4.41,23.92,11.62,8.94,4.14,13.41,6.21,17.7,7.61a87.32,87.32,0,0,0,28.93,4.16h24.25"/><path class="cls-3" d="M72.36,12.16a.56.56,0,0,1,0-1.12.55.55,0,0,1,.57.55A.55.55,0,0,1,72.36,12.16Z"/></g><g class="cls-1"><path class="cls-2" d="M114.93,9.9a75.32,75.32,0,0,1,21.33,8.79c10.94,6.69,14,12.6,23.7,16.31a41.44,41.44,0,0,0,20.85,2h21.25"/><path class="cls-3" d="M114.8,10.47a.57.57,0,1,1,.7-.39A.57.57,0,0,1,114.8,10.47Z"/></g><g class="cls-1"><path class="cls-2" d="M34.54,71.09c12.31,0,22.68,0,30.71,0,4.06,0,8.66,0,14.85-.31,6.49-.28,11.47-.5,17.54-1.31,11.12-1.48,16.68-2.21,21.16-4.92,7.52-4.55,7.11-9.17,15.85-13.23a41,41,0,0,1,10.69-3.08c6.52-1.16,11.22-.79,16.47-.54,5.54.27,13.41.49,23.23.23h17"/><circle class="cls-3" cx="34.57" cy="71.09" r="0.56"/></g><g class="cls-1"><path class="cls-2" d="M77.63,35a106.63,106.63,0,0,1,18.24,3.78c6.36,1.93,8.52,3.27,20.39,7.08a108.84,108.84,0,0,0,11.92,3.31A114.45,114.45,0,0,0,140,50.93c3.68.39,7,.6,15.08.85,13.69.41,26.31.46,26.31.46h20.71"/><path class="cls-3" d="M77.58,35.56a.56.56,0,1,1,.63-.48A.55.55,0,0,1,77.58,35.56Z"/></g><g class="cls-1"><path class="cls-2" d="M.53,41.42a229.23,229.23,0,0,1,50.64,1c16.4,2.17,29.83,4,46.16,11.08,13.13,5.73,16.89,10,31.08,13.77,9.09,2.4,17,3.14,27.78,4.15,11.61,1.1,21.37,1.37,28.42,1.39h17.45"/><path class="cls-3" d="M.6,42a.56.56,0,0,1-.6-.52.57.57,0,0,1,.53-.6.56.56,0,0,1,.6.52A.57.57,0,0,1,.6,42Z"/></g><g class="cls-1"><path class="cls-2" d="M119.09,5c14.19,3,21.49,8.55,25.56,13.2,1.93,2.21,4.11,5.35,8.69,8.47a39.66,39.66,0,0,0,14.47,5.84,45.87,45.87,0,0,0,11.62.93h22.63"/><circle class="cls-3" cx="119.11" cy="5.05" r="0.56" transform="translate(98.31 122.45) rotate(-82.38)"/></g><g class="cls-1"><path class="cls-2" d="M144.87,12.86C157.31,15.08,162.57,19.35,165,23a18.65,18.65,0,0,0,2.23,3c4.48,4.71,11.21,5.48,16.23,5.39h18.56"/><path class="cls-3" d="M144.78,13.43a.56.56,0,1,1,.67-.43A.57.57,0,0,1,144.78,13.43Z"/></g><g class="cls-1"><path class="cls-2" d="M100.77,81.16A18.57,18.57,0,0,0,112,81c4.24-1.54,5.48-4.11,10.31-6.78,2-1.1,4.7-2.27,11.93-3.53,9.65-1.7,17.41-1.82,26.54-1.93,11-.13,19.38-.2,23.54-.23h17.79"/><path class="cls-3" d="M100.67,81.69a.56.56,0,1,1,.26-1.09.56.56,0,1,1-.26,1.09Z"/></g><g class="cls-1"><path class="cls-2" d="M68.39,80.12a93.19,93.19,0,0,0,18.94-.87,79.92,79.92,0,0,0,20.54-5.54c7-3,12.38-6.64,22.54-13.47,5.06-3.4,5.07-3.64,7.24-4.85,7.14-4,13.59-4.72,22-5.77a133.41,133.41,0,0,1,18.31-1h24.1"/><path class="cls-3" d="M68.4,80.68a.57.57,0,1,1,.59-.54A.56.56,0,0,1,68.4,80.68Z"/></g><g class="cls-1"><path class="cls-2" d="M72,19.85a91.49,91.49,0,0,1,32.48,1.07,88.83,88.83,0,0,1,22.39,7.85c9.09,4.69,10.38,7.47,18.31,10.08,4.86,1.61,9.74,2,19.31,2.69,7.66.57,14.63.77,20.77.77h16.79"/><path class="cls-3" d="M72.11,20.42a.58.58,0,0,1-.63-.5A.55.55,0,0,1,72,19.3a.56.56,0,1,1,.14,1.12Z"/></g><g class="cls-1"><path class="cls-2" d="M97.63,31.21a97.89,97.89,0,0,1,23.4,5.1,126.11,126.11,0,0,1,18.77,8.54c10.36,5.79,13.9,9.71,22.7,11.93a43.63,43.63,0,0,0,10.92,1.31h28.64"/><path class="cls-3" d="M97.6,31.78a.56.56,0,1,1,.62-.5A.56.56,0,0,1,97.6,31.78Z"/></g><g class="cls-1"><path class="cls-2" d="M133.79,12.37a58.69,58.69,0,0,1,15.55,14.56c2.72,3.74,2.81,4.88,5.54,7.69a32.94,32.94,0,0,0,17.54,9.31,23,23,0,0,0,5.77.46c.7-.08,23.87,0,23.87,0"/><path class="cls-3" d="M133.49,12.86a.56.56,0,1,1,.78-.15A.56.56,0,0,1,133.49,12.86Z"/></g><g class="cls-1"><path class="cls-2" d="M110.93,76a29.19,29.19,0,0,0,16.95-.67,39.58,39.58,0,0,0,5-2.54c13.33-7.38,16.38-11.17,23.93-12.38.67-.11,2.4-.18,5.84-.31,8.3-.32,15-.22,19.55-.08h19.86"/><path class="cls-3" d="M110.85,76.52a.56.56,0,1,1,.67-.44A.56.56,0,0,1,110.85,76.52Z"/></g><g class="cls-1"><path class="cls-2" d="M93.94,74.48A36.28,36.28,0,0,0,111,70.71c3.17-1.64,4.38-2.95,7.77-4.7,6.09-3.15,9.25-2,16.08-4.15a52.88,52.88,0,0,0,10.62-5c6-3.23,16.05-6.41,33.93-5.62h22.63"/><path class="cls-3" d="M94,75a.57.57,0,0,1,0-1.13.57.57,0,0,1,.57.56A.56.56,0,0,1,94,75Z"/></g><g class="cls-1"><path class="cls-2" d="M69.4,88.85a132,132,0,0,0,25.16.4,107.41,107.41,0,0,0,21.77-3.62c9.1-2.55,13.64-3.83,18.16-6.23a34.67,34.67,0,0,1,12.77-4.46,30.77,30.77,0,0,1,4.39-.23c6.28.07,17.5.08,32.62.07h17.79"/><path class="cls-3" d="M69.38,89.4a.57.57,0,1,1,.61-.52A.58.58,0,0,1,69.38,89.4Z"/></g><g class="cls-1"><path class="cls-2" d="M128.55,86.23a247.86,247.86,0,0,0,28.87-7,106.34,106.34,0,0,0,10.7-3.77c6-2.57,7.68-4.08,12-5.31,2.6-.75,16.82-1.48,21.94-1.08"/><path class="cls-3" d="M128.7,86.76a.56.56,0,1,1,.44-.66A.56.56,0,0,1,128.7,86.76Z"/></g><g class="cls-1"><path class="cls-2" d="M132.44,56.05a18.24,18.24,0,0,0,4.75,2.88,19,19,0,0,0,6.54,1.39c5.51.27,11,1,16.54,1.08,4.6,0,11.28.16,19.69.76h22.1"/><path class="cls-3" d="M132.14,56.49a.56.56,0,1,1,.79-.1A.56.56,0,0,1,132.14,56.49Z"/></g><g class="cls-1"><path class="cls-2" d="M53.31,35.07A142.13,142.13,0,0,1,97,47.47a128.7,128.7,0,0,1,14.7,8c5.26,3.52,5,4.15,8.38,5.93,5.85,3.06,11.27,3.61,18.7,4.3,3.06.29,2.59.11,12.47.47,9.67.35,11.25.56,17.77.76,4,.13,9.72.24,16.77.16h16.25"/><path class="cls-3" d="M53.26,35.65a.58.58,0,0,1-.48-.65.57.57,0,0,1,1.12.17A.58.58,0,0,1,53.26,35.65Z"/></g><g class="cls-1"><path class="cls-2" d="M113.78,78.72a37.6,37.6,0,0,0,11.4.06c6.28-.93,10.75-3.27,14.85-5.46,5.39-2.87,4.84-3.49,14.62-9.69,8-5.11,10.62-6.08,13-6.7A51.89,51.89,0,0,1,178,55.62c3.94-.2,21.64-.08,24,.08"/><path class="cls-3" d="M113.74,79.27a.57.57,0,1,1,.63-.48A.56.56,0,0,1,113.74,79.27Z"/></g><g class="cls-1"><path class="cls-2" d="M42.7,61.7c12.62,0,24.48-.1,36-.3a93.18,93.18,0,0,0,25.47-3.47,53,53,0,0,0,6.54-2.31C118.9,52.07,122.1,48,128,43.55c3.32-2.55,11.4-8.63,22.47-11.32,5-1.2,9.63-1.34,18.93-1.61,6.73-.2,12.35,0,16.31.15h16.4"/><path class="cls-3" d="M42.73,62.26a.57.57,0,1,1,0-1.13.57.57,0,0,1,0,1.13Z"/></g><g class="cls-1"><path class="cls-2" d="M63.91,54.89c15.28-2.27,26.72-.44,34.37,1.67,12.93,3.57,16.91,8.45,33.92,12.5,7.72,1.85,13.73,2.47,23.39,3.47,12.6,1.3,38.84,1.61,46.47,1.63"/><path class="cls-3" d="M64,55.46a.56.56,0,0,1-.14-1.12.57.57,0,0,1,.63.49A.56.56,0,0,1,64,55.46Z"/></g><g class="cls-1"><path class="cls-2" d="M87.93,34.74c16.33-1.17,27.1,2.59,34,6.35,9.86,5.38,12.73,11.28,27.36,17.7a88.8,88.8,0,0,0,18.44,5.82,87.24,87.24,0,0,0,17.7,1.61h16.64"/><path class="cls-3" d="M88,35.32a.57.57,0,1,1,0-1.13.57.57,0,0,1,0,1.13Z"/></g><g class="cls-1"><path class="cls-2" d="M89.29,22.51a66.33,66.33,0,0,1,26.2,4.22c9.29,3.59,8.91,6.07,25.49,14.36a157,157,0,0,0,24,9.53,68.82,68.82,0,0,0,12.26,2.6c4.18.48,22.26.48,24.81.37"/><path class="cls-3" d="M89.32,23.08a.56.56,0,1,1,0-1.12.56.56,0,1,1,0,1.12Z"/></g><g class="cls-1"><path class="cls-2" d="M68.37,30.4a65.83,65.83,0,0,1,18.28,1c5.36,1.06,14.07,2.8,22.4,8.78,2.8,2,4.54,3.77,8.42,5.45a31.31,31.31,0,0,0,12.13,2.47c12.91.4,15.26,4,36.51,6.44,6.48.75,24.35,1.52,35.95,1.36"/><path class="cls-3" d="M68.43,31a.56.56,0,1,1-.06-1.12A.56.56,0,0,1,68.43,31Z"/></g><g class="cls-1"><path class="cls-2" d="M77.27,65.23a77.39,77.39,0,0,0,23.74,2c3.13-.24,3.1-.43,11.51-1.49C126,64,128.94,64.15,137.39,63c10.45-1.43,11.43-2.39,20.43-3.84,7.13-1.15,31.26-2.3,44.24-2"/><path class="cls-3" d="M77.18,65.77a.56.56,0,1,1,.67-.43A.57.57,0,0,1,77.18,65.77Z"/></g><g class="cls-1"><path class="cls-2" d="M95.47,17a70.2,70.2,0,0,1,26.58,2.52c12.9,3.88,17.57,9.61,30.07,14.36a79.68,79.68,0,0,0,32.49,4.83h17.45"/><path class="cls-3" d="M95.54,17.61a.57.57,0,1,1,.53-.6A.57.57,0,0,1,95.54,17.61Z"/></g><g class="cls-1"><path class="cls-2" d="M90.15,58.46a68.11,68.11,0,0,0,24.1-8.71c6.88-4.09,7.21-7.61,15.22-12.37A64.53,64.53,0,0,1,148.9,30c5.93-1.32,10.28-1.51,18.07-1.86,8-.35,29.81-.18,35.09.11"/><path class="cls-3" d="M90.28,59a.56.56,0,0,1-.21-1.11A.56.56,0,1,1,90.28,59Z"/></g><g class="cls-1"><path class="cls-2" d="M80,82.46c11.4,3.35,20.22,3,26.22,2.07,2.57-.4,3.41-.73,16.59-4.45s20-5.64,21.91-6.07a169.7,169.7,0,0,1,30.69-3.71c6.87-.29,22.26-.19,26.67,0"/><path class="cls-3" d="M79.87,83a.57.57,0,0,1-.4-.69.56.56,0,0,1,.69-.4A.56.56,0,0,1,79.87,83Z"/></g><g class="cls-1"><path class="cls-2" d="M40.81,85.23a184,184,0,0,0,31.61.33C85,84.61,95.68,83.7,108.05,78c5.29-2.42,4.74-3.26,14.91-9,10.67-6,16-9,22.74-11.16,7.94-2.55,15.43-3.1,30.41-4.19,5.95-.44,22.51-.63,25.95-.73"/><path class="cls-3" d="M40.8,85.78a.57.57,0,0,1-.53-.6.58.58,0,0,1,.61-.52.56.56,0,0,1,.52.6A.55.55,0,0,1,40.8,85.78Z"/></g><g class="cls-1"><path class="cls-2" d="M87.56,96c6.7,2.12,16.69,3.9,27,.41,7.42-2.5,13.65-7.26,16.08-9.12,6.09-4.65,6.25-6.44,11.73-10.14s10.24-5.23,16.79-7.33a115.3,115.3,0,0,1,22.46-4.76h20.44"/><path class="cls-3" d="M87.43,96.55a.56.56,0,1,1,.7-.38A.56.56,0,0,1,87.43,96.55Z"/></g><g class="cls-1"><path class="cls-2" d="M57.89,60.05A116.32,116.32,0,0,0,84.15,63a57.36,57.36,0,0,0,12.31-1.16c6-1.31,6.81-2.65,13.18-4.48A63.35,63.35,0,0,1,127,54.86c5.24,0,6.3.75,15.2,1.74,4.94.55,8.87.76,16.51,1.16s28.32.87,43.33,1"/><path class="cls-3" d="M57.81,60.59a.56.56,0,0,1-.45-.66.57.57,0,0,1,.66-.44.56.56,0,0,1,.45.66A.56.56,0,0,1,57.81,60.59Z"/></g><g class="cls-1"><path class="cls-2" d="M93.46,79.72a35,35,0,0,0,11.69,3.53,37.51,37.51,0,0,0,17.09-2.32c20.08-6.91,26.14-12.85,38.52-16.36,6-1.71,29.18-3.3,41.3-1.74"/><circle class="cls-3" cx="93.5" cy="79.72" r="0.56" transform="translate(-25.07 111.97) rotate(-55.67)"/></g><g class="cls-1"><path class="cls-2" d="M123.91,32.57a206.48,206.48,0,0,0,23.67,5.5c17.44,3,41.63,3.3,54.48,2.6"/><path class="cls-3" d="M123.8,33.11a.56.56,0,1,1,.69-.4A.57.57,0,0,1,123.8,33.11Z"/></g><g class="cls-1"><path class="cls-2" d="M139.66,26.14a99.79,99.79,0,0,0,24.43,8.31,117.67,117.67,0,0,0,15.35,1.88c5,.31,19.24.27,22.62.14"/><path class="cls-3" d="M139.47,26.65a.56.56,0,1,1,.46-1,.56.56,0,0,1,.28.74A.56.56,0,0,1,139.47,26.65Z"/></g><g class="cls-1"><path class="cls-2" d="M122.26,39.33C139.43,36.5,150.16,39,156.9,42A58,58,0,0,0,172,47.06c6.49,1.15,26.34.86,30.05.42"/><path class="cls-3" d="M122.36,39.9a.56.56,0,0,1-.63-.49.56.56,0,0,1,1.11-.15A.56.56,0,0,1,122.36,39.9Z"/></g><g class="cls-1"><path class="cls-2" d="M81.5,60.45c6,.3,11,.37,14.46.38,8.82,0,12.88-.35,25.25-.41,6.42,0,9.68-.05,12,.2,7.79.85,8.81,2.39,17.38,3.52a96.29,96.29,0,0,0,14.49.73c4.19-.07,5.76-.34,10.45-.62,4.12-.26,19.13-.49,26.53-.31"/><path class="cls-3" d="M81.51,61a.57.57,0,1,1,.58-.55A.57.57,0,0,1,81.51,61Z"/></g><g class="cls-1"><path class="cls-2" d="M142.16,21.57a96.84,96.84,0,0,0,27.16,10c9.07,1.85,26.53,2.12,32.74,1.86"/><path class="cls-3" d="M141.94,22.07a.57.57,0,0,1-.25-.76.56.56,0,0,1,.76-.24.56.56,0,0,1,.25.76A.58.58,0,0,1,141.94,22.07Z"/></g><g class="cls-1"><path class="cls-2" d="M119.8,38.25A43.88,43.88,0,0,0,133,43.76c4,.93,7.19,1.05,12.52,1.24,3.87.14,7.15,0,13.56-.21,5.17-.18,7.17-.33,11.07-.51,4.26-.2,24.44-.4,31.91-.42"/><path class="cls-3" d="M119.56,38.73a.56.56,0,0,1,.55-1,.56.56,0,1,1-.55,1Z"/></g><g class="cls-1"><path class="cls-2" d="M123.19,85.32c10.4,1.27,18-.34,23.06-2.14,7.56-2.67,13.47-7.08,24.31-8a46.53,46.53,0,0,1,7.45,0h24.05"/><path class="cls-3" d="M123.16,85.87a.57.57,0,0,1,.11-1.13.58.58,0,0,1,.51.62A.57.57,0,0,1,123.16,85.87Z"/></g><g class="cls-1"><path class="cls-2" d="M85,69.4a67.55,67.55,0,0,0,18.31.33,42.69,42.69,0,0,0,10.24-2.17c8.08-3,11-7.56,16.14-11.38,5.34-4,12.29-5.16,26.18-7.45,8.34-1.38,32-2.72,46.19-2.49"/><path class="cls-3" d="M85,70a.57.57,0,0,1,.15-1.12.57.57,0,0,1,.49.63A.58.58,0,0,1,85,70Z"/></g><g class="cls-1"><path class="cls-2" d="M49.83,45.32c14.12.28,26.13.13,35.48-.11,7.81-.21,13.9-.49,16.65-.62,15.2-.74,26.44-1.78,29.8-2.07,11.15-1,39.34-2.09,70.3-2.49"/><path class="cls-3" d="M49.86,45.88a.57.57,0,1,1,.57-.56A.57.57,0,0,1,49.86,45.88Z"/></g><g class="cls-1"><path class="cls-2" d="M90.8,46.51q10.23,1.18,20.79,2.22c9.64.93,17,1.53,18.62,1.65,21.91,1.72,63.7,1.28,71.85,1.14"/><path class="cls-3" d="M90.77,47.07A.56.56,0,1,1,90.89,46a.56.56,0,0,1,.5.62A.56.56,0,0,1,90.77,47.07Z"/></g><g class="cls-1"><path class="cls-2" d="M136,32.42c6,5.5,17.73,14.63,34.67,17.52a64.12,64.12,0,0,0,14.43.8h17"/><path class="cls-3" d="M135.62,32.86a.58.58,0,0,1-.05-.8.57.57,0,0,1,.8,0,.56.56,0,0,1,0,.79A.57.57,0,0,1,135.62,32.86Z"/></g><g class="cls-1"><path class="cls-2" d="M126.62,74.14C132.18,70,136.26,66.49,139,64c2.36-2.12,6.14-5.63,6.67-6.12,3-2.82,5.21-4.89,5.37-5,3.23-3,20.07-5.75,51-6.11"/><path class="cls-3" d="M127,74.56a.56.56,0,1,1,.1-.79A.56.56,0,0,1,127,74.56Z"/></g><g class="cls-1"><path class="cls-2" d="M112.67,71.25a74.9,74.9,0,0,1,16.71-11.92c15.45-8,30.75-8.92,45.15-9.74,5.69-.33,24.52-.32,27.53-.27"/><path class="cls-3" d="M113.08,71.67a.56.56,0,1,1-.74-.84.55.55,0,0,1,.79,0A.56.56,0,0,1,113.08,71.67Z"/></g><g class="cls-1"><path class="cls-2" d="M138.53,31.42a70.48,70.48,0,0,0,15.28,5.68c6.48,1.59,11.48,1.85,19.66,2.22,5.28.24,20.22.35,28.59-.09"/><path class="cls-3" d="M138.31,31.93a.57.57,0,1,1,.76-.26A.58.58,0,0,1,138.31,31.93Z"/></g><g class="cls-1"><path class="cls-2" d="M138.12,19A74,74,0,0,0,161.87,31.7c10.65,3.38,34.26,3.65,40.19,3.37V35"/><path class="cls-3" d="M137.81,19.48a.56.56,0,1,1,.79-.11A.56.56,0,0,1,137.81,19.48Z"/></g><g class="cls-1"><path class="cls-2" d="M158.63,25.85C168.4,31,174.17,31.93,177.45,32c.61,0,3.41,0,6.37,0,3.63,0,16.25-.06,18.24-.09"/><path class="cls-3" d="M158.4,26.35a.56.56,0,0,1-.25-.75.56.56,0,0,1,.76-.25.56.56,0,0,1,.25.75A.56.56,0,0,1,158.4,26.35Z"/></g><g class="cls-1"><path class="cls-2" d="M95.12,65.67c7.77-.5,14.23-1.17,18.94-1.74,5.69-.69,10.16-1.38,18.86-2.75,6.34-1,6.84-1.11,18.5-3,16.94-2.75,24.05-3.83,33.91-4,1.87,0,15.72,0,16.73,0"/><path class="cls-3" d="M95.19,66.22a.57.57,0,1,1,.52-.61A.58.58,0,0,1,95.19,66.22Z"/></g></g><g id="Layer_3" data-name="Layer 3"><g class="cls-1"><line class="cls-2" x1="175.95" y1="40.4" x2="195.57" y2="40.4"/><path class="cls-3" d="M176,41a.56.56,0,1,1,0-1.12A.56.56,0,1,1,176,41Z"/></g><g class="cls-1"><line class="cls-2" x1="166.69" y1="47.76" x2="195.57" y2="47.76"/><path class="cls-3" d="M166.72,48.33a.57.57,0,0,1-.56-.57.56.56,0,0,1,1.12,0A.57.57,0,0,1,166.72,48.33Z"/></g><g class="cls-1"><line class="cls-2" x1="167.14" y1="59.81" x2="195.57" y2="59.81"/><path class="cls-3" d="M167.17,60.37a.57.57,0,0,1-.57-.56.58.58,0,0,1,.57-.57.57.57,0,0,1,.56.57A.56.56,0,0,1,167.17,60.37Z"/></g><g class="cls-1"><line class="cls-2" x1="156.88" y1="74.87" x2="195.57" y2="74.87"/><circle class="cls-3" cx="156.91" cy="74.87" r="0.56"/></g><g class="cls-1"><path class="cls-2" d="M170.48,30.72c3.67.13,25.09.89,25.09,0"/><path class="cls-3" d="M170.5,31.28a.57.57,0,0,1-.55-.58.56.56,0,0,1,.58-.55.57.57,0,1,1,0,1.13Z"/></g><g class="cls-1"><path class="cls-2" d="M155.2,63.73c8.81.32,34,.16,40.37.4"/><path class="cls-3" d="M155.23,64.28a.56.56,0,0,1-.56-.57.57.57,0,0,1,.57-.56.58.58,0,0,1,.56.58A.56.56,0,0,1,155.23,64.28Z"/></g><g class="cls-1"><line class="cls-2" x1="175.5" y1="36.38" x2="195.57" y2="36.38"/><circle class="cls-3" cx="175.53" cy="36.38" r="0.56"/></g><g class="cls-1"><line class="cls-2" x1="174.05" y1="42.3" x2="195.57" y2="42.3"/><path class="cls-3" d="M174.08,42.86a.57.57,0,0,1,0-1.13.57.57,0,1,1,0,1.13Z"/></g><g class="cls-1"><line class="cls-2" x1="177.07" y1="33.15" x2="195.57" y2="33.15"/><path class="cls-3" d="M177.09,33.71a.56.56,0,1,1,.57-.56A.56.56,0,0,1,177.09,33.71Z"/></g><g class="cls-1"><line class="cls-2" x1="167.92" y1="49.66" x2="195.57" y2="49.66"/><circle class="cls-3" cx="167.95" cy="49.66" r="0.56"/></g><g class="cls-1"><line class="cls-2" x1="173.39" y1="68.51" x2="195.57" y2="68.51"/><path class="cls-3" d="M173.41,69.07a.56.56,0,0,1-.56-.56.57.57,0,0,1,.56-.57.58.58,0,0,1,.57.57A.57.57,0,0,1,173.41,69.07Z"/></g><g class="cls-1"><line class="cls-2" x1="175.5" y1="69.96" x2="195.57" y2="69.96"/><circle class="cls-3" cx="175.53" cy="69.96" r="0.56"/></g><g class="cls-1"><path class="cls-2" d="M177.29,45.54c3,.05,18,.29,18.28,0"/><path class="cls-3" d="M177.31,46.1a.57.57,0,0,1-.56-.57.57.57,0,0,1,.57-.56.56.56,0,0,1,.56.58A.55.55,0,0,1,177.31,46.1Z"/></g><g class="cls-1"><line class="cls-2" x1="176.4" y1="43.75" x2="195.57" y2="43.75"/><path class="cls-3" d="M176.43,44.31a.57.57,0,1,1,.56-.56A.56.56,0,0,1,176.43,44.31Z"/></g><g class="cls-1"><line class="cls-2" x1="173.83" y1="61.37" x2="195.57" y2="61.37"/><path class="cls-3" d="M173.86,61.93a.56.56,0,1,1,.56-.56A.56.56,0,0,1,173.86,61.93Z"/></g><g class="cls-1"><line class="cls-2" x1="163.23" y1="71.85" x2="195.57" y2="71.85"/><circle class="cls-3" cx="163.26" cy="71.85" r="0.56"/></g><g class="cls-1"><path class="cls-2" d="M152.05,76.37c13.82-4.5,39.73-5.38,43.52-5.63"/><path class="cls-3" d="M152.24,76.93a.56.56,0,0,1-.69-.39.56.56,0,1,1,1.08-.3A.55.55,0,0,1,152.24,76.93Z"/></g><g class="cls-1"><line class="cls-2" x1="178.65" y1="50.77" x2="195.57" y2="50.77"/><path class="cls-3" d="M178.68,51.34a.57.57,0,0,1-.56-.57.56.56,0,0,1,1.12,0A.57.57,0,0,1,178.68,51.34Z"/></g><g class="cls-1"><line class="cls-2" x1="177.29" y1="38.73" x2="195.57" y2="38.73"/><circle class="cls-3" cx="177.32" cy="38.73" r="0.56"/></g><g class="cls-1"><line class="cls-2" x1="163.79" y1="46.65" x2="195.57" y2="46.65"/><circle class="cls-3" cx="163.82" cy="46.65" r="0.56"/></g><g class="cls-1"><line class="cls-2" x1="174.28" y1="28.91" x2="195.57" y2="28.91"/><circle class="cls-3" cx="174.31" cy="28.91" r="0.56"/></g><g class="cls-1"><line class="cls-2" x1="174.05" y1="29.92" x2="195.57" y2="29.92"/><circle class="cls-3" cx="174.08" cy="29.92" r="0.56"/></g><g class="cls-1"><line class="cls-2" x1="175.5" y1="34.93" x2="195.57" y2="34.93"/><circle class="cls-3" cx="175.53" cy="34.93" r="0.56"/></g><g class="cls-1"><path class="cls-2" d="M168.7,66c6-.32,23.68-.29,26.87-.19"/><path class="cls-3" d="M168.74,66.61a.57.57,0,1,1,0-1.13.55.55,0,0,1,.57.55A.57.57,0,0,1,168.74,66.61Z"/></g><g class="cls-1"><line class="cls-2" x1="175.62" y1="72.64" x2="195.57" y2="72.64"/><path class="cls-3" d="M175.64,73.2a.57.57,0,1,1,.57-.56A.56.56,0,0,1,175.64,73.2Z"/></g><g class="cls-1"><line class="cls-2" x1="178.47" y1="45.98" x2="195.57" y2="45.98"/><circle class="cls-3" cx="178.49" cy="45.98" r="0.56"/></g><g class="cls-1"><line class="cls-2" x1="171.85" y1="41.17" x2="195.57" y2="41.17"/><path class="cls-3" d="M171.88,41.74a.57.57,0,1,1,.56-.57A.56.56,0,0,1,171.88,41.74Z"/></g><g class="cls-1"><line class="cls-2" x1="174.85" y1="37.71" x2="195.57" y2="37.71"/><path class="cls-3" d="M174.88,38.28a.57.57,0,0,1-.56-.57.56.56,0,0,1,.56-.56.57.57,0,0,1,.57.56A.58.58,0,0,1,174.88,38.28Z"/></g><g class="cls-1"><line class="cls-2" x1="179.09" y1="48.64" x2="195.57" y2="48.64"/><circle class="cls-3" cx="179.11" cy="48.64" r="0.56"/></g><g class="cls-1"><line class="cls-2" x1="175.39" y1="52.95" x2="195.57" y2="52.95"/><circle class="cls-3" cx="175.42" cy="52.95" r="0.56"/></g><g class="cls-1"><line class="cls-2" x1="178.65" y1="73.57" x2="195.57" y2="73.57"/><path class="cls-3" d="M178.68,74.13a.57.57,0,1,1,.56-.56A.56.56,0,0,1,178.68,74.13Z"/></g><g class="cls-1"><line class="cls-2" x1="173.47" y1="34.17" x2="195.57" y2="34.17"/><circle class="cls-3" cx="173.5" cy="34.17" r="0.56"/></g><g class="cls-1"><line class="cls-2" x1="177.55" y1="32.1" x2="195.57" y2="32.1"/><circle class="cls-3" cx="177.57" cy="32.1" r="0.56"/></g><g class="cls-1"><line class="cls-2" x1="178.32" y1="69.26" x2="195.57" y2="69.26"/><circle class="cls-3" cx="178.34" cy="69.26" r="0.56"/></g><g class="cls-1"><line class="cls-2" x1="172.01" y1="49.33" x2="195.57" y2="49.33"/><path class="cls-3" d="M172,49.89a.56.56,0,1,1,.57-.56A.56.56,0,0,1,172,49.89Z"/></g><g class="cls-1"><path class="cls-2" d="M179.31,43h16.26"/><circle class="cls-3" cx="179.34" cy="43.02" r="0.56"/></g><g class="cls-1"><line class="cls-2" x1="167.47" y1="58.79" x2="195.57" y2="58.79"/><path class="cls-3" d="M167.5,59.36a.57.57,0,1,1,.56-.57A.56.56,0,0,1,167.5,59.36Z"/></g><g class="cls-1"><path class="cls-2" d="M172.23,45.08c3.57,0,23.34,0,23.34,0"/><path class="cls-3" d="M172.27,45.66a.56.56,0,0,1-.57-.56.57.57,0,1,1,1.13,0A.56.56,0,0,1,172.27,45.66Z"/></g><g class="cls-1"><line class="cls-2" x1="176.24" y1="60.72" x2="195.57" y2="60.72"/><circle class="cls-3" cx="176.27" cy="60.72" r="0.56"/></g><g class="cls-1"><line class="cls-2" x1="173.47" y1="51.95" x2="195.57" y2="51.95"/><circle class="cls-3" cx="173.5" cy="51.95" r="0.56"/></g><g class="cls-1"><line class="cls-2" x1="178.32" y1="75.49" x2="195.57" y2="75.49"/><circle class="cls-3" cx="178.34" cy="75.49" r="0.56"/></g><g class="cls-1"><path class="cls-2" d="M174.14,70.75c3.6-.7,16.58-1.33,21.43-1"/><path class="cls-3" d="M174.28,71.32a.56.56,0,1,1,.45-.65A.55.55,0,0,1,174.28,71.32Z"/></g><g class="cls-1"><line class="cls-2" x1="174.01" y1="62.87" x2="195.57" y2="62.87"/><path class="cls-3" d="M174,63.44a.57.57,0,0,1-.57-.57.57.57,0,0,1,1.13,0A.57.57,0,0,1,174,63.44Z"/></g><g class="cls-1"><line class="cls-2" x1="179.85" y1="67.8" x2="195.57" y2="67.8"/><path class="cls-3" d="M179.88,68.36a.57.57,0,0,1,0-1.13.57.57,0,1,1,0,1.13Z"/></g><g class="cls-1"><path class="cls-2" d="M172.08,56.31c4.79-.18,21.2-.06,23.49.1"/><path class="cls-3" d="M172.12,56.89a.56.56,0,0,1-.57-.56.57.57,0,1,1,1.13,0A.57.57,0,0,1,172.12,56.89Z"/></g><g class="cls-1"><line class="cls-2" x1="179.7" y1="31.48" x2="195.57" y2="31.48"/><path class="cls-3" d="M179.73,32a.56.56,0,1,1,0-1.12.56.56,0,1,1,0,1.12Z"/></g><g class="cls-1"><path class="cls-2" d="M149.63,73.29c12.79,1.26,38.41,1.56,45.94,1.58"/><path class="cls-3" d="M149.62,73.84a.58.58,0,0,1-.53-.61.58.58,0,0,1,.61-.52.56.56,0,0,1,.52.6A.57.57,0,0,1,149.62,73.84Z"/></g><g class="cls-1"><line class="cls-2" x1="179.46" y1="66.92" x2="195.57" y2="66.92"/><circle class="cls-3" cx="179.49" cy="66.92" r="0.56"/></g><g class="cls-1"><path class="cls-2" d="M171.29,54c5,.43,21.82.42,24.28.32"/><path class="cls-3" d="M171.29,54.52a.57.57,0,0,1-.54-.59.58.58,0,0,1,.6-.54.57.57,0,0,1-.06,1.13Z"/></g><g class="cls-1"><path class="cls-2" d="M160.14,55.35c6.88.72,24.13,1.45,35.43,1.3"/><path class="cls-3" d="M160.13,55.9a.57.57,0,1,1,.61-.52A.58.58,0,0,1,160.13,55.9Z"/></g><g class="cls-1"><path class="cls-2" d="M151.85,59.79c7.72-1.12,31-2.22,43.72-1.9"/><path class="cls-3" d="M151.94,60.37a.56.56,0,0,1-.62-.5.57.57,0,0,1,.51-.62.56.56,0,0,1,.11,1.12Z"/></g><g class="cls-1"><line class="cls-2" x1="178.65" y1="39.45" x2="195.57" y2="39.45"/><path class="cls-3" d="M178.68,40a.57.57,0,1,1,.56-.56A.56.56,0,0,1,178.68,40Z"/></g><g class="cls-1"><path class="cls-2" d="M161,28.78c8.42-.32,29.39-.15,34.56.13"/><path class="cls-3" d="M161.05,29.36a.57.57,0,1,1,.56-.57A.57.57,0,0,1,161.05,29.36Z"/></g><g class="cls-1"><path class="cls-2" d="M169.43,71c7.1-.27,21.84-.17,26.14,0"/><path class="cls-3" d="M169.47,71.56a.55.55,0,0,1-.57-.55.55.55,0,0,1,.55-.57A.56.56,0,0,1,170,71,.57.57,0,0,1,169.47,71.56Z"/></g><g class="cls-1"><path class="cls-2" d="M170.15,54.38c6.34-.42,22.08-.6,25.42-.69"/><path class="cls-3" d="M170.2,55a.57.57,0,0,1-.58-.55.55.55,0,0,1,.54-.58.56.56,0,0,1,.58.54A.57.57,0,0,1,170.2,55Z"/></g><g class="cls-1"><line class="cls-2" x1="175.66" y1="65.77" x2="195.57" y2="65.77"/><circle class="cls-3" cx="175.69" cy="65.77" r="0.56"/></g><g class="cls-1"><path class="cls-2" d="M152.77,58.49c8.11.4,28.12.85,42.8,1"/><path class="cls-3" d="M152.79,59a.55.55,0,0,1-.55-.57.57.57,0,0,1,1.13,0A.57.57,0,0,1,152.79,59Z"/></g><g class="cls-1"><path class="cls-2" d="M154.78,65.14c6.72-1.66,29-3.12,40.79-1.6"/><path class="cls-3" d="M154.93,65.71a.56.56,0,0,1-.66-.44.56.56,0,0,1,1.1-.23A.56.56,0,0,1,154.93,65.71Z"/></g><g class="cls-1"><path class="cls-2" d="M141.62,38.86c17.39,2.89,41.23,3.21,53.95,2.52"/><path class="cls-3" d="M141.56,39.41a.56.56,0,0,1-.47-.64.55.55,0,0,1,.64-.47.56.56,0,0,1-.17,1.11Z"/></g><g class="cls-1"><path class="cls-2" d="M173.48,37.06c5.43.28,18.82.25,22.09.12"/><path class="cls-3" d="M173.5,37.61a.57.57,0,0,1,0-1.13.57.57,0,0,1,.55.58A.55.55,0,0,1,173.5,37.61Z"/></g><g class="cls-1"><path class="cls-2" d="M166.05,47.85c7,1,25.9.77,29.52.34"/><path class="cls-3" d="M166,48.4a.56.56,0,1,1,.63-.49A.58.58,0,0,1,166,48.4Z"/></g><g class="cls-1"><path class="cls-2" d="M169.57,64.92c4.75-.24,18.89-.45,26-.28"/><path class="cls-3" d="M169.61,65.5A.55.55,0,0,1,169,65a.56.56,0,0,1,.54-.58.57.57,0,0,1,.58.55A.56.56,0,0,1,169.61,65.5Z"/></g><g class="cls-1"><path class="cls-2" d="M163.35,32.36c9.21,1.76,26.12,2,32.22,1.76"/><path class="cls-3" d="M163.29,32.91a.57.57,0,1,1,.65-.47A.56.56,0,0,1,163.29,32.91Z"/></g><g class="cls-1"><path class="cls-2" d="M164.19,45c5.19-.19,24.18-.38,31.38-.39"/><path class="cls-3" d="M164.23,45.54a.57.57,0,0,1,0-1.13.57.57,0,0,1,.57.56A.55.55,0,0,1,164.23,45.54Z"/></g><g class="cls-1"><line class="cls-2" x1="172.05" y1="75.92" x2="195.57" y2="75.92"/><path class="cls-3" d="M172.08,76.48a.56.56,0,0,1,0-1.12.56.56,0,1,1,0,1.12Z"/></g><g class="cls-1"><path class="cls-2" d="M149.9,49.35c8.77-1.35,31.79-2.63,45.67-2.4"/><path class="cls-3" d="M150,49.93a.56.56,0,0,1-.62-.5.55.55,0,0,1,.49-.62.57.57,0,0,1,.63.49A.58.58,0,0,1,150,49.93Z"/></g><g class="cls-1"><path class="cls-2" d="M125.8,43.18c11.49-1,39.28-2,69.77-2.44"/><path class="cls-3" d="M125.87,43.75a.56.56,0,0,1-.6-.52.55.55,0,0,1,.52-.6.55.55,0,0,1,.6.52A.56.56,0,0,1,125.87,43.75Z"/></g><g class="cls-1"><path class="cls-2" d="M124.25,51.13c22.05,1.67,63.23,1.23,71.32,1.1"/><path class="cls-3" d="M124.25,51.68a.56.56,0,0,1-.53-.59.57.57,0,0,1,.59-.54.56.56,0,0,1,.53.59A.57.57,0,0,1,124.25,51.68Z"/></g><g class="cls-1"><line class="cls-2" x1="179.1" y1="51.45" x2="195.57" y2="51.45"/><path class="cls-3" d="M179.13,52a.57.57,0,0,1,0-1.13.57.57,0,1,1,0,1.13Z"/></g><g class="cls-1"><path class="cls-2" d="M145,53.23c4.07-2.91,20.8-5.42,50.58-5.77"/><path class="cls-3" d="M145.36,53.69a.57.57,0,1,1,.12-.79A.56.56,0,0,1,145.36,53.69Z"/></g><g class="cls-1"><path class="cls-2" d="M168.57,50.27c6.25-.3,24.08-.29,27-.24"/><path class="cls-3" d="M168.61,50.85a.57.57,0,1,1,0-1.13.55.55,0,0,1,.57.55A.57.57,0,0,1,168.61,50.85Z"/></g><g class="cls-1"><path class="cls-2" d="M167.51,40.05c5.69.22,20,.32,28.06-.11"/><path class="cls-3" d="M167.53,40.6A.58.58,0,0,1,167,40a.57.57,0,0,1,1.13,0A.57.57,0,0,1,167.53,40.6Z"/></g><g class="cls-1"><path class="cls-2" d="M155.89,32.57c10.87,3.23,33.84,3.49,39.68,3.21v-.07"/><path class="cls-3" d="M155.79,33.09a.56.56,0,0,1-.42-.68.57.57,0,0,1,.69-.41.56.56,0,0,1,.41.68A.55.55,0,0,1,155.79,33.09Z"/></g><g class="cls-1"><path class="cls-2" d="M177.86,32.67c4.19,0,15.8-.05,17.71-.08"/><circle class="cls-3" cx="177.89" cy="32.67" r="0.56" transform="translate(109.47 200.1) rotate(-78.18)"/></g><g class="cls-1"><path class="cls-2" d="M179.37,54.89c3.15,0,15.26,0,16.2,0"/><circle class="cls-3" cx="179.4" cy="54.9" r="0.56"/></g><g class="cls-1"><path class="cls-2" d="M354.28,1.66a141,141,0,0,0-23.56.48s-4.13.43-7.58,1c-8.1,1.34-19.66,5-52,24.76-6.08,3.71-11.7,7.26-20.41,9.7A79.13,79.13,0,0,1,236.36,40a133,133,0,0,1-20.64.45H195.57"/><path class="cls-3" d="M354.28,1.1a.56.56,0,0,1,.53.6.55.55,0,0,1-.59.53.56.56,0,0,1-.53-.59A.57.57,0,0,1,354.28,1.1Z"/></g><g class="cls-1"><path class="cls-2" d="M365.77,5.28a263.85,263.85,0,0,0-31,2.66c-14.76,2.19-25.06,3.72-37.48,9.37a123.39,123.39,0,0,0-17.51,9.93c-12.9,8.66-15.24,13.55-25.44,16.84A80.07,80.07,0,0,1,239.48,47a106.4,106.4,0,0,1-14.5.78H195.57"/><path class="cls-3" d="M365.71,4.73a.55.55,0,0,1,.59.53.56.56,0,0,1-.53.6.57.57,0,0,1-.59-.54A.55.55,0,0,1,365.71,4.73Z"/></g><g class="cls-1"><path class="cls-2" d="M349.48,15.19a168.71,168.71,0,0,0-30.25,2.68,164.61,164.61,0,0,0-22.64,5.8c-7.17,2.38-11.69,3.92-17.18,7.25s-5.71,4.72-13.83,11.15c-7.74,6.14-13.22,10.49-20.75,13.61a55.58,55.58,0,0,1-20.3,4.13h-29"/><path class="cls-3" d="M349.44,14.64a.57.57,0,0,1,.58.55.57.57,0,0,1-.55.58.57.57,0,0,1-.58-.55A.56.56,0,0,1,349.44,14.64Z"/></g><g class="cls-1"><path class="cls-2" d="M366.55,52c-18.64-.18-28-.29-35.83-1.89a77.43,77.43,0,0,0-13.83-1.78A72.65,72.65,0,0,0,298,50.1c-10,2.34-16.92,6.36-23.87,10.38-8.39,4.85-8.59,6.2-14.06,8.92a55.16,55.16,0,0,1-25.31,5.47H195.57"/><path class="cls-3" d="M366.53,51.43a.56.56,0,1,1,0,1.12.56.56,0,1,1,0-1.12Z"/></g><g class="cls-1"><path class="cls-2" d="M362.86,57.68c-40.43-.69-48.38-2.7-55.12-5.12-9.71-3.5-11.91-6.06-28.55-12.05-9-3.24-17.39-6.21-28.67-8.14a130.16,130.16,0,0,0-29.33-1.67s-25.62,1-25.62,0"/><path class="cls-3" d="M362.85,57.11a.56.56,0,0,1,.55.58.57.57,0,1,1-1.13,0A.56.56,0,0,1,362.85,57.11Z"/></g><g class="cls-1"><path class="cls-2" d="M356.07,31a156.4,156.4,0,0,0-33.94,5.76c-6.45,1.91-11.62,4.06-22,8.36-11.8,4.91-13.33,6.21-24,10.38-14.77,5.77-20.91,6.83-22.87,7.14-3.27.52-5.34.63-16.84,1.11-8.28.35-34.44.17-40.9.42"/><path class="cls-3" d="M356,30.4a.57.57,0,1,1-.52.61A.58.58,0,0,1,356,30.4Z"/></g><g class="cls-1"><path class="cls-2" d="M354.84,79.64a265.68,265.68,0,0,1-33.27-3.44c-18.95-3.19-27-6.74-32.68-10.15-4.3-2.58-9-6-9-6-8.4-6.11-10.21-9-15.28-12.38-5.36-3.62-9.86-4.88-18-7.14a114.16,114.16,0,0,0-30.45-4.13h-20.6"/><path class="cls-3" d="M354.85,79.06a.56.56,0,0,1,.52.6.57.57,0,0,1-.6.53.55.55,0,0,1-.52-.6A.56.56,0,0,1,354.85,79.06Z"/></g><g class="cls-1"><path class="cls-2" d="M351.6,75.21c-15.73.38-23.7.54-33.37-1.68a131.68,131.68,0,0,1-29.34-11.05c-3.11-1.68-6-3.43-11.37-6a141.26,141.26,0,0,0-17.63-7.14,144.37,144.37,0,0,0-31.56-6.24c-4.39-.45-8.07-.67-10.71-.78H195.57"/><path class="cls-3" d="M351.56,74.65a.57.57,0,0,1,.58.55.58.58,0,0,1-.56.58.57.57,0,0,1-.57-.56A.55.55,0,0,1,351.56,74.65Z"/></g><g class="cls-1"><path class="cls-2" d="M366.89,90.45A253.14,253.14,0,0,1,326,93.16c-19.35-.31-27-2.72-31.24-4.35a73.19,73.19,0,0,1-20.41-12c-3.77-3.15-6.92-6.75-13.05-13.83-13.83-16-11.81-16.25-16.95-20-10.9-7.88-23.75-9.34-26.44-9.6-1.4-.13-2.56-.19-3.34-.22h-19"/><path class="cls-3" d="M366.79,89.88a.56.56,0,1,1-.49.63A.56.56,0,0,1,366.79,89.88Z"/></g><g class="cls-1"><path class="cls-2" d="M379,101.31c-9.13.15-51.82.79-70.29-.34a58,58,0,0,1-8.48-1.12,59.31,59.31,0,0,1-23.54-10.71c-2.47-1.89-8.6-8.92-20.85-23a54.2,54.2,0,0,0-8.37-8.26c-8.08-6.22-15.24-7.55-16.73-7.81a33.68,33.68,0,0,0-7-.44H195.57"/><path class="cls-3" d="M379,100.74a.57.57,0,0,1,.57.56.57.57,0,0,1-1.13,0A.56.56,0,0,1,379,100.74Z"/></g><g class="cls-1"><path class="cls-2" d="M383,24.55c-10.4-.17-33.13-.17-55.58,3-10.36,1.48-18.69,3.35-27.66,6.81a92.75,92.75,0,0,0-13.49,6.24C266,52.16,263.58,65,248.51,67.73a94,94,0,0,1-10.15.78,196.78,196.78,0,0,1-20.07,0H195.57"/><path class="cls-3" d="M382.92,24a.57.57,0,0,1,.56.57.57.57,0,0,1-.57.56.56.56,0,0,1-.56-.57A.57.57,0,0,1,382.92,24Z"/></g><g class="cls-1"><path class="cls-2" d="M362.87,61A310.93,310.93,0,0,0,313.65,60c-17.68,1.07-27.08,1.66-39.93,5-9.38,2.46-14.37,4.77-24.42,5.35-5.25.31-11.85.15-22.42-.11-4.47-.11-8.17-.23-10.71-.33h-20.6"/><path class="cls-3" d="M362.89,60.43a.55.55,0,0,1,.51.6.56.56,0,1,1-.51-.6Z"/></g><g class="cls-1"><path class="cls-2" d="M379.93,45c-17.55-.32-31.73-.35-41.51-.32-12.85,0-16.79.19-23.65-.67-20.56-2.57-20.38-8.29-34-9.26-18.34-1.31-23,8.72-50.75,10.71a120.92,120.92,0,0,1-15.62.11s-18.48.34-18.81,0"/><path class="cls-3" d="M379.91,44.41a.56.56,0,1,1-.57.55A.55.55,0,0,1,379.91,44.41Z"/></g><g class="cls-1"><path class="cls-2" d="M302,1.25C271.47,8,258.58,16.76,252.64,24a71.17,71.17,0,0,1-8.92,9c-5.14,4.38-12.51,10.5-22.53,11a26.78,26.78,0,0,1-5.91-.33H195.57"/><path class="cls-3" d="M301.82.72a.57.57,0,0,1,.27,1.1.57.57,0,0,1-.69-.42A.58.58,0,0,1,301.82.72Z"/></g><g class="cls-1"><path class="cls-2" d="M337.37,95.48a59.05,59.05,0,0,1-22.6,4.59c-4.48,0-16.81-.08-28.55-7.25-5.49-3.34-5.14-4.75-12.5-9.14s-8.64-3.59-17-8.14-8-5.86-16.29-9.93c-6.17-3-10.18-4.22-14.39-4.58a33.14,33.14,0,0,0-8.25.34H195.57"/><path class="cls-3" d="M337.13,95a.57.57,0,1,1,.4,1.06.57.57,0,0,1-.4-1.06Z"/></g><g class="cls-1"><path class="cls-2" d="M299.74,101.6c-12.75,1.84-20.65-.84-25.57-3.76-1.42-.84-.51-.46-12.27-9.7a129.27,129.27,0,0,0-15.39-10.93,35.19,35.19,0,0,0-11.71-4.8,31.52,31.52,0,0,0-6.36-.56H195.57"/><circle class="cls-3" cx="299.71" cy="101.59" r="0.56" transform="translate(33.73 273.06) rotate(-51.53)"/></g><g class="cls-1"><path class="cls-2" d="M277.09,93.67c-9.73,1.14-14.86-1.24-17.76-3.63-2.64-2.2-3.22-4.25-6.47-7.14-1-.89-3.76-3.13-13.27-6.36-13.68-4.65-40.18-5.55-44-5.8"/><path class="cls-3" d="M277,93.09a.57.57,0,1,1-.52.61A.57.57,0,0,1,277,93.09Z"/></g><g class="cls-1"><path class="cls-2" d="M294.61,92.91c-6.82-.36-16.41-2-24.9-8.34C261,78,263.1,73.7,252.86,65.05a62.19,62.19,0,0,0-31.45-13.83,57.34,57.34,0,0,0-8.39-.45H195.57"/><path class="cls-3" d="M294.63,92.32a.57.57,0,1,1-.61.51A.56.56,0,0,1,294.63,92.32Z"/></g><g class="cls-1"><path class="cls-2" d="M332.53,7.38a108.12,108.12,0,0,0-26.79,3.24c-9.94,2.51-21.15,7.69-43.17,18-11.26,5.24-13.76,6.63-19.41,8.14a78,78,0,0,1-28.78,2H195.57"/><path class="cls-3" d="M332.48,6.84a.56.56,0,0,1,.58.54.55.55,0,0,1-.54.58.55.55,0,0,1-.58-.54A.56.56,0,0,1,332.48,6.84Z"/></g><g class="cls-1"><path class="cls-2" d="M346.71,81.92a84.48,84.48,0,0,1-23.35,3,68.53,68.53,0,0,1-22.87-3.56,67.86,67.86,0,0,1-18.85-10.27c-7.06-5.28-5.85-6.29-12-10.93-10.27-7.69-20.72-10.23-26.1-11.49a77.91,77.91,0,0,0-15.62-2H195.57"/><path class="cls-3" d="M346.55,81.36a.57.57,0,1,1-.42.68A.57.57,0,0,1,346.55,81.36Z"/></g><g class="cls-1"><path class="cls-2" d="M300.63,29.41c-5,.54-11.36,1.06-18.76,1.29A218.49,218.49,0,0,1,250,29.8c-7.41-.8-11.56-1.69-19.74-1.67a112.34,112.34,0,0,0-12.83.78H195.57"/><path class="cls-3" d="M300.55,28.85a.56.56,0,1,1-.51.61A.56.56,0,0,1,300.55,28.85Z"/></g><g class="cls-1"><path class="cls-2" d="M256.71,13.55A61.58,61.58,0,0,1,238,25.45a61.68,61.68,0,0,1-20.41,4.47H195.57"/><path class="cls-3" d="M256.31,13.13a.57.57,0,0,1,.79,0,.56.56,0,1,1-.79,0Z"/></g><g class="cls-1"><path class="cls-2" d="M271.07,20.5c-5.47-.38-12.5.21-17.42,5.18-.61.61-.57.67-1.23,1.33-2.74,2.77-7.08,5.44-20.08,7a122.8,122.8,0,0,1-16.17.89h-20.6"/><path class="cls-3" d="M271.07,20a.57.57,0,0,1-.06,1.13.57.57,0,0,1-.53-.6A.56.56,0,0,1,271.07,20Z"/></g><g class="cls-1"><path class="cls-2" d="M310.12,87.67a60.32,60.32,0,0,1-28.81-2.1c-10.57-3.57-10-7-23.2-12.27C243.61,67.52,230,66.52,223,66.05c-5.35-.35-24.11-.33-27.4-.22"/><path class="cls-3" d="M310,87.09a.56.56,0,1,1-.49.63A.58.58,0,0,1,310,87.09Z"/></g><g class="cls-1"><path class="cls-2" d="M277.43,97.58c-12.54-1-20-5-24.57-8.66-3.82-3-3.47-4.1-7.91-7.25-9.1-6.44-18.91-8-22.54-8.48a56.62,56.62,0,0,0-6.35-.55H195.57"/><path class="cls-3" d="M277.46,97a.56.56,0,0,1,.5.62.56.56,0,0,1-.62.5.56.56,0,1,1,.12-1.12Z"/></g><g class="cls-1"><path class="cls-2" d="M348.83,64.73a100.82,100.82,0,0,1-24.91,2.66,85.12,85.12,0,0,1-26-4,60.75,60.75,0,0,1-13.72-5.91c-2.54-1.54-4.41-3-10-6.36-4.35-2.63-5.93-3.41-7.92-4a25.13,25.13,0,0,0-9.15-.89A205,205,0,0,1,235.46,46H195.57"/><path class="cls-3" d="M348.68,64.16a.57.57,0,1,1-.44.67A.57.57,0,0,1,348.68,64.16Z"/></g><g class="cls-1"><path class="cls-2" d="M325.31,12.29c-16.13-.78-27.49,2.4-34.94,5.49-5.76,2.4-8.37,4.41-23.92,11.62-8.94,4.15-13.41,6.22-17.7,7.62a87.15,87.15,0,0,1-28.93,4.15H195.57"/><path class="cls-3" d="M325.29,11.74a.57.57,0,0,1,.55.58.56.56,0,1,1-1.12,0A.56.56,0,0,1,325.29,11.74Z"/></g><g class="cls-1"><path class="cls-2" d="M282.7,10.6a75.29,75.29,0,0,0-21.33,8.8c-10.94,6.68-14,12.6-23.7,16.31a41.31,41.31,0,0,1-20.85,2H195.57"/><path class="cls-3" d="M282.52,10.09a.56.56,0,1,1,.31,1.08.56.56,0,0,1-.7-.38A.57.57,0,0,1,282.52,10.09Z"/></g><g class="cls-1"><path class="cls-2" d="M363.08,71.8c-12.3,0-22.67,0-30.7,0-4.06,0-8.66,0-14.85-.31C311,71.21,306.06,71,300,70.18c-11.12-1.48-16.68-2.22-21.16-4.92C271.31,60.71,271.72,56.08,263,52A41,41,0,0,0,252.29,49c-6.52-1.17-11.22-.8-16.47-.54-5.54.27-13.41.49-23.23.23h-17"/><circle class="cls-3" cx="363.06" cy="71.8" r="0.56"/></g><g class="cls-1"><path class="cls-2" d="M320,35.7a104.72,104.72,0,0,0-18.24,3.78c-6.36,1.93-8.52,3.27-20.39,7.08a111.15,111.15,0,0,1-11.92,3.31,118.17,118.17,0,0,1-11.78,1.77c-3.68.38-7,.6-15.08.84-13.69.42-26.31.47-26.31.47H195.57"/><path class="cls-3" d="M319.9,35.15a.57.57,0,1,1-.48.64A.56.56,0,0,1,319.9,35.15Z"/></g><g class="cls-1"><path class="cls-2" d="M397.1,42.13a229.17,229.17,0,0,0-50.64,1c-16.4,2.18-29.83,3.95-46.16,11.08C287.17,60,283.41,64.28,269.22,68c-9.09,2.4-17,3.14-27.78,4.15-11.61,1.09-21.37,1.36-28.42,1.39H195.57"/><path class="cls-3" d="M397.1,41.57a.57.57,0,0,1,.53.6.56.56,0,0,1-.6.53.57.57,0,0,1,.07-1.13Z"/></g><g class="cls-1"><path class="cls-2" d="M278.54,5.74c-14.19,3-21.49,8.54-25.56,13.2-1.93,2.21-4.11,5.35-8.69,8.46a39.73,39.73,0,0,1-14.47,5.85,45.33,45.33,0,0,1-11.62.92H195.57"/><path class="cls-3" d="M278.38,5.21a.57.57,0,0,1,.68.42.56.56,0,0,1-.41.68.57.57,0,0,1-.27-1.1Z"/></g><g class="cls-1"><path class="cls-2" d="M252.76,13.57c-12.44,2.21-17.7,6.49-20.17,10.14a19.11,19.11,0,0,1-2.23,3c-4.48,4.71-11.21,5.48-16.23,5.39H195.57"/><path class="cls-3" d="M252.62,13a.56.56,0,0,1,.67.44.57.57,0,1,1-.67-.44Z"/></g><g class="cls-1"><path class="cls-2" d="M296.86,81.87a18.58,18.58,0,0,1-11.18-.15c-4.24-1.53-5.48-4.11-10.31-6.77-2-1.1-4.7-2.27-11.93-3.54-9.65-1.7-17.41-1.82-26.54-1.92-11-.13-19.38-.2-23.54-.23H195.57"/><path class="cls-3" d="M296.7,81.3a.58.58,0,0,1,.68.42.57.57,0,1,1-.68-.42Z"/></g><g class="cls-1"><path class="cls-2" d="M329.24,80.83A92.57,92.57,0,0,1,310.3,80a79.1,79.1,0,0,1-20.54-5.54c-7-3-12.38-6.63-22.55-13.46-5-3.4-5.06-3.65-7.23-4.85-7.14-4-13.59-4.72-22-5.77a133.41,133.41,0,0,0-18.31-1h-24.1"/><path class="cls-3" d="M329.18,80.26a.57.57,0,0,1,.59.54.57.57,0,1,1-.59-.54Z"/></g><g class="cls-1"><path class="cls-2" d="M325.62,20.55a91.43,91.43,0,0,0-32.48,1.08,88.83,88.83,0,0,0-22.39,7.85c-9.1,4.68-10.38,7.47-18.31,10.08-4.86,1.6-9.75,2-19.31,2.69-7.66.57-14.63.77-20.77.77H195.57"/><path class="cls-3" d="M325.66,20a.56.56,0,0,1-.14,1.12.55.55,0,0,1-.49-.62A.58.58,0,0,1,325.66,20Z"/></g><g class="cls-1"><path class="cls-2" d="M300,31.91A98,98,0,0,0,276.6,37a126.11,126.11,0,0,0-18.77,8.54c-10.36,5.79-13.9,9.7-22.7,11.93a43.53,43.53,0,0,1-10.92,1.3H195.57"/><path class="cls-3" d="M299.91,31.37a.56.56,0,0,1,.62.49.58.58,0,0,1-.5.63.56.56,0,0,1-.62-.5A.56.56,0,0,1,299.91,31.37Z"/></g><g class="cls-1"><path class="cls-2" d="M263.84,13.08a58.52,58.52,0,0,0-15.55,14.55c-2.72,3.74-2.81,4.89-5.54,7.7a33.05,33.05,0,0,1-17.54,9.31,23.07,23.07,0,0,1-5.78.46c-.69-.08-23.86,0-23.86,0"/><path class="cls-3" d="M263.51,12.64a.56.56,0,1,1-.15.78A.55.55,0,0,1,263.51,12.64Z"/></g><g class="cls-1"><path class="cls-2" d="M286.7,76.69A29.1,29.1,0,0,1,269.75,76a39.58,39.58,0,0,1-5-2.54c-13.33-7.38-16.38-11.17-23.93-12.39-.67-.11-2.4-.17-5.84-.31-8.3-.31-15-.22-19.55-.07H195.57"/><path class="cls-3" d="M286.56,76.12a.57.57,0,0,1,.22,1.11.57.57,0,1,1-.22-1.11Z"/></g><g class="cls-1"><path class="cls-2" d="M303.69,75.19a36.14,36.14,0,0,1-17.09-3.78c-3.17-1.63-4.38-2.94-7.77-4.69-6.09-3.15-9.25-2-16.08-4.16a51.8,51.8,0,0,1-10.62-5c-6-3.22-16-6.4-33.93-5.61H195.57"/><path class="cls-3" d="M303.67,74.61a.55.55,0,0,1,.55.57.56.56,0,1,1-1.12,0A.55.55,0,0,1,303.67,74.61Z"/></g><g class="cls-1"><path class="cls-2" d="M328.23,89.55a130.33,130.33,0,0,1-25.16.4,107.44,107.44,0,0,1-21.78-3.61c-9.09-2.55-13.63-3.83-18.15-6.23a34.64,34.64,0,0,0-12.78-4.47,30.6,30.6,0,0,0-4.38-.23c-6.28.08-17.5.09-32.62.08H195.57"/><path class="cls-3" d="M328.16,89a.56.56,0,0,1,.61.51.57.57,0,0,1-.52.61.56.56,0,0,1-.61-.51A.58.58,0,0,1,328.16,89Z"/></g><g class="cls-1"><path class="cls-2" d="M269.08,86.93a243.79,243.79,0,0,1-28.87-7,106.34,106.34,0,0,1-10.7-3.77c-6-2.56-7.68-4.07-12-5.31-2.6-.74-16.82-1.47-21.94-1.07"/><path class="cls-3" d="M269.16,86.36a.57.57,0,1,1-.67.44A.58.58,0,0,1,269.16,86.36Z"/></g><g class="cls-1"><path class="cls-2" d="M265.19,56.76a18.51,18.51,0,0,1-4.75,2.88A19,19,0,0,1,253.9,61c-5.51.27-11,1-16.54,1.07-4.6,0-11.28.17-19.69.77h-22.1"/><path class="cls-3" d="M264.81,56.3a.56.56,0,1,1-.11.79A.56.56,0,0,1,264.81,56.3Z"/></g><g class="cls-1"><path class="cls-2" d="M344.32,35.77a142.46,142.46,0,0,0-43.71,12.41,128.7,128.7,0,0,0-14.7,8c-5.26,3.52-5,4.15-8.39,5.92-5.84,3.06-11.26,3.62-18.69,4.31-3.06.29-2.59.1-12.47.46-9.67.35-11.25.57-17.77.77-4,.12-9.72.24-16.77.16H195.57"/><path class="cls-3" d="M344.21,35.24a.56.56,0,1,1-.48.64A.56.56,0,0,1,344.21,35.24Z"/></g><g class="cls-1"><path class="cls-2" d="M283.85,79.42a37.22,37.22,0,0,1-11.4.07c-6.28-.94-10.75-3.27-14.85-5.46-5.39-2.88-4.84-3.5-14.62-9.7-8-5.1-10.62-6.07-13-6.69a51.17,51.17,0,0,0-10.39-1.31c-3.94-.21-21.64-.09-24,.08"/><path class="cls-3" d="M283.73,78.86a.56.56,0,0,1,.64.48.56.56,0,0,1-1.11.16A.56.56,0,0,1,283.73,78.86Z"/></g><g class="cls-1"><path class="cls-2" d="M354.93,62.41c-12.62,0-24.48-.1-36-.31a92.7,92.7,0,0,1-25.47-3.46,54.88,54.88,0,0,1-6.54-2.31c-8.18-3.55-11.38-7.58-17.23-12.08-3.32-2.55-11.4-8.63-22.47-11.31-5-1.21-9.63-1.34-18.93-1.61-6.73-.2-12.35,0-16.31.15h-16.4"/><path class="cls-3" d="M354.91,61.84a.57.57,0,0,1,.56.57.57.57,0,0,1-.57.56.57.57,0,1,1,0-1.13Z"/></g><g class="cls-1"><path class="cls-2" d="M333.72,55.6c-15.28-2.27-26.72-.44-34.37,1.67-12.93,3.56-16.91,8.44-33.92,12.5-7.72,1.84-13.73,2.46-23.39,3.46-12.6,1.31-38.84,1.62-46.47,1.64"/><path class="cls-3" d="M333.76,55.05a.56.56,0,1,1-.63.49A.56.56,0,0,1,333.76,55.05Z"/></g><g class="cls-1"><path class="cls-2" d="M309.7,35.44c-16.34-1.16-27.1,2.6-34,6.36-9.86,5.38-12.73,11.28-27.36,17.7a88.59,88.59,0,0,1-18.44,5.81,85.82,85.82,0,0,1-17.7,1.61H195.57"/><circle class="cls-3" cx="309.68" cy="35.46" r="0.56" transform="translate(-0.01 70.8) rotate(-13.04)"/></g><g class="cls-1"><path class="cls-2" d="M308.34,23.21a66.48,66.48,0,0,0-26.2,4.23c-9.29,3.59-8.91,6.06-25.49,14.36a159.29,159.29,0,0,1-24,9.53,69.71,69.71,0,0,1-12.26,2.6c-4.18.48-22.26.47-24.81.37"/><path class="cls-3" d="M308.32,22.66a.57.57,0,0,1,0,1.13.57.57,0,1,1,0-1.13Z"/></g><g class="cls-1"><path class="cls-2" d="M329.26,31.11a66.28,66.28,0,0,0-18.28,1c-5.36,1.07-14.07,2.81-22.4,8.79-2.8,2-4.54,3.77-8.42,5.45A31.51,31.51,0,0,1,268,48.85c-12.91.4-15.26,4-36.51,6.44-6.48.74-24.35,1.52-36,1.36"/><path class="cls-3" d="M329.26,30.56a.57.57,0,1,1-.59.54A.57.57,0,0,1,329.26,30.56Z"/></g><g class="cls-1"><path class="cls-2" d="M320.36,65.93a77.08,77.08,0,0,1-23.74,2c-3.13-.23-3.1-.42-11.51-1.48-13.43-1.7-16.42-1.57-24.87-2.73-10.45-1.43-11.43-2.39-20.43-3.83-7.13-1.15-31.26-2.31-44.24-2"/><path class="cls-3" d="M320.21,65.37a.57.57,0,1,1-.43.67A.56.56,0,0,1,320.21,65.37Z"/></g><g class="cls-1"><path class="cls-2" d="M302.16,17.74a70,70,0,0,0-26.58,2.52c-12.9,3.88-17.57,9.61-30.07,14.36A79.68,79.68,0,0,1,213,39.45H195.57"/><path class="cls-3" d="M302.16,17.19a.56.56,0,1,1-.6.53A.56.56,0,0,1,302.16,17.19Z"/></g><g class="cls-1"><path class="cls-2" d="M307.48,59.17a68.31,68.31,0,0,1-24.1-8.71c-6.88-4.1-7.21-7.62-15.22-12.38a64.43,64.43,0,0,0-19.43-7.42c-5.93-1.33-10.28-1.52-18.07-1.86-8-.35-29.81-.18-35.09.11"/><path class="cls-3" d="M307.56,58.59a.56.56,0,0,1,.45.66.56.56,0,1,1-.45-.66Z"/></g><g class="cls-1"><path class="cls-2" d="M317.65,83.17c-11.4,3.34-20.22,3-26.22,2.07-2.57-.41-3.41-.74-16.59-4.46s-20-5.63-21.91-6.06A169.7,169.7,0,0,0,222.24,71c-6.87-.3-22.26-.19-26.67,0"/><path class="cls-3" d="M317.47,82.61a.56.56,0,0,1,.29,1.09.56.56,0,0,1-.69-.39A.58.58,0,0,1,317.47,82.61Z"/></g><g class="cls-1"><path class="cls-2" d="M356.82,85.94a184,184,0,0,1-31.61.33c-12.59-1-23.26-1.87-35.63-7.53-5.29-2.43-4.74-3.26-14.91-9-10.67-6-16-9-22.74-11.15-7.94-2.55-15.43-3.1-30.41-4.2-6-.43-22.51-.63-26-.72"/><path class="cls-3" d="M356.75,85.37a.56.56,0,1,1,.08,1.12.56.56,0,0,1-.08-1.12Z"/></g><g class="cls-1"><path class="cls-2" d="M310.07,96.72c-6.7,2.12-16.69,3.89-27,.41-7.42-2.5-13.65-7.27-16.08-9.12-6.09-4.66-6.25-6.44-11.73-10.14S245,72.64,238.47,70.54A115.94,115.94,0,0,0,216,65.77H195.57"/><path class="cls-3" d="M309.88,96.17a.56.56,0,1,1-.38.71A.57.57,0,0,1,309.88,96.17Z"/></g><g class="cls-1"><path class="cls-2" d="M339.74,60.76a116.32,116.32,0,0,1-26.26,2.92,57.36,57.36,0,0,1-12.31-1.16c-6-1.32-6.81-2.66-13.18-4.49a63.44,63.44,0,0,0-17.38-2.46c-5.24,0-6.3.74-15.2,1.74-4.94.55-8.87.76-16.51,1.16s-28.32.87-43.33,1"/><path class="cls-3" d="M339.61,60.19a.56.56,0,1,1-.45.66A.57.57,0,0,1,339.61,60.19Z"/></g><g class="cls-1"><path class="cls-2" d="M304.17,80.43A35,35,0,0,1,292.48,84a37.53,37.53,0,0,1-17.09-2.31c-20.08-6.92-26.14-12.85-38.52-16.37-6-1.71-29.18-3.29-41.3-1.73"/><path class="cls-3" d="M303.89,79.92a.57.57,0,0,1,.75.27.56.56,0,1,1-.75-.27Z"/></g><g class="cls-1"><path class="cls-2" d="M273.72,33.28a204.47,204.47,0,0,1-23.67,5.49c-17.44,3-41.63,3.31-54.48,2.61"/><path class="cls-3" d="M273.54,32.73a.56.56,0,0,1,.69.39.58.58,0,0,1-.4.7.56.56,0,1,1-.29-1.09Z"/></g><g class="cls-1"><path class="cls-2" d="M258,26.84a98.94,98.94,0,0,1-24.43,8.31A114.18,114.18,0,0,1,218.19,37c-5,.31-19.24.28-22.62.15"/><path class="cls-3" d="M257.7,26.32a.57.57,0,0,1,.75.29.55.55,0,0,1-.29.74.56.56,0,0,1-.74-.28A.57.57,0,0,1,257.7,26.32Z"/></g><g class="cls-1"><path class="cls-2" d="M275.37,40c-17.17-2.83-27.9-.33-34.64,2.68a58.4,58.4,0,0,1-15.12,5.06c-6.48,1.15-26.33.86-30,.42"/><path class="cls-3" d="M275.42,39.49a.56.56,0,1,1-.63.48A.55.55,0,0,1,275.42,39.49Z"/></g><g class="cls-1"><path class="cls-2" d="M316.13,61.15c-6.05.31-11,.38-14.46.39-8.82,0-12.88-.35-25.25-.42-6.42,0-9.68,0-12,.21-7.79.85-8.81,2.39-17.38,3.52a94.63,94.63,0,0,1-14.49.72c-4.19-.06-5.76-.33-10.45-.62-4.12-.25-19.13-.49-26.53-.31"/><path class="cls-3" d="M316.09,60.58a.56.56,0,1,1-.55.58A.56.56,0,0,1,316.09,60.58Z"/></g><g class="cls-1"><path class="cls-2" d="M255.47,22.27a96.81,96.81,0,0,1-27.16,10c-9.07,1.85-26.53,2.12-32.74,1.86"/><path class="cls-3" d="M255.17,21.77a.57.57,0,0,1,.76.24.56.56,0,1,1-1,.52A.58.58,0,0,1,255.17,21.77Z"/></g><g class="cls-1"><path class="cls-2" d="M277.83,39a44.15,44.15,0,0,1-13.2,5.51c-4,.93-7.19,1-12.52,1.24-3.87.14-7.15,0-13.56-.21-5.17-.19-7.17-.34-11.07-.52-4.26-.19-24.44-.4-31.91-.41"/><path class="cls-3" d="M277.52,38.46a.56.56,0,1,1-.22.77A.56.56,0,0,1,277.52,38.46Z"/></g><g class="cls-1"><path class="cls-2" d="M274.44,86c-10.4,1.27-18-.34-23.06-2.13-7.56-2.67-13.47-7.08-24.31-8a45.37,45.37,0,0,0-7.45,0H195.57"/><path class="cls-3" d="M274.36,85.45A.56.56,0,0,1,275,86a.56.56,0,0,1-1.12.11A.57.57,0,0,1,274.36,85.45Z"/></g><g class="cls-1"><path class="cls-2" d="M312.63,70.11a68,68,0,0,1-18.31.33,42.75,42.75,0,0,1-10.24-2.18c-8.08-2.94-11-7.55-16.14-11.38-5.34-4-12.29-5.15-26.18-7.45-8.34-1.38-32-2.71-46.19-2.48"/><path class="cls-3" d="M312.52,69.54a.56.56,0,0,1,.63.48.57.57,0,0,1-.48.64.58.58,0,0,1-.64-.49A.56.56,0,0,1,312.52,69.54Z"/></g><g class="cls-1"><path class="cls-2" d="M347.8,46c-14.12.27-26.13.13-35.48-.11-7.81-.21-13.9-.49-16.65-.63-15.2-.74-26.44-1.77-29.8-2.06-11.15-1-39.34-2.09-70.3-2.49"/><path class="cls-3" d="M347.76,45.46a.57.57,0,0,1,.57.56.57.57,0,1,1-1.13,0A.57.57,0,0,1,347.76,45.46Z"/></g><g class="cls-1"><path class="cls-2" d="M306.83,47.22Q296.6,48.41,286,49.43c-9.64.94-17,1.53-18.62,1.66-21.91,1.71-63.7,1.27-71.85,1.14"/><path class="cls-3" d="M306.74,46.66a.56.56,0,0,1,.62.5.57.57,0,0,1-.5.62.56.56,0,0,1-.62-.5A.56.56,0,0,1,306.74,46.66Z"/></g><g class="cls-1"><path class="cls-2" d="M261.67,33.13c-6,5.5-17.73,14.63-34.67,17.52a64.14,64.14,0,0,1-14.43.8h-17"/><path class="cls-3" d="M261.26,32.72a.55.55,0,0,1,.79.05.56.56,0,0,1,0,.79.57.57,0,0,1-.8,0A.58.58,0,0,1,261.26,32.72Z"/></g><g class="cls-1"><path class="cls-2" d="M271,74.85c-5.56-4.18-9.64-7.65-12.41-10.13-2.36-2.11-6.14-5.62-6.67-6.11-3-2.83-5.21-4.89-5.37-5-3.23-3-20.08-5.75-51-6.11"/><path class="cls-3" d="M271.34,74.38a.56.56,0,1,1-.79.1A.56.56,0,0,1,271.34,74.38Z"/></g><g class="cls-1"><path class="cls-2" d="M285,72A75,75,0,0,0,268.25,60c-15.45-8-30.75-8.91-45.15-9.74C217.41,50,198.58,50,195.57,50"/><path class="cls-3" d="M285.29,71.53a.56.56,0,1,1-.74.85.56.56,0,0,1,.74-.85Z"/></g><g class="cls-1"><path class="cls-2" d="M259.1,32.12a71,71,0,0,1-15.28,5.69c-6.48,1.59-11.48,1.84-19.66,2.21-5.28.24-20.22.36-28.59-.08"/><path class="cls-3" d="M258.82,31.62a.57.57,0,0,1,.76.26.57.57,0,0,1-1,.5A.58.58,0,0,1,258.82,31.62Z"/></g><g class="cls-1"><path class="cls-2" d="M259.51,19.73a73.78,73.78,0,0,1-23.75,12.68c-10.65,3.38-34.26,3.65-40.19,3.37v-.07"/><path class="cls-3" d="M259.14,19.29a.56.56,0,0,1,.68.9.58.58,0,0,1-.79-.11A.56.56,0,0,1,259.14,19.29Z"/></g><g class="cls-1"><path class="cls-2" d="M239,26.55c-9.77,5.13-15.54,6.09-18.82,6.13h-6.37c-3.63,0-16.25-.06-18.24-.09"/><path class="cls-3" d="M238.72,26.05a.57.57,0,1,1-.25.76A.56.56,0,0,1,238.72,26.05Z"/></g><g class="cls-1"><path class="cls-2" d="M302.51,66.37c-7.77-.49-14.23-1.17-18.94-1.73-5.69-.69-10.16-1.39-18.86-2.75-6.34-1-6.84-1.11-18.5-3-16.94-2.76-24.05-3.84-33.91-4-1.88,0-15.72,0-16.73,0"/><path class="cls-3" d="M302.53,65.8a.56.56,0,0,1,.51.61.55.55,0,0,1-.6.51.55.55,0,0,1-.52-.6A.56.56,0,0,1,302.53,65.8Z"/></g></g></g></svg>