<svg width="32" height="32" viewBox="0 0 32 32" fill="none" xmlns="http://www.w3.org/2000/svg">
<path fill-rule="evenodd" clip-rule="evenodd" d="M8.86715 8C7.53692 8 6.66663 8.87319 6.66663 10.0204C6.66663 11.1433 7.51169 12.0417 8.81611 12.0417H8.84134C10.1977 12.0417 11.041 11.1433 11.041 10.0204C11.0152 8.87319 10.1977 8 8.86715 8ZM24.8056 18.6262V25.3333H20.9169V19.0757C20.9169 17.5045 20.3555 16.4315 18.9475 16.4315C17.8731 16.4315 17.2348 17.1539 16.9529 17.8533C16.8506 18.1033 16.8242 18.4505 16.8242 18.8011V25.333H12.9353C12.9353 25.333 12.9875 14.7347 12.9353 13.6376H16.8245V15.295C16.8208 15.3011 16.8164 15.3071 16.8121 15.3131C16.8072 15.3199 16.8023 15.3266 16.7986 15.3332H16.8245V15.295C17.3412 14.4998 18.2629 13.363 20.3291 13.363C22.8875 13.363 24.8056 15.0345 24.8056 18.6262ZM10.7852 25.3333H6.89775V13.6376H10.7852V25.3333Z" fill="#C2D1D9"/>
<mask id="mask0" style="mask-type:alpha" maskUnits="userSpaceOnUse" x="6" y="8" width="19" height="18">
<path fill-rule="evenodd" clip-rule="evenodd" d="M8.86715 8C7.53692 8 6.66663 8.87319 6.66663 10.0204C6.66663 11.1433 7.51169 12.0417 8.81611 12.0417H8.84134C10.1977 12.0417 11.041 11.1433 11.041 10.0204C11.0152 8.87319 10.1977 8 8.86715 8ZM24.8056 18.6262V25.3333H20.9169V19.0757C20.9169 17.5045 20.3555 16.4315 18.9475 16.4315C17.8731 16.4315 17.2348 17.1539 16.9529 17.8533C16.8506 18.1033 16.8242 18.4505 16.8242 18.8011V25.333H12.9353C12.9353 25.333 12.9875 14.7347 12.9353 13.6376H16.8245V15.295C16.8208 15.3011 16.8164 15.3071 16.8121 15.3131C16.8072 15.3199 16.8023 15.3266 16.7986 15.3332H16.8245V15.295C17.3412 14.4998 18.2629 13.363 20.3291 13.363C22.8875 13.363 24.8056 15.0345 24.8056 18.6262ZM10.7852 25.3333H6.89775V13.6376H10.7852V25.3333Z" fill="white"/>
</mask>
<g mask="url(#mask0)">
<rect width="32" height="32" fill="#2867B2"/>
</g>
</svg>
