<svg width="24" height="24" viewBox="0 0 24 24" fill="none" xmlns="http://www.w3.org/2000/svg">
<path fill-rule="evenodd" clip-rule="evenodd" d="M6.65039 6C5.65272 6 5 6.65489 5 7.51533C5 8.35749 5.6338 9.0313 6.61211 9.0313H6.63104C7.64829 9.0313 8.28078 8.35749 8.28078 7.51533C8.26142 6.65489 7.64828 6 6.65039 6ZM18.6042 13.9697V19H15.6878V14.3068C15.6878 13.1284 15.2667 12.3236 14.2107 12.3236C13.4049 12.3236 12.9262 12.8654 12.7147 13.39C12.638 13.5775 12.6182 13.8378 12.6182 14.1008V18.9998H9.70149C9.70149 18.9998 9.74064 11.051 9.70149 10.2282H12.6184V11.4712C12.6156 11.4758 12.6124 11.4803 12.6091 11.4848L12.6091 11.4848C12.6054 11.4899 12.6018 11.495 12.599 11.4999H12.6184V11.4712C13.006 10.8748 13.6972 10.0222 15.2469 10.0222C17.1657 10.0222 18.6042 11.2759 18.6042 13.9697ZM8.08894 19H5.17335V10.2282H8.08894V19Z" fill="#F3F3F3"/>
<mask id="mask0" style="mask-type:alpha" maskUnits="userSpaceOnUse" x="5" y="6" width="14" height="13">
<path fill-rule="evenodd" clip-rule="evenodd" d="M6.65039 6C5.65272 6 5 6.65489 5 7.51533C5 8.35749 5.6338 9.0313 6.61211 9.0313H6.63104C7.64829 9.0313 8.28078 8.35749 8.28078 7.51533C8.26142 6.65489 7.64828 6 6.65039 6ZM18.6042 13.9697V19H15.6878V14.3068C15.6878 13.1284 15.2667 12.3236 14.2107 12.3236C13.4049 12.3236 12.9262 12.8654 12.7147 13.39C12.638 13.5775 12.6182 13.8378 12.6182 14.1008V18.9998H9.70149C9.70149 18.9998 9.74064 11.051 9.70149 10.2282H12.6184V11.4712C12.6156 11.4758 12.6124 11.4803 12.6091 11.4848L12.6091 11.4848C12.6054 11.4899 12.6018 11.495 12.599 11.4999H12.6184V11.4712C13.006 10.8748 13.6972 10.0222 15.2469 10.0222C17.1657 10.0222 18.6042 11.2759 18.6042 13.9697ZM8.08894 19H5.17335V10.2282H8.08894V19Z" fill="white"/>
</mask>
<g mask="url(#mask0)">
<rect width="24" height="24" fill="#F3F3F3"/>
</g>
</svg>
