<svg width="59" height="64" viewBox="0 0 59 64" fill="none" xmlns="http://www.w3.org/2000/svg">
<path d="M26.9038 10.6666H13.2375V13.081H26.9038V10.6666Z" fill="#F3F3F3"/>
<path d="M11.5439 53.3333H28.2752V41.974H38.4797V53.3333H48.0353C48.3194 53.3234 48.5893 53.1951 48.7902 52.9746C48.9912 52.754 49.108 52.4577 49.1171 52.1459V27.6066C49.108 27.2949 48.9912 26.9985 48.7902 26.778C48.5893 26.5574 48.3194 26.4291 48.0353 26.4192H31.881V16.3661C31.8811 16.2068 31.852 16.049 31.7954 15.9023C31.7388 15.7556 31.6559 15.623 31.5516 15.5122C31.4473 15.4014 31.3237 15.3147 31.1883 15.2574C31.0529 15.2001 30.9083 15.1734 30.7632 15.1787H11.6522C11.5087 15.1732 11.3658 15.2001 11.2322 15.2578C11.0987 15.3155 10.9775 15.4028 10.876 15.5142C10.7746 15.6256 10.695 15.7587 10.6424 15.9052C10.5898 16.0518 10.5653 16.2087 10.5703 16.3661V51.9876C10.5502 52.1467 10.5597 52.3087 10.5983 52.4636C10.6368 52.6186 10.7037 52.7634 10.7947 52.8892C10.8857 53.015 10.999 53.1192 11.1278 53.1955C11.2566 53.2719 11.3981 53.3188 11.5439 53.3333ZM42.2298 30.9313H45.5112V36.6308H42.2298V30.9313ZM42.2298 41.974H45.5112V47.6735H42.2298V41.974ZM25.9314 19.849H29.2127V25.5485H25.9314V19.849ZM25.9314 30.9313H29.2127V36.6308H25.9314V30.9313ZM19.4047 19.849H22.6861V25.5485H19.4047V19.849ZM19.4047 30.9313H22.6861V36.6308H19.4047V30.9313ZM19.1523 41.974H22.4337V47.6735H19.1523V41.974ZM12.9141 19.849H16.1955V25.5485H12.9141V19.849ZM12.9141 30.9313H16.1955V36.6308H12.9141V30.9313ZM12.9141 41.974H16.1955V47.6735H12.9141V41.974Z" fill="#F3F3F3"/>
<path d="M36.2807 53.3333V44.4279L30.4392 44.3883V53.3333H36.2807Z" fill="#F3F3F3"/>
</svg>
