<svg xmlns="http://www.w3.org/2000/svg" xmlns:xlink="http://www.w3.org/1999/xlink" viewBox="0 0 640 184.52"><defs><style>.cls-1{fill:#5d7384;}.cls-2{fill:url(#linear-gradient);}.cls-3{fill:url(#linear-gradient-2);}</style><linearGradient id="linear-gradient" x1="20" y1="92.26" x2="184.52" y2="92.26" gradientUnits="userSpaceOnUse"><stop offset="0" stop-color="#e9580c"/><stop offset="0.26" stop-color="#ed7112"/><stop offset="0.67" stop-color="#f3941c"/><stop offset="0.89" stop-color="#f5a11f"/></linearGradient><linearGradient id="linear-gradient-2" x1="438.12" y1="92.44" x2="620" y2="92.44" xlink:href="#linear-gradient"/></defs><g id="Camada_1" data-name="Camada 1"><path class="cls-1" d="M141.2,79a4.41,4.41,0,0,0-4.39,4.44v17.66a4.39,4.39,0,1,0,8.78,0V83.43A4.42,4.42,0,0,0,141.2,79Z"/><path class="cls-1" d="M121.73,60.26a4.43,4.43,0,0,0-4.39,4.45V82.37a4.39,4.39,0,1,0,8.78,0V64.71A4.43,4.43,0,0,0,121.73,60.26Z"/><path class="cls-1" d="M121.73,95.35a4.42,4.42,0,0,0-4.39,4.44v20a4.39,4.39,0,1,0,8.78,0v-20A4.42,4.42,0,0,0,121.73,95.35Z"/><path class="cls-1" d="M102.26,42.72a4.42,4.42,0,0,0-4.39,4.45V64.83a4.39,4.39,0,1,0,8.78,0V47.17A4.42,4.42,0,0,0,102.26,42.72Z"/><path class="cls-1" d="M102.26,115.25a4.42,4.42,0,0,0-4.39,4.45v17.65a4.39,4.39,0,1,0,8.78,0V119.7A4.42,4.42,0,0,0,102.26,115.25Z"/><path class="cls-1" d="M82.79,26.36a4.42,4.42,0,0,0-4.39,4.45V48.47a4.39,4.39,0,1,0,8.78,0V30.81A4.42,4.42,0,0,0,82.79,26.36Z"/><path class="cls-1" d="M82.79,131.61a4.42,4.42,0,0,0-4.39,4.45v17.66a4.39,4.39,0,1,0,8.78,0V136.06A4.42,4.42,0,0,0,82.79,131.61Z"/><path class="cls-2" d="M184.52,83.43v17.66a4.39,4.39,0,1,1-8.78,0V83.43a4.39,4.39,0,1,1,8.78,0ZM160.67,62.62a4.42,4.42,0,0,0-4.39,4.45V84.73a4.39,4.39,0,1,0,8.78,0V67.07A4.43,4.43,0,0,0,160.67,62.62Zm0,32.73a4.41,4.41,0,0,0-4.39,4.44v17.66a4.39,4.39,0,1,0,8.78,0V99.79A4.42,4.42,0,0,0,160.67,95.35ZM141.2,43.9a4.42,4.42,0,0,0-4.39,4.45V66a4.39,4.39,0,1,0,8.78,0V48.35A4.42,4.42,0,0,0,141.2,43.9Zm0,67.81a4.42,4.42,0,0,0-4.39,4.45v20a4.39,4.39,0,1,0,8.78,0v-20A4.42,4.42,0,0,0,141.2,111.71Zm-38.94-33.9a4.42,4.42,0,0,0-4.39,4.44v20a4.39,4.39,0,1,0,8.78,0v-20A4.41,4.41,0,0,0,102.26,77.81Zm19.47-51.45a4.42,4.42,0,0,0-4.39,4.45V48.47a4.39,4.39,0,1,0,8.78,0V30.81A4.42,4.42,0,0,0,121.73,26.36Zm0,105.25a4.42,4.42,0,0,0-4.39,4.45v17.66a4.39,4.39,0,1,0,8.78,0V136.06A4.42,4.42,0,0,0,121.73,131.61ZM82.79,60.26a4.43,4.43,0,0,0-4.39,4.45v20a4.39,4.39,0,1,0,8.78,0v-20A4.42,4.42,0,0,0,82.79,60.26Zm0,37.45a4.42,4.42,0,0,0-4.39,4.44v17.66a4.39,4.39,0,1,0,8.78,0V102.15A4.41,4.41,0,0,0,82.79,97.71ZM63.33,79a4.41,4.41,0,0,0-4.39,4.44v17.66a4.39,4.39,0,1,0,8.78,0V83.43A4.42,4.42,0,0,0,63.33,79Zm38.93-69a4.42,4.42,0,0,0-4.39,4.45V32.11a4.39,4.39,0,1,0,8.78,0V14.45A4.42,4.42,0,0,0,102.26,10Zm0,138a4.42,4.42,0,0,0-4.39,4.45v17.66a4.39,4.39,0,1,0,8.78,0V152.42A4.42,4.42,0,0,0,102.26,148ZM63.33,43.9a4.42,4.42,0,0,0-4.39,4.45v20a4.39,4.39,0,1,0,8.78,0v-20A4.42,4.42,0,0,0,63.33,43.9Zm0,70.17a4.42,4.42,0,0,0-4.39,4.45v17.65a4.39,4.39,0,1,0,8.78,0V118.52A4.42,4.42,0,0,0,63.33,114.07ZM43.86,62.62a4.42,4.42,0,0,0-4.39,4.45V84.73a4.39,4.39,0,1,0,8.78,0V67.07A4.43,4.43,0,0,0,43.86,62.62Zm0,32.73a4.41,4.41,0,0,0-4.39,4.44v17.66a4.39,4.39,0,1,0,8.78,0V99.79A4.42,4.42,0,0,0,43.86,95.35ZM24.39,79A4.42,4.42,0,0,0,20,83.43v17.66a4.39,4.39,0,1,0,8.78,0V83.43A4.42,4.42,0,0,0,24.39,79Z"/><path class="cls-1" d="M270.16,71.09v43.27c0,3.21-1.84,5.14-4.81,5.14s-4.73-1.93-4.73-5.14V81.47h-.16l-15.24,24.84a5,5,0,0,1-8.9.17l-15.8-25.25h-.16v33.21c0,3.13-1.76,5.06-4.73,5.06s-4.65-1.93-4.65-5.06V71.33c0-3.69,2.17-6.67,6.18-6.67,2.56,0,4.57,1,6.33,3.78l17.16,28.14L257.9,68.52c1.76-2.89,3.68-3.86,6.25-3.86C268,64.66,270.16,67.48,270.16,71.09Z"/><path class="cls-1" d="M287.41,69.81v44.55c0,3.21-1.76,5.14-4.73,5.14s-4.81-1.93-4.81-5.14V69.81c0-3.22,1.76-5.15,4.81-5.15S287.41,66.59,287.41,69.81Z"/><path class="cls-1" d="M340.59,111.22a5.45,5.45,0,0,1,1.29,3.54,4.45,4.45,0,0,1-4.82,4.74,5,5,0,0,1-4.09-2.17L319,99.24H305v15.12c0,3.21-1.77,5.14-4.74,5.14s-4.81-1.93-4.81-5.14V70.29c0-3.22,1.93-5.15,5.14-5.15h22.69c11.79,0,18.13,5.71,18.13,16.49,0,8.76-4,14.31-11.39,16.24V98ZM322.31,90.47c6.09,0,9.3-3,9.3-8.28s-3.21-8.28-9.3-8.28H305V90.47Z"/><path class="cls-1" d="M393.29,111.22a5.5,5.5,0,0,1,1.28,3.54,4.45,4.45,0,0,1-4.81,4.74,5,5,0,0,1-4.09-2.17l-14-18.09h-14v15.12c0,3.21-1.76,5.14-4.73,5.14s-4.81-1.93-4.81-5.14V70.29c0-3.22,1.92-5.15,5.13-5.15H376c11.79,0,18.13,5.71,18.13,16.49,0,8.76-4,14.31-11.39,16.24V98ZM375,90.47c6.1,0,9.3-3,9.3-8.28s-3.2-8.28-9.3-8.28H357.68V90.47Z"/><path class="cls-1" d="M410.38,69.81v44.55c0,3.21-1.77,5.14-4.74,5.14s-4.81-1.93-4.81-5.14V69.81c0-3.22,1.77-5.15,4.81-5.15S410.38,66.59,410.38,69.81Z"/><path class="cls-3" d="M450.79,66.79v8.35a1.26,1.26,0,1,1-2.51,0V69.38h0l-2.61,4.31a1.29,1.29,0,0,1-1.18.72,1.26,1.26,0,0,1-1.16-.7l-2.68-4.41h0v5.87a1.23,1.23,0,1,1-2.46,0V66.84a1.58,1.58,0,0,1,1.59-1.72,1.7,1.7,0,0,1,1.6.92l3.18,5.26L447.68,66a1.69,1.69,0,0,1,1.6-.92A1.52,1.52,0,0,1,450.79,66.79Zm6.81-.34v8.69a1.26,1.26,0,1,1-2.51,0V66.45a1.26,1.26,0,1,1,2.51,0Zm14.58,8a5.82,5.82,0,0,1-4.76,2.11,5.78,5.78,0,1,1,0-11.55A5.92,5.92,0,0,1,472,66.9a1.34,1.34,0,0,1,.32.89A1.16,1.16,0,0,1,471.1,69a1.26,1.26,0,0,1-1-.46,3.18,3.18,0,0,0-2.63-1.23,3.51,3.51,0,0,0,0,7,3.2,3.2,0,0,0,2.75-1.37,1.25,1.25,0,0,1,1-.49,1.14,1.14,0,0,1,1.22,1.19A1.4,1.4,0,0,1,472.18,74.46Zm13.51-.07a1.42,1.42,0,0,1,.3.85,1.16,1.16,0,0,1-1.28,1.23,1.26,1.26,0,0,1-1-.55L481,72.48h-2.43v2.68a1.26,1.26,0,1,1-2.51,0V66.55a1.24,1.24,0,0,1,1.35-1.33H482c2.55,0,3.91,1.2,3.91,3.48A3.08,3.08,0,0,1,483.75,72v0Zm-4-4.17c1.05,0,1.62-.5,1.62-1.37s-.57-1.36-1.62-1.36h-3.1v2.73ZM495.33,65a5.78,5.78,0,1,1-5.92,5.78A5.56,5.56,0,0,1,495.33,65Zm0,9.29A3.51,3.51,0,1,0,492,70.8,3.27,3.27,0,0,0,495.33,74.31Zm18.33-3.58a2.48,2.48,0,0,1,1.67,2.51c0,2.15-1.2,3.13-3.79,3.13h-5A1.23,1.23,0,0,1,505.17,75V66.55a1.23,1.23,0,0,1,1.35-1.33h4.68c2.59,0,3.79,1,3.79,3.11a2.5,2.5,0,0,1-1.33,2.37Zm-2.56-1c.89,0,1.36-.35,1.36-1.1s-.47-1.13-1.36-1.13h-3.42v2.23Zm.27,4.39c.91,0,1.38-.38,1.38-1.15s-.47-1.11-1.38-1.11h-3.69v2.26Zm10.23-7.66v8.69a1.26,1.26,0,1,1-2.51,0V66.45a1.26,1.26,0,1,1,2.51,0Zm14.67,3.9v4.79a1.26,1.26,0,1,1-2.51,0v-1.9H528.2v1.93a1.23,1.23,0,1,1-2.46,0V70.35c0-3.41,1.91-5.33,5.26-5.33S536.27,66.94,536.27,70.35Zm-2.51-.1c0-1.93-1-3-2.78-3s-2.78,1-2.78,3V71h5.56Zm14.86,3.86a1.13,1.13,0,1,1,0,2.26h-6.85A1.23,1.23,0,0,1,540.42,75v-8.6a1.26,1.26,0,1,1,2.51,0v7.67ZM447.71,88.82a1.39,1.39,0,0,1,.3.85,1.17,1.17,0,0,1-1.28,1.23,1.26,1.26,0,0,1-1-.55l-2.63-3.45h-2.43v2.68a1.26,1.26,0,1,1-2.51,0V81a1.24,1.24,0,0,1,1.35-1.33H444c2.55,0,3.91,1.2,3.91,3.48a3.1,3.1,0,0,1-2.14,3.26v0Zm-4-4.18c1,0,1.62-.5,1.62-1.36s-.57-1.37-1.62-1.37h-3.1v2.73Zm16.58,3.89a1.14,1.14,0,1,1,0,2.27H453.2a1.24,1.24,0,0,1-1.35-1.33V81a1.24,1.24,0,0,1,1.35-1.33h7.11a1.13,1.13,0,1,1,0,2.26h-5.95v2.18h4.74a1.1,1.1,0,1,1,0,2.2h-4.74v2.24ZM470,84c3.43,0,4.78,1.06,4.78,3.29,0,2.38-1.79,3.7-5,3.7a6.25,6.25,0,0,1-4.7-1.57,1.19,1.19,0,0,1-.33-.9A1.1,1.1,0,0,1,466,87.39a1.21,1.21,0,0,1,.79.3A5,5,0,0,0,470,88.77c1.43,0,2.26-.5,2.26-1.37,0-.71-.59-1-2.62-1.05-3.4,0-4.7-1-4.7-3.21s1.91-3.69,4.94-3.69a6.07,6.07,0,0,1,4,1.21,1.22,1.22,0,0,1,.44,1,1.1,1.1,0,0,1-1.18,1.15,1.22,1.22,0,0,1-.75-.26,4.41,4.41,0,0,0-2.68-.85c-1.34,0-2.21.53-2.21,1.36C467.51,83.71,468.11,84,470,84Zm14.15-4.56a5.78,5.78,0,1,1-5.91,5.77A5.55,5.55,0,0,1,484.19,79.45Zm0,9.28a3.51,3.51,0,1,0-3.35-3.51A3.27,3.27,0,0,0,484.19,88.73Zm19.65-7.88V86c0,3.3-1.74,5.06-5,5.06s-5-1.76-5-5.06V80.88a1.26,1.26,0,1,1,2.51,0v5.06c0,1.85.86,2.81,2.49,2.81s2.5-1,2.5-2.81V80.85a1.23,1.23,0,1,1,2.46,0Zm13.73,8a1.39,1.39,0,0,1,.3.85,1.17,1.17,0,0,1-1.28,1.23,1.26,1.26,0,0,1-1-.55l-2.63-3.45h-2.43v2.68a1.26,1.26,0,1,1-2.51,0V81a1.24,1.24,0,0,1,1.35-1.33h4.53c2.55,0,3.91,1.2,3.91,3.48a3.1,3.1,0,0,1-2.14,3.26v0Zm-4-4.18c1,0,1.62-.5,1.62-1.36s-.57-1.37-1.62-1.37h-3.1v2.73Zm18.35,4.24A5.77,5.77,0,0,1,527.19,91a5.78,5.78,0,1,1,0-11.55,5.88,5.88,0,0,1,4.57,1.88,1.34,1.34,0,0,1,.32.88,1.17,1.17,0,0,1-1.22,1.2,1.25,1.25,0,0,1-1-.47,3.22,3.22,0,0,0-2.63-1.23,3.51,3.51,0,0,0,0,7A3.19,3.19,0,0,0,530,87.37a1.26,1.26,0,0,1,1-.5,1.15,1.15,0,0,1,1.22,1.2A1.37,1.37,0,0,1,531.94,88.88Zm12.39-.35a1.14,1.14,0,1,1,0,2.27h-7.11a1.23,1.23,0,0,1-1.35-1.33V81a1.23,1.23,0,0,1,1.35-1.33h7.11a1.13,1.13,0,1,1,0,2.26h-6v2.18h4.73a1.1,1.1,0,1,1,0,2.2h-4.73v2.24Zm-96.62,14.71a1.42,1.42,0,0,1,.3.85,1.16,1.16,0,0,1-1.28,1.23,1.26,1.26,0,0,1-1-.55l-2.63-3.44h-2.43V104a1.26,1.26,0,1,1-2.51,0V95.4a1.24,1.24,0,0,1,1.35-1.33H444c2.55,0,3.91,1.2,3.91,3.48a3.08,3.08,0,0,1-2.14,3.26v0Zm-4-4.18c1,0,1.62-.49,1.62-1.36s-.57-1.36-1.62-1.36h-3.1v2.72Zm16.58,3.9a1.13,1.13,0,1,1,0,2.26H453.2a1.24,1.24,0,0,1-1.35-1.33V95.4a1.24,1.24,0,0,1,1.35-1.33h7.11a1.14,1.14,0,1,1,0,2.27h-5.95v2.18h4.74a1.1,1.1,0,1,1,0,2.19h-4.74V103ZM470,98.43c3.43,0,4.78,1.07,4.78,3.3s-1.79,3.69-5,3.69a6.29,6.29,0,0,1-4.7-1.56,1.22,1.22,0,0,1-.33-.9,1.1,1.1,0,0,1,1.18-1.15,1.21,1.21,0,0,1,.79.3,4.92,4.92,0,0,0,3.25,1.08c1.43,0,2.26-.5,2.26-1.36s-.59-1-2.62-1c-3.4,0-4.7-1-4.7-3.21s1.91-3.7,4.94-3.7a6.08,6.08,0,0,1,4,1.22,1.2,1.2,0,0,1,.44,1,1.11,1.11,0,0,1-1.18,1.15,1.23,1.23,0,0,1-.75-.27,4.41,4.41,0,0,0-2.68-.85c-1.34,0-2.21.53-2.21,1.37C467.51,98.13,468.11,98.43,470,98.43ZM487.11,103a1.13,1.13,0,1,1,0,2.26H480a1.23,1.23,0,0,1-1.34-1.33V95.4A1.23,1.23,0,0,1,480,94.07h7.12a1.14,1.14,0,1,1,0,2.27h-5.95v2.18h4.73a1.1,1.1,0,1,1,0,2.19h-4.73V103Zm15.33-3.76V104a1.26,1.26,0,1,1-2.51,0v-1.9h-5.56V104a1.23,1.23,0,1,1-2.46,0V99.2c0-3.41,1.9-5.33,5.25-5.33S502.44,95.79,502.44,99.2Zm-2.51-.1c0-1.93-1-3-2.78-3s-2.78,1-2.78,3v.76h5.56Zm16.24,4.14a1.35,1.35,0,0,1,.3.85,1.16,1.16,0,0,1-1.28,1.23,1.27,1.27,0,0,1-1-.55l-2.63-3.44h-2.43V104a1.18,1.18,0,0,1-1.24,1.31,1.19,1.19,0,0,1-1.27-1.31V95.4a1.24,1.24,0,0,1,1.35-1.33h4.53c2.55,0,3.91,1.2,3.91,3.48a3.08,3.08,0,0,1-2.14,3.26v0Zm-4-4.18c1,0,1.62-.49,1.62-1.36s-.57-1.36-1.62-1.36h-3.1v2.72Zm18.35,4.25a5.78,5.78,0,0,1-4.75,2.11,5.78,5.78,0,1,1,0-11.55,5.92,5.92,0,0,1,4.57,1.88,1.38,1.38,0,0,1,.32.88,1.16,1.16,0,0,1-1.21,1.2,1.24,1.24,0,0,1-1-.46,3.18,3.18,0,0,0-2.63-1.23,3.51,3.51,0,0,0,0,7,3.2,3.2,0,0,0,2.75-1.37,1.24,1.24,0,0,1,1-.5,1.14,1.14,0,0,1,1.22,1.2A1.34,1.34,0,0,1,530.54,103.31Zm14.51-8V104a1.26,1.26,0,1,1-2.51,0v-3.26H537V104a1.26,1.26,0,1,1-2.51,0V95.3a1.26,1.26,0,1,1,2.51,0v3.17h5.56V95.3a1.26,1.26,0,1,1,2.51,0ZM440.63,109.73v8.69a1.26,1.26,0,1,1-2.51,0v-8.69a1.26,1.26,0,1,1,2.51,0Zm14.78,0v8.54a1.37,1.37,0,0,1-1.38,1.52,1.83,1.83,0,0,1-1.5-.73l-5.11-6.63h0v6.06a1.23,1.23,0,1,1-2.46,0v-8.54a1.4,1.4,0,0,1,1.41-1.51,1.67,1.67,0,0,1,1.44.66l5.14,6.68h0v-6a1.23,1.23,0,1,1,2.46,0ZM468,108.5a1.13,1.13,0,1,1,0,2.26h-5.78v2.38h4.53a1.1,1.1,0,0,1,1.23,1.15,1.08,1.08,0,0,1-1.23,1.11h-4.53v3a1.26,1.26,0,1,1-2.51,0v-8.6a1.23,1.23,0,0,1,1.34-1.33Zm14.32,9.17a1.39,1.39,0,0,1,.3.85,1.17,1.17,0,0,1-1.28,1.23,1.26,1.26,0,0,1-1-.55l-2.63-3.45h-2.43v2.68a1.26,1.26,0,1,1-2.51,0v-8.6a1.24,1.24,0,0,1,1.35-1.33h4.53c2.55,0,3.91,1.19,3.91,3.48a3.1,3.1,0,0,1-2.14,3.26v0Zm-4-4.18c1.05,0,1.62-.5,1.62-1.37s-.57-1.36-1.62-1.36h-3.1v2.73Zm18.5.13v4.8a1.26,1.26,0,1,1-2.51,0v-1.9h-5.56v1.93a1.23,1.23,0,1,1-2.46,0v-4.83c0-3.41,1.91-5.32,5.26-5.32S496.84,110.21,496.84,113.62Zm-2.51-.1c0-1.93-1-3-2.78-3s-2.78,1-2.78,3v.77h5.56Zm11.43-.66c3.43,0,4.78,1.06,4.78,3.29s-1.78,3.7-5,3.7a6.29,6.29,0,0,1-4.7-1.57,1.19,1.19,0,0,1-.33-.9,1.1,1.1,0,0,1,1.18-1.14,1.19,1.19,0,0,1,.79.3,5,5,0,0,0,3.25,1.08c1.43,0,2.26-.5,2.26-1.37,0-.71-.59-1-2.61-1-3.41,0-4.7-1-4.7-3.21s1.9-3.69,4.93-3.69a6.07,6.07,0,0,1,4,1.21,1.22,1.22,0,0,1,.44,1,1.1,1.1,0,0,1-1.18,1.15,1.22,1.22,0,0,1-.75-.26,4.41,4.41,0,0,0-2.68-.85c-1.33,0-2.21.53-2.21,1.36C503.23,112.56,503.84,112.86,505.76,112.86Zm17.07-4.36a1.13,1.13,0,1,1,0,2.26h-3v7.66a1.26,1.26,0,1,1-2.51,0v-7.66h-3a1.13,1.13,0,1,1,0-2.26ZM537,117.67a1.39,1.39,0,0,1,.3.85,1.17,1.17,0,0,1-1.28,1.23,1.26,1.26,0,0,1-1-.55l-2.63-3.45h-2.43v2.68a1.26,1.26,0,1,1-2.51,0v-8.6a1.23,1.23,0,0,1,1.35-1.33h4.53c2.54,0,3.91,1.19,3.91,3.48a3.1,3.1,0,0,1-2.14,3.26v0Zm-4-4.18c1,0,1.62-.5,1.62-1.37s-.58-1.36-1.62-1.36h-3.1v2.73Zm17.93-3.8v5.11c0,3.3-1.74,5.06-5,5.06s-5-1.76-5-5.06v-5.07a1.26,1.26,0,1,1,2.51,0v5.06c0,1.85.86,2.81,2.49,2.81s2.5-1,2.5-2.81v-5.1a1.23,1.23,0,1,1,2.46,0Zm14.42,8a5.77,5.77,0,0,1-4.75,2.12,5.78,5.78,0,1,1,0-11.55,5.88,5.88,0,0,1,4.57,1.88,1.34,1.34,0,0,1,.32.88,1.17,1.17,0,0,1-1.22,1.2,1.25,1.25,0,0,1-1-.47,3.22,3.22,0,0,0-2.63-1.23,3.51,3.51,0,0,0,0,7,3.19,3.19,0,0,0,2.74-1.36,1.26,1.26,0,0,1,1-.5,1.14,1.14,0,0,1,1.21,1.2A1.37,1.37,0,0,1,565.37,117.73Zm12.69-9.23a1.13,1.13,0,1,1,0,2.26h-3v7.66a1.26,1.26,0,1,1-2.51,0v-7.66h-3a1.13,1.13,0,1,1,0-2.26Zm14.39,1.19v5.11c0,3.3-1.73,5.06-5,5.06s-5-1.76-5-5.06v-5.07a1.26,1.26,0,1,1,2.51,0v5.06c0,1.85.86,2.81,2.5,2.81s2.49-1,2.49-2.81v-5.1a1.23,1.23,0,1,1,2.46,0Zm13.73,8a1.34,1.34,0,0,1,.31.85,1.17,1.17,0,0,1-1.28,1.23,1.28,1.28,0,0,1-1.05-.55l-2.63-3.45h-2.42v2.68a1.26,1.26,0,1,1-2.51,0v-8.6a1.23,1.23,0,0,1,1.34-1.33h4.54c2.54,0,3.91,1.19,3.91,3.48a3.11,3.11,0,0,1-2.14,3.26v0Zm-4-4.18c1,0,1.61-.5,1.61-1.37s-.57-1.36-1.61-1.36h-3.1v2.73Zm16.58,3.89a1.14,1.14,0,1,1,0,2.27h-7.11a1.23,1.23,0,0,1-1.35-1.33v-8.49a1.23,1.23,0,0,1,1.35-1.33h7.11a1.13,1.13,0,1,1,0,2.26h-5.95v2.18h4.73a1.1,1.1,0,1,1,0,2.2h-4.73v2.24Z"/></g></svg>