<?xml version="1.0" encoding="utf-8"?>
<!-- Generator: Adobe Illustrator 25.4.1, SVG Export Plug-In . SVG Version: 6.00 Build 0)  -->
<svg version="1.1" id="Layer_1" xmlns="http://www.w3.org/2000/svg" xmlns:xlink="http://www.w3.org/1999/xlink" x="0px" y="0px"
	 viewBox="0 0 453.6 198.5" style="enable-background:new 0 0 453.6 198.5;" xml:space="preserve">
<g>
	
		<image style="overflow:visible;" width="1890" height="827" xlink:href="E92512F24309E50C.jpg"  transform="matrix(0.24 0 0 0.24 0 0)">
	</image>
	<g>
		<defs>
			<path id="SVGID_1_" d="M65.4,184.1h-1.6l2-11.4h1.6L65.4,184.1L65.4,184.1z M73,178.5c-0.4-0.3-0.8-0.4-1.2-0.6
				c-0.4-0.1-0.7-0.2-1.1-0.2c-0.3,0-0.6,0.1-0.8,0.2c-0.2,0.1-0.3,0.3-0.3,0.5c-0.1,0.4,0.4,0.8,1.3,1.4c0.1,0,0.1,0,0.1,0.1
				c0.8,0.4,1.2,0.8,1.4,1.1c0.2,0.3,0.3,0.7,0.2,1.2c-0.1,0.7-0.5,1.2-1,1.6c-0.6,0.4-1.3,0.6-2.1,0.6c-0.5,0-0.9-0.1-1.3-0.2
				c-0.4-0.1-0.8-0.3-1.2-0.5l0.3-1.6c0.4,0.3,0.8,0.5,1.2,0.7c0.4,0.2,0.8,0.2,1.1,0.2c0.4,0,0.7-0.1,1-0.2
				c0.2-0.1,0.4-0.3,0.4-0.6c0.1-0.3-0.3-0.7-1-1.1c-0.2-0.1-0.4-0.2-0.5-0.3c-0.6-0.4-1.1-0.7-1.3-1c-0.2-0.3-0.3-0.7-0.2-1.2
				c0.1-0.6,0.4-1.1,0.9-1.5c0.5-0.4,1.2-0.6,2-0.6c0.4,0,0.8,0.1,1.2,0.2c0.4,0.1,0.7,0.3,1.1,0.5L73,178.5L73,178.5z M79.2,176.5
				l-0.2,1.3h-2.4l-0.6,3.5c-0.1,0.6-0.1,1,0,1.2c0.1,0.2,0.4,0.3,0.8,0.3c0.2,0,0.5,0,0.7-0.1c0.2-0.1,0.5-0.2,0.7-0.3l-0.3,1.4
				c-0.3,0.1-0.5,0.2-0.8,0.3c-0.3,0.1-0.6,0.1-0.9,0.1c-0.9,0-1.4-0.2-1.7-0.6c-0.3-0.4-0.3-1.1-0.1-2.2l0.6-3.6h-1.3l0-0.1
				l3.2-2.9h0.2l-0.3,1.8H79.2L79.2,176.5z M82.5,174.3c0,0.2-0.2,0.4-0.4,0.6c-0.2,0.2-0.4,0.2-0.6,0.2c-0.2,0-0.4-0.1-0.6-0.2
				c-0.1-0.2-0.2-0.4-0.1-0.6c0-0.2,0.2-0.4,0.4-0.6c0.2-0.2,0.4-0.2,0.6-0.2c0.2,0,0.4,0.1,0.6,0.2
				C82.4,173.9,82.5,174.1,82.5,174.3L82.5,174.3z M80.6,184.1h-1.5l1.3-7.6H82L80.6,184.1L80.6,184.1z M88,176.5l-0.2,1.3h-2.4
				l-0.6,3.5c-0.1,0.6-0.1,1,0,1.2c0.1,0.2,0.4,0.3,0.8,0.3c0.2,0,0.5,0,0.7-0.1c0.2-0.1,0.5-0.2,0.7-0.3l-0.3,1.4
				c-0.3,0.1-0.5,0.2-0.8,0.3c-0.3,0.1-0.6,0.1-0.9,0.1c-0.9,0-1.4-0.2-1.7-0.6c-0.3-0.4-0.3-1.1-0.1-2.2l0.6-3.6h-1.3l0-0.1
				l3.2-2.9h0.2l-0.3,1.8H88L88,176.5z M94.3,184.1h-1.5l0.2-0.9c-0.4,0.4-0.9,0.6-1.3,0.8c-0.4,0.2-0.8,0.2-1.3,0.2
				c-0.8,0-1.4-0.2-1.8-0.7c-0.4-0.5-0.5-1.1-0.4-1.9l0.9-5h1.5l-0.8,4.6c-0.1,0.6-0.1,1.1,0.1,1.4c0.2,0.3,0.6,0.4,1.1,0.4
				c0.4,0,0.7-0.1,1.1-0.2c0.3-0.1,0.6-0.4,1-0.7l1-5.5h1.5L94.3,184.1L94.3,184.1z M101.6,176.5l-0.2,1.3H99l-0.6,3.5
				c-0.1,0.6-0.1,1,0,1.2c0.1,0.2,0.4,0.3,0.8,0.3c0.2,0,0.5,0,0.7-0.1c0.2-0.1,0.5-0.2,0.7-0.3l-0.3,1.4c-0.3,0.1-0.5,0.2-0.8,0.3
				c-0.3,0.1-0.6,0.1-0.9,0.1c-0.9,0-1.4-0.2-1.7-0.6c-0.3-0.4-0.3-1.1-0.1-2.2l0.6-3.6h-1.3l0-0.1l3.2-2.9h0.2l-0.3,1.8H101.6
				L101.6,176.5z M109.6,180.3c-0.1,0.5-0.3,1-0.6,1.5c-0.3,0.5-0.7,0.9-1.1,1.3c-0.4,0.4-0.9,0.7-1.4,0.9c-0.5,0.2-1,0.3-1.6,0.3
				c-1.1,0-2-0.4-2.7-1.1c-0.6-0.8-0.9-1.7-0.7-2.8c0.2-1.1,0.7-2,1.7-2.8c0.9-0.8,1.9-1.1,3.1-1.1c0.5,0,1,0.1,1.5,0.3
				c0.4,0.2,0.8,0.5,1.1,0.9c0.3,0.4,0.5,0.8,0.7,1.3C109.7,179.3,109.7,179.8,109.6,180.3L109.6,180.3z M107.6,178.5
				c-0.4-0.5-0.9-0.7-1.6-0.7c-0.7,0-1.3,0.2-1.8,0.7c-0.6,0.5-0.9,1.1-1,1.8c-0.1,0.7,0,1.3,0.4,1.8c0.4,0.5,0.9,0.7,1.6,0.7
				c0.7,0,1.3-0.2,1.8-0.7c0.6-0.5,0.9-1.1,1-1.8C108.2,179.6,108,179,107.6,178.5L107.6,178.5z M121.2,184.1h-1.5l0.1-0.4
				c-0.3,0.2-0.6,0.3-1,0.4c-0.3,0.1-0.7,0.1-1.1,0.1c-1.1,0-1.9-0.4-2.5-1.1c-0.6-0.7-0.7-1.7-0.5-2.8c0.2-1.2,0.7-2.1,1.5-2.8
				c0.8-0.7,1.8-1.1,2.9-1.1c0.4,0,0.7,0,1,0.1c0.3,0.1,0.6,0.2,0.8,0.4l0.8-4.3h1.5L121.2,184.1L121.2,184.1z M120,177.8
				c-0.2-0.1-0.5-0.1-0.8-0.1c-0.8,0-1.4,0.2-1.9,0.7c-0.5,0.5-0.9,1.1-1,1.9c-0.1,0.8,0,1.5,0.3,1.9c0.4,0.5,0.9,0.7,1.7,0.7
				c0.3,0,0.6,0,0.8-0.1c0.3-0.1,0.5-0.2,0.8-0.4l0.8-4.3C120.5,178,120.3,177.8,120,177.8L120,177.8z M126.4,174.3
				c0,0.2-0.2,0.4-0.4,0.6c-0.2,0.2-0.4,0.2-0.6,0.2c-0.2,0-0.4-0.1-0.6-0.2c-0.1-0.2-0.2-0.4-0.1-0.6c0-0.2,0.2-0.4,0.4-0.6
				c0.2-0.2,0.4-0.2,0.6-0.2c0.2,0,0.4,0.1,0.6,0.2C126.4,173.9,126.4,174.1,126.4,174.3L126.4,174.3z M124.6,184.1h-1.5l1.3-7.6
				h1.5L124.6,184.1L124.6,184.1z M138.5,177.6c-0.4,0.5-1,0.8-1.8,1c0.2,0.1,0.3,0.2,0.5,0.4c0.1,0.2,0.3,0.5,0.5,0.9l2,4.2h-2
				l-1.4-3c-0.4-0.9-0.8-1.5-1.1-1.7c-0.3-0.3-0.7-0.4-1.2-0.4h-0.5l-0.9,5.1h-1.6l2-11.4h3.4c1.2,0,2,0.3,2.5,0.8
				c0.5,0.5,0.7,1.3,0.5,2.3C139.2,176.5,138.9,177.1,138.5,177.6L138.5,177.6z M137.3,174.4c-0.3-0.3-0.9-0.4-1.7-0.4h-1.4
				l-0.6,3.6h1.4c0.8,0,1.4-0.1,1.8-0.4c0.4-0.3,0.7-0.7,0.8-1.4C137.7,175.2,137.6,174.7,137.3,174.4L137.3,174.4z M143.4,174.3
				c0,0.2-0.2,0.4-0.4,0.6c-0.2,0.2-0.4,0.2-0.6,0.2c-0.2,0-0.4-0.1-0.6-0.2c-0.1-0.2-0.2-0.4-0.1-0.6c0-0.2,0.2-0.4,0.4-0.6
				c0.2-0.2,0.4-0.2,0.6-0.2c0.2,0,0.4,0.1,0.6,0.2C143.4,173.9,143.4,174.1,143.4,174.3L143.4,174.3z M141.5,184.1H140l1.3-7.6h1.5
				L141.5,184.1L141.5,184.1z M150.2,178.4c-0.3-0.2-0.6-0.4-1-0.5c-0.3-0.1-0.7-0.2-1-0.2c-0.8,0-1.4,0.2-2,0.7
				c-0.6,0.5-0.9,1.1-1,1.8c-0.1,0.7,0,1.3,0.4,1.8c0.4,0.5,1,0.7,1.8,0.7c0.4,0,0.7,0,1.1-0.1c0.4-0.1,0.7-0.2,1.1-0.4l-0.3,1.5
				c-0.4,0.1-0.8,0.2-1.2,0.3c-0.4,0.1-0.7,0.1-1.1,0.1c-1.2,0-2.2-0.4-2.8-1.1c-0.7-0.7-0.9-1.7-0.7-2.8c0.2-1.1,0.8-2.1,1.7-2.8
				c0.9-0.8,2-1.1,3.2-1.1c0.4,0,0.7,0,1.1,0.1c0.3,0.1,0.7,0.2,1,0.4L150.2,178.4L150.2,178.4z M158.9,180.3
				c-0.1,0.5-0.3,1-0.6,1.5c-0.3,0.5-0.7,0.9-1.1,1.3c-0.4,0.4-0.9,0.7-1.4,0.9c-0.5,0.2-1,0.3-1.6,0.3c-1.1,0-2-0.4-2.7-1.1
				c-0.6-0.8-0.9-1.7-0.7-2.8c0.2-1.1,0.7-2,1.7-2.8c0.9-0.8,1.9-1.1,3.1-1.1c0.5,0,1,0.1,1.5,0.3c0.4,0.2,0.8,0.5,1.1,0.9
				c0.3,0.4,0.5,0.8,0.7,1.3C159,179.3,159,179.8,158.9,180.3L158.9,180.3z M157,178.5c-0.4-0.5-0.9-0.7-1.6-0.7
				c-0.7,0-1.3,0.2-1.8,0.7c-0.6,0.5-0.9,1.1-1,1.8c-0.1,0.7,0,1.3,0.4,1.8s0.9,0.7,1.6,0.7c0.7,0,1.3-0.2,1.8-0.7
				c0.6-0.5,0.9-1.1,1-1.8C157.5,179.6,157.3,179,157,178.5L157,178.5z M162.7,184.2H162l-2.3-7.7h1.7l1.4,5l3.1-5h1.6L162.7,184.2
				L162.7,184.2z M174.4,180.3l0,0.2h-5.7c-0.1,0.7,0.1,1.3,0.4,1.7c0.4,0.4,0.9,0.6,1.6,0.6c0.5,0,1-0.1,1.5-0.3
				c0.6-0.2,1.1-0.4,1.8-0.8l-0.3,1.5c-0.6,0.3-1.1,0.6-1.7,0.7c-0.6,0.2-1.1,0.2-1.7,0.2c-1.2,0-2.1-0.4-2.7-1.1
				c-0.6-0.7-0.8-1.7-0.5-3c0.2-1.1,0.7-2,1.5-2.7s1.8-1.1,2.9-1.1c1.1,0,1.9,0.4,2.4,1.1C174.5,178.2,174.6,179.1,174.4,180.3
				L174.4,180.3z M172.5,178.2c-0.3-0.3-0.7-0.5-1.2-0.5c-0.6,0-1.1,0.2-1.5,0.5c-0.4,0.3-0.7,0.8-0.9,1.4l4,0
				C172.9,178.9,172.8,178.5,172.5,178.2L172.5,178.2z M180.7,178.5c-0.2-0.2-0.4-0.4-0.6-0.5c-0.2-0.1-0.4-0.1-0.7-0.1
				c-0.4,0-0.8,0.2-1.2,0.5c-0.4,0.3-0.7,0.8-0.9,1.4l-0.8,4.3h-1.5l1.3-7.6h1.5l-0.3,1.6c0.5-0.7,1-1.1,1.4-1.4
				c0.4-0.3,0.8-0.4,1.2-0.4c0.3,0,0.5,0.1,0.8,0.2c0.3,0.1,0.5,0.3,0.8,0.6L180.7,178.5L180.7,178.5z M189.5,180.3
				c-0.1,0.5-0.3,1-0.6,1.5c-0.3,0.5-0.7,0.9-1.1,1.3c-0.4,0.4-0.9,0.7-1.4,0.9c-0.5,0.2-1,0.3-1.6,0.3c-1.1,0-2-0.4-2.7-1.1
				c-0.6-0.8-0.9-1.7-0.7-2.8c0.2-1.1,0.7-2,1.7-2.8c0.9-0.8,1.9-1.1,3.1-1.1c0.5,0,1,0.1,1.5,0.3c0.4,0.2,0.8,0.5,1.1,0.9
				c0.3,0.4,0.5,0.8,0.7,1.3C189.5,179.3,189.6,179.8,189.5,180.3L189.5,180.3z M187.5,178.5c-0.4-0.5-0.9-0.7-1.6-0.7
				c-0.7,0-1.3,0.2-1.8,0.7c-0.6,0.5-0.9,1.1-1,1.8c-0.1,0.7,0,1.3,0.4,1.8c0.4,0.5,0.9,0.7,1.6,0.7c0.7,0,1.3-0.2,1.8-0.7
				c0.6-0.5,0.9-1.1,1-1.8C188,179.6,187.9,179,187.5,178.5L187.5,178.5z M201.7,180.3l0,0.2H196c-0.1,0.7,0.1,1.3,0.4,1.7
				c0.4,0.4,0.9,0.6,1.6,0.6c0.5,0,1-0.1,1.5-0.3c0.6-0.2,1.1-0.4,1.8-0.8l-0.3,1.5c-0.6,0.3-1.1,0.6-1.7,0.7
				c-0.6,0.2-1.1,0.2-1.7,0.2c-1.2,0-2.1-0.4-2.7-1.1c-0.6-0.7-0.8-1.7-0.5-3c0.2-1.1,0.7-2,1.5-2.7c0.8-0.7,1.8-1.1,2.9-1.1
				c1.1,0,1.9,0.4,2.4,1.1C201.8,178.2,201.9,179.1,201.7,180.3L201.7,180.3z M199.8,178.2c-0.3-0.3-0.7-0.5-1.2-0.5
				c-0.6,0-1.1,0.2-1.5,0.5c-0.4,0.3-0.7,0.8-0.9,1.4l4,0C200.2,178.9,200.1,178.5,199.8,178.2L199.8,178.2z M218,175.1
				c-0.7-0.4-1.3-0.7-1.9-0.9c-0.6-0.2-1.2-0.3-1.8-0.3c-1.3,0-2.5,0.4-3.5,1.2c-1,0.8-1.6,1.9-1.9,3.1c-0.2,1.2,0,2.3,0.7,3.1
				c0.7,0.8,1.7,1.2,3,1.2c0.7,0,1.4-0.1,2.1-0.3c0.7-0.2,1.5-0.6,2.3-1l-0.3,1.8c-0.7,0.3-1.5,0.6-2.2,0.8
				c-0.7,0.2-1.4,0.3-2.1,0.3c-0.7,0-1.3-0.1-1.8-0.3c-0.6-0.2-1.1-0.4-1.6-0.8c-0.8-0.6-1.3-1.3-1.6-2.1c-0.3-0.9-0.4-1.8-0.2-2.8
				c0.1-0.8,0.4-1.5,0.9-2.2c0.4-0.7,1-1.4,1.7-1.9c0.7-0.6,1.5-1,2.3-1.3c0.8-0.3,1.7-0.4,2.6-0.4c0.6,0,1.3,0.1,1.9,0.2
				c0.6,0.1,1.2,0.4,1.9,0.7L218,175.1L218,175.1z M224.5,184.1H223l0.2-0.9c-0.4,0.4-0.9,0.6-1.3,0.8c-0.4,0.2-0.8,0.2-1.3,0.2
				c-0.8,0-1.4-0.2-1.8-0.7c-0.4-0.5-0.5-1.1-0.4-1.9l0.9-5h1.5l-0.8,4.6c-0.1,0.6-0.1,1.1,0.1,1.4c0.2,0.3,0.6,0.4,1.1,0.4
				c0.4,0,0.7-0.1,1.1-0.2c0.3-0.1,0.6-0.4,1-0.7l1-5.5h1.5L224.5,184.1L224.5,184.1z M232,178.5c-0.2-0.2-0.4-0.4-0.6-0.5
				c-0.2-0.1-0.4-0.1-0.7-0.1c-0.4,0-0.8,0.2-1.2,0.5c-0.4,0.3-0.7,0.8-0.9,1.4l-0.8,4.3h-1.5l1.3-7.6h1.5l-0.3,1.6
				c0.5-0.7,1-1.1,1.4-1.4c0.4-0.3,0.8-0.4,1.2-0.4c0.3,0,0.5,0.1,0.8,0.2c0.3,0.1,0.5,0.3,0.8,0.6L232,178.5L232,178.5z
				 M238.1,182.3c0,0.3-0.1,0.5,0,0.6c0,0.1,0.1,0.2,0.2,0.2c0.1,0,0.2,0,0.3-0.1c0.1,0,0.3-0.2,0.6-0.3l-0.2,0.9
				c-0.3,0.2-0.6,0.4-0.9,0.5c-0.3,0.1-0.6,0.2-0.9,0.2c-0.3,0-0.5-0.1-0.6-0.2c-0.1-0.1-0.2-0.3-0.1-0.6c-0.4,0.3-0.8,0.5-1.2,0.6
				c-0.4,0.1-0.7,0.2-1.1,0.2c-0.7,0-1.2-0.2-1.5-0.5s-0.4-0.8-0.3-1.3c0.1-0.5,0.4-1,0.9-1.4c0.5-0.4,1.2-0.7,2.1-1l1.9-0.6
				c0,0,0-0.1,0-0.1c0,0,0-0.1,0-0.2c0.1-0.5,0-0.8-0.2-1c-0.2-0.2-0.5-0.3-1-0.3c-0.4,0-0.9,0.1-1.3,0.3c-0.5,0.2-1,0.4-1.5,0.8
				l0.3-1.5c0.4-0.3,0.9-0.6,1.4-0.7c0.5-0.2,1-0.2,1.6-0.2c1,0,1.6,0.2,2,0.6c0.4,0.4,0.5,1.1,0.3,2.1L238.1,182.3L238.1,182.3z
				 M234.7,181.2c-0.4,0.3-0.7,0.6-0.7,0.9c-0.1,0.3,0,0.6,0.2,0.7c0.2,0.2,0.4,0.3,0.8,0.3c0.3,0,0.5,0,0.8-0.1
				c0.3-0.1,0.5-0.2,0.8-0.4l0.4-2.2C235.8,180.6,235.1,180.9,234.7,181.2L234.7,181.2z M249.4,182.3c0,0.3-0.1,0.5,0,0.6
				c0,0.1,0.1,0.2,0.2,0.2c0.1,0,0.2,0,0.3-0.1c0.1,0,0.3-0.2,0.6-0.3l-0.2,0.9c-0.3,0.2-0.6,0.4-0.9,0.5c-0.3,0.1-0.6,0.2-0.9,0.2
				c-0.3,0-0.5-0.1-0.6-0.2c-0.1-0.1-0.2-0.3-0.1-0.6c-0.4,0.3-0.8,0.5-1.2,0.6c-0.4,0.1-0.7,0.2-1.1,0.2c-0.7,0-1.2-0.2-1.5-0.5
				s-0.4-0.8-0.3-1.3c0.1-0.5,0.4-1,0.9-1.4c0.5-0.4,1.2-0.7,2.1-1l1.9-0.6c0,0,0-0.1,0-0.1c0,0,0-0.1,0-0.2c0.1-0.5,0-0.8-0.2-1
				c-0.2-0.2-0.5-0.3-1-0.3c-0.4,0-0.9,0.1-1.3,0.3c-0.5,0.2-1,0.4-1.5,0.8l0.3-1.5c0.4-0.3,0.9-0.6,1.4-0.7c0.5-0.2,1-0.2,1.6-0.2
				c1,0,1.6,0.2,2,0.6c0.4,0.4,0.5,1.1,0.3,2.1L249.4,182.3L249.4,182.3z M246,181.2c-0.4,0.3-0.7,0.6-0.7,0.9
				c-0.1,0.3,0,0.6,0.2,0.7c0.2,0.2,0.4,0.3,0.8,0.3c0.3,0,0.5,0,0.8-0.1c0.3-0.1,0.5-0.2,0.8-0.4l0.4-2.2
				C247.2,180.6,246.4,180.9,246,181.2L246,181.2z M266.7,175.1c-0.7-0.4-1.3-0.7-1.9-0.9c-0.6-0.2-1.2-0.3-1.8-0.3
				c-1.3,0-2.5,0.4-3.5,1.2c-1,0.8-1.6,1.9-1.9,3.1c-0.2,1.2,0,2.3,0.7,3.1c0.7,0.8,1.7,1.2,3,1.2c0.7,0,1.4-0.1,2.1-0.3
				c0.7-0.2,1.5-0.6,2.3-1l-0.3,1.8c-0.7,0.3-1.5,0.6-2.2,0.8c-0.7,0.2-1.4,0.3-2.1,0.3c-0.7,0-1.3-0.1-1.8-0.3
				c-0.6-0.2-1.1-0.4-1.6-0.8c-0.8-0.6-1.3-1.3-1.6-2.1c-0.3-0.9-0.4-1.8-0.2-2.8c0.1-0.8,0.4-1.5,0.9-2.2c0.4-0.7,1-1.4,1.7-1.9
				c0.7-0.6,1.5-1,2.3-1.3c0.8-0.3,1.7-0.4,2.6-0.4c0.6,0,1.3,0.1,1.9,0.2c0.6,0.1,1.2,0.4,1.9,0.7L266.7,175.1L266.7,175.1z
				 M272.3,182.3c0,0.3-0.1,0.5,0,0.6c0,0.1,0.1,0.2,0.2,0.2c0.1,0,0.2,0,0.3-0.1c0.1,0,0.3-0.2,0.6-0.3l-0.2,0.9
				c-0.3,0.2-0.6,0.4-0.9,0.5c-0.3,0.1-0.6,0.2-0.9,0.2c-0.3,0-0.5-0.1-0.6-0.2c-0.1-0.1-0.2-0.3-0.1-0.6c-0.4,0.3-0.8,0.5-1.2,0.6
				c-0.4,0.1-0.7,0.2-1.1,0.2c-0.7,0-1.2-0.2-1.5-0.5c-0.3-0.3-0.4-0.8-0.3-1.3c0.1-0.5,0.4-1,0.9-1.4c0.5-0.4,1.2-0.7,2.1-1
				l1.9-0.6c0,0,0-0.1,0-0.1c0,0,0-0.1,0-0.2c0.1-0.5,0-0.8-0.2-1c-0.2-0.2-0.5-0.3-1-0.3c-0.4,0-0.9,0.1-1.3,0.3
				c-0.5,0.2-1,0.4-1.5,0.8l0.3-1.5c0.4-0.3,0.9-0.6,1.4-0.7c0.5-0.2,1-0.2,1.6-0.2c1,0,1.6,0.2,2,0.6c0.4,0.4,0.5,1.1,0.3,2.1
				L272.3,182.3L272.3,182.3z M268.8,181.2c-0.4,0.3-0.7,0.6-0.7,0.9c-0.1,0.3,0,0.6,0.2,0.7c0.2,0.2,0.4,0.3,0.8,0.3
				c0.3,0,0.5,0,0.8-0.1c0.3-0.1,0.5-0.2,0.8-0.4l0.4-2.2C270,180.6,269.3,180.9,268.8,181.2L268.8,181.2z M279.5,178.5
				c-0.2-0.2-0.4-0.4-0.6-0.5c-0.2-0.1-0.4-0.1-0.7-0.1c-0.4,0-0.8,0.2-1.2,0.5c-0.4,0.3-0.7,0.8-0.9,1.4l-0.8,4.3h-1.5l1.3-7.6h1.5
				l-0.3,1.6c0.5-0.7,1-1.1,1.4-1.4c0.4-0.3,0.8-0.4,1.2-0.4c0.3,0,0.5,0.1,0.8,0.2c0.3,0.1,0.5,0.3,0.8,0.6L279.5,178.5
				L279.5,178.5z M285.7,182.3c0,0.3-0.1,0.5,0,0.6c0,0.1,0.1,0.2,0.2,0.2c0.1,0,0.2,0,0.3-0.1c0.1,0,0.3-0.2,0.6-0.3l-0.2,0.9
				c-0.3,0.2-0.6,0.4-0.9,0.5c-0.3,0.1-0.6,0.2-0.9,0.2c-0.3,0-0.5-0.1-0.6-0.2c-0.1-0.1-0.2-0.3-0.1-0.6c-0.4,0.3-0.8,0.5-1.2,0.6
				c-0.4,0.1-0.7,0.2-1.1,0.2c-0.7,0-1.2-0.2-1.5-0.5c-0.3-0.3-0.4-0.8-0.3-1.3c0.1-0.5,0.4-1,0.9-1.4c0.5-0.4,1.2-0.7,2.1-1
				l1.9-0.6c0,0,0-0.1,0-0.1c0,0,0-0.1,0-0.2c0.1-0.5,0-0.8-0.2-1c-0.2-0.2-0.5-0.3-1-0.3c-0.4,0-0.9,0.1-1.3,0.3
				c-0.5,0.2-1,0.4-1.5,0.8l0.3-1.5c0.4-0.3,0.9-0.6,1.4-0.7c0.5-0.2,1-0.2,1.6-0.2c1,0,1.6,0.2,2,0.6c0.4,0.4,0.5,1.1,0.3,2.1
				L285.7,182.3L285.7,182.3z M282.2,181.2c-0.4,0.3-0.7,0.6-0.7,0.9c-0.1,0.3,0,0.6,0.2,0.7c0.2,0.2,0.4,0.3,0.8,0.3
				c0.3,0,0.5,0,0.8-0.1c0.3-0.1,0.5-0.2,0.8-0.4l0.4-2.2C283.4,180.6,282.6,180.9,282.2,181.2L282.2,181.2z M292.7,176.5l-0.2,1.3
				h-2.4l-0.6,3.5c-0.1,0.6-0.1,1,0,1.2c0.1,0.2,0.4,0.3,0.8,0.3c0.2,0,0.5,0,0.7-0.1c0.2-0.1,0.5-0.2,0.7-0.3l-0.3,1.4
				c-0.3,0.1-0.5,0.2-0.8,0.3c-0.3,0.1-0.6,0.1-0.9,0.1c-0.9,0-1.4-0.2-1.7-0.6c-0.3-0.4-0.3-1.1-0.1-2.2l0.6-3.6h-1.3l0-0.1
				l3.2-2.9h0.2l-0.3,1.8H292.7L292.7,176.5z M298,176.5l-0.2,1.3h-2.4l-0.6,3.5c-0.1,0.6-0.1,1,0,1.2c0.1,0.2,0.4,0.3,0.8,0.3
				c0.2,0,0.5,0,0.7-0.1c0.2-0.1,0.5-0.2,0.7-0.3l-0.3,1.4c-0.3,0.1-0.5,0.2-0.8,0.3c-0.3,0.1-0.6,0.1-0.9,0.1
				c-0.9,0-1.4-0.2-1.7-0.6c-0.3-0.4-0.3-1.1-0.1-2.2l0.6-3.6h-1.3l0-0.1l3.2-2.9h0.2l-0.3,1.8H298L298,176.5z"/>
		</defs>
		<clipPath id="SVGID_00000080196647960907553300000000752964003237042822_">
			<use xlink:href="#SVGID_1_"  style="overflow:visible;"/>
		</clipPath>
		<g style="clip-path:url(#SVGID_00000080196647960907553300000000752964003237042822_);">
			
				<image style="overflow:visible;" width="1890" height="827" xlink:href="E92512F24309E50D.jpg"  transform="matrix(0.24 0 0 0.24 0 0)">
			</image>
		</g>
	</g>
	<g>
		<defs>
			<path id="SVGID_00000101098513761995217460000004114348047969772734_" d="M305.3,180.3l0,0.2h-5.7c-0.1,0.7,0.1,1.3,0.4,1.7
				c0.4,0.4,0.9,0.6,1.6,0.6c0.5,0,1-0.1,1.5-0.3c0.6-0.2,1.1-0.4,1.8-0.8l-0.3,1.5c-0.6,0.3-1.1,0.6-1.7,0.7
				c-0.6,0.2-1.1,0.2-1.7,0.2c-1.2,0-2.1-0.4-2.7-1.1c-0.6-0.7-0.8-1.7-0.5-3c0.2-1.1,0.7-2,1.5-2.7c0.8-0.7,1.8-1.1,2.9-1.1
				c1.1,0,1.9,0.4,2.4,1.1C305.4,178.2,305.5,179.1,305.3,180.3L305.3,180.3z M303.4,178.2c-0.3-0.3-0.7-0.5-1.2-0.5
				c-0.6,0-1.1,0.2-1.5,0.5c-0.4,0.3-0.7,0.8-0.9,1.4l4,0C303.8,178.9,303.7,178.5,303.4,178.2L303.4,178.2z M311.6,178.5
				c-0.2-0.2-0.4-0.4-0.6-0.5c-0.2-0.1-0.4-0.1-0.7-0.1c-0.4,0-0.8,0.2-1.2,0.5c-0.4,0.3-0.7,0.8-0.9,1.4l-0.8,4.3H306l1.3-7.6h1.5
				l-0.3,1.6c0.5-0.7,1-1.1,1.4-1.4c0.4-0.3,0.8-0.4,1.2-0.4c0.3,0,0.5,0.1,0.8,0.2c0.3,0.1,0.5,0.3,0.8,0.6L311.6,178.5
				L311.6,178.5z M319.6,180.3l0,0.2h-5.7c-0.1,0.7,0.1,1.3,0.4,1.7c0.4,0.4,0.9,0.6,1.6,0.6c0.5,0,1-0.1,1.5-0.3
				c0.6-0.2,1.1-0.4,1.8-0.8l-0.3,1.5c-0.6,0.3-1.1,0.6-1.7,0.7c-0.6,0.2-1.1,0.2-1.7,0.2c-1.2,0-2.1-0.4-2.7-1.1
				c-0.6-0.7-0.8-1.7-0.5-3c0.2-1.1,0.7-2,1.5-2.7c0.8-0.7,1.8-1.1,2.9-1.1c1.1,0,1.9,0.4,2.4,1.1
				C319.7,178.2,319.8,179.1,319.6,180.3L319.6,180.3z M317.7,178.2c-0.3-0.3-0.7-0.5-1.2-0.5c-0.6,0-1.1,0.2-1.5,0.5
				c-0.4,0.3-0.7,0.8-0.9,1.4l4,0C318.1,178.9,318,178.5,317.7,178.2L317.7,178.2z"/>
		</defs>
		<clipPath id="SVGID_00000047060768916707492190000001546148115371372444_">
			<use xlink:href="#SVGID_00000101098513761995217460000004114348047969772734_"  style="overflow:visible;"/>
		</clipPath>
		<g style="clip-path:url(#SVGID_00000047060768916707492190000001546148115371372444_);">
			
				<image style="overflow:visible;" width="1890" height="827" xlink:href="E92512F24309E50B.jpg"  transform="matrix(0.24 0 0 0.24 0 0)">
			</image>
		</g>
	</g>
	<g>
		<defs>
			<path id="SVGID_00000021080758955340819470000014430155565101545612_" d="M331.6,175.1c-0.4-0.4-0.8-0.7-1.2-0.9
				c-0.4-0.2-0.8-0.3-1.2-0.3c-0.5,0-1,0.1-1.3,0.4c-0.4,0.3-0.6,0.6-0.7,1c-0.1,0.6,0.4,1.3,1.6,2.1c0.1,0.1,0.2,0.1,0.2,0.1
				c1,0.7,1.6,1.3,1.8,1.8c0.2,0.5,0.3,1.2,0.2,1.9c-0.2,0.9-0.6,1.6-1.3,2.2c-0.7,0.6-1.6,0.9-2.6,0.9c-0.6,0-1.2-0.1-1.6-0.3
				c-0.5-0.2-0.9-0.5-1.3-0.8l0.4-2.2c0.4,0.6,0.8,1,1.3,1.3c0.4,0.3,0.9,0.4,1.4,0.4c0.6,0,1-0.1,1.4-0.4c0.4-0.3,0.6-0.6,0.7-1.1
				c0.1-0.4,0-0.7-0.2-1c-0.2-0.3-0.6-0.7-1.4-1.2c-1.1-0.8-1.8-1.5-2.1-1.9c-0.2-0.5-0.3-1-0.2-1.6c0.2-0.9,0.6-1.6,1.3-2.2
				c0.7-0.6,1.6-0.9,2.6-0.9c0.4,0,0.9,0.1,1.3,0.2c0.4,0.1,0.8,0.3,1.2,0.6L331.6,175.1L331.6,175.1z M338.8,178.4
				c-0.3-0.2-0.6-0.4-1-0.5c-0.3-0.1-0.7-0.2-1-0.2c-0.8,0-1.4,0.2-2,0.7c-0.6,0.5-0.9,1.1-1,1.8c-0.1,0.7,0,1.3,0.4,1.8
				c0.4,0.5,1,0.7,1.8,0.7c0.4,0,0.7,0,1.1-0.1c0.4-0.1,0.7-0.2,1.1-0.4l-0.3,1.5c-0.4,0.1-0.8,0.2-1.2,0.3
				c-0.4,0.1-0.7,0.1-1.1,0.1c-1.2,0-2.2-0.4-2.8-1.1c-0.7-0.7-0.9-1.7-0.7-2.8c0.2-1.1,0.8-2.1,1.7-2.8c0.9-0.8,2-1.1,3.2-1.1
				c0.4,0,0.7,0,1.1,0.1c0.3,0.1,0.7,0.2,1,0.4L338.8,178.4L338.8,178.4z M342.7,174.3c0,0.2-0.2,0.4-0.4,0.6
				c-0.2,0.2-0.4,0.2-0.6,0.2c-0.2,0-0.4-0.1-0.6-0.2c-0.1-0.2-0.2-0.4-0.1-0.6c0-0.2,0.2-0.4,0.4-0.6c0.2-0.2,0.4-0.2,0.6-0.2
				c0.2,0,0.4,0.1,0.6,0.2C342.7,173.9,342.7,174.1,342.7,174.3L342.7,174.3z M340.9,184.1h-1.5l1.3-7.6h1.5L340.9,184.1
				L340.9,184.1z M350.2,180.3l0,0.2h-5.7c-0.1,0.7,0.1,1.3,0.4,1.7c0.4,0.4,0.9,0.6,1.6,0.6c0.5,0,1-0.1,1.5-0.3
				c0.6-0.2,1.1-0.4,1.8-0.8l-0.3,1.5c-0.6,0.3-1.1,0.6-1.7,0.7c-0.6,0.2-1.1,0.2-1.7,0.2c-1.2,0-2.1-0.4-2.7-1.1
				c-0.6-0.7-0.8-1.7-0.5-3c0.2-1.1,0.7-2,1.5-2.7c0.8-0.7,1.8-1.1,2.9-1.1c1.1,0,1.9,0.4,2.4,1.1
				C350.3,178.2,350.4,179.1,350.2,180.3L350.2,180.3z M348.3,178.2c-0.3-0.3-0.7-0.5-1.2-0.5c-0.6,0-1.1,0.2-1.5,0.5
				c-0.4,0.3-0.7,0.8-0.9,1.4l4,0C348.7,178.9,348.6,178.5,348.3,178.2L348.3,178.2z M358.2,179.1l-0.9,5h-1.5l0.8-4.6
				c0.1-0.6,0.1-1.1-0.1-1.4c-0.2-0.3-0.6-0.4-1.1-0.4c-0.4,0-0.7,0.1-1.1,0.2c-0.3,0.1-0.6,0.4-1,0.7l-1,5.5h-1.5l1.3-7.6h1.5
				l-0.2,0.9c0.4-0.4,0.9-0.6,1.3-0.8c0.4-0.2,0.8-0.2,1.3-0.2c0.8,0,1.4,0.2,1.8,0.7C358.2,177.6,358.4,178.2,358.2,179.1
				L358.2,179.1z M364.6,176.5l-0.2,1.3H362l-0.6,3.5c-0.1,0.6-0.1,1,0,1.2c0.1,0.2,0.4,0.3,0.8,0.3c0.2,0,0.5,0,0.7-0.1
				c0.2-0.1,0.5-0.2,0.7-0.3l-0.3,1.4c-0.3,0.1-0.5,0.2-0.8,0.3c-0.3,0.1-0.6,0.1-0.9,0.1c-0.9,0-1.4-0.2-1.7-0.6
				c-0.3-0.4-0.3-1.1-0.1-2.2l0.6-3.6h-1.3l0-0.1l3.2-2.9h0.2l-0.3,1.8H364.6L364.6,176.5z M367.8,174.3c0,0.2-0.2,0.4-0.4,0.6
				c-0.2,0.2-0.4,0.2-0.6,0.2c-0.2,0-0.4-0.1-0.6-0.2c-0.1-0.2-0.2-0.4-0.1-0.6c0-0.2,0.2-0.4,0.4-0.6c0.2-0.2,0.4-0.2,0.6-0.2
				c0.2,0,0.4,0.1,0.6,0.2C367.8,173.9,367.9,174.1,367.8,174.3L367.8,174.3z M366,184.1h-1.5l1.3-7.6h1.5L366,184.1L366,184.1z
				 M373.8,174c-0.2,0-0.4-0.1-0.5-0.1c-0.2,0-0.3,0-0.4,0c-0.5,0-0.8,0.1-1,0.4c-0.2,0.3-0.4,0.7-0.5,1.3l-0.2,0.9h1l-0.2,1.3h-1
				l-1.1,6.3h-1.6l1.1-6.3h-1l0.2-1.3h1l0.1-0.7c0.1-0.7,0.2-1.1,0.3-1.4c0.1-0.3,0.2-0.6,0.4-0.8c0.3-0.4,0.6-0.6,1-0.8
				c0.4-0.2,0.9-0.3,1.3-0.3c0.1,0,0.3,0,0.5,0c0.2,0,0.4,0.1,0.7,0.1L373.8,174L373.8,174z M375.6,174.3c0,0.2-0.2,0.4-0.4,0.6
				c-0.2,0.2-0.4,0.2-0.6,0.2c-0.2,0-0.4-0.1-0.6-0.2c-0.1-0.2-0.2-0.4-0.1-0.6c0-0.2,0.2-0.4,0.4-0.6c0.2-0.2,0.4-0.2,0.6-0.2
				c0.2,0,0.4,0.1,0.6,0.2C375.6,173.9,375.7,174.1,375.6,174.3L375.6,174.3z M373.8,184.1h-1.5l1.3-7.6h1.5L373.8,184.1
				L373.8,184.1z M382.5,178.4c-0.3-0.2-0.6-0.4-1-0.5c-0.3-0.1-0.7-0.2-1-0.2c-0.8,0-1.4,0.2-2,0.7c-0.6,0.5-0.9,1.1-1,1.8
				c-0.1,0.7,0,1.3,0.4,1.8c0.4,0.5,1,0.7,1.8,0.7c0.4,0,0.7,0,1.1-0.1c0.4-0.1,0.7-0.2,1.1-0.4l-0.3,1.5c-0.4,0.1-0.8,0.2-1.2,0.3
				c-0.4,0.1-0.7,0.1-1.1,0.1c-1.2,0-2.2-0.4-2.8-1.1c-0.7-0.7-0.9-1.7-0.7-2.8c0.2-1.1,0.8-2.1,1.7-2.8c0.9-0.8,2-1.1,3.2-1.1
				c0.4,0,0.7,0,1.1,0.1c0.3,0.1,0.7,0.2,1,0.4L382.5,178.4L382.5,178.4z M391.2,180.3c-0.1,0.5-0.3,1-0.6,1.5
				c-0.3,0.5-0.7,0.9-1.1,1.3c-0.4,0.4-0.9,0.7-1.4,0.9c-0.5,0.2-1,0.3-1.6,0.3c-1.1,0-2-0.4-2.7-1.1c-0.6-0.8-0.9-1.7-0.7-2.8
				c0.2-1.1,0.7-2,1.7-2.8c0.9-0.8,1.9-1.1,3.1-1.1c0.5,0,1,0.1,1.5,0.3c0.4,0.2,0.8,0.5,1.1,0.9c0.3,0.4,0.5,0.8,0.7,1.3
				C391.3,179.3,391.3,179.8,391.2,180.3L391.2,180.3z M389.2,178.5c-0.4-0.5-0.9-0.7-1.6-0.7c-0.7,0-1.3,0.2-1.8,0.7
				c-0.6,0.5-0.9,1.1-1,1.8c-0.1,0.7,0,1.3,0.4,1.8c0.4,0.5,0.9,0.7,1.6,0.7c0.7,0,1.3-0.2,1.8-0.7c0.6-0.5,0.9-1.1,1-1.8
				C389.7,179.6,389.6,179,389.2,178.5L389.2,178.5z"/>
		</defs>
		<clipPath id="SVGID_00000044866776772594856490000017877277269263846838_">
			<use xlink:href="#SVGID_00000021080758955340819470000014430155565101545612_"  style="overflow:visible;"/>
		</clipPath>
		<g style="clip-path:url(#SVGID_00000044866776772594856490000017877277269263846838_);">
			
				<image style="overflow:visible;" width="1890" height="827" xlink:href="E92512F24309E514.jpg"  transform="matrix(0.24 0 0 0.24 0 0)">
			</image>
		</g>
	</g>
	<g>
		<defs>
			<path id="SVGID_00000021093421883030083440000017276440845537061806_" d="M97.4,156.4c0.1,0.1,0.2,0.1,0.3,0.2
				c1.4,0.8,2.2,1.6,2.7,2.2c0.4,0.6,0.6,1.4,0.6,2.4c0,1.1-0.4,2-1.2,2.7c-0.8,0.7-1.8,1.1-3,1.1c-0.8,0-1.4-0.1-2.1-0.3
				c-0.6-0.2-1.2-0.6-1.8-1v-2.7c0.6,0.7,1.2,1.3,1.8,1.6c0.6,0.3,1.2,0.5,1.9,0.5c0.7,0,1.3-0.2,1.7-0.5c0.4-0.3,0.6-0.8,0.6-1.3
				c0-0.5-0.1-0.9-0.4-1.2c-0.3-0.3-0.9-0.8-2-1.5c-1.6-1-2.6-1.8-3-2.4c-0.4-0.6-0.6-1.2-0.6-2c0-1.1,0.4-2,1.2-2.7
				c0.8-0.7,1.8-1.1,3-1.1c0.5,0,1.1,0.1,1.6,0.2c0.5,0.2,1.1,0.4,1.6,0.7v2.3c-0.6-0.5-1.2-0.9-1.7-1.1c-0.5-0.2-1-0.3-1.6-0.3
				c-0.6,0-1.1,0.2-1.5,0.5c-0.4,0.3-0.6,0.7-0.6,1.2C94.9,154.5,95.7,155.4,97.4,156.4L97.4,156.4z M104.5,153.4
				c-0.2,0.2-0.5,0.3-0.7,0.3c-0.3,0-0.5-0.1-0.7-0.3c-0.2-0.2-0.3-0.5-0.3-0.7c0-0.3,0.1-0.5,0.3-0.7c0.2-0.2,0.5-0.3,0.7-0.3
				c0.3,0,0.5,0.1,0.7,0.3c0.2,0.2,0.3,0.5,0.3,0.7C104.8,152.9,104.7,153.2,104.5,153.4L104.5,153.4z M104.7,164.7h-1.9v-9.3h1.9
				V164.7L104.7,164.7z M109.7,156.8c-0.4,0-0.7,0.1-0.9,0.2c-0.2,0.1-0.3,0.3-0.3,0.6c0,0.5,0.6,1,1.9,1.7c0.1,0,0.1,0.1,0.2,0.1
				c1,0.5,1.7,1,2,1.3c0.3,0.4,0.5,0.9,0.5,1.5c0,0.8-0.3,1.5-0.9,2c-0.6,0.5-1.4,0.7-2.4,0.7c-0.6,0-1.1-0.1-1.7-0.2
				c-0.5-0.1-1-0.3-1.6-0.6v-2c0.6,0.4,1.1,0.7,1.6,0.8c0.5,0.2,1,0.3,1.4,0.3c0.5,0,0.9-0.1,1.1-0.3c0.3-0.2,0.4-0.4,0.4-0.7
				c0-0.4-0.5-0.8-1.5-1.3c-0.3-0.1-0.5-0.3-0.7-0.4c-0.9-0.4-1.5-0.9-1.8-1.3c-0.3-0.4-0.5-0.9-0.5-1.5c0-0.8,0.3-1.4,0.8-1.9
				c0.6-0.5,1.3-0.7,2.3-0.7c0.5,0,1,0.1,1.5,0.2c0.5,0.1,1,0.3,1.4,0.6v1.8c-0.6-0.3-1.1-0.6-1.6-0.7
				C110.6,156.9,110.1,156.8,109.7,156.8L109.7,156.8z M117.2,162.7c0.2,0.2,0.6,0.3,1.1,0.3c0.3,0,0.6,0,0.8-0.1
				c0.3-0.1,0.5-0.2,0.8-0.3v1.8c-0.3,0.2-0.6,0.3-0.9,0.4c-0.3,0.1-0.7,0.1-1.1,0.1c-1,0-1.8-0.2-2.2-0.7c-0.4-0.5-0.6-1.4-0.6-2.7
				V157h-1.6v-0.2l3.3-3.6h0.2v2.2h2.9v1.6h-2.9v4.3C116.9,162,117,162.5,117.2,162.7L117.2,162.7z M122.6,160.3
				c0.1,0.9,0.3,1.6,0.9,2.1c0.5,0.5,1.2,0.7,2.1,0.7c0.6,0,1.2-0.1,1.9-0.3c0.6-0.2,1.3-0.6,2-1v1.9c-0.6,0.4-1.3,0.7-1.9,0.9
				c-0.7,0.2-1.3,0.3-2,0.3c-1.5,0-2.6-0.5-3.5-1.4c-0.9-0.9-1.3-2.1-1.3-3.6c0-1.4,0.4-2.5,1.3-3.4c0.8-0.9,1.9-1.3,3.3-1.3
				c1.3,0,2.4,0.4,3.2,1.3c0.8,0.9,1.2,2.1,1.2,3.6v0.3H122.6L122.6,160.3z M126.8,157.4c-0.4-0.4-1-0.6-1.6-0.6
				c-0.7,0-1.3,0.2-1.7,0.6c-0.4,0.4-0.7,0.9-0.9,1.7l4.9,0C127.5,158.3,127.3,157.8,126.8,157.4L126.8,157.4z M143.5,164.7V159
				c0-0.8-0.2-1.3-0.5-1.7c-0.3-0.4-0.8-0.5-1.5-0.5c-0.5,0-0.9,0.1-1.3,0.3c-0.4,0.2-0.7,0.5-1.1,0.9v6.7h-1.8V159
				c0-0.8-0.2-1.3-0.5-1.7c-0.3-0.4-0.8-0.5-1.5-0.5c-0.5,0-0.9,0.1-1.3,0.3c-0.4,0.2-0.7,0.5-1.1,0.9v6.7h-1.9v-9.3h1.9v1.1
				c0.5-0.4,0.9-0.8,1.4-1c0.5-0.2,1-0.3,1.5-0.3c0.7,0,1.3,0.1,1.7,0.4c0.5,0.3,0.8,0.7,1.2,1.2c0.6-0.6,1.1-1,1.6-1.2
				c0.5-0.2,1-0.4,1.6-0.4c1,0,1.8,0.3,2.4,0.9c0.6,0.6,0.9,1.4,0.9,2.4v6.2H143.5L143.5,164.7z M154.4,164.6
				c-0.3,0.1-0.7,0.2-1.1,0.2c-0.4,0-0.6-0.1-0.8-0.2c-0.2-0.1-0.3-0.4-0.3-0.7c-0.5,0.3-0.9,0.6-1.3,0.7c-0.4,0.1-0.9,0.2-1.4,0.2
				c-0.8,0-1.5-0.2-2-0.6c-0.5-0.4-0.7-1-0.7-1.7c0-0.7,0.3-1.2,0.8-1.7c0.5-0.5,1.3-0.9,2.3-1.3l2.2-0.7c0-0.1,0-0.1,0-0.2
				c0-0.1,0-0.1,0-0.2c0-0.6-0.1-1-0.4-1.2c-0.3-0.2-0.7-0.4-1.3-0.4c-0.5,0-1.1,0.1-1.6,0.3c-0.6,0.2-1.1,0.5-1.7,1v-1.8
				c0.5-0.4,1-0.7,1.6-0.9c0.6-0.2,1.2-0.3,1.9-0.3c1.2,0,2.1,0.3,2.6,0.8c0.5,0.5,0.8,1.4,0.8,2.6v3.9c0,0.3,0,0.6,0.1,0.7
				c0.1,0.1,0.2,0.2,0.3,0.2c0.1,0,0.2,0,0.4-0.1c0.1-0.1,0.3-0.2,0.6-0.4v1.1C155.1,164.3,154.7,164.5,154.4,164.6L154.4,164.6z
				 M152.1,160c-1.3,0.4-2.1,0.8-2.6,1.1c-0.5,0.3-0.7,0.7-0.7,1.2c0,0.4,0.1,0.7,0.4,0.9c0.2,0.2,0.6,0.3,1,0.3
				c0.3,0,0.7-0.1,1-0.2c0.3-0.1,0.6-0.3,0.9-0.5V160L152.1,160z M165.5,156.4c0.1,0.1,0.2,0.1,0.3,0.2c1.4,0.8,2.2,1.6,2.7,2.2
				c0.4,0.6,0.6,1.4,0.6,2.4c0,1.1-0.4,2-1.2,2.7c-0.8,0.7-1.8,1.1-3,1.1c-0.8,0-1.4-0.1-2.1-0.3c-0.6-0.2-1.2-0.6-1.8-1v-2.7
				c0.6,0.7,1.2,1.3,1.8,1.6c0.6,0.3,1.2,0.5,1.9,0.5c0.7,0,1.3-0.2,1.7-0.5c0.4-0.3,0.6-0.8,0.6-1.3c0-0.5-0.1-0.9-0.4-1.2
				c-0.3-0.3-0.9-0.8-2-1.5c-1.6-1-2.6-1.8-3-2.4c-0.4-0.6-0.6-1.2-0.6-2c0-1.1,0.4-2,1.2-2.7c0.8-0.7,1.8-1.1,3-1.1
				c0.5,0,1.1,0.1,1.6,0.2c0.5,0.2,1.1,0.4,1.6,0.7v2.3c-0.6-0.5-1.2-0.9-1.7-1.1c-0.5-0.2-1-0.3-1.6-0.3c-0.6,0-1.1,0.2-1.5,0.5
				c-0.4,0.3-0.6,0.7-0.6,1.2C163,154.5,163.9,155.4,165.5,156.4L165.5,156.4z M177.8,164.6c-0.3,0.1-0.7,0.2-1.1,0.2
				c-0.4,0-0.6-0.1-0.8-0.2c-0.2-0.1-0.3-0.4-0.3-0.7c-0.5,0.3-0.9,0.6-1.3,0.7c-0.4,0.1-0.9,0.2-1.4,0.2c-0.8,0-1.5-0.2-2-0.6
				c-0.5-0.4-0.7-1-0.7-1.7c0-0.7,0.3-1.2,0.8-1.7c0.5-0.5,1.3-0.9,2.3-1.3l2.2-0.7c0-0.1,0-0.1,0-0.2c0-0.1,0-0.1,0-0.2
				c0-0.6-0.1-1-0.4-1.2c-0.3-0.2-0.7-0.4-1.3-0.4c-0.5,0-1.1,0.1-1.6,0.3c-0.6,0.2-1.1,0.5-1.7,1v-1.8c0.5-0.4,1-0.7,1.6-0.9
				c0.6-0.2,1.2-0.3,1.9-0.3c1.2,0,2.1,0.3,2.6,0.8c0.5,0.5,0.8,1.4,0.8,2.6v3.9c0,0.3,0,0.6,0.1,0.7c0.1,0.1,0.2,0.2,0.3,0.2
				c0.1,0,0.2,0,0.4-0.1c0.1-0.1,0.3-0.2,0.6-0.4v1.1C178.5,164.3,178.1,164.5,177.8,164.6L177.8,164.6z M175.5,160
				c-1.3,0.4-2.1,0.8-2.6,1.1c-0.5,0.3-0.7,0.7-0.7,1.2c0,0.4,0.1,0.7,0.4,0.9c0.2,0.2,0.6,0.3,1,0.3c0.3,0,0.7-0.1,1-0.2
				c0.3-0.1,0.6-0.3,0.9-0.5V160L175.5,160z M185.9,164.7V159c0-0.8-0.2-1.3-0.5-1.7c-0.3-0.4-0.8-0.5-1.5-0.5
				c-0.5,0-0.9,0.1-1.3,0.3c-0.4,0.2-0.7,0.5-1.1,0.9v6.7h-1.9v-9.3h1.9v1.1c0.5-0.4,0.9-0.8,1.4-1c0.5-0.2,1-0.3,1.5-0.3
				c1,0,1.8,0.3,2.4,0.9c0.6,0.6,0.9,1.4,0.9,2.4v6.2H185.9L185.9,164.7z M191.7,153.4c-0.2,0.2-0.5,0.3-0.7,0.3
				c-0.3,0-0.5-0.1-0.7-0.3c-0.2-0.2-0.3-0.5-0.3-0.7c0-0.3,0.1-0.5,0.3-0.7c0.2-0.2,0.5-0.3,0.7-0.3c0.3,0,0.5,0.1,0.7,0.3
				c0.2,0.2,0.3,0.5,0.3,0.7C192,152.9,191.9,153.2,191.7,153.4L191.7,153.4z M191.9,164.7h-1.9v-9.3h1.9V164.7L191.9,164.7z
				 M196.7,162.7c0.2,0.2,0.6,0.3,1.1,0.3c0.3,0,0.6,0,0.8-0.1c0.3-0.1,0.5-0.2,0.8-0.3v1.8c-0.3,0.2-0.6,0.3-0.9,0.4
				c-0.3,0.1-0.7,0.1-1.1,0.1c-1,0-1.8-0.2-2.2-0.7c-0.4-0.5-0.6-1.4-0.6-2.7V157H193v-0.2l3.3-3.6h0.2v2.2h2.9v1.6h-2.9v4.3
				C196.4,162,196.5,162.5,196.7,162.7L196.7,162.7z M207.6,164.6c-0.3,0.1-0.7,0.2-1.1,0.2c-0.4,0-0.6-0.1-0.8-0.2
				c-0.2-0.1-0.3-0.4-0.3-0.7c-0.5,0.3-0.9,0.6-1.3,0.7c-0.4,0.1-0.9,0.2-1.4,0.2c-0.8,0-1.5-0.2-2-0.6c-0.5-0.4-0.7-1-0.7-1.7
				c0-0.7,0.3-1.2,0.8-1.7c0.5-0.5,1.3-0.9,2.3-1.3l2.2-0.7c0-0.1,0-0.1,0-0.2c0-0.1,0-0.1,0-0.2c0-0.6-0.1-1-0.4-1.2
				c-0.3-0.2-0.7-0.4-1.3-0.4c-0.5,0-1.1,0.1-1.6,0.3s-1.1,0.5-1.7,1v-1.8c0.5-0.4,1-0.7,1.6-0.9c0.6-0.2,1.2-0.3,1.9-0.3
				c1.2,0,2.1,0.3,2.6,0.8s0.8,1.4,0.8,2.6v3.9c0,0.3,0,0.6,0.1,0.7c0.1,0.1,0.2,0.2,0.3,0.2c0.1,0,0.2,0,0.4-0.1
				c0.1-0.1,0.3-0.2,0.6-0.4v1.1C208.3,164.3,208,164.5,207.6,164.6L207.6,164.6z M205.4,160c-1.3,0.4-2.1,0.8-2.6,1.1
				c-0.5,0.3-0.7,0.7-0.7,1.2c0,0.4,0.1,0.7,0.4,0.9c0.2,0.2,0.6,0.3,1,0.3c0.3,0,0.7-0.1,1-0.2c0.3-0.1,0.6-0.3,0.9-0.5V160
				L205.4,160z M215.4,157.8c-0.3-0.3-0.6-0.5-0.9-0.6c-0.3-0.1-0.6-0.2-0.9-0.2c-0.5,0-0.9,0.2-1.3,0.6c-0.4,0.4-0.6,1-0.8,1.8v5.3
				h-1.9v-9.3h1.9v2c0.5-0.8,1-1.4,1.4-1.7c0.4-0.3,0.9-0.5,1.3-0.5c0.3,0,0.7,0.1,1,0.2c0.3,0.1,0.7,0.4,1.1,0.7L215.4,157.8
				L215.4,157.8z M219,153.4c-0.2,0.2-0.5,0.3-0.7,0.3c-0.3,0-0.5-0.1-0.7-0.3c-0.2-0.2-0.3-0.5-0.3-0.7c0-0.3,0.1-0.5,0.3-0.7
				c0.2-0.2,0.5-0.3,0.7-0.3c0.3,0,0.5,0.1,0.7,0.3c0.2,0.2,0.3,0.5,0.3,0.7C219.3,152.9,219.2,153.2,219,153.4L219,153.4z
				 M219.2,164.7h-1.9v-9.3h1.9V164.7L219.2,164.7z M230.5,161.9c-0.3,0.6-0.6,1.1-1.1,1.6c-0.5,0.5-1,0.8-1.6,1
				c-0.6,0.2-1.2,0.4-1.9,0.4c-1.4,0-2.6-0.5-3.5-1.4c-1-0.9-1.4-2.1-1.4-3.4c0-1.4,0.5-2.5,1.4-3.4c1-0.9,2.1-1.4,3.5-1.4
				c0.7,0,1.3,0.1,1.9,0.4c0.6,0.2,1.1,0.6,1.6,1.1c0.5,0.5,0.8,1,1.1,1.6c0.2,0.6,0.4,1.2,0.4,1.8
				C230.9,160.6,230.7,161.3,230.5,161.9L230.5,161.9z M228,157.8c-0.6-0.6-1.3-0.9-2.1-0.9c-0.8,0-1.5,0.3-2.1,0.9
				c-0.6,0.6-0.9,1.3-0.9,2.2c0,0.9,0.3,1.6,0.9,2.2c0.6,0.6,1.3,0.9,2.1,0.9c0.8,0,1.5-0.3,2.1-0.9c0.6-0.6,0.9-1.4,0.9-2.2
				C228.9,159.2,228.6,158.4,228,157.8L228,157.8z M243.9,157.9c0.2,0.1,0.5,0.3,0.7,0.5c0.2,0.2,0.5,0.6,0.8,1.1l3.4,5.2h-2.4
				l-2.4-3.7c-0.7-1.1-1.3-1.8-1.8-2.1c-0.4-0.3-1-0.5-1.6-0.5H240v6.3h-2v-14.1h4.1c1.4,0,2.5,0.3,3.3,1c0.8,0.7,1.2,1.6,1.2,2.9
				c0,0.9-0.2,1.7-0.6,2.2C245.5,157.2,244.8,157.7,243.9,157.9L243.9,157.9z M243.8,152.8c-0.4-0.3-1.2-0.5-2.2-0.5H240v4.4h1.7
				c0.9,0,1.6-0.2,2.1-0.5c0.5-0.4,0.7-0.9,0.7-1.7C244.4,153.7,244.2,153.1,243.8,152.8L243.8,152.8z M250.2,160.3
				c0.1,0.9,0.3,1.6,0.9,2.1c0.5,0.5,1.2,0.7,2.1,0.7c0.6,0,1.2-0.1,1.9-0.3c0.6-0.2,1.3-0.6,2-1v1.9c-0.6,0.4-1.3,0.7-1.9,0.9
				c-0.7,0.2-1.3,0.3-2,0.3c-1.5,0-2.6-0.5-3.5-1.4c-0.9-0.9-1.3-2.1-1.3-3.6c0-1.4,0.4-2.5,1.3-3.4c0.8-0.9,1.9-1.3,3.3-1.3
				c1.3,0,2.4,0.4,3.2,1.3c0.8,0.9,1.2,2.1,1.2,3.6v0.3H250.2L250.2,160.3z M254.4,157.4c-0.4-0.4-1-0.6-1.6-0.6
				c-0.7,0-1.3,0.2-1.7,0.6c-0.4,0.4-0.7,0.9-0.9,1.7l4.9,0C255.1,158.3,254.8,157.8,254.4,157.4L254.4,157.4z M265.6,157.7
				c0.1,0.3,0.2,0.6,0.2,1c0,0.8-0.2,1.4-0.7,2c-0.5,0.6-1.1,0.9-1.9,1c-0.2,0-0.4,0.1-0.7,0.1c-1,0.2-1.5,0.4-1.5,0.8
				c0,0.4,0.7,0.7,2.2,1c0.3,0.1,0.6,0.1,0.8,0.2c0.9,0.2,1.6,0.5,2,0.9c0.5,0.4,0.7,1,0.7,1.7c0,0.9-0.4,1.7-1.2,2.2
				c-0.8,0.5-1.9,0.7-3.4,0.7c-1.5,0-2.6-0.2-3.4-0.7c-0.8-0.5-1.2-1.2-1.2-2.1c0-0.7,0.2-1.2,0.7-1.6c0.5-0.4,1.1-0.7,2-0.9
				c-0.4-0.2-0.6-0.3-0.8-0.5c-0.2-0.2-0.2-0.4-0.2-0.6c0-0.2,0.1-0.5,0.3-0.7c0.2-0.2,0.5-0.4,1-0.6c-0.7-0.2-1.2-0.6-1.6-1.1
				c-0.4-0.5-0.5-1.1-0.5-1.8c0-1.1,0.4-2,1.2-2.6c0.8-0.6,1.9-0.9,3.5-0.9h3.7v1.5h-1.6C265.3,157.1,265.5,157.4,265.6,157.7
				L265.6,157.7z M260,165.5c-0.4,0.2-0.6,0.5-0.6,0.9c0,0.5,0.2,0.8,0.7,1c0.5,0.2,1.1,0.3,2,0.3c0.9,0,1.5-0.1,2-0.3
				c0.5-0.2,0.7-0.5,0.7-0.9c0-0.4-0.3-0.8-0.8-1c-0.6-0.2-1.4-0.3-2.5-0.3C260.9,165.2,260.4,165.3,260,165.5L260,165.5z
				 M263.5,157.4c-0.4-0.3-0.9-0.5-1.4-0.5c-0.6,0-1,0.2-1.4,0.5c-0.4,0.3-0.5,0.8-0.5,1.3c0,0.5,0.2,1,0.5,1.3
				c0.3,0.3,0.8,0.5,1.4,0.5c0.6,0,1.1-0.2,1.5-0.5c0.4-0.3,0.5-0.7,0.5-1.3C264.1,158.2,263.9,157.8,263.5,157.4L263.5,157.4z
				 M269.7,153.4c-0.2,0.2-0.5,0.3-0.7,0.3c-0.3,0-0.5-0.1-0.7-0.3c-0.2-0.2-0.3-0.5-0.3-0.7c0-0.3,0.1-0.5,0.3-0.7
				c0.2-0.2,0.5-0.3,0.7-0.3c0.3,0,0.5,0.1,0.7,0.3c0.2,0.2,0.3,0.5,0.3,0.7C270,152.9,269.9,153.2,269.7,153.4L269.7,153.4z
				 M269.9,164.7H268v-9.3h1.9V164.7L269.9,164.7z M281.1,161.9c-0.3,0.6-0.6,1.1-1.1,1.6c-0.5,0.5-1,0.8-1.6,1
				c-0.6,0.2-1.2,0.4-1.9,0.4c-1.4,0-2.6-0.5-3.5-1.4c-1-0.9-1.4-2.1-1.4-3.4c0-1.4,0.5-2.5,1.4-3.4c1-0.9,2.1-1.4,3.5-1.4
				c0.7,0,1.3,0.1,1.9,0.4c0.6,0.2,1.1,0.6,1.6,1.1c0.5,0.5,0.8,1,1.1,1.6c0.2,0.6,0.4,1.2,0.4,1.8
				C281.5,160.6,281.4,161.3,281.1,161.9L281.1,161.9z M278.7,157.8c-0.6-0.6-1.3-0.9-2.1-0.9s-1.5,0.3-2.1,0.9
				c-0.6,0.6-0.9,1.3-0.9,2.2c0,0.9,0.3,1.6,0.9,2.2c0.6,0.6,1.3,0.9,2.1,0.9c0.8,0,1.5-0.3,2.1-0.9c0.6-0.6,0.9-1.4,0.9-2.2
				C279.5,159.2,279.2,158.4,278.7,157.8L278.7,157.8z M289.3,164.7V159c0-0.8-0.2-1.3-0.5-1.7c-0.3-0.4-0.8-0.5-1.5-0.5
				c-0.5,0-0.9,0.1-1.3,0.3c-0.4,0.2-0.7,0.5-1.1,0.9v6.7h-1.9v-9.3h1.9v1.1c0.5-0.4,0.9-0.8,1.4-1c0.5-0.2,1-0.3,1.5-0.3
				c1,0,1.8,0.3,2.4,0.9c0.6,0.6,0.9,1.4,0.9,2.4v6.2H289.3L289.3,164.7z M294.7,160.3c0.1,0.9,0.3,1.6,0.9,2.1
				c0.5,0.5,1.2,0.7,2.1,0.7c0.6,0,1.2-0.1,1.9-0.3c0.6-0.2,1.3-0.6,2-1v1.9c-0.6,0.4-1.3,0.7-1.9,0.9c-0.7,0.2-1.3,0.3-2,0.3
				c-1.5,0-2.6-0.5-3.5-1.4c-0.9-0.9-1.3-2.1-1.3-3.6c0-1.4,0.4-2.5,1.3-3.4c0.8-0.9,1.9-1.3,3.3-1.3c1.3,0,2.4,0.4,3.2,1.3
				c0.8,0.9,1.2,2.1,1.2,3.6v0.3H294.7L294.7,160.3z M298.9,157.4c-0.4-0.4-1-0.6-1.6-0.6c-0.7,0-1.3,0.2-1.7,0.6
				c-0.4,0.4-0.7,0.9-0.9,1.7l4.9,0C299.6,158.3,299.4,157.8,298.9,157.4L298.9,157.4z M308.8,164.7v-14.1h2v12.3h6.7v1.8H308.8
				L308.8,164.7z M320.5,153.4c-0.2,0.2-0.5,0.3-0.7,0.3c-0.3,0-0.5-0.1-0.7-0.3c-0.2-0.2-0.3-0.5-0.3-0.7c0-0.3,0.1-0.5,0.3-0.7
				c0.2-0.2,0.5-0.3,0.7-0.3c0.3,0,0.5,0.1,0.7,0.3c0.2,0.2,0.3,0.5,0.3,0.7C320.8,152.9,320.7,153.2,320.5,153.4L320.5,153.4z
				 M320.7,164.7h-1.9v-9.3h1.9V164.7L320.7,164.7z M329.9,157.7c0.1,0.3,0.2,0.6,0.2,1c0,0.8-0.2,1.4-0.7,2c-0.5,0.6-1.1,0.9-1.9,1
				c-0.2,0-0.4,0.1-0.7,0.1c-1,0.2-1.5,0.4-1.5,0.8c0,0.4,0.7,0.7,2.1,1c0.4,0.1,0.6,0.1,0.8,0.2c0.9,0.2,1.6,0.5,2,0.9
				c0.5,0.4,0.7,1,0.7,1.7c0,0.9-0.4,1.7-1.2,2.2c-0.8,0.5-1.9,0.7-3.4,0.7c-1.5,0-2.6-0.2-3.4-0.7c-0.8-0.5-1.2-1.2-1.2-2.1
				c0-0.7,0.2-1.2,0.7-1.6c0.5-0.4,1.1-0.7,2-0.9c-0.4-0.2-0.6-0.3-0.8-0.5c-0.2-0.2-0.2-0.4-0.2-0.6c0-0.2,0.1-0.5,0.3-0.7
				c0.2-0.2,0.5-0.4,1-0.6c-0.7-0.2-1.2-0.6-1.6-1.1c-0.4-0.5-0.6-1.1-0.6-1.8c0-1.1,0.4-2,1.2-2.6c0.8-0.6,1.9-0.9,3.5-0.9h3.7v1.5
				h-1.6C329.6,157.1,329.8,157.4,329.9,157.7L329.9,157.7z M324.2,165.5c-0.4,0.2-0.6,0.5-0.6,0.9c0,0.5,0.2,0.8,0.7,1
				c0.5,0.2,1.1,0.3,2,0.3c0.9,0,1.5-0.1,2-0.3c0.5-0.2,0.7-0.5,0.7-0.9c0-0.4-0.3-0.8-0.8-1c-0.6-0.2-1.4-0.3-2.5-0.3
				C325.1,165.2,324.6,165.3,324.2,165.5L324.2,165.5z M327.7,157.4c-0.4-0.3-0.8-0.5-1.4-0.5c-0.6,0-1,0.2-1.4,0.5
				c-0.4,0.3-0.5,0.8-0.5,1.3c0,0.5,0.2,1,0.5,1.3c0.3,0.3,0.8,0.5,1.4,0.5c0.6,0,1.1-0.2,1.5-0.5c0.4-0.3,0.5-0.7,0.5-1.3
				C328.3,158.2,328.1,157.8,327.7,157.4L327.7,157.4z M338.3,164.7v-1.1c-0.5,0.4-0.9,0.8-1.4,1c-0.5,0.2-1,0.3-1.5,0.3
				c-1,0-1.8-0.3-2.4-0.9c-0.6-0.6-0.9-1.4-0.9-2.4v-6.2h1.9v5.7c0,0.8,0.2,1.3,0.5,1.7c0.3,0.4,0.8,0.5,1.5,0.5
				c0.5,0,0.9-0.1,1.3-0.3c0.4-0.2,0.7-0.5,1.1-0.9v-6.7h1.9v9.3H338.3L338.3,164.7z M348.1,157.8c-0.3-0.3-0.6-0.5-0.9-0.6
				c-0.3-0.1-0.6-0.2-0.9-0.2c-0.5,0-0.9,0.2-1.3,0.6c-0.4,0.4-0.6,1-0.8,1.8v5.3h-1.9v-9.3h1.9v2c0.5-0.8,1-1.4,1.4-1.7
				c0.4-0.3,0.9-0.5,1.3-0.5c0.3,0,0.7,0.1,1,0.2c0.3,0.1,0.7,0.4,1.1,0.7L348.1,157.8L348.1,157.8z M351.8,153.4
				c-0.2,0.2-0.5,0.3-0.7,0.3c-0.3,0-0.5-0.1-0.7-0.3c-0.2-0.2-0.3-0.5-0.3-0.7c0-0.3,0.1-0.5,0.3-0.7c0.2-0.2,0.5-0.3,0.7-0.3
				c0.3,0,0.5,0.1,0.7,0.3c0.2,0.2,0.3,0.5,0.3,0.7C352.1,152.9,352,153.2,351.8,153.4L351.8,153.4z M351.9,164.7h-1.9v-9.3h1.9
				V164.7L351.9,164.7z M361.1,164.6c-0.3,0.1-0.7,0.2-1.1,0.2c-0.4,0-0.6-0.1-0.8-0.2c-0.2-0.1-0.3-0.4-0.3-0.7
				c-0.5,0.3-0.9,0.6-1.3,0.7c-0.4,0.1-0.9,0.2-1.4,0.2c-0.8,0-1.5-0.2-2-0.6c-0.5-0.4-0.7-1-0.7-1.7c0-0.7,0.3-1.2,0.8-1.7
				c0.5-0.5,1.3-0.9,2.3-1.3l2.2-0.7c0-0.1,0-0.1,0-0.2c0-0.1,0-0.1,0-0.2c0-0.6-0.1-1-0.4-1.2c-0.3-0.2-0.7-0.4-1.3-0.4
				c-0.5,0-1.1,0.1-1.6,0.3c-0.6,0.2-1.1,0.5-1.7,1v-1.8c0.5-0.4,1-0.7,1.6-0.9c0.6-0.2,1.2-0.3,1.9-0.3c1.2,0,2.1,0.3,2.6,0.8
				c0.5,0.5,0.8,1.4,0.8,2.6v3.9c0,0.3,0,0.6,0.1,0.7c0.1,0.1,0.2,0.2,0.3,0.2c0.1,0,0.2,0,0.4-0.1c0.1-0.1,0.3-0.2,0.6-0.4v1.1
				C361.8,164.3,361.5,164.5,361.1,164.6L361.1,164.6z M358.9,160c-1.3,0.4-2.1,0.8-2.6,1.1c-0.5,0.3-0.7,0.7-0.7,1.2
				c0,0.4,0.1,0.7,0.4,0.9c0.2,0.2,0.6,0.3,1,0.3c0.3,0,0.7-0.1,1-0.2c0.3-0.1,0.6-0.3,0.9-0.5V160L358.9,160z"/>
		</defs>
		<clipPath id="SVGID_00000145033498972278701690000006431870849605087374_">
			<use xlink:href="#SVGID_00000021093421883030083440000017276440845537061806_"  style="overflow:visible;"/>
		</clipPath>
		<g style="clip-path:url(#SVGID_00000145033498972278701690000006431870849605087374_);">
			
				<image style="overflow:visible;" width="1890" height="827" xlink:href="E92512F24309E517.jpg"  transform="matrix(0.24 0 0 0.24 0 0)">
			</image>
		</g>
	</g>
	<g>
		<defs>
			<path id="SVGID_00000031201175227549767790000005468019067956014003_" d="M26.3,142.5c-1.6,1.6-3.7,2.4-6.3,2.4
				c-2.6,0-4.7-0.7-6.3-2.2c-1.6-1.4-2.4-3.3-2.4-5.7c0-2.6,0.8-4.7,2.4-6.3c1.6-1.6,3.7-2.4,6.3-2.4c2.6,0,4.7,0.7,6.3,2.2
				c1.6,1.4,2.4,3.4,2.4,5.7C28.7,138.8,27.9,140.9,26.3,142.5L26.3,142.5z M23.5,131.5c-0.9-1.2-2.1-1.7-3.6-1.7
				c-1.5,0-2.7,0.6-3.6,1.9c-0.9,1.3-1.3,3.1-1.3,5.3c0,2,0.4,3.5,1.3,4.7c0.9,1.2,2.1,1.7,3.6,1.7c1.5,0,2.7-0.6,3.6-1.9
				c0.9-1.3,1.3-3,1.3-5.3C24.9,134.3,24.4,132.7,23.5,131.5L23.5,131.5z M39.1,131.7l-0.4,0c-0.2-0.7-0.6-1.1-1-1.4
				c-0.4-0.3-1-0.4-1.7-0.4c-0.7,0-1.3,0.2-1.7,0.6c-0.5,0.4-0.7,0.9-0.7,1.5c0,0.6,0.2,1.1,0.7,1.6c0.4,0.4,1.3,0.9,2.5,1.5
				c1.3,0.6,2.2,1.3,2.8,2.1c0.6,0.8,0.9,1.7,0.9,2.8c0,1.5-0.5,2.7-1.6,3.7c-1.1,1-2.4,1.5-4.1,1.5c-0.7,0-1.4-0.1-2.1-0.2
				c-0.7-0.2-1.4-0.4-2-0.7c0.2-0.5,0.3-1,0.4-1.4c0.1-0.4,0.2-0.9,0.3-1.4l0.5,0c0.3,0.8,0.7,1.5,1.2,1.8c0.5,0.4,1.2,0.6,2,0.6
				c0.8,0,1.4-0.2,1.9-0.7c0.5-0.4,0.8-1,0.8-1.7c0-0.6-0.2-1.2-0.7-1.6c-0.5-0.4-1.4-1-2.7-1.6c-1.2-0.6-2.1-1.2-2.7-2
				c-0.6-0.7-0.8-1.6-0.8-2.7c0-1.4,0.5-2.6,1.5-3.6c1-0.9,2.2-1.4,3.7-1.4c0.7,0,1.3,0.1,1.9,0.3c0.6,0.2,1.3,0.4,2,0.8
				c-0.2,0.4-0.3,0.8-0.4,1.1C39.3,130.8,39.2,131.2,39.1,131.7L39.1,131.7z M52.4,136.5c-1,0.8-2.4,1.2-4.3,1.2l-1.4,0
				c0,1.5,0,2.9,0,4.1c0,0.8,0,1.4,0.1,1.8c0,0.4,0.1,0.8,0.1,1.1c-0.6,0-1.2-0.1-1.9-0.1c-0.7,0-1.3,0-1.9,0.1
				c0-0.4,0.1-0.7,0.1-1.1c0-0.4,0-1,0.1-1.8c0-1.5,0.1-3.3,0-5.2c0-1.9,0-3.6,0-5.2c0-0.8,0-1.4-0.1-1.8c0-0.4-0.1-0.8-0.1-1.1
				l1.9,0.1l4.2-0.1c1.5,0,2.6,0.4,3.4,1.2c0.8,0.8,1.2,1.9,1.2,3.4C53.9,134.6,53.4,135.7,52.4,136.5L52.4,136.5z M49.6,130.8
				c-0.4-0.5-1-0.7-1.7-0.7l-1,0c0,1.8-0.1,3.8-0.1,6.1l0.6,0c0.9,0,1.6-0.3,2.1-0.9c0.5-0.6,0.7-1.4,0.7-2.5
				C50.2,131.9,50,131.3,49.6,130.8L49.6,130.8z M60.1,142.9h0.6c0.9,0,1.8,0,2.8-0.1c0.9,0,1.5-0.1,1.8-0.2c0,0.3-0.1,0.7-0.1,1.1
				s0,0.8,0.1,1.1c-0.7-0.1-1.5-0.1-2.4-0.1c-0.9,0-1.7-0.1-2.2-0.1h-0.8c-0.6,0-1.2,0-1.9,0.1c-0.7,0-1.2,0.1-1.6,0.1
				c0-0.4,0.1-0.7,0.1-1.1c0-0.4,0-1,0.1-1.8c0-1.6,0-3.3,0-5.3c0-2,0-3.7,0-5.3c0-0.8,0-1.4-0.1-1.8c0-0.4-0.1-0.8-0.1-1.1
				c0.4,0.1,1,0.1,1.6,0.1c0.7,0,1.3,0.1,1.9,0.1h0.8c1,0,2,0,2.9-0.1c0.9,0,1.5-0.1,1.7-0.1c0,0.3-0.1,0.7-0.1,1.1
				c0,0.4,0,0.8,0.1,1.1c-0.3-0.1-0.8-0.1-1.6-0.2c-0.8,0-1.6-0.1-2.4-0.1h-0.4l-0.9,0v5.1l1.8,0c0.7,0,1.3,0,2-0.1
				c0.7,0,1.2-0.1,1.4-0.1c0,0.3-0.1,0.6-0.1,1c0,0.4,0,0.7,0.1,1c-0.3,0-0.7-0.1-1.4-0.1c-0.7,0-1.4-0.1-2-0.1l-1.8,0v5.7
				L60.1,142.9L60.1,142.9z M81,142.6c-1.5,1.5-3.6,2.2-6.4,2.2c-0.2,0-0.7,0-1.4-0.1c-0.7,0-1.5-0.1-2.4-0.1c-0.3,0-0.8,0-1.2,0
				c-0.5,0-0.9,0.1-1.3,0.2c0-0.4,0.1-0.7,0.1-1.1c0-0.4,0-1,0.1-1.8c0-1.6,0-3.3,0-5.3c0-2,0-3.7,0-5.3c0-0.8,0-1.4-0.1-1.8
				c0-0.4-0.1-0.8-0.1-1.1c0.5,0.1,1.1,0.1,1.8,0.2c0.7,0,1.3,0,1.8,0c0.8-0.1,1.6-0.1,2.3-0.1c0.7,0,1.2-0.1,1.3-0.1
				c2.5,0,4.4,0.7,5.7,2c1.3,1.4,2,3.3,2,5.8C83.3,139,82.5,141.1,81,142.6L81,142.6z M78.1,131.6c-0.9-1-2.3-1.5-4-1.5
				c-0.8,0-1.5,0-2.1,0.1c0,1.8-0.1,4-0.1,6.4c0,2.5,0,4.6,0.1,6.4c0.7,0.1,1.4,0.1,2.2,0.1c1.7,0,3.1-0.6,4-1.8
				c0.9-1.2,1.4-2.9,1.4-5.2C79.5,134.2,79,132.7,78.1,131.6L78.1,131.6z M97.5,144.6c-0.8,0-1.5,0-2.1,0.1
				c-0.2-0.8-0.4-1.4-0.5-1.8c-0.1-0.4-0.2-0.7-0.4-1l-0.7-1.8c-0.9-0.1-1.9-0.2-3-0.2c-0.9,0-1.7,0.1-2.5,0.2
				c-0.2,0.6-0.5,1.2-0.7,1.7c-0.1,0.2-0.2,0.5-0.3,0.9c-0.1,0.4-0.3,1.1-0.6,2c-0.4,0-0.8-0.1-1.2-0.1c-0.5,0-0.9,0-1.2,0.1
				c0.1-0.2,0.3-0.6,0.5-0.9c0.2-0.4,0.5-1,0.9-1.9c0.7-1.5,1.4-3.2,2.2-5.1c1.3-3.2,2.4-5.9,3.2-8.1c0.3,0,0.7,0.1,0.9,0.1
				s0.6,0,0.9-0.1c0.8,2.2,1.8,4.9,3.1,8.1c0.8,1.9,1.5,3.6,2.1,5.2c0.4,0.9,0.7,1.5,0.8,1.9c0.2,0.4,0.3,0.7,0.5,1
				C99,144.6,98.3,144.6,97.5,144.6L97.5,144.6z M93.2,138.2c-0.7-1.9-1.4-3.6-2-5.1h0c-0.4,1.1-0.9,2.2-1.4,3.5l-0.7,1.7
				c0.6,0.1,1.3,0.1,2,0.1C91.9,138.4,92.6,138.3,93.2,138.2L93.2,138.2L93.2,138.2z M110.9,144.8c-0.7-0.1-1.5-0.1-2.4-0.1
				c-0.9,0-1.7-0.1-2.2-0.1h-0.8c-0.6,0-1.2,0-1.9,0.1c-0.7,0-1.2,0.1-1.6,0.1c0-0.4,0.1-0.7,0.1-1.1s0-1,0.1-1.8c0-1.5,0-3.3,0-5.2
				c0-1.9,0-3.7,0-5.2c0-0.8,0-1.4-0.1-1.8c0-0.4-0.1-0.8-0.1-1.1c0.5,0,1.2,0.1,1.9,0.1c0.7,0,1.3,0,1.9-0.1
				c-0.1,0.5-0.1,1.1-0.2,2c0,0.8,0,2.3,0,4.4v8.2l0.2,0h0.7c0.9,0,1.8,0,2.8-0.1c0.9,0,1.5-0.1,1.8-0.2c0,0.3-0.1,0.6-0.1,1
				C110.8,144.2,110.9,144.5,110.9,144.8L110.9,144.8z M117,142.9h0.6c0.9,0,1.8,0,2.8-0.1c0.9,0,1.5-0.1,1.8-0.2
				c0,0.3-0.1,0.7-0.1,1.1s0,0.8,0.1,1.1c-0.7-0.1-1.5-0.1-2.4-0.1c-0.9,0-1.7-0.1-2.2-0.1h-0.8c-0.6,0-1.2,0-1.9,0.1
				c-0.7,0-1.2,0.1-1.6,0.1c0-0.4,0.1-0.7,0.1-1.1c0-0.4,0-1,0.1-1.8c0-1.6,0-3.3,0-5.3c0-2,0-3.7,0-5.3c0-0.8,0-1.4-0.1-1.8
				c0-0.4-0.1-0.8-0.1-1.1c0.4,0.1,1,0.1,1.6,0.1c0.7,0,1.3,0.1,1.9,0.1h0.8c1,0,2,0,2.9-0.1c0.9,0,1.5-0.1,1.7-0.1
				c0,0.3-0.1,0.7-0.1,1.1c0,0.4,0,0.8,0.1,1.1c-0.3-0.1-0.8-0.1-1.6-0.2c-0.8,0-1.6-0.1-2.4-0.1h-0.4l-0.9,0v5.1l1.8,0
				c0.7,0,1.3,0,2-0.1c0.7,0,1.2-0.1,1.4-0.1c0,0.3-0.1,0.6-0.1,1c0,0.4,0,0.7,0.1,1c-0.3,0-0.7-0.1-1.4-0.1c-0.7,0-1.4-0.1-2-0.1
				l-1.8,0v5.7L117,142.9L117,142.9z M140.7,136.5c-1,0.8-2.4,1.2-4.3,1.2l-1.4,0c0,1.5,0,2.9,0,4.1c0,0.8,0,1.4,0.1,1.8
				c0,0.4,0.1,0.8,0.1,1.1c-0.6,0-1.2-0.1-1.9-0.1c-0.7,0-1.3,0-1.9,0.1c0-0.4,0.1-0.7,0.1-1.1c0-0.4,0-1,0.1-1.8
				c0-1.5,0.1-3.3,0-5.2c0-1.9,0-3.6,0-5.2c0-0.8,0-1.4-0.1-1.8c0-0.4-0.1-0.8-0.1-1.1l1.9,0.1l4.2-0.1c1.5,0,2.6,0.4,3.4,1.2
				c0.8,0.8,1.2,1.9,1.2,3.4C142.3,134.6,141.8,135.7,140.7,136.5L140.7,136.5z M137.9,130.8c-0.4-0.5-1-0.7-1.7-0.7l-1,0
				c0,1.8-0.1,3.8-0.1,6.1l0.6,0c0.9,0,1.6-0.3,2.1-0.9c0.5-0.6,0.7-1.4,0.7-2.5C138.5,131.9,138.3,131.3,137.9,130.8L137.9,130.8z
				 M159,142.5c-1.6,1.6-3.7,2.4-6.3,2.4c-2.6,0-4.7-0.7-6.3-2.2c-1.6-1.4-2.4-3.3-2.4-5.7c0-2.6,0.8-4.7,2.4-6.3
				c1.6-1.6,3.7-2.4,6.3-2.4c2.6,0,4.7,0.7,6.3,2.2c1.6,1.4,2.4,3.4,2.4,5.7C161.4,138.8,160.6,140.9,159,142.5L159,142.5z
				 M156.3,131.5c-0.9-1.2-2.1-1.7-3.6-1.7c-1.5,0-2.7,0.6-3.6,1.9c-0.9,1.3-1.3,3.1-1.3,5.3c0,2,0.4,3.5,1.3,4.7
				c0.9,1.2,2.1,1.7,3.6,1.7c1.5,0,2.7-0.6,3.6-1.9c0.9-1.3,1.3-3,1.3-5.3C157.6,134.3,157.2,132.7,156.3,131.5L156.3,131.5z
				 M173.4,144.8c-0.7-0.1-1.5-0.1-2.4-0.1c-0.9,0-1.7-0.1-2.2-0.1H168c-0.6,0-1.2,0-1.9,0.1c-0.7,0-1.2,0.1-1.6,0.1
				c0-0.4,0.1-0.7,0.1-1.1c0-0.4,0-1,0.1-1.8c0-1.5,0-3.3,0-5.2c0-1.9,0-3.7,0-5.2c0-0.8,0-1.4-0.1-1.8c0-0.4-0.1-0.8-0.1-1.1
				c0.5,0,1.2,0.1,1.9,0.1c0.7,0,1.3,0,1.9-0.1c-0.1,0.5-0.1,1.1-0.2,2c0,0.8,0,2.3,0,4.4v8.2l0.2,0h0.7c0.9,0,1.8,0,2.8-0.1
				c0.9,0,1.5-0.1,1.8-0.2c0,0.3-0.1,0.6-0.1,1C173.3,144.2,173.3,144.5,173.4,144.8L173.4,144.8z M179.5,131.5c0,1.5,0,3.3,0,5.2
				c0,1.9,0,3.6,0,5.2c0,0.8,0,1.4,0.1,1.8c0,0.4,0.1,0.8,0.1,1.1c-0.6,0-1.2-0.1-1.9-0.1c-0.7,0-1.3,0-1.9,0.1
				c0-0.4,0.1-0.7,0.1-1.1c0-0.4,0-1,0.1-1.7c0-1.5,0-3.3,0-5.2c0-1.9,0-3.6,0-5.2c0-0.8,0-1.4-0.1-1.8c0-0.4-0.1-0.8-0.1-1.1
				c0.6,0,1.2,0.1,1.9,0.1c0.7,0,1.3,0,1.9-0.1c0,0.4-0.1,0.7-0.1,1.1C179.6,130.1,179.6,130.7,179.5,131.5L179.5,131.5z M196,131.9
				l-0.3,0c-0.5-0.7-1-1.2-1.7-1.6c-0.7-0.4-1.4-0.5-2.2-0.5c-1.7,0-3,0.6-3.9,1.8c-1,1.2-1.5,2.9-1.5,5c0,2.1,0.5,3.7,1.5,5
				c1,1.2,2.4,1.8,4.1,1.8c0.8,0,1.6-0.1,2.2-0.4c0.7-0.3,1.3-0.7,1.9-1.3l0.3,0.2c-0.1,0.4-0.2,0.7-0.3,1c-0.1,0.3-0.2,0.6-0.2,1.1
				c-0.7,0.3-1.4,0.6-2.1,0.7c-0.7,0.2-1.5,0.3-2.2,0.3c-2.7,0-4.9-0.7-6.6-2.2c-1.7-1.4-2.5-3.3-2.5-5.7c0-2.6,0.8-4.7,2.5-6.3
				c1.7-1.6,3.8-2.4,6.6-2.4c0.9,0,1.8,0.1,2.6,0.2c0.8,0.2,1.6,0.4,2.3,0.7c-0.1,0.5-0.3,0.9-0.3,1.3
				C196.2,131,196.1,131.4,196,131.9L196,131.9z M208.3,144.8c-0.7-0.1-1.5-0.1-2.4-0.1c-0.9,0-1.7-0.1-2.2-0.1h-0.8
				c-0.6,0-1.2,0-1.9,0.1c-0.7,0-1.2,0.1-1.6,0.1c0-0.4,0.1-0.7,0.1-1.1c0-0.4,0-1,0.1-1.8c0-1.5,0-3.3,0-5.2c0-1.9,0-3.7,0-5.2
				c0-0.8,0-1.4-0.1-1.8c0-0.4-0.1-0.8-0.1-1.1c0.5,0,1.2,0.1,1.9,0.1c0.7,0,1.3,0,1.9-0.1c-0.1,0.5-0.1,1.1-0.2,2
				c0,0.8,0,2.3,0,4.4v8.2l0.2,0h0.7c0.9,0,1.8,0,2.8-0.1c0.9,0,1.5-0.1,1.8-0.2c0,0.3-0.1,0.6-0.1,1
				C208.2,144.2,208.2,144.5,208.3,144.8L208.3,144.8z M214.5,131.5c0,1.5,0,3.3,0,5.2c0,1.9,0,3.6,0,5.2c0,0.8,0,1.4,0.1,1.8
				c0,0.4,0.1,0.8,0.1,1.1c-0.6,0-1.2-0.1-1.9-0.1c-0.7,0-1.3,0-1.9,0.1c0-0.4,0.1-0.7,0.1-1.1c0-0.4,0-1,0.1-1.7c0-1.5,0-3.3,0-5.2
				c0-1.9,0-3.6,0-5.2c0-0.8,0-1.4-0.1-1.8c0-0.4-0.1-0.8-0.1-1.1c0.6,0,1.2,0.1,1.9,0.1c0.7,0,1.3,0,1.9-0.1c0,0.4-0.1,0.7-0.1,1.1
				C214.5,130.1,214.5,130.7,214.5,131.5L214.5,131.5z M232.5,129.7c0,0.4,0,1-0.1,1.8c0,1.5,0,3.3,0,5.2c0,3.2,0,5.9,0.1,8
				c-0.4,0-0.7-0.1-1-0.1c-0.3,0-0.6,0-1,0.1c-1.8-2.3-4.3-5-7.2-8.2l-2.8-3l0,3.1c0,1.9,0,3.6,0,5.2c0,0.8,0,1.4,0.1,1.8
				c0,0.4,0.1,0.8,0.1,1.1c-0.3,0-0.6-0.1-1-0.1c-0.4,0-0.7,0-1,0.1c0-0.4,0.1-0.7,0.1-1.1c0-0.4,0-1,0.1-1.8c0-1.6,0-3.3,0-5.2
				c0-1.9,0-3.6,0-5.1c0-0.8,0-1.4-0.1-1.8c0-0.4-0.1-0.8-0.1-1.1c0.3,0,0.7,0.1,1.1,0.1s0.8,0,1.1-0.1c1.5,1.8,3.4,4,5.7,6.6
				l4.2,4.5l0-3c0-1.9,0-3.6,0-5.2c0-0.8,0-1.4-0.1-1.8c0-0.4-0.1-0.8-0.1-1.1c0.3,0,0.6,0.1,1,0.1c0.4,0,0.7,0,1-0.1
				C232.6,128.9,232.6,129.3,232.5,129.7L232.5,129.7z M240.3,131.5c0,1.5,0,3.3,0,5.2c0,1.9,0,3.6,0,5.2c0,0.8,0,1.4,0.1,1.8
				c0,0.4,0.1,0.8,0.1,1.1c-0.6,0-1.2-0.1-1.9-0.1c-0.7,0-1.3,0-1.9,0.1c0-0.4,0.1-0.7,0.1-1.1c0-0.4,0-1,0.1-1.7c0-1.5,0-3.3,0-5.2
				c0-1.9,0-3.6,0-5.2c0-0.8,0-1.4-0.1-1.8c0-0.4-0.1-0.8-0.1-1.1c0.6,0,1.2,0.1,1.9,0.1c0.7,0,1.3,0,1.9-0.1c0,0.4-0.1,0.7-0.1,1.1
				C240.4,130.1,240.3,130.7,240.3,131.5L240.3,131.5z M256.8,131.9l-0.3,0c-0.5-0.7-1-1.2-1.7-1.6c-0.7-0.4-1.4-0.5-2.2-0.5
				c-1.7,0-3,0.6-3.9,1.8c-1,1.2-1.5,2.9-1.5,5c0,2.1,0.5,3.7,1.5,5c1,1.2,2.4,1.8,4.1,1.8c0.8,0,1.6-0.1,2.2-0.4
				c0.7-0.3,1.3-0.7,1.9-1.3l0.3,0.2c-0.1,0.4-0.2,0.7-0.3,1c-0.1,0.3-0.2,0.6-0.2,1.1c-0.7,0.3-1.4,0.6-2.1,0.7
				c-0.7,0.2-1.5,0.3-2.2,0.3c-2.7,0-4.9-0.7-6.6-2.2c-1.7-1.4-2.5-3.3-2.5-5.7c0-2.6,0.8-4.7,2.5-6.3c1.7-1.6,3.8-2.4,6.6-2.4
				c0.9,0,1.8,0.1,2.6,0.2c0.8,0.2,1.6,0.4,2.3,0.7c-0.1,0.5-0.3,0.9-0.3,1.3C256.9,131,256.9,131.4,256.8,131.9L256.8,131.9z
				 M274,142.5c-1.6,1.6-3.7,2.4-6.3,2.4c-2.6,0-4.7-0.7-6.3-2.2c-1.6-1.4-2.4-3.3-2.4-5.7c0-2.6,0.8-4.7,2.4-6.3
				c1.6-1.6,3.7-2.4,6.3-2.4c2.6,0,4.7,0.7,6.3,2.2c1.6,1.4,2.4,3.4,2.4,5.7C276.4,138.8,275.6,140.9,274,142.5L274,142.5z
				 M271.3,131.5c-0.9-1.2-2.1-1.7-3.6-1.7c-1.5,0-2.7,0.6-3.6,1.9s-1.3,3.1-1.3,5.3c0,2,0.4,3.5,1.3,4.7c0.9,1.2,2.1,1.7,3.6,1.7
				c1.5,0,2.7-0.6,3.6-1.9c0.9-1.3,1.3-3,1.3-5.3C272.7,134.3,272.2,132.7,271.3,131.5L271.3,131.5z M293.3,131.7l-0.4,0
				c-0.2-0.7-0.6-1.1-1-1.4c-0.4-0.3-1-0.4-1.7-0.4c-0.7,0-1.3,0.2-1.7,0.6c-0.5,0.4-0.7,0.9-0.7,1.5c0,0.6,0.2,1.1,0.7,1.6
				c0.4,0.4,1.3,0.9,2.5,1.5c1.3,0.6,2.2,1.3,2.8,2.1c0.6,0.8,0.9,1.7,0.9,2.8c0,1.5-0.5,2.7-1.6,3.7c-1.1,1-2.4,1.5-4.1,1.5
				c-0.7,0-1.4-0.1-2.1-0.2c-0.7-0.2-1.4-0.4-2-0.7c0.2-0.5,0.3-1,0.4-1.4c0.1-0.4,0.2-0.9,0.3-1.4l0.5,0c0.3,0.8,0.7,1.5,1.2,1.8
				c0.5,0.4,1.2,0.6,2,0.6c0.8,0,1.4-0.2,1.9-0.7c0.5-0.4,0.8-1,0.8-1.7c0-0.6-0.2-1.2-0.7-1.6c-0.5-0.4-1.4-1-2.7-1.6
				c-1.2-0.6-2.1-1.2-2.7-2c-0.6-0.7-0.8-1.6-0.8-2.7c0-1.4,0.5-2.6,1.5-3.6c1-0.9,2.2-1.4,3.7-1.4c0.7,0,1.3,0.1,1.9,0.3
				c0.6,0.2,1.3,0.4,2,0.8c-0.2,0.4-0.3,0.8-0.4,1.1C293.6,130.8,293.5,131.2,293.3,131.7L293.3,131.7z M308.7,144.6
				c-0.8,0-1.5,0-2.1,0.1c-0.2-0.8-0.4-1.4-0.5-1.8c-0.1-0.4-0.2-0.7-0.4-1l-0.7-1.8c-0.9-0.1-1.9-0.2-3-0.2c-0.9,0-1.7,0.1-2.5,0.2
				c-0.2,0.6-0.5,1.2-0.7,1.7c-0.1,0.2-0.2,0.5-0.3,0.9c-0.1,0.4-0.3,1.1-0.6,2c-0.4,0-0.8-0.1-1.2-0.1c-0.5,0-0.9,0-1.2,0.1
				c0.1-0.2,0.3-0.6,0.5-0.9c0.2-0.4,0.5-1,0.9-1.9c0.7-1.5,1.4-3.2,2.2-5.1c1.3-3.2,2.4-5.9,3.2-8.1c0.3,0,0.7,0.1,0.9,0.1
				c0.3,0,0.6,0,0.9-0.1c0.8,2.2,1.8,4.9,3.1,8.1c0.8,1.9,1.5,3.6,2.1,5.2c0.4,0.9,0.7,1.5,0.8,1.9c0.2,0.4,0.3,0.7,0.5,1
				C310.2,144.6,309.5,144.6,308.7,144.6L308.7,144.6z M304.4,138.2c-0.7-1.9-1.4-3.6-2-5.1h0c-0.4,1.1-0.9,2.2-1.4,3.5l-0.7,1.7
				c0.6,0.1,1.3,0.1,2,0.1C303,138.4,303.7,138.3,304.4,138.2L304.4,138.2L304.4,138.2z M326.9,129.7c0,0.4,0,1-0.1,1.8
				c0,1.5,0,3.3,0,5.2c0,3.2,0,5.9,0.1,8c-0.4,0-0.7-0.1-1-0.1c-0.3,0-0.6,0-1,0.1c-1.8-2.3-4.3-5-7.2-8.2l-2.8-3l0,3.1
				c0,1.9,0,3.6,0,5.2c0,0.8,0,1.4,0.1,1.8c0,0.4,0.1,0.8,0.1,1.1c-0.3,0-0.6-0.1-1-0.1c-0.4,0-0.7,0-1,0.1c0-0.4,0.1-0.7,0.1-1.1
				c0-0.4,0-1,0.1-1.8c0-1.6,0-3.3,0-5.2c0-1.9,0-3.6,0-5.1c0-0.8,0-1.4-0.1-1.8c0-0.4-0.1-0.8-0.1-1.1c0.3,0,0.7,0.1,1.1,0.1
				c0.4,0,0.8,0,1.1-0.1c1.5,1.8,3.4,4,5.7,6.6l4.2,4.5l0-3c0-1.9,0-3.6,0-5.2c0-0.8,0-1.4-0.1-1.8c0-0.4-0.1-0.8-0.1-1.1
				c0.3,0,0.6,0.1,1,0.1c0.4,0,0.7,0,1-0.1C327,128.9,326.9,129.3,326.9,129.7L326.9,129.7z M353.4,144.6c-0.7,0-1.4,0-1.9,0.1
				c0-0.7,0-1.2,0-1.6c0-0.4-0.1-0.8-0.1-1.3c-0.1-1.6-0.3-3.3-0.5-5.2l-0.3-2.7h0l-1.3,2.6c-1.6,3.2-2.9,5.9-3.8,8.2
				c-0.2,0-0.3-0.1-0.4-0.1c-0.1,0-0.3,0-0.4,0.1c-0.9-2.2-2.2-5-3.9-8.2l-1.2-2.3l-0.2,2.4c-0.2,1.9-0.4,3.7-0.5,5.2
				c-0.1,0.5-0.1,1-0.1,1.4c0,0.4,0,0.9,0,1.5c-0.3,0-0.7-0.1-1.1-0.1s-0.8,0-1.1,0.1c0.1-0.5,0.2-0.9,0.3-1.3
				c0.1-0.4,0.2-0.9,0.3-1.6c0.2-1.5,0.5-3.3,0.8-5.2c0.4-3.2,0.8-5.9,1-8c0.4,0,0.7,0.1,0.9,0.1c0.3,0,0.6,0,0.9-0.1
				c0.7,1.8,1.7,4,3,6.5l2.3,4.5l1.5-2.9c1.7-3.2,3-5.9,4-8.2c0.3,0,0.6,0.1,0.9,0.1c0.2,0,0.5,0,0.9-0.1c0.2,2.1,0.5,4.8,0.9,8
				c0.2,1.9,0.5,3.6,0.7,5.2c0.1,0.8,0.2,1.4,0.3,1.8c0.1,0.4,0.2,0.8,0.2,1.1C354.7,144.6,354.1,144.6,353.4,144.6L353.4,144.6z
				 M369.4,144.6c-0.8,0-1.5,0-2.1,0.1c-0.2-0.8-0.4-1.4-0.5-1.8c-0.1-0.4-0.2-0.7-0.4-1l-0.7-1.8c-0.9-0.1-1.9-0.2-3-0.2
				c-0.9,0-1.7,0.1-2.5,0.2c-0.2,0.6-0.5,1.2-0.7,1.7c-0.1,0.2-0.2,0.5-0.3,0.9c-0.1,0.4-0.3,1.1-0.6,2c-0.4,0-0.8-0.1-1.2-0.1
				c-0.5,0-0.9,0-1.2,0.1c0.1-0.2,0.3-0.6,0.5-0.9c0.2-0.4,0.5-1,0.9-1.9c0.7-1.5,1.4-3.2,2.2-5.1c1.3-3.2,2.4-5.9,3.2-8.1
				c0.4,0,0.7,0.1,0.9,0.1c0.3,0,0.6,0,0.9-0.1c0.8,2.2,1.8,4.9,3.1,8.1c0.8,1.9,1.5,3.6,2.1,5.2c0.4,0.9,0.7,1.5,0.8,1.9
				c0.2,0.4,0.3,0.7,0.5,1C370.9,144.6,370.2,144.6,369.4,144.6L369.4,144.6z M365.1,138.2c-0.7-1.9-1.4-3.6-2-5.1h0
				c-0.4,1.1-0.9,2.2-1.4,3.5l-0.7,1.7c0.6,0.1,1.3,0.1,2,0.1C363.8,138.4,364.5,138.3,365.1,138.2L365.1,138.2L365.1,138.2z
				 M383.8,141.8c0.5,0.9,0.9,1.5,1.2,1.8c0.3,0.4,0.5,0.7,0.8,1c-0.6,0-1.3-0.1-2.1-0.1c-0.8,0-1.5,0-2.1,0.1
				c-0.5-0.9-1.1-2.1-1.9-3.5c-0.9-1.6-1.8-3-2.5-4.2c0,1.8,0,3.3,0,4.7c0,0.8,0,1.4,0.1,1.8c0,0.4,0.1,0.8,0.1,1.1
				c-0.6,0-1.2-0.1-1.9-0.1c-0.7,0-1.3,0-1.9,0.1c0-0.4,0.1-0.7,0.1-1.1c0-0.4,0-1,0.1-1.8c0-1.5,0-3.3,0-5.2c0-1.9,0-3.6,0-5.2
				c0-0.8,0-1.4-0.1-1.8c0-0.4-0.1-0.8-0.1-1.1l1.2,0.1h0.6h1.5l2.7-0.1c1.5,0,2.7,0.4,3.5,1.1c0.8,0.7,1.3,1.7,1.3,3
				c0,1.3-0.5,2.3-1.6,3.1c-0.6,0.4-1.3,0.7-2.2,0.9c0.6,1.1,1.4,2.3,2.2,3.8L383.8,141.8L383.8,141.8z M380,130.7
				c-0.4-0.5-1.1-0.7-1.9-0.7c-0.4,0-0.7,0-1,0.1v6.1l0.7,0c0.9,0,1.6-0.3,2.1-0.9c0.5-0.6,0.8-1.4,0.8-2.5
				C380.7,131.9,380.5,131.2,380,130.7L380,130.7z M398.3,130.3c-0.3-0.1-0.9-0.1-1.8-0.2c-0.8,0-1.6-0.1-2.4-0.1v7.4
				c0,1.7,0,3.1,0,4c0,1,0.1,2,0.1,3.2c-0.5,0-1.2-0.1-1.9-0.1c-0.7,0-1.3,0-1.9,0.1c0.1-1.1,0.1-2.2,0.1-3.2c0-1,0-2.3,0-4v-7.4
				c-0.8,0-1.6,0-2.4,0.1c-0.9,0.1-1.5,0.1-1.8,0.2c0-0.3,0.1-0.6,0.1-0.9c0-0.3,0-0.7-0.1-0.9c0.5,0.1,1.3,0.1,2.4,0.2
				c1.1,0,2.1,0.1,3.1,0.1h0.4h0.4c1,0,2,0,3.1-0.1c1.1,0,1.9-0.1,2.4-0.2c0,0.3-0.1,0.6-0.1,0.9
				C398.3,129.7,398.3,130.1,398.3,130.3L398.3,130.3z M404.5,131.5c0,1.5,0,3.3,0,5.2c0,1.9,0,3.6,0,5.2c0,0.8,0,1.4,0.1,1.8
				c0,0.4,0.1,0.8,0.1,1.1c-0.6,0-1.2-0.1-1.9-0.1c-0.7,0-1.3,0-1.9,0.1c0-0.4,0.1-0.7,0.1-1.1c0-0.4,0-1,0.1-1.7c0-1.5,0-3.3,0-5.2
				c0-1.9,0-3.6,0-5.2c0-0.8,0-1.4-0.1-1.8c0-0.4-0.1-0.8-0.1-1.1c0.6,0,1.2,0.1,1.9,0.1c0.7,0,1.3,0,1.9-0.1c0,0.4-0.1,0.7-0.1,1.1
				C404.5,130.1,404.5,130.7,404.5,131.5L404.5,131.5z M422.6,129.7c0,0.4,0,1-0.1,1.8c0,1.5,0,3.3,0,5.2c0,3.2,0,5.9,0.1,8
				c-0.4,0-0.7-0.1-1-0.1c-0.3,0-0.6,0-1,0.1c-1.8-2.3-4.3-5-7.2-8.2l-2.8-3l0,3.1c0,1.9,0,3.6,0,5.2c0,0.8,0,1.4,0.1,1.8
				c0,0.4,0.1,0.8,0.1,1.1c-0.3,0-0.6-0.1-1-0.1c-0.4,0-0.7,0-1,0.1c0-0.4,0.1-0.7,0.1-1.1c0-0.4,0-1,0.1-1.8c0-1.6,0-3.3,0-5.2
				c0-1.9,0-3.6,0-5.1c0-0.8,0-1.4-0.1-1.8c0-0.4-0.1-0.8-0.1-1.1c0.3,0,0.7,0.1,1.1,0.1c0.4,0,0.8,0,1.1-0.1c1.5,1.8,3.4,4,5.7,6.6
				l4.2,4.5l0-3c0-1.9,0-3.6,0-5.2c0-0.8,0-1.4-0.1-1.8c0-0.4-0.1-0.8-0.1-1.1c0.3,0,0.6,0.1,1,0.1c0.4,0,0.7,0,1-0.1
				C422.6,128.9,422.6,129.3,422.6,129.7L422.6,129.7z M440.8,142.5c-1.6,1.6-3.7,2.4-6.3,2.4c-2.6,0-4.7-0.7-6.3-2.2
				c-1.6-1.4-2.4-3.3-2.4-5.7c0-2.6,0.8-4.7,2.4-6.3c1.6-1.6,3.7-2.4,6.3-2.4c2.6,0,4.7,0.7,6.3,2.2c1.6,1.4,2.4,3.4,2.4,5.7
				C443.2,138.8,442.4,140.9,440.8,142.5L440.8,142.5z M438.1,131.5c-0.9-1.2-2.1-1.7-3.6-1.7c-1.5,0-2.7,0.6-3.6,1.9
				c-0.9,1.3-1.3,3.1-1.3,5.3c0,2,0.4,3.5,1.3,4.7c0.9,1.2,2.1,1.7,3.6,1.7c1.5,0,2.7-0.6,3.6-1.9c0.9-1.3,1.3-3,1.3-5.3
				C439.4,134.3,439,132.7,438.1,131.5L438.1,131.5z"/>
		</defs>
		<clipPath id="SVGID_00000096017440240323591400000011030172290350369172_">
			<use xlink:href="#SVGID_00000031201175227549767790000005468019067956014003_"  style="overflow:visible;"/>
		</clipPath>
		<g style="clip-path:url(#SVGID_00000096017440240323591400000011030172290350369172_);">
			
				<image style="overflow:visible;" width="1890" height="827" xlink:href="E92512F24309E515.jpg"  transform="matrix(0.24 0 0 0.24 0 0)">
			</image>
		</g>
	</g>
</g>
</svg>
