<?xml version="1.0" encoding="utf-8"?>
<!-- Generator: Adobe Illustrator 25.4.1, SVG Export Plug-In . SVG Version: 6.00 Build 0)  -->
<svg version="1.1" id="Layer_1" xmlns="http://www.w3.org/2000/svg" xmlns:xlink="http://www.w3.org/1999/xlink" x="0px" y="0px"
	 viewBox="0 0 27 28" style="enable-background:new 0 0 27 28;" xml:space="preserve">
<style type="text/css">
	.st0{fill-rule:evenodd;clip-rule:evenodd;fill:#FFFFFF;fill-opacity:0.7;}
	.st1{fill-rule:evenodd;clip-rule:evenodd;fill:#FFFFFF;filter:url(#Adobe_OpacityMaskFilter);}
	.st2{mask:url(#mask0_00000087412989185971698890000015724172392812625551_);}
	.st3{display:none;fill:#F3F3F3;}
</style>
<path class="st0" d="M14.4,15.1v5.6c0,0.6-0.4,1-1,1h-0.2c-0.6,0-1-0.4-1-1v-5.6H6.7c-0.6,0-1-0.4-1-1v-0.2c0-0.6,0.4-1,1-1h5.5V7.3
	c0-0.6,0.4-1,1-1h0.2c0.6,0,1,0.4,1,1v5.6h5.5c0.6,0,1,0.4,1,1v0.2c0,0.6-0.4,1-1,1H14.4z"/>
<defs>
	<filter id="Adobe_OpacityMaskFilter" filterUnits="userSpaceOnUse" x="0.2" y="0.8" width="26.2" height="26.3">
		<feColorMatrix  type="matrix" values="1 0 0 0 0  0 1 0 0 0  0 0 1 0 0  0 0 0 1 0"/>
	</filter>
</defs>
<mask maskUnits="userSpaceOnUse" x="0.2" y="0.8" width="26.2" height="26.3" id="mask0_00000087412989185971698890000015724172392812625551_">
	<path class="st1" d="M14.4,15.1v5.6c0,0.6-0.4,1-1,1h-0.2c-0.6,0-1-0.4-1-1v-5.6H6.7c-0.6,0-1-0.4-1-1v-0.2c0-0.6,0.4-1,1-1h5.5
		V7.3c0-0.6,0.4-1,1-1h0.2c0.6,0,1,0.4,1,1v5.6h5.5c0.6,0,1,0.4,1,1v0.2c0,0.6-0.4,1-1,1H14.4z"/>
</mask>
<g class="st2">
	<rect x="0.2" y="0.8" class="st3" width="26.2" height="26.3"/>
</g>
</svg>
