<svg width="69" height="68" viewBox="0 0 69 68" fill="none" xmlns="http://www.w3.org/2000/svg">
<path d="M11.448 34.4861C14.2141 34.4861 16.4564 32.2438 16.4564 29.4778C16.4564 26.7117 14.2141 24.4694 11.448 24.4694C8.68201 24.4694 6.4397 26.7117 6.4397 29.4778C6.4397 32.2438 8.68201 34.4861 11.448 34.4861Z" fill="#F3F3F3"/>
<path d="M32.9117 18.5167C35.6777 18.5167 37.92 16.2744 37.92 13.5083C37.92 10.7423 35.6777 8.5 32.9117 8.5C30.1456 8.5 27.9033 10.7423 27.9033 13.5083C27.9033 16.2744 30.1456 18.5167 32.9117 18.5167Z" fill="#F3F3F3"/>
<path d="M41.7569 34.4861C44.5229 34.4861 46.7652 32.2438 46.7652 29.4778C46.7652 26.7117 44.5229 24.4694 41.7569 24.4694C38.9908 24.4694 36.7485 26.7117 36.7485 29.4778C36.7485 32.2438 38.9908 34.4861 41.7569 34.4861Z" fill="#F3F3F3"/>
<path d="M56.4104 23.525C59.1765 23.525 61.4188 21.2827 61.4188 18.5166C61.4188 15.7506 59.1765 13.5083 56.4104 13.5083C53.6444 13.5083 51.4021 15.7506 51.4021 18.5166C51.4021 21.2827 53.6444 23.525 56.4104 23.525Z" fill="#F3F3F3"/>
<path d="M57.8675 49.4825C60.6335 49.4825 62.8758 47.2402 62.8758 44.4742C62.8758 41.7081 60.6335 39.4658 57.8675 39.4658C55.1014 39.4658 52.8591 41.7081 52.8591 44.4742C52.8591 47.2402 55.1014 49.4825 57.8675 49.4825Z" fill="#F3F3F3"/>
<path d="M36.7481 59.4992C39.5141 59.4992 41.7564 57.2568 41.7564 54.4908C41.7564 51.7248 39.5141 49.4825 36.7481 49.4825C33.9821 49.4825 31.7397 51.7248 31.7397 54.4908C31.7397 57.2568 33.9821 59.4992 36.7481 59.4992Z" fill="#F3F3F3"/>
<path d="M27.9029 46.9926C30.6689 46.9926 32.9112 44.7503 32.9112 41.9843C32.9112 39.2183 30.6689 36.976 27.9029 36.976C25.1368 36.976 22.8945 39.2183 22.8945 41.9843C22.8945 44.7503 25.1368 46.9926 27.9029 46.9926Z" fill="#F3F3F3"/>
<path d="M27.9315 42.4422L27.7025 42.2705L11.2466 30.508L11.6472 29.9356L27.8743 41.5264L41.2966 29.3919L32.7967 14.0234L11.6472 28.0468L11.2466 27.4458L33.0543 12.9932L42.1838 29.535L27.9315 42.4422Z" fill="#F3F3F3"/>
<path d="M35.8321 54.9487L35.6604 54.6911L27.6184 43.3008L28.1908 42.9001L36.061 54.0329L57.4967 44.2452L56.0371 18.0015L56.7526 17.9729L58.2408 44.7031L35.8321 54.9487Z" fill="#F3F3F3"/>
<path d="M43.1273 29.7354L42.6408 29.2202L53.8595 18.7171L32.8245 13.2222L32.9962 12.5353L55.2904 18.345L43.1273 29.7354Z" fill="#F3F3F3"/>
<path d="M56.8955 44.1593L41.5271 32.2824L41.9564 31.7386L57.3248 43.5869L56.8955 44.1593Z" fill="#F3F3F3"/>
</svg>
