<svg xmlns="http://www.w3.org/2000/svg" viewBox="0 0 101.59 212.14"><defs><style>.cls-1{opacity:0.2;}.cls-2{fill:none;stroke:#fff;stroke-miterlimit:10;stroke-width:0.19px;}.cls-3{fill:#fff;}</style></defs><g id="Layer_2" data-name="Layer 2"><g id="Layer_3" data-name="Layer 3"><g class="cls-1"><line class="cls-2" x1="39.69" y1="180.65" x2="39.69" y2="161.03"/><path class="cls-3" d="M40.26,180.62a.57.57,0,0,1-.57.56.56.56,0,1,1,0-1.12A.57.57,0,0,1,40.26,180.62Z"/></g><g class="cls-1"><line class="cls-2" x1="47.05" y1="189.91" x2="47.05" y2="161.03"/><circle class="cls-3" cx="47.05" cy="189.88" r="0.56"/></g><g class="cls-1"><line class="cls-2" x1="59.1" y1="189.46" x2="59.1" y2="161.03"/><path class="cls-3" d="M59.67,189.43a.58.58,0,0,1-.57.57.57.57,0,0,1-.56-.57.56.56,0,0,1,.56-.56A.57.57,0,0,1,59.67,189.43Z"/></g><g class="cls-1"><line class="cls-2" x1="74.16" y1="199.72" x2="74.16" y2="161.03"/><circle class="cls-3" cx="74.16" cy="199.69" r="0.56"/></g><g class="cls-1"><path class="cls-2" d="M30,186.12c.14-3.67.9-25.09,0-25.09"/><circle class="cls-3" cx="30.01" cy="186.09" r="0.56"/></g><g class="cls-1"><path class="cls-2" d="M63,201.4c.31-8.81.15-34,.4-40.37"/><path class="cls-3" d="M63.58,201.37a.56.56,0,0,1-.57.56.56.56,0,0,1-.56-.57.57.57,0,0,1,.57-.56A.57.57,0,0,1,63.58,201.37Z"/></g><g class="cls-1"><line class="cls-2" x1="35.68" y1="181.1" x2="35.68" y2="161.03"/><path class="cls-3" d="M36.24,181.07a.56.56,0,0,1-.56.56.57.57,0,0,1-.57-.56.58.58,0,0,1,.57-.57A.57.57,0,0,1,36.24,181.07Z"/></g><g class="cls-1"><line class="cls-2" x1="41.59" y1="182.55" x2="41.59" y2="161.03"/><circle class="cls-3" cx="41.59" cy="182.52" r="0.56"/></g><g class="cls-1"><line class="cls-2" x1="32.44" y1="179.53" x2="32.44" y2="161.03"/><circle class="cls-3" cx="32.44" cy="179.51" r="0.56"/></g><g class="cls-1"><line class="cls-2" x1="48.95" y1="188.68" x2="48.95" y2="161.03"/><path class="cls-3" d="M49.51,188.65a.56.56,0,1,1-1.12,0,.56.56,0,1,1,1.12,0Z"/></g><g class="cls-1"><line class="cls-2" x1="67.8" y1="183.21" x2="67.8" y2="161.03"/><circle class="cls-3" cx="67.8" cy="183.19" r="0.56"/></g><g class="cls-1"><line class="cls-2" x1="69.25" y1="181.1" x2="69.25" y2="161.03"/><circle class="cls-3" cx="69.25" cy="181.07" r="0.56"/></g><g class="cls-1"><path class="cls-2" d="M44.83,179.31c.05-3,.29-18,0-18.28"/><path class="cls-3" d="M45.4,179.29a.58.58,0,0,1-.58.56.56.56,0,0,1-.55-.58.55.55,0,0,1,.57-.55A.57.57,0,0,1,45.4,179.29Z"/></g><g class="cls-1"><line class="cls-2" x1="43.04" y1="180.2" x2="43.04" y2="161.03"/><path class="cls-3" d="M43.6,180.17a.56.56,0,1,1-.56-.56A.56.56,0,0,1,43.6,180.17Z"/></g><g class="cls-1"><line class="cls-2" x1="60.66" y1="182.77" x2="60.66" y2="161.03"/><circle class="cls-3" cx="60.66" cy="182.74" r="0.56"/></g><g class="cls-1"><line class="cls-2" x1="71.15" y1="193.36" x2="71.15" y2="161.03"/><circle class="cls-3" cx="71.15" cy="193.34" r="0.56"/></g><g class="cls-1"><path class="cls-2" d="M75.66,204.55C71.16,190.73,70.28,164.82,70,161"/><path class="cls-3" d="M76.22,204.36a.56.56,0,1,1-.69-.39A.55.55,0,0,1,76.22,204.36Z"/></g><g class="cls-1"><line class="cls-2" x1="50.07" y1="177.95" x2="50.07" y2="161.03"/><circle class="cls-3" cx="50.07" cy="177.92" r="0.56"/></g><g class="cls-1"><line class="cls-2" x1="38.02" y1="179.31" x2="38.02" y2="161.03"/><circle class="cls-3" cx="38.02" cy="179.28" r="0.56"/></g><g class="cls-1"><line class="cls-2" x1="45.94" y1="192.81" x2="45.94" y2="161.03"/><path class="cls-3" d="M46.5,192.78a.56.56,0,1,1-.56-.56A.56.56,0,0,1,46.5,192.78Z"/></g><g class="cls-1"><line class="cls-2" x1="28.2" y1="182.32" x2="28.2" y2="161.03"/><circle class="cls-3" cx="28.2" cy="182.29" r="0.56"/></g><g class="cls-1"><line class="cls-2" x1="29.21" y1="182.55" x2="29.21" y2="161.03"/><circle class="cls-3" cx="29.21" cy="182.52" r="0.56"/></g><g class="cls-1"><line class="cls-2" x1="34.23" y1="181.1" x2="34.23" y2="161.03"/><circle class="cls-3" cx="34.23" cy="181.07" r="0.56"/></g><g class="cls-1"><path class="cls-2" d="M65.32,187.9c-.33-6-.3-23.68-.2-26.87"/><path class="cls-3" d="M65.9,187.86a.57.57,0,0,1-.55.58.58.58,0,0,1-.58-.56.57.57,0,0,1,1.13,0Z"/></g><g class="cls-1"><line class="cls-2" x1="71.93" y1="180.98" x2="71.93" y2="161.03"/><circle class="cls-3" cx="71.93" cy="180.96" r="0.56"/></g><g class="cls-1"><line class="cls-2" x1="45.27" y1="178.13" x2="45.27" y2="161.03"/><circle class="cls-3" cx="45.27" cy="178.11" r="0.56"/></g><g class="cls-1"><line class="cls-2" x1="40.47" y1="184.75" x2="40.47" y2="161.03"/><circle class="cls-3" cx="40.47" cy="184.72" r="0.56"/></g><g class="cls-1"><line class="cls-2" x1="37.01" y1="181.75" x2="37.01" y2="161.03"/><circle class="cls-3" cx="37.01" cy="181.72" r="0.56"/></g><g class="cls-1"><line class="cls-2" x1="47.93" y1="177.51" x2="47.93" y2="161.03"/><circle class="cls-3" cx="47.93" cy="177.49" r="0.56"/></g><g class="cls-1"><line class="cls-2" x1="52.24" y1="181.21" x2="52.24" y2="161.03"/><circle class="cls-3" cx="52.24" cy="181.18" r="0.56"/></g><g class="cls-1"><line class="cls-2" x1="72.86" y1="177.95" x2="72.86" y2="161.03"/><circle class="cls-3" cx="72.86" cy="177.92" r="0.56"/></g><g class="cls-1"><line class="cls-2" x1="33.47" y1="183.13" x2="33.47" y2="161.03"/><circle class="cls-3" cx="33.47" cy="183.1" r="0.56"/></g><g class="cls-1"><line class="cls-2" x1="31.39" y1="179.05" x2="31.39" y2="161.03"/><circle class="cls-3" cx="31.39" cy="179.03" r="0.56"/></g><g class="cls-1"><line class="cls-2" x1="68.55" y1="178.28" x2="68.55" y2="161.03"/><circle class="cls-3" cx="68.55" cy="178.26" r="0.56"/></g><g class="cls-1"><line class="cls-2" x1="48.62" y1="184.59" x2="48.62" y2="161.03"/><path class="cls-3" d="M49.19,184.57a.57.57,0,0,1-.57.56.57.57,0,0,1,0-1.13A.57.57,0,0,1,49.19,184.57Z"/></g><g class="cls-1"><path class="cls-2" d="M42.31,177.29V161"/><circle class="cls-3" cx="42.31" cy="177.26" r="0.56"/></g><g class="cls-1"><line class="cls-2" x1="58.09" y1="189.13" x2="58.09" y2="161.03"/><circle class="cls-3" cx="58.09" cy="189.1" r="0.56"/></g><g class="cls-1"><path class="cls-2" d="M44.38,184.37c-.05-3.57,0-23.34,0-23.34"/><circle class="cls-3" cx="44.39" cy="184.33" r="0.56"/></g><g class="cls-1"><line class="cls-2" x1="60.01" y1="180.36" x2="60.01" y2="161.03"/><circle class="cls-3" cx="60.01" cy="180.33" r="0.56"/></g><g class="cls-1"><line class="cls-2" x1="51.24" y1="183.13" x2="51.24" y2="161.03"/><circle class="cls-3" cx="51.24" cy="183.1" r="0.56"/></g><g class="cls-1"><line class="cls-2" x1="74.78" y1="178.28" x2="74.78" y2="161.03"/><path class="cls-3" d="M75.35,178.26a.57.57,0,0,1-.57.56.57.57,0,0,1,0-1.13A.57.57,0,0,1,75.35,178.26Z"/></g><g class="cls-1"><path class="cls-2" d="M70.05,182.46a135.14,135.14,0,0,1-1-21.43"/><path class="cls-3" d="M70.62,182.32a.56.56,0,0,1-1.11.2.55.55,0,0,1,.45-.65A.56.56,0,0,1,70.62,182.32Z"/></g><g class="cls-1"><line class="cls-2" x1="62.16" y1="182.59" x2="62.16" y2="161.03"/><circle class="cls-3" cx="62.16" cy="182.56" r="0.56"/></g><g class="cls-1"><line class="cls-2" x1="67.09" y1="176.75" x2="67.09" y2="161.03"/><path class="cls-3" d="M67.65,176.72a.56.56,0,0,1-.56.56.57.57,0,0,1-.57-.56.58.58,0,0,1,.57-.57A.57.57,0,0,1,67.65,176.72Z"/></g><g class="cls-1"><path class="cls-2" d="M55.6,184.52c-.18-4.79-.06-21.2.1-23.49"/><path class="cls-3" d="M56.18,184.48a.55.55,0,0,1-.56.57.57.57,0,1,1,.56-.57Z"/></g><g class="cls-1"><line class="cls-2" x1="30.77" y1="176.9" x2="30.77" y2="161.03"/><circle class="cls-3" cx="30.77" cy="176.87" r="0.56"/></g><g class="cls-1"><path class="cls-2" d="M72.58,207c1.26-12.79,1.56-38.41,1.58-45.94"/><path class="cls-3" d="M73.13,207a.57.57,0,0,1-.6.53.58.58,0,0,1-.53-.61.58.58,0,0,1,.61-.52A.56.56,0,0,1,73.13,207Z"/></g><g class="cls-1"><line class="cls-2" x1="66.22" y1="177.14" x2="66.22" y2="161.03"/><circle class="cls-3" cx="66.22" cy="177.11" r="0.56"/></g><g class="cls-1"><path class="cls-2" d="M53.27,185.31c.43-5,.42-21.82.32-24.28"/><path class="cls-3" d="M53.81,185.31a.56.56,0,1,1-1.12-.06.55.55,0,0,1,.59-.53A.56.56,0,0,1,53.81,185.31Z"/></g><g class="cls-1"><path class="cls-2" d="M54.64,196.46c.73-6.88,1.46-24.13,1.3-35.43"/><path class="cls-3" d="M55.19,196.47a.57.57,0,0,1-1.13-.09.57.57,0,0,1,1.13.09Z"/></g><g class="cls-1"><path class="cls-2" d="M59.08,204.75c-1.12-7.72-2.22-31-1.9-43.72"/><path class="cls-3" d="M59.66,204.66a.56.56,0,0,1-.5.62.57.57,0,0,1-.62-.51.56.56,0,0,1,1.12-.11Z"/></g><g class="cls-1"><line class="cls-2" x1="38.74" y1="177.95" x2="38.74" y2="161.03"/><path class="cls-3" d="M39.3,177.92a.56.56,0,0,1-.56.56.56.56,0,1,1,0-1.12A.56.56,0,0,1,39.3,177.92Z"/></g><g class="cls-1"><path class="cls-2" d="M28.07,195.59c-.32-8.42-.15-29.39.13-34.56"/><path class="cls-3" d="M28.65,195.55a.56.56,0,0,1-.56.57.57.57,0,0,1-.57-.56.57.57,0,1,1,1.13,0Z"/></g><g class="cls-1"><path class="cls-2" d="M70.28,187.17c-.27-7.1-.16-21.84,0-26.14"/><path class="cls-3" d="M70.86,187.13a.57.57,0,0,1-.56.57.55.55,0,0,1-.57-.55.56.56,0,0,1,.56-.58A.57.57,0,0,1,70.86,187.13Z"/></g><g class="cls-1"><path class="cls-2" d="M53.67,186.45c-.41-6.34-.6-22.08-.69-25.42"/><path class="cls-3" d="M54.25,186.4a.57.57,0,1,1-.58-.54A.56.56,0,0,1,54.25,186.4Z"/></g><g class="cls-1"><line class="cls-2" x1="65.07" y1="180.94" x2="65.07" y2="161.03"/><circle class="cls-3" cx="65.07" cy="180.91" r="0.56"/></g><g class="cls-1"><path class="cls-2" d="M57.79,203.83c.39-8.11.84-28.12,1-42.8"/><path class="cls-3" d="M58.34,203.81a.57.57,0,0,1-.58.55.56.56,0,0,1-.55-.57.57.57,0,1,1,1.13,0Z"/></g><g class="cls-1"><path class="cls-2" d="M64.43,201.82c-1.66-6.72-3.12-29-1.6-40.79"/><path class="cls-3" d="M65,201.67a.56.56,0,1,1-.67-.44A.56.56,0,0,1,65,201.67Z"/></g><g class="cls-1"><path class="cls-2" d="M38.16,197C41,180,41.37,173.75,40.67,161"/><path class="cls-3" d="M38.71,197a.56.56,0,1,1-1.11-.17.56.56,0,0,1,1.11.17Z"/></g><g class="cls-1"><path class="cls-2" d="M36.36,183.12c.27-5.43.24-18.82.11-22.09"/><path class="cls-3" d="M36.9,183.1a.56.56,0,1,1-.55-.57A.55.55,0,0,1,36.9,183.1Z"/></g><g class="cls-1"><path class="cls-2" d="M47.15,190.55c1-7,.76-25.9.33-29.52"/><path class="cls-3" d="M47.69,190.59a.56.56,0,1,1-.49-.63A.56.56,0,0,1,47.69,190.59Z"/></g><g class="cls-1"><path class="cls-2" d="M64.22,187c-.24-4.75-.46-18.89-.28-26"/><path class="cls-3" d="M64.8,187a.56.56,0,0,1-.55.57.55.55,0,0,1-.58-.54.57.57,0,1,1,1.13,0Z"/></g><g class="cls-1"><path class="cls-2" d="M31.65,193.25c1.76-9.21,2-26.12,1.76-32.22"/><path class="cls-3" d="M32.2,193.31a.56.56,0,1,1-.47-.65A.57.57,0,0,1,32.2,193.31Z"/></g><g class="cls-1"><path class="cls-2" d="M44.26,192.41c-.19-5.19-.38-24.18-.4-31.38"/><path class="cls-3" d="M44.83,192.37a.56.56,0,1,1-.57-.55A.55.55,0,0,1,44.83,192.37Z"/></g><g class="cls-1"><line class="cls-2" x1="75.21" y1="184.55" x2="75.21" y2="161.03"/><circle class="cls-3" cx="75.21" cy="184.52" r="0.56"/></g><g class="cls-1"><path class="cls-2" d="M48.64,206.7c-1.35-8.77-2.63-31.79-2.4-45.67"/><path class="cls-3" d="M49.22,206.6a.55.55,0,0,1-.49.62.56.56,0,0,1-.63-.49.58.58,0,0,1,.5-.63A.56.56,0,0,1,49.22,206.6Z"/></g><g class="cls-1"><path class="cls-2" d="M42.47,199.8c-1-10.53-2-8.31-2.44-38.77"/><path class="cls-3" d="M43,199.71a.55.55,0,0,1-.49.62.57.57,0,0,1-.63-.49.58.58,0,0,1,.5-.63A.56.56,0,0,1,43,199.71Z"/></g><g class="cls-1"><path class="cls-2" d="M50.42,201.35A355.1,355.1,0,0,0,51.52,161"/><path class="cls-3" d="M51,201.36a.57.57,0,1,1-.53-.6A.57.57,0,0,1,51,201.36Z"/></g><g class="cls-1"><line class="cls-2" x1="50.74" y1="177.49" x2="50.74" y2="161.03"/><circle class="cls-3" cx="50.74" cy="177.47" r="0.56"/></g><g class="cls-1"><path class="cls-2" d="M52.53,211.61c-2.91-4.07-5.43-20.8-5.78-50.58"/><path class="cls-3" d="M53,211.24a.56.56,0,0,1-.12.79.57.57,0,1,1-.67-.91A.56.56,0,0,1,53,211.24Z"/></g><g class="cls-1"><path class="cls-2" d="M49.56,188c-.3-6.25-.29-24.08-.24-27"/><circle class="cls-3" cx="49.58" cy="188" r="0.56" transform="translate(-55.04 24.12) rotate(-17.78)"/></g><g class="cls-1"><path class="cls-2" d="M39.34,189.09c.22-5.69.32-20-.11-28.06"/><path class="cls-3" d="M39.89,189.07a.57.57,0,0,1-.57.56.58.58,0,0,1-.56-.58.57.57,0,0,1,.58-.55A.56.56,0,0,1,39.89,189.07Z"/></g><g class="cls-1"><path class="cls-2" d="M31.86,200.71c3.23-10.87,3.49-33.84,3.21-39.68H35"/><path class="cls-3" d="M32.39,200.81a.57.57,0,0,1-.69.42.57.57,0,0,1,.28-1.1A.57.57,0,0,1,32.39,200.81Z"/></g><g class="cls-1"><path class="cls-2" d="M32,178.74c0-4.19-.06-15.81-.09-17.71"/><path class="cls-3" d="M32.53,178.7a.57.57,0,1,1-.57-.56A.56.56,0,0,1,32.53,178.7Z"/></g><g class="cls-1"><path class="cls-2" d="M54.19,177.23c0-3.15,0-15.26,0-16.2"/><circle class="cls-3" cx="54.19" cy="177.2" r="0.56"/></g><g class="cls-1"><path class="cls-2" d="M1,2.32a141,141,0,0,0,.48,23.56s.44,4.13,1,7.58c1.34,8.1,5,19.66,24.76,52,3.71,6.08,7.26,11.7,9.7,20.41a80.1,80.1,0,0,1,2.35,14.39,134,134,0,0,1,.44,20.64V161"/><path class="cls-3" d="M.4,2.32A.55.55,0,0,1,1,1.79.56.56,0,0,1,.93,2.91.55.55,0,0,1,.4,2.32Z"/></g><g class="cls-1"><path class="cls-2" d="M4.58,17.84c.24,5.7.67-9.34,2.65,4C9.43,36.62,11,46.92,16.6,59.34a123.39,123.39,0,0,0,9.93,17.51c8.67,12.9,13.55,15.24,16.84,25.44a79.25,79.25,0,0,1,2.9,14.83,104.8,104.8,0,0,1,.78,14.5V161"/><path class="cls-3" d="M4,17.89a.56.56,0,0,1,.53-.59.55.55,0,0,1,.59.53.55.55,0,0,1-.52.59A.56.56,0,0,1,4,17.89Z"/></g><g class="cls-1"><path class="cls-2" d="M14.48,7.12a169.64,169.64,0,0,0,2.68,30.25A166.14,166.14,0,0,0,23,60c2.39,7.17,3.92,11.69,7.25,17.18S34.93,82.9,41.37,91c6.13,7.74,10.48,13.22,13.6,20.75a55.11,55.11,0,0,1,4.13,20.3v29"/><path class="cls-3" d="M13.93,7.16a.57.57,0,0,1,.55-.58.57.57,0,0,1,.58.55.56.56,0,0,1-.55.58A.57.57,0,0,1,13.93,7.16Z"/></g><g class="cls-1"><path class="cls-2" d="M51.29,17.05c-.19,18.13-.3,1-1.89,8.83a76.21,76.21,0,0,0-1.79,13.83A73,73,0,0,0,49.4,58.56c2.34,10,6.36,16.92,10.37,23.87,4.85,8.39,6.21,8.59,8.92,14a55.09,55.09,0,0,1,5.47,25.32V161"/><circle class="cls-3" cx="51.28" cy="17.08" r="0.56"/></g><g class="cls-1"><path class="cls-2" d="M57,20.73c-.69,40.2-2.69,21.39-5.12,28.13-3.5,9.71-6.06,11.91-12.05,28.55-3.24,9-6.2,17.39-8.14,28.67A130.75,130.75,0,0,0,30,135.41S31,161,30,161"/><path class="cls-3" d="M56.4,20.75A.57.57,0,0,1,57,20.2a.56.56,0,0,1,.55.58.57.57,0,0,1-1.13,0Z"/></g><g class="cls-1"><path class="cls-2" d="M30.25.53A156.4,156.4,0,0,0,36,34.47c1.91,6.45,4.06,11.62,8.37,22,4.91,11.8,6.21,13.33,10.37,24,5.77,14.77,6.83,20.91,7.14,22.87.52,3.27.63,5.34,1.12,16.84.34,8.28.17,34.44.42,40.9"/><path class="cls-3" d="M29.7.61A.56.56,0,0,1,30.21,0a.57.57,0,0,1,.61.52.56.56,0,0,1-.51.61A.57.57,0,0,1,29.7.61Z"/></g><g class="cls-1"><path class="cls-2" d="M78.93,1.76A263.85,263.85,0,0,1,75.5,35C72.3,54,68.75,62,65.35,67.71c-2.58,4.3-6,9-6,9C53.21,85.14,50.38,87,46.94,92c-3.62,5.36-4.88,9.86-7.14,18a113.81,113.81,0,0,0-4.12,30.45V161"/><path class="cls-3" d="M78.35,1.75A.57.57,0,0,1,79,1.23a.56.56,0,0,1,.52.6.55.55,0,0,1-.6.52A.57.57,0,0,1,78.35,1.75Z"/></g><g class="cls-1"><path class="cls-2" d="M74.51,5c.37,15.73.53,23.7-1.69,33.37a132.49,132.49,0,0,1-11,29.34c-1.69,3.11-3.44,6-6,11.37a140.06,140.06,0,0,0-7.13,17.63,144.51,144.51,0,0,0-6.25,31.56c-.45,4.39-.67,8.07-.78,10.71V161"/><circle class="cls-3" cx="74.51" cy="5.03" r="0.56" transform="translate(52.77 76.47) rotate(-76.94)"/></g><g class="cls-1"><path class="cls-2" d="M89.74,16.71c2.47,16.17,2.87,3.72,2.71,13.85-.31,19.35-2.72,27-4.35,31.24a73.47,73.47,0,0,1-12,20.41C72.91,86,69.3,89.13,62.22,95.26c-16,13.83-16.25,11.81-20,16.95-7.87,10.9-9.33,23.75-9.59,26.44-.14,1.4-.2,2.56-.23,3.34v19"/><path class="cls-3" d="M89.2,16.83a.56.56,0,0,1,1.11-.19.56.56,0,0,1-.46.65A.55.55,0,0,1,89.2,16.83Z"/></g><g class="cls-1"><path class="cls-2" d="M100.6,4.56c.15,8.07.79,24.85-.34,43.29a58,58,0,0,1-1.12,8.48,59.11,59.11,0,0,1-10.7,23.54c-1.9,2.47-8.92,8.6-23,20.85a54.2,54.2,0,0,0-8.26,8.37c-6.22,8.08-7.55,15.24-7.8,16.73a33.12,33.12,0,0,0-.45,7V161"/><path class="cls-3" d="M100,4.6a.57.57,0,0,1,.55-.58.58.58,0,0,1,.58.56.57.57,0,0,1-1.13,0Z"/></g><g class="cls-1"><path class="cls-2" d="M23.84.66c-.16,9.47-.17,6.14,3,28.57a120.31,120.31,0,0,0,6.8,27.66,93,93,0,0,0,6.25,13.49C51.45,90.57,64.26,93,67,108.09a91.39,91.39,0,0,1,.78,10.15,193.89,193.89,0,0,1,0,20.07V161"/><path class="cls-3" d="M23.28.68a.57.57,0,0,1,.57-.56.56.56,0,0,1,.56.57.57.57,0,0,1-1.13,0Z"/></g><g class="cls-1"><path class="cls-2" d="M60.27,20.73c-1.4,13.52-2.06,3.78-1,22.22C60.39,60.63,61,70,64.34,82.88c2.46,9.38,4.77,14.37,5.36,24.42.3,5.25.14,11.85-.11,22.42-.11,4.47-.24,8.17-.34,10.71V161"/><path class="cls-3" d="M59.69,20.68a.57.57,0,0,1,.64-.48.56.56,0,0,1,.48.63.56.56,0,0,1-.63.49A.57.57,0,0,1,59.69,20.68Z"/></g><g class="cls-1"><path class="cls-2" d="M44.26,3.67c-.33,17-.36,4.73-.33,14.51C44,31,44.12,35,43.26,41.83,40.69,62.39,35,62.21,34,75.85c-1.3,18.34,8.72,23,10.71,50.75a120.92,120.92,0,0,1,.11,15.62s.34,18.48,0,18.81"/><path class="cls-3" d="M43.69,3.68a.57.57,0,0,1,.58-.55.57.57,0,1,1-.58.55Z"/></g><g class="cls-1"><path class="cls-2" d="M.55,54.62C7.29,85.13,16.05,98,23.3,104a71.43,71.43,0,0,1,9,8.92c4.38,5.14,10.5,12.51,11,22.53a26.78,26.78,0,0,1-.33,5.91V161"/><path class="cls-3" d="M0,54.78a.56.56,0,0,1,.41-.68A.57.57,0,0,1,.7,55.2.57.57,0,0,1,0,54.78Z"/></g><g class="cls-1"><path class="cls-2" d="M94.78,19.23a59.43,59.43,0,0,1,4.59,22.6c0,4.48-.09,16.81-7.25,28.55-3.35,5.49-4.75,5.14-9.15,12.5s-3.59,8.64-8.14,17-5.86,8-9.93,16.29c-3,6.17-4.21,10.18-4.57,14.39a33.22,33.22,0,0,0,.33,8.25V161"/><path class="cls-3" d="M94.25,19.47a.56.56,0,1,1,1-.4.56.56,0,0,1-1,.4Z"/></g><g class="cls-1"><path class="cls-2" d="M100.9,56.86c1.83,12.75-.84,20.65-3.76,25.57-.84,1.42-.47.51-9.71,12.27A129.27,129.27,0,0,0,76.5,110.09a35.16,35.16,0,0,0-4.79,11.71,31.52,31.52,0,0,0-.56,6.36V161"/><path class="cls-3" d="M100.32,57a.57.57,0,0,1,.5-.62.56.56,0,0,1,.62.5.55.55,0,0,1-.49.62A.57.57,0,0,1,100.32,57Z"/></g><g class="cls-1"><path class="cls-2" d="M93,79.51c1.14,9.73-1.23,14.86-3.63,17.76-2.2,2.64-4.25,3.22-7.14,6.47-.88,1-3.13,3.76-6.36,13.27-4.64,13.68-5.55,40.18-5.8,44"/><path class="cls-3" d="M92.39,79.58A.56.56,0,0,1,92.9,79a.57.57,0,1,1-.51.61Z"/></g><g class="cls-1"><path class="cls-2" d="M92.2,62c-.36,6.82-2,16.41-8.34,24.9C77.31,95.65,73,93.5,64.34,103.74a62.28,62.28,0,0,0-13.83,31.45,58.53,58.53,0,0,0-.44,8.39V161"/><path class="cls-3" d="M91.62,62a.56.56,0,0,1,.61-.51.56.56,0,1,1-.1,1.12A.56.56,0,0,1,91.62,62Z"/></g><g class="cls-1"><path class="cls-2" d="M6.68,24.07A108.2,108.2,0,0,0,9.91,50.86C12.42,60.8,17.6,72,27.87,94c5.25,11.26,6.64,13.76,8.14,19.41a77.78,77.78,0,0,1,2,28.78V161"/><path class="cls-3" d="M6.13,24.12a.57.57,0,0,1,.55-.58.56.56,0,0,1,.58.54.57.57,0,0,1-.55.58A.56.56,0,0,1,6.13,24.12Z"/></g><g class="cls-1"><path class="cls-2" d="M81.22,9.89a84.86,84.86,0,0,1,3,23.35,68.33,68.33,0,0,1-3.57,22.87A67.9,67.9,0,0,1,70.37,75c-5.28,7.06-6.3,5.85-10.93,12C51.74,97.27,49.2,107.72,48,113.1a78,78,0,0,0-2,15.62V161"/><path class="cls-3" d="M80.65,10.05a.57.57,0,1,1,.68.42A.57.57,0,0,1,80.65,10.05Z"/></g><g class="cls-1"><path class="cls-2" d="M28.71,56c.53,5,1.05,11.36,1.28,18.76a218.23,218.23,0,0,1-.89,31.91c-.8,7.41-1.7,11.56-1.68,19.74a112.34,112.34,0,0,0,.78,12.83V161"/><path class="cls-3" d="M28.14,56.05a.56.56,0,1,1,.61.51A.56.56,0,0,1,28.14,56.05Z"/></g><g class="cls-1"><path class="cls-2" d="M12.84,99.89a61.58,61.58,0,0,1,11.91,18.68A61.62,61.62,0,0,1,29.21,139V161"/><path class="cls-3" d="M12.43,100.29a.56.56,0,1,1,.79,0A.55.55,0,0,1,12.43,100.29Z"/></g><g class="cls-1"><path class="cls-2" d="M19.8,85.53C19.41,91,20,98,25,103c.61.61.67.57,1.34,1.23,2.76,2.74,5.44,7.08,7,20.08a122.8,122.8,0,0,1,.89,16.17V161"/><path class="cls-3" d="M19.24,85.53a.57.57,0,0,1,.6-.53.55.55,0,0,1,.53.59.57.57,0,0,1-1.13-.06Z"/></g><g class="cls-1"><path class="cls-2" d="M87,46.48a60.3,60.3,0,0,1-2.09,28.81c-3.58,10.57-7,10-12.27,23.2-5.78,14.5-6.78,28.09-7.25,35.14C65,139,65,157.74,65.12,161"/><path class="cls-3" d="M86.38,46.59a.58.58,0,0,1,.49-.63A.56.56,0,0,1,87,47.08.58.58,0,0,1,86.38,46.59Z"/></g><g class="cls-1"><path class="cls-2" d="M96.87,79.17c-1,12.54-5,20-8.66,24.57-3,3.82-4.1,3.47-7.25,7.91-6.43,9.09-7.95,18.91-8.47,22.54a54.76,54.76,0,0,0-.56,6.35V161"/><path class="cls-3" d="M96.29,79.14a.57.57,0,1,1,.51.62A.57.57,0,0,1,96.29,79.14Z"/></g><g class="cls-1"><path class="cls-2" d="M64,7.77a100.91,100.91,0,0,1,2.67,24.91,85.21,85.21,0,0,1-4,26,60.75,60.75,0,0,1-5.91,13.72c-1.54,2.54-3,4.41-6.36,10-2.63,4.35-3.41,5.93-4,7.92a25,25,0,0,0-.9,9.15,199.62,199.62,0,0,1-.22,21.64V161"/><path class="cls-3" d="M63.46,7.92a.56.56,0,0,1,.44-.67.57.57,0,1,1-.44.67Z"/></g><g class="cls-1"><path class="cls-2" d="M11.59,31.29C10.8,47.42,14,58.78,17.08,66.23,19.48,72,21.49,74.6,28.7,90.15c4.14,8.94,6.21,13.41,7.61,17.7a87.37,87.37,0,0,1,4.16,28.93V161"/><path class="cls-3" d="M11,31.31a.55.55,0,0,1,.57-.55.56.56,0,1,1,0,1.12A.55.55,0,0,1,11,31.31Z"/></g><g class="cls-1"><path class="cls-2" d="M9.9,73.9a75.32,75.32,0,0,0,8.79,21.33c6.69,10.94,12.6,14,16.31,23.7a41.44,41.44,0,0,1,2,20.85V161"/><circle class="cls-3" cx="9.92" cy="73.92" r="0.56" transform="translate(-59.59 46.88) rotate(-61.1)"/></g><g class="cls-1"><path class="cls-2" d="M71.09,20.52c0,11.52,0-4.32,0,3.7,0,4.06,0,8.66-.31,14.85-.28,6.49-.5,11.47-1.31,17.54C68,67.73,67.25,73.29,64.55,77.77,60,85.29,55.38,84.88,51.32,93.62a41,41,0,0,0-3.08,10.69c-1.16,6.52-.79,11.22-.54,16.47.27,5.54.49,13.41.23,23.23v17"/><path class="cls-3" d="M70.53,20.55a.56.56,0,0,1,.56-.57.57.57,0,0,1,.57.56.57.57,0,0,1-.56.57A.56.56,0,0,1,70.53,20.55Z"/></g><g class="cls-1"><path class="cls-2" d="M35,36.6a106.63,106.63,0,0,0,3.78,18.24C40.7,61.2,42,63.36,45.85,75.23a108.84,108.84,0,0,1,3.31,11.92,114.45,114.45,0,0,1,1.77,11.78c.39,3.68.6,7,.85,15.08.41,13.69.46,26.31.46,26.31V161"/><circle class="cls-3" cx="35.01" cy="36.62" r="0.56" transform="translate(-15.6 39.04) rotate(-49.02)"/></g><g class="cls-1"><path class="cls-2" d="M41.42,5.51c-1.26,12.83-1.52-14.76,1,4.63,2.17,16.4,4,29.83,11.08,46.16,5.73,13.13,10,16.89,13.77,31.08,2.4,9.09,3.14,17,4.15,27.78,1.1,11.61,1.37,21.37,1.39,28.42V161"/><path class="cls-3" d="M40.84,5.46a.56.56,0,1,1,.49.63A.56.56,0,0,1,40.84,5.46Z"/></g><g class="cls-1"><path class="cls-2" d="M5,78.06c3,14.19,8.55,21.49,13.2,25.56,2.21,1.93,5.35,4.11,8.47,8.69a39.66,39.66,0,0,1,5.84,14.47,45.87,45.87,0,0,1,.93,11.62V161"/><path class="cls-3" d="M4.51,78.22a.56.56,0,1,1,.68.41A.55.55,0,0,1,4.51,78.22Z"/></g><g class="cls-1"><path class="cls-2" d="M12.86,103.84C15.08,116.28,19.35,121.54,23,124a18.65,18.65,0,0,1,3,2.23c4.71,4.48,5.48,11.21,5.39,16.23V161"/><path class="cls-3" d="M12.33,104a.56.56,0,1,1,.67.44A.57.57,0,0,1,12.33,104Z"/></g><g class="cls-1"><path class="cls-2" d="M81.16,59.74A18.57,18.57,0,0,1,81,70.92c-1.54,4.24-4.11,5.48-6.78,10.31-1.1,2-2.27,4.7-3.53,11.93-1.7,9.65-1.82,17.41-1.93,26.54-.13,11-.2,19.38-.23,23.54V161"/><path class="cls-3" d="M80.6,59.9a.56.56,0,1,1,.67.42A.55.55,0,0,1,80.6,59.9Z"/></g><g class="cls-1"><path class="cls-2" d="M80.12,27.36a93.19,93.19,0,0,1-.87,18.94,79.92,79.92,0,0,1-5.54,20.54c-3,7-6.64,12.38-13.47,22.55-3.4,5-3.64,5.06-4.85,7.23-4,7.14-4.72,13.59-5.77,22a133.41,133.41,0,0,0-1,18.31V161"/><path class="cls-3" d="M79.55,27.42a.57.57,0,0,1,.54-.59.57.57,0,0,1,.59.54.56.56,0,0,1-.54.59A.57.57,0,0,1,79.55,27.42Z"/></g><g class="cls-1"><path class="cls-2" d="M19.85,31a91.47,91.47,0,0,0,1.07,32.48,88.83,88.83,0,0,0,7.85,22.39c4.69,9.1,7.47,10.38,10.08,18.31,1.61,4.86,2,9.74,2.69,19.31.57,7.66.77,14.63.77,20.77V161"/><path class="cls-3" d="M19.3,30.94a.55.55,0,0,1,.62-.49.58.58,0,0,1,.5.63.56.56,0,0,1-1.12-.14Z"/></g><g class="cls-1"><path class="cls-2" d="M31.21,56.6A97.89,97.89,0,0,0,36.31,80a126.11,126.11,0,0,0,8.54,18.77c5.79,10.36,9.71,13.9,11.93,22.7a43.63,43.63,0,0,1,1.31,10.92V161"/><path class="cls-3" d="M30.66,56.69a.56.56,0,1,1,1.12-.12.56.56,0,0,1-1.12.12Z"/></g><g class="cls-1"><path class="cls-2" d="M12.37,92.76a58.69,58.69,0,0,0,14.56,15.55c3.74,2.72,4.88,2.81,7.69,5.54a32.94,32.94,0,0,1,9.31,17.54,23,23,0,0,1,.46,5.77c-.08.7,0,23.87,0,23.87"/><path class="cls-3" d="M11.93,93.09a.56.56,0,1,1,.78.15A.55.55,0,0,1,11.93,93.09Z"/></g><g class="cls-1"><path class="cls-2" d="M76,69.9a29.19,29.19,0,0,1-.67,16.95,39.58,39.58,0,0,1-2.54,5c-7.38,13.33-11.17,16.38-12.38,23.93-.11.67-.18,2.4-.31,5.84-.32,8.3-.22,15-.08,19.55V161"/><path class="cls-3" d="M75.42,70a.56.56,0,1,1,.66.45A.56.56,0,0,1,75.42,70Z"/></g><g class="cls-1"><path class="cls-2" d="M74.48,52.91A36.28,36.28,0,0,1,70.71,70c-1.64,3.17-2.95,4.38-4.7,7.77-3.15,6.09-2,9.25-4.15,16.08a52.88,52.88,0,0,1-5,10.62c-3.23,6-6.41,16-5.62,33.93V161"/><path class="cls-3" d="M73.9,52.93a.57.57,0,1,1,.56.57A.57.57,0,0,1,73.9,52.93Z"/></g><g class="cls-1"><path class="cls-2" d="M88.85,28.37a132,132,0,0,1,.4,25.16,107.59,107.59,0,0,1-3.62,21.78C83.08,84.4,81.8,88.94,79.4,93.46a34.67,34.67,0,0,0-4.46,12.78,30.6,30.6,0,0,0-.23,4.38c.07,6.28.08,17.5.07,32.62V161"/><circle class="cls-3" cx="88.84" cy="28.39" r="0.56" transform="translate(46.69 111.59) rotate(-80.86)"/></g><g class="cls-1"><path class="cls-2" d="M86.23,87.52a247.86,247.86,0,0,1-7,28.87,106.34,106.34,0,0,1-3.77,10.7c-2.57,6-4.08,7.68-5.31,12-.75,2.6-1.48,16.82-1.08,21.94"/><path class="cls-3" d="M85.66,87.44a.56.56,0,1,1,1.1.23.56.56,0,1,1-1.1-.23Z"/></g><g class="cls-1"><path class="cls-2" d="M56.05,91.41a18.24,18.24,0,0,1,2.88,4.75,19,19,0,0,1,1.39,6.54c.27,5.51,1,11,1.08,16.54,0,4.6.16,11.28.76,19.69V161"/><path class="cls-3" d="M55.6,91.79a.56.56,0,1,1,.79.11A.56.56,0,0,1,55.6,91.79Z"/></g><g class="cls-1"><path class="cls-2" d="M35.07,12.28A142.13,142.13,0,0,0,47.47,56a128.7,128.7,0,0,0,8,14.7c3.52,5.26,4.15,5,5.93,8.39,3.06,5.84,3.61,11.26,4.3,18.69.29,3.06.11,2.59.47,12.47.35,9.67.56,11.25.77,17.77.12,4,.23,9.72.15,16.77V161"/><path class="cls-3" d="M34.53,12.39a.57.57,0,0,1,.47-.64.58.58,0,0,1,.65.48.57.57,0,1,1-1.12.16Z"/></g><g class="cls-1"><path class="cls-2" d="M78.72,72.75a37.6,37.6,0,0,1,.06,11.4C77.85,90.43,75.51,94.9,73.32,99c-2.87,5.39-3.49,4.84-9.69,14.62-5.11,8-6.08,10.62-6.7,13A51.89,51.89,0,0,0,55.62,137c-.2,3.94-.08,21.64.08,24"/><path class="cls-3" d="M78.15,72.86a.57.57,0,1,1,.64.48A.56.56,0,0,1,78.15,72.86Z"/></g><g class="cls-1"><path class="cls-2" d="M61.7,1.67c0,12.62-.1,24.48-.3,36a93.18,93.18,0,0,1-3.47,25.47,53,53,0,0,1-2.31,6.54C52.07,77.87,48,81.07,43.55,86.92c-2.55,3.32-8.63,11.4-11.32,22.47-1.2,5-1.34,9.63-1.61,18.93-.2,6.73,0,12.35.15,16.31V161"/><path class="cls-3" d="M61.13,1.69a.57.57,0,0,1,1.13,0,.57.57,0,1,1-1.13,0Z"/></g><g class="cls-1"><path class="cls-2" d="M54.89,22.88c-2.27,15.28-.44,26.72,1.67,34.37C60.13,70.18,65,74.16,69.06,91.17c1.85,7.72,2.47,13.73,3.47,23.39,1.3,12.6,1.61,38.84,1.63,46.47"/><path class="cls-3" d="M54.34,22.84a.56.56,0,1,1,.49.63A.57.57,0,0,1,54.34,22.84Z"/></g><g class="cls-1"><path class="cls-2" d="M34.74,46.9c-1.17,16.34,2.59,27.1,6.35,34,5.38,9.86,11.28,12.73,17.7,27.36a88.8,88.8,0,0,1,5.82,18.44,87.24,87.24,0,0,1,1.61,17.7V161"/><path class="cls-3" d="M34.19,46.9a.57.57,0,0,1,1.13.05.57.57,0,0,1-.59.54A.57.57,0,0,1,34.19,46.9Z"/></g><g class="cls-1"><path class="cls-2" d="M22.51,48.26a66.33,66.33,0,0,0,4.22,26.2c3.59,9.29,6.07,8.91,14.36,25.49a157,157,0,0,1,9.53,24,68.82,68.82,0,0,1,2.6,12.26c.48,4.18.48,22.26.37,24.81"/><path class="cls-3" d="M22,48.28a.56.56,0,1,1,.56.57A.56.56,0,0,1,22,48.28Z"/></g><g class="cls-1"><path class="cls-2" d="M30.4,27.34a65.83,65.83,0,0,0,1,18.28C32.5,51,34.24,59.69,40.22,68c2,2.8,3.77,4.54,5.45,8.42a31.31,31.31,0,0,1,2.47,12.13c.4,12.91,4,15.26,6.44,36.51.75,6.48,1.52,24.35,1.36,36"/><path class="cls-3" d="M29.86,27.34A.56.56,0,0,1,31,27.4a.56.56,0,1,1-1.12-.06Z"/></g><g class="cls-1"><path class="cls-2" d="M65.23,36.24a77.39,77.39,0,0,1,2,23.74c-.24,3.13-.43,3.1-1.49,11.51C64,84.92,64.15,87.91,63,96.36c-1.43,10.45-2.39,11.43-3.84,20.43-1.15,7.13-2.3,31.26-2,44.24"/><path class="cls-3" d="M64.67,36.39a.56.56,0,1,1,1.1-.24.57.57,0,0,1-.43.67A.56.56,0,0,1,64.67,36.39Z"/></g><g class="cls-1"><path class="cls-2" d="M17,54.44A70.2,70.2,0,0,0,19.55,81c3.88,12.9,9.61,17.57,14.36,30.07a79.68,79.68,0,0,1,4.83,32.49V161"/><path class="cls-3" d="M16.48,54.44A.57.57,0,1,1,17,55,.57.57,0,0,1,16.48,54.44Z"/></g><g class="cls-1"><path class="cls-2" d="M58.46,49.12a68.11,68.11,0,0,1-8.71,24.1c-4.09,6.88-7.61,7.21-12.37,15.22A64.53,64.53,0,0,0,30,107.87c-1.32,5.93-1.51,10.28-1.86,18.07-.35,8-.18,29.81.11,35.09"/><path class="cls-3" d="M57.88,49a.56.56,0,1,1,.45.66A.57.57,0,0,1,57.88,49Z"/></g><g class="cls-1"><path class="cls-2" d="M82.46,39c3.35,11.4,3,20.22,2.07,26.22-.4,2.57-.73,3.41-4.45,16.59s-5.64,20-6.07,21.91a169.7,169.7,0,0,0-3.71,30.69c-.29,6.87-.19,22.26,0,26.67"/><path class="cls-3" d="M81.91,39.13a.56.56,0,0,1,.4-.69.56.56,0,1,1-.4.69Z"/></g><g class="cls-1"><path class="cls-2" d="M85.23,26.78c1.23,12.06.94-3.39.33,4.61C84.61,44,83.7,54.65,78,67c-2.42,5.29-3.26,4.74-9,14.91-6,10.67-9,16-11.16,22.74-2.55,7.94-3.1,15.43-4.19,30.41C53.27,141,53.08,157.59,53,161"/><path class="cls-3" d="M84.68,26.87a.56.56,0,0,1,.5-.62.55.55,0,0,1,.62.49.56.56,0,0,1-.49.63A.58.58,0,0,1,84.68,26.87Z"/></g><g class="cls-1"><path class="cls-2" d="M96,46.53c2.12,6.7,3.9,16.69.41,27C93.92,81,89.16,87.18,87.3,89.61c-4.65,6.09-6.44,6.25-10.14,11.73s-5.23,10.24-7.33,16.79a115.3,115.3,0,0,0-4.76,22.46V161"/><path class="cls-3" d="M95.47,46.72a.56.56,0,1,1,.7.38A.56.56,0,0,1,95.47,46.72Z"/></g><g class="cls-1"><path class="cls-2" d="M60.05,16.86A116.32,116.32,0,0,1,63,43.12a57.36,57.36,0,0,1-1.16,12.31c-1.31,6-2.65,6.81-4.48,13.18A63.35,63.35,0,0,0,54.86,86c0,5.24.75,6.3,1.74,15.2.55,4.94.76,8.87,1.16,16.51s.87,28.32,1,43.33"/><path class="cls-3" d="M59.49,17a.57.57,0,0,1,.44-.66.57.57,0,1,1-.44.66Z"/></g><g class="cls-1"><path class="cls-2" d="M79.72,52.43a35,35,0,0,1,3.53,11.69,37.51,37.51,0,0,1-2.32,17.09C74,101.29,68.08,107.35,64.57,119.73c-1.71,6-3.3,29.18-1.74,41.3"/><path class="cls-3" d="M79.22,52.71A.56.56,0,1,1,80,53,.55.55,0,0,1,79.22,52.71Z"/></g><g class="cls-1"><path class="cls-2" d="M32.57,82.88a206.48,206.48,0,0,1,5.5,23.67c3,17.44,3.3,41.63,2.6,54.48"/><path class="cls-3" d="M32,83.06a.56.56,0,1,1,.69.4A.57.57,0,0,1,32,83.06Z"/></g><g class="cls-1"><path class="cls-2" d="M26.14,98.63a99.79,99.79,0,0,1,8.31,24.43,117.67,117.67,0,0,1,1.88,15.35c.31,5,.27,19.24.14,22.62"/><path class="cls-3" d="M25.62,98.9a.56.56,0,1,1,.74.28A.56.56,0,0,1,25.62,98.9Z"/></g><g class="cls-1"><path class="cls-2" d="M39.33,81.23C36.5,98.4,39,109.13,42,115.87A58,58,0,0,1,47.06,131c1.15,6.48.86,26.33.42,30"/><path class="cls-3" d="M38.78,81.18a.55.55,0,0,1,.63-.48.56.56,0,1,1-.15,1.11A.56.56,0,0,1,38.78,81.18Z"/></g><g class="cls-1"><path class="cls-2" d="M60.45,40.47c.3,6.05.37,11,.38,14.46,0,8.82-.35,12.88-.41,25.25,0,6.42-.05,9.68.2,12C61.47,100,63,101,64.14,109.56a96.29,96.29,0,0,1,.73,14.49c-.07,4.19-.34,5.76-.62,10.45-.26,4.12-.49,19.13-.31,26.53"/><circle class="cls-3" cx="60.43" cy="40.49" r="0.56"/></g><g class="cls-1"><path class="cls-2" d="M21.57,101.13a96.84,96.84,0,0,1,10,27.16c1.85,9.07,2.12,26.53,1.86,32.74"/><path class="cls-3" d="M21.07,101.42a.56.56,0,0,1,.24-.76.57.57,0,1,1-.24.76Z"/></g><g class="cls-1"><path class="cls-2" d="M38.25,78.77A43.88,43.88,0,0,1,43.76,92c.93,4,1.05,7.19,1.24,12.52.14,3.87,0,7.15-.21,13.56-.18,5.17-.33,7.17-.51,11.07-.2,4.26-.4,24.44-.42,31.91"/><path class="cls-3" d="M37.75,79.08a.56.56,0,0,1,1-.55.56.56,0,1,1-1,.55Z"/></g><g class="cls-1"><path class="cls-2" d="M85.32,82.16c1.27,10.4-.34,18-2.14,23.06-2.67,7.56-7.08,13.47-8,24.31a46.53,46.53,0,0,0,0,7.45V161"/><path class="cls-3" d="M84.74,82.24a.57.57,0,0,1,1.13-.11.57.57,0,0,1-.51.62A.58.58,0,0,1,84.74,82.24Z"/></g><g class="cls-1"><path class="cls-2" d="M69.4,44a67.55,67.55,0,0,1,.33,18.31,42.69,42.69,0,0,1-2.17,10.24c-3,8.08-7.56,11-11.38,16.14C52.17,94,51,101,48.73,114.84c-1.38,8.34-2.72,32-2.49,46.19"/><path class="cls-3" d="M68.83,44.08A.57.57,0,0,1,70,43.93a.58.58,0,0,1-.49.64A.57.57,0,0,1,68.83,44.08Z"/></g><g class="cls-1"><path class="cls-2" d="M45.32,8.8c.28,14.12.13,26.13-.11,35.48-.21,7.81-.49,13.9-.62,16.65-.74,15.2-1.78,26.44-2.07,29.8-1,11.15-2.09,39.34-2.49,70.3"/><circle class="cls-3" cx="45.32" cy="8.83" r="0.56" transform="translate(1.41 23.12) rotate(-29.05)"/></g><g class="cls-1"><path class="cls-2" d="M46.51,49.77Q47.69,60,48.73,70.56c.93,9.64,1.53,17,1.65,18.62,1.72,21.91,1.28,63.7,1.14,71.85"/><path class="cls-3" d="M46,49.86a.56.56,0,1,1,.62.5A.56.56,0,0,1,46,49.86Z"/></g><g class="cls-1"><path class="cls-2" d="M32.42,94.93c5.5,6,14.63,17.73,17.52,34.67a64.14,64.14,0,0,1,.8,14.43v17"/><path class="cls-3" d="M32,95.34a.56.56,0,0,1,0-.79.56.56,0,1,1,.75.83A.56.56,0,0,1,32,95.34Z"/></g><g class="cls-1"><path class="cls-2" d="M74.14,85.59C70,91.15,66.49,95.23,64,98c-2.12,2.36-5.63,6.14-6.12,6.67-2.82,3-4.89,5.21-5,5.37-3,3.23-5.75,20.07-6.11,51"/><path class="cls-3" d="M73.67,85.26a.56.56,0,1,1,.1.79A.56.56,0,0,1,73.67,85.26Z"/></g><g class="cls-1"><path class="cls-2" d="M71.25,71.64A74.9,74.9,0,0,0,59.33,88.35c-8,15.45-8.92,30.75-9.74,45.15-.33,5.69-.32,24.52-.27,27.53"/><path class="cls-3" d="M70.83,71.31a.56.56,0,1,1,0,.79A.55.55,0,0,1,70.83,71.31Z"/></g><g class="cls-1"><path class="cls-2" d="M31.42,97.5a70.48,70.48,0,0,1,5.68,15.28c1.59,6.48,1.85,11.48,2.22,19.66.24,5.28.35,20.22-.09,28.59"/><circle class="cls-3" cx="31.42" cy="97.53" r="0.56" transform="translate(-71.03 95.6) rotate(-71.06)"/></g><g class="cls-1"><path class="cls-2" d="M19,97.09A74,74,0,0,1,31.7,120.84c3.38,10.65,3.65,34.26,3.37,40.19H35"/><path class="cls-3" d="M18.58,97.46a.56.56,0,1,1,.79.11A.56.56,0,0,1,18.58,97.46Z"/></g><g class="cls-1"><path class="cls-2" d="M25.85,117.6c5.12,9.77,6.08,15.54,6.12,18.82,0,.61,0,3.41,0,6.37,0,3.63-.06,16.25-.09,18.24"/><path class="cls-3" d="M25.35,117.88a.56.56,0,0,1,.25-.76.56.56,0,0,1,.75.25.56.56,0,0,1-.25.76A.56.56,0,0,1,25.35,117.88Z"/></g><g class="cls-1"><path class="cls-2" d="M65.67,54.09c-.5,7.77-1.17,14.23-1.74,18.94-.69,5.69-1.38,10.16-2.75,18.86-1,6.34-1.11,6.84-3,18.5-2.75,16.94-3.83,24-4,33.91,0,1.87,0,15.72,0,16.73"/><path class="cls-3" d="M65.09,54.07a.57.57,0,0,1,1.13.09.57.57,0,0,1-1.13-.09Z"/></g></g></g></svg>