<svg id="Layer_1" data-name="Layer 1" xmlns="http://www.w3.org/2000/svg" viewBox="0 0 324.68 97.38"><defs><style>.cls-1,.cls-2{fill:#433494;}.cls-1{fill-rule:evenodd;}</style></defs><polygon class="cls-1" points="7.36 29.1 16.56 29.1 16.56 25.42 7.36 25.42 7.36 29.1 7.36 29.1"/><polygon class="cls-1" points="23.91 29.1 33.11 29.1 33.11 25.42 20.24 25.42 20.24 41.98 23.91 41.98 23.91 29.1 23.91 29.1"/><path class="cls-1" d="M30.89,18.39V14.63a20.24,20.24,0,0,0-16.55,19.9v9.2H18v-9.2A16.55,16.55,0,0,1,30.89,18.39Z" transform="translate(-14.34 -14.63)"/><path class="cls-1" d="M51.13,40.05v11A16.56,16.56,0,0,1,34.57,67.65v3.68A20.24,20.24,0,0,0,54.81,51.09v-11Z" transform="translate(-14.34 -14.63)"/><polygon class="cls-1" points="55.31 43.68 55.31 53.66 53.35 53.66 53.35 43.68 49.52 43.68 49.52 41.98 59.15 41.98 59.15 43.68 55.31 43.68 55.31 43.68"/><path class="cls-1" d="M79.28,63v3.11a9.16,9.16,0,0,0,.21,2.2H77.8a5.5,5.5,0,0,1-.11-1.16h0a3.17,3.17,0,0,1-2.8,1.34A2.52,2.52,0,0,1,72,66c0-1.36.8-2.24,3.19-2.62.68-.12,1.66-.21,2.25-.25V62.8c0-1.24-.67-1.73-1.62-1.73a1.47,1.47,0,0,0-1.64,1.46H72.37c.08-1.57,1.23-2.82,3.48-2.82s3.43,1.08,3.43,3.27Zm-1.81,1.36h0a17.88,17.88,0,0,0-1.92.21c-1.19.2-1.64.56-1.64,1.31s.53,1.23,1.48,1.23a2.16,2.16,0,0,0,1.51-.55,2.23,2.23,0,0,0,.57-1.79v-.41Z" transform="translate(-14.34 -14.63)"/><path class="cls-1" d="M92.93,63.16v5.13H91.06v-5c0-1.48-.57-2.07-1.51-2.07-1.1,0-1.75.93-1.75,2.53v4.49H85.93V63.14c0-1.18-.53-1.87-1.5-1.87s-1.75.95-1.75,2.56v4.46H80.81V60H82.6v1h0a2.68,2.68,0,0,1,2.31-1.2,2.49,2.49,0,0,1,2.46,1.51,3,3,0,0,1,2.68-1.51c1.77,0,2.85,1.15,2.85,3.4Z" transform="translate(-14.34 -14.63)"/><path class="cls-1" d="M102.29,64.12c0,2.66-1.34,4.37-3.46,4.37a2.79,2.79,0,0,1-2.44-1.28h0v4.12H94.48V60h1.83v1.15h0a2.81,2.81,0,0,1,2.48-1.37c2.11,0,3.47,1.73,3.47,4.38Zm-6,0h0c0,1.81.8,2.92,2,2.92s2.07-1.14,2.07-2.92-.8-2.92-2.07-2.92-2,1.1-2,2.92Z" transform="translate(-14.34 -14.63)"/><path class="cls-1" d="M108.92,65.78h1.92A3.64,3.64,0,0,1,107,68.54c-2.54,0-4-1.82-4-4.51,0-2.47,1.47-4.32,4-4.32a3.68,3.68,0,0,1,3.74,2.84,6.67,6.67,0,0,1,.23,2h-6.12c.07,1.89,1,2.66,2.18,2.66a1.79,1.79,0,0,0,1.92-1.38Zm-4.07-2.51h4.22a2.08,2.08,0,0,0-2.1-2.18c-1.13,0-2,.74-2.12,2.18Z" transform="translate(-14.34 -14.63)"/><path class="cls-1" d="M116.88,59.92v1.66a3.06,3.06,0,0,0-.66-.06c-1.49,0-2.31.95-2.31,2.69v4.08H112V60h1.74v1.23h0a2.62,2.62,0,0,1,2.38-1.35,4.17,4.17,0,0,1,.69.08Z" transform="translate(-14.34 -14.63)"/><path class="cls-1" d="M123,65.78h1.92a3.64,3.64,0,0,1-3.84,2.76c-2.54,0-4-1.82-4-4.51,0-2.47,1.47-4.32,4-4.32a3.68,3.68,0,0,1,3.74,2.84,6.67,6.67,0,0,1,.23,2h-6.12c.07,1.89,1,2.66,2.18,2.66A1.79,1.79,0,0,0,123,65.78Zm-4.07-2.51h4.22a2.08,2.08,0,0,0-2.1-2.18c-1.13,0-2,.74-2.12,2.18Z" transform="translate(-14.34 -14.63)"/><path class="cls-1" d="M139.05,63.88c0,3-1.59,4.66-4.48,4.66s-4.49-1.63-4.49-4.66V56.61h2v7.2c0,2,.92,3,2.53,3s2.53-1,2.53-3v-7.2h2v7.27Z" transform="translate(-14.34 -14.63)"/><path class="cls-1" d="M148.07,63.19v5.1H146.2V63.35c0-1.49-.64-2.08-1.69-2.08s-1.9.8-1.9,2.39v4.63h-1.87V60h1.77V61h0A3,3,0,0,1,145,59.76c1.89,0,3,1.15,3,3.43Z" transform="translate(-14.34 -14.63)"/><path class="cls-1" d="M149.61,58.4V56.61h1.87V58.4Zm0,9.89h0V60h1.87v8.33Z" transform="translate(-14.34 -14.63)"/><path class="cls-1" d="M154.94,68.29,152,60h2l1.08,3.39c.39,1.22.74,2.41,1.07,3.65h0c.33-1.24.67-2.43,1.07-3.65L158.32,60h2l-2.9,8.33Z" transform="translate(-14.34 -14.63)"/><path class="cls-1" d="M166,65.78h1.92a3.64,3.64,0,0,1-3.84,2.76c-2.54,0-4-1.82-4-4.51,0-2.47,1.47-4.32,4-4.32a3.68,3.68,0,0,1,3.74,2.84,6.67,6.67,0,0,1,.23,2H161.9c.07,1.89,1,2.66,2.18,2.66A1.79,1.79,0,0,0,166,65.78Zm-4.07-2.51h4.22a2.08,2.08,0,0,0-2.1-2.18c-1.13,0-2,.74-2.12,2.18Z" transform="translate(-14.34 -14.63)"/><path class="cls-1" d="M174,59.92v1.66a3.06,3.06,0,0,0-.66-.06c-1.49,0-2.31.95-2.31,2.69v4.08h-1.87V60h1.74v1.23h0a2.63,2.63,0,0,1,2.38-1.35,4.17,4.17,0,0,1,.69.08Z" transform="translate(-14.34 -14.63)"/><path class="cls-1" d="M181.08,62.55h-1.81c0-1-.59-1.48-1.59-1.48s-1.38.38-1.38,1,.58.87,1.89,1.19c1.52.4,3.15.76,3.15,2.74,0,1.51-1.35,2.55-3.5,2.55s-3.59-1-3.61-3h1.91c0,1,.62,1.59,1.74,1.59,1,0,1.51-.41,1.51-1,0-.85-.66-1-2.1-1.38s-2.86-.66-2.86-2.53c0-1.47,1.31-2.49,3.27-2.49,2.11,0,3.36,1,3.38,2.84Z" transform="translate(-14.34 -14.63)"/><path class="cls-1" d="M182.46,58.4V56.61h1.87V58.4Zm0,9.89h0V60h1.87v8.33Z" transform="translate(-14.34 -14.63)"/><path class="cls-1" d="M190,66.78v1.46a4.22,4.22,0,0,1-1.05.15c-1.75,0-2.52-.74-2.52-2.56V61.38H185V60h1.4V57.87h1.87V60h1.62v1.42h-1.62v4.17c0,.94.31,1.31,1.13,1.31a1.82,1.82,0,0,0,.57-.08Z" transform="translate(-14.34 -14.63)"/><path class="cls-1" d="M195.13,68.65c-.78,2.12-1.7,2.76-3.64,2.76a3.45,3.45,0,0,1-.93-.12V69.77a2.93,2.93,0,0,0,.78.11c1,0,1.46-.38,1.86-1.52l-3-8.4h2l2.08,6.2h0l2.15-6.2h1.94l-3.22,8.69Z" transform="translate(-14.34 -14.63)"/><path class="cls-1" d="M210.21,64.12c0,2.71-1.57,4.42-4.1,4.42S202,66.83,202,64.12s1.59-4.41,4.12-4.41,4.1,1.71,4.1,4.41Zm-6.25,0h0c0,1.81.82,2.94,2.15,2.94s2.15-1.13,2.15-2.94-.82-2.93-2.15-2.93S204,62.32,204,64.12Z" transform="translate(-14.34 -14.63)"/><path class="cls-1" d="M213.59,59.28V60h1.61v1.42h-1.61v6.91h-1.85V61.38h-1.41V60h1.41v-.89a2.26,2.26,0,0,1,2.52-2.57,5.43,5.43,0,0,1,1,.11V58a2,2,0,0,0-.46-.07c-.8,0-1.2.38-1.2,1.36Z" transform="translate(-14.34 -14.63)"/><path class="cls-1" d="M221.76,65.12l-1.08,3.17h-2.07l4.25-11.68h2.64l4.25,11.68h-2.07l-1.08-3.17Zm3.94-2.62h0c-.53-1.56-1-3.08-1.51-4.64h0c-.48,1.56-.95,3.08-1.5,4.64l-.31.92H226l-.31-.92Z" transform="translate(-14.34 -14.63)"/><path class="cls-1" d="M238.22,64.12c0,2.66-1.34,4.37-3.46,4.37a2.79,2.79,0,0,1-2.44-1.28h0v4.12h-1.87V60h1.82v1.15h0a2.79,2.79,0,0,1,2.47-1.37c2.12,0,3.48,1.73,3.48,4.38Zm-6,0h0c0,1.81.81,2.92,2,2.92s2.07-1.14,2.07-2.92-.8-2.92-2.07-2.92-2,1.1-2,2.92Z" transform="translate(-14.34 -14.63)"/><path class="cls-1" d="M247.18,64.12c0,2.66-1.34,4.37-3.46,4.37a2.79,2.79,0,0,1-2.44-1.28h0v4.12h-1.87V60h1.82v1.15h0a2.79,2.79,0,0,1,2.47-1.37c2.12,0,3.48,1.73,3.48,4.38Zm-6,0h0c0,1.81.8,2.92,2,2.92s2.07-1.14,2.07-2.92-.8-2.92-2.07-2.92-2,1.1-2,2.92Z" transform="translate(-14.34 -14.63)"/><polygon class="cls-1" points="234.01 53.66 234.01 41.98 235.88 41.98 235.88 53.66 234.01 53.66 234.01 53.66"/><path class="cls-1" d="M251.78,58.4V56.61h1.87V58.4Zm0,9.89h0V60h1.87v8.33Z" transform="translate(-14.34 -14.63)"/><path class="cls-1" d="M260.73,65.78h1.92a3.64,3.64,0,0,1-3.84,2.76c-2.54,0-4-1.82-4-4.51,0-2.47,1.48-4.32,4-4.32a3.68,3.68,0,0,1,3.74,2.84,6.35,6.35,0,0,1,.23,2h-6.12c.07,1.89,1,2.66,2.18,2.66a1.79,1.79,0,0,0,1.92-1.38Zm-4.07-2.51h4.22a2.08,2.08,0,0,0-2.1-2.18c-1.13,0-1.95.74-2.12,2.18Z" transform="translate(-14.34 -14.63)"/><path class="cls-1" d="M269.37,68.29V67.14h0a2.79,2.79,0,0,1-2.48,1.35c-2.11,0-3.47-1.71-3.47-4.37s1.34-4.38,3.46-4.38a2.76,2.76,0,0,1,2.44,1.3h0V56.61h1.87V68.29Zm-4-4.17h0c0,1.78.8,2.92,2.06,2.92s2-1.11,2-2.92-.8-2.92-2-2.92-2.06,1.15-2.06,2.92Z" transform="translate(-14.34 -14.63)"/><path class="cls-1" d="M284.65,60.2h-2A2.05,2.05,0,0,0,280.32,58c-1.27,0-2.06.61-2.06,1.56s.81,1.39,2.68,1.85c2.2.55,4,1.12,4,3.58,0,2.17-1.73,3.58-4.36,3.58-2.82,0-4.54-1.43-4.54-4.1h2a2.24,2.24,0,0,0,2.55,2.47c1.46,0,2.31-.67,2.31-1.77s-.85-1.44-2.64-1.89c-2.22-.55-4.05-1.09-4.05-3.54,0-2,1.62-3.35,4.1-3.35,2.84,0,4.3,1.33,4.3,3.84Z" transform="translate(-14.34 -14.63)"/><path class="cls-1" d="M293.47,63h-2a1.76,1.76,0,0,0-1.8-1.79c-1.31,0-2.08,1.11-2.08,2.93s.77,2.94,2.08,2.94a1.86,1.86,0,0,0,1.79-1.94h2a3.58,3.58,0,0,1-3.76,3.42c-2.46,0-4-1.71-4-4.42s1.59-4.41,4-4.41A3.54,3.54,0,0,1,293.47,63Z" transform="translate(-14.34 -14.63)"/><path class="cls-1" d="M294.55,58.4V56.61h1.87V58.4Zm0,9.89h0V60h1.87v8.33Z" transform="translate(-14.34 -14.63)"/><path class="cls-1" d="M303.5,65.78h1.92a3.64,3.64,0,0,1-3.84,2.76c-2.54,0-4-1.82-4-4.51,0-2.47,1.47-4.32,4-4.32a3.68,3.68,0,0,1,3.74,2.84,6.67,6.67,0,0,1,.23,2H299.4c.07,1.89,1,2.66,2.18,2.66a1.79,1.79,0,0,0,1.92-1.38Zm-4.07-2.51h4.22a2.08,2.08,0,0,0-2.1-2.18c-1.13,0-1.95.74-2.12,2.18Z" transform="translate(-14.34 -14.63)"/><path class="cls-1" d="M314,63.19v5.1h-1.87V63.35c0-1.49-.64-2.08-1.69-2.08s-1.9.8-1.9,2.39v4.63h-1.87V60h1.77V61h0a3,3,0,0,1,2.5-1.28c1.88,0,3,1.15,3,3.43Z" transform="translate(-14.34 -14.63)"/><path class="cls-1" d="M322.79,63h-2A1.77,1.77,0,0,0,319,61.19c-1.31,0-2.08,1.11-2.08,2.93s.77,2.94,2.08,2.94a1.86,1.86,0,0,0,1.79-1.94h2A3.57,3.57,0,0,1,319,68.54c-2.46,0-4-1.71-4-4.42s1.59-4.41,4-4.41A3.53,3.53,0,0,1,322.79,63Z" transform="translate(-14.34 -14.63)"/><path class="cls-1" d="M329.32,65.78h1.92a3.64,3.64,0,0,1-3.84,2.76c-2.54,0-4-1.82-4-4.51,0-2.47,1.47-4.32,4-4.32a3.68,3.68,0,0,1,3.74,2.84,6.35,6.35,0,0,1,.23,2h-6.12c.07,1.89,1,2.66,2.18,2.66a1.79,1.79,0,0,0,1.92-1.38Zm-4.07-2.51h4.22a2.08,2.08,0,0,0-2.1-2.18c-1.13,0-1.95.74-2.12,2.18Z" transform="translate(-14.34 -14.63)"/><path class="cls-1" d="M338.75,62.55H337c0-1-.59-1.48-1.59-1.48s-1.38.38-1.38,1,.57.87,1.89,1.19c1.52.4,3.15.76,3.15,2.74,0,1.51-1.35,2.55-3.5,2.55s-3.59-1-3.61-3h1.91c0,1,.62,1.59,1.74,1.59.95,0,1.5-.41,1.5-1,0-.85-.65-1-2.1-1.38s-2.85-.66-2.85-2.53c0-1.47,1.31-2.49,3.26-2.49,2.12,0,3.37,1,3.38,2.84Z" transform="translate(-14.34 -14.63)"/><polygon class="cls-1" points="55.31 27.13 55.31 37.1 53.36 37.1 53.36 27.13 49.52 27.13 49.52 25.42 59.15 25.42 59.15 27.13 55.31 27.13 55.31 27.13"/><path class="cls-1" d="M79.28,46.42v3.12a9.13,9.13,0,0,0,.21,2.19H77.8a5.5,5.5,0,0,1-.11-1.16h0a3.16,3.16,0,0,1-2.8,1.35A2.52,2.52,0,0,1,72,49.44c0-1.36.8-2.25,3.19-2.63.68-.11,1.66-.21,2.25-.24v-.33a1.5,1.5,0,0,0-1.62-1.72A1.47,1.47,0,0,0,74.21,46H72.37c.08-1.58,1.23-2.83,3.48-2.83s3.43,1.09,3.43,3.27Zm-1.81,1.36h0c-.56,0-1.36.12-1.92.21-1.19.2-1.64.56-1.64,1.32s.53,1.23,1.48,1.23A2.13,2.13,0,0,0,76.9,50a2.22,2.22,0,0,0,.57-1.79v-.41Z" transform="translate(-14.34 -14.63)"/><path class="cls-1" d="M92.93,46.6v5.13H91.06V46.78c0-1.48-.57-2.07-1.51-2.07-1.1,0-1.75.94-1.75,2.53v4.49H85.93V46.58c0-1.18-.53-1.87-1.5-1.87s-1.75.95-1.75,2.56v4.46H80.81V43.4H82.6v1h0a2.71,2.71,0,0,1,2.31-1.2,2.51,2.51,0,0,1,2.46,1.51,3,3,0,0,1,2.68-1.51c1.77,0,2.85,1.15,2.85,3.4Z" transform="translate(-14.34 -14.63)"/><path class="cls-1" d="M102.3,47.57c0,2.66-1.35,4.36-3.47,4.36a2.78,2.78,0,0,1-2.44-1.28h0v4.12H94.49V43.4h1.82v1.15h0a2.82,2.82,0,0,1,2.48-1.36c2.11,0,3.48,1.72,3.48,4.38Zm-6,0h0c0,1.8.8,2.92,2,2.92s2.06-1.15,2.06-2.92-.8-2.92-2.06-2.92-2,1.1-2,2.92Z" transform="translate(-14.34 -14.63)"/><path class="cls-1" d="M108.92,49.22h1.92A3.63,3.63,0,0,1,107,52c-2.54,0-4-1.82-4-4.51,0-2.46,1.47-4.32,4-4.32A3.68,3.68,0,0,1,110.71,46a6.39,6.39,0,0,1,.23,1.95h-6.12c.07,1.89,1,2.66,2.18,2.66a1.78,1.78,0,0,0,1.92-1.38Zm-4.07-2.51h4.22a2.08,2.08,0,0,0-2.1-2.18c-1.13,0-2,.74-2.12,2.18Z" transform="translate(-14.34 -14.63)"/><path class="cls-1" d="M116.88,43.37V45a3.77,3.77,0,0,0-.66-.06c-1.49,0-2.31.95-2.31,2.69v4.08H112V43.4h1.74v1.23h0a2.64,2.64,0,0,1,2.38-1.34,3.25,3.25,0,0,1,.69.08Z" transform="translate(-14.34 -14.63)"/><path class="cls-1" d="M123,49.22h1.92A3.63,3.63,0,0,1,121.05,52c-2.54,0-4-1.82-4-4.51,0-2.46,1.48-4.32,4-4.32A3.68,3.68,0,0,1,124.76,46a6.39,6.39,0,0,1,.23,1.95h-6.12c.07,1.89,1,2.66,2.18,2.66A1.78,1.78,0,0,0,123,49.22Zm-4.06-2.51h4.21a2.08,2.08,0,0,0-2.1-2.18c-1.13,0-2,.74-2.11,2.18Z" transform="translate(-14.34 -14.63)"/><path class="cls-1" d="M139.05,47.32c0,3-1.59,4.66-4.48,4.66s-4.49-1.62-4.49-4.66V40.05h2v7.21c0,2,.92,3,2.52,3s2.53-1,2.53-3V40.05h2v7.27Z" transform="translate(-14.34 -14.63)"/><path class="cls-1" d="M148.07,46.63v5.1H146.2V46.8c0-1.5-.64-2.09-1.69-2.09s-1.9.81-1.9,2.4v4.62h-1.87V43.4h1.77v1.08h0A3,3,0,0,1,145,43.2c1.88,0,3,1.15,3,3.43Z" transform="translate(-14.34 -14.63)"/><path class="cls-1" d="M149.61,41.84V40.05h1.87v1.79Zm0,9.89h0V43.4h1.87v8.33Z" transform="translate(-14.34 -14.63)"/><path class="cls-1" d="M154.94,51.73,152,43.4h2l1.08,3.4c.4,1.21.74,2.41,1.07,3.64h0c.33-1.23.68-2.43,1.07-3.64l1.08-3.4h2l-2.9,8.33Z" transform="translate(-14.34 -14.63)"/><path class="cls-1" d="M166,49.22h1.92A3.64,3.64,0,0,1,164.09,52c-2.55,0-4-1.82-4-4.51,0-2.46,1.48-4.32,4-4.32A3.66,3.66,0,0,1,167.79,46a6.39,6.39,0,0,1,.23,1.95H161.9c.07,1.89,1,2.66,2.19,2.66A1.8,1.8,0,0,0,166,49.22Zm-4.07-2.51h4.21a2.08,2.08,0,0,0-2.1-2.18c-1.13,0-2,.74-2.11,2.18Z" transform="translate(-14.34 -14.63)"/><path class="cls-1" d="M174,43.37V45a3.74,3.74,0,0,0-.65-.06c-1.5,0-2.32.95-2.32,2.69v4.08h-1.87V43.4h1.74v1.23h0a2.64,2.64,0,0,1,2.38-1.34,3.17,3.17,0,0,1,.69.08Z" transform="translate(-14.34 -14.63)"/><path class="cls-1" d="M181.08,46h-1.8c0-1-.59-1.47-1.6-1.47s-1.37.37-1.37,1,.57.87,1.88,1.2c1.53.39,3.15.75,3.15,2.74C181.34,51,180,52,177.85,52s-3.59-1-3.61-3h1.9c0,1,.63,1.59,1.74,1.59,1,0,1.51-.41,1.51-1,0-.85-.66-1-2.1-1.37s-2.85-.66-2.85-2.53c0-1.48,1.31-2.5,3.26-2.5,2.12,0,3.36,1,3.38,2.84Z" transform="translate(-14.34 -14.63)"/><path class="cls-1" d="M182.47,41.84V40.05h1.87v1.79Zm0,9.89h0V43.4h1.87v8.33Z" transform="translate(-14.34 -14.63)"/><path class="cls-1" d="M190,50.23v1.46a4.3,4.3,0,0,1-1.05.14c-1.76,0-2.53-.73-2.53-2.56V44.83H185V43.4h1.39V41.32h1.87V43.4h1.63v1.43h-1.63V49c0,.93.31,1.31,1.13,1.31a2.19,2.19,0,0,0,.58-.08Z" transform="translate(-14.34 -14.63)"/><path class="cls-1" d="M195.14,52.1c-.79,2.11-1.71,2.75-3.64,2.75a4.11,4.11,0,0,1-.94-.11V53.21a2.57,2.57,0,0,0,.79.12c1,0,1.46-.38,1.85-1.53l-3-8.4h2l2.09,6.2h0l2.15-6.2h1.93l-3.21,8.7Z" transform="translate(-14.34 -14.63)"/><path class="cls-2" d="M37.49,103.29v3.07h4.44v1.44H37.49v4H35.81v-10h6.45v1.46Z" transform="translate(-14.34 -14.63)"/><path class="cls-2" d="M43.7,103.36v-1.53h1.6v1.53Zm0,8.45v-7.12h1.6v7.12Z" transform="translate(-14.34 -14.63)"/><path class="cls-2" d="M53.6,107.45v4.36H52v-4.22c0-1.27-.55-1.78-1.45-1.78s-1.62.69-1.62,2v4h-1.6v-7.12h1.51v.93h0a2.53,2.53,0,0,1,2.13-1.1C52.62,104.52,53.6,105.5,53.6,107.45Z" transform="translate(-14.34 -14.63)"/><path class="cls-2" d="M61.84,107.45v4.36h-1.6v-4.22c0-1.27-.55-1.78-1.44-1.78s-1.63.69-1.63,2v4h-1.6v-7.12h1.52v.93h0a2.55,2.55,0,0,1,2.13-1.1C60.85,104.52,61.84,105.5,61.84,107.45Z" transform="translate(-14.34 -14.63)"/><path class="cls-2" d="M63.81,103.36v-1.53H65.4v1.53Zm0,8.45v-7.12H65.4v7.12Z" transform="translate(-14.34 -14.63)"/><path class="cls-2" d="M72.78,106.91H71.24c0-.86-.5-1.27-1.36-1.27s-1.17.33-1.17.84.49.75,1.61,1c1.3.33,2.69.64,2.69,2.34,0,1.29-1.15,2.17-3,2.17s-3.06-.86-3.08-2.55h1.63c0,.87.53,1.36,1.48,1.36s1.29-.35,1.29-.89c0-.72-.56-.86-1.79-1.17s-2.44-.56-2.44-2.16c0-1.26,1.12-2.13,2.79-2.13S72.77,105.32,72.78,106.91Z" transform="translate(-14.34 -14.63)"/><path class="cls-2" d="M76.2,105.53a2.47,2.47,0,0,1,2-1c1.61,0,2.59,1,2.59,2.93v4.36H79.24v-4.22c0-1.27-.55-1.78-1.45-1.78s-1.62.69-1.62,2v4h-1.6v-10h1.6v3.7Z" transform="translate(-14.34 -14.63)"/><path class="cls-2" d="M92.8,104.9H91.11a1.75,1.75,0,0,0-2-1.9c-1.07,0-1.75.52-1.75,1.33s.69,1.19,2.29,1.58c1.87.46,3.44,1,3.44,3,0,1.85-1.48,3.06-3.72,3.06-2.41,0-3.88-1.22-3.88-3.5H87.2a1.91,1.91,0,0,0,2.17,2.11c1.25,0,2-.57,2-1.51s-.73-1.23-2.26-1.61c-1.89-.48-3.46-.94-3.46-3,0-1.69,1.39-2.86,3.5-2.86C91.56,101.62,92.8,102.76,92.8,104.9Z" transform="translate(-14.34 -14.63)"/><path class="cls-2" d="M101.23,108.25c0,2.31-1.34,3.77-3.5,3.77s-3.52-1.46-3.52-3.77,1.36-3.77,3.52-3.77S101.23,105.94,101.23,108.25Zm-5.34,0c0,1.54.7,2.51,1.84,2.51s1.83-1,1.83-2.51-.7-2.51-1.83-2.51S95.89,106.71,95.89,108.25Z" transform="translate(-14.34 -14.63)"/><path class="cls-2" d="M109.1,107.27h-1.67a1.52,1.52,0,0,0-1.54-1.53c-1.12,0-1.78,1-1.78,2.51s.66,2.51,1.78,2.51a1.59,1.59,0,0,0,1.53-1.66h1.68a3,3,0,0,1-3.21,2.92c-2.1,0-3.46-1.46-3.46-3.77s1.36-3.77,3.46-3.77A3,3,0,0,1,109.1,107.27Z" transform="translate(-14.34 -14.63)"/><path class="cls-2" d="M110.59,103.36v-1.53h1.6v1.53Zm0,8.45v-7.12h1.6v7.12Z" transform="translate(-14.34 -14.63)"/><path class="cls-2" d="M119.82,107.27v2.66a8,8,0,0,0,.18,1.88h-1.44a4.65,4.65,0,0,1-.1-1h0A2.71,2.71,0,0,1,116,112a2.16,2.16,0,0,1-2.41-2.11c0-1.17.69-1.92,2.73-2.24a17.55,17.55,0,0,1,1.92-.21v-.28c0-1.06-.57-1.48-1.39-1.48a1.26,1.26,0,0,0-1.4,1.25h-1.57c.08-1.34,1.06-2.41,3-2.41S119.82,105.41,119.82,107.27Zm-1.54,1.16c-.48,0-1.16.1-1.64.18-1,.17-1.4.48-1.4,1.12s.45,1.06,1.26,1.06a1.82,1.82,0,0,0,1.29-.48,1.88,1.88,0,0,0,.49-1.53Z" transform="translate(-14.34 -14.63)"/><path class="cls-2" d="M121.78,111.81v-10h1.6v10Z" transform="translate(-14.34 -14.63)"/><path class="cls-2" d="M135.42,104.9h-1.7a1.75,1.75,0,0,0-2-1.9c-1.08,0-1.75.52-1.75,1.33s.69,1.19,2.28,1.58c1.88.46,3.45,1,3.45,3,0,1.85-1.49,3.06-3.73,3.06-2.41,0-3.88-1.22-3.88-3.5h1.73a1.91,1.91,0,0,0,2.17,2.11c1.24,0,2-.57,2-1.51s-.73-1.23-2.25-1.61c-1.89-.48-3.46-.94-3.46-3,0-1.69,1.38-2.86,3.5-2.86C134.17,101.62,135.42,102.76,135.42,104.9Z" transform="translate(-14.34 -14.63)"/><path class="cls-2" d="M143.5,107.27h-1.67a1.52,1.52,0,0,0-1.54-1.53c-1.12,0-1.78,1-1.78,2.51s.66,2.51,1.78,2.51a1.6,1.6,0,0,0,1.53-1.66h1.68a3,3,0,0,1-3.21,2.92c-2.1,0-3.46-1.46-3.46-3.77s1.36-3.77,3.46-3.77A3,3,0,0,1,143.5,107.27Z" transform="translate(-14.34 -14.63)"/><path class="cls-2" d="M145,103.36v-1.53h1.6v1.53Zm0,8.45v-7.12h1.6v7.12Z" transform="translate(-14.34 -14.63)"/><path class="cls-2" d="M153.22,109.66h1.64a3.09,3.09,0,0,1-3.27,2.36c-2.18,0-3.45-1.56-3.45-3.85a3.36,3.36,0,0,1,3.42-3.69,3.14,3.14,0,0,1,3.19,2.43,5.53,5.53,0,0,1,.2,1.66h-5.23c.06,1.61.87,2.27,1.87,2.27A1.52,1.52,0,0,0,153.22,109.66Zm-3.47-2.14h3.6a1.78,1.78,0,0,0-1.79-1.86C150.59,105.66,149.89,106.29,149.75,107.52Z" transform="translate(-14.34 -14.63)"/><path class="cls-2" d="M162.76,107.45v4.36h-1.6v-4.22c0-1.27-.54-1.78-1.44-1.78s-1.62.69-1.62,2v4h-1.6v-7.12H158v.93h0a2.53,2.53,0,0,1,2.13-1.1C161.78,104.52,162.76,105.5,162.76,107.45Z" transform="translate(-14.34 -14.63)"/><path class="cls-2" d="M170.91,107.27h-1.67a1.52,1.52,0,0,0-1.54-1.53c-1.12,0-1.78,1-1.78,2.51s.66,2.51,1.78,2.51a1.59,1.59,0,0,0,1.53-1.66h1.68A3,3,0,0,1,167.7,112c-2.1,0-3.46-1.46-3.46-3.77s1.36-3.77,3.46-3.77A3,3,0,0,1,170.91,107.27Z" transform="translate(-14.34 -14.63)"/><path class="cls-2" d="M177.08,109.66h1.64a3.11,3.11,0,0,1-3.28,2.36c-2.17,0-3.44-1.56-3.44-3.85,0-2.11,1.26-3.69,3.41-3.69a3.14,3.14,0,0,1,3.2,2.43,5.57,5.57,0,0,1,.19,1.66h-5.22c0,1.61.87,2.27,1.86,2.27A1.53,1.53,0,0,0,177.08,109.66Zm-3.47-2.14h3.6c-.12-1.25-.84-1.86-1.8-1.86S173.75,106.29,173.61,107.52Z" transform="translate(-14.34 -14.63)"/><path class="cls-2" d="M187,101.83c3.33,0,5.22,1.8,5.22,5s-1.89,5-5.22,5h-3.2v-10Zm-1.53,8.52H187c2.33,0,3.52-1.2,3.52-3.53s-1.19-3.53-3.52-3.53h-1.5Z" transform="translate(-14.34 -14.63)"/><path class="cls-2" d="M199.37,107.27v2.66a8,8,0,0,0,.18,1.88h-1.44a4.65,4.65,0,0,1-.1-1h0a2.7,2.7,0,0,1-2.39,1.15,2.15,2.15,0,0,1-2.41-2.11c0-1.17.68-1.92,2.73-2.24a17,17,0,0,1,1.92-.21v-.28a1.29,1.29,0,0,0-1.39-1.48,1.26,1.26,0,0,0-1.4,1.25h-1.57c.07-1.34,1.05-2.41,3-2.41S199.37,105.41,199.37,107.27Zm-1.54,1.16c-.48,0-1.16.1-1.64.18-1,.17-1.4.48-1.4,1.12s.45,1.06,1.26,1.06a1.82,1.82,0,0,0,1.29-.48,1.88,1.88,0,0,0,.49-1.53Z" transform="translate(-14.34 -14.63)"/><path class="cls-2" d="M204.53,110.52v1.25a3.48,3.48,0,0,1-.89.12c-1.5,0-2.16-.63-2.16-2.18v-3.8h-1.19v-1.22h1.19v-1.78h1.6v1.78h1.38v1.22h-1.38v3.56c0,.8.26,1.12,1,1.12A1.59,1.59,0,0,0,204.53,110.52Z" transform="translate(-14.34 -14.63)"/><path class="cls-2" d="M211.52,107.27v2.66a8,8,0,0,0,.18,1.88h-1.44a4.65,4.65,0,0,1-.1-1h0a2.68,2.68,0,0,1-2.39,1.15,2.15,2.15,0,0,1-2.41-2.11c0-1.17.69-1.92,2.73-2.24a17.29,17.29,0,0,1,1.92-.21v-.28a1.29,1.29,0,0,0-1.39-1.48,1.26,1.26,0,0,0-1.4,1.25h-1.57c.07-1.34,1-2.41,3-2.41S211.52,105.41,211.52,107.27ZM210,108.43c-.48,0-1.16.1-1.64.18-1,.17-1.4.48-1.4,1.12s.45,1.06,1.26,1.06a1.82,1.82,0,0,0,1.29-.48,1.88,1.88,0,0,0,.49-1.53Z" transform="translate(-14.34 -14.63)"/><path class="cls-2" d="M218.42,109.1l-.92,2.71h-1.77l3.63-10h2.25l3.63,10h-1.76l-.93-2.71Zm3.36-2.24c-.45-1.33-.88-2.63-1.29-4h0c-.41,1.33-.82,2.63-1.28,4l-.27.79h3.13Z" transform="translate(-14.34 -14.63)"/><path class="cls-2" d="M230.45,104.66v1.42a2.81,2.81,0,0,0-.56-.06c-1.28,0-2,.82-2,2.3v3.49h-1.6v-7.12h1.49v1h0a2.24,2.24,0,0,1,2-1.15A3.06,3.06,0,0,1,230.45,104.66Z" transform="translate(-14.34 -14.63)"/><path class="cls-2" d="M237.55,107.27h-1.67a1.52,1.52,0,0,0-1.54-1.53c-1.12,0-1.78,1-1.78,2.51s.66,2.51,1.78,2.51a1.58,1.58,0,0,0,1.52-1.66h1.69a3,3,0,0,1-3.21,2.92c-2.1,0-3.46-1.46-3.46-3.77s1.36-3.77,3.46-3.77A3,3,0,0,1,237.55,107.27Z" transform="translate(-14.34 -14.63)"/><path class="cls-2" d="M240.67,105.53a2.47,2.47,0,0,1,2-1c1.61,0,2.59,1,2.59,2.93v4.36h-1.59v-4.22c0-1.27-.55-1.78-1.45-1.78s-1.62.69-1.62,2v4H239v-10h1.6v3.7Z" transform="translate(-14.34 -14.63)"/><path class="cls-2" d="M247.27,103.36v-1.53h1.6v1.53Zm0,8.45v-7.12h1.6v7.12Z" transform="translate(-14.34 -14.63)"/><path class="cls-2" d="M252.29,111.81l-2.48-7.12h1.66l.93,2.9c.33,1,.63,2.06.91,3.11h0c.28-1,.57-2.07.91-3.11l.92-2.9h1.67l-2.48,7.12Z" transform="translate(-14.34 -14.63)"/><path class="cls-2" d="M262.3,109.66h1.64a3.11,3.11,0,0,1-3.28,2.36c-2.17,0-3.45-1.56-3.45-3.85a3.36,3.36,0,0,1,3.42-3.69,3.13,3.13,0,0,1,3.19,2.43,5.53,5.53,0,0,1,.2,1.66H258.8c.05,1.61.86,2.27,1.86,2.27A1.53,1.53,0,0,0,262.3,109.66Zm-3.48-2.14h3.6a1.78,1.78,0,0,0-1.79-1.86C259.66,105.66,259,106.29,258.82,107.52Z" transform="translate(-14.34 -14.63)"/></svg>