<svg id="Layer_1" data-name="Layer 1" xmlns="http://www.w3.org/2000/svg" viewBox="0 0 178.58 48.19"><defs><style>.cls-1{fill:#7bc143;}.cls-2{fill:#fff;}.cls-3{fill:#606060;}</style></defs><title>THL_tunnus_virallinen_EN_RGB</title><path class="cls-1" d="M38.79,24.48A14.25,14.25,0,1,1,24.54,10.23,14.25,14.25,0,0,1,38.79,24.48"/><path class="cls-2" d="M25.72,24.1c1.32-2.39,2.86-4,4.62-4.55,2.53-.83,4,.74,5.17,1.37-.58,1.21-.85,3.33-3.37,4.15-1.81.59-3.95.19-6.42-1m-4.09-6.66c0-2.65,1.94-3.56,2.91-4.49,1,.93,2.9,1.83,2.9,4.49,0,1.85-1,3.81-2.9,5.8-1.86-2-2.91-3.91-2.91-5.8m1.73,6.66c-2.47,1.16-4.62,1.56-6.42,1-2.52-.82-2.79-2.94-3.37-4.15,1.18-.63,2.64-2.19,5.17-1.37,1.75.57,3.3,2.16,4.62,4.55m.45,1.39c.34,2.71,0,4.91-1.06,6.4-1.56,2.15-3.66,1.74-5,1.93-.24-1.32-1.27-3.2.29-5.34,1.11-1.54,3.08-2.47,5.76-3m7.51,8.33c-1.33-.18-3.43.22-5-1.93-1.12-1.53-1.4-3.69-1.06-6.4C28,26,29.94,27,31,28.48c1.56,2.15.52,4,.29,5.34"/><path class="cls-3" d="M124.68,30.15l-1.16,3.9a5.56,5.56,0,0,0-.15.7h0a5.6,5.6,0,0,0-.17-.7l-1.42-4.57H120.6l-1.42,4.57c-.1.34-.18.7-.18.7h0a6.84,6.84,0,0,0-.16-.7l-1.17-3.9c-.17-.56-.39-.7-1-.7h-.54L118.2,36h1.42L121,31.8c.1-.34.18-.72.18-.72h0s.08.38.18.72L122.72,36h1.41l2.07-6.56h-.54C125.08,29.45,124.85,29.59,124.68,30.15Z"/><path class="cls-3" d="M102.62,34.65V31.81c0-1.67-.7-2.51-2.25-2.51a2.66,2.66,0,0,0-2.46,1.5h0a2.44,2.44,0,0,0,0-.38v-.24c0-.48-.28-.73-.83-.73h-.39V36H98V32.94a2.69,2.69,0,0,1,.11-.88,2.12,2.12,0,0,1,2.07-1.61c1.05,0,1.24.73,1.24,1.65v3.08c0,.58.24.83.82.83h1V34.93h-.28A.26.26,0,0,1,102.62,34.65Z"/><path class="cls-3" d="M84,34.65V31.81c0-1.67-.7-2.51-2.24-2.51a2.66,2.66,0,0,0-2.43,1.46h0a4.63,4.63,0,0,0,0-.54V27.67c0-.56-.25-.81-.83-.81h-.43V36h1.26V32.94a2.7,2.7,0,0,1,.11-.87,2.16,2.16,0,0,1,2.07-1.62c1.05,0,1.25.73,1.25,1.65v3.08c0,.58.24.83.83.83h1V34.93h-.28A.26.26,0,0,1,84,34.65Z"/><path class="cls-3" d="M51.29,34.65V31.81c0-1.67-.7-2.51-2.24-2.51a2.69,2.69,0,0,0-2.44,1.46h0s0-.23,0-.54V27.67c0-.56-.24-.81-.83-.81h-.42V36h1.25V32.94a2.69,2.69,0,0,1,.12-.87,2.15,2.15,0,0,1,2.07-1.62c1.05,0,1.25.73,1.25,1.65v3.08c0,.58.24.83.82.83h1V34.93h-.29A.25.25,0,0,1,51.29,34.65Z"/><path class="cls-3" d="M139.45,29.08v.22h-.81v1h.81V36h1.26v-5.7h1.55v-1h-1.55v-.2a1.24,1.24,0,0,1,1.37-1.37,2.4,2.4,0,0,1,.33,0V26.68a2.7,2.7,0,0,0-.48,0A2.25,2.25,0,0,0,139.45,29.08Z"/><path class="cls-3" d="M152.43,31.09h0a3.44,3.44,0,0,0,0-.46v-.41c0-.53-.27-.77-.84-.77h-.38V36h1.26V33.33a4.2,4.2,0,0,1,.15-1.18,2,2,0,0,1,1.84-1.54,1.85,1.85,0,0,1,.38,0V29.4l-.34,0A2.25,2.25,0,0,0,152.43,31.09Z"/><path class="cls-3" d="M70.22,34.65v-7c0-.58-.25-.83-.83-.83H69v8.32c0,.58.25.83.83.83h1V34.93H70.5A.25.25,0,0,1,70.22,34.65Z"/><path class="cls-3" d="M136.41,34.65v-7c0-.58-.25-.83-.83-.83h-.43v8.32c0,.58.25.83.83.83h1V34.93h-.29A.25.25,0,0,1,136.41,34.65Z"/><path class="cls-3" d="M159,29.3a3.22,3.22,0,0,0-3.29,3.43,3.34,3.34,0,0,0,3.48,3.43,3.88,3.88,0,0,0,2.53-.95l-.55-.9a3,3,0,0,1-1.91.77A2.2,2.2,0,0,1,157,32.89h4.78s0-.35,0-.52A2.79,2.79,0,0,0,159,29.3Zm-2,2.67A1.89,1.89,0,0,1,159,30.3,1.54,1.54,0,0,1,160.54,32Z"/><path class="cls-3" d="M130.52,29.3a3.22,3.22,0,0,0-3.29,3.43,3.34,3.34,0,0,0,3.48,3.43,3.85,3.85,0,0,0,2.53-.95l-.54-.9a3,3,0,0,1-1.92.77,2.19,2.19,0,0,1-2.25-2.19h4.77s0-.35,0-.52A2.78,2.78,0,0,0,130.52,29.3ZM128.58,32a1.88,1.88,0,0,1,1.93-1.67A1.56,1.56,0,0,1,132.05,32Z"/><path class="cls-3" d="M56.49,29.3a3.23,3.23,0,0,0-3.29,3.43,3.35,3.35,0,0,0,3.49,3.43,3.84,3.84,0,0,0,2.52-.95l-.54-.9a3,3,0,0,1-1.92.77,2.2,2.2,0,0,1-2.25-2.19h4.78s0-.35,0-.52A2.79,2.79,0,0,0,56.49,29.3ZM54.55,32a1.89,1.89,0,0,1,1.93-1.67A1.55,1.55,0,0,1,58,32Z"/><path class="cls-3" d="M66.53,34.65V31.86c0-1.45-.57-2.56-2.7-2.56-.63,0-2.26.15-2.26,1.23v.65h1.17V30.8c0-.43.77-.5,1.08-.5,1,0,1.45.41,1.45,1.56v.07H65c-1.11,0-4,.13-4,2.24a2.05,2.05,0,0,0,2.23,2,2.24,2.24,0,0,0,2.09-1.29h0a3.71,3.71,0,0,0,0,.39c0,.46.23.75.81.75h.94V34.93h-.29A.25.25,0,0,1,66.53,34.65Zm-1.25-1.58a2,2,0,0,1-1.75,2.08,1.09,1.09,0,0,1-1.23-1c0-1.2,1.71-1.25,2.66-1.25h.32Z"/><path class="cls-3" d="M94.52,34.65V31.86c0-1.45-.57-2.56-2.69-2.56-.64,0-2.27.15-2.27,1.23v.65h1.18V30.8c0-.43.77-.5,1.08-.5,1,0,1.45.41,1.45,1.56v.07H93c-1.1,0-4,.13-4,2.24a2,2,0,0,0,2.23,2,2.24,2.24,0,0,0,2.09-1.29h0a3.71,3.71,0,0,0,0,.39c0,.46.23.75.81.75h.94V34.93h-.29A.26.26,0,0,1,94.52,34.65Zm-1.24-1.58a2,2,0,0,1-1.75,2.08,1.09,1.09,0,0,1-1.23-1c0-1.2,1.71-1.25,2.66-1.25h.32Z"/><path class="cls-3" d="M149,34.65V31.86c0-1.45-.57-2.56-2.69-2.56-.64,0-2.27.15-2.27,1.23v.65h1.18V30.8c0-.43.76-.5,1.07-.5,1,0,1.45.41,1.45,1.56v.07h-.28c-1.1,0-3.95.13-3.95,2.24a2,2,0,0,0,2.23,2,2.24,2.24,0,0,0,2.08-1.29h0a2.49,2.49,0,0,0,0,.39c0,.46.23.75.82.75h.93V34.93h-.28C149.08,34.93,149,34.84,149,34.65Zm-1.24-1.58A2,2,0,0,1,146,35.15a1.09,1.09,0,0,1-1.23-1c0-1.2,1.71-1.25,2.65-1.25h.33Z"/><path class="cls-3" d="M110.65,34.65v-7c0-.58-.25-.83-.83-.83h-.43v1.68c0,.25,0,1.76,0,1.76h0a2.18,2.18,0,0,0-2-1c-1.74,0-3,1.35-3,3.43s1.12,3.43,2.89,3.43A2.31,2.31,0,0,0,109.44,35h0s0,.14,0,.34c0,.44.23.7.8.7h1V34.93h-.29A.25.25,0,0,1,110.65,34.65Zm-3.11.43c-1.09,0-1.85-.92-1.85-2.35s.85-2.34,1.87-2.34c1.26,0,1.87,1.16,1.87,2.33C109.43,34.39,108.51,35.08,107.54,35.08Z"/><path class="cls-3" d="M46.65,18.23H50V17.12H46.65v-3h3.23a.25.25,0,0,1,.28.29V15h1.18V13.83c0-.59-.24-.83-.83-.83h-5l-.12,9.14h1.29Z"/><path class="cls-3" d="M53.47,14.53a.73.73,0,1,0-.73-.73A.73.73,0,0,0,53.47,14.53Z"/><path class="cls-3" d="M54.65,22.15V21.07h-.29a.25.25,0,0,1-.28-.28V16.42c0-.58-.25-.83-.83-.83h-.42v5.73c0,.58.25.83.83.83Z"/><path class="cls-3" d="M70.73,20.79V18c0-1.67-.7-2.51-2.26-2.51A2.67,2.67,0,0,0,66,16.94h0a3.63,3.63,0,0,0,0-.38v-.24c0-.48-.27-.73-.83-.73h-.39v6.56h1.26V19.08a2.68,2.68,0,0,1,.12-.88,2.12,2.12,0,0,1,2.07-1.61c1.05,0,1.23.73,1.23,1.65v3.08c0,.58.25.83.83.83h1V21.07H71A.25.25,0,0,1,70.73,20.79Z"/><path class="cls-3" d="M74.27,20.79V16.42c0-.58-.25-.83-.83-.83H73v5.73c0,.58.24.83.82.83h1V21.07h-.29A.25.25,0,0,1,74.27,20.79Z"/><path class="cls-3" d="M73.66,14.53a.73.73,0,1,0-.73-.73A.73.73,0,0,0,73.66,14.53Z"/><path class="cls-3" d="M81.31,20.39c0-2.19-3.58-1.92-3.58-3.16,0-.52.48-.78,1.22-.78.4,0,1,.17,1,.56v.32h1.13v-.62c0-1-1.36-1.27-2.15-1.27-1.33,0-2.44.58-2.44,1.84,0,2.11,3.58,2,3.58,3.16,0,.57-.53.84-1.14.84a2.79,2.79,0,0,1-2-1l-.65.84a3.37,3.37,0,0,0,2.62,1.16C80.27,22.31,81.31,21.55,81.31,20.39Z"/><path class="cls-3" d="M89.44,21.07h-.28c-.19,0-.29-.09-.29-.28V18c0-1.67-.7-2.51-2.24-2.51a2.69,2.69,0,0,0-2.44,1.46h0s0-.23,0-.54V13.8c0-.55-.24-.8-.83-.8h-.42v9.15h1.25V19.08a2.69,2.69,0,0,1,.12-.87,2.16,2.16,0,0,1,2.07-1.62c1.05,0,1.25.73,1.25,1.65v3.08c0,.58.24.83.83.83h1Z"/><circle class="cls-3" cx="94.96" cy="13.8" r="0.73"/><path class="cls-3" d="M95.57,20.79V16.42c0-.58-.25-.83-.83-.83h-.41v5.73c0,.58.24.83.83.83h1V21.07h-.28C95.67,21.07,95.57,21,95.57,20.79Z"/><path class="cls-3" d="M104.66,21.07h-.29a.26.26,0,0,1-.29-.28V18c0-1.67-.7-2.51-2.25-2.51a2.66,2.66,0,0,0-2.46,1.5h0a2.44,2.44,0,0,0,0-.38v-.24c0-.48-.27-.73-.83-.73h-.39v6.56h1.26V19.08a2.69,2.69,0,0,1,.11-.88,2.13,2.13,0,0,1,2.08-1.61c1,0,1.23.73,1.23,1.65v3.08c0,.58.24.83.83.83h1Z"/><path class="cls-3" d="M118.7,14.53a.73.73,0,1,0-.74-.73A.73.73,0,0,0,118.7,14.53Z"/><path class="cls-3" d="M119.3,20.79V16.42c0-.58-.24-.83-.83-.83h-.41v5.73c0,.58.24.83.83.83h1V21.07h-.29A.26.26,0,0,1,119.3,20.79Z"/><path class="cls-3" d="M108.7,21.28a2.79,2.79,0,0,1-2-1l-.64.84a3.34,3.34,0,0,0,2.61,1.16c1.38,0,2.41-.76,2.41-1.92,0-2.19-3.57-1.92-3.57-3.16,0-.52.48-.78,1.21-.78.41,0,1,.17,1,.56v.32h1.13v-.62c0-1-1.36-1.27-2.15-1.27-1.34,0-2.44.58-2.44,1.84,0,2.11,3.58,2,3.58,3.16C109.84,21,109.3,21.28,108.7,21.28Z"/><path class="cls-3" d="M132.86,20.79v-5.2h-.42c-.59,0-.84.25-.84.81v.73h0v1.53a2.26,2.26,0,0,1-2.14,2.48c-1,0-1.22-.73-1.22-1.63V16.4c0-.56-.24-.81-.84-.81H127v4.2c0,1.74.75,2.52,2.23,2.52a2.65,2.65,0,0,0,2.41-1.51h0s0,.17,0,.38v.24c0,.47.27.73.83.73h1.2V21.07h-.53A.25.25,0,0,1,132.86,20.79Z"/><path class="cls-3" d="M145.42,20.45a3,3,0,0,1-1.92.77A2.19,2.19,0,0,1,141.25,19H146s0-.35,0-.52a2.78,2.78,0,0,0-2.82-3.07A3.22,3.22,0,0,0,140,18.87a3.34,3.34,0,0,0,3.48,3.44,3.83,3.83,0,0,0,2.53-1Zm-2.19-4a1.56,1.56,0,0,1,1.54,1.67H141.3A1.88,1.88,0,0,1,143.23,16.44Z"/><path class="cls-3" d="M151,22.15h1.25V16.6h1.56v-1h-1.56V15.4A1.25,1.25,0,0,1,153.67,14a1.57,1.57,0,0,1,.32,0V13a3.4,3.4,0,0,0-.48,0A2.24,2.24,0,0,0,151,15.37v.22h-.82v1H151v5.55Z"/><path class="cls-3" d="M166,15.51a2.26,2.26,0,0,0-2.07,1.71h0a3.2,3.2,0,0,0,0-.45v-.41c0-.53-.27-.77-.84-.77h-.38v6.56H164V19.47a4.15,4.15,0,0,1,.15-1.18A2,2,0,0,1,166,16.75a2.44,2.44,0,0,1,.38,0V15.54A2.24,2.24,0,0,0,166,15.51Z"/><path class="cls-3" d="M161.46,18.86a3.53,3.53,0,1,0-3.54,3.45A3.42,3.42,0,0,0,161.46,18.86Zm-5.78,0a2.25,2.25,0,1,1,4.5,0,2.25,2.25,0,1,1-4.5,0Z"/><path class="cls-3" d="M61.33,21.32c0,.58.25.83.83.83h1V21.07h-.28c-.19,0-.29-.09-.29-.28V18c0-1.67-.7-2.51-2.25-2.51a2.68,2.68,0,0,0-2.47,1.5h0a3.63,3.63,0,0,0,0-.38v-.24c0-.48-.27-.73-.82-.73h-.39v6.56h1.25V19.08A2.68,2.68,0,0,1,58,18.2a2.12,2.12,0,0,1,2.07-1.61c1,0,1.23.73,1.23,1.65Z"/><path class="cls-3" d="M114.46,19.72V16.63H116v-1h-1.53v-.89c0-.59-.25-.83-.83-.83h-.44v1.72h-.88v1h.86v3.23a2.26,2.26,0,0,0,2.5,2.45,2.79,2.79,0,0,0,.44,0V21.09a2,2,0,0,1-.3,0C115.33,21.11,114.46,21,114.46,19.72Z"/><path class="cls-3" d="M74.45,33.57V30.49H76v-1H74.45v-.89c0-.59-.25-.83-.83-.83h-.43v1.72h-.88v1h.85v3.23a2.25,2.25,0,0,0,2.5,2.44,4.17,4.17,0,0,0,.44,0v-1.2a1.36,1.36,0,0,1-.3,0C75.32,35,74.45,34.88,74.45,33.57Z"/><path class="cls-3" d="M122.2,19.86a2.26,2.26,0,0,0,2.5,2.45,2.64,2.64,0,0,0,.44,0V21.09a1.79,1.79,0,0,1-.29,0c-.48,0-1.36-.09-1.36-1.39V16.63H125v-1h-1.54v-.89c0-.59-.24-.83-.83-.83h-.43v1.72h-.88v1h.85Z"/><path class="cls-3" d="M136.89,19.72V16.63h1.54v-1h-1.54v-.89c0-.59-.24-.83-.82-.83h-.44v1.72h-.88v1h.86v3.23a2.26,2.26,0,0,0,2.5,2.45,2.79,2.79,0,0,0,.44,0V21.09a2,2,0,0,1-.3,0C137.77,21.11,136.89,21,136.89,19.72Z"/></svg>