<svg width="32" height="32" viewBox="0 0 32 32" fill="none" xmlns="http://www.w3.org/2000/svg">
<path fill-rule="evenodd" clip-rule="evenodd" d="M24.6768 8.65718L24.6271 8.6241C23.6019 7.64845 22.3947 7.18542 21.0056 7.25157L20.956 7.15235L20.9891 7.13581C22.2459 6.85469 22.99 6.55704 23.2215 6.22631C23.2877 5.96172 23.205 5.81289 22.9239 5.77982C22.2955 5.8625 21.7002 5.99479 21.1875 6.20977C21.849 5.77982 22.0971 5.48216 21.9482 5.33333C21.3033 5.34987 20.5922 5.6806 19.8646 6.34206C20.1292 5.87904 20.245 5.61445 20.1788 5.58138C19.815 5.81289 19.5174 6.07748 19.2528 6.3586C18.6905 6.98699 18.244 7.56576 17.8968 8.09493L17.8802 8.12801C17.0038 9.56669 16.3754 11.0054 16.0116 12.4771L15.8793 12.5929L15.8462 12.6094C15.3171 11.9479 14.6722 11.3857 13.9115 10.9392C13.0185 10.3439 11.9602 9.7982 10.7365 9.25249C9.41353 8.55796 8.05754 7.99571 6.70154 7.54923C6.685 9.08713 7.44568 10.2943 8.91744 11.1873V11.2038C8.4048 11.2038 7.89217 11.2865 7.39608 11.4353C7.4953 12.8575 8.50402 13.8331 10.4057 14.3623L10.3892 14.3954C9.64504 14.3457 9.03319 14.6103 8.55363 15.156C9.18202 16.3797 10.29 16.9585 11.894 16.9254C11.5798 17.0908 11.3318 17.2562 11.1664 17.4546C10.8687 17.7688 10.7695 18.1326 10.8687 18.546C11.216 19.1744 11.8279 19.4555 12.7374 19.4059L12.787 19.4721L12.7705 19.5051C11.1995 21.1257 9.29778 21.8533 7.08188 21.7045L7.04881 21.721C5.69281 21.7045 4.2376 21.0596 2.66663 19.7697C4.2376 22.0352 6.33774 23.6724 8.93397 24.7142C11.894 25.6898 14.8706 25.7725 17.8306 24.9291H17.8802C20.7576 24.1023 23.1885 22.3825 25.2059 19.8028C26.132 18.4633 26.7108 17.1735 26.9423 15.9333C28.4471 15.9829 29.522 15.5529 30.2 14.6269L30.1834 14.5938C29.6708 14.7757 28.6951 14.7261 27.2565 14.4284V14.2631C28.844 14.0812 29.7865 13.5685 30.0842 12.7252C28.9763 13.1551 27.8848 13.1717 26.81 12.7582C26.6115 11.2699 25.9005 9.89742 24.6768 8.65718Z" fill="#C2D1D9"/>
<mask id="mask0" style="mask-type:alpha" maskUnits="userSpaceOnUse" x="2" y="5" width="29" height="21">
<path fill-rule="evenodd" clip-rule="evenodd" d="M24.6768 8.65718L24.6271 8.6241C23.6019 7.64845 22.3947 7.18542 21.0056 7.25157L20.956 7.15235L20.9891 7.13581C22.2459 6.85469 22.99 6.55704 23.2215 6.22631C23.2877 5.96172 23.205 5.81289 22.9239 5.77982C22.2955 5.8625 21.7002 5.99479 21.1875 6.20977C21.849 5.77982 22.0971 5.48216 21.9482 5.33333C21.3033 5.34987 20.5922 5.6806 19.8646 6.34206C20.1292 5.87904 20.245 5.61445 20.1788 5.58138C19.815 5.81289 19.5174 6.07748 19.2528 6.3586C18.6905 6.98699 18.244 7.56576 17.8968 8.09493L17.8802 8.12801C17.0038 9.56669 16.3754 11.0054 16.0116 12.4771L15.8793 12.5929L15.8462 12.6094C15.3171 11.9479 14.6722 11.3857 13.9115 10.9392C13.0185 10.3439 11.9602 9.7982 10.7365 9.25249C9.41353 8.55796 8.05754 7.99571 6.70154 7.54923C6.685 9.08713 7.44568 10.2943 8.91744 11.1873V11.2038C8.4048 11.2038 7.89217 11.2865 7.39608 11.4353C7.4953 12.8575 8.50402 13.8331 10.4057 14.3623L10.3892 14.3954C9.64504 14.3457 9.03319 14.6103 8.55363 15.156C9.18202 16.3797 10.29 16.9585 11.894 16.9254C11.5798 17.0908 11.3318 17.2562 11.1664 17.4546C10.8687 17.7688 10.7695 18.1326 10.8687 18.546C11.216 19.1744 11.8279 19.4555 12.7374 19.4059L12.787 19.4721L12.7705 19.5051C11.1995 21.1257 9.29778 21.8533 7.08188 21.7045L7.04881 21.721C5.69281 21.7045 4.2376 21.0596 2.66663 19.7697C4.2376 22.0352 6.33774 23.6724 8.93397 24.7142C11.894 25.6898 14.8706 25.7725 17.8306 24.9291H17.8802C20.7576 24.1023 23.1885 22.3825 25.2059 19.8028C26.132 18.4633 26.7108 17.1735 26.9423 15.9333C28.4471 15.9829 29.522 15.5529 30.2 14.6269L30.1834 14.5938C29.6708 14.7757 28.6951 14.7261 27.2565 14.4284V14.2631C28.844 14.0812 29.7865 13.5685 30.0842 12.7252C28.9763 13.1551 27.8848 13.1717 26.81 12.7582C26.6115 11.2699 25.9005 9.89742 24.6768 8.65718Z" fill="white"/>
</mask>
<g mask="url(#mask0)">
<rect width="32" height="32" fill="#1DA1F2"/>
</g>
</svg>
