<svg width="74" height="73" viewBox="0 0 74 73" fill="none" xmlns="http://www.w3.org/2000/svg">
<path d="M6.8562 60.7642V57.3613H9.42277V29.5674H11.5978V26.0588L14.9475 23.7761L18.2971 26.0377V29.5251C18.5782 29.5675 18.8643 29.5675 19.1454 29.5251V24.4736H27.0409V18.1328L35.7412 12.2358L44.4415 18.1751V24.5159H52.3153V29.5462C52.5964 29.5883 52.8823 29.5883 53.1634 29.5462V26.0588L56.4914 23.7972L60.015 26.0588V29.5674H62.19V57.3613H64.6914V60.7853H7.35643C7.19069 60.8215 7.01807 60.8142 6.8562 60.7642ZM35.7629 25.0865C36.1731 25.0921 36.5805 25.0188 36.9615 24.8707C37.3425 24.7226 37.6895 24.5028 37.9827 24.2238C38.2758 23.9448 38.5094 23.6123 38.6697 23.2452C38.83 22.8782 38.9139 22.4839 38.9167 22.0852C38.9167 21.278 38.5868 20.5038 37.9994 19.9331C37.412 19.3623 36.6153 19.0416 35.7846 19.0416C34.9539 19.0416 34.1572 19.3623 33.5699 19.9331C32.9825 20.5038 32.6525 21.278 32.6525 22.0852C32.6525 22.4811 32.7332 22.8731 32.8898 23.2387C33.0463 23.6042 33.2757 23.936 33.5648 24.215C33.8539 24.4939 34.1971 24.7146 34.5743 24.8642C34.9515 25.0138 35.3554 25.0893 35.7629 25.0865ZM26.236 41.0442H23.2128V47.385H26.236V41.0442ZM45.3332 41.0442V47.385H48.3348V41.0442H45.3332ZM26.236 55.3533V49.0125H23.2128V55.3533H26.236ZM48.3348 55.3533V49.0125H45.3332V55.3533H48.3348ZM26.2144 39.5647V33.2239H23.2128V39.5647H26.2144ZM45.3115 33.2239V39.5647H48.3348V33.2239H45.3115ZM55.7301 39.5647V33.2239H52.7068V39.5647H55.7301ZM33.5878 39.5647V33.2239H30.5862V39.5647H33.5878ZM37.9379 33.2239V39.5647H40.9178V33.2239H37.9379ZM15.7957 41.1076V47.4485H18.8191V41.1076H15.7957ZM30.5645 41.1076V47.4485H33.5661V41.1076H30.5645ZM37.9379 41.1076V47.4485H40.9395V41.1076H37.9379ZM55.6866 47.4485V41.1076H52.685V47.4485H55.6866ZM18.8191 55.3533V49.0125H15.8175V55.3533H18.8191ZM30.5862 49.0125V55.3533H33.5661V49.0125H30.5862ZM37.9379 49.0125V55.3533H40.9178V49.0125H37.9379ZM52.7068 49.0125V55.3533H55.6648V49.0125H52.7068ZM18.8191 33.2662H15.8175V39.607H18.8191V33.2662ZM15.5347 26.9254V29.5674H17.1878V26.9042C16.6445 26.8733 16.0998 26.8733 15.5565 26.9042L15.5347 26.9254ZM54.3163 29.5885C54.8664 29.6312 55.4192 29.6312 55.9694 29.5885V26.9254C55.4188 26.8934 54.8668 26.8934 54.3163 26.9254V29.5885ZM14.3602 29.5885V26.9465H12.7289V29.5885H14.3602ZM57.1439 26.9254V29.5674H58.7752V26.9042L57.1439 26.9254Z" fill="#F3F3F3"/>
</svg>
