<?xml version="1.0" encoding="utf-8"?>
<!-- Generator: Adobe Illustrator 18.1.0, SVG Export Plug-In . SVG Version: 6.00 Build 0)  -->
<svg version="1.1" id="Layer_1" xmlns="http://www.w3.org/2000/svg" xmlns:xlink="http://www.w3.org/1999/xlink" x="0px" y="0px"
	 viewBox="0 0 1011.1 171" enable-background="new 0 0 1011.1 171" xml:space="preserve">
<g>
	<g>
		<g>
			<path fill="#1E1E1C" d="M430.2,58.2v32.3c0,7.7,2.9,11.5,10,11.5c7.2,0,10-3.7,10-11.5V58.2h10.6v33.4c0,12.7-7.4,19.6-20.6,19.6
				c-13.3,0-20.7-6.9-20.7-19.6V58.2H430.2z"/>
			<path fill="#1E1E1C" d="M469.7,71.8h10v4.5c2.9-3.7,6.7-5.5,11.5-5.5c8.4,0,12.5,4.4,12.5,13.1v25.9h-10.2v-23
				c0-5.2-1.5-7.6-5.9-7.6c-4.7,0-7.8,3-7.8,8v22.6h-10.2V71.8z"/>
			<path fill="#1E1E1C" d="M512,58.3h10.2v9.2H512V58.3z M512,71.8h10.2v38H512V71.8z"/>
			<path fill="#1E1E1C" d="M526.4,71.8h11.2l7.8,27.3l7.9-27.3H564l-13.6,38H540L526.4,71.8z"/>
			<path fill="#1E1E1C" d="M600.6,98.3c-2.1,8-8.6,12.8-17.6,12.8c-10.8,0-17.9-7.7-17.9-20.6c0-12.5,6.8-20.1,17.8-20.1
				c11.6,0,18.3,7.3,18.3,20.4c0,0.9,0,1.7-0.1,2.6h-25.4c0.3,5.9,2.9,9,7.9,9c3.4,0,5.7-1.3,6.9-4.2H600.6z M590.5,86.8
				c-0.1-5.2-2.8-7.9-7.5-7.9c-4.4,0-7,2.7-7.4,7.9H590.5z"/>
			<path fill="#1E1E1C" d="M607.4,71.8h9.5v6.5c2.6-5.2,6.1-7.6,11-7.6c0.5,0,1,0,1.5,0.1v10.3H626c-5.5,0-8.4,2.9-8.4,8.6v20.1
				h-10.2V71.8z"/>
			<path fill="#1E1E1C" d="M642.5,97.4c0.1,3.9,2.7,5.7,8,5.7c4.1,0,6.2-1.4,6.2-3.8c0-3.3-3.3-3.1-10-4.8c-9-2.3-13.2-5-13.2-11.5
				c0-7.7,5.9-12.7,15.6-12.7c10.2,0,16.3,4.8,16.6,13h-9.9c-0.1-3.2-2.5-5.1-6.7-5.1c-3.9,0-5.7,1.1-5.7,3.5
				c0,2.6,3.2,2.9,10.4,4.7c8.8,2.1,13.1,4.5,13.1,11.4c0,8.6-6.2,13.3-17.8,13.3c-10.6,0-16.8-5.1-16.8-13.3c0-0.1,0-0.3,0-0.4
				H642.5z"/>
			<path fill="#1E1E1C" d="M673.3,58.3h10.2v9.2h-10.2V58.3z M673.3,71.8h10.2v38h-10.2V71.8z"/>
			<path fill="#1E1E1C" d="M703.3,110.3c-8.4,0-10.2-2.9-10.2-10.8V79h-5v-7.2h5V61.4h10.1v10.4h5.9V79h-5.9V100
				c0,2,0.6,2.4,3.4,2.4h2.5v7.7C706.3,110.2,704.4,110.3,703.3,110.3z"/>
			<path fill="#1E1E1C" d="M717.5,116.9c0.9,0.1,1.8,0.1,2.4,0.1c4,0,6-1.9,6-5.7c0-0.3-0.1-0.7-0.2-1.1L712,71.8h11.2l8,27.4
				l7.8-27.4h10.7L734,116.6c-2.2,6.4-4.9,8.7-12.2,8.7c-1.1,0-2.5-0.1-4.3-0.3V116.9z"/>
			<path fill="#1E1E1C" d="M792.1,70.4c12,0,19.3,7.7,19.3,20.3s-7.3,20.3-19.3,20.3c-12,0-19.3-7.7-19.3-20.3
				S780.2,70.4,792.1,70.4z M792.1,102.6c5.7,0,8.9-4.2,8.9-11.8c0-7.6-3.2-11.7-8.9-11.7c-5.7,0-9,4.2-9,11.7
				C783.2,98.4,786.5,102.6,792.1,102.6z"/>
			<path fill="#1E1E1C" d="M819.2,79h-5.4v-7.2h5.4v-3.5c0-7.2,3.6-10.3,11.4-10.3c1.5,0,3.1,0.1,4.9,0.2v8.1h-2.6
				c-2.8,0-3.7,0.4-3.7,2.9v2.7h6.4V79h-6.3v30.9h-10V79z"/>
			<path fill="#1E1E1C" d="M884.8,57c15.4,0,25.2,10.5,25.2,27.1c0,16.6-9.8,27.1-25.2,27.1c-15.4,0-25.1-10.5-25.1-27.1
				C859.6,67.5,869.4,57,884.8,57z M884.8,102c9,0,14.5-6.4,14.5-17.9c0-11.5-5.4-17.9-14.5-17.9c-9,0-14.3,6.4-14.3,17.9
				C870.5,95.6,875.8,102,884.8,102z"/>
			<path fill="#1E1E1C" d="M925,97.4c0.1,3.9,2.7,5.7,8,5.7c4.1,0,6.2-1.4,6.2-3.8c0-3.3-3.3-3.1-10-4.8c-9-2.3-13.2-5-13.2-11.5
				c0-7.7,5.9-12.7,15.6-12.7c10.2,0,16.3,4.8,16.6,13h-9.9c-0.1-3.2-2.5-5.1-6.7-5.1c-3.9,0-5.7,1.1-5.7,3.5
				c0,2.6,3.2,2.9,10.4,4.7c8.8,2.1,13.1,4.5,13.1,11.4c0,8.6-6.2,13.3-17.8,13.3c-10.6,0-16.8-5.1-16.8-13.3c0-0.1,0-0.3,0-0.4H925
				z"/>
			<path fill="#1E1E1C" d="M955.9,58.3H966v51.5h-10.2V58.3z"/>
			<path fill="#1E1E1C" d="M991.8,70.4c12,0,19.3,7.7,19.3,20.3s-7.3,20.3-19.3,20.3c-12,0-19.3-7.7-19.3-20.3
				S979.8,70.4,991.8,70.4z M991.8,102.6c5.7,0,8.9-4.2,8.9-11.8c0-7.6-3.2-11.7-8.9-11.7c-5.7,0-9,4.2-9,11.7
				C982.8,98.4,986.1,102.6,991.8,102.6z"/>
		</g>
	</g>
	<path fill="#E20717" d="M393.9,67.1c0.2,0.8,0.3,1.7,0.3,2.6c0,6.6-5.3,11.9-11.9,11.9c-6.6,0-11.9-5.3-11.9-11.9
		s5.3-11.9,11.9-11.9C388,57.8,392.7,61.8,393.9,67.1z"/>
	<path fill="#E20717" d="M393.9,96.1c0.2,0.8,0.3,1.7,0.3,2.6c0,6.6-5.3,11.9-11.9,11.9c-6.6,0-11.9-5.3-11.9-11.9
		c0-6.6,5.3-11.9,11.9-11.9C388,86.8,392.7,90.8,393.9,96.1z"/>
	<g>
		<g>
			<g>
				<g>
					<g>
						<path fill="#1E1E1C" d="M264.7,91.4c0,3.5-0.4,6.5-1.3,9c-0.8,2.5-2.1,4.5-3.8,6c-1.7,1.5-3.9,2.6-6.5,3.3
							c-2.6,0.7-5.6,1-9.2,1c-3,0-5.7-0.3-8.2-1c-2.5-0.7-4.6-1.7-6.4-3.2c-1.8-1.5-3.1-3.4-4.1-5.7c-1-2.4-1.5-5.3-1.5-8.7V61.5
							l-5.9-1.1v-2.2h18.3v2.2l-5.9,1.1v33c0,4.1,1.3,7.3,3.8,9.6c2.6,2.3,6.3,3.5,11.3,3.5c5.2,0,9-1.2,11.3-3.6
							c2.3-2.4,3.5-6.2,3.5-11.4v-31l-5.9-1.1v-2.2h16.3v2.2l-5.9,1.1V91.4z"/>
					</g>
				</g>
				<g>
					<g>
						<path fill="#1E1E1C" d="M286.9,78.1v28.4l5.9,1.1v2.2h-17.5v-2.2l5.9-1.1V77.4l-5.9-2.2v-1.3l11.6-1.8l0.3,0.2L286.9,78.1z"/>
					</g>
				</g>
				<g>
					<g>
						<path fill="#1E1E1C" d="M341.8,103.9c-4.3,4.6-10.3,6.8-18.2,6.8c-7.5,0-13.4-2.2-17.6-6.7c-4.2-4.4-6.3-11-6.3-19.6
							c0-4.5,0.6-8.4,1.7-11.8c1.2-3.4,2.8-6.2,4.9-8.5c2.1-2.3,4.7-4,7.7-5.1c3-1.2,6.4-1.7,10.1-1.7c3.7,0,7.1,0.6,10.1,1.7
							c3,1.1,5.5,2.8,7.6,5.1c2.1,2.2,3.7,5,4.8,8.3c1.1,3.3,1.7,7.1,1.7,11.4C348.2,92.6,346,99.3,341.8,103.9z M336.4,66.3
							c-3-3.9-7.1-5.8-12.5-5.8c-5.5,0-9.7,1.9-12.6,5.6c-3,3.8-4.4,9.7-4.4,17.7c0,8.2,1.4,14.2,4.3,18c2.9,3.9,7.1,5.8,12.5,5.8
							c5.5,0,9.7-1.9,12.6-5.7c2.9-3.8,4.4-9.7,4.4-17.7C340.9,76.1,339.4,70.1,336.4,66.3z"/>
					</g>
				</g>
			</g>
		</g>
		<path fill="#1E1E1C" d="M280.5,61.2c0,1.1,0.4,2,1.1,2.7c0.7,0.7,1.6,1.1,2.7,1.1c1.1,0,2-0.4,2.7-1.1c0.7-0.7,1.1-1.6,1.1-2.7
			c0-1.1-0.4-2-1.1-2.7c-0.7-0.7-1.6-1.1-2.7-1.1c-1.1,0-2,0.4-2.7,1.1C280.8,59.2,280.5,60.1,280.5,61.2z"/>
	</g>
	<g>
		<path fill="#E30918" d="M85.5,0C38.3,0,0,38.3,0,85.5C0,132.7,38.3,171,85.5,171c47.2,0,85.5-38.3,85.5-85.5
			C170.9,38.3,132.7,0,85.5,0z"/>
		<g>
			<path fill="#FFFFFF" d="M3,85.5C3,65.6,10.1,47.3,21.8,33l0,0c15.1-18.3,38-30,63.6-30l0,0C131,3,168,39.9,168,85.5l0,0
				C168,131,131,168,85.5,168l0,0C39.9,168,3,131,3,85.5L3,85.5z M4.2,85.5c0,22.4,9.1,42.8,23.8,57.5l0,0
				c14.7,14.7,35,23.8,57.5,23.8l0,0c22.4,0,42.8-9.1,57.5-23.8l0,0c14.7-14.7,23.8-35,23.8-57.5l0,0c0-22.4-9.1-42.8-23.8-57.5l0,0
				c-14.7-14.7-35-23.8-57.5-23.8l0,0c-25.2,0-47.8,11.5-62.7,29.6l0,0h0C11.2,47.8,4.2,65.8,4.2,85.5L4.2,85.5z"/>
		</g>
		<g>
			<circle fill="#FFFFFF" cx="23.1" cy="119" r="2"/>
			<circle fill="#FFFFFF" cx="147.2" cy="120.1" r="2"/>
		</g>
		<g>
			<g>
				<g>
					<path fill="#FFFFFF" d="M141.9,61.8c-3.1-7.3-7.5-13.8-13.1-19.4c-5.6-5.6-12.1-10-19.4-13.1c-7.5-3.2-15.5-4.8-23.8-4.8
						c-8.2,0-16.2,1.6-23.8,4.8c-7.3,3.1-13.8,7.5-19.4,13.1c-5.6,5.6-10,12.1-13.1,19.4c-3.2,7.5-4.8,15.5-4.8,23.8
						c0,8.3,1.6,16.3,4.8,23.8c3.1,7.3,7.5,13.8,13.1,19.4c5.6,5.6,12.1,10,19.4,13.1c2.3,1,4.6,1.8,7,2.5c0,0,0,0,0.1,0
						c1.2,0.4,2.4,0.7,3.6,0.9c4.3,0.9,8.7,1.4,13.2,1.4c2.7,0,5.4-0.2,8.1-0.5c0,0,0,0,0,0c1.6-0.1,2.6-0.3,3.4-0.5
						c4.2-0.8,8.3-2,12.3-3.7c7.3-3.1,13.8-7.5,19.4-13.1l-0.4-0.4l0.4,0.4c5.6-5.6,10-12.1,13.1-19.4c3.2-7.5,4.8-15.5,4.8-23.8
						C146.7,77.3,145.1,69.3,141.9,61.8z M47.7,131.9c-0.1-0.1-0.2-0.3-0.2-0.5c0-0.1,0.1-0.2,0.1-0.3c0.3-0.5,0.7-1.1,1.1-1.5
						c0.6,1.4,2.2,4,5.4,6.9C51.9,135.1,49.8,133.5,47.7,131.9z M47.2,95.7c1.3,1.2,1.5,2.3,1.5,3c0,0.3,0,0.5-0.1,0.7
						c0,0.1,0,0.1-0.1,0.2c0,0,0,0,0,0c-0.1,0.1-0.5,1-1.9,1c-0.2,0-0.5,0-0.7-0.1c-2.4-0.5-4.7-1.4-6.7-1.6c0,0-0.1,0-0.1,0
						l4.7-6.4C45.3,93.8,46.6,95.1,47.2,95.7z M37.5,85l30.4-30.7L49.6,97c-0.3-0.7-0.8-1.5-1.5-2.3C46.4,93.1,39.4,86.7,37.5,85z
						 M45.6,101.7c0.3,0.1,0.7,0.1,1,0.1c1.1,0,1.9-0.4,2.3-0.8c0.5-0.4,0.7-0.8,0.7-0.9l0,0c0,0,0,0,0,0c0,0,0,0,0,0l0-0.1
						l18.7-43.7c0,0.3,0.1,0.9,0.2,1.1c0.3,4.9,1.4,8.3,2.6,11c0.7,1.5,1.4,2.7,1.9,3.5c0.3,0.4,0.5,0.7,0.7,1
						c0.1,0.1,0.1,0.2,0.2,0.2l-4.4,15c-0.1,0.2,0,0.5,0.2,0.7l1,0.8c0,0,0.1,0.1,0.1,0.3c-0.1,0.2-4.8,17.9-4.8,17.9l-15.2,17.4
						c-1.1-0.9-4.4-4-8.8-10.8c-3.8-5.9-4.9-9.6-4.9-11.7c0-1.1,0.3-1.7,0.6-2.1c0,0,0,0,0,0l0,0c0,0,0,0,0.1-0.1
						c0.3-0.4,0.8-0.5,1.1-0.5c0,0,0.1,0,0.1,0C40.8,100.3,43.1,101.2,45.6,101.7z M77.8,37.4c-0.1-0.3-0.4-0.5-0.8-0.4
						c0.3-0.2,0.5-0.5,0.8-0.7l2.6-0.3c0.3,0,0.6-0.4,0.5-0.7c0-0.3-0.4-0.6-0.7-0.5l-0.4,0.1c0.8-0.5,1.7-0.9,2.4-1.2
						c0.5-0.2,0.9-0.3,1.2-0.4c0.3-0.1,0.4-0.1,0.4-0.1c0.3-0.1,0.5-0.4,0.4-0.8c-0.1-0.3-0.4-0.5-0.8-0.4c0,0-1,0.3-2.4,0.9
						c0.2-0.3,0.1-0.7-0.2-0.9c-0.3-0.2-0.7-0.1-0.9,0.1l-1.4,2c-0.1,0.1-0.3,0.2-0.4,0.3c-0.2,0.1-0.4,0.3-0.6,0.4l0.1-0.3
						c0.2-0.3,0-0.7-0.3-0.8c-0.3-0.2-0.7,0-0.8,0.3l-1.5,3c-0.4,0.4-0.7,0.7-1,1c0-1.6,0.5-4.4,2.3-5.8c1.8-1.4,3.2-1.6,4.5-1.6
						c0.7,0,1.4,0.1,1.9,0.2c0.3,0,1.2,0.3,2,0.5c0.8,0.2,1.6,0.4,1.6,0.4l0.2,0c0.9,0,1.4,0.2,1.6,0.5c0.2,0.2,0.3,0.6,0.3,0.9
						c0,0.3-0.1,0.7-0.3,0.9c-0.1,0.1-0.1,0.2-0.2,0.2l-4.6,0.5c-0.2,0-0.3,0.1-0.4,0.2l-2.9,3.8l-1.4,0l-0.1,0
						c-0.1,0-0.3,0.1-0.6,0.3c-0.3,0.2-0.6,0.7-0.6,1.3c0,1.1,0.4,1.9,0.8,2.4c0,0,0.1,0.1,0.1,0.1l-1.9,1.9
						c-0.3-0.1-0.8-0.2-1.2-0.6c-0.6-0.4-1.1-1-1.3-2c-0.1-0.6-0.1-1.1-0.1-1.5c0-0.4,0-0.7,0.1-0.9c0,0,0,0,0,0
						c0,0,0.3-0.3,0.7-0.7l2.6-0.9C77.8,38.1,78,37.7,77.8,37.4z M87.2,42.1c0,0,0,0.2-0.2,0.3c-0.2,0.1-0.3,0.3-0.3,0.4
						c0,0.2,0,0.4,0.1,0.5c0,0,0,0.1,0,0.2c0,0.1-0.1,0.2-0.1,0.2c-0.1,0.2-0.1,0.3-0.1,0.5c0,0,0,0,0,0c0,0.1,0.1,0.3,0.1,0.5
						c0,0.1-0.1,0.5-0.3,0.6c-0.2,0.1-0.6,0.2-1.1,0.2l-1.3,0c-0.3,0-0.6,0.2-0.6,0.5c0,0,0,0.2,0,0.4c0,0.3,0,0.8,0.3,1.4
						c0.1,0.2,0.2,0.4,0.4,0.6c0,0,0,0,0,0h0l2.2,2.4l-5.7,0.4l-3.9-3c0.2-0.1,0.3-0.2,0.3-0.2c0.2-0.1,0.3-0.3,0.3-0.5v-1.8
						l2.5-2.5c0.2-0.2,0.2-0.4,0.2-0.6c-0.1-0.2-0.2-0.4-0.4-0.4v0c-0.1-0.1-0.9-0.3-0.9-1.8c0-0.2,0.1-0.3,0.1-0.3c0,0,0,0,0.1,0
						l1.6,0c0.2,0,0.4-0.1,0.5-0.2c0,0,2.6-3.4,2.8-3.6c0.2-0.2,0.4-0.2,0.4-0.2l3.5-0.4c0,0,0.2,0,0.2,0.2c0,0.3,0.1,0.7,0.1,1.1
						c0,0.2-0.1,0.2-0.2,0.2c-0.4,0-0.9,0-1.4,0c-0.5,0-1.1,0.3-1.4,0.6c-0.3,0.2-0.3,0.7,0,0.9c0.1,0.1,0.4,0.2,0.8,0.3
						c0.4,0.1,0.9,0.3,1.1,0.2c0.3-0.1,0.4-0.4,0.4-0.7c0-0.3,0.2-0.5,0.5-0.5c0.1,0,0.2,0.1,0.2,0.2c0.1,0.6,0.2,1.4,0.2,1.8
						c0,0.2,0,0.4,0,0.6c0,0.2-0.2,0.2-0.3,0.2c-0.2,0-0.4,0-0.4,0c-0.2,0-0.3,0.1-0.4,0.2c-0.1,0.1-0.2,0.3-0.2,0.4L87.2,42.1z
						 M80.1,52.3c0.1,0.1,0.2,0.1,0.4,0.1c0,0,0,0,0,0l7.1-0.5c0.2,0,0.4-0.2,0.5-0.4c0.1-0.2,0-0.5-0.1-0.6l-1.3-1.4
						c0.7,0.2,1.4,0.4,1.9,0.6c0.4,0.1,1.1,0.7,1.7,1.5c0.6,0.7,1.1,1.6,1.4,2.3c-0.3,1.3-0.6,2.5-1,3.8L87.6,60l-6.9-4.6
						c-0.3-0.5-2-2.8-3.5-4.4c-0.8-0.8-2-1.1-3.1-1.1c-0.2,0-0.4,0-0.6,0c0.3-0.2,0.6-0.3,0.9-0.5c0.4-0.2,0.9-0.5,1.3-0.7
						L80.1,52.3z M74.1,51.1c0.9,0,1.8,0.3,2.3,0.8c0.8,0.8,1.7,1.9,2.3,2.8c0.7,0.9,1.1,1.5,1.1,1.6c0,0.1,0.1,0.1,0.2,0.2l7.4,4.9
						c0.2,0.1,0.5,0.1,0.7,0l9.4-7.1l0,0c0,0,0.2-0.2,0.5-0.4c0.3-0.2,0.6-0.5,0.8-0.6c0.5-0.3,2.6-1.5,3.9-1.6c0.1,0,0.2,0,0.3,0
						c0.6,0,1.1,0.1,1.3,0.3c0.2,0.2,0.3,0.3,0.3,0.7c0,0.7,0,1.9,0,1.9c0,0.3,0.2,0.5,0.5,0.5c0.2,0,0.5,0.1,0.5,0.4
						c0,0.4-0.3,0.5-0.4,0.5c-0.2,0-0.4,0.1-0.5,0.1l-0.6,0l-0.2,0c0,0-0.8,0.2-1.6,0.4c-0.4,0.1-0.9,0.2-1.2,0.3
						c-0.2,0-0.3,0.1-0.5,0.1c-0.1,0-0.1,0-0.1,0c0,0,0,0,0,0c-0.5,0-1.4,0.1-1.4,0.1c-0.2,0-0.3,0.1-0.4,0.3c0,0-1,1.5-2.3,3.2
						C95,62,93.5,64,92.4,65c-1,1-1.9,1.8-2.5,2.4c-0.2,0.2-0.4,0.3-0.5,0.4c-0.1,0.1-0.2,0.1-0.4,0.1c-0.9-0.4-2.8-1.1-5.1-2.1
						c-3.2-1.4-7.2-3.2-10.2-4.8c-0.6-0.3-1.7-1-2.5-1.9c-0.1-0.1-0.2-0.2-0.3-0.3c0,0-0.1-0.1-0.1-0.1c-0.1-0.1-0.1-0.2-0.2-0.3
						c0-0.1-0.1-0.1-0.1-0.2c0-0.1-0.1-0.1-0.1-0.2c0-0.1-0.1-0.1-0.1-0.2c0,0,0-0.1,0-0.1c-0.1-0.1-0.2-0.3-0.2-0.5c0,0,0,0,0-0.1
						c0-0.1-0.1-0.2-0.1-0.3v0c0,0,0,0,0,0c-0.1-0.2-0.1-0.3-0.1-0.5c0-0.1,0-0.1,0-0.2c0-0.1,0-0.1,0-0.2c0-0.1,0-0.3,0-0.4
						c0-0.1,0-0.2,0-0.3c0-0.1,0-0.2,0-0.2c0,0,0,0,0,0c0-0.2,0.1-0.4,0.1-0.6c0,0,0,0,0,0l0,0c0-0.1,0.1-0.3,0.1-0.4c0,0,0,0,0,0
						c0-0.1,0.1-0.2,0.1-0.4c0,0,0,0,0-0.1c0.1-0.1,0.1-0.2,0.2-0.3c0,0,0-0.1,0-0.1c0.1-0.1,0.2-0.3,0.2-0.4l0,0
						C71,51.8,72.6,51.1,74.1,51.1z M93.3,41.8c0-0.3,0.1-0.3,0.1-0.3c0.9,0.1,1.4,0.6,1.8,0.9c0.2,0.2,0.3,0.5,0.4,0.7
						c0,0.1,0.1,0.2,0.1,0.2c0,0,0,0,0,0l0,0c0,0.3,0.3,0.5,0.6,0.5h12c0.3,0,0.6-0.2,0.6-0.5c0-0.1,0.1-0.4,0.5-0.8
						c0.3-0.3,0.8-0.6,1.8-0.7c0.1,0,0.2,0.1,0.2,0.2c0,1.3,0,3.9,0,7.7c0,3.1,0.8,5.6,1.6,8.1c0.8,2.5,1.5,5,1.5,8.1
						c0,1.7-0.3,3.3-0.9,4.8c-0.6-0.3-1-0.5-1.3-0.6c-0.1,0-0.2,0-0.3,0c-0.5,0-0.8,0.2-1.1,0.4c-0.3,0.2-0.5,0.4-0.7,0.8
						c0,0.1-0.1,0.3-0.1,0.4c0,0.3,0.1,0.6,0.2,0.7c-0.1,0.1-0.3,0.2-0.4,0.4c-0.2,0.2-0.4,0.4-0.6,0.6c-0.2,0.2-0.3,0.4-0.4,0.7
						c-0.1,0.2-0.1,0.4-0.1,0.6c0,0.4,0.1,0.7,0.3,1.1c-1.9,1.1-4.2,1.7-7,1.7c-4.1,0-7-1.4-9-3.5c-1.4-1.5-2.3-3.4-2.7-5.4
						c0.6-0.5,1.7-1.4,3-2.8c0.2-0.2,0.5-0.5,0.7-0.8c0.4,1.5,1.3,2.8,2.4,3.8c1.6,1.3,3.6,2.1,5.8,2.1c0,0,0.1,0,0.1,0c0,0,0,0,0,0
						c0,0,0.1,0,0.1,0c4.6,0,8.1-4.1,8.1-8.6c0-2-0.5-3.4-0.9-5.6c-0.4-2.2-0.9-5.2-0.9-10.6c0-0.2-0.1-0.3-0.2-0.4
						c-0.1-0.1-0.3-0.2-0.4-0.2H96.4c-0.2,0-0.3,0.1-0.4,0.2c-0.1,0.1-0.2,0.3-0.2,0.4c0,3.8-0.2,6.3-0.6,8.2l-2.8,2.1
						c0.2-0.8,0.4-1.6,0.6-2.4c0,0,0-0.1,0-0.1c0.2-1.1,0.3-2.2,0.3-3.3C93.4,46.5,93.3,43.3,93.3,41.8z M110.4,75.7
						c-0.3-0.5-0.4-0.8-0.4-1c0-0.1,0-0.1,0-0.2h0c0-0.1,0.4-0.5,0.7-0.8c0.3-0.3,0.6-0.5,0.6-0.5c0.2-0.1,0.3-0.4,0.3-0.5
						c0-0.2-0.1-0.3-0.1-0.4c0-0.1-0.1-0.2-0.1-0.2c0-0.1-0.1-0.3,0.1-0.5c0.2-0.2,0.5-0.1,0.6-0.1c0.2,0.1,0.6,0.3,1,0.5
						c0.5,0.3,1.1,0.8,1.3,1.1c0.2,0.3,0.4,0.8,0.4,1.1c0,0.2-0.1,0.4-0.2,0.5c-0.2,0.2-2,1.7-2.2,1.9c-0.2,0.1-1,0.5-1.6,0.7
						c-0.2,0.1-0.4,0.1-0.5,0.2c-0.2,0.1-0.3-0.1-0.3-0.1s0-0.1,0-0.2c0.1-0.1,0.2-0.2,0.3-0.3c0.1-0.1,0.3-0.3,0.3-0.7
						C110.5,76,110.5,75.8,110.4,75.7z M112.2,118.3c0,0,0,0.2-0.1,0.3c-0.1,0.1-4.5,2.5-4.5,2.5L107.1,78c0.5-0.2,1-0.3,1.4-0.5
						L112.2,118.3z M92.4,138.2c0,0,1.6,2.1,1.7,2.2c0.1,0.1,0,0.2,0,0.2c-2.4,2-6.3,3.3-10.8,3.8c0.7-3.2,3.4-16,5.4-29
						c2.1-13.4,3-26.1,3.2-28.8c0,0,1.6-0.1,1.9-0.1c0.3,0,0.3,0.1,0.3,0.3c0,0.2-1.8,51-1.8,51C92.3,138,92.3,138.1,92.4,138.2z
						 M71,87.6c0,0,4-13.8,4-14c0.1-0.2,0.2-0.2,0.2-0.2s2.9-0.8,3.4-1c0.5-0.2,1.2-0.2,1.2-0.2l10-0.6c0.5,1.2,1.2,2.3,2.2,3.3
						c0.8,0.9,1.8,1.6,2.9,2.2c0,0,0,7.6,0,7.8c0,0.1-0.1,0.3-0.4,0.3c-0.3,0-10.1,0.7-12.5,0.9c-0.3,0-0.8,0.1-1.1,0.2
						c-0.4,0.1-8.9,2.4-8.9,2.4s-0.3,0-0.4-0.1c-0.1-0.1-0.2-0.2-0.5-0.4C70.9,88.1,71,87.6,71,87.6z M74.8,72.1
						c-1-1.3-3.8-5.3-4.7-12.5c0.1,0.1,0.1,0.2,0.2,0.2c1,1.1,2.2,1.8,2.9,2.1c6.1,3.3,16,7.2,16,7.2c0,0,0,0,0,0
						c0.1,0.4,0.2,0.8,0.3,1.2L80.2,71c0,0-1.1,0-1.9,0.3c-0.9,0.3-3.1,0.9-3.3,0.9C74.9,72.3,74.8,72.2,74.8,72.1z M95.3,86.3
						l0.4-0.1c0.3-0.1,0.5-0.3,0.5-0.6l0-8c1.6,0.7,3.5,1,5.7,1c0,0,0,0,0,0c1.4,0,2.7-0.2,3.9-0.4l0.6,49.3l0,0c0,0,0,0,0,0.1
						c0,0.5-0.1,2.3-1.6,3.3c-1.8,1.3-5.8,3.4-11.2,3.5L95.3,86.3z M95.1,63.9c1.4-1.8,3-3.9,3.9-5.1V69c-0.6-0.3-1.2-0.6-1.7-1.1
						C96.1,66.9,95.3,65.6,95.1,63.9z M100.2,69.4V57.9c0.1,0,0.2,0,0.3,0c0.3,0,0.5-0.1,0.9-0.1c0.1,0,0.2-0.1,0.4-0.1v12
						C101.2,69.7,100.7,69.6,100.2,69.4z M103,69.7V57.4c0.6-0.1,1.1-0.3,1.2-0.3h0.2v12.4C104,69.6,103.5,69.7,103,69.7z
						 M106.8,54.6c-0.1-0.2-0.2-0.5-0.6-0.7c-0.1,0-0.2-0.1-0.3-0.1c0-0.4,0-0.9,0-1.3c0-0.3,0-0.6-0.1-0.8v-4.9h1.9
						c0,5.1,0.5,8.1,0.9,10.2c0.5,2.3,0.9,3.6,0.9,5.4c0,2-0.8,3.8-2,5.2c-0.5,0.6-1.1,1-1.7,1.4V57c0,0,0.1,0,0.1,0
						c0.1,0,0.1,0,0.2,0c0,0,0.1,0,0.1,0c0.2,0,0.4-0.1,0.5-0.2c0.3-0.3,0.3-0.5,0.3-0.7c0-0.2,0.1-0.5,0.1-0.7
						C106.9,55.1,106.9,54.9,106.8,54.6z M104.4,46.7v3.8c-0.4-0.2-0.9-0.2-1.5-0.2v-3.5H104.4z M101.7,46.7v3.7
						c-0.5,0.1-1.1,0.3-1.6,0.5v-4.2H101.7z M99,46.7v4.8c-0.4,0.2-0.7,0.4-0.9,0.5c-0.6,0.4-1.3,1-1.4,1.1l0,0
						c0.2-1.6,0.4-3.7,0.4-6.5H99z M50.4,127.7c0.2-0.2,16.7-19.2,16.7-19.2c0.1-0.1,0.1-0.2,0.1-0.2c0,0,4.9-18.1,4.9-18.2
						c0-0.1,0.2-0.2,0.2-0.2s8.7-2.4,9-2.5c0.3-0.1,0.8-0.1,0.8-0.1l4.8-0.3c-0.1,0.6-0.2,1.5-0.3,2.6c-0.8,6.1-3.3,19.3-9.4,26.4
						c-9.1,10.7-21.7,11.8-26.4,11.8c-0.1,0-0.2,0-0.3,0C50.4,127.9,50.2,127.9,50.4,127.7z M50.1,129.1c0.2,0,0.5,0,0.7,0
						c4.9,0,17.8-1.1,27.3-12.3c7.8-9.2,9.7-26.9,10-29.9l2.4-0.2C90.5,88,90.3,91,89.9,95c-0.5,5.4-1.3,12.7-2.5,20.2
						c-1.2,7.5-2.6,14.9-3.7,20.5c-0.8,4.1-1.5,7.2-1.8,8.5c0,0.1-0.2,0.3-0.5,0.3c-0.7,0-1.4,0.1-2,0.1c-2.2,0-4.5-0.2-6.8-0.6
						c-1.2-0.3-2.4-0.6-3.6-0.9c-8.5-2.7-13.4-6.4-16.2-9.5c-1.4-1.5-2.3-2.9-2.8-3.9c-0.1-0.2-0.2-0.3-0.2-0.4
						C49.9,129.2,50,129.1,50.1,129.1z M85.4,145.4c3.5-0.6,6.6-1.8,8.9-3.4l1.9,0.6c0.1,0,0.1,0,0.2,0c0,0,1.8-0.1,1.9-0.1
						c0.5,0,0.7,0.3,0.7,0.4c0,0.1,0,0.2,0,0.2s0,0.3-0.2,0.5c-0.2,0.2-1.6,0.6-2.1,0.7c-3.7,0.7-7.4,1-11.2,1
						C85.5,145.4,85.4,145.4,85.4,145.4z M140.8,108.8c-3,7.1-7.3,13.5-12.8,19c-5.5,5.5-11.9,9.8-19,12.8c-2.8,1.2-5.7,2.1-8.6,2.9
						l-0.1-1.2c0-0.7-0.8-1.1-1.3-1.1l-2.6,0c0,0-0.8-0.2-0.9-0.2c-0.1,0-0.1-0.1-0.1-0.2c0.2-0.2,0.2-0.5,0-0.8l-2-2.6l0.1-1.8
						c5.8-0.1,10-2.3,12-3.8c1.9-1.4,2.1-3.6,2.1-4.3c0-0.1,0-0.2,0-0.2l-0.1-5.1c0,0,0,0,0.1,0l0,0l5.5-3.1
						c0.2-0.1,0.3-0.3,0.3-0.6l-3.6-40c0.2-0.1,0.7-0.2,1.2-0.4c0.7-0.3,1.4-0.6,1.9-0.8c0.4-0.3,2-1.7,2.4-2.1
						c0.3-0.4,0.5-0.8,0.5-1.3c0-0.7-0.3-1.2-0.5-1.7c-0.2-0.4-0.5-0.7-0.9-1c0.8-1.7,1.1-3.5,1.1-5.5c0-3.4-0.8-6-1.6-8.5
						c-0.8-2.5-1.5-4.9-1.5-7.8c0-5.4,0.1-8.6,0.1-8.6c0-0.2-0.1-0.3-0.2-0.4c-0.1-0.1-0.3-0.2-0.4-0.2c-1.8,0-2.9,0.6-3.6,1.3
						c-0.3,0.3-0.5,0.6-0.6,0.9H96.8c-0.1-0.3-0.3-0.6-0.6-1c-0.6-0.7-1.7-1.5-3.5-1.4c-0.2,0-0.3,0.1-0.4,0.2
						c-0.1,0.1-0.2,0.3-0.2,0.4c0,0,0,4.1,0,9.8c0,0.4,0,0.9-0.1,1.3c-0.2-0.4-0.5-0.7-0.7-1.1c-0.7-0.9-1.4-1.7-2.3-1.9
						c-0.8-0.2-2-0.6-3.4-1c-0.5-0.2-0.7-0.4-0.9-0.7c-0.1-0.2-0.1-0.3-0.2-0.5l0.7,0h0c0.6,0,1.1-0.1,1.6-0.3c0.4-0.2,0.8-0.5,1-1
						c0.1-0.3,0.1-0.5,0.1-0.7c0-0.2,0-0.5-0.1-0.6l0.3-0.5c0.1-0.2,0.1-0.4,0-0.5c0.1-0.1,0.2-0.3,0.2-0.5l0-0.6c0,0,0.1,0,0.1,0
						c0.2,0,0.4-0.1,0.6-0.2c0.1,0,0.2-0.1,0.3-0.2c0.1-0.1,0.2-0.3,0.2-0.5c0-0.2,0-0.6-0.1-1.2c-0.1-1.5-0.4-4.1-0.4-4.9
						c0.3-0.3,0.7-1,0.7-1.9c0-0.6-0.2-1.3-0.7-1.8c-0.5-0.5-1.3-0.8-2.4-0.8c-0.5-0.1-3-0.8-3.7-0.9c-0.5-0.1-1.2-0.2-2.1-0.2
						c-1.4,0-3.2,0.4-5.2,1.9c-2.5,2-2.7,5.6-2.8,7.2c0,0.3,0,0.5,0,0.7c-0.1,0.3-0.2,0.8-0.2,1.6c0,0.5,0,1,0.1,1.7
						c0.2,1.6,1.2,2.6,2.1,3c0.4,0.3,0.9,0.4,1.2,0.5v1.2c-0.5,0.2-3.5,1.6-6.5,3.6c-0.1,0.1-0.3,0.2-0.5,0.5c0,0,0,0,0,0L36.1,84.6
						C36,84.7,36,84.9,36,85.1c0,0.2,0.1,0.3,0.2,0.4c0,0,2.3,2.1,4.8,4.4c0.6,0.6,1.3,1.2,1.9,1.7l-6.1,8.3
						c-0.5,0.7-0.8,1.6-0.8,2.8c0,2.5,1.3,6.4,5.1,12.4c4.4,6.8,7.8,10,9,11l-1.6,1.8c-0.1,0.1-0.6,0.6-1.1,1.3
						c-0.3,0.4-0.6,0.8-0.8,1.2c-0.1,0.1-0.1,0.2-0.2,0.3c-1.1-0.9-2.1-1.9-3.2-2.9c-5.5-5.5-9.8-11.9-12.8-19
						c-3.1-7.4-4.7-15.2-4.7-23.3c0-8.1,1.6-15.9,4.7-23.3c3-7.1,7.3-13.5,12.8-19c5.5-5.5,11.9-9.8,19-12.8
						c7.4-3.1,15.2-4.7,23.3-4.7c8.1,0,15.9,1.6,23.3,4.7c7.1,3,13.5,7.3,19,12.8c5.5,5.5,9.8,11.9,12.8,19
						c3.1,7.4,4.7,15.2,4.7,23.3C145.5,93.6,143.9,101.5,140.8,108.8z"/>
				</g>
			</g>
		</g>
		<g>
			<path fill="#FFFFFF" d="M15.7,90.7c0.7-0.1,1.3-0.1,1.8,0c0.5,0.1,0.9,0.3,1.3,0.6c0.3,0.3,0.6,0.7,0.8,1.2
				c0.2,0.5,0.4,1.1,0.4,1.8c0.1,0.6,0.1,1.2,0,1.7c-0.1,0.5-0.2,1-0.5,1.4c-0.2,0.4-0.6,0.7-1,1c-0.4,0.3-1.5,0.5-1.5,0.5
				c-0.1,0-0.3,0-0.4,0.1l-5.4,0.7c-0.1,0-0.2,0.1-0.2,0.2l0,0.8c0,0.1-0.1,0.2-0.2,0.2l-0.2,0c-0.1,0-0.2-0.1-0.2-0.2l-0.5-3.6
				c0-0.1,0.1-0.2,0.2-0.2l0.2,0c0.1,0,0.2,0.1,0.2,0.2l0.2,0.7c0,0.1,0.1,0.2,0.2,0.2l6.1-0.8c0.7-0.1,1.3-0.4,1.7-0.9
				c0.4-0.5,0.5-1.2,0.4-2.1c-0.1-0.9-0.4-1.5-0.9-1.9c-0.5-0.4-2-0.3-2-0.3c-0.1,0-0.3,0-0.4,0l-5.5,0.7c-0.1,0-0.2,0.1-0.2,0.2
				l0,0.8c0,0.1-0.1,0.2-0.2,0.2l-0.2,0c-0.1,0-0.2-0.1-0.2-0.2l-0.4-3.3c0-0.1,0.1-0.2,0.2-0.2l0.2,0c0.1,0,0.2,0.1,0.2,0.2
				l0.3,0.8c0,0.1,0.1,0.2,0.2,0.2L15.7,90.7z"/>
			<path fill="#FFFFFF" d="M9.1,82.2c0-0.1,0.1-0.2,0.2-0.3l7.6-4.6l-6.4-0.5c-0.1,0-0.2,0.1-0.2,0.2l-0.2,0.8
				c0,0.1-0.1,0.2-0.2,0.2l-0.2,0c-0.1,0-0.2-0.1-0.2-0.2l0.2-3.1c0-0.1,0.1-0.2,0.2-0.2l0.2,0c0.1,0,0.2,0.1,0.2,0.2l0.1,0.8
				c0,0.1,0.1,0.2,0.2,0.2l9.1,0.7c0.1,0,0.2,0.1,0.2,0.2l-0.1,0.9c0,0.1-0.1,0.2-0.2,0.3l-8.8,5.2l7.4,0.6c0.1,0,0.2-0.1,0.2-0.2
				l0.2-0.8c0-0.1,0.1-0.2,0.2-0.2l0.2,0c0.1,0,0.2,0.1,0.2,0.2l-0.2,3.1c0,0.1-0.1,0.2-0.2,0.2l-0.2,0c-0.1,0-0.2-0.1-0.2-0.2
				l-0.1-0.8c0-0.1-0.1-0.2-0.2-0.2L10,84.1c-0.1,0-0.2,0.1-0.2,0.2L9.6,85c0,0.1-0.1,0.2-0.2,0.2l-0.2,0c-0.1,0-0.2-0.1-0.2-0.2
				L9.1,82.2z"/>
			<path fill="#FFFFFF" d="M12.3,65.2c0.1,0,0.2,0.1,0.2,0.2l0,0.8c0,0.1,0.1,0.2,0.2,0.2l7.9,2c0.1,0,0.2,0,0.3-0.1l0.3-0.7
				c0-0.1,0.2-0.1,0.3-0.1l0.2,0.1c0.1,0,0.2,0.1,0.1,0.2l-0.9,3.6c0,0.1-0.1,0.2-0.2,0.1l-0.2-0.1c-0.1,0-0.2-0.1-0.2-0.2l0-0.8
				c0-0.1-0.1-0.2-0.2-0.2l-7.9-2c-0.1,0-0.2,0-0.3,0.1L11.5,69c0,0.1-0.2,0.1-0.3,0.1l-0.2-0.1c-0.1,0-0.2-0.1-0.1-0.2l0.9-3.6
				c0-0.1,0.1-0.2,0.2-0.1L12.3,65.2z"/>
			<path fill="#FFFFFF" d="M24.7,59.2c0.1,0.1,0.1,0.2,0.1,0.3l-0.4,1c0,0.1-0.2,0.2-0.3,0.2L14.4,60c-0.1,0-0.2,0.1-0.3,0.1
				l-0.4,0.5c-0.1,0.1-0.2,0.1-0.3,0.1l-0.2-0.1c-0.1,0-0.1-0.1-0.1-0.2l1.3-3.1c0-0.1,0.1-0.1,0.2-0.1l0.2,0.1
				c0.1,0,0.2,0.2,0.1,0.3L15,58.2c0,0.1,0,0.2,0.2,0.2l7.7,0.6l-5.7-5.4c-0.1-0.1-0.2-0.1-0.2,0l-0.4,0.6c-0.1,0.1-0.2,0.1-0.3,0.1
				L16,54.2c-0.1,0-0.1-0.2-0.1-0.2l1.2-2.8c0-0.1,0.2-0.1,0.2-0.1l0.2,0.1c0.1,0,0.2,0.2,0.1,0.3l-0.2,0.7c0,0.1,0,0.2,0.1,0.3
				L24.7,59.2z"/>
			<path fill="#FFFFFF" d="M44,32.8c0.2-0.1,0.5-0.2,0.7-0.3c0.3-0.1,0.5-0.2,0.6-0.3c0.6-0.4,0.9-0.8,1-1.3c0.1-0.5,0-0.9-0.3-1.4
				c-0.2-0.3-0.4-0.4-0.7-0.6c-0.3-0.1-0.5-0.2-0.8-0.2c-0.3,0-0.6,0-0.9,0.1c-0.3,0.1-0.6,0.1-0.9,0.2c-0.5,0.1-0.9,0.1-1.3,0.2
				c-0.4,0-0.7,0.1-1,0c-0.3,0-0.6-0.1-0.9-0.3c-0.3-0.1-0.5-0.4-0.7-0.7c-0.3-0.3-0.4-0.7-0.5-1.1c-0.1-0.4,0-0.8,0.1-1.1
				c0.1-0.4,0.4-0.8,0.7-1.1c0.3-0.4,0.7-0.7,1.2-1.1c0.2-0.1,0.4-0.3,0.6-0.4c0.2-0.1,0.4-0.2,0.7-0.4c0.2-0.1,0.4-0.2,0.7-0.3
				c0.2-0.1,0.4-0.2,0.4-0.2c0.1,0,0.2,0,0.2,0c0,0,0.1,0.1,0.1,0.2l0.8,1.4c0,0.1,0,0.2-0.1,0.3l-0.5,0.4c-0.1,0.1-0.2,0.1-0.3,0
				L42,24c-0.2,0-0.4,0-0.6,0.1c-0.2,0.1-0.5,0.2-0.7,0.4c-0.5,0.4-0.8,0.7-0.9,1.2c-0.1,0.4,0,0.8,0.3,1.2c0.2,0.3,0.4,0.4,0.6,0.5
				c0.2,0.1,0.4,0.1,0.7,0.1c0.2,0,0.5,0,0.8-0.1c0.3-0.1,0.5-0.1,0.8-0.2c0.4-0.1,0.8-0.1,1.2-0.2c0.4-0.1,0.8-0.1,1.2-0.1
				c0.4,0,0.8,0.1,1.1,0.2c0.3,0.1,0.6,0.4,0.9,0.8c0.3,0.5,0.5,0.9,0.5,1.4c0,0.4,0,0.8-0.2,1.2c-0.2,0.4-0.4,0.8-0.8,1.1
				c-0.3,0.4-0.8,0.7-1.2,1.1c-0.4,0.3-0.9,0.6-1.3,0.8c-0.5,0.2-1.1,0.5-1.1,0.5c-0.1,0-0.2,0.1-0.2,0c0,0-0.1-0.1-0.1-0.2
				l-0.8-1.4c-0.1-0.1,0-0.2,0.1-0.3l0.5-0.4c0.1-0.1,0.2-0.1,0.3,0L44,32.8z"/>
			<path fill="#FFFFFF" d="M51.3,17.8c0,0.1,0,0.2-0.1,0.3l-0.6,0.5c-0.1,0.1-0.1,0.2-0.1,0.3l3.9,7.2c0,0.1,0.2,0.1,0.3,0.1
				l0.8-0.2c0.1,0,0.2,0,0.3,0.1l0.1,0.2c0,0.1,0,0.2-0.1,0.3l-3.2,1.7c-0.1,0-0.2,0-0.3-0.1l-0.1-0.2c0-0.1,0-0.2,0.1-0.3l0.6-0.5
				c0.1-0.1,0.1-0.2,0.1-0.3L49,19.7c0-0.1-0.2-0.1-0.3-0.1L48,19.8c-0.1,0-0.2,0-0.3-0.1l-0.1-0.2c0-0.1,0-0.2,0.1-0.3l3.2-1.7
				c0.1,0,0.2,0,0.3,0.1L51.3,17.8z"/>
			<path fill="#FFFFFF" d="M55.4,15.4c0-0.1,0.1-0.1,0.2-0.2l7.6-2.7c0.1,0,0.2-0.1,0.3,0c0,0,0.1,0.1,0.2,0.2l0.7,1.6
				c0,0.1,0,0.2-0.1,0.2l-0.6,0.2c-0.1,0-0.2,0-0.3-0.1l-0.5-0.8c-0.1-0.1-0.2-0.1-0.3-0.1L61.6,14c-0.1,0-0.3,0.1-0.4,0.1l-0.8,0.3
				l2.8,7.8c0,0.1,0.1,0.2,0.2,0.1l0.8-0.1c0.1,0,0.2,0,0.2,0.1l0.1,0.2c0,0.1,0,0.2-0.1,0.2l-3.5,1.3c-0.1,0-0.2,0-0.2-0.1
				l-0.1-0.2c0-0.1,0-0.2,0.1-0.3l0.7-0.4c0.1-0.1,0.1-0.2,0.1-0.3L58.8,15L58,15.3c-0.1,0-0.3,0.1-0.3,0.1l-0.8,0.3
				c-0.1,0-0.2,0.2-0.2,0.3l0.1,0.9c0,0.1-0.1,0.2-0.2,0.2l-0.6,0.2c-0.1,0-0.2,0-0.2-0.1l-0.5-1.6C55.3,15.6,55.3,15.5,55.4,15.4z"
				/>
			<path fill="#FFFFFF" d="M73.9,16.5l-3.4,0.6L70,20.2c0,0.1,0.1,0.2,0.2,0.2l0.7,0c0.1,0,0.2,0.1,0.2,0.2l0,0.2
				c0,0.1,0,0.2-0.1,0.2l-3,0.6c-0.1,0-0.2,0-0.2-0.1l0-0.2c0-0.1,0-0.2,0.1-0.3l0.6-0.3c0.1,0,0.2-0.2,0.2-0.3l1.9-9.7
				c0-0.1,0.1-0.2,0.2-0.2l1.3-0.2c0.1,0,0.2,0,0.3,0.1l4.8,8.4c0,0.1,0.2,0.2,0.3,0.2l0.6,0c0.1,0,0.2,0.1,0.2,0.2l0,0.2
				c0,0.1,0,0.2-0.1,0.2l-3.4,0.6c-0.1,0-0.2,0-0.2-0.1l0-0.2c0-0.1,0-0.2,0.1-0.3l0.6-0.3c0.1,0,0.1-0.1,0.1-0.2L73.9,16.5z
				 M71.4,12l-0.8,4.3l2.8-0.5L71.4,12z"/>
			<path fill="#FFFFFF" d="M83.2,18.6c0.2,0.1,0.5,0.2,0.7,0.2c0.3,0.1,0.5,0.1,0.7,0.1c0.7,0,1.2-0.2,1.6-0.5
				c0.4-0.3,0.6-0.7,0.6-1.3c0-0.3-0.1-0.6-0.2-0.8c-0.1-0.2-0.3-0.4-0.6-0.6c-0.2-0.2-0.5-0.3-0.8-0.5c-0.3-0.1-0.6-0.3-0.8-0.4
				c-0.4-0.2-0.8-0.4-1.1-0.6c-0.3-0.2-0.6-0.4-0.8-0.6c-0.2-0.2-0.4-0.5-0.5-0.7c-0.1-0.3-0.2-0.6-0.2-1c0-0.4,0.1-0.8,0.3-1.2
				c0.2-0.3,0.4-0.6,0.8-0.8c0.3-0.2,0.7-0.4,1.2-0.5c0.5-0.1,1-0.2,1.6-0.2c0.2,0,0.4,0,0.7,0c0.2,0,0.5,0.1,0.7,0.1
				c0.2,0,0.5,0.1,0.7,0.1c0.2,0.1,0.4,0.1,0.4,0.1c0.1,0,0.2,0.1,0.2,0.1c0,0,0,0.1,0,0.2l-0.2,1.6c0,0.1-0.1,0.2-0.2,0.2l-0.6,0
				c-0.1,0-0.2-0.1-0.2-0.2l-0.3-1.2c-0.1-0.1-0.3-0.2-0.6-0.2c-0.2-0.1-0.5-0.1-0.8-0.1c-0.6,0-1.1,0.1-1.4,0.4
				c-0.3,0.3-0.5,0.7-0.5,1.1c0,0.3,0.1,0.6,0.2,0.8c0.1,0.2,0.3,0.4,0.5,0.5c0.2,0.1,0.4,0.3,0.7,0.4c0.2,0.1,0.5,0.2,0.7,0.4
				c0.3,0.2,0.7,0.4,1.1,0.6c0.4,0.2,0.7,0.4,1,0.7c0.3,0.2,0.6,0.5,0.8,0.9c0.2,0.3,0.3,0.7,0.3,1.1c0,0.6-0.2,1-0.4,1.4
				c-0.2,0.4-0.5,0.7-0.9,0.9c-0.4,0.2-0.8,0.4-1.3,0.5c-0.5,0.1-1,0.1-1.6,0.1c-0.5,0-1,0-1.5-0.1c-0.5-0.1-1.1-0.2-1.1-0.2
				c-0.1,0-0.2-0.1-0.2-0.1c0,0,0-0.1,0-0.2l0.2-1.6c0-0.1,0.1-0.2,0.2-0.2l0.6,0c0.1,0,0.2,0.1,0.2,0.2L83.2,18.6z"/>
			<path fill="#FFFFFF" d="M109.6,22.7c-1.1,0.6-2.4,0.6-3.9,0.2c-0.7-0.2-1.3-0.6-1.9-1c-0.5-0.4-0.9-0.9-1.1-1.4
				c-0.3-0.5-0.4-1.2-0.4-1.8c0-0.7,0.1-1.4,0.4-2.2c0.3-0.8,0.6-1.5,1.1-2.1c0.4-0.6,0.9-1,1.5-1.3c0.5-0.3,1.2-0.5,1.8-0.5
				c0.7,0,1.3,0.1,2.1,0.3c0.7,0.2,1.3,0.5,1.8,0.9c0.5,0.4,0.9,0.9,1.2,1.4c0.3,0.5,0.4,1.2,0.4,1.9c0,0.7-0.1,1.4-0.4,2.3
				C111.5,21,110.7,22.1,109.6,22.7z M110.5,15.3c-0.3-0.9-0.9-1.4-1.8-1.7c-0.9-0.3-1.7-0.2-2.5,0.3c-0.7,0.5-1.3,1.5-1.8,2.9
				c-0.5,1.5-0.6,2.6-0.3,3.5c0.3,0.9,0.9,1.4,1.8,1.7c0.9,0.3,1.7,0.2,2.5-0.3c0.7-0.5,1.3-1.5,1.8-2.9
				C110.7,17.4,110.8,16.2,110.5,15.3z"/>
			<path fill="#FFFFFF" d="M115.6,25.7c0.2,0.2,0.3,0.4,0.6,0.5c0.2,0.2,0.4,0.3,0.6,0.4c0.6,0.3,1.1,0.5,1.6,0.4
				c0.5-0.1,0.9-0.4,1.1-0.8c0.2-0.3,0.2-0.6,0.2-0.8c0-0.3-0.1-0.5-0.2-0.8c-0.1-0.3-0.3-0.5-0.4-0.8c-0.2-0.3-0.4-0.5-0.5-0.8
				c-0.3-0.4-0.5-0.7-0.7-1.1c-0.2-0.3-0.4-0.6-0.5-0.9c-0.1-0.3-0.1-0.6-0.1-0.9c0-0.3,0.1-0.6,0.3-1c0.2-0.4,0.5-0.7,0.8-0.9
				c0.3-0.2,0.7-0.3,1.1-0.4c0.4,0,0.8,0,1.3,0.1c0.5,0.1,1,0.3,1.5,0.6c0.2,0.1,0.4,0.2,0.6,0.4c0.2,0.1,0.4,0.3,0.6,0.5
				c0.2,0.2,0.4,0.3,0.6,0.5c0.2,0.2,0.3,0.3,0.3,0.3c0.1,0.1,0.1,0.2,0.1,0.2c0,0-0.1,0.1-0.1,0.2l-0.9,1.3
				c-0.1,0.1-0.2,0.1-0.3,0.1l-0.6-0.3c-0.1,0-0.1-0.2-0.1-0.3l0.3-1.2c-0.1-0.2-0.2-0.3-0.4-0.5c-0.2-0.2-0.4-0.3-0.7-0.5
				c-0.5-0.3-1-0.4-1.4-0.3c-0.4,0.1-0.8,0.3-1,0.8c-0.1,0.3-0.2,0.5-0.2,0.8c0,0.2,0.1,0.5,0.2,0.7c0.1,0.2,0.2,0.4,0.4,0.7
				c0.2,0.2,0.3,0.4,0.5,0.7c0.2,0.3,0.4,0.7,0.7,1c0.2,0.3,0.4,0.7,0.6,1.1c0.2,0.4,0.2,0.7,0.3,1.1c0,0.4-0.1,0.8-0.3,1.1
				c-0.3,0.5-0.6,0.8-1,1.1c-0.4,0.2-0.8,0.3-1.2,0.4c-0.4,0-0.9,0-1.4-0.2c-0.5-0.2-1-0.4-1.5-0.7c-0.5-0.3-0.9-0.5-1.3-0.9
				c-0.4-0.3-0.9-0.8-0.9-0.8c-0.1-0.1-0.1-0.2-0.1-0.2c0,0,0.1-0.1,0.1-0.2L115,24c0.1-0.1,0.2-0.1,0.3-0.1l0.6,0.3
				c0.1,0,0.1,0.2,0.1,0.3L115.6,25.7z"/>
			<path fill="#FFFFFF" d="M126.2,32.4c-0.1,0.1,0,0.2,0,0.3l1.3,1c0.1,0.1,0.2,0.2,0.3,0.2l0.7,0.5c0.1,0.1,0.2,0.1,0.3,0l0.8-0.7
				c0.1-0.1,0.2-0.1,0.3,0l0.5,0.4c0.1,0.1,0.1,0.2,0,0.3l-1.1,1.3c-0.1,0.1-0.1,0.2-0.2,0.2c0,0-0.1,0-0.2-0.1l-5.4-4.3
				c-0.1-0.1-0.1-0.2,0-0.3l0.1-0.2c0.1-0.1,0.2-0.1,0.3-0.1l0.7,0.4c0.1,0,0.2,0,0.3-0.1l5-6.4c0.1-0.1,0.1-0.2,0-0.3l-0.5-0.6
				c-0.1-0.1-0.1-0.2,0-0.3l0.1-0.2c0.1-0.1,0.2-0.1,0.3,0l2.9,2.3c0.1,0.1,0.1,0.2,0,0.3l-0.1,0.2c-0.1,0.1-0.2,0.1-0.3,0.1
				l-0.7-0.4c-0.1,0-0.2,0-0.3,0.1L126.2,32.4z"/>
			<path fill="#FFFFFF" d="M138.3,43.8c-1.3-0.1-2.4-0.7-3.5-1.9c-0.5-0.6-0.9-1.2-1.1-1.8c-0.2-0.6-0.3-1.2-0.3-1.8
				c0.1-0.6,0.2-1.2,0.6-1.8c0.3-0.6,0.8-1.2,1.5-1.7c0.7-0.6,1.3-1,2-1.3c0.7-0.3,1.3-0.4,1.9-0.4c0.6,0,1.2,0.2,1.8,0.5
				c0.6,0.3,1.1,0.8,1.6,1.3c0.5,0.6,0.9,1.2,1.1,1.8c0.2,0.6,0.3,1.2,0.3,1.8c-0.1,0.6-0.2,1.2-0.6,1.8c-0.3,0.6-0.8,1.2-1.5,1.7
				C140.8,43.3,139.5,43.9,138.3,43.8z M142.8,38c0.2-0.9,0-1.7-0.6-2.4c-0.6-0.7-1.4-1.1-2.3-1c-0.9,0.1-1.9,0.6-3,1.6
				c-1.2,1-1.8,2-2,2.8c-0.2,0.9,0,1.7,0.7,2.4c0.6,0.7,1.4,1.1,2.3,1c0.9-0.1,1.9-0.6,3-1.6C141.9,39.8,142.6,38.8,142.8,38z"/>
			<path fill="#FFFFFF" d="M147,50.2c0.1-0.1,0.1-0.2,0-0.3l-1.1-1.9l-3.6,2.2l1.2,2c0.1,0.1,0.1,0.2,0.2,0.3l0.5,0.7
				c0.1,0.1,0.2,0.1,0.3,0.1l1-0.3c0.1,0,0.2,0,0.3,0.1l0.3,0.6c0.1,0.1,0,0.2-0.1,0.2l-1.5,0.8c-0.1,0-0.2,0.1-0.2,0.1
				c0,0-0.1,0-0.2-0.1l-3.8-6.4c-0.1-0.1,0-0.2,0.1-0.3l0.2-0.1c0.1-0.1,0.2,0,0.3,0l0.5,0.6c0.1,0.1,0.2,0.1,0.3,0l7-4.2
				c0.1-0.1,0.1-0.2,0.1-0.3l-0.3-0.7c0-0.1,0-0.2,0.1-0.3l0.2-0.1c0.1-0.1,0.2,0,0.3,0.1l3.6,6.1c0.1,0.1,0.1,0.2,0.1,0.3
				c0,0.1-0.1,0.1-0.2,0.2l-1.5,0.9c-0.1,0.1-0.2,0-0.3-0.1l-0.3-0.6c-0.1-0.1,0-0.2,0-0.3l0.8-0.8c0.1-0.1,0.1-0.2,0.1-0.3L151,48
				c0-0.1-0.1-0.2-0.2-0.3l-1.1-1.8l-3.2,1.9l1.1,1.9c0.1,0.1,0.2,0.1,0.3,0.1l0.7-0.3c0.1,0,0.2,0,0.3,0.1l0.3,0.5
				c0.1,0.1,0,0.2-0.1,0.3l-2.4,1.4c-0.1,0.1-0.2,0-0.3-0.1l-0.3-0.5c-0.1-0.1,0-0.2,0-0.3L147,50.2z"/>
			<path fill="#FFFFFF" d="M26.6,45.9c-0.1,0-0.2,0-0.3,0.1l-1.2,1.8l3.6,2.3l1.3-2c0.1-0.1,0.1-0.2,0.2-0.3l0.4-0.7
				c0.1-0.1,0-0.2,0-0.3l-0.7-0.7c-0.1-0.1-0.1-0.2,0-0.3l0.4-0.6c0.1-0.1,0.2-0.1,0.3,0l1.4,1c0.1,0.1,0.2,0.1,0.2,0.2
				c0,0,0,0.1,0,0.2l-4.1,6.3c-0.1,0.1-0.2,0.1-0.3,0.1l-0.2-0.1c-0.1-0.1-0.1-0.2-0.1-0.3l0.3-0.7c0-0.1,0-0.2-0.1-0.3L20.7,47
				c-0.1-0.1-0.2,0-0.3,0l-0.5,0.6c-0.1,0.1-0.2,0.1-0.3,0l-0.2-0.1c-0.1-0.1-0.1-0.2-0.1-0.3l3.9-6c0.1-0.1,0.1-0.2,0.2-0.2
				c0.1,0,0.2,0,0.3,0.1l1.5,0.9c0.1,0.1,0.1,0.2,0.1,0.3l-0.4,0.5c-0.1,0.1-0.2,0.1-0.3,0.1l-1-0.4c-0.1,0-0.2,0-0.3,0.1l-0.5,0.7
				c-0.1,0.1-0.2,0.2-0.2,0.3l-1.2,1.8l3.1,2l1.2-1.8c0.1-0.1,0-0.2,0-0.3l-0.6-0.5c-0.1-0.1-0.1-0.2,0-0.3l0.3-0.5
				c0.1-0.1,0.2-0.1,0.3-0.1l2.3,1.5c0.1,0.1,0.1,0.2,0.1,0.3l-0.3,0.5c-0.1,0.1-0.2,0.1-0.3,0.1L26.6,45.9z"/>
			<path fill="#FFFFFF" d="M156.8,58.3c0,0.1,0,0.2,0,0.3l-5.2,7.2l6.1-2.1c0.1,0,0.2-0.1,0.1-0.2l-0.1-0.8c0-0.1,0.1-0.2,0.1-0.2
				l0.2-0.1c0.1,0,0.2,0,0.2,0.1l1,3c0,0.1,0,0.2-0.1,0.2l-0.2,0.1c-0.1,0-0.2,0-0.3-0.1l-0.4-0.7c-0.1-0.1-0.2-0.1-0.3-0.1l-8.6,3
				c-0.1,0-0.2,0-0.2-0.1l-0.3-0.8c0-0.1,0-0.2,0-0.3l6.1-8.3l-7.1,2.4c-0.1,0-0.2,0.1-0.1,0.2l0.1,0.8c0,0.1-0.1,0.2-0.1,0.2
				l-0.2,0.1c-0.1,0-0.2,0-0.2-0.1l-1-3c0-0.1,0-0.2,0.1-0.2l0.2-0.1c0.1,0,0.2,0,0.3,0.1l0.4,0.7c0.1,0.1,0.2,0.1,0.3,0.1l7.7-2.7
				c0.1,0,0.2-0.1,0.1-0.2l-0.1-0.8c0-0.1,0.1-0.2,0.1-0.2l0.2-0.1c0.1,0,0.2,0,0.2,0.1L156.8,58.3z"/>
			<path fill="#FFFFFF" d="M151.4,73.9c-0.1,0.2-0.1,0.5-0.1,0.8c0,0.3,0,0.5,0,0.7c0.1,0.7,0.3,1.2,0.7,1.5
				c0.3,0.3,0.8,0.5,1.3,0.4c0.3,0,0.6-0.2,0.8-0.3c0.2-0.2,0.4-0.4,0.5-0.6c0.1-0.3,0.3-0.5,0.4-0.8c0.1-0.3,0.2-0.6,0.3-0.9
				c0.2-0.4,0.3-0.8,0.4-1.2c0.1-0.4,0.3-0.7,0.5-0.9c0.2-0.3,0.4-0.5,0.7-0.6c0.3-0.2,0.6-0.3,1-0.3c0.4-0.1,0.8,0,1.2,0.1
				c0.4,0.1,0.7,0.4,0.9,0.6c0.3,0.3,0.5,0.7,0.7,1.1s0.3,1,0.4,1.5c0,0.2,0,0.4,0.1,0.7c0,0.3,0,0.5,0,0.8c0,0.3,0,0.5,0,0.7
				c0,0.2-0.1,0.5-0.1,0.5c0,0.1-0.1,0.2-0.1,0.2c0,0-0.1,0-0.2,0l-1.6,0c-0.1,0-0.2-0.1-0.2-0.2l-0.1-0.6c0-0.1,0.1-0.2,0.1-0.3
				l1.1-0.5c0.1-0.1,0.1-0.3,0.2-0.6s0-0.5,0-0.8c-0.1-0.6-0.3-1-0.6-1.3c-0.3-0.3-0.7-0.4-1.2-0.4c-0.3,0-0.6,0.1-0.7,0.3
				c-0.2,0.1-0.3,0.3-0.5,0.5c-0.1,0.2-0.2,0.4-0.3,0.7c-0.1,0.3-0.2,0.5-0.2,0.8c-0.1,0.4-0.3,0.7-0.4,1.1
				c-0.1,0.4-0.3,0.8-0.5,1.1c-0.2,0.3-0.4,0.6-0.7,0.9c-0.3,0.2-0.7,0.4-1.1,0.4c-0.6,0.1-1.1,0-1.5-0.2c-0.4-0.2-0.7-0.4-1-0.7
				c-0.3-0.3-0.5-0.7-0.6-1.2c-0.2-0.5-0.3-1-0.4-1.6c-0.1-0.5-0.1-1-0.1-1.5c0-0.5,0.1-1.2,0.1-1.2c0-0.1,0-0.2,0.1-0.2
				c0,0,0.1,0,0.2,0l1.6,0c0.1,0,0.2,0.1,0.2,0.2l0.1,0.6c0,0.1-0.1,0.2-0.1,0.3L151.4,73.9z"/>
			<path fill="#FFFFFF" d="M161.2,87.6c-0.1,0-0.2-0.1-0.2-0.2l-0.2-0.8c0-0.1-0.1-0.2-0.2-0.2l-8.2,0c-0.1,0-0.2,0.1-0.2,0.2
				l-0.1,0.8c0,0.1-0.1,0.2-0.2,0.2l-0.2,0c-0.1,0-0.2-0.1-0.2-0.2l0-3.7c0-0.1,0.1-0.2,0.2-0.2h0.2c0.1,0,0.2,0.1,0.2,0.2l0.2,0.8
				c0,0.1,0.1,0.2,0.2,0.2l8.2,0c0.1,0,0.2-0.1,0.2-0.2l0.1-0.8c0-0.1,0.1-0.2,0.2-0.2l0.2,0c0.1,0,0.2,0.1,0.2,0.2l0,3.7
				c0,0.1-0.1,0.2-0.2,0.2L161.2,87.6z"/>
			<path fill="#FFFFFF" d="M151.9,93.9c-0.1,0.2-0.2,0.4-0.3,0.7c-0.1,0.3-0.2,0.5-0.2,0.7c-0.1,0.7,0,1.2,0.2,1.7
				c0.2,0.4,0.6,0.7,1.2,0.8c0.3,0.1,0.6,0,0.9-0.1c0.3-0.1,0.5-0.3,0.7-0.5c0.2-0.2,0.4-0.4,0.6-0.7c0.2-0.3,0.4-0.5,0.5-0.8
				c0.3-0.4,0.5-0.7,0.8-1c0.2-0.3,0.5-0.5,0.7-0.7c0.2-0.2,0.5-0.3,0.8-0.4c0.3-0.1,0.6-0.1,1,0c0.4,0.1,0.8,0.2,1.1,0.5
				c0.3,0.2,0.5,0.5,0.7,0.9c0.2,0.4,0.3,0.8,0.3,1.3c0,0.5,0,1-0.1,1.6c0,0.2-0.1,0.4-0.1,0.7c-0.1,0.2-0.1,0.5-0.2,0.7
				c-0.1,0.2-0.2,0.5-0.3,0.7c-0.1,0.2-0.2,0.4-0.2,0.4c0,0.1-0.1,0.2-0.1,0.2c0,0-0.1,0-0.2,0l-1.5-0.4c-0.1,0-0.2-0.1-0.2-0.2
				l0.1-0.6c0-0.1,0.1-0.2,0.2-0.2l1.2-0.1c0.1-0.1,0.2-0.3,0.3-0.5c0.1-0.2,0.2-0.5,0.2-0.8c0.1-0.6,0-1.1-0.2-1.5
				c-0.2-0.4-0.6-0.6-1-0.7c-0.3,0-0.6,0-0.8,0.1c-0.2,0.1-0.4,0.2-0.6,0.4c-0.2,0.2-0.3,0.4-0.5,0.6c-0.1,0.2-0.3,0.4-0.5,0.7
				c-0.2,0.3-0.5,0.6-0.7,1c-0.2,0.3-0.5,0.6-0.8,0.9c-0.3,0.3-0.6,0.5-1,0.6c-0.3,0.1-0.7,0.2-1.2,0.1c-0.6-0.1-1-0.3-1.3-0.6
				c-0.3-0.3-0.6-0.6-0.7-1c-0.2-0.4-0.3-0.8-0.3-1.4c0-0.5,0-1,0.1-1.6c0.1-0.5,0.2-1,0.4-1.5c0.2-0.5,0.4-1.1,0.4-1.1
				c0-0.1,0.1-0.2,0.1-0.2c0,0,0.1,0,0.2,0.1l1.5,0.4c0.1,0,0.2,0.1,0.1,0.2l-0.1,0.6c0,0.1-0.1,0.2-0.2,0.2L151.9,93.9z"/>
		</g>
		<g>
			<path fill="#FFFFFF" d="M41.6,146.5c0.1,0,0.2,0,0.3-0.1l4.2-6l-7.8,4.4c-0.1,0-0.2,0-0.3,0l-0.3-0.3c-0.1-0.1-0.1-0.2-0.1-0.3
				l2.3-8.5l-4.8,5.2c-0.1,0.1-0.1,0.2,0,0.3l0.5,0.6c0.1,0.1,0.1,0.2,0,0.3l-0.2,0.2c-0.1,0.1-0.2,0.1-0.3,0l-2.3-2.2
				c-0.1-0.1-0.1-0.2,0-0.3l0.2-0.2c0.1-0.1,0.2-0.1,0.3,0l0.7,0.4c0.1,0.1,0.2,0,0.3,0l5.4-6c0.1-0.1,0.1-0.2,0-0.3l-0.5-0.6
				c-0.1-0.1-0.1-0.2,0-0.3l0.2-0.2c0.1-0.1,0.2-0.1,0.3,0l2.4,2c0.1,0.1,0.1,0.2,0.1,0.3l-1.9,7.4l6.6-3.6c0.1,0,0.2,0,0.3,0
				l2.3,1.9c0.1,0.1,0.1,0.2,0,0.3l-0.2,0.2c-0.1,0.1-0.2,0.1-0.3,0.1l-0.7-0.4c-0.1,0-0.2,0-0.3,0.1l-4.6,6.5c-0.1,0.1,0,0.2,0,0.3
				l0.5,0.6c0.1,0.1,0.1,0.2,0,0.3l-0.1,0.2c-0.1,0.1-0.2,0.1-0.3,0l-3-2.2c-0.1-0.1-0.1-0.2,0-0.3l0.1-0.2c0.1-0.1,0.2-0.1,0.3-0.1
				L41.6,146.5z"/>
			<path fill="#FFFFFF" d="M59.2,145.9c0.7,0.4,1.3,0.8,1.9,1.2c0.5,0.5,0.9,1,1.2,1.5c0.3,0.6,0.4,1.2,0.4,1.9
				c0,0.7-0.3,1.5-0.7,2.3c-0.4,0.8-0.9,1.4-1.4,1.9c-0.5,0.5-1.1,0.8-1.8,0.9c-0.6,0.2-1.3,0.2-2,0c-0.7-0.1-2-0.7-2-0.7
				c-0.1,0-0.2-0.1-0.3-0.2l-3.5-1.8c-0.1,0-0.1-0.2-0.1-0.3l0.1-0.2c0-0.1,0.2-0.1,0.3-0.1l0.8,0.2c0.1,0,0.2,0,0.3-0.1l3.7-7.3
				c0-0.1,0-0.2-0.1-0.3l-0.6-0.5c-0.1-0.1-0.1-0.2-0.1-0.3l0.1-0.2c0-0.1,0.2-0.1,0.2-0.1L59.2,145.9z M60.8,150.2
				c0.1-0.6,0.1-1.1,0-1.5c-0.1-0.5-0.4-0.9-0.7-1.2c-0.4-0.4-1.2-0.9-1.2-0.9c-0.1-0.1-0.2-0.1-0.3-0.2l-0.9-0.5l-3.9,7.7l0.9,0.5
				c0.4,0.2,0.8,0.4,1.2,0.5c0.4,0.1,0.8,0.2,1.1,0.2c0.6,0,1.2-0.3,1.7-0.7c0.6-0.4,1.1-1.1,1.5-2
				C60.5,151.4,60.7,150.8,60.8,150.2z"/>
			<path fill="#FFFFFF" d="M76.6,153.1c0-0.3,0-0.4,0-0.6c0-0.3-0.1-0.4-0.4-0.6c-0.1-0.1-0.2-0.1-0.4-0.2c-0.2-0.1-0.5-0.2-0.7-0.2
				c-0.5-0.1-1-0.1-1.4,0c-0.4,0.1-0.8,0.3-1.2,0.6c-0.4,0.3-0.7,0.7-0.9,1.2c-0.3,0.5-0.4,1.1-0.6,1.8c-0.3,1.5-0.2,2.6,0.3,3.5
				c0.5,0.8,1.3,1.3,2.5,1.6c0.3,0.1,0.7,0.1,1.1,0.1c0.3,0,0.7-0.1,1.2-0.1c0.2,0,0.3,0.1,0.3,0.1l0,0.2c0,0,0,0.2-0.2,0.3
				c-0.4,0.2-0.9,0.3-1.4,0.3c-0.6,0.1-1.2,0.1-1.9-0.1c-0.7-0.1-1.3-0.3-1.8-0.6c-0.6-0.3-1-0.7-1.4-1.2c-0.4-0.5-0.6-1.1-0.7-1.7
				c-0.1-0.7-0.1-1.5,0-2.4c0.2-0.9,0.4-1.7,0.8-2.3c0.4-0.6,0.9-1.1,1.4-1.4c0.6-0.3,1.2-0.6,1.9-0.7c0.7-0.1,1.4-0.1,2.2,0.1
				c0.5,0.1,1,0.2,1.5,0.4c0.3,0.1,0.6,0.3,0.9,0.4c0.4,0.2,0.3,0.5,0.3,0.5l-0.4,1.3c0,0-0.1,0.3-0.4,0.3c-0.2,0-0.4-0.1-0.4-0.1
				S76.6,153.5,76.6,153.1z"/>
			<path fill="#FFFFFF" d="M92.1,153.5c-0.1-0.3-0.1-0.4-0.2-0.6c-0.1-0.3-0.2-0.4-0.5-0.5c-0.1,0-0.3-0.1-0.4-0.1
				c-0.2,0-0.5-0.1-0.8,0c-0.5,0-1,0.1-1.4,0.4c-0.4,0.2-0.7,0.5-1,0.9c-0.3,0.4-0.5,0.8-0.6,1.4c-0.1,0.5-0.2,1.2-0.1,1.9
				c0.1,1.5,0.5,2.6,1.1,3.3c0.7,0.7,1.6,1,2.8,0.9c0.4,0,0.7-0.1,1.1-0.2c0.3-0.1,0.7-0.2,1.1-0.4c0.2-0.1,0.3,0.1,0.3,0.1l0.1,0.2
				c0,0,0.1,0.2-0.1,0.3c-0.4,0.2-0.8,0.5-1.2,0.6c-0.6,0.2-1.2,0.3-1.9,0.4c-0.7,0-1.3,0-1.9-0.2s-1.1-0.4-1.6-0.8
				c-0.5-0.4-0.8-0.9-1.1-1.5c-0.3-0.6-0.5-1.4-0.5-2.3c-0.1-0.9,0-1.8,0.3-2.4c0.2-0.7,0.6-1.3,1-1.7c0.5-0.5,1-0.8,1.7-1.1
				c0.7-0.3,1.4-0.4,2.2-0.4c0.5,0,1,0,1.5,0.1c0.3,0.1,0.6,0.1,0.9,0.2c0.4,0.1,0.4,0.4,0.4,0.4l-0.1,1.4c0,0,0,0.3-0.3,0.3
				c-0.2,0-0.4,0-0.4,0S92.2,153.8,92.1,153.5z"/>
			<path fill="#FFFFFF" d="M107.3,150.3c-0.2-0.3-0.2-0.4-0.3-0.6c-0.1-0.3-0.3-0.3-0.6-0.4c-0.1,0-0.3,0-0.4,0
				c-0.2,0-0.5,0-0.8,0.1c-0.5,0.1-0.9,0.3-1.3,0.6c-0.4,0.3-0.6,0.6-0.8,1.1c-0.2,0.4-0.3,0.9-0.3,1.5c0,0.6,0.1,1.2,0.3,1.9
				c0.4,1.4,1,2.4,1.8,3c0.8,0.5,1.8,0.6,2.9,0.3c0.3-0.1,0.7-0.2,1-0.4c0.3-0.2,0.6-0.4,1-0.6c0.2-0.1,0.3,0,0.3,0l0.1,0.2
				c0,0,0.1,0.2,0,0.3c-0.3,0.3-0.7,0.6-1.1,0.9c-0.5,0.3-1.1,0.6-1.8,0.8c-0.7,0.2-1.3,0.3-1.9,0.2c-0.6,0-1.2-0.2-1.7-0.4
				c-0.5-0.3-1-0.7-1.4-1.2c-0.4-0.6-0.8-1.3-1-2.2c-0.3-0.9-0.3-1.7-0.2-2.5c0.1-0.7,0.3-1.4,0.7-1.9c0.4-0.6,0.8-1,1.4-1.4
				c0.6-0.4,1.3-0.7,2-0.9c0.5-0.1,1-0.2,1.5-0.3c0.3,0,0.7,0,1,0c0.4,0,0.5,0.3,0.5,0.3l0.2,1.4c0,0,0,0.3-0.2,0.4
				c-0.2,0.1-0.4,0.1-0.4,0.1S107.4,150.6,107.3,150.3z"/>
			<path fill="#FFFFFF" d="M119.9,147.8l-4.5-2c-0.1,0-0.2-0.1-0.3,0l-0.7,0.2c-0.1,0-0.2,0-0.3-0.1l-0.1-0.2
				c-0.1-0.1,0-0.2,0.1-0.3l3.2-1.8c0.1-0.1,0.2,0,0.3,0.1l0.1,0.2c0.1,0.1,0,0.2,0,0.3l-0.4,0.4c-0.1,0.1-0.1,0.2,0,0.2l3.2,1.5
				l0.4-3.6c0-0.1-0.1-0.2-0.2-0.1l-0.6,0.2c-0.1,0-0.2,0-0.3-0.1l-0.1-0.2c-0.1-0.1,0-0.2,0.1-0.3l2.6-1.5c0.1-0.1,0.2,0,0.3,0.1
				l0.1,0.2c0.1,0.1,0,0.2,0,0.3l-0.6,0.5c-0.1,0.1-0.1,0.2-0.2,0.3l-0.5,4.5l5,2.3c0.1,0,0.2,0.1,0.3,0l0.7-0.2
				c0.1,0,0.2,0,0.3,0.1l0.1,0.2c0.1,0.1,0,0.2-0.1,0.3l-3.2,1.9c-0.1,0-0.2,0-0.3-0.1l-0.1-0.2c-0.1-0.1,0-0.2,0-0.3l0.4-0.4
				c0.1-0.1,0.1-0.2,0-0.2l-3.7-1.8l-0.5,4.2c0,0.1,0.1,0.2,0.2,0.1l0.5-0.2c0.1,0,0.2,0,0.3,0.1l0.1,0.2c0,0.1,0,0.2-0.1,0.3
				l-2.6,1.5c-0.1,0.1-0.2,0-0.3-0.1l-0.1-0.2c-0.1-0.1,0-0.2,0-0.3l0.6-0.5c0.1-0.1,0.1-0.2,0.2-0.3L119.9,147.8z"/>
			<path fill="#FFFFFF" d="M131,134.1c0.1,0.1,0.1,0.2,0,0.3l-0.5,0.6c-0.1,0.1-0.1,0.2,0,0.3l5.4,6.1c0.1,0.1,0.2,0.1,0.3,0
				l0.7-0.4c0.1-0.1,0.2,0,0.3,0l0.2,0.2c0.1,0.1,0.1,0.2,0,0.3l-2.8,2.4c-0.1,0.1-0.2,0.1-0.3,0l-0.2-0.2c-0.1-0.1-0.1-0.2,0-0.3
				l0.5-0.6c0.1-0.1,0.1-0.2,0-0.3l-5.4-6.1c-0.1-0.1-0.2-0.1-0.3,0l-0.7,0.4c-0.1,0.1-0.2,0-0.3,0l-0.2-0.2c-0.1-0.1-0.1-0.2,0-0.3
				l2.8-2.4c0.1-0.1,0.2-0.1,0.3,0L131,134.1z"/>
		</g>
		<g>
			<path fill="#FFFFFF" d="M39.1,38.4c0.1,0,0.2,0,0.3-0.1l1.5-1.6c0.1-0.1,0.1-0.2,0-0.3l-0.2-0.2c-0.1-0.1-0.2-0.1-0.3,0l-0.6,0.4
				c-0.1,0.1-0.2,0.1-0.3,0.1L35,36c-0.1,0-0.1-0.1-0.1-0.2c0,0,0.6-1.2,0.5-1.8c0-0.6-0.3-1.2-0.8-1.7c-0.4-0.4-0.8-0.6-1.2-0.6
				c-0.4-0.1-0.8,0-1.2,0.1c-0.4,0.1-0.7,0.3-1.1,0.6c-0.3,0.3-0.8,0.8-0.8,0.8c-0.1,0.1-0.2,0.2-0.3,0.3l-2.7,2.8
				c-0.1,0.1-0.1,0.2,0,0.3l0.2,0.2c0.1,0.1,0.2,0.1,0.3,0l0.6-0.5c0.1-0.1,0.2-0.1,0.3,0l5.9,5.6c0.1,0.1,0.1,0.2,0,0.3l-0.4,0.7
				c-0.1,0.1,0,0.2,0,0.3l0.2,0.2c0.1,0.1,0.2,0.1,0.3,0l2.5-2.7c0.1-0.1,0.1-0.2,0-0.3l-0.2-0.2c-0.1-0.1-0.2-0.1-0.3,0l-0.6,0.5
				c-0.1,0.1-0.2,0.1-0.3,0l-2.7-2.6l0.4-0.4c0.1-0.1,0.2-0.1,0.3-0.1L39.1,38.4z M32.8,37.4c-0.1,0.1-0.1,0.1-0.1,0.1l-2.9-2.8
				l0.5-0.5c0.1-0.1,0.2-0.2,0.3-0.3c0,0,0.3-0.3,0.5-0.5c0.2-0.2,0.5-0.3,0.7-0.3c0.2,0,0.5,0,0.7,0c0.2,0.1,0.5,0.3,0.8,0.5
				c0.6,0.6,0.9,1.1,0.8,1.6c0,0.5-0.7,1.4-0.7,1.4c-0.1,0.1-0.2,0.2-0.2,0.3L32.8,37.4z"/>
		</g>
	</g>
</g>
</svg>
