<?xml version="1.0" encoding="utf-8"?>
<!-- Generator: Adobe Illustrator 25.4.1, SVG Export Plug-In . SVG Version: 6.00 Build 0)  -->
<svg version="1.1" id="Layer_1" xmlns="http://www.w3.org/2000/svg" xmlns:xlink="http://www.w3.org/1999/xlink" x="0px" y="0px"
	 viewBox="0 0 83 78.9" style="enable-background:new 0 0 83 78.9;" xml:space="preserve">
<style type="text/css">
	.st0{fill-rule:evenodd;clip-rule:evenodd;}
	.st1{fill-rule:evenodd;clip-rule:evenodd;fill:#BE2B31;}
	.st2{fill:#BE2B31;}
</style>
<g>
	<path class="st0" d="M48.3,78.6c-0.4-0.2-0.7-0.4-0.9-0.7c-0.4-0.7-2-2.9-2.3-3.4c0-0.1,0-0.2,0-0.2l0.4-0.1c0.5-0.1,0.9-0.5,1.1-1
		c0.2-0.6,0.2-1.3,0-1.8c-0.1-0.4-0.4-0.8-0.8-1c-0.1-0.1-0.3-0.1-0.4-0.2c-0.2,0-0.4-0.1-0.6-0.1c-1.3,0-2.4,0-3.7,0
		c-0.1,0-0.1,0.1-0.1,0.1c0,0.1,0.1,0.1,0.3,0.1c0.2,0.1,0.3,0.4,0.3,0.7l0,6.8c0,0.4-0.3,0.7-0.6,0.7c-0.1,0-0.2,0.2,0.1,0.2
		c0.7,0,1.5,0,2.2,0c0.1,0,0.2,0,0.2-0.1c0-0.1,0-0.1-0.1-0.1c-0.4-0.1-0.5-0.2-0.6-0.6l0-2.7c0-0.1,0-0.5,0-0.6
		c0-0.2,0.7-0.1,0.9-0.1c0.2,0,0.3,0.2,0.5,0.4c0.8,1.2,1.3,2,2,3c0.2,0.3,0.4,0.5,0.7,0.6c0.4,0.2,0.9,0.3,1.4,0.3
		c0,0,0.1,0,0.1-0.1C48.3,78.7,48.4,78.6,48.3,78.6L48.3,78.6z M43.8,73.9c-0.3,0-0.7,0-1-0.1c-0.1,0-0.1-0.1-0.1-0.2
		c0-1.4,0-2.5,0-2.8c0-0.2,0.4-0.2,0.6-0.2c0.6,0,1.3-0.1,1.7,0.2c0.3,0.2,0.4,0.4,0.5,0.6c0.1,0.3,0.1,0.8,0.1,1.1
		c0,0.4-0.3,0.7-0.6,1C44.9,73.7,44.3,73.8,43.8,73.9L43.8,73.9z"/>
	<path class="st0" d="M52.7,62.9c-0.3-0.1-0.5-0.2-0.6-0.5c-0.8-1.6-2.7-6.4-2.7-6.4c-0.3-0.7-0.7-1.7-0.8-2c0-0.1-0.2,0-0.2,0
		c-0.9,2-3.4,7.4-3.7,8c-0.2,0.4-0.5,0.6-0.6,0.7c-0.2,0.1-0.4,0.1-0.4,0.2c0,0.1,0.1,0.1,0.1,0.1c0.3,0,1.3-0.1,2,0
		c0.1,0,0.1-0.1,0.1-0.1c0-0.1-0.2-0.1-0.3-0.2c-0.2-0.2-0.2-0.4-0.2-0.5c0.3-0.8,0.6-1.5,1-2.3c0-0.1,0.1-0.2,0.2-0.2l3.1,0
		c0.1,0,0.1,0,0.1,0.1l0.7,1.8c0.1,0.3,0.2,0.7,0.2,1.1c-0.1,0.2-0.4,0.1-0.4,0.3c0,0.1,0.1,0.1,0.1,0.1c0.8,0,1.5-0.1,2.3,0
		c0.1,0,0.1,0,0.1-0.1C52.8,62.9,52.8,62.9,52.7,62.9L52.7,62.9z M49,59.1l-2.1,0c0,0,0-0.1,0-0.1c0.4-1,0.9-1.9,1.3-2.9
		c0,0,0.1-0.1,0.1,0c0.2,0.4,1,2.6,1.1,2.8C49.5,59,49.4,59.1,49,59.1L49,59.1z"/>
	<path class="st0" d="M69.2,62.9c-0.3-0.1-0.5-0.2-0.6-0.5c-0.8-1.6-2.7-6.4-2.7-6.4c-0.3-0.7-0.7-1.7-0.8-2c0-0.1-0.2,0-0.2,0
		c-0.9,2-3.4,7.4-3.7,8c-0.2,0.4-0.5,0.6-0.6,0.7c-0.2,0.1-0.4,0.1-0.4,0.2c0,0.1,0.1,0.1,0.1,0.1c0.3,0,1.3-0.1,2,0
		c0.1,0,0.1-0.1,0.1-0.1c0-0.1-0.2-0.1-0.3-0.2c-0.2-0.2-0.2-0.4-0.2-0.5c0.3-0.8,0.6-1.5,1-2.3c0-0.1,0.1-0.2,0.2-0.2l3.1,0
		c0.1,0,0.1,0,0.1,0.1l0.7,1.8c0.1,0.3,0.2,0.7,0.2,1.1c-0.1,0.2-0.4,0.1-0.4,0.3c0,0.1,0.1,0.1,0.1,0.1c0.8,0,1.5-0.1,2.3,0
		c0.1,0,0.1,0,0.1-0.1C69.4,62.9,69.3,62.9,69.2,62.9L69.2,62.9z M65.6,59.1l-2.1,0c0,0,0-0.1,0-0.1c0.4-1,0.9-1.9,1.3-2.9
		c0,0,0.1-0.1,0.1,0c0.2,0.4,1,2.6,1.1,2.8C66,59,65.9,59.1,65.6,59.1L65.6,59.1z"/>
	<path d="M42,54.4c0.2,0,0.2,0.2,0.2,0.3c0,0.4,0,0.7,0,1.2c0,0.1,0,0.2-0.1,0.2c-0.2,0-0.2-0.5-0.4-0.7c-0.2-0.3-0.8-0.7-1.4-0.7
		c-0.8,0-1.4,0.5-1.4,1.1c0,0.8,0.2,1.1,1.2,1.6c0.7,0.3,2.2,0.8,2.7,1.6c0.3,0.4,0.3,0.9,0.3,1.4c0,0.6-0.2,1.3-0.7,1.8
		c-0.9,1.1-3.2,1-4.4,0.8c-0.2,0-0.4,0.1-0.4-0.1c0-0.6,0-1.1,0-1.7c0-0.2,0.1-0.2,0.1-0.2c0.1,0.1,0.1,0.2,0.1,0.3
		c0.4,0.8,1,1.1,2.2,1.1c0.8,0,1.6-0.4,1.8-1.2c0.2-0.5,0.1-1.1-0.3-1.4c-0.7-0.8-1.7-1.1-2.6-1.5c-0.5-0.2-1.4-0.8-1.4-2.2
		c0-0.6,0.4-1.3,0.8-1.6C39.6,54,41.1,54.2,42,54.4L42,54.4z"/>
	<path d="M56.1,54.4c0.1,0,0.1,0.1,0,0.2c-0.2,0.1-0.4,0.1-0.5,0.4c-0.2,0.5-0.1,1.1-0.1,1.6l0,3.3c0,1.3-0.2,1.8,0.6,2.4
		c0.3,0.2,1.7,0.2,2.1,0.1c0.8-0.1,1.1-0.5,1.2-0.8c0-0.1,0.1-0.2,0.2-0.2c0.1,0,0.1,0.1,0.1,0.2c-0.1,0.4-0.1,0.9-0.1,1.3
		c0,0.1-0.1,0.2-0.2,0.2c-1.6,0.1-4.1-0.1-5.4,0c-0.1,0-0.2,0-0.2-0.1c0-0.1,0.1-0.1,0.2-0.2c0.2-0.1,0.3-0.1,0.5-0.3
		c0.1-0.2,0.1-0.5,0.2-0.7c0.1-2.7,0-5.9-0.1-6.7c0-0.3-0.4-0.3-0.6-0.4c-0.1,0,0-0.2,0.1-0.2C54.2,54.4,55.6,54.4,56.1,54.4
		L56.1,54.4z"/>
	<path d="M17.4,76.8l0-5.4c0-0.2,0-0.3-0.1-0.5c-0.1-0.3-0.2-0.5-0.5-0.6c-0.1-0.1-0.1-0.2,0-0.2c0.7,0,1.2,0,1.8,0
		c0.1,0,0.1,0,0.1,0.1c0,0.2-0.2,0.2-0.3,0.3c-0.2,0.2-0.3,0.3-0.3,0.6c-0.1,1.1,0,6.3,0,6.3c0,0.5,0,0.9,0,1.4
		c0,0.2-0.1,0.2-0.2,0.2c-0.3-0.3-0.7-0.6-1.1-1.1c-1.4-1.3-4.5-4.4-6-5.7c0,0-0.1,0-0.1,0c0,0,0,5,0.1,5.9c0,0.2,0.3,0.5,0.5,0.6
		c0,0,0.1,0,0.1,0.1c0,0,0,0.1-0.1,0.1c-0.7-0.1-1.4-0.1-2.1,0c-0.1,0-0.1-0.1-0.1-0.1c0-0.2,0.4-0.1,0.6-0.6
		c0.2-0.4,0.1-7.6,0.1-7.6l0-0.8c0-0.1,0.1-0.1,0.1,0C10.2,69.6,16.8,76.2,17.4,76.8L17.4,76.8z"/>
	<path d="M67.2,70C67.2,70,67.2,70,67.2,70l0.1,1.5c0,0.3-0.2,0.2-0.3,0c-0.1-0.2-0.2-0.4-0.2-0.5c-0.2-0.3-0.5-0.5-0.9-0.5l-1.6,0
		c-0.2,0-0.3,0.1-0.3,0.3c0,2.6-0.1,6.5,0,7c0.2,0.5,0.5,0.6,0.6,0.6c0.1,0,0.2,0.2-0.1,0.2c-0.6,0-2.5,0-2.5,0
		c-0.2,0-0.2-0.2,0-0.2c0.2-0.1,0.4-0.1,0.5-0.3c0.1-0.2,0.2-0.3,0.2-0.6c0-0.4,0-4.8,0-6.3c0-0.5-0.1-0.6-0.2-0.7
		c-0.3-0.1-1.6-0.1-2.3,0.1c-0.4,0.1-0.6,0.5-0.6,0.9c0,0.1-0.1,0.1-0.1,0.1c-0.1,0-0.1,0-0.1-0.1l0-1.4c0-0.1,0.1-0.1,0.3-0.1
		L67.2,70L67.2,70z"/>
	<path d="M38.6,70.2c0,0.4,0,0.6,0,1c0,0,0,0.1-0.1,0.1c-0.1,0-0.2-0.4-0.5-0.5c-0.6-0.4-1.4-0.2-2.2-0.2c0,0-0.5,0-0.5,0.1
		c0,0,0,2,0,3c0,0,0,0.1,0.1,0.1c0.1,0,2.6,0,2.6,0c0.2,0,0.3-0.2,0.3-0.3c0-0.1,0.2-0.1,0.2,0c0,0.5-0.1,1-0.1,1.5
		c0,0-0.1,0.1-0.1,0c-0.2-0.3-0.5-0.5-0.9-0.5c-0.7,0-1.4,0-2.1,0c0,0-0.1,0-0.1,0.1c0,0.9,0,1.6,0,2.6c0,0.3,0.1,0.6,0.3,0.8
		c0.5,0.3,1.2,0.2,1.7,0.2c0.5,0,1,0,1.3-0.4c0.2-0.2,0.1-0.4,0.3-0.6c0,0,0.1,0,0.1,0c0,0.6,0,0.8,0,1.5c0,0.1-0.1,0.1-0.1,0.1
		s-5.1,0-5.3,0c-0.1,0-0.1-0.2,0-0.2c0.3-0.1,0.6-0.1,0.6-0.7l0-2.7c0-1.4,0.1-2.9,0-4.3c0-0.2-0.1-0.5-0.4-0.6
		c-0.1,0-0.2,0-0.2-0.1c0-0.1,0-0.2,0.2-0.2c1.5,0,3,0,4.5,0C38.5,70,38.6,70,38.6,70.2L38.6,70.2z"/>
	<path d="M32.2,70c0.1,0,0.2,0.1,0.1,0.2c-0.2,0.1-0.5,0.2-0.6,0.5c-1.1,2.8-2.3,5.5-3.5,8.2c0,0-0.1,0.1-0.1,0c0,0-2.2-4.8-3.9-8.3
		c-0.1-0.3-0.4-0.3-0.7-0.4c0,0-0.1-0.1,0-0.1c0,0,0-0.1,0.1-0.1c0.5,0,1.6,0,2.2,0c0.1,0,0.1,0,0.1,0.1c0,0.2-0.5,0.2-0.3,0.7
		c0.5,1.2,1.3,3.1,2.7,5.8c0,0.1,0.1-0.1,0.2-0.3c0.7-1.7,1.4-3.4,2.1-5.1c0.1-0.2,0.2-0.7-0.1-0.9c-0.1,0-0.2-0.1-0.2-0.2
		c0,0,0-0.1,0.1-0.1C31,70,31.5,70,32.2,70L32.2,70z"/>
	<path d="M22.7,70c0.1,0,0.1,0.2,0,0.2c-0.4,0-0.6,0.3-0.6,1c0,0.9,0,6,0,6c0,0.4,0.1,0.8,0.2,0.9c0.2,0.3,0.5,0.2,0.5,0.4
		c0,0,0,0.1-0.1,0.1c-0.8-0.1-1.6,0-2.3,0c-0.1,0-0.1-0.1-0.1-0.1c0-0.2,0.3-0.1,0.4-0.2c0.1-0.1,0.2-0.3,0.2-0.5
		c0.1-3.4,0.1-4.6,0-7.1c0-0.5-0.6-0.6-0.8-0.7c0,0,0-0.2,0.1-0.2C21.1,70,21.9,70,22.7,70L22.7,70z"/>
	<path d="M21.2,54.4c0.1,0,0.1,0.1,0.1,0.1c0,0.1,0,0.1-0.1,0.1c-0.5,0.2-0.6,0.7-0.6,1.2c0,1.4,0,2.9,0,4.3c0,0.8-0.2,1.5-0.6,2
		c-0.4,0.4-1,0.9-1.9,1c-0.7,0.1-1.3,0.2-2,0.1c-1-0.2-1.3-0.3-1.9-0.9c-0.5-0.5-0.6-1.2-0.7-2.1l0-4.8c0-0.4-0.1-0.7-0.5-0.9
		c0,0,0-0.1,0-0.1c0-0.1,0.2,0,0.4,0c0.7,0,1.3,0,2,0c0,0,0.1,0,0.1,0.1c0,0.1-0.2,0.1-0.2,0.1c-0.6,0.3-0.4,0.9-0.5,1.4l0,3
		c0,1.2-0.2,2.7,1.1,3.3c0.5,0.2,1,0.2,1.4,0.2c1.9,0,2.5-1.2,2.5-2c0.1-1.3,0-4.8,0-5.1c-0.1-0.4-0.5-0.7-0.8-0.9
		c0-0.1,0-0.2,0.1-0.2C19.5,54.4,20.9,54.4,21.2,54.4L21.2,54.4z"/>
	<path class="st0" d="M27.1,54.4c-1.3-0.1-2.8,0-4.1,0c-0.1,0-0.3,0-0.3,0.1c0,0.2,0.2,0.1,0.3,0.2c0.2,0.1,0.5,0.4,0.5,1
		c0,0.5,0,4.7,0,5.5c0,0.6,0.1,1.6-0.6,1.8c-0.1,0-0.2,0.1-0.2,0.1c0,0.1,0,0.1,0.1,0.1c0.5,0,1.5-0.1,2.4,0c0.1,0,0.1,0,0.1-0.1
		c0-0.1-0.2-0.1-0.3-0.2c-0.3-0.2-0.3-0.7-0.3-1c0-1,0-1.8,0-2.7c0-0.2,0.1-0.2,0.2-0.2c3.3,0.3,3.8-1.3,3.8-2.5
		C28.6,55.5,28.2,54.5,27.1,54.4L27.1,54.4z M26.5,58.3c-0.3,0-1.1,0-1.5,0c-0.1,0-0.2-0.2-0.2-0.2c0-1-0.1-2.1,0-3
		c0-0.1,0.2-0.1,0.3-0.1c0.7,0,1.2-0.1,1.7,0c0.2,0,0.5,0.2,0.6,0.4c0.2,0.4,0.2,0.8,0.2,1.2C27.7,57.5,27,58.3,26.5,58.3L26.5,58.3
		z"/>
	<path class="st0" d="M34.6,54.4c-1.3-0.1-2.8,0-4.1,0c-0.1,0-0.3,0-0.3,0.1c0,0.2,0.2,0.1,0.3,0.2c0.2,0.1,0.5,0.4,0.5,1
		c0,0.5,0,4.7,0,5.5c0,0.6,0.1,1.6-0.6,1.8c-0.1,0-0.2,0.1-0.2,0.1c0,0.1,0,0.1,0.1,0.1c0.5,0,1.5-0.1,2.4,0c0.1,0,0.1,0,0.1-0.1
		c0-0.1-0.2-0.1-0.3-0.2c-0.3-0.2-0.3-0.7-0.3-1c0-1,0-1.8,0-2.7c0-0.2,0.1-0.2,0.2-0.2c3.3,0.3,3.8-1.3,3.8-2.5
		C36.1,55.5,35.7,54.5,34.6,54.4L34.6,54.4z M33.9,58.3c-0.3,0-1.1,0-1.5,0c-0.1,0-0.2-0.2-0.2-0.2c0-1-0.1-2.1,0-3
		c0-0.1,0.2-0.1,0.3-0.1c0.7,0,1.2-0.1,1.7,0c0.2,0,0.5,0.2,0.6,0.4c0.2,0.4,0.2,0.8,0.2,1.2C35.2,57.5,34.5,58.3,33.9,58.3
		L33.9,58.3z"/>
	<path d="M8.3,70.1c0.1,0,0.1,0.1,0.1,0.1c0,0.1,0,0.1-0.1,0.1c-0.5,0.2-0.6,0.7-0.6,1.2c0,1.4,0,2.9,0,4.3c0,0.8-0.2,1.5-0.6,2
		c-0.4,0.4-1,0.9-1.9,1c-0.7,0.1-1.3,0.2-2,0.1c-1-0.2-1.3-0.3-1.9-0.9c-0.5-0.5-0.6-1.2-0.7-2.1l0-4.8c0-0.4-0.1-0.7-0.5-0.9
		c0,0,0-0.1,0-0.1c0-0.1,0.2,0,0.4,0c0.7,0,1.3,0,2,0c0,0,0.1,0,0.1,0.1c0,0.1-0.2,0.1-0.2,0.1c-0.6,0.3-0.4,0.9-0.5,1.4l0,3
		c0,1.2-0.2,2.7,1.1,3.3c0.5,0.2,1,0.2,1.4,0.2c1.9,0,2.5-1.2,2.5-2c0.1-1.3,0-4.8,0-5.1c-0.1-0.4-0.5-0.7-0.8-0.9
		c0-0.1,0-0.2,0.1-0.2C6.5,70.1,7.9,70.1,8.3,70.1L8.3,70.1z"/>
	<path d="M53.3,70c0.2,0,0.2,0.2,0.2,0.3c0,0.4,0,0.7,0,1.2c0,0.1,0,0.2-0.1,0.2c-0.2,0-0.2-0.5-0.4-0.7c-0.2-0.3-0.8-0.7-1.4-0.7
		c-0.8,0-1.4,0.5-1.4,1.1c0,0.8,0.2,1.1,1.2,1.6c0.7,0.3,2.2,0.8,2.7,1.6c0.3,0.4,0.3,0.9,0.3,1.4c0,0.6-0.2,1.3-0.7,1.8
		c-0.9,1.1-3.2,1-4.4,0.8c-0.2,0-0.4,0.1-0.4-0.1c0-0.6,0-1.1,0-1.7c0-0.2,0.1-0.2,0.1-0.2c0.1,0.1,0.1,0.2,0.1,0.3
		c0.4,0.8,1,1.1,2.2,1.1c0.8,0,1.5-0.4,1.8-1.2c0.2-0.5,0.1-1.1-0.3-1.4c-0.7-0.8-1.7-1.1-2.6-1.5c-0.5-0.2-1.4-0.8-1.4-2.2
		c0-0.6,0.4-1.3,0.8-1.6C50.9,69.6,52.4,69.7,53.3,70L53.3,70z"/>
	<path d="M58.1,70c0.1,0,0.1,0.2,0,0.2c-0.4,0-0.6,0.3-0.6,1c0,0.9,0,6,0,6c0,0.4,0.1,0.8,0.2,0.9c0.2,0.3,0.5,0.2,0.5,0.4
		c0,0,0,0.1-0.1,0.1c-0.8-0.1-1.6,0-2.3,0c-0.1,0-0.1-0.1-0.1-0.1c0-0.2,0.3-0.1,0.4-0.2c0.1-0.1,0.2-0.3,0.2-0.5
		c0.1-3.4,0.1-4.6,0-7.1c0-0.5-0.6-0.6-0.8-0.7c0,0,0-0.2,0.1-0.2C56.5,70,57.3,70,58.1,70L58.1,70z"/>
	<path d="M73.8,70.2c0,0.4,0,0.6,0,1c0,0,0,0.1-0.1,0.1c-0.1,0-0.2-0.4-0.5-0.5c-0.6-0.4-1.4-0.2-2.2-0.2c0,0-0.5,0-0.5,0.1
		c0,0,0,2,0,3c0,0,0,0.1,0.1,0.1c0.1,0,2.6,0,2.6,0c0.2,0,0.3-0.2,0.3-0.3c0-0.1,0.2-0.1,0.2,0c0,0.5-0.1,1-0.1,1.5
		c0,0-0.1,0.1-0.1,0c-0.2-0.3-0.5-0.5-0.9-0.5c-0.7,0-1.4,0-2.1,0c0,0-0.1,0-0.1,0.1c0,0.9,0,1.6,0,2.6c0,0.3,0.1,0.6,0.3,0.8
		c0.5,0.3,1.2,0.2,1.7,0.2c0.5,0,1,0,1.3-0.4c0.2-0.2,0.1-0.4,0.3-0.6c0,0,0.1,0,0.1,0c0,0.6,0,0.8,0,1.5c0,0.1-0.1,0.1-0.1,0.1
		s-5.1,0-5.3,0c-0.1,0-0.1-0.2,0-0.2c0.3-0.1,0.6-0.1,0.6-0.7l0-2.7c0-1.4,0.1-2.9,0-4.3c0-0.2-0.1-0.5-0.4-0.6
		c-0.1,0-0.2,0-0.2-0.1c0-0.1,0-0.2,0.2-0.2c1.5,0,3,0,4.5,0C73.7,70,73.8,70,73.8,70.2L73.8,70.2z"/>
	<path d="M83,70C83,70,83,70,83,70l0.1,1.5c0,0.3-0.2,0.2-0.3,0c-0.1-0.2-0.2-0.4-0.2-0.5c-0.2-0.3-0.5-0.5-0.9-0.5l-1.6,0
		c-0.2,0-0.3,0.1-0.3,0.3c0,2.6-0.1,6.5,0,7c0.2,0.5,0.5,0.6,0.6,0.6c0.1,0,0.2,0.2-0.1,0.2c-0.6,0-2.5,0-2.5,0
		c-0.2,0-0.2-0.2,0-0.2c0.2-0.1,0.4-0.1,0.5-0.3c0.1-0.2,0.2-0.3,0.2-0.6c0-0.4,0-4.8,0-6.3c0-0.5-0.1-0.6-0.2-0.7
		c-0.3-0.1-1.6-0.1-2.3,0.1c-0.4,0.1-0.6,0.5-0.6,0.9c0,0.1-0.1,0.1-0.1,0.1c-0.1,0-0.1,0-0.1-0.1l0-1.4c0-0.1,0.1-0.1,0.3-0.1
		L83,70L83,70z"/>
	<path class="st1" d="M32.3,37.1c-0.4-0.3-0.7-0.5-1.1-0.7c-0.4-0.1-0.9,0-1.1,0.4c-0.3,0.3-0.2,0.7-0.1,1.1
		c0.1,0.2-0.5,0.3-0.5,0.5c-0.2,0.3,0,0.8,0.2,0.9c0.2,0.2,0.4,0.3,0.6,0.5c0.3,0.3,0.7,0.4,1.1,0.6c0.1,0,0.2,0,0.2,0
		c0.1-0.2,0-0.1-0.1-0.3c-0.2-0.3,0.2-0.8,0.3-1c0.2-0.4,0.3-0.9,0.8-1.1c0.2-0.1,0.5,0.1,0.6-0.2C32.9,37.5,32.5,37.4,32.3,37.1
		L32.3,37.1z M30.6,39.4c-0.2,0.1-0.4-0.2-0.6-0.3c0-0.1,0-0.3,0.1-0.4c0.1-0.1,0.3-0.3,0.4-0.2c0.1,0.1,0.3,0.3,0.4,0.3
		C31,39,30.7,39.3,30.6,39.4L30.6,39.4z M31.3,38c-0.1,0.1-0.1,0.3-0.3,0.4c-0.2-0.1-0.3-0.2-0.5-0.4c-0.3-0.3,0-0.6,0.1-0.8
		c0.3-0.2,0.8-0.2,1,0C31.9,37.5,31.4,37.8,31.3,38L31.3,38z"/>
	<path class="st1" d="M39,23.3c-0.2,0.1,0,0.4-0.4,0.4c-0.3,0-0.7-0.2-0.8-0.5c0.1-0.1,0.5-0.2,0.5-0.7c0-0.4-0.1-0.7-0.6-0.8
		c-0.3-0.1-0.7,0-1.1-0.1c-0.1,0-0.4,0-0.5,0.1c-0.1,0.1,0.1,0.1,0.2,0.2c0.1,0.5,0,1.3,0,1.8c0,0.2-0.3,0.2-0.2,0.4
		c0.1,0.2,0.5,0,0.6,0.1c0.1,0,0.2,0.1,0.2,0c0.2-0.1,0-0.3,0-0.4c0-0.1-0.2-0.5,0.4-0.2c0.3,0.2,0.5,0.5,0.9,0.6
		c0.2,0,0.6,0.1,0.7-0.1c0.1-0.2,0.2-0.4,0.2-0.7C39.1,23.4,39.1,23.3,39,23.3L39,23.3z M37.5,22.9c-0.1,0.2-0.3,0.2-0.5,0.2
		c-0.2-0.1,0-0.5-0.1-0.6c0-0.1,0-0.2,0-0.3c0.2-0.1,0.4-0.1,0.5,0.1C37.6,22.4,37.6,22.8,37.5,22.9L37.5,22.9z"/>
	<path class="st1" d="M37.4,9.8c-0.1-0.1-0.8,0.1-0.9,0.1c-0.3,0.2-0.1,0.6-0.1,0.9l0,0.9c0,0.3-0.1,0.6-0.2,0.9
		c0.2,0.2,0.4,0,0.6-0.1c0.1-0.1,0.3-0.1,0.3-0.2c0-0.1-0.1-0.1-0.2-0.1c0-0.1-0.1-0.1-0.1-0.2c0-0.2,0.2-0.3,0.3-0.4
		c0.2-0.1,0.7-0.4,0.9-0.3c0.1,0.1,0.1,0.1,0.1,0.3c0,0.2-0.4,0.4-0.1,0.5c0.3,0.1,0.8-0.3,1.1-0.4l0-0.1c-0.3-0.2-0.2-0.1-0.4-0.4
		C38.8,11.3,37.8,10,37.4,9.8L37.4,9.8z M37.6,11.2c-0.1,0.1-0.6,0.3-0.8,0.3c-0.1-0.2-0.1-0.8,0-1.1c0.3-0.1,0.6,0.4,0.8,0.6
		C37.7,11,37.7,11.1,37.6,11.2L37.6,11.2z"/>
	<path class="st1" d="M34.5,12.9c-0.1,0-0.3,0-0.3,0.1c-0.1,0.1-0.1,0.2,0,0.4c0,0.1-0.1,0.3-0.3,0.3c-0.1,0-0.4,0-0.4,0
		c0.1-0.3,0.1-0.8-0.2-1.1c-0.2-0.2-0.4-0.4-0.7-0.3c-0.3,0-0.6,0.1-0.8,0.4c-0.3,0.2-0.6,0.4-0.9,0.7c-0.1,0.1,0,0.2,0.1,0.2
		c0.2-0.1,0.4,0.1,0.6,0.2c0.2,0.3,0.5,0.7,0.8,1c0.2,0.2-0.1,0.5,0.1,0.7c0.1,0.1,0.2,0.1,0.2,0l0.7-0.7c0.1-0.1,0-0.3-0.2-0.2
		c-0.1,0-0.2,0-0.2-0.2c0.3-0.2,0.8-0.1,1.2-0.2c0.2-0.1,0.5-0.3,0.5-0.6C34.8,13.3,34.8,13.1,34.5,12.9L34.5,12.9z M32.7,14
		c-0.2,0-0.5-0.6-0.7-0.7c0-0.1,0.2-0.3,0.3-0.3c0.4-0.3,0.7,0.3,0.7,0.5C33,13.7,32.7,13.9,32.7,14L32.7,14z"/>
	<path class="st1" d="M39.6,40.7c-0.1,0.3-0.2,0.6-0.4,0.9c-0.2,0.3-0.6,0.4-0.9,0.5c-0.5,0.1-0.6-0.2-1,0.2c0,0.1,0,0.2,0.1,0.2
		c0.4,0.2,0.5,0.1,1,0.1c0.3,0.1,0.6,0,1,0c0.3-0.1,0.6-0.2,0.9-0.3c0.3-0.1,0.7-0.5,1.1-0.5l0.9,0.5c0.9,0.2,1.3,0.2,1.9,0.1
		c0.3,0,0.5-0.3,0.6-0.5c0-0.1,0.1-0.3,0-0.3c-0.1-0.1-0.3,0-0.4,0c-0.5-0.1-1-0.1-1.3-0.6c-0.1-0.1-0.2-0.2-0.3-0.4l-0.6,0
		c0.2,0.4,0.5,0.7,0.7,1c0,0.1,0.2,0.1,0.1,0.2c-0.2,0.1-0.6-0.2-0.7-0.3c-0.4-0.2-0.8-0.8-1.5-0.4c-0.2,0.1-0.2,0.1-0.4,0.2
		c-0.1,0.1-0.4,0.4-0.6,0.3l0.3-0.6c0-0.2,0.1-0.3,0.2-0.5L39.6,40.7L39.6,40.7z"/>
	<path class="st1" d="M37.6,38.7C37.7,38.7,37.7,38.7,37.6,38.7c0.5,0.1,1,0,1.5,0.1c0.2,0.2,0.6,0.2,0.7,0.5c0.1,0.1,0.1,0.3,0,0.5
		c-0.1,0.3-0.2,0.6-0.2,0.8l0.6,0c0.1-0.2,0.2-0.5,0.2-0.8c0-0.3,0.1-0.6-0.1-0.8c-0.1-0.1-0.2-0.3-0.3-0.4L37.6,38.7L37.6,38.7z
		 M42,38.7c-0.2,0.3-0.3,0.6-0.3,0.9c0,0.4,0.2,0.8,0.4,1.1l0.6,0c-0.3-0.4-0.4-0.9-0.2-1.4c0.2-0.3,0.5-0.3,0.8-0.3
		c0.4-0.1,0.8-0.2,1.2-0.3L42,38.7L42,38.7z"/>
	<path class="st1" d="M29.6,34.7C29.7,34.7,29.7,34.7,29.6,34.7c0.5,0.6,1.2,1,1.7,1.5c0.8,0.5,1.6,1,2.5,1.4c0.5,0.2,1,0.4,1.5,0.6
		c0.7,0.3,1.5,0.3,2.2,0.6l2.4,0c-0.3-0.3-0.8-0.6-0.9-0.8c0-0.1,0.1-0.1,0.2-0.1c0.4,0,1.3,0.6,1.6,0.3c0.1-0.1,0.2-0.3,0.3-0.2
		c0.2,0.3,0.6,0.2,1,0.2c0.1,0,0.4-0.2,0.6-0.2c0,0,0.1,0.1,0,0.1c-0.3,0.2-0.5,0.5-0.7,0.8l2.4,0c0.6-0.1,1.3-0.3,1.9-0.6
		c0.8-0.2,1.5-0.6,2.3-0.9c0.6-0.4,1.3-0.7,1.9-1.2c0.5-0.4,1-0.8,1.4-1.3l-0.8,0c-0.6,0.6-1.4,1-2.1,1.4c-1,0.6-2,1.1-3.1,1.5
		c-0.6,0.3-1.4,0.4-2,0.7c-0.2,0-0.4,0-0.5-0.1c0-0.1-0.1-0.2,0-0.3c0.2-0.2,0.5-0.1,0.7-0.5c0-0.2-0.1-0.3-0.3-0.3
		c-0.3-0.1-0.6,0.1-0.9,0.1c-0.3,0.1-0.6,0.3-1.1,0.1c-0.1-0.1-0.2-0.2-0.3-0.3l0-0.1c0.3,0.1,0.6-0.1,1,0c0.6,0,1.1-0.2,1.7-0.1
		c1-0.1,1.8-0.3,2.6-0.7c0.8-0.4,1.6-0.8,2.4-1.4c0,0,0,0,0,0l-1,0c-0.6,0.3-1.2,0.7-1.8,1l-1.3,0.4l-0.4,0.1l-3.1,0.3
		c-0.4,0.1-0.8,0-1.1,0c-0.5-0.1-1.1-0.1-1.6-0.2c-1.8-0.2-3.5-0.6-5-1.5l-1.1,0c0.7,0.5,1.4,1,2.2,1.2c0.8,0.3,1.7,0.5,2.6,0.7
		c1.1,0.2,2.3,0.3,3.5,0.4l0,0c-0.4,0.1-0.4,0.8-0.9,0.6c-0.5-0.2-0.9-0.4-1.4-0.6c-0.2,0-0.7-0.1-0.8,0.1c-0.1,0.1-0.1,0.3-0.1,0.5
		c0,0.1,0.1,0.1,0.2,0.1c0.1-0.1,0.3,0,0.4,0c0.1,0,0.1,0.1,0,0.2c-0.4,0.3-0.9,0-1.3,0c-0.6-0.2-1.2-0.2-1.7-0.5
		c-0.4-0.1-0.7-0.3-1-0.4c-0.8-0.4-1.6-0.8-2.3-1.3c-0.5-0.3-1-0.7-1.5-1.1L29.6,34.7L29.6,34.7z"/>
	<path class="st1" d="M25.3,26.7c0.2,0.7,0.4,1.4,0.7,2.1c0.3,0.5,0.5,1.2,0.8,1.7c0.9,1.4,1.8,2.8,2.8,4.2l1.1,0
		c-0.5-0.5-1-1-1.3-1.6c-0.9-1.1-1.6-2.4-2.2-3.7c-0.1-0.4-0.4-0.8-0.6-1.3c-0.2-0.5-0.4-1-0.5-1.5L25.3,26.7L25.3,26.7z M27.3,26.7
		l0.2,0.9c0.2,0.6,0.5,1.2,0.7,1.9c0.3,1,1.1,1.8,1.7,2.7c0.5,0.7,1.2,1.3,1.8,2c0.3,0.2,0.6,0.4,0.9,0.6l1.1,0
		c-0.2-0.1-0.4-0.3-0.6-0.4c-0.8-0.6-1.7-1.3-2.3-2.1c-0.5-0.5-0.9-1.1-1.3-1.7c-0.4-0.4-0.6-1-0.9-1.5c-0.3-0.8-0.5-1.5-0.6-2.4
		L27.3,26.7L27.3,26.7z M30.9,26.7c0.2,0.4,0.5,0.9,0.7,1.3c0.4,0.7,1.1,1.4,1.6,2c0.4,0.4,0.9,0.8,1.3,1.1c1.2,1,2.7,1.4,4.1,1.9
		c0.8,0.2,1.6,0.3,2.5,0.4c0.8,0,1.5-0.1,2.2-0.2c0.3,0,0.5-0.1,0.8-0.2c0.6-0.1,1.1-0.4,1.7-0.6c0.6-0.3,1.2-0.7,1.9-1
		c0.8-0.5,1.3-1.4,2-2c0.3-0.6,0.9-1,1.1-1.6c0.2-0.4,0.4-0.7,0.6-1.1l-0.7,0c-0.2,0.3-0.4,0.6-0.6,0.9c-0.3,0.1-0.5-0.2-0.6-0.4
		c-0.1-0.2-0.3-0.3-0.4-0.5l-0.9,0c0.3,0.3,0.7,0.7,1,1c0.2,0.3,0.5,0.6,0.3,1c-0.3,0.6-0.9,1-1.4,1.5c-0.1,0.1-0.2,0.1-0.3,0.1
		c-0.4-0.7-0.7-1.4-1.1-2.2c-0.2-0.3-0.3-0.7-0.5-1c-0.1-0.1-0.1-0.3-0.2-0.4l-0.7,0c0.1,0.2,0.2,0.4,0.3,0.6
		c0.3,0.5,0.5,1.1,0.8,1.7c0.3,0.5,0.6,1.1,1,1.6c0,0.1,0,0.1,0,0.2c-0.4,0.4-0.9,0.6-1.3,0.7c-0.4,0.1-0.7,0.3-1.1,0.3
		c-0.1,0-0.2-0.1-0.2-0.2c-0.2-1.3-0.3-2.6-0.5-3.9c0-0.3-0.1-0.6-0.1-0.9l-1.5,0l0.2,0.1c0.3,0.3,0.8,0.5,0.8,1
		c0.2,0.6,0.2,1.3-0.1,1.8c-0.2,0.6-0.6,1.2-1.2,1.5c-0.5,0.3-1.7,0.4-2.2,0c-0.8-0.5-1.2-2.3-0.8-3.1c0.2-0.4,0.6-0.9,1.2-1.2
		l-1.4,0c-0.7,0.7-1.1,1.6-1.1,2.5l-0.1,0.9c-0.3,0.3-0.3,0.8-0.6,1.1c-0.4,0.1-0.8-0.3-1.1-0.5c-0.2-0.2-0.2-0.6-0.1-0.9
		c0.2-0.6,0.8-1.1,1-1.8c0.3-0.5,0.4-1,0.7-1.4l-0.6,0c-0.2,0.5-0.5,1.1-0.8,1.6c-0.2,0.3-0.3,0.7-0.5,1c-0.2,0.2-0.2,0.6-0.6,0.7
		c-0.6-0.2-1-0.6-1.4-1.1c-0.1-0.5,0.2-0.9,0.5-1.3c0.2-0.3,0.5-0.6,0.7-0.9l-0.7,0c-0.2,0.2-0.3,0.4-0.5,0.5
		c-0.2,0.1-0.4,0.4-0.7,0.3c-0.2-0.2-0.4-0.5-0.6-0.9L30.9,26.7L30.9,26.7z M54.3,26.7c0,0.1,0,0.1,0,0.2c-0.2,0.5-0.3,1-0.5,1.4
		c-0.3,0.5-0.4,1-0.7,1.5c-0.4,0.6-0.7,1.2-1.2,1.7l-0.6,0.7c-0.6,0.4-1,1-1.6,1.4c-0.3,0.2-0.6,0.5-1,0.7c-0.2,0.1-0.4,0.2-0.6,0.4
		l1,0c0.4-0.3,0.8-0.7,1.3-1c0.9-1,2.1-1.9,2.7-3c0.7-0.9,1.2-2,1.7-3.1c0.2-0.3,0.3-0.7,0.4-1L54.3,26.7L54.3,26.7z M56.1,26.7
		c-0.1,0.2-0.1,0.4-0.2,0.5c-0.4,1-0.8,2-1.4,2.9c-0.5,1-1.2,1.9-1.8,2.8c-0.4,0.6-1,1-1.5,1.5c-0.1,0.1-0.2,0.2-0.2,0.3l0.8,0
		c0.3-0.3,0.6-0.7,0.9-1c0.3-0.4,0.6-0.8,1-1.2c0.5-0.7,1-1.4,1.4-2.1c0.2-0.4,0.5-0.9,0.7-1.3c0.4-0.7,0.7-1.6,0.9-2.4L56.1,26.7
		L56.1,26.7z M38.3,30.8c0.3,0.6,0.9,0.7,1.4,1c0.4,0.1,0.8,0.3,1.2,0.3c0.1,0,0.1,0.2,0.1,0.2c-0.1,0.3-0.6,0.1-0.9,0.2
		c-0.5-0.2-1-0.2-1.5-0.4c-0.4-0.1-0.8-0.2-1.1-0.5c-0.1,0,0-0.1,0-0.2c0.1-0.3,0.2-0.6,0.4-0.8c0-0.1,0.1-0.2,0.1-0.2L38.3,30.8
		L38.3,30.8z M44,30.3c0.1,0.6,0.2,1.1,0.2,1.7c0,0.1-0.1,0.2-0.2,0.3c-0.3,0.2-0.7,0.2-1,0.3c-0.4,0-0.8,0.2-1.1,0
		c-0.1-0.2-0.1-0.4,0-0.5c0.4-0.3,0.9-0.3,1.3-0.7c0.4-0.3,0.5-0.7,0.7-1C43.9,30.1,44,30.2,44,30.3L44,30.3z"/>
	<path class="st1" d="M24.9,24.7c0.1,0.7,0.2,1.3,0.4,2l0.7,0c-0.2-0.7-0.4-1.3-0.5-2L24.9,24.7L24.9,24.7z M26.9,24.7
		c0,0.1,0,0.2,0,0.2c-0.1,0.3,0.3,1,0.3,1.2l0.1,0.6H28c0-0.1,0-0.1,0-0.2c-0.1-0.4-0.2-0.7-0.2-1.1c0.1-0.4,0.5-0.2,0.7-0.2
		c0.2,0,0.4-0.1,0.7-0.1c0.4,0.1,1-0.2,1.2,0.3c0.1,0.5,0.3,0.9,0.5,1.3l1.2,0c-0.1-0.3-0.2-0.6-0.2-0.8c0-0.2,0-0.4,0.2-0.4
		c0.5-0.2,1.1,0.1,1.6,0l0.4,0c0.2,0,0.3,0,0.5,0.2c0,0.2-0.2,0.4-0.3,0.6c-0.1,0.2-0.3,0.3-0.4,0.5l0.7,0c0.2-0.3,0.5-0.6,0.7-0.9
		c0.5-0.5,1.2-0.6,1.9-0.4c0.1,0,0.1,0.1,0.1,0.2c0,0.3-0.2,0.5-0.3,0.7c-0.1,0.1-0.1,0.2-0.2,0.3l0.6,0c0-0.1,0.1-0.1,0.1-0.2
		c0.2-0.4,0.4-0.9,0.9-1.1c0.5-0.2,1-0.1,1.4,0.3c0.1,0.1,0.2-0.1,0.3-0.1c0.2-0.1,0.5-0.1,0.7,0c0.1,0.1,0.2,0.2,0.4,0.2
		c0.3,0,0.5-0.2,0.7-0.3c0.4-0.1,0.9-0.1,1.2,0.1c0.2,0.2,0.2,0.5,0.2,0.8c0,0.1,0,0.2,0,0.2c-0.2,0.1-0.1-0.1-0.5-0.2
		c0,0-0.5-0.2-0.7-0.3c-0.4-0.2-0.8,0-1.3-0.1c-0.6,0.2-1.2,0.2-1.7,0.6c-0.1,0-0.1,0.1-0.2,0.1l1.4,0c0.2-0.1,0.5-0.2,0.7-0.3
		c0.5,0,1,0.1,1.5,0.2l0.1,0h1.5c0-0.1,0-0.3-0.1-0.4c-0.1-0.2,0-0.4,0-0.6c0.2-0.2,0.5-0.1,0.7,0.1c0.2,0.3,0.4,0.6,0.5,0.9l0.7,0
		c-0.2-0.2-0.3-0.5-0.3-0.8c0-0.1,0.1-0.2,0.2-0.2c0.4-0.1,0.8,0,1.2,0l0.3,0.1c0.3,0.3,0.6,0.6,0.9,0.9l0.9,0
		c-0.2-0.2-0.4-0.5-0.7-0.7c-0.1-0.1-0.3-0.3-0.3-0.5l0.1-0.1c0.8,0,1.6-0.2,2.4,0l0.3,0.1l0.1,0.1c0.1,0.4,0,0.7-0.2,1.1l0.7,0
		c0.1-0.2,0.2-0.3,0.2-0.5c0.2-0.4,0.2-0.7,0.5-1.1c0.5-0.2,1.1-0.1,1.6-0.2l0.9,0c0.1,0.1,0,0.3,0,0.5c-0.1,0.4-0.2,0.8-0.3,1.2
		l0.8,0c0.1-0.5,0.3-1,0.4-1.5c0.1-0.1,0.1-0.3,0.2-0.5L26.9,24.7L26.9,24.7z M56.6,24.7C56.6,24.8,56.5,24.8,56.6,24.7
		c-0.1,0.8-0.3,1.4-0.5,2l0.6,0c0-0.1,0.1-0.2,0.1-0.3c0.1-0.5,0.2-1.1,0.3-1.7L56.6,24.7L56.6,24.7z"/>
	<path class="st1" d="M24.6,22.7c0,0.6,0,1.3,0.2,1.9c0,0,0,0.1,0,0.1l0.6,0c0-0.1-0.1-0.2-0.1-0.3c0-0.2-0.1-0.4,0-0.5
		c0.2-0.1,0.4,0.4,0.6,0.2c0.1-0.2,0.5-0.5,0.6-0.2c0.1,0.3,0.2,0.6,0.2,0.8l28.8,0c0-0.2,0-0.4,0.1-0.4c0-0.1,0-0.2,0.1-0.3
		c0.1-0.1,0.3,0.1,0.4,0.1c0.2,0,0.3-0.1,0.4,0c0.1,0.1-0.1,0.4-0.1,0.6l0.5,0c0-0.3,0.1-0.6,0.2-0.9c0.1-0.4,0.1-0.7,0.1-1.1
		l-0.7,0c0,0,0.1,0,0.1,0.1l0.1,0.2c0.1,0.1,0,0.3-0.1,0.4c-0.1,0.1-0.3,0.2-0.4,0.2c-0.2,0-0.3-0.2-0.4-0.3c0-0.1,0.1-0.4,0.1-0.5
		c0,0,0,0,0,0l-1,0c0,0.5,0.2,0.9,0.1,1.4c-0.1,0.1-0.2,0.2-0.3,0.2c-0.3,0.1-0.5,0-0.8,0c-0.8,0-1.7,0.2-2.5,0.1
		c-0.4,0-0.8,0-1.2,0.1c-0.4,0.1-0.8,0-1.2,0.1c-0.4-0.1-0.7,0-1.1,0c-0.6-0.1-1.3-0.1-1.8,0c-1-0.1-2,0-3,0c-0.6-0.1-1.2,0-1.8,0
		c-0.9-0.1-1.8,0.1-2.7,0c-1.5,0-3,0-4.5,0c-0.6,0-1.2-0.2-1.9-0.1c-1-0.1-2.1,0-3-0.3c-0.4,0-0.8,0-1.2,0c-0.1,0-0.1-0.1-0.2-0.2
		c-0.1-0.4-0.2-0.8-0.3-1.2l-1,0c0,0.1,0.1,0.2,0,0.2l-0.3,0.3c-0.1,0.1-0.4,0.1-0.5,0.1c-0.1,0-0.2-0.1-0.2-0.2
		c0-0.1-0.1-0.2-0.1-0.4L24.6,22.7L24.6,22.7z"/>
	<path class="st1" d="M24.7,20.7c-0.1,0.4-0.1,0.9-0.1,1.3c0,0.2,0,0.5,0.1,0.7l0.7,0c0-0.1,0-0.2,0-0.2c0-0.1,0.1-0.2,0.2-0.3
		c0.2,0,0.4,0,0.6,0c0.1,0,0.3,0.3,0.3,0.4h1c-0.1-0.3-0.1-0.6,0-0.9c0.1-0.1,0.2-0.2,0.3-0.3c1,0,2-0.1,3.1,0c0.2-0.1,0.4,0,0.7,0
		c0.7-0.1,1.5,0,2.2,0c0.7-0.1,1.3,0.2,2,0.2c0.6-0.2,1.4-0.1,2-0.1c0.4,0,0.8-0.1,1.1,0c0.4,0.1,0.8,0,1.2-0.1c0.8,0,1.5,0,2.3-0.1
		c0.2,0,0.4,0.1,0.6,0c0.6-0.1,1.2,0,1.7-0.1c1,0.1,2,0,3,0.1c0.3-0.1,0.6,0,0.9,0c1.4-0.1,2.9-0.1,4.3-0.1c0.4-0.1,0.9,0,1.4-0.1
		c0.1,0,0.3,0.1,0.4,0.1c0.2,0.3,0.2,0.7,0.2,1.1c0,0.1,0,0.2,0,0.3l1,0c0.2-0.2,0.5-0.1,0.7,0l0.7,0c0-0.1,0-0.3,0-0.4
		c0-0.5-0.1-1.1-0.1-1.6l-0.6,0c0.1,0.7,0.1,1.5,0.1,1.5S56.6,22,56.5,22c-0.2,0-0.5,0.2-0.6,0.2c0-0.4,0-0.8-0.1-1.2
		c0-0.1-0.1-0.2-0.1-0.3l-1.5,0c0,0-0.1,0-0.1,0.1c-0.4,0-0.7,0-1.1,0.1c-0.4-0.1-0.7,0-1.1,0l0,0c0,0,0-0.1,0-0.1l-0.5,0
		c0,0,0,0.1,0,0.1c-0.1,0.2-0.3,0.1-0.5,0.1c-0.1,0-0.2-0.1-0.3-0.1l-0.5,0c0,0-0.1,0-0.1,0l-0.7,0c0.1,0.1,0.2,0.1,0.3,0.2
		c0,0.1-0.1,0.1-0.1,0.1C49,21,48.6,21,48.3,21c-0.2-0.1-0.4-0.2-0.7-0.2c0,0-0.1,0-0.1,0l-0.7,0c0.1,0.1,0.2,0.1,0.3,0.2
		c0,0.1-0.1,0-0.2,0.1c-0.3,0-0.6,0-0.9-0.1c-0.1,0-0.2-0.1-0.3-0.1l-1.1,0c0,0,0,0,0,0.1c-0.1,0.1-0.3,0.1-0.4,0.1
		c-0.1,0-0.3,0-0.4-0.1c0,0,0-0.1-0.1-0.1l-0.7,0c0,0.1-0.1,0.2-0.2,0.2c-0.1,0-0.3,0-0.4-0.2l-0.5,0c0,0,0,0.1,0,0.1
		c0,0.1-0.2,0.1-0.2,0.1c-0.1,0-0.2-0.1-0.2-0.2l-0.4,0c0,0.1,0,0.3-0.2,0.4c-0.1,0-0.3,0-0.3-0.1c-0.1-0.1-0.1-0.2-0.1-0.3l-0.5,0
		c0,0.2-0.1,0.3-0.3,0.4c-0.2,0-0.4,0-0.6-0.1c0,0,0-0.1,0-0.2c0,0,0.1-0.1,0.1-0.1l-0.6,0c0,0-0.1,0.1-0.1,0.1
		c-0.2,0.2-0.5,0.1-0.7,0.1c-0.1,0-0.1-0.1,0-0.2c0,0,0-0.1,0-0.1l-0.6,0c-0.1,0.1-0.1,0.1-0.1,0.2c-0.4,0.2-0.9,0.2-1.3,0.1
		c-0.1,0-0.1-0.1-0.1-0.2c0,0,0.1-0.1,0.1-0.1l-1.3,0c-0.4,0.1-0.9,0.1-1.3,0h-3c-0.1,0-0.2,0-0.3,0c-0.4,0.1-0.8,0-1.2,0
		c-0.2,0-0.3,0-0.5,0l-1.4,0c-0.1,0.3-0.1,0.7-0.2,1c-0.1,0.1-0.2-0.1-0.4-0.1c-0.1-0.1-0.3-0.3-0.5-0.2c-0.1,0-0.3,0.1-0.3,0.2
		c-0.1,0-0.1,0-0.1-0.1c0-0.3,0-0.6,0.1-0.8L24.7,20.7L24.7,20.7z"/>
	<path class="st1" d="M25.1,18.7C25,19,25,19.2,25,19.5c-0.2,0.3-0.2,0.6-0.2,1c0,0.1,0,0.2-0.1,0.2l0.7,0c0.1-0.5,0.2-1,0.3-1.6
		c0-0.1,0.1-0.3,0.1-0.4L25.1,18.7L25.1,18.7z M27.2,18.7C27.1,19.1,27,19.6,27,20c0,0.2-0.1,0.5-0.1,0.7l1.4,0
		c-0.2,0-0.4-0.1-0.5-0.1c-0.1-0.1-0.2-0.3-0.2-0.5c0-0.5,0.1-1,0.2-1.4L27.2,18.7L27.2,18.7z M30.9,18.7c-0.2,0.6-0.4,1.3-0.6,1.9
		c0,0,0,0.1-0.1,0.1l3,0c0,0,0,0,0,0c-0.1,0,0-0.1,0-0.2c0.7-0.5,1.5-0.7,2.2-1.1c0.5-0.1,0.8-0.4,1.3-0.6c0.1,0,0.2-0.1,0.4-0.2
		l-0.9,0c-0.2,0.1-0.4,0.2-0.5,0.2c-0.7,0.3-1.3,0.5-2,0.9c-0.5,0.2-1,0.6-1.6,0.5c-0.1,0-0.1-0.1-0.1-0.2c0.5-0.5,1.2-0.6,1.8-0.9
		c0.2-0.1,0.7-0.3,1.3-0.5l-1.3,0c-0.5,0.1-1,0.4-1.6,0.4c-0.1,0-0.2-0.1-0.2-0.2c0-0.1,0-0.2,0.1-0.2L30.9,18.7L30.9,18.7z
		 M37.9,18.7c-0.1,0.1-0.2,0.2-0.4,0.3c-0.8,0.7-1.8,1.1-2.6,1.6c-0.1,0-0.2,0.1-0.3,0.1l1.3,0c0.7-0.5,1.4-1.2,2.1-1.7
		c0.1-0.2,0.3-0.2,0.4-0.3L37.9,18.7L37.9,18.7z M38.9,18.7C38.9,18.7,38.8,18.7,38.9,18.7c-0.2,0.3-0.4,0.5-0.5,0.7
		c-0.3,0.4-0.7,0.9-1.1,1.3l0.6,0c0.2-0.3,0.4-0.5,0.7-0.7c0.2-0.3,0.4-0.5,0.5-0.7c0.1-0.1,0.2-0.2,0.2-0.3c0-0.1,0-0.1-0.1-0.1
		c0,0-0.1,0-0.1,0L38.9,18.7L38.9,18.7z M39.8,18.7c0.2,0.1,0.5,0.2,0.7,0.3c0.2,0,0.5,0,0.7,0c0.1,0.1,0.3,0,0.4,0.1
		c0,0.2,0.2,0.4,0.2,0.7c-0.1,0.4,0.1,0.7,0.1,1l0.5,0c0,0,0,0,0-0.1c-0.1-0.4-0.2-0.8-0.3-1.3c-0.1-0.1-0.2-0.3-0.1-0.4
		c0.1-0.1,0.2,0.1,0.3,0.1c0.2,0.6,0.8,1,0.8,1.6c0,0,0,0,0,0l0.7,0c-0.5-0.6-0.8-1.3-1.2-1.9c0-0.1,0-0.1,0.1-0.1L39.8,18.7
		L39.8,18.7z M42.8,18.7c0.1,0.1,0.1,0.2,0.2,0.2c0.3,0.2,0.6,0.6,0.9,0.9c0.3,0.2,0.5,0.5,0.7,0.8c0,0,0,0.1,0,0.1l1.1,0
		c-0.3-0.2-0.6-0.3-0.8-0.5c-0.6-0.4-1-1-1.6-1.5L42.8,18.7L42.8,18.7z M43.8,18.7c0.5,0.2,0.8,0.6,1.3,0.9c0.4,0.3,1,0.4,1.4,0.8
		c0.1,0.1,0.3,0.2,0.4,0.3l0.7,0c-0.6-0.3-1.1-0.7-1.6-1.1c-0.5-0.1-0.9-0.5-1.3-0.8c0,0-0.1,0-0.1,0L43.8,18.7L43.8,18.7z
		 M45.3,18.7c0.1,0,0.1,0.1,0.2,0.1c0.4,0.1,0.8,0.2,1.1,0.5c0.3,0.1,0.5,0.3,0.7,0.4c0.4,0.3,1,0.2,1.4,0.7
		c0.1,0.2,0.3,0.2,0.5,0.3l0.7,0c-0.2-0.1-0.3-0.3-0.5-0.4c-0.2-0.1-0.3-0.2-0.5-0.3c-0.3,0-0.5-0.3-0.8-0.4
		c-0.3-0.2-0.6-0.3-0.9-0.4c-0.3-0.2-0.6-0.3-0.8-0.5L45.3,18.7L45.3,18.7z M47,18.7c0,0,0.1,0,0.1,0l0.2,0c0.2,0.2,0.5,0.1,0.7,0.2
		c0.4,0.1,0.8,0.2,1.1,0.4c0.5,0.1,0.9,0.3,1.4,0.4c0.3,0.2,0.6,0.4,0.8,0.6c0,0.1,0,0.2,0,0.3l0.5,0c0-0.5-0.1-1-0.3-1.4
		c-0.1-0.2-0.2-0.4-0.2-0.6l-0.8,0c0.2,0.1,0.2,0.4,0.2,0.6c0,0.1-0.1,0.1-0.2,0.1c-0.7-0.1-1.4-0.5-2.1-0.7L47,18.7L47,18.7z
		 M54.3,18.7c0,0.1,0.1,0.2,0.1,0.3c0.1,0.5,0.4,0.9,0.4,1.4c0,0.3-0.4,0.3-0.6,0.3l1.5,0c0-0.2,0-0.4-0.1-0.5
		c-0.1-0.5-0.3-1-0.4-1.5L54.3,18.7L54.3,18.7z M56.3,18.7c0.1,0.4,0.2,0.9,0.3,1.3c0,0.2,0.1,0.4,0.1,0.7l0.6,0
		c-0.1-0.6-0.1-1.1-0.3-1.6c0-0.1-0.1-0.3-0.1-0.4L56.3,18.7L56.3,18.7z M39.2,20.7c0.3-0.4,0.6-0.8,0.8-1.2
		c0.1-0.2-0.1-0.3-0.1-0.5C39.8,19,39.8,19,39.7,19c-0.2,0.2-0.2,0.5-0.3,0.7c-0.2,0.4-0.5,0.7-0.7,1L39.2,20.7L39.2,20.7z
		 M40.5,20.7c0-0.1,0.1-0.2,0.1-0.3c0.1-0.3,0.1-0.6,0.2-0.9c0-0.1-0.1-0.2-0.2-0.2c-0.1,0-0.3,0-0.3,0.1c-0.2,0.2,0,0.5-0.1,0.7
		c-0.1,0.2-0.1,0.4-0.2,0.6L40.5,20.7L40.5,20.7z M41.5,20.7C41.5,20.7,41.5,20.7,41.5,20.7c-0.1-0.4,0-0.8,0-1.1
		c0-0.1-0.1-0.3-0.2-0.3c-0.1,0-0.2,0-0.3,0.1c0,0.2-0.1,0.5,0,0.6c0,0.2,0,0.3-0.1,0.5c0,0.1,0,0.1,0,0.2L41.5,20.7L41.5,20.7z"/>
	<path class="st1" d="M25.4,17.5C25.4,17.5,25.4,17.5,25.4,17.5c-0.1,0.5-0.2,0.8-0.3,1.3l0.7,0c0.1-0.3,0.1-0.5,0.2-0.8l0.2-0.5
		H25.4L25.4,17.5z M27.5,17.5c0,0.2-0.1,0.3-0.1,0.4c0,0.3-0.1,0.5-0.2,0.8l0.6,0c0.1-0.4,0.3-0.8,0.4-1.3L27.5,17.5L27.5,17.5z
		 M31.5,17.5c-0.2,0.3-0.3,0.6-0.5,0.8c-0.1,0.1-0.1,0.3-0.2,0.4l1.1,0c0-0.1,0.1-0.1,0.1-0.2c0.3-0.1,0.5-0.2,0.7-0.3
		c0.8,0,2.5-0.5,3.3-0.8l-2,0c-0.4,0.1-0.9,0.1-1.3,0.2c-0.1,0-0.3,0-0.4-0.1c0,0,0-0.1,0-0.1L31.5,17.5L31.5,17.5z M37.5,17.5
		c-0.2,0-0.3,0.1-0.4,0.1c-0.5,0.1-2.8,1-3.3,1.1c0,0,0,0-0.1,0l1.3,0c0.9-0.4,1.9-0.8,2.2-0.9c0.1-0.1,0.6-0.2,0.7-0.3L37.5,17.5
		L37.5,17.5z M38.6,17.5c0.1,0.4,0.3,0.7,0.6,0.9c0.2,0.1,0.4,0.2,0.6,0.3l2.9,0c0,0,0,0,0.1,0c0,0,0.1,0,0.1,0l0.5,0c0,0,0,0,0,0
		c-0.1,0-0.2-0.1-0.2-0.2c0-0.1,0.1-0.1,0.1-0.1c0.2,0,0.3,0.3,0.5,0.3c0,0,0.1,0,0.1,0h0.7c-0.3-0.2-0.7-0.5-1-0.6
		c-0.1-0.1-0.1-0.1-0.1-0.2c0.1-0.1,0.1-0.3,0.2-0.4l-0.4,0c-0.1,0.2-0.2,0.4-0.4,0.6c-0.2,0.2-0.6,0.2-0.9,0.3
		c-0.7,0.2-1.4-0.1-2-0.5c-0.2-0.1-0.3-0.2-0.4-0.4L38.6,17.5L38.6,17.5z M45.2,17.5c0.1,0,0.3,0.1,0.4,0.1c0.7,0.2,1.4,0.2,2.1,0.4
		c0.5,0.1,1,0.3,1.5,0.4c0.4,0.1,0.8,0.2,1.2,0.3c0,0,0,0,0,0l0.8,0c-0.1-0.2-0.2-0.4-0.3-0.6c-0.1-0.2-0.2-0.4-0.3-0.6l-0.7,0
		c0.1,0.2,0.2,0.4,0.3,0.7c0,0.1-0.1,0.1-0.2,0.1c-0.3-0.1-0.7-0.2-1-0.3c-0.5-0.1-0.9-0.3-1.4-0.3c-0.3,0-0.5-0.1-0.8-0.2
		L45.2,17.5L45.2,17.5z M53.8,17.5c0.2,0.4,0.3,0.8,0.5,1.3l0.9,0c-0.1-0.4-0.3-0.8-0.5-1.2L53.8,17.5L53.8,17.5z M56,17.5
		c0.1,0.4,0.3,0.8,0.4,1.3l0.6,0c-0.1-0.4-0.3-0.8-0.4-1.2L56,17.5L56,17.5z M37,18.7c0.3-0.2,0.6-0.4,0.9-0.5
		c0.2-0.1,0-0.3-0.1-0.3c-0.6,0.2-1.1,0.6-1.6,0.8L37,18.7L37,18.7z M38.4,18.7c0,0,0.1-0.1,0.1-0.2c-0.1-0.1-0.2-0.1-0.3-0.1
		c-0.1,0.1-0.2,0.1-0.3,0.2L38.4,18.7L38.4,18.7z M39,18.7c0,0-0.1,0-0.1,0L39,18.7L39,18.7z M46.4,18.7
		C46.4,18.7,46.4,18.7,46.4,18.7c-0.4-0.1-0.8-0.2-1.1-0.4c-0.3,0-0.6-0.2-0.9-0.2c-0.1,0-0.2,0-0.2,0.1c0,0.3,0.4,0.3,0.6,0.4
		c0.2,0,0.3,0.1,0.5,0.2L46.4,18.7L46.4,18.7z M48.4,18.7C48.4,18.7,48.4,18.7,48.4,18.7c-0.6-0.2-1.2-0.4-1.7-0.6
		c-0.5-0.1-1-0.2-1.5-0.4c-0.1,0-0.3,0-0.4,0c-0.1,0-0.1,0.1,0,0.2c0.3,0.2,0.7,0.2,0.9,0.3c0.4,0.2,0.9,0.3,1.3,0.4L48.4,18.7
		L48.4,18.7z"/>
	<path class="st1" d="M25.9,16.2c-0.2,0.4-0.4,0.8-0.5,1.3l0.7,0l0.2-0.7c0.1-0.2,0.2-0.4,0.3-0.6L25.9,16.2L25.9,16.2z M27.9,16.2
		c-0.2,0.4-0.3,0.8-0.4,1.3l0.7,0c0,0,0,0,0,0c0.1-0.4,0.3-0.8,0.4-1.2L27.9,16.2L27.9,16.2z M32.5,16.2c-0.1,0.1-0.2,0.2-0.2,0.3
		c-0.2,0.2-0.4,0.5-0.5,0.7c-0.1,0.1-0.1,0.2-0.2,0.2l0.9,0c0.1-0.2,0.2-0.3,0.4-0.4c0.2-0.2,4.2-0.2,4.3-0.5
		c0.1-0.2-3.9,0.1-3.6-0.3c0,0,0,0,0,0L32.5,16.2L32.5,16.2z M38.5,16.2c0,0.1,0,0.1,0,0.2c0,0.4,0,0.7,0.1,1.1l0.9,0
		c-0.1-0.2-0.2-0.4-0.3-0.7c0-0.2,0-0.4,0.1-0.6L38.5,16.2L38.5,16.2z M39.8,16.2c0,0.1-0.1,0.1-0.1,0.2c-0.1,0.1-0.1,0.4-0.3,0.3
		c-0.2-0.2-0.1-0.3,0-0.5L39.8,16.2L39.8,16.2z M40.5,16.2c-0.1,0-0.1,0.1-0.2,0c0,0,0,0,0,0L40.5,16.2L40.5,16.2z M41.5,16.2
		c0,0.1-0.1,0.3-0.2,0.4c0,0-0.1,0-0.2,0c-0.1-0.2-0.1-0.3-0.1-0.5L41.5,16.2L41.5,16.2z M42.6,16.2C42.6,16.2,42.6,16.2,42.6,16.2
		c0,0.1-0.1,0.3-0.2,0.4c-0.2,0,0-0.3-0.2-0.3c-0.2-0.1-0.2,0.2-0.3,0.1c0,0,0,0-0.1-0.1L42.6,16.2L42.6,16.2z M42.9,16.2
		c0,0.1,0,0.2,0.1,0.3c0.1,0,0.3,0,0.3,0.2c0,0.3,0,0.5-0.1,0.8h0.4c0-0.1,0.1-0.2,0.1-0.3c0.1-0.2,0.3,0,0.4,0
		c0.4,0.1,0.8,0.2,1.2,0.3H47c-0.2-0.1-0.4-0.1-0.6-0.1c-0.4-0.1-0.7-0.2-1.1-0.2c-0.6-0.1-1.2-0.1-1.6-0.6c0-0.1,0-0.2,0.1-0.3
		c0.5,0,1,0,1.5-0.1L42.9,16.2L42.9,16.2z M46.6,16.2c0.2,0,0.4,0,0.6,0l0.6,0c0.1,0,0.1,0,0.2,0L46.6,16.2L46.6,16.2z M48.8,16.2
		c0.2,0,0.3,0,0.5,0.1c0.1,0.1,0.2,0.1,0.2,0.2c-0.6,0.1-1.3,0.2-1.9,0c-0.4,0-0.7,0-1.1,0c-0.3,0.1-0.6-0.2-0.8,0.1
		c0,0.1,0,0.2,0.1,0.2c0.5,0.1,1,0.1,1.6,0.1c0.3-0.1,0.6,0,0.8,0c0.7,0,1.5-0.2,1.9,0.4c0,0,0,0.1,0,0.1l0.7,0
		c-0.1-0.2-0.3-0.4-0.4-0.6c-0.2-0.2-0.4-0.4-0.6-0.6L48.8,16.2L48.8,16.2z M53.3,16.2c0,0.1,0.1,0.2,0.1,0.4
		c0.2,0.3,0.3,0.6,0.4,0.9l0.9,0c0,0,0-0.1-0.1-0.1c-0.1-0.4-0.4-0.8-0.6-1.1L53.3,16.2L53.3,16.2z M55.4,16.2
		c0.2,0.4,0.3,0.8,0.5,1.2c0,0,0,0.1,0,0.1l0.5,0c-0.2-0.4-0.3-0.8-0.5-1.3L55.4,16.2L55.4,16.2z M36.2,17.5c0.1,0,0.2,0,0.2-0.1
		c0.1-0.2,1.6-0.2,1.5-0.5c0-0.1-2.8,0.3-3.1,0.4c-0.2,0-0.4,0.1-0.6,0.1L36.2,17.5L36.2,17.5z M38,17.5C38,17.5,38,17.5,38,17.5
		c0-0.2-0.3-0.1-0.5,0L38,17.5L38,17.5z"/>
	<path class="st1" d="M26.7,14.7c-0.3,0.5-0.6,1-0.8,1.5l0.8,0c0.2-0.5,0.5-1,0.8-1.5L26.7,14.7L26.7,14.7z M28.8,14.7
		c-0.1,0.1-0.2,0.3-0.3,0.4c-0.3,0.3-0.4,0.7-0.6,1l0.7,0c0-0.1,0-0.1,0.1-0.2c0.2-0.5,0.5-0.9,0.8-1.3L28.8,14.7L28.8,14.7z
		 M34,14.7c-0.1,0.1-0.2,0.2-0.3,0.3c-0.4,0.4-0.9,0.8-1.2,1.2l1.1,0c0.3-0.3,0.9-0.2,1.4-0.2l2,0.1c0.4,0,0.6,0.1,1,0
		c0.1-0.1,0.2,0,0.2-0.1c0-0.2-0.5-0.1-0.7-0.2c-0.6,0-1.1-0.1-1.7-0.1c-0.5,0-0.9-0.1-1.4-0.1c-0.1,0-0.2-0.1-0.1-0.2
		c0.4-0.4,2.4-0.1,2.8-0.1c0,0,0.1-0.1,0.1-0.1c0-0.1-1.2-0.3-1.7-0.5L34,14.7L34,14.7z M37,14.7c0.2,0.1,0.4,0.2,0.6,0.3l0.3,0.1
		c0.2,0.2,0.6,0.2,0.8,0.3c0.1,0.3-0.2,0.5-0.2,0.8l0.8,0c0.1-0.2,0.2-0.4,0.3-0.7c0.2-0.3,0.5-0.6,0.8-0.8l-1.1,0
		c-0.2,0.2-0.3,0.4-0.6,0.3c-0.2-0.1-0.4-0.2-0.6-0.3L37,14.7L37,14.7z M42.3,14.7c0.1,0.1,0.2,0.1,0.3,0.2c0.2,0.1,0.4,0.3,0.5,0.4
		c0.1,0.1,0,0.2,0,0.2c-0.1,0.1-0.4,0.1-0.3,0.4c0,0.1,0.1,0.2,0.1,0.3l2.4,0c0.4,0,0.8,0,1.3,0l1.3,0c0.3,0,0.6,0,0.8,0l1,0
		c-0.2-0.2-0.3-0.4-0.5-0.6c-0.3-0.3-0.6-0.6-0.9-0.9l-0.8,0c-0.4,0.1-0.7,0.2-1.1,0.3l-0.8,0c-0.3,0-0.7,0-1,0.1
		c-0.4,0-0.7,0.2-1.1,0.3c-0.2-0.1-0.1-0.4-0.3-0.5c0-0.1,0-0.1,0-0.2L42.3,14.7L42.3,14.7z M44.1,14.7c0,0-0.1,0-0.1,0.1
		c0,0-0.1,0.1,0,0.1C44,15,44.1,15,44.2,15c0.2-0.1,0.4-0.2,0.6-0.3L44.1,14.7L44.1,14.7z M52.6,14.7l0.4,0.5c0.1,0.3,0.3,0.6,0.4,1
		l0.8,0c0,0,0,0,0-0.1c-0.2-0.5-0.4-1-0.7-1.4L52.6,14.7L52.6,14.7z M54.7,14.7c0.1,0.2,0.2,0.4,0.3,0.6c0.2,0.3,0.3,0.6,0.5,0.9
		l0.5,0c0-0.1,0-0.1-0.1-0.2c-0.3-0.4-0.4-0.9-0.6-1.3L54.7,14.7L54.7,14.7z M39.5,16.2c0-0.1,0.1-0.1,0.1-0.2c0.1,0,0.3-0.1,0.3,0
		c0,0.1,0,0.1-0.1,0.1L39.5,16.2L39.5,16.2z M40.2,16.2c-0.1-0.1-0.1-0.3-0.3-0.4c-0.1,0-0.2,0-0.3,0c0,0,0-0.1,0-0.2
		c0.2-0.1,0.4-0.1,0.6-0.1l0.1,0.1c0.2,0.1,0.2,0.4,0.1,0.5c0,0,0,0,0,0L40.2,16.2L40.2,16.2z M41.1,16.2c0,0,0-0.1,0-0.1
		c-0.1-0.2-0.2-0.3-0.2-0.5c0,0,0.1-0.1,0.1-0.1c0.2,0,0.4,0.2,0.5,0.4c0,0.1,0,0.2,0,0.3L41.1,16.2L41.1,16.2z M41.8,16.2
		c0-0.1,0-0.2,0-0.2c0-0.2,0.2-0.3,0.3-0.3c0.1,0,0.2,0,0.4,0.1c0.1,0.1,0.1,0.3,0.1,0.4L41.8,16.2L41.8,16.2z M46.3,15.4
		c0.3-0.1,0.7-0.2,1-0.2c0.3,0,0.6-0.2,0.9,0c0.2,0.1,0.5,0.3,0.4,0.5c-0.2,0.2-0.5,0.2-0.8,0.2c-1.2,0-2.4,0.1-3.6,0.1l-0.5,0
		c-0.1,0-0.1-0.1-0.1-0.2c0.2,0,0.4-0.2,0.6-0.2c0.2-0.1,0.4,0,0.6-0.1l0.9-0.1L46.3,15.4L46.3,15.4z"/>
	<path class="st1" d="M28.1,12.7C28.1,12.7,28.1,12.7,28.1,12.7c-0.2,0.5-0.6,0.8-0.9,1.3c-0.2,0.2-0.3,0.5-0.5,0.7l0.8,0
		c0-0.1,0.1-0.1,0.1-0.2c0.3-0.6,0.9-1.1,1.3-1.7c0,0,0.1-0.1,0.1-0.1L28.1,12.7L28.1,12.7z M30.3,12.7c-0.6,0.6-1.1,1.3-1.5,2
		l0.7,0c0.2-0.3,0.4-0.5,0.7-0.8c0.3-0.4,0.5-0.8,0.9-1.1c0,0,0.1-0.1,0.1-0.1L30.3,12.7L30.3,12.7z M37.2,12.7
		c-0.7,0.3-1.4,0.7-2.1,1.1c-0.4,0.2-0.7,0.6-1.1,0.9l1.4,0c-0.1-0.1-0.2-0.1-0.1-0.2c0.4-0.4,1-0.1,1.6,0.2l1.2,0
		c-0.1-0.1-0.3-0.1-0.4-0.1c-0.4-0.3-0.8-0.4-1.3-0.6c-0.1,0,0-0.1,0-0.1c0.1-0.2,0.3,0,0.5,0c0.2,0.1,0.5,0.1,0.7,0.2
		c0.3,0.2,0.7,0.3,1,0.4c0.1,0,0.1-0.1,0.1-0.1c0-0.1-0.1-0.2-0.1-0.2c-0.2,0-0.3-0.2-0.5-0.2c-0.2-0.2-0.4-0.3-0.6-0.5
		c-0.1-0.1-0.1-0.2,0-0.2c0.1-0.1,0.2-0.2,0.3-0.2c0.4-0.1,0.5,0.3,0.8,0.4c0.4,0.2,0.5,0.7,0.9,1l0,0.1c0,0-0.1,0.1-0.1,0.1l1.1,0
		c0,0,0,0,0.1,0c0.5-0.2,1.1-0.2,1.6-0.1c0.1,0,0.2,0.1,0.3,0.1l1.1,0c0,0,0.1-0.1,0.1-0.1c0.6-0.6,1.4-1.4,2.3-0.9l0.1,0.1
		c0,0.2-0.3,0.2-0.4,0.3c-0.5,0.2-0.9,0.4-1.4,0.6l0.7,0c0.4-0.2,0.7-0.3,1.1-0.5c0.6-0.2,1.3,0,1.8,0.4c0,0,0,0.1,0,0.1
		c0,0,0,0,0,0l0.8,0c-0.1-0.1-0.2-0.2-0.4-0.3c-0.4-0.4-0.9-0.6-1.4-0.9c-0.4-0.2-0.9-0.3-1.4-0.6c-0.2-0.1-0.4-0.2-0.5-0.2l-2.2,0
		c0,0,0,0,0,0c0,0.4-0.2,0.7-0.3,1.1c0,0-0.1,0.1-0.1,0.1c-0.2-0.4,0.1-0.8,0.1-1.2c0,0,0,0,0,0l-0.5,0c0,0.3-0.1,0.6-0.1,0.8
		c-0.1,0.1,0,0.4-0.2,0.5c-0.2,0.1-0.5,0.1-0.8,0l-0.1-0.1c-0.1-0.4,0-0.8-0.1-1.1c0,0,0-0.1,0-0.1L37.2,12.7L37.2,12.7z M41,12.7
		C41,12.7,41,12.8,41,12.7c0,0.3-0.1,0.6,0.1,0.8c0.1,0,0.2-0.1,0.2-0.2l0-0.4l0.1-0.2H41L41,12.7z M50.8,12.7
		c0.6,0.5,1.1,1.2,1.6,1.7l0,0.1l0.1,0.1h0.9c0-0.1-0.1-0.1-0.1-0.2c-0.2-0.2-0.4-0.5-0.5-0.8c-0.3-0.3-0.5-0.7-0.8-1L50.8,12.7
		L50.8,12.7z M53.5,12.7c0.3,0.4,0.5,0.8,0.8,1.2c0.1,0.3,0.3,0.5,0.4,0.8l0.6,0c0-0.1-0.1-0.1-0.1-0.2c-0.2-0.3-0.2-0.6-0.4-0.9
		c-0.1-0.3-0.3-0.6-0.5-0.8c-0.1,0-0.1-0.1-0.1-0.1L53.5,12.7L53.5,12.7z M39.8,13.4c0-0.2-0.2-0.4,0-0.6c0,0,0.1-0.1,0.1-0.1
		c0.1,0,0.2,0,0.2,0.1c-0.1,0.4,0,0.8,0.1,1.1c0,0.1-0.2,0.2-0.3,0.2c-0.3,0-0.3-0.3-0.5-0.4c-0.2-0.2-0.4-0.5-0.7-0.7
		c0-0.1,0-0.1,0-0.2c0.1-0.1,0.2-0.1,0.3-0.1l0.1,0.1c0.2,0.3,0.3,0.7,0.6,0.8c0.1,0,0.2,0,0.2-0.1C40,13.6,39.8,13.5,39.8,13.4
		L39.8,13.4z M43.2,13.8c0,0,0.1,0,0.2,0c0.3-0.3,0.5-0.9,1-0.8c0.1,0.1,0.2,0.1,0.2,0.2c0,0.2-0.1,0.1-0.2,0.2
		c-0.4,0.4-0.8,0.7-1.3,1.1c-0.1,0.1-0.2-0.1-0.3-0.1c-0.3-0.4,0-0.8,0.1-1.2c0.1-0.2,0.2-0.5,0.5-0.5c0.1,0,0.2,0,0.3,0.1l0,0.1
		c-0.2,0.2-0.4,0.4-0.5,0.7C43.1,13.7,43.2,13.7,43.2,13.8L43.2,13.8z"/>
	<path class="st1" d="M29.9,10.7c-0.1,0.1-0.1,0.1-0.2,0.2c-0.3,0.4-0.6,0.7-1,1c-0.2,0.3-0.5,0.5-0.7,0.8l0.9,0
		c0.5-0.6,1.2-1.1,1.6-1.7c0.1-0.1,0.3-0.2,0.4-0.3L29.9,10.7L29.9,10.7z M33.1,10.7c-0.5,0.3-1,0.6-1.5,0.8
		c-0.5,0.3-0.9,0.8-1.3,1.2l0.9,0c0.6-0.4,1.1-0.9,1.7-1.1c0.3-0.2,0.7-0.4,1-0.6c0.1-0.1,0.3-0.1,0.4-0.2L33.1,10.7L33.1,10.7z
		 M48.3,10.7c0.1,0,0.1,0.1,0.2,0.1c0.8,0.4,1.3,1.2,2,1.7c0.1,0.1,0.2,0.1,0.3,0.2l1.2,0c-0.1-0.1-0.1-0.1-0.2-0.2
		c-0.4-0.2-0.6-0.6-1-0.8c-0.5-0.3-0.9-0.7-1.3-1L48.3,10.7L48.3,10.7z M51.5,10.7c0.3,0.3,0.6,0.6,0.9,0.8c0.4,0.3,0.8,0.7,1.1,1.2
		l0.6,0c-0.3-0.3-0.4-0.6-0.7-0.8c-0.3-0.4-0.7-0.8-1.1-1.2L51.5,10.7L51.5,10.7z M40.5,12.7c0,0,0-0.1,0-0.1
		c0.1-0.1,0.2-0.1,0.2-0.1c0.1,0,0.2,0.1,0.2,0.2l0.4,0l0.1-0.2c0.1,0,0.2,0,0.2,0.1c0,0,0,0.1,0,0.1l0.5,0c0-0.1,0.1-0.1,0.1-0.1
		c0.1,0,0.1,0.1,0.2,0.1l2.2,0c-0.3-0.1-0.5-0.1-0.7-0.2c-0.6-0.2-1.3-0.3-1.9-0.3l-1.9,0c-0.6,0.1-1.3,0.2-1.9,0.3l-0.7,0.1
		c-0.2,0-0.3,0.1-0.4,0.1L40.5,12.7L40.5,12.7z"/>
	<path class="st1" d="M37.2,6.7c-0.3,0.1-0.6,0.1-0.9,0.2C35.8,7,35.4,7.2,35,7.4c-0.8,0.4-1.7,0.6-2.4,1.2c-0.5,0.3-1,0.8-1.5,1.1
		c-0.4,0.3-0.9,0.6-1.2,1l1.1,0c0.1-0.1,0.2-0.2,0.3-0.3l1.4-1.1c0.5-0.3,1-0.6,1.5-0.9c0.4-0.2,0.8-0.3,1.2-0.5
		c0.2,0,0.4-0.1,0.5,0c0.3,0.5,0.8,0.9,1.4,0.7c0.4-0.1,0.7-0.2,1-0.5c0.1-0.1,0.4-0.4,0.5-0.4c0.2,0,0.4,0.2,0.6,0.2
		c0.5,0,0.7,0,1.1-0.2c0.3-0.1,0.5-0.2,0.7-0.4c0.1,0,0.4,0.2,0.5,0.3C42.3,8,43.1,8,43.5,8.1c0,0,0,0,0,0.1c-0.1,0.1-0.8-0.1-0.9,0
		c-1.1-0.2-2.3,0.1-3.4,0.3c-1,0.3-2,0.4-2.9,0.8c-0.7,0.2-1.4,0.6-2,1c-0.4,0.1-0.8,0.4-1.2,0.6l1.2,0c0.5-0.3,1.1-0.5,1.6-0.7
		c0.3-0.2,0.7-0.3,1-0.5c1.2-0.5,2.6-0.6,3.9-0.8c0.3,0.1,0.5-0.1,0.8-0.1c1,0,2,0.2,2.9,0.4c0.4,0.1,0.7,0.3,1.1,0.4
		c0.5,0.3,1.1,0.5,1.6,0.8c0.4,0.1,0.7,0.3,1,0.6l1.2,0c-0.2-0.1-0.4-0.3-0.6-0.3c-0.7-0.4-1.5-0.7-2.2-1.2
		c-0.4-0.2-0.9-0.4-1.4-0.5c-0.1,0-0.1-0.1,0-0.2c0.2-0.1,0.4-0.1,0.6-0.3c0.2-0.2,0.4-0.3,0.5-0.6c0.6,0.3,1.3,0.6,1.9,0.9
		c0.8,0.3,1.6,0.7,2.3,1.3c0.4,0.2,0.7,0.5,1,0.8l0.7,0c-0.3-0.3-0.6-0.5-0.8-0.8c-0.3-0.2-0.6-0.5-1-0.7c-0.4-0.1-0.8-0.4-1.1-0.6
		c-0.6-0.3-1.1-0.6-1.7-0.9c-0.2-0.1-0.4-0.2-0.6-0.3c-0.4-0.2-0.8-0.5-1.3-0.6C45.5,6.8,45.2,7,45,6.8c0,0,0-0.1,0-0.1l-0.5,0
		c0,0.4,0.2,0.8,0.3,1.2C44.9,8,45,8.1,45.1,8c0.1,0,0.1,0,0.2-0.1c0-0.2-0.1-0.4-0.2-0.6c0-0.1,0.1-0.1,0.1-0.1
		c0.2,0,0.4,0.2,0.6,0.2c0,0,0,0.2,0,0.4c0,0.1-0.2,0.2-0.3,0.3c-0.1,0.1-0.2,0.1-0.3,0.1c-0.4,0-0.7-0.4-1-0.7l-0.2-0.7h-1.2
		C42.8,6.9,42.9,7,43,7.1c0.2,0.2,0.5,0.6,0.1,0.5c-0.5-0.1-1-0.5-1.3-0.9l-0.5,0c-0.3,0.3-0.9,0.7-1.2,0.9c-0.3,0.1,0-0.4,0.2-0.6
		c0.1-0.1,0.1-0.1,0.2-0.3l-0.9,0c0,0,0,0-0.1,0c-0.1,0-0.2,0-0.3,0l-0.2,0c0,0-0.1,0.1-0.1,0.1c0,0.5-0.5,1-0.9,1.2
		c-0.3,0-0.6,0.2-0.9,0C37,7.9,36.9,7.6,37,7.4c0-0.3,0.3-0.3,0.6-0.4c0.1,0,0.2,0,0.3,0.1c0.1,0.3-0.6,0.4-0.3,0.7
		c0.3,0,0.6-0.2,0.8-0.4c0.1-0.2,0.2-0.4,0.2-0.6L37.2,6.7L37.2,6.7z"/>
	<path class="st1" d="M38.6,6.7c0.1-0.4,0-0.8-0.2-1.2c0.1-0.1,0.8,0.2,0.8,0.3c0,0.2,0,0.5,0.2,0.6c0.1,0,0.3-0.1,0.3,0.1
		c0,0.1-0.1,0.1-0.1,0.2l0.9,0c0.2-0.3,0.3-0.7,0.3-1.5c0-1.1-0.8-1.4-1.1-1.4c-0.3,0-0.5,0-0.4-0.2c0.1-0.1,0.6-0.1,1-0.1
		c0.4,0.1,1.2,0.8,1.2,0.8s0.8-0.7,1.2-0.8c0.4-0.1,1.1-0.1,1.2,0c0.1,0.1-0.1,0.1-0.4,0.1c-0.3,0-1.3,0.4-1.3,1.5
		c0,0.7,0.2,1.2,0.3,1.5l1.2,0l0-0.1c-0.1-0.1-0.4,0-0.6-0.1C43.2,6.5,43,6.5,43,6.3C43,6.2,42.9,6,43,6l0.1-0.1
		c0-0.1,0.2-0.1,0.3-0.1c0.2,0,0.3,0.3,0.5,0.3c0.3,0,0.3-0.4,0.5-0.5c0.4-0.3,0.5-0.2,0.8-0.4l0,0v0c-0.4,0.3-0.8,0.5-0.8,0.9
		c0,0.2,0,0.3,0,0.5l0.5,0c0-0.3,0.2-0.5,0.2-0.8c0.2-0.4,0.8-0.1,1.1-0.4c0.1-0.1,0.1-0.3,0.1-0.4c-0.2-0.3-0.5-0.5-0.9-0.5
		c-0.6,0.1-1,0.4-1.5,0.8c-0.3,0.2-0.5-0.1-0.7-0.1C43,5.2,42.9,5,42.9,4.8c0-0.2,0.3-0.4,0.4-0.5c0.4-0.3,0.9-0.2,1.3,0
		c0.1,0,0.3-0.2,0.3-0.3c0-0.2,0-0.4-0.1-0.5c-0.2-0.1-0.3-0.2-0.5-0.2c-0.6-0.1-1.4-0.1-1.9,0.2c-0.3,0.1-0.4,0.5-0.8,0.5
		c-0.3-0.2-0.7-0.3-1-0.5L40,3.1c-0.5-0.1-1,0.2-1.3,0.6c-0.1,0.2-0.2,0.6,0,0.8c0.1,0.1,0.2,0.1,0.3,0.1c0.2,0,0.2-0.2,0.3-0.3
		c0.1-0.1,0.2-0.1,0.3,0c0.2,0,0.4,0.2,0.4,0.4c0.1,0.2-0.1,0.4-0.3,0.6c-0.1,0.1-0.4,0.1-0.6,0.1c-0.6-0.4-1.3-1-2.1-0.6
		c-0.3,0.2-0.8,0.5-0.8,0.9c0.2,0.3,0.4,0,0.7,0c0.4,0,0.7,0,1,0.3c0.1,0.2,0,0.4-0.2,0.6c-0.2,0.1-0.5,0.2-0.7,0.2L38.6,6.7
		L38.6,6.7z M39.2,6.7c-0.1,0-0.1,0-0.2,0L39.2,6.7L39.2,6.7z M41.4,6.7c0.2-0.2,0.3-0.3,0.3-0.4c0,0.1,0.1,0.2,0.2,0.4L41.4,6.7
		L41.4,6.7z M39.6,5.9c0.1-0.2,0.4-0.4,0.6-0.3l0.1,0.1c0,0.1,0,0.4-0.1,0.5c-0.1,0.1-0.4,0.1-0.6,0C39.6,6.1,39.6,6,39.6,5.9
		L39.6,5.9z"/>
	<path class="st1" d="M62.2,21.2c-0.1-0.5-0.1-1-0.1-1.5c-0.2-1.8-0.6-3.5-1.2-5c-0.1-0.4-0.3-0.7-0.5-1c-0.1-0.4-0.3-0.6-0.5-1
		l0-0.1c-0.8-1.1-1.4-2.4-2.4-3.4c-1.1-1.1-2.1-2.4-3.4-3.2c-0.8-0.7-1.7-1.3-2.6-1.8c-0.5-0.2-1-0.5-1.4-0.8
		c-0.5-0.2-1-0.4-1.5-0.6c-0.9-0.4-1.9-0.4-2.7-0.7C45,2,44.4,1.9,43.8,1.9c-0.9-0.1-1.9-0.1-2.8-0.1c-0.7-0.1-1.4-0.1-2.1,0.1
		c-0.4,0-0.8,0.1-1.2,0.2c-0.7,0-1.3,0.3-1.9,0.4c-0.2,0.1-0.4,0.2-0.7,0.2c-0.5,0.2-1.1,0.3-1.7,0.5c-0.4,0.1-0.8,0.4-1.2,0.5
		c-0.3,0.3-0.7,0.3-1,0.6c-1.2,0.5-2.2,1.4-3.3,1.9c-0.9,0.8-2.1,1.4-2.8,2.5c-0.4,0.3-0.6,0.8-0.9,1.1c-0.3,0.4-0.4,0.8-0.7,1.1
		c-0.2,0.6-0.7,1-0.8,1.5c-0.2,0.2-0.2,0.4-0.3,0.6c-0.2,0.4-0.4,0.8-0.6,1.2c-0.1,0.4-0.3,0.6-0.4,1c-0.2,0.4-0.4,0.9-0.5,1.4
		c-0.2,0.3-0.3,0.7-0.3,1c-0.2,1-0.6,1.9-0.6,3c-0.2,0.8,0,1.6-0.1,2.5c-0.2,0.3,0.1,0.5,0,0.8c0.2,0.4,0.1,1,0.2,1.5l0.1,0.1
		c0.1,0.4,0.2,0.9,0.2,1.3c0.1,0.8,0.4,1.5,0.6,2.3c0.4,0.8,0.6,1.8,0.9,2.6c0.3,0.5,0.4,1,0.8,1.5c0.4,0.9,1,1.7,1.5,2.6
		c0.7,0.8,1.4,1.6,2.2,2.3c1,1.1,2.2,1.8,3.3,2.5c1,0.7,2.1,1.1,3.1,1.6c0.6,0.2,1.3,0.5,1.9,0.7c0.6,0.1,1,0.4,1.6,0.5
		c0.4,0,0.8,0.3,1.2,0.3c1.6,0.2,3.2,0.2,4.8,0.1c0.8-0.1,1.6-0.1,2.3-0.3c1.4-0.2,2.7-0.5,4-1c0.7-0.4,1.4-0.7,2.1-0.9
		c1.2-0.6,2.4-1.2,3.4-2.1c0.6-0.4,1.1-0.9,1.7-1.3c0.6-0.8,1.4-1.5,2-2.3c0-0.2,0.2-0.3,0.3-0.5c0.5-0.6,0.9-1.3,1.4-1.9
		c0.2-0.5,0.6-0.8,0.7-1.4c0.2-0.4,0.9-2.5,1.2-3.1c0.2-0.9,0.5-1.8,0.6-2.8c0.1-0.9,0.3-1.8,0.2-2.7C62.1,22.6,62.2,21.9,62.2,21.2
		L62.2,21.2z M61.3,25.6c-0.1,0.2,0,0.4-0.1,0.6c-0.1,0.6-0.2,1.1-0.4,1.6c-0.3,1.3-0.8,2.6-1.3,3.9c-0.3,0.6-0.6,1.2-1,1.7
		c-0.5,0.8-1,1.5-1.6,2.3c-0.2,0.3-0.5,0.5-0.7,0.7c-0.3,0.7-1,1.1-1.6,1.6c-0.6,0.7-1.4,1-2.1,1.6c-0.8,0.6-1.7,0.9-2.5,1.4
		c-0.4,0.2-0.9,0.4-1.3,0.6c-0.3,0.1-0.6,0.3-1,0.4c-0.9,0.3-2,0.4-3,0.6c-0.6,0.2-1.1,0.3-1.7,0.3c-0.5,0.1-1,0.1-1.5,0.1
		c-0.4,0-0.8,0.2-1.2,0c-0.4-0.1-0.9-0.1-1.3,0c-0.9,0-1.7,0-2.5-0.3c-0.7-0.2-1.3-0.4-1.9-0.5c-0.8-0.4-1.6-0.5-2.4-0.9
		c-1-0.4-2-0.9-2.9-1.6c-0.5-0.4-1.2-0.7-1.7-1.2c-0.7-0.5-1.4-1.1-1.9-1.8c-0.3-0.2-0.5-0.6-0.7-0.9c-0.1-0.2-0.3-0.1-0.3-0.3
		c-0.4-0.7-0.8-1.3-1.2-2c-0.2-0.1-0.2-0.4-0.3-0.6c-0.4-0.8-0.9-1.5-1.1-2.4c-0.3-0.5-0.4-1-0.6-1.5c-0.1-0.5-0.2-0.9-0.3-1.4
		c0-0.2-0.2-0.4-0.3-0.6c-0.2-0.9-0.2-1.9-0.4-2.8c-0.1-0.4-0.2-0.8-0.2-1.3c-0.1-0.6-0.1-1.2,0.1-1.7c0-0.8,0.4-1.5,0.5-2.4
		c0.2-0.8,0.4-1.7,0.8-2.5c0-0.3,0.2-0.5,0.2-0.8c0.4-0.8,0.6-1.6,1-2.4c0.3-0.7,0.9-1.3,1.1-2.1c0.2-0.6,0.7-1,1-1.5
		c0.3-0.4,0.7-0.8,1.1-1.1c0.2-0.2,0.5-0.4,0.7-0.6c0.8-0.5,1.4-1.2,2.2-1.6c0.4-0.1,0.6-0.5,1-0.6c0.5-0.4,1.1-0.6,1.6-0.9
		c0.8-0.3,1.5-0.9,2.4-1c0.6-0.2,1.3-0.3,2-0.4C36.4,3,36.9,3,37.3,2.9c0.6-0.1,1.2-0.2,1.8-0.2c0.8-0.2,1.7-0.2,2.6-0.2
		c0.6,0.1,1.2,0,1.9,0.1l1.1,0.2c0.4-0.1,0.7,0.1,1,0.1c1.1,0.1,2.1,0.4,3,0.9c0.5,0.3,1.1,0.5,1.7,0.8c1.2,0.4,2.2,1.2,3.2,2
		c0.4,0.4,0.8,0.8,1.3,1.1c0.9,0.8,1.7,1.7,2.5,2.6c0.3,0.4,0.6,0.8,0.8,1.2c0.5,0.6,0.9,1.3,1.3,2c0.7,1.2,1.1,2.5,1.4,3.9
		c0.7,1.7,0.7,3.7,0.7,5.7C61.4,23.8,61.3,24.7,61.3,25.6L61.3,25.6z"/>
	<path class="st2" d="M45.4,21.8c0.1,0.1-0.1,0.1,0,0.3c0,0.1,0.1,0.3-0.1,0.3c-0.3,0.1-0.2-0.4-0.5-0.3l-0.4,0.1
		c0,0.5,0,1.1-0.1,1.6c0,0.2,0.2,0.1,0.3,0.3c0,0.1,0,0.2-0.1,0.2c-0.1,0-0.2,0-0.3,0c-0.2,0.1-0.5,0.1-0.8,0
		c-0.1-0.1-0.1-0.2-0.1-0.2c0.1-0.1,0.3-0.1,0.3-0.3c0-0.5,0.1-1.1,0-1.5c-0.1-0.1-0.3-0.1-0.4-0.1c-0.2,0-0.1,0.4-0.3,0.4l-0.1-0.1
		l0-0.6l0.1-0.1c0.7,0,1.4,0,2.1,0C45.1,21.7,45.3,21.7,45.4,21.8L45.4,21.8z"/>
	<path class="st2" d="M52,21.9c0,0.2,0,0.4,0,0.6c-0.1,0.1-0.2,0-0.3,0c-0.1,0,0-0.2,0-0.3c-0.1-0.1-0.2-0.2-0.3-0.2
		c-0.1,0-0.4,0.2-0.4,0.3c0,0.5,0.9,0.4,1.1,0.9c0.2,0.4,0.1,0.7-0.1,0.9c-0.3,0.3-0.9,0.3-1.2,0.1c-0.2,0-0.4,0.2-0.6,0l0.2-0.3
		c0.1-0.2,0.1-0.3,0.3-0.5l0.1,0c0.1,0.4,0.2,0.5,0.6,0.5c0.3,0,0.4,0,0.5-0.2c0.1-0.1,0-0.2,0-0.3c-0.3-0.4-1.1-0.3-1.2-0.7
		c-0.1-0.3-0.1-0.7,0.1-0.9c0.3-0.2,1-0.3,1.4-0.1L52,21.9L52,21.9z"/>
	<path class="st2" d="M34.6,21.8c0.1,0.2,0.1,0.4,0,0.6c0,0.1-0.2,0.1-0.3,0.1c-0.2-0.1-0.1-0.3-0.2-0.3c-0.1,0-0.3,0-0.4,0.1
		c-0.1,0.1-0.1,0.3-0.1,0.4c0.1,0.1,0.3,0.1,0.4,0.1c0.2,0.2,0.1,0.1,0.1,0.4c0,0.2-0.3,0-0.4,0c-0.1,0.1-0.1,0.6,0,0.7
		c0.3,0.1,0.6,0,0.8-0.1c0.1-0.1,0.2-0.3,0.3-0.3c0.1,0,0.2,0,0.2,0.1c-0.1,0.2,0,0.5-0.2,0.7c-0.6,0.2-1.3,0-1.9,0
		c-0.1,0-0.1-0.1-0.1-0.2c0.5-0.4,0.3-1.3,0.3-1.9c0-0.2-0.3-0.3-0.2-0.4l0.1,0c0.4,0,0.9,0.1,1.3,0C34.3,21.7,34.5,21.7,34.6,21.8
		L34.6,21.8z"/>
	<path class="st2" d="M41.5,21.9c0,0.1,0,0.2,0,0.2c-0.1,0-0.2,0.1-0.3,0.2c0.1,0.4,0,0.9,0,1.4c0.1,0.1,0.3,0.1,0.3,0.2
		c0.1,0.1,0,0.3-0.1,0.3c-0.2,0.1-0.6,0-0.9,0c-0.1,0.1-0.3,0-0.5,0C40,24.1,40,24.1,40,24c0.1-0.2,0.3-0.1,0.4-0.3
		c0.2-0.4,0-1,0.1-1.4c-0.1-0.2-0.3,0-0.4-0.2c-0.1-0.1-0.2-0.3-0.1-0.3c0.4,0,0.9-0.1,1.4,0C41.5,21.8,41.5,21.8,41.5,21.9
		L41.5,21.9z"/>
	<path class="st2" d="M30.2,21.8c0,0.1,0,0.1-0.1,0.1c-0.1,0-0.1,0-0.1,0.1c0,0.3,0.1,0.7,0.3,0.9c0.1,0,0.2-0.1,0.2-0.2l0.6-0.9
		c-0.2-0.1-0.1-0.3-0.1-0.3c0.2,0,0.7-0.1,0.8,0c0.1,0,0.3-0.1,0.2,0.1c0,0.2-0.2,0.1-0.3,0.3c-0.5,0.7-0.9,1.5-1.3,2.1
		c-0.1,0-0.3,0-0.3-0.1l0-0.2l-0.8-1.7c-0.1-0.1-0.2,0-0.2-0.1C29,21.9,29,21.9,29,21.8c0.1-0.1,0.3-0.1,0.5-0.2
		C29.7,21.7,30.1,21.5,30.2,21.8L30.2,21.8z"/>
	<path class="st1" d="M48.9,23.8c-0.3-0.6-0.7-1.3-1-1.9c0-0.1-0.1-0.2-0.2-0.2c-0.1,0-0.4,0.1-0.4,0.2c-0.1,0.7-0.6,1.4-0.9,2
		c-0.1,0.1-0.2,0.2-0.4,0.3c-0.1,0.1,0,0.1,0,0.2c0.3,0,0.8,0,1.1,0c0,0,0.1,0,0.1-0.1c0-0.1-0.1-0.1-0.1-0.1c0,0,0-0.1,0-0.1
		c0.2-0.4,0.4-0.3,0.7-0.2c0.2,0.1,0.5-0.1,0.5,0.3c0,0.1-0.1,0-0.2,0.1C48,24,48,24,48,24.1c0,0.1,0.1,0.1,0.2,0.1
		c0.3,0,0.6,0,1-0.1C49.3,24.2,49,23.9,48.9,23.8L48.9,23.8z M47.9,23.3c-0.1,0.1-0.5,0.1-0.7,0.1c-0.2,0,0.2-0.5,0.1-0.6
		c0-0.1,0-0.3,0.2-0.3c0.1,0,0.1,0.2,0.1,0.3C47.8,22.8,48,23.1,47.9,23.3L47.9,23.3z"/>
	<path class="st1" d="M49.2,11.7c-0.1-0.2-0.1-0.1-0.3-0.2c-0.3,0.1-0.6,0.3-0.8,0.6c-0.4,0.3-0.7,0.6-1.1,0.7
		c-0.1,0.1-0.3,0-0.4,0.1c0,0,0,0.1,0,0.1c0.1,0.1,0.3,0.2,0.4,0.2c0.2,0.1,0.3,0.4,0.5,0.2c0-0.1-0.1-0.2,0-0.3
		c0.4-0.1,0.6,0.1,0.8,0.3c0.1,0.1,0.1,0.1,0,0.2c-0.1,0-0.3,0.1-0.4,0c0,0-0.1,0-0.1,0.1c0,0.2,0.4,0.4,0.5,0.6
		c0.1,0.2,0.4,0.4,0.6,0.4c0.1,0,0.1-0.1,0.1-0.2c-0.1-0.4-0.2-0.1-0.1-0.4c0.1-0.1,0.2-1.8,0.3-1.9C49.2,12,49.2,11.7,49.2,11.7
		L49.2,11.7z M48.4,13c0,0.1-0.5-0.2-0.6-0.3c0,0,0.3-0.3,0.3-0.3c0.2-0.1,0.2-0.2,0.4-0.3l0,0C48.6,12.3,48.5,12.7,48.4,13L48.4,13
		z"/>
	<path class="st2" d="M42.9,9.3c0,0.2-0.1,0.5-0.1,0.8c0,0.1-0.1,0.1-0.1,0.1c-0.1,0-0.3,0-0.3-0.5c-0.2-0.3-0.6-0.1-0.6,0.2
		c0,0.8-0.2,0.9-0.1,1.5c0.1,0.1,0.1,0.3,0.3,0.5c0,0.1,0,0.2-0.1,0.2c-0.2,0-0.4-0.1-0.6-0.1c-0.3,0-0.5,0.1-0.8,0
		c-0.1,0,0-0.1,0-0.2c0.5-0.3,0.4-1,0.5-1.6c0-0.1-0.1-0.2-0.1-0.2c-0.4-0.2-0.4,0.1-0.6,0.2c0,0-0.1,0-0.2,0
		c-0.2-0.1-0.1-0.3-0.1-0.4c0-0.1,0-0.3,0.2-0.3c0.6-0.1,1.2,0.1,1.8,0C42.4,9.2,42.7,9.1,42.9,9.3L42.9,9.3z"/>
	<path class="st2" d="M45.9,10c0.1,0,0.3,0.1,0.4,0.2c0,0.3-0.4,0.1-0.5,0.3c-0.2,0.6-0.8,1.2-0.4,1.8c0,0.1,0,0.1-0.1,0.1
		c-0.2,0-0.6-0.3-0.8-0.4c-0.2,0-0.4,0-0.6-0.2c0-0.2,0.3-0.2,0.5-0.3c0.3-0.1,0.4-0.6,0.5-0.9c0-0.2,0.2-0.4,0.2-0.6
		c-0.1-0.1-0.3-0.2-0.2-0.4c0.1-0.2,0.3,0,0.4,0C45.4,9.8,45.8,9.9,45.9,10L45.9,10z"/>
	<path class="st2" d="M52.3,14.9c0.3,0.3,0.4,0.6,0.6,0.9c0,0.1,0.1,0.3,0,0.4c-0.1,0.1-0.3,0.2-0.4,0.2c-0.1,0-0.1-0.1,0-0.2
		c0.1-0.4-0.1-0.6-0.4-0.7c-0.1,0.2-0.4,0.1-0.3,0.4c0.1,0.1,0.2,0.2,0.2,0.4c0,0.2-0.1,0.2-0.3,0.3l-0.1,0
		c-0.1-0.2-0.3-0.3-0.3-0.5c0,0-0.1-0.1-0.1,0c-0.1,0.1-0.3,0.2-0.2,0.4c0.2,0.2,0.2,0.4,0.4,0.6c0.1,0,0.2,0,0.3,0
		c0.2,0.1,0.4,0,0.5,0.1c0,0.2-0.2,0.2-0.3,0.2c-0.3,0.1-0.5,0.2-0.8,0.1c-0.3-0.2-0.3-0.6-0.6-0.9l0-0.1c-0.2-0.2-0.4-0.4-0.6-0.5
		c-0.1,0-0.1-0.1,0-0.2c0.1-0.3,0.3,0,0.5-0.1c0.4-0.2,0.8-0.3,1.2-0.6c0.2,0,0.3-0.2,0.3-0.3c0-0.1-0.1-0.3,0-0.4
		c0.1,0,0.1-0.1,0.2,0C52.1,14.5,52.2,14.7,52.3,14.9L52.3,14.9z"/>
	<path class="st2" d="M29.9,15.6c0,0.2-0.2,0.4-0.4,0.5c-0.1,0.2-0.2,0.6,0,0.9c0.1,0.2,0.3,0.5,0.6,0.5l0.5-0.1
		c0.1-0.1,0.2-0.2,0.2-0.4c0-0.4-0.4,0.1-0.5-0.2c0-0.2,0.1-0.6,0.3-0.7c0.2,0,0.5,0.1,0.7,0.3c0.1,0,0.2,0,0.3,0.2v0.1
		c-0.1,0.3-0.1,0.7-0.3,1c-0.2,0.3-0.4,0.4-0.8,0.5c-0.2,0.1-0.5,0.1-0.6,0.1c-0.3-0.3-0.8-0.4-0.8-0.8c-0.3-0.6,0-1.5,0.3-1.9
		C29.4,15.5,29.8,15.3,29.9,15.6L29.9,15.6z"/>
	<path class="st1" d="M34.5,31.6c0-0.1-0.1-0.2-0.2-0.2c-0.5,0.2-0.9,0.5-1.4,0.7c-0.2,0.1-0.4,0.2-0.6,0.3c-0.2,0.1-0.4,0-0.6,0
		c-0.1,0-0.1,0.1-0.1,0.1c0.3,0.2,0.6,0.6,0.9,0.9c0.1-0.1,0-0.3,0.2-0.4c0.1-0.1,0.3,0,0.4,0.1c0.3,0.1,0.6,0.4,0.6,0.7
		c0,0.1-0.2,0-0.3,0.1c0,0.1-0.1,0.1,0,0.2l0.5,0.3c0.2,0.1,0.3,0.4,0.6,0.5c0.1,0,0.1-0.1,0.1-0.2C33.8,33.5,34.6,32.6,34.5,31.6
		L34.5,31.6z M33.6,33c-0.2,0-0.4-0.3-0.5-0.4c0,0-0.1-0.1,0-0.2c0.2-0.1,0.5-0.5,0.8-0.5l0,0C33.8,32.3,33.6,32.8,33.6,33L33.6,33z
		"/>
	<path class="st1" d="M50.5,32.3c-0.4-0.1-0.2,0.1-0.6,0c-0.3-0.1-1.2-0.4-1.4-0.5c-0.2-0.1-0.4-0.2-0.6-0.1
		c-0.1,0.3,0.1,0.5,0.1,0.8c0.1,0.4,0.3,1.2,0.2,1.3c-0.2,0.2-0.3,0.4-0.2,0.5c0.1,0,0.2-0.1,0.3-0.1c0.2-0.2,0.5-0.3,0.7-0.5
		c0-0.1-0.2,0-0.3-0.2c-0.1-0.2,0.2-0.3,0.3-0.4c0.2-0.1,0.3-0.3,0.5-0.3c0.2,0.1,0,0.2,0,0.4c0,0,0,0.1,0.1,0.1
		c0.4-0.2,0.6-0.6,1-0.8C50.5,32.4,50.5,32.3,50.5,32.3L50.5,32.3z M48.5,33.1c-0.1-0.1-0.2-0.7-0.2-0.9c0-0.1,0.2,0.1,0.2,0.1
		l0.5,0.2c0,0,0.1,0,0.1,0.1C49,32.8,48.7,33.1,48.5,33.1L48.5,33.1z"/>
	<path class="st2" d="M31.6,28.4l0,0.1c-0.2,0.4-0.4,1.2-0.4,1.7c0,0.1,0.3-0.2,0.3-0.2c0.3-0.1,0.4-0.4,0.7-0.5
		c0.2,0.1,0.2,0.1,0.3,0.3c0.1,0.2,0.3,0.3,0.2,0.5c-0.2,0.2-0.2-0.2-0.4-0.1c-0.4,0.1-0.7,0.3-1,0.5c-0.2,0.2-0.5,0.3-0.7,0.5
		c-0.1,0-0.3,0-0.3-0.1c0-0.6,0.4-1.2,0.3-1.8c-0.1-0.1-0.6,0.4-0.7,0.5c-0.3,0.2-0.2,0.2-0.2,0.5c-0.1,0-0.2-0.1-0.2-0.1
		c-0.1-0.2-0.1-0.3-0.2-0.5c-0.1-0.1-0.2-0.2-0.2-0.3c0.4,0,0.4,0,0.8-0.1c0.2-0.2,1.2-0.8,1.2-1c0-0.1-0.1-0.2-0.1-0.3
		c0.1-0.1,0.2-0.1,0.3,0C31.4,28.2,31.5,28.3,31.6,28.4L31.6,28.4z"/>
	<path class="st2" d="M51.4,28.7c0.1,0.1,0.1,0.1,0.1,0.2c-0.3,0.1-0.6,0.1-0.8,0.3c-0.1,0.1-0.3,0.2-0.3,0.3
		c0.1,0.2,0.3,0.4,0.5,0.4c0.2-0.1-0.1-0.4,0.2-0.4c0.2,0,0.3,0,0.4,0.2c0,0,0.1,0.1,0,0.1c-0.1,0.1-0.3,0-0.3,0.2
		c0,0.1,0,0.3,0.1,0.3c0.1,0.1,0.2,0.2,0.4,0.1c0.2,0,0.2-0.2,0.3-0.4c0.1-0.2-0.2-0.4-0.3-0.6c0-0.1,0.1-0.2,0.1-0.2
		c0.3,0.1,0.5,0.3,0.8,0.4c0,0.1,0,0.2-0.1,0.3c-0.5,0.6-0.8,1.1-1.3,1.5c-0.1,0-0.1,0.1-0.2,0.1c-0.1-0.1,0.2-0.4,0.1-0.5
		c-0.2-0.3-0.7-0.8-1.1-1c-0.2-0.1-0.3,0-0.4,0.2c-0.1,0.1-0.2,0.1-0.3,0.1c-0.1,0-0.1-0.1-0.1-0.2c0.1-0.2,0.4-0.4,0.5-0.6
		c0.2-0.4,0.5-0.7,0.8-1.1C51,28.3,51.2,28.7,51.4,28.7L51.4,28.7z"/>
	<path class="st2" d="M36.5,32.8c0.6,0.2,1.2,0.4,1.9,0.6c0.1,0,0.2,0.1,0.2,0.2c0,0.2-0.1,0.4-0.2,0.6c-0.1,0.1-0.1,0-0.2,0
		c-0.2-0.2-0.1-0.6-0.5-0.5c-0.2,0.1-0.3,0.4-0.4,0.6c-0.1,0.3-0.3,0.6-0.3,0.9c0.1,0.2,0.2,0.3,0.3,0.4c0,0.1,0,0.1-0.1,0.2
		c-0.2,0-0.3-0.1-0.5-0.2c-0.3-0.1-0.7-0.1-1-0.3c0,0,0-0.1,0-0.1c0.1-0.1,0.3-0.1,0.4-0.1c0.3-0.3,0.3-0.8,0.5-1.2
		c0-0.1,0.2-0.3,0.1-0.4c-0.1-0.1-0.2-0.1-0.4-0.2c-0.2,0.1-0.3,0.3-0.5,0.5c-0.1,0-0.1,0-0.2-0.1c0-0.3,0.1-0.6,0.3-0.9
		C36.3,32.7,36.4,32.8,36.5,32.8L36.5,32.8z"/>
	<path class="st2" d="M41.6,33.9c0,0.1,0,0.2,0.1,0.2c0.1,0,0.2,0.1,0.2,0.2c0,0.5,0,1-0.3,1.4c-0.1,0.2-0.4,0.2-0.6,0.1
		c-0.5-0.3-0.1-0.8-0.3-1.3c0-0.2-0.1-0.4,0.1-0.5c0,0,0.1,0,0.1-0.1c0,0,0-0.1-0.1-0.1c-0.3,0-0.6,0.1-0.9,0c-0.1,0-0.1,0-0.2,0.1
		c-0.1,0.1,0,0.1,0.1,0.2c0.1,0,0.2,0.1,0.2,0.2c0.2,0.6-0.2,1.3,0.2,1.9c0.3,0.3,1,0.3,1.4,0.2c0.8-0.4,0.4-1.4,0.7-2.1
		c0.1-0.1,0.3-0.1,0.3-0.1c0-0.1,0.1-0.2,0-0.3c-0.3-0.1-0.6,0-0.9,0C41.8,33.8,41.7,33.8,41.6,33.9L41.6,33.9z"/>
	<path class="st1" d="M47.2,34.4c-0.1-0.1-0.2-0.1-0.3-0.1c-0.1,0-0.2,0.2-0.2,0.3c-0.1,0.2-0.2,0.1-0.4,0.1c-0.1,0-0.5-0.3-0.4-0.4
		c0.2-0.2,0.3-0.6,0.1-0.9c-0.2-0.5-0.9-0.4-1.4-0.2c-0.3,0.2-0.7,0.3-1,0.5c0,0.1,0,0.2,0.1,0.2c0.1,0.1,0.3,0,0.4,0
		c0.2,0.2,0.2,0.4,0.3,0.5c0.1,0.3,0.3,0.6,0.3,1c0,0.2-0.2,0.4,0,0.5c0.2-0.1,0.4-0.1,0.6-0.2c0.2-0.1-0.2-0.6-0.1-0.8
		c0-0.1,0.1-0.1,0.2-0.1c0.1,0.1,0.6,0.4,0.8,0.4c0.5,0,0.8,0,1-0.5C47.2,34.6,47.3,34.5,47.2,34.4L47.2,34.4z M45.4,34.3
		c-0.1,0.1-0.2,0.2-0.3,0.1c-0.1-0.1-0.5-0.8-0.3-0.9c0.3-0.1,0.5,0,0.7,0.3C45.5,33.9,45.5,34.1,45.4,34.3L45.4,34.3z"/>
	<path class="st2" d="M34.2,4c0,0.3,0.2,0.5,0.1,0.8c-0.1,0.1-0.1,0.1-0.2,0.1c-0.1,0-0.1,0-0.2-0.1c0-0.2-0.2-0.3-0.3-0.4
		c-0.2,0-0.7,0.2-0.8,0.4c-0.1,0.1,0,0.3,0.1,0.4c0.4,0.4,1,0,1.5,0c0.2,0,0.4,0.1,0.5,0.3c0.3,0.3,0.5,0.8,0.3,1.2
		c-0.2,0.4-0.6,1-1.2,0.9c-0.2,0.1-0.4-0.2-0.5,0c0,0.1,0,0.3-0.1,0.3c-0.1,0-0.2,0-0.3-0.1c-0.1-0.2,0-0.4,0-0.6
		c0-0.2-0.2-0.3,0.1-0.5c0.3,0,0.6,0.4,0.9,0.3c0.2-0.1,0.4-0.1,0.5-0.4c0-0.1,0.1-0.3,0-0.4c-0.1-0.1-0.2-0.2-0.3-0.2
		c-0.3,0-0.5,0.3-0.9,0.3c-0.3,0-0.7-0.2-0.9-0.5c-0.2-0.3-0.3-0.6-0.2-0.9c0.1-0.3,0.4-0.6,0.7-0.7c0.2-0.1,0.5-0.2,0.7-0.1
		C33.9,4.1,33.7,3.7,34.2,4L34.2,4L34.2,4z"/>
	<path class="st2" d="M50.8,5.2C51,5.3,51,5.6,51.2,5.6c0.1,0,0.3,0,0.3,0.1C51.4,6,51.1,6,50.9,6.2l-0.3,0.2c-0.1,0-0.1,0-0.1-0.1
		c-0.1-0.3,0.2-0.3,0-0.6c-0.1-0.1-0.2-0.3-0.4-0.3c-0.1,0-0.2,0.1-0.3,0.2c-0.2,0.4,0.1,0.7,0.2,1c0.2,0.2,0.2,0.4,0.3,0.6
		c0.1,0.3,0,0.6-0.3,0.8c-0.3,0.3-0.7,0.3-1.1,0.2c-0.2-0.1-0.5-0.2-0.6-0.4l-0.2-0.4c-0.1,0-0.3,0-0.4-0.1c0-0.1,0-0.2,0.1-0.2
		l0.6-0.7c0,0,0.1,0,0.2,0c0.1,0,0.1,0.1,0.1,0.2c0,0.2-0.2,0.3-0.2,0.6c0,0.3,0.3,0.4,0.5,0.6c0.1,0.1,0.3,0.1,0.5,0
		c0.2-0.1,0.2-0.3,0.2-0.5c0-0.4-0.5-0.5-0.5-0.9c-0.1-0.3-0.2-0.7,0.1-0.9c0.3-0.4,0.8-0.5,1.3-0.5C50.5,4.9,50.7,5.1,50.8,5.2
		L50.8,5.2z"/>
	<path class="st2" d="M30,6.2c0,0.3-0.2,0.4,0,0.7c0.2,0.4,0.8,0.8,1,1.2c0.1,0.2,0.2,0.4,0.4,0.5c0.2,0.1,0.5-0.2,0.6,0.1
		c-0.1,0.2-0.4,0.3-0.6,0.5c-0.2,0.2-0.5,0.4-0.6,0.6c-0.1,0.1-0.2,0.1-0.2,0c-0.2-0.3,0.2-0.6,0-0.9c-0.1-0.2-0.3-0.4-0.4-0.5
		c-0.3-0.5-0.7-0.9-1.2-1.2c-0.2-0.1-0.4,0.2-0.5,0c0-0.1,0.2-0.3,0.3-0.3c0.3-0.2,0.7-0.4,1-0.7C29.8,6.1,30,6.1,30,6.2L30,6.2z"/>
	<path class="st2" d="M52.6,7.5c0.2,0.2,0.2,0.4,0.2,0.7c0,0.3-0.3,0.4-0.6,0.5c-0.3,0-0.6,0-0.7-0.3c-0.1-0.2,0-0.5,0.1-0.7
		c0.1-0.1,0.2-0.3,0.4-0.3C52.2,7.4,52.4,7.4,52.6,7.5L52.6,7.5z"/>
	<path class="st2" d="M27.3,8.6c0.1,0.1,0,0.2,0,0.3C27.3,9,27.2,9.1,27,9c-0.1,0-0.2-0.2-0.3-0.1c-0.1,0.1-0.3,0.5-0.2,0.5
		c0.1,0.1,0.3,0.2,0.4,0.2c0.4-0.1,0.9-0.5,1.4-0.4c0.2,0,1,0.1,1,0.9c0,0.2,0,0.5-0.1,0.7c-0.2,0.3-0.5,0.7-0.9,0.8
		c-0.1,0-0.2,0-0.2,0c-0.1,0.1,0,0.3-0.2,0.4c-0.3,0.1-0.3-0.3-0.5-0.4c-0.1-0.2-0.2-0.3-0.2-0.6c0-0.1,0.1-0.1,0.1-0.1
		c0.5-0.2,0.4,0.5,1.2,0c0.1-0.1,0.2-0.3,0.2-0.4c-0.1-0.2,0-0.5-0.5-0.4c-0.5,0.1-0.9,0.3-1.3,0.4c-0.3,0-0.6-0.2-0.9-0.4
		c-0.1-0.3-0.2-0.7,0-1c0.2-0.2,0.5-1,0.7-0.8C27,8.4,27.2,8.4,27.3,8.6L27.3,8.6z"/>
	<path class="st2" d="M24.9,11c0.1,0.2-0.1,0.3-0.1,0.5c0.1,0.4,0.4,0.7,0.7,0.8c0.6,0.4,1.1,0.8,1.7,1.1c0.1,0,0.1,0.1,0,0.2
		c-0.3,0.3-0.6,0.2-1,0.2c-0.6,0-1.2,0-1.8,0.2c0.2,0.2,0.3,0.4,0.6,0.4c0.2,0.3,0.5,0.4,0.8,0.3c0.1,0,0.2-0.3,0.3-0.2
		c0.1,0,0.1,0.2,0.1,0.3c-0.3,0.5-0.4,1-0.7,1.4c0,0.1-0.1,0.1-0.2,0.1c-0.2-0.1,0-0.3,0-0.5c0-0.4-0.4-0.6-0.6-0.7
		c-0.4-0.3-0.9-0.5-1.5-0.5c-0.2,0-0.3,0.3-0.5,0.2c-0.1-0.1,0-0.3,0-0.4c0.2-0.3,0.3-0.6,0.7-0.7c0.6-0.2,1.3-0.3,1.9-0.3
		c0.1,0,0.2-0.1,0.2-0.2c-0.2-0.2-0.5-0.4-0.8-0.6c-0.2-0.1-0.3-0.2-0.5-0.2c-0.1,0.1-0.2,0.2-0.4,0.1c-0.1-0.1-0.2-0.1-0.2-0.2
		c0-0.1,0.1-0.2,0.1-0.2c0.2-0.4,0.3-0.8,0.6-1.1C24.7,10.9,24.8,11,24.9,11L24.9,11z"/>
	<path class="st2" d="M22.5,16.9c0.1,0.2,0.5,0.1,0.4,0.3c-0.1,0.2-0.5,0-0.6,0.1C22.1,17.5,22,17.7,22,18c0,0.1,0.1,0.3,0.2,0.3
		c0.2,0,0.5,0.2,0.7,0c0-0.1,0-0.6,0-0.6c0.2,0,0.2,0,0.3,0c0.2,0,0.4,0,0.4,0.1c-0.2,0.3-0.2,0.5-0.4,0.7c0,0,0,0.1,0.1,0.1
		c0.4,0,0.7,0.2,1.1,0.2c0.1-0.2,0.1-0.7,0.1-0.9c0-0.4-0.6-0.5-0.5-0.9c0.1-0.1,0.2-0.1,0.3-0.1c0.3,0.1,0.5,0.1,0.7,0.4
		c0.3,0.3,0.1,1-0.1,1.3c-0.2,0.4-0.2,1.6-0.3,1.7c-0.1,0-0.2,0.1-0.2,0c-0.3-0.2,0-0.8-0.7-0.8c-0.6,0-1.1-0.3-1.7-0.4
		c-0.3,0-0.3,0.5-0.6,0.4c-0.2-0.3,0.3-2.1,0.5-2.6c0.1-0.1,0.1-0.1,0.1-0.1C22.1,16.8,22.3,16.9,22.5,16.9L22.5,16.9z"/>
	<path class="st2" d="M21.3,22.1c0.5,0.1,1.1,0,1.6,0.1c0.3,0,0.7,0.1,0.9-0.2c0-0.1,0.1-0.2,0.2-0.2c0.1,0,0.2,0,0.3,0l0,0.1
		c0,0.5-0.1,0.9,0,1.4c0,0.1,0,0.3-0.1,0.3c-0.3,0.1-0.4-0.4-0.7-0.5C23,23,22.4,23,21.8,23c-0.3,0-0.5,0.2-0.8,0.5
		c-0.1,0-0.3,0-0.3-0.2c0-0.4-0.1-0.7,0-1.2c0-0.1,0-0.4,0.2-0.4C21.1,21.8,21.1,22.1,21.3,22.1L21.3,22.1z"/>
	<path class="st2" d="M24.2,25.1c0.1,0,0.3,0,0.3,0.1c-0.1,0.3,0.1,0.4,0.1,0.6c0.1,0.5,0.5,1.7,0.5,1.9c0,0.1-0.1,0.2-0.2,0.2
		c-0.4,0-0.2-0.4-0.6-0.3c-0.4,0.1-1.4,0.4-1.9,0.4c-0.1,0-0.2,0-0.2,0.1c0,0.1,0,0.3-0.1,0.3c-0.2,0-0.2-0.2-0.3-0.3
		c-0.2-0.4-0.6-0.8-0.4-1.3c0-0.1,0.1-0.1,0.2-0.1c0.2,0,0.2,0.4,0.5,0.4c0.3-0.1,0.7-0.1,1-0.1c0.3-0.2,1.3,0,1.2-0.4
		c-0.2-1.3-0.6-1-1-1.5c-0.1-0.1,0.1-0.1,0.2-0.2C23.7,25,24,25.1,24.2,25.1L24.2,25.1z"/>
	<path class="st2" d="M58,25.7c0.5,0.3,1.1,0.3,1.7,0.4c0.2,0,0.5,0.3,0.7,0.1c0.1-0.1,0.1-0.3,0.2-0.3c0.1,0,0.2,0.1,0.2,0.2
		c0,0.3-0.2,0.5-0.3,0.8c-0.2,0.4-0.3,0.8-0.4,1.3c0,0.1-0.1,0.2-0.2,0.2c-0.3,0-0.6,0-0.8-0.1c-0.1,0-0.2-0.3-0.1-0.3
		c0.7,0,1-0.9,1-1c-0.1-0.1-0.7-0.1-0.9-0.2c-0.2-0.1,0.1,0.5-0.2,0.6c-0.3,0-0.1,0-0.4,0c-0.1,0-0.2-0.1-0.2-0.2
		c0-0.1,0-0.2,0.1-0.3c0,0,0.1-0.1,0.1-0.1c0-0.1-0.1-0.2-0.2-0.2c-0.3,0-0.7-0.4-0.9-0.1c-0.1,0.4-0.3,0.8,0.2,1.4
		c0,0,0,0.1-0.1,0.1l-0.2,0L57,27.6c-0.1-0.1,0-0.3,0-0.5c0.1-0.4,0.2-0.8,0.4-1.2c0.1-0.2,0.1-0.4,0.3-0.5
		C57.9,25.3,57.8,25.6,58,25.7L58,25.7z"/>
	<path class="st2" d="M56.6,29.3l0,0.2c0.4,0.4,0.8,0.7,1.3,0.9c0.3,0.3,0.7,0.5,1.1,0.7c0.1,0.1,0.2,0.2,0.1,0.3
		c-0.4,0.4-1.1,0.3-1.6,0.3c-0.1,0-0.3-0.1-0.4-0.1c-0.1,0.1,0.1,0.4,0.2,0.5c0.2,0.4,0.4,0.7,0.6,1.1c0,0.1-0.1,0.1-0.1,0.2
		c-0.4,0-0.7-0.3-1-0.4c-0.2-0.1-0.3-0.2-0.5-0.3c-0.4-0.1-0.9-0.6-1.2-0.4c-0.1,0.1-0.2,0-0.4-0.1c0-0.3,0.2-0.6,0.3-0.8
		c0.1-0.1,0.1-0.4,0.3-0.3c0.2,0.1,0,0.4,0.2,0.5c0.3,0.1,1.2,0.6,1.4,0.8c0.1,0-0.8-1.2-0.8-1.5c0-0.1,1.7,0.1,1.7,0
		c0-0.1-1-0.5-1.1-0.6c-0.3,0-0.5-0.4-0.9,0.1c0,0.1-0.2,0-0.3-0.1c0-0.1,0.1-0.2,0.2-0.3c0.2-0.3,0.1-0.7,0.4-0.9
		C56.4,29.2,56.5,29.2,56.6,29.3L56.6,29.3z"/>
	<path class="st2" d="M54.1,33.6c0.1,0.3,0.5,0.4,0.8,0.7c0.4,0.3,0.7,0.9,1.2,0.9c0.2,0,0.4-0.1,0.5,0c0.1,0.3-0.2,0.3-0.4,0.4
		c-0.2,0.2-0.5,0.5-0.6,0.7c-0.1,0-0.1,0-0.2,0c-0.1-0.1,0.1-0.3,0-0.4c-0.1-0.2-0.6-0.6-0.8-0.7c-0.4-0.3-0.5-0.6-0.9-0.8
		c-0.2-0.1-0.5,0.3-0.7,0c0-0.4,0.4-0.5,0.5-0.8c0.2-0.1,0.2-0.3,0.4-0.4C54.2,33.3,54.1,33.5,54.1,33.6L54.1,33.6z"/>
	<path class="st2" d="M29.2,34.6c0,0.4,0.3,0.6,0.7,0.8c0,0.1,0,0.2-0.1,0.2c-0.2,0.1-0.4,0.1-0.6,0.1c-0.2,0.2-0.2,0.1-0.4,0.2
		c-0.1,0-0.2,0-0.2-0.1v-0.1c0.1-0.1,0.2-0.2,0.3-0.4c0-0.3-0.3-0.6-0.5-0.8c-0.1,0-0.3,0-0.4,0c-0.2,0.1-0.1,0.3,0,0.5
		c0.1,0.3,0.1,0.5,0.2,0.9c0,0.4-0.1,0.8-0.4,1c-0.2,0.1-0.5,0.3-0.8,0.2c-0.3,0-0.4-0.2-0.6-0.4c-0.2-0.3-0.4-0.5-0.5-0.8
		c0-0.2,0.2-0.2,0.3-0.3l0.5-0.1c0.2,0.2-0.1,0.3-0.1,0.5c0,0.2,0.1,0.4,0.3,0.6c0.2,0.1,0.4,0,0.5-0.1c0.1-0.1,0.1-0.3,0.1-0.4
		c-0.1-0.6-0.4-1-0.3-1.6c0.1-0.2,0.2-0.4,0.4-0.5c0.5-0.2,1.1,0,1.5,0.4C29.1,34.3,29.2,34.5,29.2,34.6L29.2,34.6z"/>
	<path class="st2" d="M48.6,38c0,0.2-0.3,0.2-0.2,0.4c0.1,0.3,0.1,0.6,0.3,0.9c0.1,0.3,0.2,0.9,0.5,1.1c0.2,0.2,0.4,0,0.6,0
		c0.1,0.1,0.1,0.2,0.1,0.3c-0.1,0.2-0.4,0.2-0.5,0.3c-0.5,0.2-1.1,0.4-1.6,0.7c-0.1,0.1-0.2,0.3-0.4,0.2c-0.2-0.2-0.2-0.6-0.4-0.8
		c0-0.1,0-0.2,0.1-0.2c0.1,0,0.2,0.1,0.3,0.1c0.2,0,0.2,0.2,0.3,0.2c0.1-0.1,0.6-0.3,0.6-0.3L48.1,40C48,40,47.9,39.9,47.8,40
		c-0.1,0.1-0.1,0.3-0.2,0.4c-0.1,0-0.1-0.1-0.2-0.2c-0.1-0.2-0.2-0.3-0.1-0.6c0.2-0.2,0.3,0.1,0.5,0c0.1-0.1,0-0.2,0-0.2
		c-0.2-0.2-0.2-0.9-0.6-0.7c-0.2,0.1-0.5,0.2-0.6,0.4c-0.1,0.1-0.1,0.4-0.2,0.4c-0.1,0-0.2,0-0.2-0.1c0-0.2,0.1-0.2,0.1-0.4
		c0-0.1-0.1-0.4,0-0.4c0.5-0.2,1-0.3,1.5-0.5c0.2-0.1,0.5-0.4,0.7-0.3L48.6,38L48.6,38z"/>
	<path class="st1" d="M60.5,17.4c-0.1-0.1-0.1-0.2-0.2-0.2c-0.3,0.1-0.6-0.1-0.9-0.1c-0.1,0-1.3-0.1-1.8-0.3
		c-0.4-0.2-0.5-0.5-0.5-0.5c0-0.1-0.3-0.2-0.3-0.1c-0.1,0.2,0,0.4,0.1,0.6c0.1,0.3,0.2,0.5,0.3,0.8c0,0.1,0.1,0.1,0.2,0.1
		c0.1,0,0.1-0.3,0-0.4c0-0.1,0.2,0.1,0.3,0c0.2,0,0.2,0,0.3,0.1c0.1,0.2,0.1,0.6,0.2,0.8c0,0.2,0.1,0.3,0.1,0.5
		c0,0.1-0.3,0.2-0.4,0.2c-0.2,0-0.2-0.3-0.4-0.3c-0.1,0-0.1,0.2-0.1,0.2c0.1,0.2,0.1,1,0.1,1.2c0,0.1,0.1,0.2,0.2,0.2
		c0.4-0.2,0-0.3,0.3-0.5c0.4-0.3,1.7-1.5,1.9-1.6c0.1-0.1,0.4-0.3,0.5-0.4C60.5,17.6,60.5,17.5,60.5,17.4L60.5,17.4z M58.5,18.5
		c-0.1,0-0.1-0.1-0.1-0.1l-0.1-0.8c0.2-0.2,1,0.1,1.3,0.1C59.8,17.6,58.7,18.3,58.5,18.5L58.5,18.5z"/>
	<path class="st1" d="M55.9,9.2c0-0.1-0.2-0.1-0.3-0.1c-0.8,0.2-1.5,0.7-2.4,0.9c-0.2,0-0.5,0-0.7-0.1c-0.1,0-0.2-0.1-0.3,0
		c0,0.1,0,0.2,0.1,0.3c0.3,0.2,0.5,0.7,0.9,0.7c0.2,0-0.1-0.2,0.2-0.4c0.4-0.2,0.7,0.3,0.9,0.6c0,0.1,0,0.3-0.1,0.4
		c0,0.1-0.2,0-0.3,0c-0.1,0-0.2-0.1-0.2,0c0,0,0,0.2,0,0.2c0.3,0.1,0.4,0.4,0.6,0.6c0.1,0.1,0.2,0.4,0.3,0.3
		c0.2-0.1,0.1-0.3,0.1-0.4c0.1-0.4,0.4-0.8,0.5-1.3C55.4,10.4,55.8,9.8,55.9,9.2L55.9,9.2z M54.5,10.7c-0.2,0-0.4-0.3-0.5-0.4
		c0.1-0.2,0.7-0.4,0.9-0.5C55,9.7,54.6,10.6,54.5,10.7L54.5,10.7z"/>
	<path class="st1" d="M53,38.5c-0.2-0.6-0.4-1.3-0.5-1.9c0-0.3-0.1-0.6-0.1-0.8c0.1-0.2,0.3-0.3,0.3-0.5c0-0.1-0.1-0.1-0.2-0.1
		c-0.2,0.2-0.4,0.3-0.7,0.5c-0.1,0.2-0.2,0.1-0.3,0.3c0,0.1,0.2,0.1,0.3,0.1c0.1,0,0.1,0.2,0.1,0.2c-0.2,0.3-0.5,0.5-0.8,0.7
		c-0.1,0-0.2-0.1-0.2-0.1c-0.2-0.2-0.1-0.2-0.1-0.4c0-0.1-0.1-0.1-0.1-0.1c-0.3,0.3-0.7,0.4-0.9,0.7c-0.1,0.1-0.2,0.1-0.2,0.2
		c0,0.1,0.1,0.2,0.2,0.3c0.1,0,0.2,0,0.3,0c0.6-0.3,1,0.5,1.5,0.8c0.4,0.1,0.9,0.7,1.1,0.7c0.2,0,0.3-0.1,0.5-0.2
		C53.2,38.7,53.1,38.6,53,38.5L53,38.5z M52.4,38.1c-0.2,0-0.7-0.7-0.8-0.7c0,0-0.1,0-0.1-0.1l0-0.1c0.1-0.1,0.6-0.6,0.7-0.2
		c0.1,0.1,0.2,0.9,0.3,1C52.5,38.1,52.5,38.1,52.4,38.1L52.4,38.1z"/>
	<path class="st1" d="M27.2,32.1c-0.2-0.3-0.4-1-0.6-1c-0.3,0,0,0.5-0.2,0.6c-0.1,0.1-0.3,0.1-0.4,0.1c-0.3-0.1-0.3-0.3-0.5-0.6
		c-0.1-0.2-0.3-0.3-0.1-0.5c0.1-0.1,0.2-0.3,0.4-0.3c0.1,0,0.1,0.1,0.1,0.2c0,0.1,0.1,0.2,0.2,0.2c0.1,0,0.1-0.1,0.1-0.1
		c0-0.4-0.3-0.6-0.4-0.9c-0.2-0.2-0.1-0.5-0.4-0.6c-0.2,0.1-0.1,0.3-0.1,0.5c-0.2,0.3-0.4,0.6-0.7,0.9c-0.3,0.3-0.5,0.7-0.8,0.9
		l-0.3,0.5c0,0.1-0.2,0.3,0,0.4c0.9,0.1,1.7,0.1,2.5,0c0.3,0,0.8-0.1,1,0.2c0.1,0.1,0.1,0.2,0.2,0.2c0.1,0,0.2,0,0.2,0
		C27.5,32.4,27.3,32.3,27.2,32.1L27.2,32.1z M25.1,31.8c-0.2,0-0.6,0-0.8,0c-0.1,0,0.6-0.6,0.6-0.7c0.2-0.2,0.3,0.2,0.3,0.2
		s0.1,0.3,0.2,0.4C25.4,31.8,25.2,31.8,25.1,31.8L25.1,31.8z"/>
	<path class="st2" d="M55.7,14.8c-0.2-0.3-0.3-0.6-0.3-0.8c0-0.2,0.2-0.4,0.2-0.6c0.1-0.2,0.3-0.4,0.5-0.6c0.2-0.2,0.4-0.3,0.7-0.4
		c0.3,0,0.5-0.1,0.7-0.1c0.2,0,0.4,0.1,0.6,0.2c0.2,0.1,0.3,0.3,0.5,0.4c0.5,0.7,0.6,1.4,0.3,1.5l-0.1,0.1l-0.3,0.1
		c-0.1,0.1-0.2,0.1-0.3,0.1c0,0-0.1,0-0.1,0.1c0,0-0.1,0-0.1,0c0,0,0,0,0,0c0,0,0-0.1,0.1-0.2c0,0,0.1-0.1,0.1-0.1
		c0.1-0.1,0.2-0.2,0.2-0.3c0-0.1,0-0.4,0-0.5c0-0.2-0.2-0.4-0.5-0.5c-0.2-0.1-0.5,0-0.9,0.1c-0.4,0.1-0.6,0.2-0.8,0.4
		c-0.2,0.2-0.3,0.5-0.2,0.8c0,0.1,0.1,0.2,0.1,0.2c0,0.2,0.5,0.7,0.6,0.7c0.1,0.1-0.1,0.2-0.1,0.2C56.8,15.5,55.9,15.3,55.7,14.8
		L55.7,14.8z"/>
	<path class="st2" d="M35,41.7c-0.1,0-0.1-0.1-0.2-0.1c0,0,0-0.1,0-0.1c0-0.1,0.3-0.1,0.3-0.1c0.1,0,0.2-0.2,0.3-0.4
		c0-0.1,0.2-0.6,0.2-0.8c0,0,0.1-0.4,0.1-0.4c0.1-0.2,0-0.4,0-0.5c-0.1-0.1-0.2-0.2-0.4-0.3c-0.2-0.1-0.3-0.1-0.5,0
		c-0.2,0.1-0.3,0.1-0.3,0.3c0,0.1-0.2,0.3-0.2,0.3l-0.4,0.8c-0.1,0.3-0.2,0.6-0.1,0.6c0,0,0,0.1,0.1,0.1c0.1,0.1,0.2,0.2,0.1,0.3
		c0,0,0,0.1-0.1,0.1c0,0-0.1,0-0.1,0L32.9,41c-0.1,0-0.1-0.1-0.1-0.1c0,0,0-0.1,0-0.1c0-0.1,0.1-0.1,0.2-0.1c0,0,0.3,0,0.3,0
		c0,0,0.6-1.1,0.6-1.1c0,0,0.3-0.6,0.3-0.6c0.1-0.3,0.3-0.5,0.5-0.6c0.3-0.1,0.5-0.1,0.9,0.1c0.5,0.2,0.7,0.3,0.9,0.6
		c0.2,0.2,0.2,1,0.1,1.2c0,0.1-0.1,0.3-0.1,0.4l-0.1,0.6c0,0,0,0.2-0.1,0.2c0,0-0.1,0.2-0.1,0.2c0,0,0.1,0.1,0.1,0.1
		c0.1,0.1,0.1,0.1,0.1,0.2c0,0,0,0.1-0.1,0.1c0,0-0.1,0-0.1,0L35,41.7L35,41.7z"/>
	<path class="st1" d="M63.6,20.6c-0.2-0.9-0.2-1.8-0.5-2.6c-0.2-1.4-0.7-2.7-1.2-3.9c-0.2-0.5-0.4-1-0.7-1.4c-0.2-0.3-0.4-0.7-0.5-1
		c-0.4-0.5-0.5-1-0.9-1.5c-0.4-0.5-0.7-1-1.2-1.5c-0.4-0.5-0.9-1-1.3-1.5C57,7,56.9,6.5,56.6,6.3c-0.1-0.3-0.5-0.3-0.6-0.6
		c-0.5-0.4-0.9-0.9-1.4-1.2c-0.7-0.6-1.6-0.8-2.4-1.4l-0.6-0.3c-0.5-0.4-1.2-0.6-1.7-0.9c-0.5-0.2-1-0.4-1.5-0.7
		c-0.4-0.1-0.8-0.3-1.2-0.4c-0.1,0-0.2-0.1-0.3-0.1c-1,0-1.8-0.4-2.7-0.5c-0.8,0-1.6-0.2-2.4-0.3c-0.4,0-0.7,0-1.1,0.1
		c-0.7,0-1.3,0.1-2,0.2c-1,0.2-1.9,0.2-2.8,0.7c-0.9,0.3-1.9,0.6-2.8,1C32.9,2,32.7,2,32.5,2.1c-0.6,0.2-1,0.6-1.6,0.7
		c-0.6,0.4-1.3,0.5-1.8,1c-0.6,0.2-1.2,0.6-1.7,1c-0.6,0.3-1.2,0.8-1.7,1.2c-0.6,0.6-1.2,1.1-1.8,1.7c-0.2,0.3-0.4,0.6-0.6,0.9
		c-0.3,0.3-0.5,0.7-0.8,1c-0.3,0.3-0.6,0.7-0.8,1.1c-0.3,0.6-0.6,1.1-0.9,1.6c-0.1,0.4-0.3,0.8-0.5,1.2c-0.3,0.5-0.4,1-0.6,1.5
		c-0.2,0.6-0.4,1.1-0.5,1.6c-0.1,0.2-0.2,0.3-0.2,0.6c-0.2,0.4-0.2,0.9-0.3,1.4c0,0.7-0.3,1.4-0.3,2.1c0,0.6,0,1.3-0.1,1.9
		c0,1,0,2.1,0.1,3.1c0.1,0.4,0.1,0.9,0.2,1.3c0.3,1.2,0.5,2.3,1,3.5c0.2,0.8,0.6,1.6,0.9,2.3c0.2,0.4,0.6,0.8,0.7,1.3
		c0.3,0.5,0.5,1.1,1,1.5c0.1,0.2,0.3,0.3,0.3,0.4c0.2,0.3,0.4,0.6,0.6,0.8c0.3,0.3,0.5,0.6,0.8,0.9c0.1,0.3,0.4,0.4,0.5,0.6
		c0.2,0.2,0.6,0.4,0.7,0.7c0.5,0.2,0.7,0.6,1.1,0.9c1,0.9,2.1,1.6,3.2,2.2c0.5,0.2,1,0.5,1.5,0.7c0.7,0.3,1.4,0.6,2,0.9
		c0.6,0.1,1.1,0.4,1.7,0.4c0.2,0,0.4,0.2,0.7,0.2c0.8,0.2,1.6,0.4,2.5,0.6c1.3,0,2.7,0.3,4,0.1c1.8,0,3.5-0.3,5.1-0.7
		c0.7-0.3,1.5-0.5,2.3-0.7c0.9-0.5,1.9-0.8,2.7-1.3c0.2-0.1,0.4-0.3,0.7-0.3c0.6-0.3,1.2-0.9,1.8-1.3c0.9-0.6,1.7-1.2,2.5-1.9
		c0.7-0.8,1.4-1.6,2-2.5c0.7-0.8,1.3-1.7,1.7-2.6c0.1-0.1,0.1-0.2,0.2-0.3c0-0.2,0.2-0.4,0.3-0.6c0.2-0.7,0.6-1.3,0.9-2
		c0.2-0.4,0.3-0.8,0.4-1.2c0.3-0.7,0.5-1.4,0.7-2.2c0.2-1.4,0.5-2.7,0.7-4.1C63.9,22.5,63.7,21.5,63.6,20.6L63.6,20.6z M63.1,24.3
		c-0.1,1.2-0.3,2.5-0.6,3.6c-0.1,0.9-0.6,1.5-0.8,2.4c-0.2,0.5-0.3,1.2-0.6,1.6c-0.4,0.7-0.7,1.3-1,2c-0.5,0.9-2.3,3.9-4.2,5.1
		c-0.7,0.5-1.4,1-2.1,1.5L52.9,41c-0.4,0.1-0.7,0.5-1.1,0.7c-0.3,0.2-0.6,0.3-0.9,0.4c-0.9,0.5-1.8,1-2.8,1.2
		c-0.8,0.3-1.6,0.4-2.4,0.8c-1,0.2-2,0.3-3,0.4c-1,0-2.1,0.2-3,0c-0.6-0.1-1.3-0.1-1.9-0.1c-0.3,0-0.5-0.1-0.7-0.2
		c-0.7-0.1-1.3-0.4-2-0.4c-0.8-0.2-1.6-0.5-2.4-0.7C32.5,43,32.3,43,32.1,43c-0.8-0.5-1.7-0.8-2.4-1.3l-0.2-0.1
		c-0.6-0.5-1.3-0.9-1.9-1.3c-0.7-0.6-1.5-1-2.2-1.7c-0.5-0.4-0.8-0.9-1.2-1.3c-0.3-0.3-0.6-0.6-0.9-0.9c-0.6-0.6-0.9-1.4-1.4-2
		c-0.5-0.6-0.6-1.3-1-1.9c-0.2-0.5-0.5-1-0.7-1.5c-0.3-0.8-0.5-1.6-0.8-2.4c-0.1-0.5-0.3-1.1-0.4-1.7c-0.1-0.9-0.3-1.7-0.2-2.6
		c-0.1-0.5-0.1-1.1,0-1.6c-0.1-0.2,0-0.4,0-0.6c-0.1-0.4,0.1-0.8,0-1.2c0-0.7,0.3-1.3,0.2-2.1c0.1-0.5,0.2-0.9,0.2-1.4
		c0.1-0.3,0.2-0.6,0.3-0.8c0-0.5,0.3-0.9,0.4-1.4c0.2-0.6,0.4-1.1,0.7-1.6c0.3-0.6,0.6-1.2,0.8-1.8c0.5-0.6,0.7-1.3,1.3-1.8
		c0.3-0.5,0.7-1,1.1-1.5c0.2-0.5,0.6-0.7,1-1.1c0.7-0.7,1.4-1.2,2.3-1.7c0.5-0.3,1-0.7,1.5-1c0.1-0.1,0.3-0.1,0.4-0.2
		C29.9,4,30.8,3.4,31.7,3c1.1-0.6,2.4-1,3.6-1.4c0.4-0.1,0.9-0.2,1.3-0.4c0.4,0,0.7-0.2,1.1-0.3c0.4-0.1,0.8-0.1,1.2-0.2
		c0.8-0.1,1.7,0.1,2.5,0.1c0.3,0,0.6-0.1,1,0c0.2,0,0.4,0,0.6,0c0.7,0,1.3,0.1,1.9,0.2c0.3,0.1,0.6,0.2,0.9,0.2
		c0.4,0,0.7,0.3,1.1,0.3c0.4,0.1,0.8,0.2,1.2,0.3c1,0.4,2,0.8,3,1.2c0.7,0.5,1.5,0.7,2.2,1.3c0.6,0.4,1.1,0.8,1.7,1.2
		c0.3,0.2,0.5,0.5,0.8,0.7c0.4,0.4,0.7,0.7,1.1,1c0.3,0.3,0.6,0.6,0.9,0.9c0.3,0.3,0.5,0.7,0.8,1c0.6,0.8,1.2,1.6,1.6,2.5
		c0.5,0.5,0.7,1.2,1,1.8c0.3,0.9,0.8,1.8,1,2.8c0.2,0.8,0.5,1.6,0.7,2.4c0.1,0.7,0.2,1.4,0.2,2.1c0.1,0.6,0.1,1.2,0,1.8
		C63.2,23.1,63.2,23.7,63.1,24.3L63.1,24.3z"/>
	<path class="st1" d="M61.1,21c-0.2-0.4-0.3,0.2-0.4,0.3c-0.3,0.1-0.6,0.2-0.9,0.2c-0.6-0.1-1,0.1-1.5,0c-0.1-0.1-0.3,0.1-0.3-0.1
		c-0.1-0.1-0.2-0.3-0.3-0.2c0,0-0.1,0-0.1,0.1c0.1,0.4,0.1,1.1,0.1,1.6c0,0.3,0.6,1.1,0.8,1.2c0.3,0.2,0.7,0.2,1.1,0.2
		c0.4,0,0.7-0.3,1-0.5l0.3-0.4c0.1-0.1,0-0.3,0.1-0.4c0-0.3,0.1-0.7,0.1-1C61.1,21.7,61.2,21.3,61.1,21L61.1,21z M60.5,23
		c-0.4,0.6-1.2,0.5-1.8,0.4c-0.2-0.1-0.4-0.2-0.5-0.5c0-0.1-0.1-0.4,0-0.5c0.3-0.2,0.6-0.1,1-0.1c0.3,0,1.2-0.1,1.3,0
		C60.5,22.5,60.5,22.9,60.5,23L60.5,23z"/>
</g>
</svg>
