<svg xmlns="http://www.w3.org/2000/svg" xmlns:xlink="http://www.w3.org/1999/xlink" viewBox="0 0 312.48 166.12"><defs><style>.cls-1{fill:none;}.cls-2{clip-path:url(#clip-path);}.cls-3{fill:#43b7ba;}.cls-4{fill:#5b2a82;}.cls-5{fill:#ec672a;}.cls-6{fill:#1b2844;}</style><clipPath id="clip-path" transform="translate(-6.83 -5.29)"><rect class="cls-1" width="327.33" height="178"/></clipPath></defs><g id="Layer_2" data-name="Layer 2"><g id="Layer_1-2" data-name="Layer 1"><g class="cls-2"><path class="cls-3" d="M77.93,44.91A29.36,29.36,0,1,0,48.57,74.27,29.37,29.37,0,0,0,77.93,44.91" transform="translate(-6.83 -5.29)"/><path class="cls-4" d="M90.68,7.72V82.11a2.42,2.42,0,0,0,4.13,1.71l36.05-36a4.06,4.06,0,0,0,0-5.73l-36-36a2.43,2.43,0,0,0-4.15,1.71" transform="translate(-6.83 -5.29)"/><path class="cls-5" d="M90.3,169.83V91.15a3.21,3.21,0,0,0-3.2-3.21H8.41A1.58,1.58,0,0,0,7.3,90.63L87.61,171a1.58,1.58,0,0,0,2.69-1.12" transform="translate(-6.83 -5.29)"/><path class="cls-6" d="M155.65,169.62a3.15,3.15,0,0,1-5.66,0L113.81,89.83a1.43,1.43,0,0,1,1.3-1.89H132a3.21,3.21,0,0,1,2.95,2l18,44.79L171,90a3.23,3.23,0,0,1,2.95-2h16.85A1.31,1.31,0,0,1,192,89.83Z" transform="translate(-6.83 -5.29)"/><rect class="cls-6" x="203.86" y="82.65" width="18.86" height="82.5" rx="2.12"/><path class="cls-6" d="M319.31,145.34c0,11.2-6.95,25.11-29.82,25.11H260a2.11,2.11,0,0,1-2.12-2.12V90.07A2.12,2.12,0,0,1,260,87.94h29.46c22.87,0,29.82,14,29.82,25.23,0,5.66-4.36,13.32-10.61,15.91,6.13,2.36,10.61,8.84,10.61,16.26m-19.09-32.17c0-1.89-1.3-7.78-9.55-7.78h-14v16.38h14.26c8.13-.23,9.31-6.36,9.31-8.6m0,32.17c0-2.47-1.18-7.66-9.31-7.89H276.65v15.44h14c8.25,0,9.55-5.66,9.55-7.55" transform="translate(-6.83 -5.29)"/></g></g></g></svg>