<svg width="18" height="13" viewBox="0 0 18 13" fill="none" xmlns="http://www.w3.org/2000/svg">
<path d="M17.55 1.97321C17.325 1.16072 16.7625 0.580357 15.975 0.348214C14.625 2.07552e-07 8.88749 0 8.88749 0C8.88749 0 3.26251 2.07552e-07 1.80001 0.348214C1.01251 0.580357 0.449997 1.16072 0.224997 1.97321C-3.43658e-06 3.48214 0 6.5 0 6.5C0 6.5 3.41982e-06 9.51786 0.337503 11.0268C0.562503 11.8393 1.125 12.4196 1.9125 12.6518C3.2625 13 9 13 9 13C9 13 14.625 13 16.0875 12.6518C16.875 12.4196 17.4375 11.8393 17.6625 11.0268C18 9.51786 18 6.5 18 6.5C18 6.5 18 3.48214 17.55 1.97321ZM7.19999 9.28571V3.71429L11.925 6.5L7.19999 9.28571Z" fill="#FF0000"/>
</svg>
