<svg width="14" height="10" viewBox="0 0 14 10" fill="none" xmlns="http://www.w3.org/2000/svg">
<path d="M13.65 1.4875C13.475 0.875001 13.0375 0.4375 12.425 0.2625C11.375 1.56462e-07 6.91249 0 6.91249 0C6.91249 0 2.53751 1.56462e-07 1.40001 0.2625C0.787505 0.4375 0.349997 0.875001 0.174997 1.4875C-2.6729e-06 2.625 0 4.9 0 4.9C0 4.9 2.65986e-06 7.175 0.262503 8.3125C0.437503 8.925 0.874997 9.3625 1.4875 9.5375C2.5375 9.8 7 9.8 7 9.8C7 9.8 11.375 9.8 12.5125 9.5375C13.125 9.3625 13.5625 8.925 13.7375 8.3125C14 7.175 14 4.9 14 4.9C14 4.9 14 2.625 13.65 1.4875ZM5.59999 7V2.8L9.27501 4.9L5.59999 7Z" fill="#F3F3F3"/>
</svg>
