<svg id="Livello_1" data-name="Livello 1" xmlns="http://www.w3.org/2000/svg" viewBox="0 0 463.26 217.88"><defs><style>.cls-1{fill:#2181c4;}.cls-2{fill:#004876;}.cls-3{fill:#004976;}</style></defs><path class="cls-1" d="M754.51,507.41V619.23H691.44l.33-154.52H629.43l-.34,154.52h-62.8V497.9a94.1,94.1,0,0,1,94.11-94.11h0a94.1,94.1,0,0,1,94.11,94.11Z" transform="translate(-566.29 -403.79)"/><path class="cls-1" d="M82.85,85.38h0a8.56,8.56,0,0,1,8.56,8.56v18.73a0,0,0,0,1,0,0H74.29a0,0,0,0,1,0,0V93.94A8.56,8.56,0,0,1,82.85,85.38Z"/><path class="cls-1" d="M105.37,85.38h0a8.56,8.56,0,0,1,8.56,8.56v18.73a0,0,0,0,1,0,0H96.81a0,0,0,0,1,0,0V93.94A8.56,8.56,0,0,1,105.37,85.38Z"/><path class="cls-2" d="M789.62,619.23V464.71h80.77V491h-50.6v34.69h38.92v26.27H819.79v41h54v26.27Z" transform="translate(-566.29 -403.79)"/><path class="cls-3" d="M999.38,619.23V464.71h30.17V619.23Z" transform="translate(-566.29 -403.79)"/><path class="cls-3" d="M979.15,575.44a46.22,46.22,0,0,1-92.44,0V464.71h30.16V578.83c0,8.67,6.67,16.16,15.33,16.54a16.06,16.06,0,0,0,16.79-16V464.71h30.16V575.44Z" transform="translate(-566.29 -403.79)"/></svg>