<svg xmlns="http://www.w3.org/2000/svg" viewBox="0 0 93.23 71.14"><defs><style>.cls-1{fill:#db316c;}.cls-2{fill:#4b9bd9;}</style></defs><g id="Layer_2" data-name="Layer 2"><g id="Main_layer" data-name="Main layer"><path class="cls-1" d="M50.15,58.61c-.15,0-.46.14-.65.83a37.35,37.35,0,0,0-.77,5.84c-.19.88-1.55,2-2.68,1.36a13.44,13.44,0,0,0-2.16-1,12.85,12.85,0,0,0-2.29-.73c-1.29-.29-1.49-2-1-2.82A39.3,39.3,0,0,0,44,57.27c.34-.66.18-1,.09-1.07a23.08,23.08,0,0,1-2.3-1.48c-.13,0-.48-.06-.93.52a37.69,37.69,0,0,0-2.95,5.1c-.51.74-2.21,1.29-3,.23a14.4,14.4,0,0,0-1.61-1.78,13.52,13.52,0,0,0-1.83-1.55c-1.08-.76-.59-2.47.13-3a38.49,38.49,0,0,0,5-3.11c.57-.48.54-.81.49-1a22.75,22.75,0,0,1-1.55-2.23c-.11-.1-.42-.25-1.06.11a37.32,37.32,0,0,0-4.68,3.59c-.75.48-2.53.33-2.86-.94a13.11,13.11,0,0,0-.8-2.26,13.62,13.62,0,0,0-1.1-2.13c-.7-1.11.41-2.5,1.27-2.72a37.23,37.23,0,0,0,5.82-1c.69-.22.8-.52.82-.68a20.12,20.12,0,0,1-.57-2.67c-.07-.14-.29-.39-1-.3a36.92,36.92,0,0,0-5.69,1.52c-.88.16-2.47-.66-2.28-2a14.7,14.7,0,0,0,.13-2.4,14.47,14.47,0,0,0-.2-2.39c-.23-1.29,1.32-2.15,2.21-2a36.76,36.76,0,0,0,5.74,1.35c.75.06,1-.2,1-.33a19.63,19.63,0,0,1,.48-2.69c0-.16-.15-.46-.84-.66a38.48,38.48,0,0,0-5.84-.77c-.87-.19-2-1.55-1.36-2.69a13.44,13.44,0,0,0,1-2.16,12.9,12.9,0,0,0,.73-2.28c.29-1.29,2.06-1.48,2.82-1a39.08,39.08,0,0,0,4.79,3.44c.66.34,1,.19,1.07.08a22.93,22.93,0,0,1,1.48-2.29c.05-.14.06-.48-.52-.93a38.57,38.57,0,0,0-5.1-3c-.74-.51-1.28-2.2-.22-3a13.38,13.38,0,0,0,1.77-1.6,14.54,14.54,0,0,0,1.56-1.84c.75-1.08,2.46-.58,3,.13a36.07,36.07,0,0,0,3.11,5c.47.57.81.54,1,.49a23.44,23.44,0,0,1,2.24-1.55c.09-.11.25-.42-.12-1.06A38.87,38.87,0,0,0,39.75,9.7c-.49-.74-.34-2.52.93-2.84A15.34,15.34,0,0,0,43,6.06,15.66,15.66,0,0,0,45.07,5c1.11-.71,2.51.4,2.73,1.26a36.87,36.87,0,0,0,1,5.82c.22.68.53.79.68.81a27,27,0,0,1,2.67-.57c.14-.06.39-.29.31-1a36.84,36.84,0,0,0-1.53-5.7c-.16-.87.66-2.45,2-2.27a20.56,20.56,0,0,0,4.7-.21c1.3-.23,2.16,1.33,2,2.21A37,37,0,0,0,58.23,11c-.06.74.2,1,.34,1,.63.08,1.26.22,1.88.34L62.64,0H12.57L0,71.14H50.07L52.21,59C51.52,58.88,50.83,58.77,50.15,58.61Z"/><polygon class="cls-1" points="86.1 0 73.53 71.14 80.66 71.14 93.23 0 86.1 0"/><path class="cls-2" d="M76.91,35.57a3.14,3.14,0,0,1-.25,1.23s0,0,0,0a2.42,2.42,0,0,1-.29.55s0,0,0,0a3.48,3.48,0,0,1-.41.52L64.28,49.56a3.3,3.3,0,1,1-4.67-4.66l6-6H39.87a3.3,3.3,0,0,1,0-6.6H65.64l-6-6a3.3,3.3,0,1,1,4.67-4.66L75.94,33.24a3.39,3.39,0,0,1,.41.51l0,0a3.17,3.17,0,0,1,.28.55,0,0,0,0,1,0,0A3.18,3.18,0,0,1,76.91,35.57Z"/></g></g></svg>