<svg width="79" height="78" viewBox="0 0 79 78" fill="none" xmlns="http://www.w3.org/2000/svg">
<path d="M71.2325 49.4287C69.6973 36.1859 68.9297 29.5645 68.8859 28.9244C68.8991 28.7113 68.8991 28.4975 68.8859 28.2843C68.4034 25.6137 65.7938 24.0687 63.513 22.7003C61.2307 21.3793 58.7602 20.419 56.1882 19.8531L55.6179 19.7207L54.8942 19.5662H54.5434C54.5027 19.5449 54.4576 19.5338 54.4118 19.5338C54.366 19.5338 54.3209 19.5449 54.2802 19.5662C54.2621 19.608 54.2528 19.653 54.2528 19.6986C54.2528 19.7442 54.2621 19.7893 54.2802 19.831V20.0076L54.4557 23.4507L45.2668 39.1655L34.2577 39.2096L25.4855 23.5611V20.0076V19.7648C25.5196 19.6799 25.5196 19.5849 25.4855 19.5C25.4455 19.4767 25.4001 19.4645 25.3539 19.4645C25.3077 19.4645 25.2623 19.4767 25.2223 19.5H24.8713L24.1477 19.6545L23.5775 19.7869C21.0117 20.3505 18.5481 21.311 16.2746 22.6341C13.9719 24.0025 11.3623 25.5475 10.8798 28.2181C10.8665 28.4313 10.8665 28.645 10.8798 28.8582C10.8798 29.6086 10.0684 36.208 8.53323 49.3624C8.20427 52.1655 7.87526 55.0568 7.52438 57.9702C7.49383 58.0483 7.49383 58.135 7.52438 58.213C7.55878 58.2289 7.59616 58.2371 7.634 58.2371C7.67185 58.2371 7.70922 58.2289 7.74363 58.213L23.3583 58.3234H56.4513L72.0658 58.213C72.1437 58.2417 72.2291 58.2417 72.307 58.213C72.3233 58.1747 72.3318 58.1334 72.3318 58.0917C72.3318 58.0499 72.3233 58.0086 72.307 57.9702C71.9123 55.1672 71.5395 52.2759 71.2325 49.4287ZM28.446 46.4932V42.9397C28.4605 42.9047 28.468 42.8672 28.468 42.8293C28.468 42.7914 28.4605 42.7539 28.446 42.719L24.6301 39.0331L24.9152 33.2504C25.1346 33.6035 25.3978 34.0229 25.7706 34.5747L28.8627 39.3421C30.6172 42.0127 33.4463 46.3166 33.6217 46.5373H28.5776L28.446 46.4932ZM27.854 43.0721V46.7801V47.8175L24.2135 45.6103L24.4986 39.8276L27.854 43.0721ZM27.854 48.5899V51.9448C27.832 52.0016 27.832 52.0646 27.854 52.1214H23.8187L24.1038 46.2724L27.854 48.5899ZM52.1529 48.5899L55.4644 46.2504L55.7495 52.0331H52.2626C52.2626 52.0331 52.2626 51.9006 52.2626 51.8344L52.1529 48.5899ZM52.1529 47.8395V46.9125C52.1529 46.9125 52.1529 46.9125 52.1529 46.8022V43.1163C52.4818 42.719 54.0609 40.9091 55.2671 39.5848L55.5522 45.6103L52.1529 47.8395ZM54.982 38.7462C51.4951 42.6748 51.4732 42.719 51.4512 42.7631C51.4388 42.8213 51.4388 42.8815 51.4512 42.9397V46.5152H45.5737H45.6835L50.4204 39.32L53.6443 34.376C54.1048 33.6697 54.4556 33.0959 54.675 32.7207V32.5882L54.982 38.7682V38.7462ZM54.4118 24.5984L54.7626 31.5288H54.5873V31.6613C54.2803 32.3013 49.3898 39.7614 45.8151 45.1468L45.6615 39.629L54.4118 24.5984ZM25.288 24.7529L33.7533 39.6952C33.6217 42.7631 33.5558 44.4185 33.5339 45.3234C31.626 42.4762 25.3977 32.9414 24.9152 32.0806L25.288 24.7529ZM23.095 57.9923H8.13849C8.46745 55.1893 8.7963 52.4083 9.12526 49.7377C10.6604 36.4949 11.3183 29.8735 11.4718 29.1893C11.4552 28.9984 11.4552 28.8063 11.4718 28.6154C11.9104 26.2317 14.279 24.8192 16.5597 23.4728C18.7861 22.1754 21.1974 21.23 23.7091 20.6698H24.2574L24.9152 20.5373L23.095 57.9923ZM56.8023 57.9923L54.9381 20.3166L55.596 20.449H56.1443C58.657 21.0059 61.0688 21.9515 63.2936 23.2521C65.4867 24.5984 67.9429 26.011 68.3815 28.3947C68.3815 28.6596 68.3815 28.8582 68.3815 28.9685C68.3815 29.741 69.193 36.3404 70.7281 49.5169C71.0351 52.2317 71.3641 55.0127 71.693 57.7716L56.8023 57.9923Z" fill="#F3F3F3"/>
<path d="M17.5029 33.9126L17.9854 27.865C17.9871 27.8102 17.9761 27.7557 17.9533 27.7059C17.9304 27.6561 17.8964 27.6123 17.8538 27.5781C17.8056 27.5561 17.7532 27.5448 17.7003 27.5448C17.6473 27.5448 17.595 27.5561 17.5468 27.5781L16.4502 28.0636C16.3983 28.0882 16.3532 28.1252 16.3188 28.1714C16.2844 28.2176 16.2617 28.2715 16.2528 28.3285L15.8361 34.376C15.8344 34.4309 15.8454 34.4854 15.8682 34.5352C15.8911 34.585 15.9251 34.6287 15.9677 34.663C16.0247 34.6815 16.0861 34.6815 16.1432 34.663H16.2747L17.3275 34.1774C17.4167 34.1142 17.4791 34.0197 17.5029 33.9126ZM16.8889 33.6698L16.4941 33.8684L16.8669 28.5492L17.3056 28.3506L16.8889 33.6698Z" fill="#F3F3F3"/>
<path d="M21.0997 32.0806L20.0032 32.5661C19.9494 32.5852 19.9031 32.6213 19.8715 32.6691C19.8399 32.7169 19.8245 32.7737 19.8277 32.831L19.3891 38.8785C19.3874 38.9334 19.3984 38.9878 19.4212 39.0376C19.4441 39.0874 19.4782 39.1312 19.5208 39.1654H19.6961H19.8497L20.8805 38.6578C20.9295 38.6321 20.9712 38.5943 21.0019 38.548C21.0326 38.5017 21.0511 38.4484 21.0558 38.393L21.5384 32.3675C21.5401 32.3127 21.5291 32.2582 21.5062 32.2084C21.4834 32.1586 21.4494 32.1148 21.4068 32.0806C21.3601 32.0535 21.3072 32.0392 21.2533 32.0392C21.1994 32.0392 21.1464 32.0535 21.0997 32.0806ZM20.4418 38.1943L20.0471 38.3709L20.4199 33.0517L20.8805 32.8531L20.4418 38.1943Z" fill="#F3F3F3"/>
<path d="M18.6432 46.3167L17.5466 46.8022C17.4963 46.8262 17.4533 46.8635 17.4224 46.9102C17.3915 46.9568 17.3738 47.0111 17.3712 47.0671L16.9325 53.1367C16.9284 53.1887 16.9386 53.2409 16.9618 53.2875C16.985 53.3342 17.0203 53.3736 17.0641 53.4016H17.2396H17.3931L18.4239 52.916C18.4759 52.8942 18.5202 52.8574 18.5515 52.8103C18.5827 52.7632 18.5993 52.7078 18.5993 52.6511L19.0818 46.6257C19.0835 46.5708 19.0725 46.5164 19.0497 46.4666C19.0268 46.4168 18.9928 46.373 18.9502 46.3387C18.9055 46.3082 18.8535 46.2901 18.7996 46.2862C18.7457 46.2823 18.6917 46.2928 18.6432 46.3167ZM17.9853 52.4525L17.5905 52.6291L17.9633 47.3099L18.4239 47.1112L17.9853 52.4525Z" fill="#F3F3F3"/>
<path d="M12.3275 47.8616L11.4065 48.3471C11.3603 48.3708 11.3202 48.4052 11.2897 48.4474C11.2593 48.4895 11.2391 48.5384 11.231 48.5899L10.8801 54.6375C10.8738 54.6953 10.885 54.7537 10.9124 54.805C10.9398 54.8562 10.9821 54.8979 11.0335 54.9244C11.0834 54.9412 11.1373 54.9412 11.1871 54.9244H11.3406L12.2179 54.4167C12.2641 54.393 12.304 54.3587 12.3345 54.3165C12.365 54.2743 12.3852 54.2255 12.3934 54.174L12.7881 48.1264C12.7898 48.0716 12.7788 48.0171 12.756 47.9673C12.7331 47.9175 12.6991 47.8738 12.6565 47.8395C12.6053 47.8113 12.5471 47.7984 12.4888 47.8023C12.4305 47.8062 12.3746 47.8268 12.3275 47.8616ZM11.7792 53.9753L11.538 54.1077L11.8451 48.8106L12.3275 48.7003L11.7792 53.9753Z" fill="#F3F3F3"/>
<path d="M13.84 36.1417L12.897 36.6273C12.8521 36.6557 12.8146 36.6946 12.7879 36.7408C12.7612 36.7869 12.7459 36.8388 12.7435 36.8921L12.3707 42.9397C12.3672 42.9972 12.3797 43.0545 12.4068 43.1052C12.434 43.1559 12.4746 43.198 12.5242 43.2266C12.5806 43.2488 12.6432 43.2488 12.6996 43.2266H12.8531L13.7304 42.719C13.7736 42.6941 13.8102 42.659 13.8369 42.6167C13.8637 42.5744 13.8798 42.5262 13.8839 42.4762L14.3006 36.4287C14.3018 36.3716 14.2881 36.3151 14.2612 36.2649C14.2343 36.2146 14.1951 36.1722 14.1471 36.1417C14.1004 36.1146 14.0474 36.1003 13.9935 36.1003C13.9396 36.1003 13.8867 36.1146 13.84 36.1417ZM13.2698 42.2776L13.0286 42.41L13.3575 37.1129L13.6208 36.9805L13.2698 42.2776Z" fill="#F3F3F3"/>
<path d="M59.0615 32.6103L60.1141 33.0959H60.2457C60.3027 33.1144 60.3642 33.1144 60.4212 33.0959C60.4634 33.0663 60.4975 33.0266 60.5205 32.9803C60.5435 32.9341 60.5546 32.8827 60.5528 32.831L60.1361 26.7614C60.124 26.7056 60.1001 26.653 60.0661 26.6073C60.032 26.5616 59.9887 26.5238 59.9388 26.4966L58.8423 26.011C58.7956 25.9839 58.7426 25.9696 58.6887 25.9696C58.6348 25.9696 58.5819 25.9839 58.5352 26.011C58.4926 26.0453 58.4586 26.089 58.4357 26.1388C58.4129 26.1886 58.4019 26.2431 58.4036 26.2979L58.886 32.3234C58.891 32.3817 58.9095 32.438 58.94 32.4878C58.9704 32.5376 59.0121 32.5796 59.0615 32.6103ZM59.5221 26.9821L59.8949 32.3013L59.5001 32.1248L59.0835 26.7835L59.5221 26.9821Z" fill="#F3F3F3"/>
<path d="M66.6054 38.5916C66.6549 38.6102 66.7095 38.6102 66.759 38.5916C66.807 38.5612 66.8464 38.5188 66.8733 38.4685C66.9002 38.4182 66.9137 38.3618 66.9125 38.3047L66.5396 32.2572C66.5371 32.2038 66.5219 32.1519 66.4952 32.1058C66.4684 32.0597 66.4311 32.0207 66.3862 31.9923L65.4431 31.5068C65.3964 31.4796 65.3436 31.4653 65.2897 31.4653C65.2358 31.4653 65.1828 31.4796 65.1361 31.5068C65.0881 31.5372 65.0487 31.5796 65.0218 31.6299C64.9949 31.6802 64.9814 31.7366 64.9826 31.7937L65.3993 37.8412C65.4034 37.8912 65.4195 37.9394 65.4463 37.9817C65.473 38.024 65.5096 38.0591 65.5528 38.084L66.4519 38.5916H66.6054ZM66.0133 37.5984L65.6625 32.2792L65.9256 32.4337L66.2546 37.7308L66.0133 37.5984Z" fill="#F3F3F3"/>
<path d="M61.8248 38.7682L60.7282 38.2826C60.6816 38.2555 60.6286 38.2412 60.5747 38.2412C60.5208 38.2412 60.4679 38.2555 60.4212 38.2826C60.3786 38.3169 60.3446 38.3606 60.3217 38.4104C60.2989 38.4602 60.2879 38.5147 60.2896 38.5695L60.7721 44.595C60.7803 44.6494 60.8002 44.7013 60.8305 44.7471C60.8608 44.7929 60.9007 44.8313 60.9475 44.8598L62.0002 45.3675H62.1318H62.3072C62.3497 45.3333 62.3838 45.2895 62.4066 45.2397C62.4295 45.1899 62.4405 45.1354 62.4387 45.0806L62.0221 39.033C62.0175 38.9746 61.9966 38.9187 61.9617 38.8718C61.9267 38.8249 61.8792 38.7889 61.8248 38.7682ZM61.3861 44.3964L60.9694 39.0551L61.4081 39.2537L61.7809 44.5729L61.3861 44.3964Z" fill="#F3F3F3"/>
<path d="M67.439 47.4864L66.4521 47.0008C66.4039 46.9789 66.3516 46.9675 66.2986 46.9675C66.2457 46.9675 66.1933 46.9789 66.1451 47.0008C66.0995 47.0323 66.0633 47.0756 66.0401 47.1261C66.017 47.1766 66.0077 47.2324 66.0135 47.2877L66.4521 53.3353C66.4518 53.3864 66.466 53.4364 66.4932 53.4795C66.5205 53.5226 66.5596 53.5568 66.6057 53.5781L67.5487 54.0857H67.7022C67.752 54.1025 67.8059 54.1025 67.8557 54.0857C67.9053 54.057 67.946 54.015 67.9731 53.9643C68.0002 53.9136 68.0128 53.8563 68.0093 53.7988L67.6145 47.7513C67.6119 47.6952 67.5942 47.641 67.5633 47.5943C67.5323 47.5477 67.4894 47.5103 67.439 47.4864ZM67.1539 53.1146L66.7812 47.7954L67.11 47.9499L67.461 53.2691L67.1539 53.1146Z" fill="#F3F3F3"/>
<path d="M60.3546 50.0466L59.2799 49.561C59.2333 49.5339 59.1804 49.5197 59.1265 49.5197C59.0726 49.5197 59.0197 49.5339 58.973 49.561C58.9233 49.5883 58.8837 49.6309 58.86 49.6826C58.8363 49.7343 58.8298 49.7923 58.8414 49.848L59.3238 55.8734C59.3238 55.9301 59.3405 55.9855 59.3718 56.0326C59.403 56.0797 59.4474 56.1165 59.4993 56.1383L60.53 56.6239H60.6616C60.7449 56.6182 60.8231 56.5809 60.8801 56.5194C60.9372 56.4579 60.9688 56.3769 60.9686 56.2928L60.5519 50.2452C60.5355 50.1996 60.5093 50.1581 60.4752 50.1238C60.4411 50.0895 60.4 50.0631 60.3546 50.0466ZM59.916 55.6969L59.4993 50.3556L59.938 50.5542L60.3107 55.8734L59.916 55.6969Z" fill="#F3F3F3"/>
</svg>
