<svg id="Layer_1" data-name="Layer 1" xmlns="http://www.w3.org/2000/svg" viewBox="0 0 770.54 278.04"><defs><style>.cls-1{fill:#ff141e;}.cls-2{fill:#58595b;}</style></defs><path class="cls-1" d="M88,64A29.36,29.36,0,1,0,58.62,93.29,29.37,29.37,0,0,0,88,64Z" transform="translate(-29.27 -34.58)"/><path class="cls-2" d="M104.9,311.75a59.34,59.34,0,0,0,59.47-59.22v-144a59.35,59.35,0,0,0-59.47,59.22Z" transform="translate(-29.27 -34.58)"/><path class="cls-2" d="M233.82,311.75a59.34,59.34,0,0,1-59.46-59.22v-144a59.34,59.34,0,0,1,59.46,59.22Z" transform="translate(-29.27 -34.58)"/><path class="cls-2" d="M94.91,311.75a59.34,59.34,0,0,1-59.46-59.22v-144a59.34,59.34,0,0,1,59.46,59.22Z" transform="translate(-29.27 -34.58)"/><path class="cls-2" d="M431.36,224a65.73,65.73,0,0,1-29.79-7.9l2.22-14.74c7.71,5.43,17.65,9.64,28.79,9.64,10.43,0,16.6-4,16.6-11.05,0-7.73-4.64-10.54-19.35-14.22-19.16-4.9-26.9-10.87-26.9-25.78,0-13.35,11-23.16,28.77-23.16a64.69,64.69,0,0,1,26.9,5.61l-2.41,14.74C449,153,439.92,150,431.36,150c-9.25,0-14,3.69-14,9.65,0,5.62,4.1,8.79,16.94,12.12,20.21,5.25,29.27,11.21,29.27,27.19,0,15.27-11.13,25.1-32.19,25.1" transform="translate(-29.27 -34.58)"/><path class="cls-2" d="M509.13,223.67c-14.4,0-23.82-5.25-23.82-22.1V151.72H473V138.55h12.33v-27.9l14.9-2.28v30.18h17.64l2,13.17H500.21v47c0,6.84,2.73,11.05,11.3,11.05a40.86,40.86,0,0,0,7-.52l2.06,13.34a56.21,56.21,0,0,1-11.46,1" transform="translate(-29.27 -34.58)"/><path class="cls-2" d="M711.35,224c-21.91,0-38-15.63-38-43.53,0-28.6,17.13-43.68,38.35-43.68,12,0,20.53,3.14,26.71,7.7l-2.23,15.28c-7.55-6.33-15.25-9.3-24.67-9.3-13.33,0-22.75,10.35-22.75,29.83,0,20.35,10.08,30,24.48,30,8.22,0,15.39-1.94,23.8-9.3l2.22,14.05c-8.38,6.48-17,8.94-27.9,8.94" transform="translate(-29.27 -34.58)"/><path class="cls-2" d="M785.62,223.67c-14.36,0-23.77-5.25-23.77-22.1V151.72H749.52V138.55h12.33v-27.9l14.87-2.28v30.18h17.64l2.07,13.17H776.72v47c0,6.84,2.77,11.05,11.31,11.05a40.86,40.86,0,0,0,7-.52l2.07,13.34a56.27,56.27,0,0,1-11.5,1" transform="translate(-29.27 -34.58)"/><path class="cls-2" d="M320.38,222.27a15.43,15.43,0,0,0,15.23-15.62V164.36c7.37-8.06,15.57-13.51,23.63-13.51,8.89,0,12.5,5.79,12.5,14.39v57H387V161.38c0-15.09-8.22-24.56-23.62-24.56-11.64,0-21.25,6.66-28.94,13.84l-1.89-12.11H320.38Z" transform="translate(-29.27 -34.58)"/><path class="cls-2" d="M294,121.46a9.71,9.71,0,0,1-9.76-9.58,9.87,9.87,0,0,1,9.76-9.75,9.71,9.71,0,0,1,9.58,9.75A9.56,9.56,0,0,1,294,121.46Z" transform="translate(-29.27 -34.58)"/><path class="cls-2" d="M301.58,154.18a15.44,15.44,0,0,0-15.24-15.63v68.1a15.42,15.42,0,0,0,15.24,15.61Z" transform="translate(-29.27 -34.58)"/><path class="cls-2" d="M645,154.18a15.45,15.45,0,0,1,15.26-15.63v83.71H648.09l-1.88-12.1c-7.71,7.38-17.47,13.88-29,13.88-15.57,0-23.61-9.49-23.61-24.59v-60.9h15.24v57c0,8.6,3.59,14.4,12.48,14.4,8.06,0,16.28-5.45,23.64-13.51Z" transform="translate(-29.27 -34.58)"/><path class="cls-2" d="M536.09,222.27a15.46,15.46,0,0,0,15.25-15.62V172.79c5.46-11.06,16.94-20.36,30.45-21.07l-2.4-14.9c-13.34.69-22.77,9.29-28.58,18.77l-2.57-17H536.09Z" transform="translate(-29.27 -34.58)"/><path class="cls-2" d="M594.33,311.32V236.77h43.32v12.1H608.48v17.4H631l1.95,12.42H608.48v20.53h30.25v12.1Z" transform="translate(-29.27 -34.58)"/><path class="cls-2" d="M705.07,309.38l-14.59,2.7L671,282.8h-6.48v28.52H650.29V236.77h23.12q12.52,0,19.61,5.73t7.08,16.64q0,8.1-4,13.29a23.49,23.49,0,0,1-10.91,7.67Zm-22.48-58.13q-3.45-3-10.26-3h-7.89v23.67h7.24q6.71,0,10.54-3.08t3.83-8.92Q686.05,254.28,682.59,251.25Z" transform="translate(-29.27 -34.58)"/><path class="cls-2" d="M714.9,311.32V236.77h14.37v74.55Z" transform="translate(-29.27 -34.58)"/><path class="cls-2" d="M789.77,310.83a38.41,38.41,0,0,1-11.89,1.79,37.31,37.31,0,0,1-14.64-2.76,31.34,31.34,0,0,1-11.12-7.78A34.61,34.61,0,0,1,745,289.93a47.62,47.62,0,0,1-2.49-15.78,46.79,46.79,0,0,1,2.54-15.77,35.47,35.47,0,0,1,7.19-12.21,32.33,32.33,0,0,1,11.13-7.89,35.8,35.8,0,0,1,14.37-2.8,42.58,42.58,0,0,1,11.61,1.45,37.85,37.85,0,0,1,9.24,3.95l-2.06,13.5a37.25,37.25,0,0,0-8.15-4.62,25.86,25.86,0,0,0-10-1.86q-9.93,0-15.61,7t-5.67,19.19q0,12.4,5.94,19.25T779,300.19a28.24,28.24,0,0,0,9.89-1.73,45.08,45.08,0,0,0,9-4.53l2,12.31A45.23,45.23,0,0,1,789.77,310.83Z" transform="translate(-29.27 -34.58)"/></svg>