<svg xmlns="http://www.w3.org/2000/svg" viewBox="0 0 519.36 103.18"><defs><style>.cls-1{fill:#005291;}.cls-2{fill:#fff;}.cls-3{fill:#e97700;}</style></defs><g id="Layer_2" data-name="Layer 2"><g id="Layer_1-2" data-name="Layer 1"><g id="Primer_plano" data-name="Primer plano"><path class="cls-1" d="M0,103.18V89.07c7.82,4.47,14.18,9,26.09,9,4.83,0,14.69-2.21,25.51-3.94S89,86.58,94.84,86.58a16.61,16.61,0,0,1,8.34,2.4v14.2Z"/><path class="cls-1" d="M103.18,0V84.26c-7.82-4.47-14.18-9-26.08-9-4.84,0-14.7,2.21-25.51,3.94S14.22,86.75,8.34,86.75A16.61,16.61,0,0,1,0,84.35V0Z"/><path class="cls-2" d="M15.73,56h-7V25.27h7Z"/><path class="cls-3" d="M37.81,25.27,49.22,56H41.81l-3.26-9.39H29.16L25.85,56H18.54L29.76,25.27Zm-1.88,13.3c0-.09-.23-.69-.51-1.52l-.55-1.7c-.51-1.52-.74-2.44-1.06-3.73-.14.51-.23.87-.28,1l-.32,1.15c-.6,2-.64,2.21-1.52,4.79L31,40.68h5.75Z"/><path class="cls-2" d="M71.58,32.54A12.31,12.31,0,0,0,65.69,31C59.94,31,56,34.93,56,40.64s3.91,9.75,9.38,9.75a12.53,12.53,0,0,0,6.17-1.61v6.67a18.62,18.62,0,0,1-6.49,1.15c-9.43,0-16.24-6.76-16.24-16.1,0-8.93,6.9-15.74,16-15.74a27.69,27.69,0,0,1,6.72,1v6.81Z"/><path class="cls-2" d="M94.12,32.72a18.15,18.15,0,0,0-7.37-1.84c-2.39,0-4,.88-4,2.21,0,1.15.83,1.66,4.14,2.76l2.76.92C94.53,38.34,97,41.46,97,45.88c0,6.35-5.1,10.58-12.79,10.58a26.63,26.63,0,0,1-9.56-1.88V47.35l.46.19A19.22,19.22,0,0,0,84,49.84c3.32,0,5.53-1.57,5.53-3.87,0-1.79-.93-2.53-4.51-3.72-7.87-2.58-9.76-4.33-9.76-8.79,0-5.29,4.42-8.74,11.18-8.74a22.8,22.8,0,0,1,7.69,1.38v6.62Z"/><path class="cls-1" d="M119.81,55.91h-5.35V25.22h5.35Z"/><path class="cls-1" d="M130.9,34.89l0,2A8.46,8.46,0,0,1,137,34.47c5.07,0,7.63,2.86,7.63,8.47v13h-4.7V44.13c0-3.86-1.13-5.38-4.12-5.38A6.52,6.52,0,0,0,131.13,41V55.91h-4.69v-21Z"/><path class="cls-1" d="M163.11,40A10.21,10.21,0,0,0,158,38.43c-1.94,0-3.31.78-3.31,1.88,0,.79.71,1.29,2.51,1.89l1.8.6c4.22,1.42,6,3.36,6,6.48,0,4.24-3.7,7.18-9,7.18A21.08,21.08,0,0,1,148.9,55V50.34a15.07,15.07,0,0,0,7,1.93c2.46,0,4.17-1.24,4.17-3,0-1.52-.86-2.17-4.27-3.27-4.41-1.43-6-3-6-5.66,0-3.5,3.08-5.84,7.68-5.84a14,14,0,0,1,5.63,1.15V40Z"/><path class="cls-1" d="M175.1,34.89h5.83V39H175.1v8.33c0,3.59.76,4.69,3.22,4.69a4.76,4.76,0,0,0,2.61-.74v4.33a11.21,11.21,0,0,1-3.7.64c-4.59,0-6.82-2.44-6.82-7.41V39H167V34.89h3.46V28.77l4.69-1.94Z"/><path class="cls-1" d="M187.37,31.9a3,3,0,0,1-3-2.9,3,3,0,0,1,6.06,0A3,3,0,0,1,187.37,31.9Zm2.32,24H185v-21h4.69Z"/><path class="cls-1" d="M201.49,34.89h5.83V39h-5.83v8.33c0,3.59.76,4.69,3.22,4.69a4.76,4.76,0,0,0,2.61-.74v4.33a11.21,11.21,0,0,1-3.7.64c-4.59,0-6.82-2.44-6.82-7.41V39h-3.46V34.89h3.46V28.77l4.69-1.94Z"/><path class="cls-1" d="M229.4,55.91h-4.5V54a8.94,8.94,0,0,1-6.16,2.34c-4.93,0-7.63-2.85-7.63-8.09V34.89h4.69V46.75c0,3.73,1.23,5.3,4.07,5.3A7.09,7.09,0,0,0,224.71,50V34.89h4.69v21Z"/><path class="cls-1" d="M241.1,34.89h5.83V39H241.1v8.33c0,3.59.76,4.69,3.22,4.69a4.76,4.76,0,0,0,2.61-.74v4.33a11.21,11.21,0,0,1-3.7.64c-4.59,0-6.82-2.44-6.82-7.41V39H233V34.89h3.46V28.77l4.69-1.94Z"/><path class="cls-1" d="M260,56.46c-6.2,0-10.7-4.6-10.7-11s4.5-11.09,10.75-11.09,10.71,4.65,10.71,11S266.26,56.46,260,56.46Zm.05-17.89c-3.5,0-5.78,2.71-5.78,6.94,0,4.05,2.28,6.77,5.69,6.77s5.83-2.63,5.83-6.72C265.78,41.23,263.56,38.57,260.05,38.57Z"/><path class="cls-1" d="M301.13,25.23l12,30.68h-5.78l-4.26-11.32H293l-4.36,11.32h-5.69l12-30.68ZM299.66,35c-.71-1.84-1.09-3-1.66-4.74-.38,1.38-.9,2.94-1.56,4.74L294.54,40h7Z"/><path class="cls-1" d="M321.17,34.89V37c2-1.75,3.27-2.3,5.26-2.3a6.87,6.87,0,0,1,3,.64v4.79a7.69,7.69,0,0,0-3.46-1,6.13,6.13,0,0,0-4.41,2.07V55.91h-4.69v-21Z"/><path class="cls-1" d="M334.11,35.35a22.35,22.35,0,0,1,6.35-.88c6.44,0,8.86,2,8.86,7.27l-.05,9.06c0,3,.14,3.73,1.13,5.16h-5a8.8,8.8,0,0,1-.57-1.71,9.48,9.48,0,0,1-5.59,2c-4.41,0-7.63-3-7.63-7.08,0-4.51,3.65-7.64,9-7.64a12.93,12.93,0,0,1,4,.65v-.37c0-2.4-1.51-3.5-5-3.5a12,12,0,0,0-5.64,1.43ZM341.59,45c-3,0-5,1.47-5,3.77,0,2,1.66,3.5,4,3.5a6.59,6.59,0,0,0,4.07-1.52l.05-5.2A8.66,8.66,0,0,0,341.59,45Z"/><path class="cls-1" d="M374,35.94a4.11,4.11,0,0,0-2.65-1.1,3.65,3.65,0,0,0-2.66,1.24,6,6,0,0,1,3.51,5.48c0,4.18-3.13,6.53-8.81,6.62-1.81,0-2.52.42-2.52,1.24s.76,1.29,2.8,1.38c7.15.23,10.47,2.49,10.47,7.09s-4.17,7.87-10.52,7.87S353,62.81,353,58.4c0-3.18,2.09-5.39,6-6.22-1.94-.32-2.89-1.1-2.89-2.43s.95-2.17,2.94-2.53a6.07,6.07,0,0,1-4.12-5.75c0-4.1,3.55-7,8.48-7a8.89,8.89,0,0,1,2.56.32c1.8-2.76,3.5-3.87,5.92-3.87a5.6,5.6,0,0,1,2.18.42v4.64ZM357.84,58.07c0,2.44,2.18,3.91,5.88,3.91,3.31,0,5.54-1.56,5.54-3.91s-2.18-3.77-5.73-3.77S357.84,55.73,357.84,58.07ZM363.58,38c-2.33,0-4,1.42-4,3.45s1.56,3.45,3.88,3.45,4-1.38,4-3.45A3.64,3.64,0,0,0,363.58,38Z"/><path class="cls-1" d="M386.74,56.46c-6.2,0-10.7-4.6-10.7-11s4.5-11.09,10.75-11.09,10.71,4.65,10.71,11S393,56.46,386.74,56.46Zm.05-17.89c-3.51,0-5.78,2.71-5.78,6.94,0,4.05,2.27,6.77,5.69,6.77s5.82-2.63,5.82-6.72C392.52,41.23,390.3,38.57,386.79,38.57Z"/><path class="cls-1" d="M406.55,34.89l.05,2a8.44,8.44,0,0,1,6.06-2.39c5.07,0,7.63,2.86,7.63,8.47v13H415.6V44.13c0-3.86-1.14-5.38-4.12-5.38A6.49,6.49,0,0,0,406.79,41V55.91H402.1v-21Z"/><path class="cls-1" d="M429.53,45.05v.33c0,3.86,3,6.71,7.15,6.71a10,10,0,0,0,6.82-2.57l.05,5A16.06,16.06,0,0,1,436,56.42c-6.73,0-11.42-4.6-11.42-11.23,0-6.44,4-10.9,9.72-10.9s9,3.68,9.38,10.76Zm4.74-7.27a4.39,4.39,0,0,0-4.36,3.41h8.48C437.77,38.89,436.45,37.78,434.27,37.78Zm2-6.34h-3.89l3.46-5.76h5.68Z"/><path class="cls-1" d="M460.56,40a10.27,10.27,0,0,0-5.07-1.52c-1.94,0-3.31.78-3.31,1.88,0,.79.71,1.29,2.51,1.89l1.8.6c4.21,1.42,6,3.36,6,6.48,0,4.24-3.69,7.18-9,7.18A21.08,21.08,0,0,1,446.35,55V50.34a15,15,0,0,0,7,1.93c2.47,0,4.17-1.24,4.17-3,0-1.52-.85-2.17-4.26-3.27-4.41-1.43-6-3-6-5.66,0-3.5,3.08-5.84,7.67-5.84a14.06,14.06,0,0,1,5.64,1.15V40Z"/><path class="cls-1" d="M495.62,55.91h-4.26V54a8.69,8.69,0,0,1-6,2.25c-5.69,0-9.72-4.37-9.72-10.58,0-6.58,4.32-11.23,10.43-11.23a9.08,9.08,0,0,1,4.88,1.25V25.22h4.69V55.91Zm-8.86-17.44c-3.55,0-6.11,2.86-6.11,6.86S483.11,52,486.52,52a6.32,6.32,0,0,0,4.41-1.79V40A6.78,6.78,0,0,0,486.76,38.47Z"/><path class="cls-1" d="M505.24,45.05v.33c0,3.86,3,6.71,7.15,6.71a10.07,10.07,0,0,0,6.83-2.57l0,5a16,16,0,0,1-7.58,1.89c-6.73,0-11.42-4.6-11.42-11.23,0-6.44,4-10.9,9.72-10.9s8.95,3.68,9.38,10.76ZM510,37.78a4.39,4.39,0,0,0-4.36,3.41h8.48C513.48,38.89,512.16,37.78,510,37.78Z"/><path class="cls-1" d="M135.92,76.48a13.62,13.62,0,0,0-6.82-1.88,10.68,10.68,0,0,0-11,11.08c0,6.4,4.55,11,10.76,11a13.87,13.87,0,0,0,7.06-1.88v5.29a18,18,0,0,1-7.2,1.43c-9.29,0-16.16-6.77-16.16-16,0-9,7-15.78,16.11-15.78a20.39,20.39,0,0,1,7.25,1.34v5.33Z"/><path class="cls-1" d="M143.64,76.9a3,3,0,0,1-3-2.9,3,3,0,0,1,6.06,0A3,3,0,0,1,143.64,76.9Zm2.32,24h-4.69v-21H146Z"/><path class="cls-1" d="M155.53,90.05v.33c0,3.86,3,6.71,7.16,6.71a10,10,0,0,0,6.82-2.57l.05,5a16.06,16.06,0,0,1-7.58,1.89c-6.73,0-11.42-4.6-11.42-11.23,0-6.44,4-10.9,9.71-10.9s9,3.68,9.38,10.76Zm4.74-7.27a4.41,4.41,0,0,0-4.36,3.41h8.48C163.78,83.89,162.45,82.78,160.27,82.78Z"/><path class="cls-1" d="M178.56,79.89l.05,2a8.44,8.44,0,0,1,6.06-2.39c5.07,0,7.63,2.86,7.63,8.47v13h-4.69V89.13c0-3.86-1.14-5.38-4.12-5.38A6.51,6.51,0,0,0,178.8,86v15h-4.69v-21Z"/><path class="cls-1" d="M212.62,84.9a8.66,8.66,0,0,0-4.4-1.2,6.52,6.52,0,0,0-6.63,6.77,6.41,6.41,0,0,0,6.58,6.62,9,9,0,0,0,4.45-1.19v4.74a15.55,15.55,0,0,1-5.06.82,10.79,10.79,0,0,1-11-10.95,10.92,10.92,0,0,1,11.33-11.08,12.63,12.63,0,0,1,4.73.82Z"/><path class="cls-1" d="M220,76.9a3,3,0,0,1-3-2.9,3,3,0,0,1,6.07,0A3,3,0,0,1,220,76.9Zm2.32,24h-4.69v-21h4.69Z"/><path class="cls-1" d="M229.4,80.35a22.4,22.4,0,0,1,6.35-.88c6.44,0,8.86,2,8.86,7.27l-.05,9.06c0,3,.14,3.73,1.14,5.16h-5a8.8,8.8,0,0,1-.57-1.71,9.48,9.48,0,0,1-5.59,2c-4.4,0-7.63-3-7.63-7.08,0-4.51,3.65-7.64,9-7.64a12.92,12.92,0,0,1,4,.65v-.37c0-2.39-1.51-3.5-5-3.5a12,12,0,0,0-5.64,1.43ZM236.88,90c-3,0-5,1.47-5,3.77,0,2,1.66,3.5,4,3.5a6.63,6.63,0,0,0,4.08-1.52l0-5.2A8.66,8.66,0,0,0,236.88,90Z"/><path class="cls-1" d="M263.41,85a10.21,10.21,0,0,0-5.06-1.52c-2,0-3.32.78-3.32,1.88,0,.79.71,1.29,2.51,1.89l1.8.6c4.22,1.42,6,3.36,6,6.48,0,4.24-3.7,7.18-9,7.18A21.06,21.06,0,0,1,249.2,100v-4.7a15.12,15.12,0,0,0,7,1.94c2.46,0,4.17-1.25,4.17-3,0-1.52-.86-2.17-4.27-3.27-4.4-1.43-6-2.94-6-5.66,0-3.5,3.08-5.84,7.68-5.84a14.3,14.3,0,0,1,5.64,1.15V85Z"/><path class="cls-1" d="M298.48,100.91h-4.27V99a8.69,8.69,0,0,1-6,2.25c-5.68,0-9.71-4.37-9.71-10.58,0-6.58,4.31-11.23,10.42-11.23a9.05,9.05,0,0,1,4.88,1.25V70.22h4.69v30.69Zm-8.86-17.43c-3.56,0-6.12,2.85-6.12,6.85S286,97,289.38,97a6.33,6.33,0,0,0,4.41-1.79V85A6.8,6.8,0,0,0,289.62,83.48Z"/><path class="cls-1" d="M308.09,90.05v.33c0,3.86,3,6.71,7.16,6.71a10,10,0,0,0,6.82-2.57l.05,5a16.06,16.06,0,0,1-7.58,1.89c-6.73,0-11.42-4.6-11.42-11.23,0-6.44,4-10.9,9.71-10.9s9,3.68,9.38,10.76Zm4.74-7.27a4.41,4.41,0,0,0-4.36,3.41H317C316.34,83.89,315,82.78,312.83,82.78Z"/><path class="cls-1" d="M341.64,100.91H337V70.22h4.69Z"/><path class="cls-1" d="M348.65,80.35a22.4,22.4,0,0,1,6.35-.88c6.44,0,8.86,2,8.86,7.27l-.05,9.06c0,3,.14,3.73,1.14,5.16h-5a10.39,10.39,0,0,1-.57-1.71,9.48,9.48,0,0,1-5.59,2c-4.4,0-7.62-3-7.62-7.08,0-4.51,3.64-7.64,9-7.64a12.92,12.92,0,0,1,4,.65v-.37c0-2.39-1.51-3.5-5-3.5a12,12,0,0,0-5.64,1.43ZM356.14,90c-3,0-5,1.47-5,3.77,0,2,1.66,3.5,4,3.5a6.61,6.61,0,0,0,4.08-1.52l0-5.2A8.64,8.64,0,0,0,356.14,90Z"/><path class="cls-1" d="M398.4,76.71a16,16,0,0,0-7.82-2.16c-3,0-5.07,1.2-5.07,3s.66,2.16,6.06,4c7.35,2.44,9.62,4.69,9.62,9.52,0,6.12-5.21,10.4-12.74,10.4a22.72,22.72,0,0,1-9.86-2.11V93.64a20.55,20.55,0,0,0,9.76,2.76c4.22,0,7.21-2.11,7.21-5.06,0-2.67-1.05-3.45-7-5.43-6.73-2.25-8.81-4.18-8.81-8.1,0-4.83,4.21-8,10.52-8a22.89,22.89,0,0,1,8.1,1.57v5.38Z"/><path class="cls-1" d="M406.64,80.35a22.45,22.45,0,0,1,6.35-.88c6.44,0,8.86,2,8.86,7.27l-.05,9.06c0,3,.14,3.73,1.14,5.16h-5a9.52,9.52,0,0,1-.56-1.71,9.54,9.54,0,0,1-5.6,2c-4.4,0-7.62-3-7.62-7.08,0-4.51,3.64-7.64,9-7.64a13,13,0,0,1,4,.65v-.37c0-2.39-1.52-3.5-5-3.5a12,12,0,0,0-5.64,1.43ZM414.13,90c-3,0-5,1.47-5,3.77,0,2,1.66,3.5,4,3.5a6.59,6.59,0,0,0,4.08-1.52l0-5.2A8.7,8.7,0,0,0,414.13,90Z"/><path class="cls-1" d="M432.89,100.91H428.2V70.22h4.69Z"/><path class="cls-1" d="M457.15,100.91h-4.5V99a8.94,8.94,0,0,1-6.16,2.34c-4.93,0-7.63-2.85-7.63-8.09V79.89h4.69V91.75c0,3.73,1.23,5.29,4.07,5.29A7.06,7.06,0,0,0,452.46,95V79.88h4.69v21Z"/><path class="cls-1" d="M481.64,100.91h-4.26V99a8.69,8.69,0,0,1-6,2.25c-5.69,0-9.71-4.37-9.71-10.58,0-6.58,4.31-11.23,10.42-11.23A9.08,9.08,0,0,1,477,80.67V70.22h4.69v30.69Zm-8.86-17.43c-3.55,0-6.11,2.85-6.11,6.85S469.13,97,472.55,97a6.31,6.31,0,0,0,4.4-1.79V85A6.76,6.76,0,0,0,472.78,83.48Z"/></g></g></g></svg>