<svg id="b0669d69-4d97-403d-9efc-cec9af5b1aea" data-name="Standard" xmlns="http://www.w3.org/2000/svg" viewBox="0 0 445.75 224.81"><g id="f57ee938-1af8-45f9-9148-59186a06604b" data-name="Logo - Standard"><path d="M72.43,264.26l5.5,2.93A28.22,28.22,0,0,1,71.61,276a25.11,25.11,0,0,1-8,5,27.12,27.12,0,0,1-10.07,1.75c-8.31,0-14.75-2.81-19.43-8.31a28.33,28.33,0,0,1-7-18.85,28,28,0,0,1,6-17.56,24.06,24.06,0,0,1,20.13-9.83A24.87,24.87,0,0,1,74,238.28c3.75,4.8,5.62,10.65,5.62,17.79H33.91c.12,6,2,11,5.62,14.87A17.82,17.82,0,0,0,53,276.67a21,21,0,0,0,7.61-1.4,19,19,0,0,0,6.2-3.63,29.66,29.66,0,0,0,5.62-7.38m0-14a23.33,23.33,0,0,0-3.86-8.55A19.54,19.54,0,0,0,62,236.52a20.23,20.23,0,0,0-8.66-1.87,18.47,18.47,0,0,0-12.88,4.91c-2.57,2.35-4.56,6-6,10.66Z" transform="translate(-27.13 -137.59)" style="fill:#1d1d1b"/><path d="M93.27,229.61h6.44v8.9a27.78,27.78,0,0,1,7-7.26,20.25,20.25,0,0,1,10.42-3,17.6,17.6,0,0,1,12.53,5.38,21.54,21.54,0,0,1,3.63,7.15,24.83,24.83,0,0,1,8.19-9.37A19.11,19.11,0,0,1,152,228.21a15.77,15.77,0,0,1,15.34,10.3c1.29,3.28,2,8.08,2,14.63v28.33h-6.67V253.14c0-5.61-.47-9.36-1.17-11.47a10.54,10.54,0,0,0-4-5,12.09,12.09,0,0,0-6.79-1.88,15,15,0,0,0-8.78,2.82,16.25,16.25,0,0,0-5.74,7.6c-1.17,3.16-1.87,8.55-1.87,15.92v20.37h-6.44V254.9c0-6.32-.35-10.54-1.17-12.76a10.79,10.79,0,0,0-4-5.39,11.11,11.11,0,0,0-6.79-2,14.72,14.72,0,0,0-8.43,2.7,15.8,15.8,0,0,0-5.85,7.61c-1.29,3-2,8-2,14.4v22H93.27Z" transform="translate(-27.13 -137.59)" style="fill:#1d1d1b"/><path d="M183.18,229.61h6.56v9.49a26.71,26.71,0,0,1,8.9-8.2,24.18,24.18,0,0,1,11.23-2.69,25.15,25.15,0,0,1,18.62,8,26.69,26.69,0,0,1,7.72,19.2,27,27,0,0,1-7.72,19.43,24.65,24.65,0,0,1-18.38,8,24.14,24.14,0,0,1-11.24-2.57,26.57,26.57,0,0,1-9.13-7.61v27.86h-6.56Zm26.23,5a19.13,19.13,0,0,0-14.4,6.08c-3.87,4-5.74,9-5.74,15.11a21.69,21.69,0,0,0,2.58,10.65,19.32,19.32,0,0,0,7.37,7.37,20.32,20.32,0,0,0,10.3,2.81,19.07,19.07,0,0,0,9.95-2.81,21.23,21.23,0,0,0,7.38-7.72,22,22,0,0,0,0-21.07,19.25,19.25,0,0,0-7.38-7.61,18.86,18.86,0,0,0-10.06-2.81" transform="translate(-27.13 -137.59)" style="fill:#1d1d1b"/><path d="M286.58,229.61h6.79v7.5a24.64,24.64,0,0,1,6.2-6.68,13.16,13.16,0,0,1,7-2.22,11.47,11.47,0,0,1,5.73,1.76l-3.39,5.62a9.29,9.29,0,0,0-3.51-.83,9.4,9.4,0,0,0-6.32,2.7c-2,1.87-3.52,4.68-4.57,8.54-.82,2.93-1.17,8.9-1.17,17.91v17.56h-6.79Z" transform="translate(-27.13 -137.59)" style="fill:#1d1d1b"/><path d="M407.74,240.38l-5.27,3.28c-4.45-6.09-10.54-9.13-18.38-9.13a20.9,20.9,0,0,0-15.45,6.09,20.11,20.11,0,0,0-6.09,14.86,21.37,21.37,0,0,0,2.81,10.66,18.91,18.91,0,0,0,7.73,7.72,23,23,0,0,0,29.38-6.32l5.27,3.51a25.24,25.24,0,0,1-9.83,8.67,31.79,31.79,0,0,1-14.05,3c-8.08,0-14.63-2.57-20-7.84a25.54,25.54,0,0,1-8-19,28,28,0,0,1,3.75-14,27,27,0,0,1,10.18-10.07,30.47,30.47,0,0,1,14.63-3.63,30.89,30.89,0,0,1,9.72,1.64,25.52,25.52,0,0,1,8,4.09,20.21,20.21,0,0,1,5.62,6.44" transform="translate(-27.13 -137.59)" style="fill:#1d1d1b"/><path d="M472.87,229.61v51.86h-6.44v-8.89a28,28,0,0,1-9.24,7.61A24.14,24.14,0,0,1,446,282.76a24.89,24.89,0,0,1-18.5-8,27.43,27.43,0,0,1-7.61-19.43,26.7,26.7,0,0,1,7.73-19.2,25.14,25.14,0,0,1,18.61-8,24.71,24.71,0,0,1,11.36,2.69,28,28,0,0,1,8.89,8.2v-9.49Zm-26.22,5a18.89,18.89,0,0,0-10.07,2.81,18.46,18.46,0,0,0-7.37,7.61,21.15,21.15,0,0,0,0,21.07,21.2,21.2,0,0,0,7.37,7.72,19.2,19.2,0,0,0,10.07,2.81,20.22,20.22,0,0,0,10.19-2.81,19.39,19.39,0,0,0,7.37-7.37,21.69,21.69,0,0,0,2.58-10.65c0-6.09-1.88-11.12-5.74-15.11a19.31,19.31,0,0,0-14.4-6.08" transform="translate(-27.13 -137.59)" style="fill:#1d1d1b"/><path d="M246.55,196.06h27.87V301.55H246.55Zm7.84,78.27h11.35V224.11H254.39Z" transform="translate(-27.13 -137.59)" style="fill:#1d1d1b"/><path d="M260.48,137.59h-.21c11.54,0,21,10.35,21,23.09v-.33c0,12.63-9.47,23.08-21,23.08h.21c-11.54,0-20.9-10.45-20.9-23.08v.33c0-12.74,9.36-23.09,20.9-23.09" transform="translate(-27.13 -137.59)" style="fill:#1d1d1b"/><path d="M338.21,274.68H326.73V224.46h11.48Zm-20.45,29.26h29V198.45h-29Zm34.62,35.39v.32c0-12.63-9.47-23.08-21-23.08h.33c-11.65,0-21.12,10.45-21.12,23.08v-.32c0,12.73,9.47,23.08,21.12,23.08h-.33c11.54,0,21-10.35,21-23.08" transform="translate(-27.13 -137.59)" style="fill:#1d1d1b"/></g></svg>