<svg id="Layer_1" data-name="Layer 1" xmlns="http://www.w3.org/2000/svg" viewBox="0 0 334.66 332.16"><defs><style>.cls-1{fill:#19a238;}.cls-2{fill:#9bc332;}.cls-3{fill:#009b3c;}.cls-4{fill:#d9004c;}.cls-5{fill:#1d1d1b;}</style></defs><path class="cls-1" d="M130.46,266a26.87,26.87,0,0,1,9.61-52.86A34.1,34.1,0,0,0,153,211.47a34.64,34.64,0,0,0,1.17-65.34c-.63-.19-1.25-.41-1.87-.64l-.37-.15a26.85,26.85,0,0,1-7.84-4.85c-.7-.62-1.35-1.27-2-1.94a26.87,26.87,0,1,1,42.07-3.1c-.27.4-.55.79-.85,1.18A34.66,34.66,0,0,0,233.9,183c.5-.41,1-.83,1.46-1.27l.28-.22a26.86,26.86,0,1,1-7.38,33.27c-.3-.75-.63-1.5-1-2.23a34.66,34.66,0,0,0-65.33,20.66,26.64,26.64,0,0,1,.53,2.69,27.08,27.08,0,0,1-.29,9.22c-.19.91-.42,1.81-.69,2.68a26.89,26.89,0,0,1-31,18.24" transform="translate(-44.75 -45.41)"/><path class="cls-2" d="M288.27,45.41A26.88,26.88,0,0,0,261.7,76.09a27.4,27.4,0,0,0,.53,2.7A34.66,34.66,0,0,1,196.9,99.45c-.36-.73-.69-1.48-1-2.23a26.87,26.87,0,0,0-48.09.28,26.88,26.88,0,0,1,40.78,25.91,26.51,26.51,0,0,1-2.58,8.83,26.27,26.27,0,0,0,2.52-1.75l.28-.22c.47-.44,1-.86,1.45-1.27a34.66,34.66,0,0,1,50.6,46.37c-.29.39-.57.78-.84,1.18a26.55,26.55,0,0,0-1.87,3.21,27.14,27.14,0,0,1,5.61-2.61,26.57,26.57,0,0,1,8.47-1.37,26.87,26.87,0,0,1,24.13,38.72,26.92,26.92,0,0,0,5.73-41.05c-.62-.67-1.28-1.32-2-1.94a27,27,0,0,0-7.84-4.85l-.37-.15c-.62-.23-1.25-.45-1.88-.64a34.64,34.64,0,0,1,12-67.11c.68,0,1.35,0,2,.06A26.87,26.87,0,0,0,293.71,46a27.44,27.44,0,0,0-5.44-.55" transform="translate(-44.75 -45.41)"/><path class="cls-3" d="M252.23,175.78a26.57,26.57,0,0,0-8.47,1.37,27.14,27.14,0,0,0-5.61,2.61,26.88,26.88,0,0,0,38.21,34.74,26.87,26.87,0,0,0-24.13-38.72M161.9,93.52a26.88,26.88,0,0,0-14.09,4,26.86,26.86,0,0,0,32.6,37.35,27.06,27.06,0,0,0,5.6-2.61,26.51,26.51,0,0,0,2.58-8.83A26.88,26.88,0,0,0,161.9,93.52" transform="translate(-44.75 -45.41)"/><path class="cls-4" d="M212.84,161.62a9.81,9.81,0,1,1-12.4-6.22,9.8,9.8,0,0,1,12.4,6.22Z" transform="translate(-44.75 -45.41)"/><polygon class="cls-5" points="101.61 270.26 101.61 258.31 116.72 258.31 117.62 258.31 117.62 257.41 117.62 253.83 117.62 252.93 116.72 252.93 101.61 252.93 101.61 240.72 117.82 240.72 118.72 240.72 118.72 239.82 118.72 236.29 118.72 235.4 117.82 235.4 96.65 235.4 95.75 235.4 95.75 236.29 95.75 274.74 95.75 275.64 96.65 275.64 117.93 275.64 118.83 275.64 118.83 274.74 118.83 271.16 118.83 270.26 117.93 270.26 101.61 270.26"/><path class="cls-5" d="M198.28,280.8h-.9v23.45c0,7-4.35,11.74-10.84,11.74s-10.8-4.72-10.8-11.74V280.8h-6V304c0,10.33,6.91,17.55,16.81,17.55s16.8-7.22,16.8-17.55V280.8h-5.06Z" transform="translate(-44.75 -45.41)"/><path class="cls-5" d="M224.42,307.13c8.14-1,13.47-6,13.47-12.89,0-7.91-6.8-13.44-16.54-13.44h-9.22v40.25H218V308.49l13.07,12.32.26.24h.35l5.58.05,2.34,0-1.72-1.59ZM218,302V286.18h3.26c6.46,0,10.64,3.17,10.64,8.06,0,4.73-4.16,7.79-10.59,7.79Z" transform="translate(-44.75 -45.41)"/><path class="cls-5" d="M262.54,280.28c-12,0-21,8.85-21,20.59s9,20.71,21,20.71,21.12-8.9,21.12-20.71S274.58,280.28,262.54,280.28Zm0,35.86c-8.59,0-15.06-6.56-15.06-15.27a14.78,14.78,0,0,1,15.06-15.16c8.76,0,15.11,6.38,15.11,15.16S271.3,316.14,262.54,316.14Z" transform="translate(-44.75 -45.41)"/><path class="cls-5" d="M66.92,356.14A9.75,9.75,0,0,0,72,347.65c0-6.7-5.23-10.85-13.65-10.85H44.75V377H59.4c8.35,0,13.75-4.34,13.75-11.06A10.3,10.3,0,0,0,66.92,356.14Zm-16.31-14h7.63c5.27,0,7.95,1.93,7.95,5.74,0,3.36-3.49,5.89-8.11,5.89H50.61Zm8.58,29.6H50.61V359.08h7.52c2.76,0,9.16.64,9.16,6.53C67.29,369.38,64.19,371.72,59.19,371.72Z" transform="translate(-44.75 -45.41)"/><polygon class="cls-5" points="36.13 291.39 35.23 291.39 35.23 292.29 35.23 330.73 35.23 331.63 36.13 331.63 40.24 331.63 41.14 331.63 41.14 330.73 41.14 292.29 41.14 291.39 40.24 291.39 36.13 291.39"/><path class="cls-5" d="M113.54,336.27c-12,0-21,8.85-21,20.6s9,20.7,21,20.7,21.12-8.9,21.12-20.7S125.58,336.27,113.54,336.27Zm0,35.87a15.22,15.22,0,0,1,0-30.44c8.76,0,15.11,6.38,15.11,15.17S122.3,372.14,113.54,372.14Z" transform="translate(-44.75 -45.41)"/><polygon class="cls-5" points="97.39 291.39 96.49 291.39 96.49 292.29 96.49 330.73 96.49 331.63 97.39 331.63 101.5 331.63 102.39 331.63 102.39 330.73 102.39 292.29 102.39 291.39 101.5 291.39 97.39 291.39"/><polygon class="cls-5" points="145.05 291.39 144.57 291.39 144.3 291.79 130.68 312.65 117.1 291.8 116.83 291.39 116.35 291.39 112.71 291.39 111.81 291.39 111.81 292.29 111.81 330.73 111.81 331.63 112.71 331.63 116.51 331.63 117.41 331.63 117.41 330.73 117.41 302.01 128.87 319.28 129.14 319.68 129.62 319.68 131.94 319.68 132.43 319.68 132.69 319.27 144 301.85 144 330.73 144 331.63 144.9 331.63 148.69 331.63 149.59 331.63 149.59 330.73 149.59 292.29 149.59 291.39 148.69 291.39 145.05 291.39"/><path class="cls-5" d="M221.13,337.36l-.22-.56h-6.16l-.23.55-15.8,38.45-.51,1.24h6.21l.23-.56,3.56-8.86h18.85l3.41,8.85.22.57H237l-.5-1.23ZM210.46,362l7.35-18.29L224.89,362Z" transform="translate(-44.75 -45.41)"/><path class="cls-5" d="M259.33,357.92h-.9v5.32h12.94c-1.23,5.59-5.95,8.9-12.83,8.9a15.22,15.22,0,0,1,0-30.44c6.84,0,11.82,4.14,12.69,10.55l.11.78H277l-.09-1c-.86-9.14-8.59-15.77-18.38-15.77A21.32,21.32,0,0,0,243.86,342a20.12,20.12,0,0,0-6.29,14.86,20.42,20.42,0,0,0,6.29,15,21.2,21.2,0,0,0,14.68,5.73c10.91,0,18.54-7.15,18.54-17.39v-2.26H259.33Z" transform="translate(-44.75 -45.41)"/><polygon class="cls-5" points="239.91 291.39 239.01 291.39 239.01 292.29 239.01 330.73 239.01 331.63 239.91 331.63 244.02 331.63 244.92 331.63 244.92 330.73 244.92 292.29 244.92 291.39 244.02 291.39 239.91 291.39"/><polygon class="cls-5" points="283.94 291.39 283.04 291.39 283.04 292.29 283.04 322.15 258.89 291.73 258.62 291.39 258.18 291.39 255.24 291.39 254.34 291.39 254.34 292.29 254.34 330.73 254.34 331.63 255.24 331.63 258.97 331.63 259.87 331.63 259.87 330.73 259.87 301.84 283.55 331.3 283.82 331.63 284.25 331.63 287.63 331.63 288.53 331.63 288.53 330.73 288.53 292.29 288.53 291.39 287.63 291.39 283.94 291.39"/><path class="cls-5" d="M378.52,357.92H360.76v5.32H373.7c-1.23,5.59-5.95,8.9-12.83,8.9a15.22,15.22,0,0,1,0-30.44c6.84,0,11.83,4.14,12.7,10.55l.1.78h5.68l-.1-1c-.86-9.14-8.59-15.77-18.38-15.77A21.33,21.33,0,0,0,346.19,342a20.16,20.16,0,0,0-6.29,14.86,20.45,20.45,0,0,0,6.29,15,21.22,21.22,0,0,0,14.68,5.73c10.92,0,18.54-7.15,18.54-17.39v-2.26Z" transform="translate(-44.75 -45.41)"/></svg>