<svg version="11" id="Capa_10" xmlns="http://www.w3.org/2000/svg" xmlns:xlink="http://www.w3.org/1999/xlink" x="0px" y="0px"
	 viewBox="0 0 7087 1735" enable-background="new 0 0 7087 1735" xml:space="preserve">
<g>
	<g>
		<path d="M2281,231h125c53,0,72,18,72,53c0,31-15,51-45,58h0v1c22,5,37,26,37,49c0,59-47,82-100,82h-139
			L2281,231z M2316,416h48c13,0,32-5,32-25c0-18-13-21-29-21h-41L2316,416z M2335,326h42
			c12,0,27-4,27-19c0-15-10-17-23-17h-38L2335,326z"/>
		<path d="M2507,351c11-47,47-58,90-58c32,0,86,4,86,47c0,28-21,107-21,118c1,14,0,7,3,16h-66
			c-2-5-3-11-2-17h-1c-12,14-35,21-54,21c-30,0-57-13-57-47c0-47,35-59,85-63c19-1,49,1,49-20
			c0-12-11-15-21-15c-14,0-23,5-27,18H2507z M2572,439c23,0,32-17,36-43c-11,5-23,7-36,8
			c-11,1-22,7-22,20C2551,436,2561,439,2572,439z"/>
		<path d="M2732,298h65l-6,28h1c12-19,34-32,51-32c11,0,18,1,24,3l-13,60c-8-3-17-4-26-4
			c-29,0-43,12-51,49l-15,74h-67L2732,298z"/>
		<path d="M2982,365c0-8-1-14-5-17c-3-4-9-5-17-5c-29,0-37,38-37,55c0,17,4,32,23,32
			c18,0,26-16,30-26h65c-12,50-44,75-95,75c-75,0-90-48-90-81c0-60,39-105,106-105c49,0,85,22,84,71H2982z"/>
		<path d="M3240,423c-4,12-18,56-94,56c-63,0-88-35-88-78c0-81,62-107,106-107c39,0,86,22,86,77
			c0,10,0,20-3,31h-126c0,19,6,34,28,34c15,0,23-6,27-13H3240L3240,423z M3187,366c0-2,1-4,1-6
			c0-13-8-24-26-24c-18,0-30,11-35,30H3187L3187,366z"/>
		<polygon points="3315,231 3382,231 3332,474 3264,474 		"/>
		<path d="M3488,293c52,0,86,24,86,77c0,45-25,108-106,108c-49,0-88-23-88-83C3379,340,3416,293,3488,293z
			 M3471,430c27,0,36-39,36-54c0-21-5-33-23-33c-27,0-36,41-36,59C3447,415,3452,430,3471,430z"/>
		<path d="M3621,298h65l-5,22h1c13-16,33-27,55-27c31,0,57,13,57,48c0,8-2,21-5,34l-21,100H3700l17-81
			c2-10,5-22,5-29c0-11-8-17-19-17c-21,0-29,15-33,34l-20,94h-67L3621,298z"/>
		<path d="M3830,351c11-47,47-58,90-58c32,0,86,4,86,47c0,28-21,107-21,118c1,14,0,7,3,16h-66
			c-2-5-3-11-2-17h-1c-12,14-35,21-54,21c-30,0-57-13-57-47c0-47,35-59,85-63c19-1,49,1,49-20
			c0-12-11-15-21-15c-14,0-23,5-27,18H3830z M3895,439c23,0,32-17,36-43c-11,5-23,7-36,8
			c-11,1-22,7-22,20C3874,436,3884,439,3895,439z"/>
		<path d="M2389,695c0-10-3-16-9-20c-5-4-13-5-22-5c-13,0-29,4-29,20c0,18,36,19,60,28
			c42,15,56,38,56,67c0,59-57,86-110,86c-56,0-106-26-103-87h72c0,13,3,21,9,28c6,5,15,6,28,6
			c15,0,33-7,33-23c0-18-25-20-59-31c-30-10-58-26-58-66c0-55,53-80,102-80c52,0,98,19,97,79H2389L2389,695z"/>
		<path d="M2638,864h-65l5-22h-1c-15,17-34,27-57,27c-31,0-56-13-56-47c0-15,6-37,26-134h67l-20,92
			c-3,9-3,18-3,18c0,11,10,17,19,17c30,0,32-33,37-55l15-72h67L2638,864z"/>
		<path d="M2714,688h65l-4,20h1c12-16,27-24,47-24c50,0,64,41,64,72c0,52-26,113-86,113c-19,0-38-2-53-26
			l-16,79h-67L2714,688z M2820,764c0-17-5-31-24-31c-30,0-35,43-35,59c0,6,2,29,24,29
			C2811,820,2820,786,2820,764z"/>
		<path d="M3088,813c-4,12-18,56-94,56c-63,0-88-35-88-78c0-81,62-108,106-108c39,0,86,22,86,77
			c0,10,0,20-3,31H2970c0,19,6,34,28,34c15,0,23-6,27-13L3088,813L3088,813z M3035,756c0-2,1-4,1-6
			c0-13-9-24-26-24c-18,0-30,11-35,30H3035z"/>
		<path d="M3148,688h65l-6,27h1c12-19,34-32,51-32c11,0,18,1,24,3l-13,59c-8-3-17-4-26-4
			c-29,0-43,12-51,49l-15,74h-67L3148,688z"/>
		<path d="M3398,755c0-8-1-14-5-17c-3-4-9-5-17-5c-29,0-37,38-37,55c0,17,4,32,23,32
			c18,0,26-16,30-26h65c-12,50-44,75-95,75c-75,0-90-48-90-81c0-60,39-105,106-105c49,0,85,22,84,71H3398z"/>
		<path d="M3582,683c52,0,86,24,86,77c0,45-25,108-106,108c-49,0-88-23-88-83C3474,730,3510,683,3582,683z
			 M3565,820c27,0,36-39,36-54c0-21-5-33-23-33c-27,0-36,40-36,59C3541,806,3546,820,3565,820z"/>
		<path d="M3715,688h65l-5,23h1c14-17,33-28,55-28c23,0,43,7,48,29c15-18,34-29,58-29
			c34,0,56,16,56,52c0,8-3,20-4,28l-21,101h-67l18-84c1-3,4-21,4-26c0-11-6-17-17-17
			c-13,0-23,7-26,20l-23,107H3790l20-95c1-4,3-12,3-16c0-11-6-16-17-16c-17,0-25,11-28,26l-22,101h-67
			L3715,688z"/>
		<path d="M4043,688h65l-4,20h1c12-16,26-24,47-24c50,0,64,41,64,72c0,52-26,113-86,113c-19,0-38-2-53-26
			l-16,79h-67L4043,688z M4149,764c0-17-5-31-24-31c-30,0-35,43-35,59c0,6,2,29,25,29
			C4141,820,4149,786,4149,764z"/>
		<path d="M4408,864h-65l5-22h-1c-15,17-34,27-57,27c-31,0-56-13-56-47c0-15,6-37,26-134h67l-20,92
			c-3,9-3,18-3,18c0,11,10,17,19,17c30,0,32-33,37-55l15-72h67L4408,864z"/>
		<path d="M4561,688h36l-10,41h-36l-12,57c-1,6-3,12-3,18c0,6,3,11,14,11c11,0,17-1,22-1l-10,49
			c-12,2-24,4-36,4c-14,0-30,0-43-7c-12-6-18-20-18-33c0-10,2-16,4-24l16-72h-30l10-41h29l12-53h67
			L4561,688z"/>
		<path d="M4624,688h67l-37,176h-67L4624,688z M4695,669h-67l10-47h67L4695,669z"/>
		<path d="M4729,688h65l-5,22h1c13-16,33-27,55-27c31,0,57,13,57,48c0,8-2,21-5,34l-21,100h-67l17-81
			c2-10,5-22,5-29c0-11-8-17-19-17c-21,0-29,15-33,34l-20,94h-67L4729,688z"/>
		<path d="M5097,834c-10,50-19,92-105,92c-21,0-84-2-82-59h67c0,7,2,12,5,15c3,3,9,4,16,4
			c20,0,26-16,29-31l4-19H5030c-10,12-26,18-42,18c-42,0-69-27-69-69c0-50,30-102,85-102c22,0,42,6,52,27h1
			l4-23h65L5097,834z M4987,782c0,16,8,28,23,28c32,0,37-39,37-51c0-11-1-28-25-28
			C4995,732,4987,762,4987,782z"/>
		<path d="M2476,1162c-4,25-23,98-124,98c-70,0-104-46-104-111c0-79,49-144,132-144c54,0,102,23,104,96h-71
			c1-23-10-36-33-36c-41,0-56,48-56,82c0,20,5,51,39,51c23,0,37-16,41-37H2476L2476,1162z"/>
		<path d="M2679,1203c-4,12-18,56-94,56c-63,0-88-35-88-78c0-81,62-107,106-107c39,0,86,22,86,77
			c0,10,0,20-3,31H2560c0,19,6,34,28,34c15,0,23-7,27-13H2679z M2626,1146c0-2,1-4,1-6
			c0-13-9-24-26-24c-18,0-30,11-35,30H2626z"/>
		<path d="M2739,1078h65l-5,22h1c13-16,33-27,55-27c31,0,57,13,57,48c0,8-2,21-5,34l-21,100h-67
			l17-81c2-10,5-22,5-29c0-11-8-17-19-17c-21,0-29,15-33,34l-20,94h-67L2739,1078z"/>
		<path d="M3037,1078h36l-10,42h-36l-12,57c-1,6-3,12-3,18c0,6,3,11,14,11c11,0,17-1,22-1l-10,49
			c-12,2-24,4-36,4c-14,0-30,0-43-7c-12-6-18-20-18-33c0-9,2-16,4-24l16-72h-30l10-41h29l12-53h67
			L3037,1078z"/>
		<path d="M3252,1203c-4,12-18,56-94,56c-63,0-88-35-88-78c0-81,62-107,106-107c39,0,86,22,86,77
			c0,10,0,20-3,31h-126c0,19,6,34,28,34c15,0,23-7,27-13H3252z M3199,1146c0-2,1-4,1-6
			c0-13-9-24-26-24c-18,0-30,11-35,30H3199z"/>
		<path d="M3311,1078h65l-6,28h1c12-19,34-32,51-32c11,0,18,1,24,3l-13,60c-8-3-17-4-26-4
			c-29,0-43,12-51,49l-15,74h-67L3311,1078z"/>
		<path d="M2420,1512c-10,45-39,72-89,72c-55,0-86-32-86-88c0-65,41-122,110-122c43,0,76,23,76,69h-27
			c0-31-20-47-50-47c-56,0-83,51-83,99c0,39,19,65,59,65c33,0,53-19,62-50L2420,1512L2420,1512z"/>
		<path d="M2465,1514c-1,4-1,8-1,13c0,22,18,35,37,35c21,0,35-10,42-28h24c-8,32-34,49-66,49
			c-48,0-61-33-61-58c0-55,35-93,74-93c43,0,61,23,61,64c0,8-1,15-2,19L2465,1514L2465,1514z
			 M2553,1493c2-20-8-41-34-41c-28,0-43,18-50,41H2553z"/>
		<path d="M2617,1434h23l-4,22h1c12-16,32-25,52-25c27,0,40,12,40,37c0,6-2,17-4,28l-18,83h-24l18-85
			c1-5,3-17,3-22c0-14-11-20-25-20c-13,0-27,7-36,17c-8,7-13,19-16,30l-17,80h-24L2617,1434z"/>
		<path d="M2806,1434h29l-5,21h-29l-18,85c0,3-1,6-1,10c0,8,7,10,14,10c5,0,9-1,14-3l-4,22
			c-6,1-11,2-17,2c-18,0-32-5-32-24c0-4,1-8,1-12l19-90h-24l4-21h24l9-43h24L2806,1434z"/>
		<path d="M2861,1434h22l-7,31h1c11-20,28-34,53-34c3,0,6-1,8,0l-6,25c-2,0-5,0-7,0
			c-6,0-9,0-14,1c-13,3-23,12-31,23c-6,9-10,23-12,34l-14,64h-24L2861,1434z"/>
		<path d="M3011,1431c39,0,60,21,60,60c0,47-29,92-80,92c-38,0-61-26-61-60C2930,1475,2960,1431,3011,1431z M2994,1562
			c35,0,54-40,54-69c0-23-12-41-38-41c-36,0-55,40-55,70C2954,1546,2968,1562,2994,1562z"/>
		<polygon points="3208,1379 3237,1379 3308,1545 3309,1545 3342,1379 3368,1379 3326,1579 3297,1579 3226,1415 
			3226,1415 3192,1579 3166,1579 		"/>
		<path d="M3381,1478c5-32,32-47,63-47c28,0,53,8,53,37c0,8-3,18-5,26l-9,39c-1,6-4,14-4,21
			c0,7,3,9,7,9c2,0,5-1,8-2l-4,18c-4,2-10,3-15,3c-13,0-20-8-19-20l-1-1
			c-10,13-24,21-48,21c-24,0-44-11-44-41c0-42,41-45,73-48c25-2,36-4,36-23c0-16-17-19-29-19
			c-18,0-36,7-39,26H3381L3381,1478z M3413,1562c18,0,32-6,41-19c8-11,9-24,13-37h-1
			c-10,6-29,8-46,10c-17,3-32,8-32,26C3387,1555,3400,1562,3413,1562z"/>
		<path d="M3628,1480c0-18-12-28-31-28c-37,0-56,36-56,68c0,22,9,41,36,41c20,0,36-12,42-30h24
			c-8,32-33,51-66,51c-40,0-60-24-60-62c0-46,28-89,80-89c33,0,53,16,54,49H3628z"/>
		<path d="M3691,1434h24l-30,145h-24L3691,1434z M3720,1408h-24l6-29h24L3720,1408z"/>
		<path d="M3810,1431c39,0,60,21,60,60c0,47-29,92-80,92c-38,0-61-26-61-60C3729,1475,3759,1431,3810,1431z M3793,1562
			c35,0,54-40,54-69c0-23-12-41-38-41c-36,0-55,40-55,70C3753,1546,3767,1562,3793,1562z"/>
		<path d="M3914,1434h23l-4,22h1c12-16,32-25,52-25c27,0,40,12,40,37c0,6-2,17-4,28l-18,83H3980l18-85
			c1-5,3-17,3-22c0-14-11-20-25-20c-13,0-27,7-36,17c-8,7-13,19-16,30l-17,80h-24L3914,1434z"/>
		<path d="M4056,1478c5-32,32-47,63-47c28,0,53,8,53,37c0,8-3,18-4,26l-9,39c-1,6-4,14-4,21
			c0,7,3,9,7,9c2,0,5-1,8-2l-4,18c-4,2-10,3-15,3c-13,0-20-8-19-20l-1-1
			c-10,13-24,21-48,21c-24,0-44-11-44-41c0-42,41-45,73-48c25-2,36-4,36-23c0-16-17-19-29-19
			c-18,0-36,7-39,26H4056L4056,1478z M4088,1562c18,0,32-6,41-19c8-11,9-24,13-37h-1
			c-10,6-29,8-47,10c-17,3-32,8-32,26C4062,1555,4074,1562,4088,1562z"/>
		<polygon points="4227,1379 4251,1379 4209,1579 4185,1579 		"/>
		<path d="M4454,1579h-22l5-21h-1c-14,19-29,24-48,24c-37,0-57-24-57-59c0-44,30-92,80-92
			c18,0,39,6,45,26h1l15-77h24L4454,1579z M4392,1562c36,0,57-42,57-72c0-22-13-38-36-38
			c-38,0-57,39-57,71C4355,1547,4366,1562,4392,1562z"/>
		<path d="M4520,1514c-1,4-1,8-1,13c0,22,18,35,38,35c21,0,35-10,42-28h24c-8,32-34,49-66,49
			c-48,0-61-33-61-58c0-55,35-93,74-93c43,0,61,23,61,64c0,8-1,15-2,19L4520,1514L4520,1514z M4607,1493
			c2-20-8-41-34-41c-28,0-43,18-50,41H4607z"/>
		<path d="M4866,1438c1-32-18-41-46-41c-20,0-46,9-46,33c0,19,14,27,32,32l27,7c25,7,48,18,48,54
			c0,41-42,61-78,61c-48,0-82-21-79-70h27c-2,36,21,48,53,48c25,0,50-12,50-38c0-20-16-28-36-33l-27-7
			c-24-6-45-21-45-50c0-39,37-58,73-58c39,0,74,19,73,64H4866L4866,1438z"/>
		<path d="M5017,1579h-23l4-22h-1c-12,16-32,25-52,25c-27,0-40-12-40-37c0-6,2-17,4-28l18-83h24l-18,85
			c-1,5-3,17-3,22c0,14,11,20,25,20c26,0,47-23,52-47l17-80h24L5017,1579z"/>
		<path d="M5087,1434h22l-5,21h1c14-19,29-24,48-24c37,0,57,24,57,59c0,44-30,92-80,92c-18,0-39-6-45-26
			h-1l-15,78h-24L5087,1434z M5148,1452c-36,0-57,42-57,72c0,22,13,38,36,38c38,0,57-39,57-71
			C5185,1467,5174,1452,5148,1452z"/>
		<path d="M5252,1514c-1,4-1,8-1,13c0,22,18,35,38,35c21,0,35-10,42-28h24c-8,32-34,49-66,49
			c-48,0-61-33-61-58c0-55,35-93,74-93c43,0,61,23,61,64c0,8-1,15-2,19L5252,1514L5252,1514z
			 M5339,1493c2-20-8-41-34-41c-28,0-43,18-50,41H5339z"/>
		<path d="M5403,1434h22l-7,31h1c11-20,28-34,53-34c3,0,6-1,8,0l-6,25c-2,0-5,0-7,0
			c-6,0-9,0-14,1c-13,3-23,12-31,23c-6,9-10,23-12,34l-14,64h-24L5403,1434z"/>
		<path d="M5584,1480c0-18-12-28-31-28c-37,0-56,36-56,68c0,22,9,41,36,41c20,0,36-12,42-30h24
			c-8,32-33,51-66,51c-39,0-60-24-60-62c0-46,28-89,80-89c33,0,53,16,54,49H5584z"/>
		<path d="M5704,1431c39,0,60,21,60,60c0,47-29,92-80,92c-38,0-61-26-61-60C5623,1475,5653,1431,5704,1431z
			 M5687,1562c35,0,54-40,54-69c0-23-12-41-38-41c-36,0-55,40-55,70C5647,1546,5661,1562,5687,1562z"/>
		<path d="M5808,1434h22l-5,22l1,1c12-15,31-25,50-25c18,0,32,7,36,26c11-15,30-26,50-26c20,0,40,9,40,32
			c0,8-2,21-4,29l-18,87h-24l20-92c1-5,2-11,2-16c0-11-10-20-22-20c-13,0-28,9-36,20
			c-8,8-11,20-13,33l-16,75h-24l17-83c3-11,4-22,4-25c0-12-7-19-20-19c-13,0-27,9-36,18
			c-10,10-12,18-15,33l-16,76h-24L5808,1434z"/>
		<path d="M6046,1434h22l-5,21h1c14-19,29-24,48-24c37,0,57,24,57,59c0,44-30,92-80,92c-18,0-40-6-45-26
			h-1l-15,78h-24L6046,1434z M6108,1452c-36,0-57,42-57,72c0,22,13,38,36,38c38,0,57-39,57-71
			C6145,1467,6134,1452,6108,1452z"/>
		<path d="M6299,1579h-23l4-22H6280c-12,16-32,25-52,25c-27,0-40-12-40-37c0-6,2-17,4-28l18-83h24l-19,85
			c-1,5-3,17-3,22c0,14,11,20,25,20c26,0,47-23,52-47l17-80h24L6299,1579z"/>
		<path d="M6401,1434h29l-4,21h-29l-18,85c0,3-1,6-1,10c0,8,7,10,14,10c5,0,9-1,14-3l-4,22
			c-6,1-11,2-17,2c-18,0-33-5-33-24c0-4,1-8,1-12l19-90h-24l4-21h24l9-43h24L6401,1434z"/>
		<path d="M6443,1478c5-32,32-47,63-47c28,0,53,8,53,37c0,8-3,18-4,26l-9,39c-1,6-4,14-4,21
			c0,7,3,9,7,9c2,0,5-1,8-2l-4,18c-4,2-10,3-15,3c-13,0-20-8-19-20l-1-1
			c-10,13-24,21-48,21c-24,0-44-11-44-41c0-42,41-45,73-48c25-2,36-4,36-23c0-16-16-19-29-19
			c-18,0-36,7-39,26H6443L6443,1478z M6475,1562c18,0,32-6,41-19c8-11,9-24,13-37h-1
			c-10,6-29,8-47,10c-17,3-32,8-32,26C6449,1555,6461,1562,6475,1562z"/>
		<path d="M6690,1480c0-18-12-28-31-28c-37,0-56,36-56,68c0,22,9,41,36,41c20,0,36-12,42-30h24
			c-8,32-33,51-66,51c-39,0-60-24-60-62c0-46,28-89,80-89c33,0,53,16,54,49H6690z"/>
		<path d="M6752,1434h24l-30,145h-24L6752,1434z M6782,1408h-24l6-29h24L6782,1408z"/>
		<path d="M6871,1431c39,0,60,21,60,60c0,47-29,92-80,92c-38,0-61-26-61-60C6791,1475,6821,1431,6871,1431z
			 M6854,1562c35,0,54-40,54-69c0-23-12-41-38-41c-36,0-55,40-55,70C6814,1546,6828,1562,6854,1562z M6892,1375
			h32l-38,40h-20L6892,1375z"/>
		<path d="M6976,1434h23l-4,22h1c12-16,32-25,52-25c27,0,40,12,40,37c0,6-2,17-4,28l-18,83h-24l18-85
			c1-5,3-17,3-22c0-14-11-20-25-20c-13,0-27,7-36,17c-8,7-13,19-16,30l-17,80h-24L6976,1434z"/>
	</g>
	<path d="M1115,116c69,0,213,31,266,46c-546-27-890,344-890,769c0,303,181,637,616,737c-504,9-799-407-799-770
		C308,439,702,116,1115,116z"/>
	<path d="M824,0c89,0,205,29,287,54C1076,50,1019,50,998,50C494,50,191,493,191,903c0,353,195,726,666,832
		C300,1749,0,1261,0,865C0,405,366,0,824,0z"/>
	<g>
		<g>
			<path d="M1001,926h-49L941,980h57c16,0,38-6,38-29C1035,929,1019,926,1001,926z M1017,828h-46l-9,44h50
				c14,0,32-5,32-23C1045,832,1033,828,1017,828z M1296,227c-380,0-688,308-688,688c0,380,308,688,688,688
				c380,0,688-308,688-688C1984,535,1676,227,1296,227z M1124,951c0,70-56,97-119,97H839l60-289h148
				c63,0,86,22,86,63c0,36-18,60-53,70h0v1C1107,899,1124,925,1124,951z M1348,873c50,18,67,45,67,80
				c0,70-67,102-130,102c-66,0-126-30-122-104h86c0,16,4,25,11,33c8,6,18,7,33,7c17,0,39-9,39-28
				c0-21-30-24-70-37c-35-12-69-30-69-78c0-65,63-95,121-95c61,0,117,23,115,94h-82c0-12-4-19-10-24
				c-6-5-16-6-26-6c-15,0-34,4-34,23C1276,862,1319,863,1348,873z M1604,983c28,0,44-19,49-44h87v0
				c-5,29-28,116-148,116c-84,0-124-54-124-131c0-93,58-171,156-171c64,0,122,28,123,114h-84
				c1-27-12-42-40-42c-49,0-67,57-67,97C1557,946,1563,983,1604,983z"/>
		</g>
	</g>
</g>
</svg>